%TF.GenerationSoftware,KiCad,Pcbnew,7.0.11+dfsg-1build4*%
%TF.CreationDate,2024-10-09T23:59:54+02:00*%
%TF.ProjectId,BertheVarioTac-Shema,42657274-6865-4566-9172-696f5461632d,rev?*%
%TF.SameCoordinates,Original*%
%TF.FileFunction,Drillmap*%
%TF.FilePolarity,Positive*%
%FSLAX45Y45*%
G04 Gerber Fmt 4.5, Leading zero omitted, Abs format (unit mm)*
G04 Created by KiCad (PCBNEW 7.0.11+dfsg-1build4) date 2024-10-09 23:59:54*
%MOMM*%
%LPD*%
G01*
G04 APERTURE LIST*
%ADD10C,0.050000*%
%ADD11C,0.200000*%
%ADD12C,0.100000*%
G04 APERTURE END LIST*
D10*
X17400000Y-14200000D02*
G75*
G03*
X17800000Y-13800000I0J400000D01*
G01*
X17560000Y-9600000D02*
G75*
G03*
X17240000Y-9600000I-160000J0D01*
G01*
X17240000Y-9600000D02*
G75*
G03*
X17560000Y-9600000I160000J0D01*
G01*
X17400000Y-14200000D02*
X9600000Y-14200000D01*
X9600000Y-9200000D02*
X17400000Y-9200000D01*
X9760000Y-13800000D02*
G75*
G03*
X9440000Y-13800000I-160000J0D01*
G01*
X9440000Y-13800000D02*
G75*
G03*
X9760000Y-13800000I160000J0D01*
G01*
X9600000Y-9200000D02*
G75*
G03*
X9200000Y-9600000I0J-400000D01*
G01*
X9200000Y-13800000D02*
G75*
G03*
X9600000Y-14200000I400000J0D01*
G01*
X9200000Y-13800000D02*
X9200000Y-9600000D01*
X17800000Y-9600000D02*
G75*
G03*
X17400000Y-9200000I-400000J0D01*
G01*
X9760000Y-9600000D02*
G75*
G03*
X9440000Y-9600000I-160000J0D01*
G01*
X9440000Y-9600000D02*
G75*
G03*
X9760000Y-9600000I160000J0D01*
G01*
X17560000Y-13800000D02*
G75*
G03*
X17240000Y-13800000I-160000J0D01*
G01*
X17240000Y-13800000D02*
G75*
G03*
X17560000Y-13800000I160000J0D01*
G01*
X17800000Y-9600000D02*
X17800000Y-13800000D01*
D11*
D12*
X13697460Y-12674990D02*
X13727460Y-12704990D01*
X13727460Y-12674990D02*
X13697460Y-12704990D01*
X9440000Y-12300000D02*
G75*
G03*
X9360000Y-12300000I-40000J0D01*
G01*
X9360000Y-12300000D02*
G75*
G03*
X9440000Y-12300000I40000J0D01*
G01*
X9440000Y-12554000D02*
G75*
G03*
X9360000Y-12554000I-40000J0D01*
G01*
X9360000Y-12554000D02*
G75*
G03*
X9440000Y-12554000I40000J0D01*
G01*
X9440000Y-12808000D02*
G75*
G03*
X9360000Y-12808000I-40000J0D01*
G01*
X9360000Y-12808000D02*
G75*
G03*
X9440000Y-12808000I40000J0D01*
G01*
X9440000Y-13062000D02*
G75*
G03*
X9360000Y-13062000I-40000J0D01*
G01*
X9360000Y-13062000D02*
G75*
G03*
X9440000Y-13062000I40000J0D01*
G01*
X9440000Y-13316000D02*
G75*
G03*
X9360000Y-13316000I-40000J0D01*
G01*
X9360000Y-13316000D02*
G75*
G03*
X9440000Y-13316000I40000J0D01*
G01*
X10182000Y-9900000D02*
G75*
G03*
X10102000Y-9900000I-40000J0D01*
G01*
X10102000Y-9900000D02*
G75*
G03*
X10182000Y-9900000I40000J0D01*
G01*
X10182000Y-10350000D02*
G75*
G03*
X10102000Y-10350000I-40000J0D01*
G01*
X10102000Y-10350000D02*
G75*
G03*
X10182000Y-10350000I40000J0D01*
G01*
X10536000Y-14000000D02*
G75*
G03*
X10456000Y-14000000I-40000J0D01*
G01*
X10456000Y-14000000D02*
G75*
G03*
X10536000Y-14000000I40000J0D01*
G01*
X10790000Y-14000000D02*
G75*
G03*
X10710000Y-14000000I-40000J0D01*
G01*
X10710000Y-14000000D02*
G75*
G03*
X10790000Y-14000000I40000J0D01*
G01*
X11044000Y-14000000D02*
G75*
G03*
X10964000Y-14000000I-40000J0D01*
G01*
X10964000Y-14000000D02*
G75*
G03*
X11044000Y-14000000I40000J0D01*
G01*
X11198000Y-9900000D02*
G75*
G03*
X11118000Y-9900000I-40000J0D01*
G01*
X11118000Y-9900000D02*
G75*
G03*
X11198000Y-9900000I40000J0D01*
G01*
X11198000Y-10350000D02*
G75*
G03*
X11118000Y-10350000I-40000J0D01*
G01*
X11118000Y-10350000D02*
G75*
G03*
X11198000Y-10350000I40000J0D01*
G01*
X11298000Y-14000000D02*
G75*
G03*
X11218000Y-14000000I-40000J0D01*
G01*
X11218000Y-14000000D02*
G75*
G03*
X11298000Y-14000000I40000J0D01*
G01*
X11828000Y-14000000D02*
G75*
G03*
X11748000Y-14000000I-40000J0D01*
G01*
X11748000Y-14000000D02*
G75*
G03*
X11828000Y-14000000I40000J0D01*
G01*
X11840000Y-9600000D02*
G75*
G03*
X11760000Y-9600000I-40000J0D01*
G01*
X11760000Y-9600000D02*
G75*
G03*
X11840000Y-9600000I40000J0D01*
G01*
X12082000Y-14000000D02*
G75*
G03*
X12002000Y-14000000I-40000J0D01*
G01*
X12002000Y-14000000D02*
G75*
G03*
X12082000Y-14000000I40000J0D01*
G01*
X12090000Y-10000000D02*
G75*
G03*
X12010000Y-10000000I-40000J0D01*
G01*
X12010000Y-10000000D02*
G75*
G03*
X12090000Y-10000000I40000J0D01*
G01*
X12336000Y-14000000D02*
G75*
G03*
X12256000Y-14000000I-40000J0D01*
G01*
X12256000Y-14000000D02*
G75*
G03*
X12336000Y-14000000I40000J0D01*
G01*
X12340000Y-9600000D02*
G75*
G03*
X12260000Y-9600000I-40000J0D01*
G01*
X12260000Y-9600000D02*
G75*
G03*
X12340000Y-9600000I40000J0D01*
G01*
X12590000Y-14000000D02*
G75*
G03*
X12510000Y-14000000I-40000J0D01*
G01*
X12510000Y-14000000D02*
G75*
G03*
X12590000Y-14000000I40000J0D01*
G01*
X13032000Y-10450000D02*
G75*
G03*
X12952000Y-10450000I-40000J0D01*
G01*
X12952000Y-10450000D02*
G75*
G03*
X13032000Y-10450000I40000J0D01*
G01*
X13182000Y-14000000D02*
G75*
G03*
X13102000Y-14000000I-40000J0D01*
G01*
X13102000Y-14000000D02*
G75*
G03*
X13182000Y-14000000I40000J0D01*
G01*
X13286000Y-10450000D02*
G75*
G03*
X13206000Y-10450000I-40000J0D01*
G01*
X13206000Y-10450000D02*
G75*
G03*
X13286000Y-10450000I40000J0D01*
G01*
X13390000Y-11800000D02*
G75*
G03*
X13310000Y-11800000I-40000J0D01*
G01*
X13310000Y-11800000D02*
G75*
G03*
X13390000Y-11800000I40000J0D01*
G01*
X13390000Y-12054000D02*
G75*
G03*
X13310000Y-12054000I-40000J0D01*
G01*
X13310000Y-12054000D02*
G75*
G03*
X13390000Y-12054000I40000J0D01*
G01*
X13390000Y-12308000D02*
G75*
G03*
X13310000Y-12308000I-40000J0D01*
G01*
X13310000Y-12308000D02*
G75*
G03*
X13390000Y-12308000I40000J0D01*
G01*
X13390000Y-12562000D02*
G75*
G03*
X13310000Y-12562000I-40000J0D01*
G01*
X13310000Y-12562000D02*
G75*
G03*
X13390000Y-12562000I40000J0D01*
G01*
X13436000Y-14000000D02*
G75*
G03*
X13356000Y-14000000I-40000J0D01*
G01*
X13356000Y-14000000D02*
G75*
G03*
X13436000Y-14000000I40000J0D01*
G01*
X13540000Y-10450000D02*
G75*
G03*
X13460000Y-10450000I-40000J0D01*
G01*
X13460000Y-10450000D02*
G75*
G03*
X13540000Y-10450000I40000J0D01*
G01*
X13690000Y-14000000D02*
G75*
G03*
X13610000Y-14000000I-40000J0D01*
G01*
X13610000Y-14000000D02*
G75*
G03*
X13690000Y-14000000I40000J0D01*
G01*
X13944000Y-14000000D02*
G75*
G03*
X13864000Y-14000000I-40000J0D01*
G01*
X13864000Y-14000000D02*
G75*
G03*
X13944000Y-14000000I40000J0D01*
G01*
X14428000Y-14000000D02*
G75*
G03*
X14348000Y-14000000I-40000J0D01*
G01*
X14348000Y-14000000D02*
G75*
G03*
X14428000Y-14000000I40000J0D01*
G01*
X14440000Y-12546000D02*
G75*
G03*
X14360000Y-12546000I-40000J0D01*
G01*
X14360000Y-12546000D02*
G75*
G03*
X14440000Y-12546000I40000J0D01*
G01*
X14440000Y-12800000D02*
G75*
G03*
X14360000Y-12800000I-40000J0D01*
G01*
X14360000Y-12800000D02*
G75*
G03*
X14440000Y-12800000I40000J0D01*
G01*
X14440000Y-13054000D02*
G75*
G03*
X14360000Y-13054000I-40000J0D01*
G01*
X14360000Y-13054000D02*
G75*
G03*
X14440000Y-13054000I40000J0D01*
G01*
X14440000Y-13308000D02*
G75*
G03*
X14360000Y-13308000I-40000J0D01*
G01*
X14360000Y-13308000D02*
G75*
G03*
X14440000Y-13308000I40000J0D01*
G01*
X15444000Y-14000000D02*
G75*
G03*
X15364000Y-14000000I-40000J0D01*
G01*
X15364000Y-14000000D02*
G75*
G03*
X15444000Y-14000000I40000J0D01*
G01*
X15936000Y-14000000D02*
G75*
G03*
X15856000Y-14000000I-40000J0D01*
G01*
X15856000Y-14000000D02*
G75*
G03*
X15936000Y-14000000I40000J0D01*
G01*
X16190000Y-14000000D02*
G75*
G03*
X16110000Y-14000000I-40000J0D01*
G01*
X16110000Y-14000000D02*
G75*
G03*
X16190000Y-14000000I40000J0D01*
G01*
X16636000Y-14000000D02*
G75*
G03*
X16556000Y-14000000I-40000J0D01*
G01*
X16556000Y-14000000D02*
G75*
G03*
X16636000Y-14000000I40000J0D01*
G01*
X16840000Y-10300000D02*
G75*
G03*
X16760000Y-10300000I-40000J0D01*
G01*
X16760000Y-10300000D02*
G75*
G03*
X16840000Y-10300000I40000J0D01*
G01*
X16840000Y-11200000D02*
G75*
G03*
X16760000Y-11200000I-40000J0D01*
G01*
X16760000Y-11200000D02*
G75*
G03*
X16840000Y-11200000I40000J0D01*
G01*
X16840000Y-13000000D02*
G75*
G03*
X16760000Y-13000000I-40000J0D01*
G01*
X16760000Y-13000000D02*
G75*
G03*
X16840000Y-13000000I40000J0D01*
G01*
X16840000Y-13254000D02*
G75*
G03*
X16760000Y-13254000I-40000J0D01*
G01*
X16760000Y-13254000D02*
G75*
G03*
X16840000Y-13254000I40000J0D01*
G01*
X16890000Y-14000000D02*
G75*
G03*
X16810000Y-14000000I-40000J0D01*
G01*
X16810000Y-14000000D02*
G75*
G03*
X16890000Y-14000000I40000J0D01*
G01*
X17390000Y-12996000D02*
G75*
G03*
X17310000Y-12996000I-40000J0D01*
G01*
X17310000Y-12996000D02*
G75*
G03*
X17390000Y-12996000I40000J0D01*
G01*
X17390000Y-13250000D02*
G75*
G03*
X17310000Y-13250000I-40000J0D01*
G01*
X17310000Y-13250000D02*
G75*
G03*
X17390000Y-13250000I40000J0D01*
G01*
D11*
X9458277Y-14513984D02*
X9458277Y-14313984D01*
X9458277Y-14313984D02*
X9505896Y-14313984D01*
X9505896Y-14313984D02*
X9534467Y-14323508D01*
X9534467Y-14323508D02*
X9553515Y-14342555D01*
X9553515Y-14342555D02*
X9563039Y-14361603D01*
X9563039Y-14361603D02*
X9572563Y-14399698D01*
X9572563Y-14399698D02*
X9572563Y-14428269D01*
X9572563Y-14428269D02*
X9563039Y-14466365D01*
X9563039Y-14466365D02*
X9553515Y-14485412D01*
X9553515Y-14485412D02*
X9534467Y-14504460D01*
X9534467Y-14504460D02*
X9505896Y-14513984D01*
X9505896Y-14513984D02*
X9458277Y-14513984D01*
X9658277Y-14513984D02*
X9658277Y-14380650D01*
X9658277Y-14418746D02*
X9667801Y-14399698D01*
X9667801Y-14399698D02*
X9677324Y-14390174D01*
X9677324Y-14390174D02*
X9696372Y-14380650D01*
X9696372Y-14380650D02*
X9715420Y-14380650D01*
X9782086Y-14513984D02*
X9782086Y-14380650D01*
X9782086Y-14313984D02*
X9772563Y-14323508D01*
X9772563Y-14323508D02*
X9782086Y-14333031D01*
X9782086Y-14333031D02*
X9791610Y-14323508D01*
X9791610Y-14323508D02*
X9782086Y-14313984D01*
X9782086Y-14313984D02*
X9782086Y-14333031D01*
X9905896Y-14513984D02*
X9886848Y-14504460D01*
X9886848Y-14504460D02*
X9877324Y-14485412D01*
X9877324Y-14485412D02*
X9877324Y-14313984D01*
X10010658Y-14513984D02*
X9991610Y-14504460D01*
X9991610Y-14504460D02*
X9982086Y-14485412D01*
X9982086Y-14485412D02*
X9982086Y-14313984D01*
X10239229Y-14513984D02*
X10239229Y-14313984D01*
X10239229Y-14313984D02*
X10305896Y-14456841D01*
X10305896Y-14456841D02*
X10372563Y-14313984D01*
X10372563Y-14313984D02*
X10372563Y-14513984D01*
X10553515Y-14513984D02*
X10553515Y-14409222D01*
X10553515Y-14409222D02*
X10543991Y-14390174D01*
X10543991Y-14390174D02*
X10524944Y-14380650D01*
X10524944Y-14380650D02*
X10486848Y-14380650D01*
X10486848Y-14380650D02*
X10467801Y-14390174D01*
X10553515Y-14504460D02*
X10534467Y-14513984D01*
X10534467Y-14513984D02*
X10486848Y-14513984D01*
X10486848Y-14513984D02*
X10467801Y-14504460D01*
X10467801Y-14504460D02*
X10458277Y-14485412D01*
X10458277Y-14485412D02*
X10458277Y-14466365D01*
X10458277Y-14466365D02*
X10467801Y-14447317D01*
X10467801Y-14447317D02*
X10486848Y-14437793D01*
X10486848Y-14437793D02*
X10534467Y-14437793D01*
X10534467Y-14437793D02*
X10553515Y-14428269D01*
X10648753Y-14380650D02*
X10648753Y-14580650D01*
X10648753Y-14390174D02*
X10667801Y-14380650D01*
X10667801Y-14380650D02*
X10705896Y-14380650D01*
X10705896Y-14380650D02*
X10724944Y-14390174D01*
X10724944Y-14390174D02*
X10734467Y-14399698D01*
X10734467Y-14399698D02*
X10743991Y-14418746D01*
X10743991Y-14418746D02*
X10743991Y-14475888D01*
X10743991Y-14475888D02*
X10734467Y-14494936D01*
X10734467Y-14494936D02*
X10724944Y-14504460D01*
X10724944Y-14504460D02*
X10705896Y-14513984D01*
X10705896Y-14513984D02*
X10667801Y-14513984D01*
X10667801Y-14513984D02*
X10648753Y-14504460D01*
X10829705Y-14494936D02*
X10839229Y-14504460D01*
X10839229Y-14504460D02*
X10829705Y-14513984D01*
X10829705Y-14513984D02*
X10820182Y-14504460D01*
X10820182Y-14504460D02*
X10829705Y-14494936D01*
X10829705Y-14494936D02*
X10829705Y-14513984D01*
X10829705Y-14390174D02*
X10839229Y-14399698D01*
X10839229Y-14399698D02*
X10829705Y-14409222D01*
X10829705Y-14409222D02*
X10820182Y-14399698D01*
X10820182Y-14399698D02*
X10829705Y-14390174D01*
X10829705Y-14390174D02*
X10829705Y-14409222D01*
D12*
X9167500Y-14827500D02*
X9197500Y-14857500D01*
X9197500Y-14827500D02*
X9167500Y-14857500D01*
D11*
X9496372Y-14733984D02*
X9515420Y-14733984D01*
X9515420Y-14733984D02*
X9534467Y-14743508D01*
X9534467Y-14743508D02*
X9543991Y-14753031D01*
X9543991Y-14753031D02*
X9553515Y-14772079D01*
X9553515Y-14772079D02*
X9563039Y-14810174D01*
X9563039Y-14810174D02*
X9563039Y-14857793D01*
X9563039Y-14857793D02*
X9553515Y-14895888D01*
X9553515Y-14895888D02*
X9543991Y-14914936D01*
X9543991Y-14914936D02*
X9534467Y-14924460D01*
X9534467Y-14924460D02*
X9515420Y-14933984D01*
X9515420Y-14933984D02*
X9496372Y-14933984D01*
X9496372Y-14933984D02*
X9477324Y-14924460D01*
X9477324Y-14924460D02*
X9467801Y-14914936D01*
X9467801Y-14914936D02*
X9458277Y-14895888D01*
X9458277Y-14895888D02*
X9448753Y-14857793D01*
X9448753Y-14857793D02*
X9448753Y-14810174D01*
X9448753Y-14810174D02*
X9458277Y-14772079D01*
X9458277Y-14772079D02*
X9467801Y-14753031D01*
X9467801Y-14753031D02*
X9477324Y-14743508D01*
X9477324Y-14743508D02*
X9496372Y-14733984D01*
X9648753Y-14914936D02*
X9658277Y-14924460D01*
X9658277Y-14924460D02*
X9648753Y-14933984D01*
X9648753Y-14933984D02*
X9639229Y-14924460D01*
X9639229Y-14924460D02*
X9648753Y-14914936D01*
X9648753Y-14914936D02*
X9648753Y-14933984D01*
X9724944Y-14733984D02*
X9848753Y-14733984D01*
X9848753Y-14733984D02*
X9782086Y-14810174D01*
X9782086Y-14810174D02*
X9810658Y-14810174D01*
X9810658Y-14810174D02*
X9829705Y-14819698D01*
X9829705Y-14819698D02*
X9839229Y-14829222D01*
X9839229Y-14829222D02*
X9848753Y-14848269D01*
X9848753Y-14848269D02*
X9848753Y-14895888D01*
X9848753Y-14895888D02*
X9839229Y-14914936D01*
X9839229Y-14914936D02*
X9829705Y-14924460D01*
X9829705Y-14924460D02*
X9810658Y-14933984D01*
X9810658Y-14933984D02*
X9753515Y-14933984D01*
X9753515Y-14933984D02*
X9734467Y-14924460D01*
X9734467Y-14924460D02*
X9724944Y-14914936D01*
X9972563Y-14733984D02*
X9991610Y-14733984D01*
X9991610Y-14733984D02*
X10010658Y-14743508D01*
X10010658Y-14743508D02*
X10020182Y-14753031D01*
X10020182Y-14753031D02*
X10029705Y-14772079D01*
X10029705Y-14772079D02*
X10039229Y-14810174D01*
X10039229Y-14810174D02*
X10039229Y-14857793D01*
X10039229Y-14857793D02*
X10029705Y-14895888D01*
X10029705Y-14895888D02*
X10020182Y-14914936D01*
X10020182Y-14914936D02*
X10010658Y-14924460D01*
X10010658Y-14924460D02*
X9991610Y-14933984D01*
X9991610Y-14933984D02*
X9972563Y-14933984D01*
X9972563Y-14933984D02*
X9953515Y-14924460D01*
X9953515Y-14924460D02*
X9943991Y-14914936D01*
X9943991Y-14914936D02*
X9934467Y-14895888D01*
X9934467Y-14895888D02*
X9924944Y-14857793D01*
X9924944Y-14857793D02*
X9924944Y-14810174D01*
X9924944Y-14810174D02*
X9934467Y-14772079D01*
X9934467Y-14772079D02*
X9943991Y-14753031D01*
X9943991Y-14753031D02*
X9953515Y-14743508D01*
X9953515Y-14743508D02*
X9972563Y-14733984D01*
X10163039Y-14733984D02*
X10182086Y-14733984D01*
X10182086Y-14733984D02*
X10201134Y-14743508D01*
X10201134Y-14743508D02*
X10210658Y-14753031D01*
X10210658Y-14753031D02*
X10220182Y-14772079D01*
X10220182Y-14772079D02*
X10229705Y-14810174D01*
X10229705Y-14810174D02*
X10229705Y-14857793D01*
X10229705Y-14857793D02*
X10220182Y-14895888D01*
X10220182Y-14895888D02*
X10210658Y-14914936D01*
X10210658Y-14914936D02*
X10201134Y-14924460D01*
X10201134Y-14924460D02*
X10182086Y-14933984D01*
X10182086Y-14933984D02*
X10163039Y-14933984D01*
X10163039Y-14933984D02*
X10143991Y-14924460D01*
X10143991Y-14924460D02*
X10134467Y-14914936D01*
X10134467Y-14914936D02*
X10124944Y-14895888D01*
X10124944Y-14895888D02*
X10115420Y-14857793D01*
X10115420Y-14857793D02*
X10115420Y-14810174D01*
X10115420Y-14810174D02*
X10124944Y-14772079D01*
X10124944Y-14772079D02*
X10134467Y-14753031D01*
X10134467Y-14753031D02*
X10143991Y-14743508D01*
X10143991Y-14743508D02*
X10163039Y-14733984D01*
X10315420Y-14933984D02*
X10315420Y-14800650D01*
X10315420Y-14819698D02*
X10324944Y-14810174D01*
X10324944Y-14810174D02*
X10343991Y-14800650D01*
X10343991Y-14800650D02*
X10372563Y-14800650D01*
X10372563Y-14800650D02*
X10391610Y-14810174D01*
X10391610Y-14810174D02*
X10401134Y-14829222D01*
X10401134Y-14829222D02*
X10401134Y-14933984D01*
X10401134Y-14829222D02*
X10410658Y-14810174D01*
X10410658Y-14810174D02*
X10429705Y-14800650D01*
X10429705Y-14800650D02*
X10458277Y-14800650D01*
X10458277Y-14800650D02*
X10477325Y-14810174D01*
X10477325Y-14810174D02*
X10486848Y-14829222D01*
X10486848Y-14829222D02*
X10486848Y-14933984D01*
X10582086Y-14933984D02*
X10582086Y-14800650D01*
X10582086Y-14819698D02*
X10591610Y-14810174D01*
X10591610Y-14810174D02*
X10610658Y-14800650D01*
X10610658Y-14800650D02*
X10639229Y-14800650D01*
X10639229Y-14800650D02*
X10658277Y-14810174D01*
X10658277Y-14810174D02*
X10667801Y-14829222D01*
X10667801Y-14829222D02*
X10667801Y-14933984D01*
X10667801Y-14829222D02*
X10677325Y-14810174D01*
X10677325Y-14810174D02*
X10696372Y-14800650D01*
X10696372Y-14800650D02*
X10724944Y-14800650D01*
X10724944Y-14800650D02*
X10743991Y-14810174D01*
X10743991Y-14810174D02*
X10753515Y-14829222D01*
X10753515Y-14829222D02*
X10753515Y-14933984D01*
X11143991Y-14724460D02*
X10972563Y-14981603D01*
X11401134Y-14733984D02*
X11420182Y-14733984D01*
X11420182Y-14733984D02*
X11439229Y-14743508D01*
X11439229Y-14743508D02*
X11448753Y-14753031D01*
X11448753Y-14753031D02*
X11458277Y-14772079D01*
X11458277Y-14772079D02*
X11467801Y-14810174D01*
X11467801Y-14810174D02*
X11467801Y-14857793D01*
X11467801Y-14857793D02*
X11458277Y-14895888D01*
X11458277Y-14895888D02*
X11448753Y-14914936D01*
X11448753Y-14914936D02*
X11439229Y-14924460D01*
X11439229Y-14924460D02*
X11420182Y-14933984D01*
X11420182Y-14933984D02*
X11401134Y-14933984D01*
X11401134Y-14933984D02*
X11382086Y-14924460D01*
X11382086Y-14924460D02*
X11372563Y-14914936D01*
X11372563Y-14914936D02*
X11363039Y-14895888D01*
X11363039Y-14895888D02*
X11353515Y-14857793D01*
X11353515Y-14857793D02*
X11353515Y-14810174D01*
X11353515Y-14810174D02*
X11363039Y-14772079D01*
X11363039Y-14772079D02*
X11372563Y-14753031D01*
X11372563Y-14753031D02*
X11382086Y-14743508D01*
X11382086Y-14743508D02*
X11401134Y-14733984D01*
X11553515Y-14914936D02*
X11563039Y-14924460D01*
X11563039Y-14924460D02*
X11553515Y-14933984D01*
X11553515Y-14933984D02*
X11543991Y-14924460D01*
X11543991Y-14924460D02*
X11553515Y-14914936D01*
X11553515Y-14914936D02*
X11553515Y-14933984D01*
X11686848Y-14733984D02*
X11705896Y-14733984D01*
X11705896Y-14733984D02*
X11724944Y-14743508D01*
X11724944Y-14743508D02*
X11734467Y-14753031D01*
X11734467Y-14753031D02*
X11743991Y-14772079D01*
X11743991Y-14772079D02*
X11753515Y-14810174D01*
X11753515Y-14810174D02*
X11753515Y-14857793D01*
X11753515Y-14857793D02*
X11743991Y-14895888D01*
X11743991Y-14895888D02*
X11734467Y-14914936D01*
X11734467Y-14914936D02*
X11724944Y-14924460D01*
X11724944Y-14924460D02*
X11705896Y-14933984D01*
X11705896Y-14933984D02*
X11686848Y-14933984D01*
X11686848Y-14933984D02*
X11667801Y-14924460D01*
X11667801Y-14924460D02*
X11658277Y-14914936D01*
X11658277Y-14914936D02*
X11648753Y-14895888D01*
X11648753Y-14895888D02*
X11639229Y-14857793D01*
X11639229Y-14857793D02*
X11639229Y-14810174D01*
X11639229Y-14810174D02*
X11648753Y-14772079D01*
X11648753Y-14772079D02*
X11658277Y-14753031D01*
X11658277Y-14753031D02*
X11667801Y-14743508D01*
X11667801Y-14743508D02*
X11686848Y-14733984D01*
X11943991Y-14933984D02*
X11829706Y-14933984D01*
X11886848Y-14933984D02*
X11886848Y-14733984D01*
X11886848Y-14733984D02*
X11867801Y-14762555D01*
X11867801Y-14762555D02*
X11848753Y-14781603D01*
X11848753Y-14781603D02*
X11829706Y-14791127D01*
X12134467Y-14933984D02*
X12020182Y-14933984D01*
X12077325Y-14933984D02*
X12077325Y-14733984D01*
X12077325Y-14733984D02*
X12058277Y-14762555D01*
X12058277Y-14762555D02*
X12039229Y-14781603D01*
X12039229Y-14781603D02*
X12020182Y-14791127D01*
X12248753Y-14819698D02*
X12229706Y-14810174D01*
X12229706Y-14810174D02*
X12220182Y-14800650D01*
X12220182Y-14800650D02*
X12210658Y-14781603D01*
X12210658Y-14781603D02*
X12210658Y-14772079D01*
X12210658Y-14772079D02*
X12220182Y-14753031D01*
X12220182Y-14753031D02*
X12229706Y-14743508D01*
X12229706Y-14743508D02*
X12248753Y-14733984D01*
X12248753Y-14733984D02*
X12286848Y-14733984D01*
X12286848Y-14733984D02*
X12305896Y-14743508D01*
X12305896Y-14743508D02*
X12315420Y-14753031D01*
X12315420Y-14753031D02*
X12324944Y-14772079D01*
X12324944Y-14772079D02*
X12324944Y-14781603D01*
X12324944Y-14781603D02*
X12315420Y-14800650D01*
X12315420Y-14800650D02*
X12305896Y-14810174D01*
X12305896Y-14810174D02*
X12286848Y-14819698D01*
X12286848Y-14819698D02*
X12248753Y-14819698D01*
X12248753Y-14819698D02*
X12229706Y-14829222D01*
X12229706Y-14829222D02*
X12220182Y-14838746D01*
X12220182Y-14838746D02*
X12210658Y-14857793D01*
X12210658Y-14857793D02*
X12210658Y-14895888D01*
X12210658Y-14895888D02*
X12220182Y-14914936D01*
X12220182Y-14914936D02*
X12229706Y-14924460D01*
X12229706Y-14924460D02*
X12248753Y-14933984D01*
X12248753Y-14933984D02*
X12286848Y-14933984D01*
X12286848Y-14933984D02*
X12305896Y-14924460D01*
X12305896Y-14924460D02*
X12315420Y-14914936D01*
X12315420Y-14914936D02*
X12324944Y-14895888D01*
X12324944Y-14895888D02*
X12324944Y-14857793D01*
X12324944Y-14857793D02*
X12315420Y-14838746D01*
X12315420Y-14838746D02*
X12305896Y-14829222D01*
X12305896Y-14829222D02*
X12286848Y-14819698D01*
X12401134Y-14733984D02*
X12401134Y-14772079D01*
X12477325Y-14733984D02*
X12477325Y-14772079D01*
X12772563Y-15010174D02*
X12763039Y-15000650D01*
X12763039Y-15000650D02*
X12743991Y-14972079D01*
X12743991Y-14972079D02*
X12734468Y-14953031D01*
X12734468Y-14953031D02*
X12724944Y-14924460D01*
X12724944Y-14924460D02*
X12715420Y-14876841D01*
X12715420Y-14876841D02*
X12715420Y-14838746D01*
X12715420Y-14838746D02*
X12724944Y-14791127D01*
X12724944Y-14791127D02*
X12734468Y-14762555D01*
X12734468Y-14762555D02*
X12743991Y-14743508D01*
X12743991Y-14743508D02*
X12763039Y-14714936D01*
X12763039Y-14714936D02*
X12772563Y-14705412D01*
X12953515Y-14933984D02*
X12839229Y-14933984D01*
X12896372Y-14933984D02*
X12896372Y-14733984D01*
X12896372Y-14733984D02*
X12877325Y-14762555D01*
X12877325Y-14762555D02*
X12858277Y-14781603D01*
X12858277Y-14781603D02*
X12839229Y-14791127D01*
X13191610Y-14933984D02*
X13191610Y-14733984D01*
X13277325Y-14933984D02*
X13277325Y-14829222D01*
X13277325Y-14829222D02*
X13267801Y-14810174D01*
X13267801Y-14810174D02*
X13248753Y-14800650D01*
X13248753Y-14800650D02*
X13220182Y-14800650D01*
X13220182Y-14800650D02*
X13201134Y-14810174D01*
X13201134Y-14810174D02*
X13191610Y-14819698D01*
X13401134Y-14933984D02*
X13382087Y-14924460D01*
X13382087Y-14924460D02*
X13372563Y-14914936D01*
X13372563Y-14914936D02*
X13363039Y-14895888D01*
X13363039Y-14895888D02*
X13363039Y-14838746D01*
X13363039Y-14838746D02*
X13372563Y-14819698D01*
X13372563Y-14819698D02*
X13382087Y-14810174D01*
X13382087Y-14810174D02*
X13401134Y-14800650D01*
X13401134Y-14800650D02*
X13429706Y-14800650D01*
X13429706Y-14800650D02*
X13448753Y-14810174D01*
X13448753Y-14810174D02*
X13458277Y-14819698D01*
X13458277Y-14819698D02*
X13467801Y-14838746D01*
X13467801Y-14838746D02*
X13467801Y-14895888D01*
X13467801Y-14895888D02*
X13458277Y-14914936D01*
X13458277Y-14914936D02*
X13448753Y-14924460D01*
X13448753Y-14924460D02*
X13429706Y-14933984D01*
X13429706Y-14933984D02*
X13401134Y-14933984D01*
X13582087Y-14933984D02*
X13563039Y-14924460D01*
X13563039Y-14924460D02*
X13553515Y-14905412D01*
X13553515Y-14905412D02*
X13553515Y-14733984D01*
X13734468Y-14924460D02*
X13715420Y-14933984D01*
X13715420Y-14933984D02*
X13677325Y-14933984D01*
X13677325Y-14933984D02*
X13658277Y-14924460D01*
X13658277Y-14924460D02*
X13648753Y-14905412D01*
X13648753Y-14905412D02*
X13648753Y-14829222D01*
X13648753Y-14829222D02*
X13658277Y-14810174D01*
X13658277Y-14810174D02*
X13677325Y-14800650D01*
X13677325Y-14800650D02*
X13715420Y-14800650D01*
X13715420Y-14800650D02*
X13734468Y-14810174D01*
X13734468Y-14810174D02*
X13743991Y-14829222D01*
X13743991Y-14829222D02*
X13743991Y-14848269D01*
X13743991Y-14848269D02*
X13648753Y-14867317D01*
X13810658Y-15010174D02*
X13820182Y-15000650D01*
X13820182Y-15000650D02*
X13839230Y-14972079D01*
X13839230Y-14972079D02*
X13848753Y-14953031D01*
X13848753Y-14953031D02*
X13858277Y-14924460D01*
X13858277Y-14924460D02*
X13867801Y-14876841D01*
X13867801Y-14876841D02*
X13867801Y-14838746D01*
X13867801Y-14838746D02*
X13858277Y-14791127D01*
X13858277Y-14791127D02*
X13848753Y-14762555D01*
X13848753Y-14762555D02*
X13839230Y-14743508D01*
X13839230Y-14743508D02*
X13820182Y-14714936D01*
X13820182Y-14714936D02*
X13810658Y-14705412D01*
D12*
X9197500Y-15106500D02*
G75*
G03*
X9117500Y-15106500I-40000J0D01*
G01*
X9117500Y-15106500D02*
G75*
G03*
X9197500Y-15106500I40000J0D01*
G01*
D11*
X9496372Y-14997984D02*
X9515420Y-14997984D01*
X9515420Y-14997984D02*
X9534467Y-15007508D01*
X9534467Y-15007508D02*
X9543991Y-15017031D01*
X9543991Y-15017031D02*
X9553515Y-15036079D01*
X9553515Y-15036079D02*
X9563039Y-15074174D01*
X9563039Y-15074174D02*
X9563039Y-15121793D01*
X9563039Y-15121793D02*
X9553515Y-15159888D01*
X9553515Y-15159888D02*
X9543991Y-15178936D01*
X9543991Y-15178936D02*
X9534467Y-15188460D01*
X9534467Y-15188460D02*
X9515420Y-15197984D01*
X9515420Y-15197984D02*
X9496372Y-15197984D01*
X9496372Y-15197984D02*
X9477324Y-15188460D01*
X9477324Y-15188460D02*
X9467801Y-15178936D01*
X9467801Y-15178936D02*
X9458277Y-15159888D01*
X9458277Y-15159888D02*
X9448753Y-15121793D01*
X9448753Y-15121793D02*
X9448753Y-15074174D01*
X9448753Y-15074174D02*
X9458277Y-15036079D01*
X9458277Y-15036079D02*
X9467801Y-15017031D01*
X9467801Y-15017031D02*
X9477324Y-15007508D01*
X9477324Y-15007508D02*
X9496372Y-14997984D01*
X9648753Y-15178936D02*
X9658277Y-15188460D01*
X9658277Y-15188460D02*
X9648753Y-15197984D01*
X9648753Y-15197984D02*
X9639229Y-15188460D01*
X9639229Y-15188460D02*
X9648753Y-15178936D01*
X9648753Y-15178936D02*
X9648753Y-15197984D01*
X9772563Y-15083698D02*
X9753515Y-15074174D01*
X9753515Y-15074174D02*
X9743991Y-15064650D01*
X9743991Y-15064650D02*
X9734467Y-15045603D01*
X9734467Y-15045603D02*
X9734467Y-15036079D01*
X9734467Y-15036079D02*
X9743991Y-15017031D01*
X9743991Y-15017031D02*
X9753515Y-15007508D01*
X9753515Y-15007508D02*
X9772563Y-14997984D01*
X9772563Y-14997984D02*
X9810658Y-14997984D01*
X9810658Y-14997984D02*
X9829705Y-15007508D01*
X9829705Y-15007508D02*
X9839229Y-15017031D01*
X9839229Y-15017031D02*
X9848753Y-15036079D01*
X9848753Y-15036079D02*
X9848753Y-15045603D01*
X9848753Y-15045603D02*
X9839229Y-15064650D01*
X9839229Y-15064650D02*
X9829705Y-15074174D01*
X9829705Y-15074174D02*
X9810658Y-15083698D01*
X9810658Y-15083698D02*
X9772563Y-15083698D01*
X9772563Y-15083698D02*
X9753515Y-15093222D01*
X9753515Y-15093222D02*
X9743991Y-15102746D01*
X9743991Y-15102746D02*
X9734467Y-15121793D01*
X9734467Y-15121793D02*
X9734467Y-15159888D01*
X9734467Y-15159888D02*
X9743991Y-15178936D01*
X9743991Y-15178936D02*
X9753515Y-15188460D01*
X9753515Y-15188460D02*
X9772563Y-15197984D01*
X9772563Y-15197984D02*
X9810658Y-15197984D01*
X9810658Y-15197984D02*
X9829705Y-15188460D01*
X9829705Y-15188460D02*
X9839229Y-15178936D01*
X9839229Y-15178936D02*
X9848753Y-15159888D01*
X9848753Y-15159888D02*
X9848753Y-15121793D01*
X9848753Y-15121793D02*
X9839229Y-15102746D01*
X9839229Y-15102746D02*
X9829705Y-15093222D01*
X9829705Y-15093222D02*
X9810658Y-15083698D01*
X9972563Y-14997984D02*
X9991610Y-14997984D01*
X9991610Y-14997984D02*
X10010658Y-15007508D01*
X10010658Y-15007508D02*
X10020182Y-15017031D01*
X10020182Y-15017031D02*
X10029705Y-15036079D01*
X10029705Y-15036079D02*
X10039229Y-15074174D01*
X10039229Y-15074174D02*
X10039229Y-15121793D01*
X10039229Y-15121793D02*
X10029705Y-15159888D01*
X10029705Y-15159888D02*
X10020182Y-15178936D01*
X10020182Y-15178936D02*
X10010658Y-15188460D01*
X10010658Y-15188460D02*
X9991610Y-15197984D01*
X9991610Y-15197984D02*
X9972563Y-15197984D01*
X9972563Y-15197984D02*
X9953515Y-15188460D01*
X9953515Y-15188460D02*
X9943991Y-15178936D01*
X9943991Y-15178936D02*
X9934467Y-15159888D01*
X9934467Y-15159888D02*
X9924944Y-15121793D01*
X9924944Y-15121793D02*
X9924944Y-15074174D01*
X9924944Y-15074174D02*
X9934467Y-15036079D01*
X9934467Y-15036079D02*
X9943991Y-15017031D01*
X9943991Y-15017031D02*
X9953515Y-15007508D01*
X9953515Y-15007508D02*
X9972563Y-14997984D01*
X10163039Y-14997984D02*
X10182086Y-14997984D01*
X10182086Y-14997984D02*
X10201134Y-15007508D01*
X10201134Y-15007508D02*
X10210658Y-15017031D01*
X10210658Y-15017031D02*
X10220182Y-15036079D01*
X10220182Y-15036079D02*
X10229705Y-15074174D01*
X10229705Y-15074174D02*
X10229705Y-15121793D01*
X10229705Y-15121793D02*
X10220182Y-15159888D01*
X10220182Y-15159888D02*
X10210658Y-15178936D01*
X10210658Y-15178936D02*
X10201134Y-15188460D01*
X10201134Y-15188460D02*
X10182086Y-15197984D01*
X10182086Y-15197984D02*
X10163039Y-15197984D01*
X10163039Y-15197984D02*
X10143991Y-15188460D01*
X10143991Y-15188460D02*
X10134467Y-15178936D01*
X10134467Y-15178936D02*
X10124944Y-15159888D01*
X10124944Y-15159888D02*
X10115420Y-15121793D01*
X10115420Y-15121793D02*
X10115420Y-15074174D01*
X10115420Y-15074174D02*
X10124944Y-15036079D01*
X10124944Y-15036079D02*
X10134467Y-15017031D01*
X10134467Y-15017031D02*
X10143991Y-15007508D01*
X10143991Y-15007508D02*
X10163039Y-14997984D01*
X10315420Y-15197984D02*
X10315420Y-15064650D01*
X10315420Y-15083698D02*
X10324944Y-15074174D01*
X10324944Y-15074174D02*
X10343991Y-15064650D01*
X10343991Y-15064650D02*
X10372563Y-15064650D01*
X10372563Y-15064650D02*
X10391610Y-15074174D01*
X10391610Y-15074174D02*
X10401134Y-15093222D01*
X10401134Y-15093222D02*
X10401134Y-15197984D01*
X10401134Y-15093222D02*
X10410658Y-15074174D01*
X10410658Y-15074174D02*
X10429705Y-15064650D01*
X10429705Y-15064650D02*
X10458277Y-15064650D01*
X10458277Y-15064650D02*
X10477325Y-15074174D01*
X10477325Y-15074174D02*
X10486848Y-15093222D01*
X10486848Y-15093222D02*
X10486848Y-15197984D01*
X10582086Y-15197984D02*
X10582086Y-15064650D01*
X10582086Y-15083698D02*
X10591610Y-15074174D01*
X10591610Y-15074174D02*
X10610658Y-15064650D01*
X10610658Y-15064650D02*
X10639229Y-15064650D01*
X10639229Y-15064650D02*
X10658277Y-15074174D01*
X10658277Y-15074174D02*
X10667801Y-15093222D01*
X10667801Y-15093222D02*
X10667801Y-15197984D01*
X10667801Y-15093222D02*
X10677325Y-15074174D01*
X10677325Y-15074174D02*
X10696372Y-15064650D01*
X10696372Y-15064650D02*
X10724944Y-15064650D01*
X10724944Y-15064650D02*
X10743991Y-15074174D01*
X10743991Y-15074174D02*
X10753515Y-15093222D01*
X10753515Y-15093222D02*
X10753515Y-15197984D01*
X11143991Y-14988460D02*
X10972563Y-15245603D01*
X11401134Y-14997984D02*
X11420182Y-14997984D01*
X11420182Y-14997984D02*
X11439229Y-15007508D01*
X11439229Y-15007508D02*
X11448753Y-15017031D01*
X11448753Y-15017031D02*
X11458277Y-15036079D01*
X11458277Y-15036079D02*
X11467801Y-15074174D01*
X11467801Y-15074174D02*
X11467801Y-15121793D01*
X11467801Y-15121793D02*
X11458277Y-15159888D01*
X11458277Y-15159888D02*
X11448753Y-15178936D01*
X11448753Y-15178936D02*
X11439229Y-15188460D01*
X11439229Y-15188460D02*
X11420182Y-15197984D01*
X11420182Y-15197984D02*
X11401134Y-15197984D01*
X11401134Y-15197984D02*
X11382086Y-15188460D01*
X11382086Y-15188460D02*
X11372563Y-15178936D01*
X11372563Y-15178936D02*
X11363039Y-15159888D01*
X11363039Y-15159888D02*
X11353515Y-15121793D01*
X11353515Y-15121793D02*
X11353515Y-15074174D01*
X11353515Y-15074174D02*
X11363039Y-15036079D01*
X11363039Y-15036079D02*
X11372563Y-15017031D01*
X11372563Y-15017031D02*
X11382086Y-15007508D01*
X11382086Y-15007508D02*
X11401134Y-14997984D01*
X11553515Y-15178936D02*
X11563039Y-15188460D01*
X11563039Y-15188460D02*
X11553515Y-15197984D01*
X11553515Y-15197984D02*
X11543991Y-15188460D01*
X11543991Y-15188460D02*
X11553515Y-15178936D01*
X11553515Y-15178936D02*
X11553515Y-15197984D01*
X11686848Y-14997984D02*
X11705896Y-14997984D01*
X11705896Y-14997984D02*
X11724944Y-15007508D01*
X11724944Y-15007508D02*
X11734467Y-15017031D01*
X11734467Y-15017031D02*
X11743991Y-15036079D01*
X11743991Y-15036079D02*
X11753515Y-15074174D01*
X11753515Y-15074174D02*
X11753515Y-15121793D01*
X11753515Y-15121793D02*
X11743991Y-15159888D01*
X11743991Y-15159888D02*
X11734467Y-15178936D01*
X11734467Y-15178936D02*
X11724944Y-15188460D01*
X11724944Y-15188460D02*
X11705896Y-15197984D01*
X11705896Y-15197984D02*
X11686848Y-15197984D01*
X11686848Y-15197984D02*
X11667801Y-15188460D01*
X11667801Y-15188460D02*
X11658277Y-15178936D01*
X11658277Y-15178936D02*
X11648753Y-15159888D01*
X11648753Y-15159888D02*
X11639229Y-15121793D01*
X11639229Y-15121793D02*
X11639229Y-15074174D01*
X11639229Y-15074174D02*
X11648753Y-15036079D01*
X11648753Y-15036079D02*
X11658277Y-15017031D01*
X11658277Y-15017031D02*
X11667801Y-15007508D01*
X11667801Y-15007508D02*
X11686848Y-14997984D01*
X11820182Y-14997984D02*
X11943991Y-14997984D01*
X11943991Y-14997984D02*
X11877325Y-15074174D01*
X11877325Y-15074174D02*
X11905896Y-15074174D01*
X11905896Y-15074174D02*
X11924944Y-15083698D01*
X11924944Y-15083698D02*
X11934467Y-15093222D01*
X11934467Y-15093222D02*
X11943991Y-15112269D01*
X11943991Y-15112269D02*
X11943991Y-15159888D01*
X11943991Y-15159888D02*
X11934467Y-15178936D01*
X11934467Y-15178936D02*
X11924944Y-15188460D01*
X11924944Y-15188460D02*
X11905896Y-15197984D01*
X11905896Y-15197984D02*
X11848753Y-15197984D01*
X11848753Y-15197984D02*
X11829706Y-15188460D01*
X11829706Y-15188460D02*
X11820182Y-15178936D01*
X12134467Y-15197984D02*
X12020182Y-15197984D01*
X12077325Y-15197984D02*
X12077325Y-14997984D01*
X12077325Y-14997984D02*
X12058277Y-15026555D01*
X12058277Y-15026555D02*
X12039229Y-15045603D01*
X12039229Y-15045603D02*
X12020182Y-15055127D01*
X12315420Y-14997984D02*
X12220182Y-14997984D01*
X12220182Y-14997984D02*
X12210658Y-15093222D01*
X12210658Y-15093222D02*
X12220182Y-15083698D01*
X12220182Y-15083698D02*
X12239229Y-15074174D01*
X12239229Y-15074174D02*
X12286848Y-15074174D01*
X12286848Y-15074174D02*
X12305896Y-15083698D01*
X12305896Y-15083698D02*
X12315420Y-15093222D01*
X12315420Y-15093222D02*
X12324944Y-15112269D01*
X12324944Y-15112269D02*
X12324944Y-15159888D01*
X12324944Y-15159888D02*
X12315420Y-15178936D01*
X12315420Y-15178936D02*
X12305896Y-15188460D01*
X12305896Y-15188460D02*
X12286848Y-15197984D01*
X12286848Y-15197984D02*
X12239229Y-15197984D01*
X12239229Y-15197984D02*
X12220182Y-15188460D01*
X12220182Y-15188460D02*
X12210658Y-15178936D01*
X12401134Y-14997984D02*
X12401134Y-15036079D01*
X12477325Y-14997984D02*
X12477325Y-15036079D01*
X12772563Y-15274174D02*
X12763039Y-15264650D01*
X12763039Y-15264650D02*
X12743991Y-15236079D01*
X12743991Y-15236079D02*
X12734468Y-15217031D01*
X12734468Y-15217031D02*
X12724944Y-15188460D01*
X12724944Y-15188460D02*
X12715420Y-15140841D01*
X12715420Y-15140841D02*
X12715420Y-15102746D01*
X12715420Y-15102746D02*
X12724944Y-15055127D01*
X12724944Y-15055127D02*
X12734468Y-15026555D01*
X12734468Y-15026555D02*
X12743991Y-15007508D01*
X12743991Y-15007508D02*
X12763039Y-14978936D01*
X12763039Y-14978936D02*
X12772563Y-14969412D01*
X12934468Y-15064650D02*
X12934468Y-15197984D01*
X12886848Y-14988460D02*
X12839229Y-15131317D01*
X12839229Y-15131317D02*
X12963039Y-15131317D01*
X13020182Y-14997984D02*
X13153515Y-14997984D01*
X13153515Y-14997984D02*
X13067801Y-15197984D01*
X13382087Y-15197984D02*
X13382087Y-14997984D01*
X13467801Y-15197984D02*
X13467801Y-15093222D01*
X13467801Y-15093222D02*
X13458277Y-15074174D01*
X13458277Y-15074174D02*
X13439230Y-15064650D01*
X13439230Y-15064650D02*
X13410658Y-15064650D01*
X13410658Y-15064650D02*
X13391610Y-15074174D01*
X13391610Y-15074174D02*
X13382087Y-15083698D01*
X13591610Y-15197984D02*
X13572563Y-15188460D01*
X13572563Y-15188460D02*
X13563039Y-15178936D01*
X13563039Y-15178936D02*
X13553515Y-15159888D01*
X13553515Y-15159888D02*
X13553515Y-15102746D01*
X13553515Y-15102746D02*
X13563039Y-15083698D01*
X13563039Y-15083698D02*
X13572563Y-15074174D01*
X13572563Y-15074174D02*
X13591610Y-15064650D01*
X13591610Y-15064650D02*
X13620182Y-15064650D01*
X13620182Y-15064650D02*
X13639230Y-15074174D01*
X13639230Y-15074174D02*
X13648753Y-15083698D01*
X13648753Y-15083698D02*
X13658277Y-15102746D01*
X13658277Y-15102746D02*
X13658277Y-15159888D01*
X13658277Y-15159888D02*
X13648753Y-15178936D01*
X13648753Y-15178936D02*
X13639230Y-15188460D01*
X13639230Y-15188460D02*
X13620182Y-15197984D01*
X13620182Y-15197984D02*
X13591610Y-15197984D01*
X13772563Y-15197984D02*
X13753515Y-15188460D01*
X13753515Y-15188460D02*
X13743991Y-15169412D01*
X13743991Y-15169412D02*
X13743991Y-14997984D01*
X13924944Y-15188460D02*
X13905896Y-15197984D01*
X13905896Y-15197984D02*
X13867801Y-15197984D01*
X13867801Y-15197984D02*
X13848753Y-15188460D01*
X13848753Y-15188460D02*
X13839230Y-15169412D01*
X13839230Y-15169412D02*
X13839230Y-15093222D01*
X13839230Y-15093222D02*
X13848753Y-15074174D01*
X13848753Y-15074174D02*
X13867801Y-15064650D01*
X13867801Y-15064650D02*
X13905896Y-15064650D01*
X13905896Y-15064650D02*
X13924944Y-15074174D01*
X13924944Y-15074174D02*
X13934468Y-15093222D01*
X13934468Y-15093222D02*
X13934468Y-15112269D01*
X13934468Y-15112269D02*
X13839230Y-15131317D01*
X14010658Y-15188460D02*
X14029706Y-15197984D01*
X14029706Y-15197984D02*
X14067801Y-15197984D01*
X14067801Y-15197984D02*
X14086849Y-15188460D01*
X14086849Y-15188460D02*
X14096372Y-15169412D01*
X14096372Y-15169412D02*
X14096372Y-15159888D01*
X14096372Y-15159888D02*
X14086849Y-15140841D01*
X14086849Y-15140841D02*
X14067801Y-15131317D01*
X14067801Y-15131317D02*
X14039230Y-15131317D01*
X14039230Y-15131317D02*
X14020182Y-15121793D01*
X14020182Y-15121793D02*
X14010658Y-15102746D01*
X14010658Y-15102746D02*
X14010658Y-15093222D01*
X14010658Y-15093222D02*
X14020182Y-15074174D01*
X14020182Y-15074174D02*
X14039230Y-15064650D01*
X14039230Y-15064650D02*
X14067801Y-15064650D01*
X14067801Y-15064650D02*
X14086849Y-15074174D01*
X14163039Y-15274174D02*
X14172563Y-15264650D01*
X14172563Y-15264650D02*
X14191611Y-15236079D01*
X14191611Y-15236079D02*
X14201134Y-15217031D01*
X14201134Y-15217031D02*
X14210658Y-15188460D01*
X14210658Y-15188460D02*
X14220182Y-15140841D01*
X14220182Y-15140841D02*
X14220182Y-15102746D01*
X14220182Y-15102746D02*
X14210658Y-15055127D01*
X14210658Y-15055127D02*
X14201134Y-15026555D01*
X14201134Y-15026555D02*
X14191611Y-15007508D01*
X14191611Y-15007508D02*
X14172563Y-14978936D01*
X14172563Y-14978936D02*
X14163039Y-14969412D01*
M02*
