%TF.GenerationSoftware,KiCad,Pcbnew,7.0.11+dfsg-1build4*%
%TF.CreationDate,2024-10-08T11:47:17+02:00*%
%TF.ProjectId,BertheVarioTac-Shema,42657274-6865-4566-9172-696f5461632d,rev?*%
%TF.SameCoordinates,Original*%
%TF.FileFunction,Drillmap*%
%TF.FilePolarity,Positive*%
%FSLAX45Y45*%
G04 Gerber Fmt 4.5, Leading zero omitted, Abs format (unit mm)*
G04 Created by KiCad (PCBNEW 7.0.11+dfsg-1build4) date 2024-10-08 11:47:17*
%MOMM*%
%LPD*%
G01*
G04 APERTURE LIST*
%ADD10C,0.050000*%
%ADD11C,0.200000*%
%ADD12C,0.100000*%
G04 APERTURE END LIST*
D10*
X17400000Y-14200000D02*
G75*
G03*
X17800000Y-13800000I0J400000D01*
G01*
X17560000Y-9600000D02*
G75*
G03*
X17240000Y-9600000I-160000J0D01*
G01*
X17240000Y-9600000D02*
G75*
G03*
X17560000Y-9600000I160000J0D01*
G01*
X17400000Y-14200000D02*
X9600000Y-14200000D01*
X9600000Y-9200000D02*
X17400000Y-9200000D01*
X9760000Y-13800000D02*
G75*
G03*
X9440000Y-13800000I-160000J0D01*
G01*
X9440000Y-13800000D02*
G75*
G03*
X9760000Y-13800000I160000J0D01*
G01*
X9600000Y-9200000D02*
G75*
G03*
X9200000Y-9600000I0J-400000D01*
G01*
X9200000Y-13800000D02*
G75*
G03*
X9600000Y-14200000I400000J0D01*
G01*
X9200000Y-13800000D02*
X9200000Y-9600000D01*
X17800000Y-9600000D02*
G75*
G03*
X17400000Y-9200000I-400000J0D01*
G01*
X9760000Y-9600000D02*
G75*
G03*
X9440000Y-9600000I-160000J0D01*
G01*
X9440000Y-9600000D02*
G75*
G03*
X9760000Y-9600000I160000J0D01*
G01*
X17560000Y-13800000D02*
G75*
G03*
X17240000Y-13800000I-160000J0D01*
G01*
X17240000Y-13800000D02*
G75*
G03*
X17560000Y-13800000I160000J0D01*
G01*
X17800000Y-9600000D02*
X17800000Y-13800000D01*
D11*
D12*
X9360000Y-12260000D02*
X9440000Y-12340000D01*
X9440000Y-12260000D02*
X9360000Y-12340000D01*
X9360000Y-12514000D02*
X9440000Y-12594000D01*
X9440000Y-12514000D02*
X9360000Y-12594000D01*
X9360000Y-12768000D02*
X9440000Y-12848000D01*
X9440000Y-12768000D02*
X9360000Y-12848000D01*
X9360000Y-13022000D02*
X9440000Y-13102000D01*
X9440000Y-13022000D02*
X9360000Y-13102000D01*
X9360000Y-13276000D02*
X9440000Y-13356000D01*
X9440000Y-13276000D02*
X9360000Y-13356000D01*
X10144000Y-13860000D02*
X10224000Y-13940000D01*
X10224000Y-13860000D02*
X10144000Y-13940000D01*
X11160000Y-9860000D02*
X11240000Y-9940000D01*
X11240000Y-9860000D02*
X11160000Y-9940000D01*
X11160000Y-13860000D02*
X11240000Y-13940000D01*
X11240000Y-13860000D02*
X11160000Y-13940000D01*
X11410000Y-10260000D02*
X11490000Y-10340000D01*
X11490000Y-10260000D02*
X11410000Y-10340000D01*
X11606000Y-13960000D02*
X11686000Y-14040000D01*
X11686000Y-13960000D02*
X11606000Y-14040000D01*
X11660000Y-9860000D02*
X11740000Y-9940000D01*
X11740000Y-9860000D02*
X11660000Y-9940000D01*
X11860000Y-13960000D02*
X11940000Y-14040000D01*
X11940000Y-13960000D02*
X11860000Y-14040000D01*
X12406000Y-13960000D02*
X12486000Y-14040000D01*
X12486000Y-13960000D02*
X12406000Y-14040000D01*
X12660000Y-13960000D02*
X12740000Y-14040000D01*
X12740000Y-13960000D02*
X12660000Y-14040000D01*
X13206000Y-13960000D02*
X13286000Y-14040000D01*
X13286000Y-13960000D02*
X13206000Y-14040000D01*
X13360000Y-11860000D02*
X13440000Y-11940000D01*
X13440000Y-11860000D02*
X13360000Y-11940000D01*
X13360000Y-12114000D02*
X13440000Y-12194000D01*
X13440000Y-12114000D02*
X13360000Y-12194000D01*
X13360000Y-12368000D02*
X13440000Y-12448000D01*
X13440000Y-12368000D02*
X13360000Y-12448000D01*
X13360000Y-12622000D02*
X13440000Y-12702000D01*
X13440000Y-12622000D02*
X13360000Y-12702000D01*
X13460000Y-13960000D02*
X13540000Y-14040000D01*
X13540000Y-13960000D02*
X13460000Y-14040000D01*
X13506000Y-10610000D02*
X13586000Y-10690000D01*
X13586000Y-10610000D02*
X13506000Y-10690000D01*
X13714000Y-13960000D02*
X13794000Y-14040000D01*
X13794000Y-13960000D02*
X13714000Y-14040000D01*
X13760000Y-10610000D02*
X13840000Y-10690000D01*
X13840000Y-10610000D02*
X13760000Y-10690000D01*
X13968000Y-13960000D02*
X14048000Y-14040000D01*
X14048000Y-13960000D02*
X13968000Y-14040000D01*
X14014000Y-10610000D02*
X14094000Y-10690000D01*
X14094000Y-10610000D02*
X14014000Y-10690000D01*
X14498000Y-13960000D02*
X14578000Y-14040000D01*
X14578000Y-13960000D02*
X14498000Y-14040000D01*
X14530200Y-12480000D02*
X14610200Y-12560000D01*
X14610200Y-12480000D02*
X14530200Y-12560000D01*
X14530200Y-12734000D02*
X14610200Y-12814000D01*
X14610200Y-12734000D02*
X14530200Y-12814000D01*
X14530200Y-12988000D02*
X14610200Y-13068000D01*
X14610200Y-12988000D02*
X14530200Y-13068000D01*
X14530200Y-13242000D02*
X14610200Y-13322000D01*
X14610200Y-13242000D02*
X14530200Y-13322000D01*
X14752000Y-13960000D02*
X14832000Y-14040000D01*
X14832000Y-13960000D02*
X14752000Y-14040000D01*
X15006000Y-13960000D02*
X15086000Y-14040000D01*
X15086000Y-13960000D02*
X15006000Y-14040000D01*
X15260000Y-13960000D02*
X15340000Y-14040000D01*
X15340000Y-13960000D02*
X15260000Y-14040000D01*
X15852000Y-13960000D02*
X15932000Y-14040000D01*
X15932000Y-13960000D02*
X15852000Y-14040000D01*
X16106000Y-13960000D02*
X16186000Y-14040000D01*
X16186000Y-13960000D02*
X16106000Y-14040000D01*
X16360000Y-13960000D02*
X16440000Y-14040000D01*
X16440000Y-13960000D02*
X16360000Y-14040000D01*
X16614000Y-13960000D02*
X16694000Y-14040000D01*
X16694000Y-13960000D02*
X16614000Y-14040000D01*
X16660000Y-12960000D02*
X16740000Y-13040000D01*
X16740000Y-12960000D02*
X16660000Y-13040000D01*
X16660000Y-13214000D02*
X16740000Y-13294000D01*
X16740000Y-13214000D02*
X16660000Y-13294000D01*
X16760000Y-10260000D02*
X16840000Y-10340000D01*
X16840000Y-10260000D02*
X16760000Y-10340000D01*
X16760000Y-11160000D02*
X16840000Y-11240000D01*
X16840000Y-11160000D02*
X16760000Y-11240000D01*
X17160000Y-12960000D02*
X17240000Y-13040000D01*
X17240000Y-12960000D02*
X17160000Y-13040000D01*
X17160000Y-13214000D02*
X17240000Y-13294000D01*
X17240000Y-13214000D02*
X17160000Y-13294000D01*
D11*
X9458277Y-14513984D02*
X9458277Y-14313984D01*
X9458277Y-14313984D02*
X9505896Y-14313984D01*
X9505896Y-14313984D02*
X9534467Y-14323508D01*
X9534467Y-14323508D02*
X9553515Y-14342555D01*
X9553515Y-14342555D02*
X9563039Y-14361603D01*
X9563039Y-14361603D02*
X9572563Y-14399698D01*
X9572563Y-14399698D02*
X9572563Y-14428269D01*
X9572563Y-14428269D02*
X9563039Y-14466365D01*
X9563039Y-14466365D02*
X9553515Y-14485412D01*
X9553515Y-14485412D02*
X9534467Y-14504460D01*
X9534467Y-14504460D02*
X9505896Y-14513984D01*
X9505896Y-14513984D02*
X9458277Y-14513984D01*
X9658277Y-14513984D02*
X9658277Y-14380650D01*
X9658277Y-14418746D02*
X9667801Y-14399698D01*
X9667801Y-14399698D02*
X9677324Y-14390174D01*
X9677324Y-14390174D02*
X9696372Y-14380650D01*
X9696372Y-14380650D02*
X9715420Y-14380650D01*
X9782086Y-14513984D02*
X9782086Y-14380650D01*
X9782086Y-14313984D02*
X9772563Y-14323508D01*
X9772563Y-14323508D02*
X9782086Y-14333031D01*
X9782086Y-14333031D02*
X9791610Y-14323508D01*
X9791610Y-14323508D02*
X9782086Y-14313984D01*
X9782086Y-14313984D02*
X9782086Y-14333031D01*
X9905896Y-14513984D02*
X9886848Y-14504460D01*
X9886848Y-14504460D02*
X9877324Y-14485412D01*
X9877324Y-14485412D02*
X9877324Y-14313984D01*
X10010658Y-14513984D02*
X9991610Y-14504460D01*
X9991610Y-14504460D02*
X9982086Y-14485412D01*
X9982086Y-14485412D02*
X9982086Y-14313984D01*
X10239229Y-14513984D02*
X10239229Y-14313984D01*
X10239229Y-14313984D02*
X10305896Y-14456841D01*
X10305896Y-14456841D02*
X10372563Y-14313984D01*
X10372563Y-14313984D02*
X10372563Y-14513984D01*
X10553515Y-14513984D02*
X10553515Y-14409222D01*
X10553515Y-14409222D02*
X10543991Y-14390174D01*
X10543991Y-14390174D02*
X10524944Y-14380650D01*
X10524944Y-14380650D02*
X10486848Y-14380650D01*
X10486848Y-14380650D02*
X10467801Y-14390174D01*
X10553515Y-14504460D02*
X10534467Y-14513984D01*
X10534467Y-14513984D02*
X10486848Y-14513984D01*
X10486848Y-14513984D02*
X10467801Y-14504460D01*
X10467801Y-14504460D02*
X10458277Y-14485412D01*
X10458277Y-14485412D02*
X10458277Y-14466365D01*
X10458277Y-14466365D02*
X10467801Y-14447317D01*
X10467801Y-14447317D02*
X10486848Y-14437793D01*
X10486848Y-14437793D02*
X10534467Y-14437793D01*
X10534467Y-14437793D02*
X10553515Y-14428269D01*
X10648753Y-14380650D02*
X10648753Y-14580650D01*
X10648753Y-14390174D02*
X10667801Y-14380650D01*
X10667801Y-14380650D02*
X10705896Y-14380650D01*
X10705896Y-14380650D02*
X10724944Y-14390174D01*
X10724944Y-14390174D02*
X10734467Y-14399698D01*
X10734467Y-14399698D02*
X10743991Y-14418746D01*
X10743991Y-14418746D02*
X10743991Y-14475888D01*
X10743991Y-14475888D02*
X10734467Y-14494936D01*
X10734467Y-14494936D02*
X10724944Y-14504460D01*
X10724944Y-14504460D02*
X10705896Y-14513984D01*
X10705896Y-14513984D02*
X10667801Y-14513984D01*
X10667801Y-14513984D02*
X10648753Y-14504460D01*
X10829705Y-14494936D02*
X10839229Y-14504460D01*
X10839229Y-14504460D02*
X10829705Y-14513984D01*
X10829705Y-14513984D02*
X10820182Y-14504460D01*
X10820182Y-14504460D02*
X10829705Y-14494936D01*
X10829705Y-14494936D02*
X10829705Y-14513984D01*
X10829705Y-14390174D02*
X10839229Y-14399698D01*
X10839229Y-14399698D02*
X10829705Y-14409222D01*
X10829705Y-14409222D02*
X10820182Y-14399698D01*
X10820182Y-14399698D02*
X10829705Y-14390174D01*
X10829705Y-14390174D02*
X10829705Y-14409222D01*
D12*
X9117500Y-14802500D02*
X9197500Y-14882500D01*
X9197500Y-14802500D02*
X9117500Y-14882500D01*
D11*
X9496372Y-14733984D02*
X9515420Y-14733984D01*
X9515420Y-14733984D02*
X9534467Y-14743508D01*
X9534467Y-14743508D02*
X9543991Y-14753031D01*
X9543991Y-14753031D02*
X9553515Y-14772079D01*
X9553515Y-14772079D02*
X9563039Y-14810174D01*
X9563039Y-14810174D02*
X9563039Y-14857793D01*
X9563039Y-14857793D02*
X9553515Y-14895888D01*
X9553515Y-14895888D02*
X9543991Y-14914936D01*
X9543991Y-14914936D02*
X9534467Y-14924460D01*
X9534467Y-14924460D02*
X9515420Y-14933984D01*
X9515420Y-14933984D02*
X9496372Y-14933984D01*
X9496372Y-14933984D02*
X9477324Y-14924460D01*
X9477324Y-14924460D02*
X9467801Y-14914936D01*
X9467801Y-14914936D02*
X9458277Y-14895888D01*
X9458277Y-14895888D02*
X9448753Y-14857793D01*
X9448753Y-14857793D02*
X9448753Y-14810174D01*
X9448753Y-14810174D02*
X9458277Y-14772079D01*
X9458277Y-14772079D02*
X9467801Y-14753031D01*
X9467801Y-14753031D02*
X9477324Y-14743508D01*
X9477324Y-14743508D02*
X9496372Y-14733984D01*
X9648753Y-14914936D02*
X9658277Y-14924460D01*
X9658277Y-14924460D02*
X9648753Y-14933984D01*
X9648753Y-14933984D02*
X9639229Y-14924460D01*
X9639229Y-14924460D02*
X9648753Y-14914936D01*
X9648753Y-14914936D02*
X9648753Y-14933984D01*
X9772563Y-14819698D02*
X9753515Y-14810174D01*
X9753515Y-14810174D02*
X9743991Y-14800650D01*
X9743991Y-14800650D02*
X9734467Y-14781603D01*
X9734467Y-14781603D02*
X9734467Y-14772079D01*
X9734467Y-14772079D02*
X9743991Y-14753031D01*
X9743991Y-14753031D02*
X9753515Y-14743508D01*
X9753515Y-14743508D02*
X9772563Y-14733984D01*
X9772563Y-14733984D02*
X9810658Y-14733984D01*
X9810658Y-14733984D02*
X9829705Y-14743508D01*
X9829705Y-14743508D02*
X9839229Y-14753031D01*
X9839229Y-14753031D02*
X9848753Y-14772079D01*
X9848753Y-14772079D02*
X9848753Y-14781603D01*
X9848753Y-14781603D02*
X9839229Y-14800650D01*
X9839229Y-14800650D02*
X9829705Y-14810174D01*
X9829705Y-14810174D02*
X9810658Y-14819698D01*
X9810658Y-14819698D02*
X9772563Y-14819698D01*
X9772563Y-14819698D02*
X9753515Y-14829222D01*
X9753515Y-14829222D02*
X9743991Y-14838746D01*
X9743991Y-14838746D02*
X9734467Y-14857793D01*
X9734467Y-14857793D02*
X9734467Y-14895888D01*
X9734467Y-14895888D02*
X9743991Y-14914936D01*
X9743991Y-14914936D02*
X9753515Y-14924460D01*
X9753515Y-14924460D02*
X9772563Y-14933984D01*
X9772563Y-14933984D02*
X9810658Y-14933984D01*
X9810658Y-14933984D02*
X9829705Y-14924460D01*
X9829705Y-14924460D02*
X9839229Y-14914936D01*
X9839229Y-14914936D02*
X9848753Y-14895888D01*
X9848753Y-14895888D02*
X9848753Y-14857793D01*
X9848753Y-14857793D02*
X9839229Y-14838746D01*
X9839229Y-14838746D02*
X9829705Y-14829222D01*
X9829705Y-14829222D02*
X9810658Y-14819698D01*
X9972563Y-14733984D02*
X9991610Y-14733984D01*
X9991610Y-14733984D02*
X10010658Y-14743508D01*
X10010658Y-14743508D02*
X10020182Y-14753031D01*
X10020182Y-14753031D02*
X10029705Y-14772079D01*
X10029705Y-14772079D02*
X10039229Y-14810174D01*
X10039229Y-14810174D02*
X10039229Y-14857793D01*
X10039229Y-14857793D02*
X10029705Y-14895888D01*
X10029705Y-14895888D02*
X10020182Y-14914936D01*
X10020182Y-14914936D02*
X10010658Y-14924460D01*
X10010658Y-14924460D02*
X9991610Y-14933984D01*
X9991610Y-14933984D02*
X9972563Y-14933984D01*
X9972563Y-14933984D02*
X9953515Y-14924460D01*
X9953515Y-14924460D02*
X9943991Y-14914936D01*
X9943991Y-14914936D02*
X9934467Y-14895888D01*
X9934467Y-14895888D02*
X9924944Y-14857793D01*
X9924944Y-14857793D02*
X9924944Y-14810174D01*
X9924944Y-14810174D02*
X9934467Y-14772079D01*
X9934467Y-14772079D02*
X9943991Y-14753031D01*
X9943991Y-14753031D02*
X9953515Y-14743508D01*
X9953515Y-14743508D02*
X9972563Y-14733984D01*
X10163039Y-14733984D02*
X10182086Y-14733984D01*
X10182086Y-14733984D02*
X10201134Y-14743508D01*
X10201134Y-14743508D02*
X10210658Y-14753031D01*
X10210658Y-14753031D02*
X10220182Y-14772079D01*
X10220182Y-14772079D02*
X10229705Y-14810174D01*
X10229705Y-14810174D02*
X10229705Y-14857793D01*
X10229705Y-14857793D02*
X10220182Y-14895888D01*
X10220182Y-14895888D02*
X10210658Y-14914936D01*
X10210658Y-14914936D02*
X10201134Y-14924460D01*
X10201134Y-14924460D02*
X10182086Y-14933984D01*
X10182086Y-14933984D02*
X10163039Y-14933984D01*
X10163039Y-14933984D02*
X10143991Y-14924460D01*
X10143991Y-14924460D02*
X10134467Y-14914936D01*
X10134467Y-14914936D02*
X10124944Y-14895888D01*
X10124944Y-14895888D02*
X10115420Y-14857793D01*
X10115420Y-14857793D02*
X10115420Y-14810174D01*
X10115420Y-14810174D02*
X10124944Y-14772079D01*
X10124944Y-14772079D02*
X10134467Y-14753031D01*
X10134467Y-14753031D02*
X10143991Y-14743508D01*
X10143991Y-14743508D02*
X10163039Y-14733984D01*
X10315420Y-14933984D02*
X10315420Y-14800650D01*
X10315420Y-14819698D02*
X10324944Y-14810174D01*
X10324944Y-14810174D02*
X10343991Y-14800650D01*
X10343991Y-14800650D02*
X10372563Y-14800650D01*
X10372563Y-14800650D02*
X10391610Y-14810174D01*
X10391610Y-14810174D02*
X10401134Y-14829222D01*
X10401134Y-14829222D02*
X10401134Y-14933984D01*
X10401134Y-14829222D02*
X10410658Y-14810174D01*
X10410658Y-14810174D02*
X10429705Y-14800650D01*
X10429705Y-14800650D02*
X10458277Y-14800650D01*
X10458277Y-14800650D02*
X10477325Y-14810174D01*
X10477325Y-14810174D02*
X10486848Y-14829222D01*
X10486848Y-14829222D02*
X10486848Y-14933984D01*
X10582086Y-14933984D02*
X10582086Y-14800650D01*
X10582086Y-14819698D02*
X10591610Y-14810174D01*
X10591610Y-14810174D02*
X10610658Y-14800650D01*
X10610658Y-14800650D02*
X10639229Y-14800650D01*
X10639229Y-14800650D02*
X10658277Y-14810174D01*
X10658277Y-14810174D02*
X10667801Y-14829222D01*
X10667801Y-14829222D02*
X10667801Y-14933984D01*
X10667801Y-14829222D02*
X10677325Y-14810174D01*
X10677325Y-14810174D02*
X10696372Y-14800650D01*
X10696372Y-14800650D02*
X10724944Y-14800650D01*
X10724944Y-14800650D02*
X10743991Y-14810174D01*
X10743991Y-14810174D02*
X10753515Y-14829222D01*
X10753515Y-14829222D02*
X10753515Y-14933984D01*
X11143991Y-14724460D02*
X10972563Y-14981603D01*
X11401134Y-14733984D02*
X11420182Y-14733984D01*
X11420182Y-14733984D02*
X11439229Y-14743508D01*
X11439229Y-14743508D02*
X11448753Y-14753031D01*
X11448753Y-14753031D02*
X11458277Y-14772079D01*
X11458277Y-14772079D02*
X11467801Y-14810174D01*
X11467801Y-14810174D02*
X11467801Y-14857793D01*
X11467801Y-14857793D02*
X11458277Y-14895888D01*
X11458277Y-14895888D02*
X11448753Y-14914936D01*
X11448753Y-14914936D02*
X11439229Y-14924460D01*
X11439229Y-14924460D02*
X11420182Y-14933984D01*
X11420182Y-14933984D02*
X11401134Y-14933984D01*
X11401134Y-14933984D02*
X11382086Y-14924460D01*
X11382086Y-14924460D02*
X11372563Y-14914936D01*
X11372563Y-14914936D02*
X11363039Y-14895888D01*
X11363039Y-14895888D02*
X11353515Y-14857793D01*
X11353515Y-14857793D02*
X11353515Y-14810174D01*
X11353515Y-14810174D02*
X11363039Y-14772079D01*
X11363039Y-14772079D02*
X11372563Y-14753031D01*
X11372563Y-14753031D02*
X11382086Y-14743508D01*
X11382086Y-14743508D02*
X11401134Y-14733984D01*
X11553515Y-14914936D02*
X11563039Y-14924460D01*
X11563039Y-14924460D02*
X11553515Y-14933984D01*
X11553515Y-14933984D02*
X11543991Y-14924460D01*
X11543991Y-14924460D02*
X11553515Y-14914936D01*
X11553515Y-14914936D02*
X11553515Y-14933984D01*
X11686848Y-14733984D02*
X11705896Y-14733984D01*
X11705896Y-14733984D02*
X11724944Y-14743508D01*
X11724944Y-14743508D02*
X11734467Y-14753031D01*
X11734467Y-14753031D02*
X11743991Y-14772079D01*
X11743991Y-14772079D02*
X11753515Y-14810174D01*
X11753515Y-14810174D02*
X11753515Y-14857793D01*
X11753515Y-14857793D02*
X11743991Y-14895888D01*
X11743991Y-14895888D02*
X11734467Y-14914936D01*
X11734467Y-14914936D02*
X11724944Y-14924460D01*
X11724944Y-14924460D02*
X11705896Y-14933984D01*
X11705896Y-14933984D02*
X11686848Y-14933984D01*
X11686848Y-14933984D02*
X11667801Y-14924460D01*
X11667801Y-14924460D02*
X11658277Y-14914936D01*
X11658277Y-14914936D02*
X11648753Y-14895888D01*
X11648753Y-14895888D02*
X11639229Y-14857793D01*
X11639229Y-14857793D02*
X11639229Y-14810174D01*
X11639229Y-14810174D02*
X11648753Y-14772079D01*
X11648753Y-14772079D02*
X11658277Y-14753031D01*
X11658277Y-14753031D02*
X11667801Y-14743508D01*
X11667801Y-14743508D02*
X11686848Y-14733984D01*
X11820182Y-14733984D02*
X11943991Y-14733984D01*
X11943991Y-14733984D02*
X11877325Y-14810174D01*
X11877325Y-14810174D02*
X11905896Y-14810174D01*
X11905896Y-14810174D02*
X11924944Y-14819698D01*
X11924944Y-14819698D02*
X11934467Y-14829222D01*
X11934467Y-14829222D02*
X11943991Y-14848269D01*
X11943991Y-14848269D02*
X11943991Y-14895888D01*
X11943991Y-14895888D02*
X11934467Y-14914936D01*
X11934467Y-14914936D02*
X11924944Y-14924460D01*
X11924944Y-14924460D02*
X11905896Y-14933984D01*
X11905896Y-14933984D02*
X11848753Y-14933984D01*
X11848753Y-14933984D02*
X11829706Y-14924460D01*
X11829706Y-14924460D02*
X11820182Y-14914936D01*
X12134467Y-14933984D02*
X12020182Y-14933984D01*
X12077325Y-14933984D02*
X12077325Y-14733984D01*
X12077325Y-14733984D02*
X12058277Y-14762555D01*
X12058277Y-14762555D02*
X12039229Y-14781603D01*
X12039229Y-14781603D02*
X12020182Y-14791127D01*
X12315420Y-14733984D02*
X12220182Y-14733984D01*
X12220182Y-14733984D02*
X12210658Y-14829222D01*
X12210658Y-14829222D02*
X12220182Y-14819698D01*
X12220182Y-14819698D02*
X12239229Y-14810174D01*
X12239229Y-14810174D02*
X12286848Y-14810174D01*
X12286848Y-14810174D02*
X12305896Y-14819698D01*
X12305896Y-14819698D02*
X12315420Y-14829222D01*
X12315420Y-14829222D02*
X12324944Y-14848269D01*
X12324944Y-14848269D02*
X12324944Y-14895888D01*
X12324944Y-14895888D02*
X12315420Y-14914936D01*
X12315420Y-14914936D02*
X12305896Y-14924460D01*
X12305896Y-14924460D02*
X12286848Y-14933984D01*
X12286848Y-14933984D02*
X12239229Y-14933984D01*
X12239229Y-14933984D02*
X12220182Y-14924460D01*
X12220182Y-14924460D02*
X12210658Y-14914936D01*
X12401134Y-14733984D02*
X12401134Y-14772079D01*
X12477325Y-14733984D02*
X12477325Y-14772079D01*
X12772563Y-15010174D02*
X12763039Y-15000650D01*
X12763039Y-15000650D02*
X12743991Y-14972079D01*
X12743991Y-14972079D02*
X12734468Y-14953031D01*
X12734468Y-14953031D02*
X12724944Y-14924460D01*
X12724944Y-14924460D02*
X12715420Y-14876841D01*
X12715420Y-14876841D02*
X12715420Y-14838746D01*
X12715420Y-14838746D02*
X12724944Y-14791127D01*
X12724944Y-14791127D02*
X12734468Y-14762555D01*
X12734468Y-14762555D02*
X12743991Y-14743508D01*
X12743991Y-14743508D02*
X12763039Y-14714936D01*
X12763039Y-14714936D02*
X12772563Y-14705412D01*
X12934468Y-14800650D02*
X12934468Y-14933984D01*
X12886848Y-14724460D02*
X12839229Y-14867317D01*
X12839229Y-14867317D02*
X12963039Y-14867317D01*
X13020182Y-14733984D02*
X13143991Y-14733984D01*
X13143991Y-14733984D02*
X13077325Y-14810174D01*
X13077325Y-14810174D02*
X13105896Y-14810174D01*
X13105896Y-14810174D02*
X13124944Y-14819698D01*
X13124944Y-14819698D02*
X13134468Y-14829222D01*
X13134468Y-14829222D02*
X13143991Y-14848269D01*
X13143991Y-14848269D02*
X13143991Y-14895888D01*
X13143991Y-14895888D02*
X13134468Y-14914936D01*
X13134468Y-14914936D02*
X13124944Y-14924460D01*
X13124944Y-14924460D02*
X13105896Y-14933984D01*
X13105896Y-14933984D02*
X13048753Y-14933984D01*
X13048753Y-14933984D02*
X13029706Y-14924460D01*
X13029706Y-14924460D02*
X13020182Y-14914936D01*
X13382087Y-14933984D02*
X13382087Y-14733984D01*
X13467801Y-14933984D02*
X13467801Y-14829222D01*
X13467801Y-14829222D02*
X13458277Y-14810174D01*
X13458277Y-14810174D02*
X13439230Y-14800650D01*
X13439230Y-14800650D02*
X13410658Y-14800650D01*
X13410658Y-14800650D02*
X13391610Y-14810174D01*
X13391610Y-14810174D02*
X13382087Y-14819698D01*
X13591610Y-14933984D02*
X13572563Y-14924460D01*
X13572563Y-14924460D02*
X13563039Y-14914936D01*
X13563039Y-14914936D02*
X13553515Y-14895888D01*
X13553515Y-14895888D02*
X13553515Y-14838746D01*
X13553515Y-14838746D02*
X13563039Y-14819698D01*
X13563039Y-14819698D02*
X13572563Y-14810174D01*
X13572563Y-14810174D02*
X13591610Y-14800650D01*
X13591610Y-14800650D02*
X13620182Y-14800650D01*
X13620182Y-14800650D02*
X13639230Y-14810174D01*
X13639230Y-14810174D02*
X13648753Y-14819698D01*
X13648753Y-14819698D02*
X13658277Y-14838746D01*
X13658277Y-14838746D02*
X13658277Y-14895888D01*
X13658277Y-14895888D02*
X13648753Y-14914936D01*
X13648753Y-14914936D02*
X13639230Y-14924460D01*
X13639230Y-14924460D02*
X13620182Y-14933984D01*
X13620182Y-14933984D02*
X13591610Y-14933984D01*
X13772563Y-14933984D02*
X13753515Y-14924460D01*
X13753515Y-14924460D02*
X13743991Y-14905412D01*
X13743991Y-14905412D02*
X13743991Y-14733984D01*
X13924944Y-14924460D02*
X13905896Y-14933984D01*
X13905896Y-14933984D02*
X13867801Y-14933984D01*
X13867801Y-14933984D02*
X13848753Y-14924460D01*
X13848753Y-14924460D02*
X13839230Y-14905412D01*
X13839230Y-14905412D02*
X13839230Y-14829222D01*
X13839230Y-14829222D02*
X13848753Y-14810174D01*
X13848753Y-14810174D02*
X13867801Y-14800650D01*
X13867801Y-14800650D02*
X13905896Y-14800650D01*
X13905896Y-14800650D02*
X13924944Y-14810174D01*
X13924944Y-14810174D02*
X13934468Y-14829222D01*
X13934468Y-14829222D02*
X13934468Y-14848269D01*
X13934468Y-14848269D02*
X13839230Y-14867317D01*
X14010658Y-14924460D02*
X14029706Y-14933984D01*
X14029706Y-14933984D02*
X14067801Y-14933984D01*
X14067801Y-14933984D02*
X14086849Y-14924460D01*
X14086849Y-14924460D02*
X14096372Y-14905412D01*
X14096372Y-14905412D02*
X14096372Y-14895888D01*
X14096372Y-14895888D02*
X14086849Y-14876841D01*
X14086849Y-14876841D02*
X14067801Y-14867317D01*
X14067801Y-14867317D02*
X14039230Y-14867317D01*
X14039230Y-14867317D02*
X14020182Y-14857793D01*
X14020182Y-14857793D02*
X14010658Y-14838746D01*
X14010658Y-14838746D02*
X14010658Y-14829222D01*
X14010658Y-14829222D02*
X14020182Y-14810174D01*
X14020182Y-14810174D02*
X14039230Y-14800650D01*
X14039230Y-14800650D02*
X14067801Y-14800650D01*
X14067801Y-14800650D02*
X14086849Y-14810174D01*
X14163039Y-15010174D02*
X14172563Y-15000650D01*
X14172563Y-15000650D02*
X14191611Y-14972079D01*
X14191611Y-14972079D02*
X14201134Y-14953031D01*
X14201134Y-14953031D02*
X14210658Y-14924460D01*
X14210658Y-14924460D02*
X14220182Y-14876841D01*
X14220182Y-14876841D02*
X14220182Y-14838746D01*
X14220182Y-14838746D02*
X14210658Y-14791127D01*
X14210658Y-14791127D02*
X14201134Y-14762555D01*
X14201134Y-14762555D02*
X14191611Y-14743508D01*
X14191611Y-14743508D02*
X14172563Y-14714936D01*
X14172563Y-14714936D02*
X14163039Y-14705412D01*
M02*
