%TF.GenerationSoftware,KiCad,Pcbnew,7.0.11+dfsg-1build4*%
%TF.CreationDate,2024-10-09T07:19:40+02:00*%
%TF.ProjectId,BertheVarioTac-Shema,42657274-6865-4566-9172-696f5461632d,rev?*%
%TF.SameCoordinates,Original*%
%TF.FileFunction,Soldermask,Top*%
%TF.FilePolarity,Negative*%
%FSLAX46Y46*%
G04 Gerber Fmt 4.6, Leading zero omitted, Abs format (unit mm)*
G04 Created by KiCad (PCBNEW 7.0.11+dfsg-1build4) date 2024-10-09 07:19:40*
%MOMM*%
%LPD*%
G01*
G04 APERTURE LIST*
%ADD10C,2.000000*%
%ADD11C,1.800000*%
%ADD12C,1.600000*%
%ADD13O,1.600000X1.600000*%
G04 APERTURE END LIST*
D10*
%TO.C,R3*%
X111580000Y-103500000D03*
X101420000Y-103500000D03*
%TD*%
%TO.C,R2*%
X111580000Y-99000000D03*
X101420000Y-99000000D03*
%TD*%
D11*
%TO.C,SW1*%
X168000000Y-132540000D03*
X168000000Y-130000000D03*
%TD*%
%TO.C,Usb-C-charger1*%
X168000000Y-103000000D03*
X168000000Y-112000000D03*
%TD*%
D12*
%TO.C,R1*%
X101840000Y-139000000D03*
D13*
X112000000Y-139000000D03*
%TD*%
D11*
%TO.C,CN1*%
X153000000Y-140000000D03*
X150460000Y-140000000D03*
X147920000Y-140000000D03*
X145380000Y-140000000D03*
%TD*%
%TO.C,S1*%
X119000000Y-140000000D03*
X116460000Y-140000000D03*
%TD*%
%TO.C,P4*%
X127000000Y-140000000D03*
X124460000Y-140000000D03*
%TD*%
%TO.C,GPS-NEO6M1*%
X134000000Y-126620000D03*
X134000000Y-124080000D03*
X134000000Y-121540000D03*
X134000000Y-119000000D03*
%TD*%
%TO.C,Lipo-1S-to-5V1*%
X130460000Y-105500000D03*
X133000000Y-105500000D03*
X135540000Y-105500000D03*
%TD*%
%TO.C,BT1*%
X173000000Y-130000000D03*
X173000000Y-132540000D03*
%TD*%
%TO.C,QMC5883_Mag1*%
X94000000Y-133160000D03*
X94000000Y-130620000D03*
X94000000Y-128080000D03*
X94000000Y-125540000D03*
X94000000Y-123000000D03*
%TD*%
%TO.C,P1*%
X166540000Y-140000000D03*
X164000000Y-140000000D03*
X161460000Y-140000000D03*
X158920000Y-140000000D03*
%TD*%
%TO.C,P5*%
X118000000Y-96000000D03*
X120500000Y-100000000D03*
X123000000Y-96000000D03*
%TD*%
%TO.C,BMP180_Press1*%
X144000000Y-125460000D03*
X144000000Y-128000000D03*
X144000000Y-130540000D03*
X144000000Y-133080000D03*
%TD*%
%TO.C,P3*%
X140080000Y-140000000D03*
X137540000Y-140000000D03*
X135000000Y-140000000D03*
X132460000Y-140000000D03*
%TD*%
M02*
