M48
; DRILL file {KiCad 7.0.11+dfsg-1build4} date mar. 08 oct. 2024 11:47:18
; FORMAT={-:-/ absolute / inch / decimal}
; #@! TF.CreationDate,2024-10-08T11:47:18+02:00
; #@! TF.GenerationSoftware,Kicad,Pcbnew,7.0.11+dfsg-1build4
; #@! TF.FileFunction,Plated,1,2,PTH
FMAT,2
INCH
; #@! TA.AperFunction,Plated,PTH,ComponentDrill
T1C0.0315
%
G90
G05
T1
X3.7008Y-4.8425
X3.7008Y-4.9425
X3.7008Y-5.0425
X3.7008Y-5.1425
X3.7008Y-5.2425
X4.0094Y-5.4724
X4.4094Y-3.8976
X4.4094Y-5.4724
X4.5079Y-4.0551
X4.585Y-5.5118
X4.6063Y-3.8976
X4.685Y-5.5118
X4.9Y-5.5118
X5.0Y-5.5118
X5.215Y-5.5118
X5.2756Y-4.685
X5.2756Y-4.785
X5.2756Y-4.885
X5.2756Y-4.985
X5.315Y-5.5118
X5.3331Y-4.1929
X5.415Y-5.5118
X5.4331Y-4.1929
X5.515Y-5.5118
X5.5331Y-4.1929
X5.7236Y-5.5118
X5.7363Y-4.9291
X5.7363Y-5.0291
X5.7363Y-5.1291
X5.7363Y-5.2291
X5.8236Y-5.5118
X5.9236Y-5.5118
X6.0236Y-5.5118
X6.2567Y-5.5118
X6.3567Y-5.5118
X6.4567Y-5.5118
X6.5567Y-5.5118
X6.5748Y-5.1181
X6.5748Y-5.2181
X6.6142Y-4.0551
X6.6142Y-4.4094
X6.7717Y-5.1181
X6.7717Y-5.2181
M30
