%TF.GenerationSoftware,KiCad,Pcbnew,7.0.11+dfsg-1build4*%
%TF.CreationDate,2024-10-07T10:43:42+02:00*%
%TF.ProjectId,BertheVarioTac-Shema,42657274-6865-4566-9172-696f5461632d,rev?*%
%TF.SameCoordinates,Original*%
%TF.FileFunction,Legend,Top*%
%TF.FilePolarity,Positive*%
%FSLAX46Y46*%
G04 Gerber Fmt 4.6, Leading zero omitted, Abs format (unit mm)*
G04 Created by KiCad (PCBNEW 7.0.11+dfsg-1build4) date 2024-10-07 10:43:42*
%MOMM*%
%LPD*%
G01*
G04 APERTURE LIST*
%ADD10C,0.100000*%
%ADD11C,0.150000*%
%ADD12C,0.120000*%
%ADD13C,0.010000*%
G04 APERTURE END LIST*
D10*
X165409800Y-132873332D02*
X165457419Y-132730475D01*
X165457419Y-132730475D02*
X165457419Y-132492380D01*
X165457419Y-132492380D02*
X165409800Y-132397142D01*
X165409800Y-132397142D02*
X165362180Y-132349523D01*
X165362180Y-132349523D02*
X165266942Y-132301904D01*
X165266942Y-132301904D02*
X165171704Y-132301904D01*
X165171704Y-132301904D02*
X165076466Y-132349523D01*
X165076466Y-132349523D02*
X165028847Y-132397142D01*
X165028847Y-132397142D02*
X164981228Y-132492380D01*
X164981228Y-132492380D02*
X164933609Y-132682856D01*
X164933609Y-132682856D02*
X164885990Y-132778094D01*
X164885990Y-132778094D02*
X164838371Y-132825713D01*
X164838371Y-132825713D02*
X164743133Y-132873332D01*
X164743133Y-132873332D02*
X164647895Y-132873332D01*
X164647895Y-132873332D02*
X164552657Y-132825713D01*
X164552657Y-132825713D02*
X164505038Y-132778094D01*
X164505038Y-132778094D02*
X164457419Y-132682856D01*
X164457419Y-132682856D02*
X164457419Y-132444761D01*
X164457419Y-132444761D02*
X164505038Y-132301904D01*
X164457419Y-131968570D02*
X165457419Y-131730475D01*
X165457419Y-131730475D02*
X164743133Y-131539999D01*
X164743133Y-131539999D02*
X165457419Y-131349523D01*
X165457419Y-131349523D02*
X164457419Y-131111428D01*
X165457419Y-130206666D02*
X165457419Y-130778094D01*
X165457419Y-130492380D02*
X164457419Y-130492380D01*
X164457419Y-130492380D02*
X164600276Y-130587618D01*
X164600276Y-130587618D02*
X164695514Y-130682856D01*
X164695514Y-130682856D02*
X164743133Y-130778094D01*
X175542580Y-100809523D02*
X174733057Y-100809523D01*
X174733057Y-100809523D02*
X174637819Y-100857142D01*
X174637819Y-100857142D02*
X174590200Y-100904761D01*
X174590200Y-100904761D02*
X174542580Y-100999999D01*
X174542580Y-100999999D02*
X174542580Y-101190475D01*
X174542580Y-101190475D02*
X174590200Y-101285713D01*
X174590200Y-101285713D02*
X174637819Y-101333332D01*
X174637819Y-101333332D02*
X174733057Y-101380951D01*
X174733057Y-101380951D02*
X175542580Y-101380951D01*
X174590200Y-101809523D02*
X174542580Y-101904761D01*
X174542580Y-101904761D02*
X174542580Y-102095237D01*
X174542580Y-102095237D02*
X174590200Y-102190475D01*
X174590200Y-102190475D02*
X174685438Y-102238094D01*
X174685438Y-102238094D02*
X174733057Y-102238094D01*
X174733057Y-102238094D02*
X174828295Y-102190475D01*
X174828295Y-102190475D02*
X174875914Y-102095237D01*
X174875914Y-102095237D02*
X174875914Y-101952380D01*
X174875914Y-101952380D02*
X174923533Y-101857142D01*
X174923533Y-101857142D02*
X175018771Y-101809523D01*
X175018771Y-101809523D02*
X175066390Y-101809523D01*
X175066390Y-101809523D02*
X175161628Y-101857142D01*
X175161628Y-101857142D02*
X175209247Y-101952380D01*
X175209247Y-101952380D02*
X175209247Y-102095237D01*
X175209247Y-102095237D02*
X175161628Y-102190475D01*
X174542580Y-102666666D02*
X175542580Y-102666666D01*
X175161628Y-102666666D02*
X175209247Y-102761904D01*
X175209247Y-102761904D02*
X175209247Y-102952380D01*
X175209247Y-102952380D02*
X175161628Y-103047618D01*
X175161628Y-103047618D02*
X175114009Y-103095237D01*
X175114009Y-103095237D02*
X175018771Y-103142856D01*
X175018771Y-103142856D02*
X174733057Y-103142856D01*
X174733057Y-103142856D02*
X174637819Y-103095237D01*
X174637819Y-103095237D02*
X174590200Y-103047618D01*
X174590200Y-103047618D02*
X174542580Y-102952380D01*
X174542580Y-102952380D02*
X174542580Y-102761904D01*
X174542580Y-102761904D02*
X174590200Y-102666666D01*
X174923533Y-103571428D02*
X174923533Y-104333333D01*
X174637819Y-105380951D02*
X174590200Y-105333332D01*
X174590200Y-105333332D02*
X174542580Y-105190475D01*
X174542580Y-105190475D02*
X174542580Y-105095237D01*
X174542580Y-105095237D02*
X174590200Y-104952380D01*
X174590200Y-104952380D02*
X174685438Y-104857142D01*
X174685438Y-104857142D02*
X174780676Y-104809523D01*
X174780676Y-104809523D02*
X174971152Y-104761904D01*
X174971152Y-104761904D02*
X175114009Y-104761904D01*
X175114009Y-104761904D02*
X175304485Y-104809523D01*
X175304485Y-104809523D02*
X175399723Y-104857142D01*
X175399723Y-104857142D02*
X175494961Y-104952380D01*
X175494961Y-104952380D02*
X175542580Y-105095237D01*
X175542580Y-105095237D02*
X175542580Y-105190475D01*
X175542580Y-105190475D02*
X175494961Y-105333332D01*
X175494961Y-105333332D02*
X175447342Y-105380951D01*
X174923533Y-105809523D02*
X174923533Y-106571428D01*
X174590200Y-107476189D02*
X174542580Y-107380951D01*
X174542580Y-107380951D02*
X174542580Y-107190475D01*
X174542580Y-107190475D02*
X174590200Y-107095237D01*
X174590200Y-107095237D02*
X174637819Y-107047618D01*
X174637819Y-107047618D02*
X174733057Y-106999999D01*
X174733057Y-106999999D02*
X175018771Y-106999999D01*
X175018771Y-106999999D02*
X175114009Y-107047618D01*
X175114009Y-107047618D02*
X175161628Y-107095237D01*
X175161628Y-107095237D02*
X175209247Y-107190475D01*
X175209247Y-107190475D02*
X175209247Y-107380951D01*
X175209247Y-107380951D02*
X175161628Y-107476189D01*
X174542580Y-107904761D02*
X175542580Y-107904761D01*
X174542580Y-108333332D02*
X175066390Y-108333332D01*
X175066390Y-108333332D02*
X175161628Y-108285713D01*
X175161628Y-108285713D02*
X175209247Y-108190475D01*
X175209247Y-108190475D02*
X175209247Y-108047618D01*
X175209247Y-108047618D02*
X175161628Y-107952380D01*
X175161628Y-107952380D02*
X175114009Y-107904761D01*
X174542580Y-109238094D02*
X175066390Y-109238094D01*
X175066390Y-109238094D02*
X175161628Y-109190475D01*
X175161628Y-109190475D02*
X175209247Y-109095237D01*
X175209247Y-109095237D02*
X175209247Y-108904761D01*
X175209247Y-108904761D02*
X175161628Y-108809523D01*
X174590200Y-109238094D02*
X174542580Y-109142856D01*
X174542580Y-109142856D02*
X174542580Y-108904761D01*
X174542580Y-108904761D02*
X174590200Y-108809523D01*
X174590200Y-108809523D02*
X174685438Y-108761904D01*
X174685438Y-108761904D02*
X174780676Y-108761904D01*
X174780676Y-108761904D02*
X174875914Y-108809523D01*
X174875914Y-108809523D02*
X174923533Y-108904761D01*
X174923533Y-108904761D02*
X174923533Y-109142856D01*
X174923533Y-109142856D02*
X174971152Y-109238094D01*
X174542580Y-109714285D02*
X175209247Y-109714285D01*
X175018771Y-109714285D02*
X175114009Y-109761904D01*
X175114009Y-109761904D02*
X175161628Y-109809523D01*
X175161628Y-109809523D02*
X175209247Y-109904761D01*
X175209247Y-109904761D02*
X175209247Y-109999999D01*
X175209247Y-110761904D02*
X174399723Y-110761904D01*
X174399723Y-110761904D02*
X174304485Y-110714285D01*
X174304485Y-110714285D02*
X174256866Y-110666666D01*
X174256866Y-110666666D02*
X174209247Y-110571428D01*
X174209247Y-110571428D02*
X174209247Y-110428571D01*
X174209247Y-110428571D02*
X174256866Y-110333333D01*
X174590200Y-110761904D02*
X174542580Y-110666666D01*
X174542580Y-110666666D02*
X174542580Y-110476190D01*
X174542580Y-110476190D02*
X174590200Y-110380952D01*
X174590200Y-110380952D02*
X174637819Y-110333333D01*
X174637819Y-110333333D02*
X174733057Y-110285714D01*
X174733057Y-110285714D02*
X175018771Y-110285714D01*
X175018771Y-110285714D02*
X175114009Y-110333333D01*
X175114009Y-110333333D02*
X175161628Y-110380952D01*
X175161628Y-110380952D02*
X175209247Y-110476190D01*
X175209247Y-110476190D02*
X175209247Y-110666666D01*
X175209247Y-110666666D02*
X175161628Y-110761904D01*
X174590200Y-111619047D02*
X174542580Y-111523809D01*
X174542580Y-111523809D02*
X174542580Y-111333333D01*
X174542580Y-111333333D02*
X174590200Y-111238095D01*
X174590200Y-111238095D02*
X174685438Y-111190476D01*
X174685438Y-111190476D02*
X175066390Y-111190476D01*
X175066390Y-111190476D02*
X175161628Y-111238095D01*
X175161628Y-111238095D02*
X175209247Y-111333333D01*
X175209247Y-111333333D02*
X175209247Y-111523809D01*
X175209247Y-111523809D02*
X175161628Y-111619047D01*
X175161628Y-111619047D02*
X175066390Y-111666666D01*
X175066390Y-111666666D02*
X174971152Y-111666666D01*
X174971152Y-111666666D02*
X174875914Y-111190476D01*
X174542580Y-112095238D02*
X175209247Y-112095238D01*
X175018771Y-112095238D02*
X175114009Y-112142857D01*
X175114009Y-112142857D02*
X175161628Y-112190476D01*
X175161628Y-112190476D02*
X175209247Y-112285714D01*
X175209247Y-112285714D02*
X175209247Y-112380952D01*
X174542580Y-113238095D02*
X174542580Y-112666667D01*
X174542580Y-112952381D02*
X175542580Y-112952381D01*
X175542580Y-112952381D02*
X175399723Y-112857143D01*
X175399723Y-112857143D02*
X175304485Y-112761905D01*
X175304485Y-112761905D02*
X175256866Y-112666667D01*
X165508533Y-113303884D02*
X165508533Y-114065789D01*
X165127580Y-113684836D02*
X165889485Y-113684836D01*
X165651390Y-103637217D02*
X165603771Y-103780074D01*
X165603771Y-103780074D02*
X165556152Y-103827693D01*
X165556152Y-103827693D02*
X165460914Y-103875312D01*
X165460914Y-103875312D02*
X165318057Y-103875312D01*
X165318057Y-103875312D02*
X165222819Y-103827693D01*
X165222819Y-103827693D02*
X165175200Y-103780074D01*
X165175200Y-103780074D02*
X165127580Y-103684836D01*
X165127580Y-103684836D02*
X165127580Y-103303884D01*
X165127580Y-103303884D02*
X166127580Y-103303884D01*
X166127580Y-103303884D02*
X166127580Y-103637217D01*
X166127580Y-103637217D02*
X166079961Y-103732455D01*
X166079961Y-103732455D02*
X166032342Y-103780074D01*
X166032342Y-103780074D02*
X165937104Y-103827693D01*
X165937104Y-103827693D02*
X165841866Y-103827693D01*
X165841866Y-103827693D02*
X165746628Y-103780074D01*
X165746628Y-103780074D02*
X165699009Y-103732455D01*
X165699009Y-103732455D02*
X165651390Y-103637217D01*
X165651390Y-103637217D02*
X165651390Y-103303884D01*
X165508533Y-104303884D02*
X165508533Y-105065789D01*
D11*
X106753333Y-137084819D02*
X106420000Y-136608628D01*
X106181905Y-137084819D02*
X106181905Y-136084819D01*
X106181905Y-136084819D02*
X106562857Y-136084819D01*
X106562857Y-136084819D02*
X106658095Y-136132438D01*
X106658095Y-136132438D02*
X106705714Y-136180057D01*
X106705714Y-136180057D02*
X106753333Y-136275295D01*
X106753333Y-136275295D02*
X106753333Y-136418152D01*
X106753333Y-136418152D02*
X106705714Y-136513390D01*
X106705714Y-136513390D02*
X106658095Y-136561009D01*
X106658095Y-136561009D02*
X106562857Y-136608628D01*
X106562857Y-136608628D02*
X106181905Y-136608628D01*
X107705714Y-137084819D02*
X107134286Y-137084819D01*
X107420000Y-137084819D02*
X107420000Y-136084819D01*
X107420000Y-136084819D02*
X107324762Y-136227676D01*
X107324762Y-136227676D02*
X107229524Y-136322914D01*
X107229524Y-136322914D02*
X107134286Y-136370533D01*
D10*
X148309523Y-138362180D02*
X148261904Y-138409800D01*
X148261904Y-138409800D02*
X148119047Y-138457419D01*
X148119047Y-138457419D02*
X148023809Y-138457419D01*
X148023809Y-138457419D02*
X147880952Y-138409800D01*
X147880952Y-138409800D02*
X147785714Y-138314561D01*
X147785714Y-138314561D02*
X147738095Y-138219323D01*
X147738095Y-138219323D02*
X147690476Y-138028847D01*
X147690476Y-138028847D02*
X147690476Y-137885990D01*
X147690476Y-137885990D02*
X147738095Y-137695514D01*
X147738095Y-137695514D02*
X147785714Y-137600276D01*
X147785714Y-137600276D02*
X147880952Y-137505038D01*
X147880952Y-137505038D02*
X148023809Y-137457419D01*
X148023809Y-137457419D02*
X148119047Y-137457419D01*
X148119047Y-137457419D02*
X148261904Y-137505038D01*
X148261904Y-137505038D02*
X148309523Y-137552657D01*
X148738095Y-138457419D02*
X148738095Y-137457419D01*
X148738095Y-137457419D02*
X149309523Y-138457419D01*
X149309523Y-138457419D02*
X149309523Y-137457419D01*
X150309523Y-138457419D02*
X149738095Y-138457419D01*
X150023809Y-138457419D02*
X150023809Y-137457419D01*
X150023809Y-137457419D02*
X149928571Y-137600276D01*
X149928571Y-137600276D02*
X149833333Y-137695514D01*
X149833333Y-137695514D02*
X149738095Y-137743133D01*
X143380038Y-141172306D02*
X143332419Y-141267544D01*
X143332419Y-141267544D02*
X143332419Y-141410401D01*
X143332419Y-141410401D02*
X143380038Y-141553258D01*
X143380038Y-141553258D02*
X143475276Y-141648496D01*
X143475276Y-141648496D02*
X143570514Y-141696115D01*
X143570514Y-141696115D02*
X143760990Y-141743734D01*
X143760990Y-141743734D02*
X143903847Y-141743734D01*
X143903847Y-141743734D02*
X144094323Y-141696115D01*
X144094323Y-141696115D02*
X144189561Y-141648496D01*
X144189561Y-141648496D02*
X144284800Y-141553258D01*
X144284800Y-141553258D02*
X144332419Y-141410401D01*
X144332419Y-141410401D02*
X144332419Y-141315163D01*
X144332419Y-141315163D02*
X144284800Y-141172306D01*
X144284800Y-141172306D02*
X144237180Y-141124687D01*
X144237180Y-141124687D02*
X143903847Y-141124687D01*
X143903847Y-141124687D02*
X143903847Y-141315163D01*
X144332419Y-140696115D02*
X143332419Y-140696115D01*
X143332419Y-140696115D02*
X144332419Y-140124687D01*
X144332419Y-140124687D02*
X143332419Y-140124687D01*
X144332419Y-139648496D02*
X143332419Y-139648496D01*
X143332419Y-139648496D02*
X143332419Y-139410401D01*
X143332419Y-139410401D02*
X143380038Y-139267544D01*
X143380038Y-139267544D02*
X143475276Y-139172306D01*
X143475276Y-139172306D02*
X143570514Y-139124687D01*
X143570514Y-139124687D02*
X143760990Y-139077068D01*
X143760990Y-139077068D02*
X143903847Y-139077068D01*
X143903847Y-139077068D02*
X144094323Y-139124687D01*
X144094323Y-139124687D02*
X144189561Y-139172306D01*
X144189561Y-139172306D02*
X144284800Y-139267544D01*
X144284800Y-139267544D02*
X144332419Y-139410401D01*
X144332419Y-139410401D02*
X144332419Y-139648496D01*
X117238095Y-138409800D02*
X117380952Y-138457419D01*
X117380952Y-138457419D02*
X117619047Y-138457419D01*
X117619047Y-138457419D02*
X117714285Y-138409800D01*
X117714285Y-138409800D02*
X117761904Y-138362180D01*
X117761904Y-138362180D02*
X117809523Y-138266942D01*
X117809523Y-138266942D02*
X117809523Y-138171704D01*
X117809523Y-138171704D02*
X117761904Y-138076466D01*
X117761904Y-138076466D02*
X117714285Y-138028847D01*
X117714285Y-138028847D02*
X117619047Y-137981228D01*
X117619047Y-137981228D02*
X117428571Y-137933609D01*
X117428571Y-137933609D02*
X117333333Y-137885990D01*
X117333333Y-137885990D02*
X117285714Y-137838371D01*
X117285714Y-137838371D02*
X117238095Y-137743133D01*
X117238095Y-137743133D02*
X117238095Y-137647895D01*
X117238095Y-137647895D02*
X117285714Y-137552657D01*
X117285714Y-137552657D02*
X117333333Y-137505038D01*
X117333333Y-137505038D02*
X117428571Y-137457419D01*
X117428571Y-137457419D02*
X117666666Y-137457419D01*
X117666666Y-137457419D02*
X117809523Y-137505038D01*
X118761904Y-138457419D02*
X118190476Y-138457419D01*
X118476190Y-138457419D02*
X118476190Y-137457419D01*
X118476190Y-137457419D02*
X118380952Y-137600276D01*
X118380952Y-137600276D02*
X118285714Y-137695514D01*
X118285714Y-137695514D02*
X118190476Y-137743133D01*
X125261905Y-138457419D02*
X125261905Y-137457419D01*
X125261905Y-137457419D02*
X125642857Y-137457419D01*
X125642857Y-137457419D02*
X125738095Y-137505038D01*
X125738095Y-137505038D02*
X125785714Y-137552657D01*
X125785714Y-137552657D02*
X125833333Y-137647895D01*
X125833333Y-137647895D02*
X125833333Y-137790752D01*
X125833333Y-137790752D02*
X125785714Y-137885990D01*
X125785714Y-137885990D02*
X125738095Y-137933609D01*
X125738095Y-137933609D02*
X125642857Y-137981228D01*
X125642857Y-137981228D02*
X125261905Y-137981228D01*
X126690476Y-137790752D02*
X126690476Y-138457419D01*
X126452381Y-137409800D02*
X126214286Y-138124085D01*
X126214286Y-138124085D02*
X126833333Y-138124085D01*
X115505038Y-126357142D02*
X115457419Y-126452380D01*
X115457419Y-126452380D02*
X115457419Y-126595237D01*
X115457419Y-126595237D02*
X115505038Y-126738094D01*
X115505038Y-126738094D02*
X115600276Y-126833332D01*
X115600276Y-126833332D02*
X115695514Y-126880951D01*
X115695514Y-126880951D02*
X115885990Y-126928570D01*
X115885990Y-126928570D02*
X116028847Y-126928570D01*
X116028847Y-126928570D02*
X116219323Y-126880951D01*
X116219323Y-126880951D02*
X116314561Y-126833332D01*
X116314561Y-126833332D02*
X116409800Y-126738094D01*
X116409800Y-126738094D02*
X116457419Y-126595237D01*
X116457419Y-126595237D02*
X116457419Y-126499999D01*
X116457419Y-126499999D02*
X116409800Y-126357142D01*
X116409800Y-126357142D02*
X116362180Y-126309523D01*
X116362180Y-126309523D02*
X116028847Y-126309523D01*
X116028847Y-126309523D02*
X116028847Y-126499999D01*
X116457419Y-125880951D02*
X115457419Y-125880951D01*
X115457419Y-125880951D02*
X115457419Y-125499999D01*
X115457419Y-125499999D02*
X115505038Y-125404761D01*
X115505038Y-125404761D02*
X115552657Y-125357142D01*
X115552657Y-125357142D02*
X115647895Y-125309523D01*
X115647895Y-125309523D02*
X115790752Y-125309523D01*
X115790752Y-125309523D02*
X115885990Y-125357142D01*
X115885990Y-125357142D02*
X115933609Y-125404761D01*
X115933609Y-125404761D02*
X115981228Y-125499999D01*
X115981228Y-125499999D02*
X115981228Y-125880951D01*
X116409800Y-124928570D02*
X116457419Y-124785713D01*
X116457419Y-124785713D02*
X116457419Y-124547618D01*
X116457419Y-124547618D02*
X116409800Y-124452380D01*
X116409800Y-124452380D02*
X116362180Y-124404761D01*
X116362180Y-124404761D02*
X116266942Y-124357142D01*
X116266942Y-124357142D02*
X116171704Y-124357142D01*
X116171704Y-124357142D02*
X116076466Y-124404761D01*
X116076466Y-124404761D02*
X116028847Y-124452380D01*
X116028847Y-124452380D02*
X115981228Y-124547618D01*
X115981228Y-124547618D02*
X115933609Y-124738094D01*
X115933609Y-124738094D02*
X115885990Y-124833332D01*
X115885990Y-124833332D02*
X115838371Y-124880951D01*
X115838371Y-124880951D02*
X115743133Y-124928570D01*
X115743133Y-124928570D02*
X115647895Y-124928570D01*
X115647895Y-124928570D02*
X115552657Y-124880951D01*
X115552657Y-124880951D02*
X115505038Y-124833332D01*
X115505038Y-124833332D02*
X115457419Y-124738094D01*
X115457419Y-124738094D02*
X115457419Y-124499999D01*
X115457419Y-124499999D02*
X115505038Y-124357142D01*
X116076466Y-123928570D02*
X116076466Y-123166666D01*
X116457419Y-122690475D02*
X115457419Y-122690475D01*
X115457419Y-122690475D02*
X116457419Y-122119047D01*
X116457419Y-122119047D02*
X115457419Y-122119047D01*
X115933609Y-121642856D02*
X115933609Y-121309523D01*
X116457419Y-121166666D02*
X116457419Y-121642856D01*
X116457419Y-121642856D02*
X115457419Y-121642856D01*
X115457419Y-121642856D02*
X115457419Y-121166666D01*
X115457419Y-120547618D02*
X115457419Y-120357142D01*
X115457419Y-120357142D02*
X115505038Y-120261904D01*
X115505038Y-120261904D02*
X115600276Y-120166666D01*
X115600276Y-120166666D02*
X115790752Y-120119047D01*
X115790752Y-120119047D02*
X116124085Y-120119047D01*
X116124085Y-120119047D02*
X116314561Y-120166666D01*
X116314561Y-120166666D02*
X116409800Y-120261904D01*
X116409800Y-120261904D02*
X116457419Y-120357142D01*
X116457419Y-120357142D02*
X116457419Y-120547618D01*
X116457419Y-120547618D02*
X116409800Y-120642856D01*
X116409800Y-120642856D02*
X116314561Y-120738094D01*
X116314561Y-120738094D02*
X116124085Y-120785713D01*
X116124085Y-120785713D02*
X115790752Y-120785713D01*
X115790752Y-120785713D02*
X115600276Y-120738094D01*
X115600276Y-120738094D02*
X115505038Y-120642856D01*
X115505038Y-120642856D02*
X115457419Y-120547618D01*
X115457419Y-119261904D02*
X115457419Y-119452380D01*
X115457419Y-119452380D02*
X115505038Y-119547618D01*
X115505038Y-119547618D02*
X115552657Y-119595237D01*
X115552657Y-119595237D02*
X115695514Y-119690475D01*
X115695514Y-119690475D02*
X115885990Y-119738094D01*
X115885990Y-119738094D02*
X116266942Y-119738094D01*
X116266942Y-119738094D02*
X116362180Y-119690475D01*
X116362180Y-119690475D02*
X116409800Y-119642856D01*
X116409800Y-119642856D02*
X116457419Y-119547618D01*
X116457419Y-119547618D02*
X116457419Y-119357142D01*
X116457419Y-119357142D02*
X116409800Y-119261904D01*
X116409800Y-119261904D02*
X116362180Y-119214285D01*
X116362180Y-119214285D02*
X116266942Y-119166666D01*
X116266942Y-119166666D02*
X116028847Y-119166666D01*
X116028847Y-119166666D02*
X115933609Y-119214285D01*
X115933609Y-119214285D02*
X115885990Y-119261904D01*
X115885990Y-119261904D02*
X115838371Y-119357142D01*
X115838371Y-119357142D02*
X115838371Y-119547618D01*
X115838371Y-119547618D02*
X115885990Y-119642856D01*
X115885990Y-119642856D02*
X115933609Y-119690475D01*
X115933609Y-119690475D02*
X116028847Y-119738094D01*
X116457419Y-118738094D02*
X115457419Y-118738094D01*
X115457419Y-118738094D02*
X116171704Y-118404761D01*
X116171704Y-118404761D02*
X115457419Y-118071428D01*
X115457419Y-118071428D02*
X116457419Y-118071428D01*
X116457419Y-117071428D02*
X116457419Y-117642856D01*
X116457419Y-117357142D02*
X115457419Y-117357142D01*
X115457419Y-117357142D02*
X115600276Y-117452380D01*
X115600276Y-117452380D02*
X115695514Y-117547618D01*
X115695514Y-117547618D02*
X115743133Y-117642856D01*
X131872419Y-117838972D02*
X132872419Y-117505639D01*
X132872419Y-117505639D02*
X131872419Y-117172306D01*
X132777180Y-116267544D02*
X132824800Y-116315163D01*
X132824800Y-116315163D02*
X132872419Y-116458020D01*
X132872419Y-116458020D02*
X132872419Y-116553258D01*
X132872419Y-116553258D02*
X132824800Y-116696115D01*
X132824800Y-116696115D02*
X132729561Y-116791353D01*
X132729561Y-116791353D02*
X132634323Y-116838972D01*
X132634323Y-116838972D02*
X132443847Y-116886591D01*
X132443847Y-116886591D02*
X132300990Y-116886591D01*
X132300990Y-116886591D02*
X132110514Y-116838972D01*
X132110514Y-116838972D02*
X132015276Y-116791353D01*
X132015276Y-116791353D02*
X131920038Y-116696115D01*
X131920038Y-116696115D02*
X131872419Y-116553258D01*
X131872419Y-116553258D02*
X131872419Y-116458020D01*
X131872419Y-116458020D02*
X131920038Y-116315163D01*
X131920038Y-116315163D02*
X131967657Y-116267544D01*
X132777180Y-115267544D02*
X132824800Y-115315163D01*
X132824800Y-115315163D02*
X132872419Y-115458020D01*
X132872419Y-115458020D02*
X132872419Y-115553258D01*
X132872419Y-115553258D02*
X132824800Y-115696115D01*
X132824800Y-115696115D02*
X132729561Y-115791353D01*
X132729561Y-115791353D02*
X132634323Y-115838972D01*
X132634323Y-115838972D02*
X132443847Y-115886591D01*
X132443847Y-115886591D02*
X132300990Y-115886591D01*
X132300990Y-115886591D02*
X132110514Y-115838972D01*
X132110514Y-115838972D02*
X132015276Y-115791353D01*
X132015276Y-115791353D02*
X131920038Y-115696115D01*
X131920038Y-115696115D02*
X131872419Y-115553258D01*
X131872419Y-115553258D02*
X131872419Y-115458020D01*
X131872419Y-115458020D02*
X131920038Y-115315163D01*
X131920038Y-115315163D02*
X131967657Y-115267544D01*
X131920038Y-127172306D02*
X131872419Y-127267544D01*
X131872419Y-127267544D02*
X131872419Y-127410401D01*
X131872419Y-127410401D02*
X131920038Y-127553258D01*
X131920038Y-127553258D02*
X132015276Y-127648496D01*
X132015276Y-127648496D02*
X132110514Y-127696115D01*
X132110514Y-127696115D02*
X132300990Y-127743734D01*
X132300990Y-127743734D02*
X132443847Y-127743734D01*
X132443847Y-127743734D02*
X132634323Y-127696115D01*
X132634323Y-127696115D02*
X132729561Y-127648496D01*
X132729561Y-127648496D02*
X132824800Y-127553258D01*
X132824800Y-127553258D02*
X132872419Y-127410401D01*
X132872419Y-127410401D02*
X132872419Y-127315163D01*
X132872419Y-127315163D02*
X132824800Y-127172306D01*
X132824800Y-127172306D02*
X132777180Y-127124687D01*
X132777180Y-127124687D02*
X132443847Y-127124687D01*
X132443847Y-127124687D02*
X132443847Y-127315163D01*
X132872419Y-126696115D02*
X131872419Y-126696115D01*
X131872419Y-126696115D02*
X132872419Y-126124687D01*
X132872419Y-126124687D02*
X131872419Y-126124687D01*
X132872419Y-125648496D02*
X131872419Y-125648496D01*
X131872419Y-125648496D02*
X131872419Y-125410401D01*
X131872419Y-125410401D02*
X131920038Y-125267544D01*
X131920038Y-125267544D02*
X132015276Y-125172306D01*
X132015276Y-125172306D02*
X132110514Y-125124687D01*
X132110514Y-125124687D02*
X132300990Y-125077068D01*
X132300990Y-125077068D02*
X132443847Y-125077068D01*
X132443847Y-125077068D02*
X132634323Y-125124687D01*
X132634323Y-125124687D02*
X132729561Y-125172306D01*
X132729561Y-125172306D02*
X132824800Y-125267544D01*
X132824800Y-125267544D02*
X132872419Y-125410401D01*
X132872419Y-125410401D02*
X132872419Y-125648496D01*
X131872419Y-123838972D02*
X131872419Y-123267544D01*
X132872419Y-123553258D02*
X131872419Y-123553258D01*
X132872419Y-123029448D02*
X132205752Y-122505639D01*
X132205752Y-123029448D02*
X132872419Y-122505639D01*
X132238095Y-100457419D02*
X131761905Y-100457419D01*
X131761905Y-100457419D02*
X131761905Y-99457419D01*
X132571429Y-100457419D02*
X132571429Y-99790752D01*
X132571429Y-99457419D02*
X132523810Y-99505038D01*
X132523810Y-99505038D02*
X132571429Y-99552657D01*
X132571429Y-99552657D02*
X132619048Y-99505038D01*
X132619048Y-99505038D02*
X132571429Y-99457419D01*
X132571429Y-99457419D02*
X132571429Y-99552657D01*
X133047619Y-99790752D02*
X133047619Y-100790752D01*
X133047619Y-99838371D02*
X133142857Y-99790752D01*
X133142857Y-99790752D02*
X133333333Y-99790752D01*
X133333333Y-99790752D02*
X133428571Y-99838371D01*
X133428571Y-99838371D02*
X133476190Y-99885990D01*
X133476190Y-99885990D02*
X133523809Y-99981228D01*
X133523809Y-99981228D02*
X133523809Y-100266942D01*
X133523809Y-100266942D02*
X133476190Y-100362180D01*
X133476190Y-100362180D02*
X133428571Y-100409800D01*
X133428571Y-100409800D02*
X133333333Y-100457419D01*
X133333333Y-100457419D02*
X133142857Y-100457419D01*
X133142857Y-100457419D02*
X133047619Y-100409800D01*
X134095238Y-100457419D02*
X134000000Y-100409800D01*
X134000000Y-100409800D02*
X133952381Y-100362180D01*
X133952381Y-100362180D02*
X133904762Y-100266942D01*
X133904762Y-100266942D02*
X133904762Y-99981228D01*
X133904762Y-99981228D02*
X133952381Y-99885990D01*
X133952381Y-99885990D02*
X134000000Y-99838371D01*
X134000000Y-99838371D02*
X134095238Y-99790752D01*
X134095238Y-99790752D02*
X134238095Y-99790752D01*
X134238095Y-99790752D02*
X134333333Y-99838371D01*
X134333333Y-99838371D02*
X134380952Y-99885990D01*
X134380952Y-99885990D02*
X134428571Y-99981228D01*
X134428571Y-99981228D02*
X134428571Y-100266942D01*
X134428571Y-100266942D02*
X134380952Y-100362180D01*
X134380952Y-100362180D02*
X134333333Y-100409800D01*
X134333333Y-100409800D02*
X134238095Y-100457419D01*
X134238095Y-100457419D02*
X134095238Y-100457419D01*
X134857143Y-100076466D02*
X135619048Y-100076466D01*
X136619047Y-100457419D02*
X136047619Y-100457419D01*
X136333333Y-100457419D02*
X136333333Y-99457419D01*
X136333333Y-99457419D02*
X136238095Y-99600276D01*
X136238095Y-99600276D02*
X136142857Y-99695514D01*
X136142857Y-99695514D02*
X136047619Y-99743133D01*
X137000000Y-100409800D02*
X137142857Y-100457419D01*
X137142857Y-100457419D02*
X137380952Y-100457419D01*
X137380952Y-100457419D02*
X137476190Y-100409800D01*
X137476190Y-100409800D02*
X137523809Y-100362180D01*
X137523809Y-100362180D02*
X137571428Y-100266942D01*
X137571428Y-100266942D02*
X137571428Y-100171704D01*
X137571428Y-100171704D02*
X137523809Y-100076466D01*
X137523809Y-100076466D02*
X137476190Y-100028847D01*
X137476190Y-100028847D02*
X137380952Y-99981228D01*
X137380952Y-99981228D02*
X137190476Y-99933609D01*
X137190476Y-99933609D02*
X137095238Y-99885990D01*
X137095238Y-99885990D02*
X137047619Y-99838371D01*
X137047619Y-99838371D02*
X137000000Y-99743133D01*
X137000000Y-99743133D02*
X137000000Y-99647895D01*
X137000000Y-99647895D02*
X137047619Y-99552657D01*
X137047619Y-99552657D02*
X137095238Y-99505038D01*
X137095238Y-99505038D02*
X137190476Y-99457419D01*
X137190476Y-99457419D02*
X137428571Y-99457419D01*
X137428571Y-99457419D02*
X137571428Y-99505038D01*
X138000000Y-100076466D02*
X138761905Y-100076466D01*
X139095238Y-99790752D02*
X139476190Y-99790752D01*
X139238095Y-99457419D02*
X139238095Y-100314561D01*
X139238095Y-100314561D02*
X139285714Y-100409800D01*
X139285714Y-100409800D02*
X139380952Y-100457419D01*
X139380952Y-100457419D02*
X139476190Y-100457419D01*
X139952381Y-100457419D02*
X139857143Y-100409800D01*
X139857143Y-100409800D02*
X139809524Y-100362180D01*
X139809524Y-100362180D02*
X139761905Y-100266942D01*
X139761905Y-100266942D02*
X139761905Y-99981228D01*
X139761905Y-99981228D02*
X139809524Y-99885990D01*
X139809524Y-99885990D02*
X139857143Y-99838371D01*
X139857143Y-99838371D02*
X139952381Y-99790752D01*
X139952381Y-99790752D02*
X140095238Y-99790752D01*
X140095238Y-99790752D02*
X140190476Y-99838371D01*
X140190476Y-99838371D02*
X140238095Y-99885990D01*
X140238095Y-99885990D02*
X140285714Y-99981228D01*
X140285714Y-99981228D02*
X140285714Y-100266942D01*
X140285714Y-100266942D02*
X140238095Y-100362180D01*
X140238095Y-100362180D02*
X140190476Y-100409800D01*
X140190476Y-100409800D02*
X140095238Y-100457419D01*
X140095238Y-100457419D02*
X139952381Y-100457419D01*
X140714286Y-100076466D02*
X141476191Y-100076466D01*
X142428571Y-99457419D02*
X141952381Y-99457419D01*
X141952381Y-99457419D02*
X141904762Y-99933609D01*
X141904762Y-99933609D02*
X141952381Y-99885990D01*
X141952381Y-99885990D02*
X142047619Y-99838371D01*
X142047619Y-99838371D02*
X142285714Y-99838371D01*
X142285714Y-99838371D02*
X142380952Y-99885990D01*
X142380952Y-99885990D02*
X142428571Y-99933609D01*
X142428571Y-99933609D02*
X142476190Y-100028847D01*
X142476190Y-100028847D02*
X142476190Y-100266942D01*
X142476190Y-100266942D02*
X142428571Y-100362180D01*
X142428571Y-100362180D02*
X142380952Y-100409800D01*
X142380952Y-100409800D02*
X142285714Y-100457419D01*
X142285714Y-100457419D02*
X142047619Y-100457419D01*
X142047619Y-100457419D02*
X141952381Y-100409800D01*
X141952381Y-100409800D02*
X141904762Y-100362180D01*
X142761905Y-99457419D02*
X143095238Y-100457419D01*
X143095238Y-100457419D02*
X143428571Y-99457419D01*
X144285714Y-100457419D02*
X143714286Y-100457419D01*
X144000000Y-100457419D02*
X144000000Y-99457419D01*
X144000000Y-99457419D02*
X143904762Y-99600276D01*
X143904762Y-99600276D02*
X143809524Y-99695514D01*
X143809524Y-99695514D02*
X143714286Y-99743133D01*
X140827693Y-107920038D02*
X140732455Y-107872419D01*
X140732455Y-107872419D02*
X140589598Y-107872419D01*
X140589598Y-107872419D02*
X140446741Y-107920038D01*
X140446741Y-107920038D02*
X140351503Y-108015276D01*
X140351503Y-108015276D02*
X140303884Y-108110514D01*
X140303884Y-108110514D02*
X140256265Y-108300990D01*
X140256265Y-108300990D02*
X140256265Y-108443847D01*
X140256265Y-108443847D02*
X140303884Y-108634323D01*
X140303884Y-108634323D02*
X140351503Y-108729561D01*
X140351503Y-108729561D02*
X140446741Y-108824800D01*
X140446741Y-108824800D02*
X140589598Y-108872419D01*
X140589598Y-108872419D02*
X140684836Y-108872419D01*
X140684836Y-108872419D02*
X140827693Y-108824800D01*
X140827693Y-108824800D02*
X140875312Y-108777180D01*
X140875312Y-108777180D02*
X140875312Y-108443847D01*
X140875312Y-108443847D02*
X140684836Y-108443847D01*
X141303884Y-108872419D02*
X141303884Y-107872419D01*
X141303884Y-107872419D02*
X141875312Y-108872419D01*
X141875312Y-108872419D02*
X141875312Y-107872419D01*
X142351503Y-108872419D02*
X142351503Y-107872419D01*
X142351503Y-107872419D02*
X142589598Y-107872419D01*
X142589598Y-107872419D02*
X142732455Y-107920038D01*
X142732455Y-107920038D02*
X142827693Y-108015276D01*
X142827693Y-108015276D02*
X142875312Y-108110514D01*
X142875312Y-108110514D02*
X142922931Y-108300990D01*
X142922931Y-108300990D02*
X142922931Y-108443847D01*
X142922931Y-108443847D02*
X142875312Y-108634323D01*
X142875312Y-108634323D02*
X142827693Y-108729561D01*
X142827693Y-108729561D02*
X142732455Y-108824800D01*
X142732455Y-108824800D02*
X142589598Y-108872419D01*
X142589598Y-108872419D02*
X142351503Y-108872419D01*
X134780074Y-107872419D02*
X134303884Y-107872419D01*
X134303884Y-107872419D02*
X134256265Y-108348609D01*
X134256265Y-108348609D02*
X134303884Y-108300990D01*
X134303884Y-108300990D02*
X134399122Y-108253371D01*
X134399122Y-108253371D02*
X134637217Y-108253371D01*
X134637217Y-108253371D02*
X134732455Y-108300990D01*
X134732455Y-108300990D02*
X134780074Y-108348609D01*
X134780074Y-108348609D02*
X134827693Y-108443847D01*
X134827693Y-108443847D02*
X134827693Y-108681942D01*
X134827693Y-108681942D02*
X134780074Y-108777180D01*
X134780074Y-108777180D02*
X134732455Y-108824800D01*
X134732455Y-108824800D02*
X134637217Y-108872419D01*
X134637217Y-108872419D02*
X134399122Y-108872419D01*
X134399122Y-108872419D02*
X134303884Y-108824800D01*
X134303884Y-108824800D02*
X134256265Y-108777180D01*
X135113408Y-107872419D02*
X135446741Y-108872419D01*
X135446741Y-108872419D02*
X135780074Y-107872419D01*
X137827693Y-108872419D02*
X137256265Y-108872419D01*
X137541979Y-108872419D02*
X137541979Y-107872419D01*
X137541979Y-107872419D02*
X137446741Y-108015276D01*
X137446741Y-108015276D02*
X137351503Y-108110514D01*
X137351503Y-108110514D02*
X137256265Y-108158133D01*
X138208646Y-108824800D02*
X138351503Y-108872419D01*
X138351503Y-108872419D02*
X138589598Y-108872419D01*
X138589598Y-108872419D02*
X138684836Y-108824800D01*
X138684836Y-108824800D02*
X138732455Y-108777180D01*
X138732455Y-108777180D02*
X138780074Y-108681942D01*
X138780074Y-108681942D02*
X138780074Y-108586704D01*
X138780074Y-108586704D02*
X138732455Y-108491466D01*
X138732455Y-108491466D02*
X138684836Y-108443847D01*
X138684836Y-108443847D02*
X138589598Y-108396228D01*
X138589598Y-108396228D02*
X138399122Y-108348609D01*
X138399122Y-108348609D02*
X138303884Y-108300990D01*
X138303884Y-108300990D02*
X138256265Y-108253371D01*
X138256265Y-108253371D02*
X138208646Y-108158133D01*
X138208646Y-108158133D02*
X138208646Y-108062895D01*
X138208646Y-108062895D02*
X138256265Y-107967657D01*
X138256265Y-107967657D02*
X138303884Y-107920038D01*
X138303884Y-107920038D02*
X138399122Y-107872419D01*
X138399122Y-107872419D02*
X138637217Y-107872419D01*
X138637217Y-107872419D02*
X138780074Y-107920038D01*
X169933609Y-131785714D02*
X169981228Y-131642857D01*
X169981228Y-131642857D02*
X170028847Y-131595238D01*
X170028847Y-131595238D02*
X170124085Y-131547619D01*
X170124085Y-131547619D02*
X170266942Y-131547619D01*
X170266942Y-131547619D02*
X170362180Y-131595238D01*
X170362180Y-131595238D02*
X170409800Y-131642857D01*
X170409800Y-131642857D02*
X170457419Y-131738095D01*
X170457419Y-131738095D02*
X170457419Y-132119047D01*
X170457419Y-132119047D02*
X169457419Y-132119047D01*
X169457419Y-132119047D02*
X169457419Y-131785714D01*
X169457419Y-131785714D02*
X169505038Y-131690476D01*
X169505038Y-131690476D02*
X169552657Y-131642857D01*
X169552657Y-131642857D02*
X169647895Y-131595238D01*
X169647895Y-131595238D02*
X169743133Y-131595238D01*
X169743133Y-131595238D02*
X169838371Y-131642857D01*
X169838371Y-131642857D02*
X169885990Y-131690476D01*
X169885990Y-131690476D02*
X169933609Y-131785714D01*
X169933609Y-131785714D02*
X169933609Y-132119047D01*
X169457419Y-131261904D02*
X169457419Y-130690476D01*
X170457419Y-130976190D02*
X169457419Y-130976190D01*
X170457419Y-129833333D02*
X170457419Y-130404761D01*
X170457419Y-130119047D02*
X169457419Y-130119047D01*
X169457419Y-130119047D02*
X169600276Y-130214285D01*
X169600276Y-130214285D02*
X169695514Y-130309523D01*
X169695514Y-130309523D02*
X169743133Y-130404761D01*
X94552657Y-118928571D02*
X94505038Y-119023809D01*
X94505038Y-119023809D02*
X94409800Y-119119047D01*
X94409800Y-119119047D02*
X94266942Y-119261904D01*
X94266942Y-119261904D02*
X94219323Y-119357142D01*
X94219323Y-119357142D02*
X94219323Y-119452380D01*
X94457419Y-119404761D02*
X94409800Y-119499999D01*
X94409800Y-119499999D02*
X94314561Y-119595237D01*
X94314561Y-119595237D02*
X94124085Y-119642856D01*
X94124085Y-119642856D02*
X93790752Y-119642856D01*
X93790752Y-119642856D02*
X93600276Y-119595237D01*
X93600276Y-119595237D02*
X93505038Y-119499999D01*
X93505038Y-119499999D02*
X93457419Y-119404761D01*
X93457419Y-119404761D02*
X93457419Y-119214285D01*
X93457419Y-119214285D02*
X93505038Y-119119047D01*
X93505038Y-119119047D02*
X93600276Y-119023809D01*
X93600276Y-119023809D02*
X93790752Y-118976190D01*
X93790752Y-118976190D02*
X94124085Y-118976190D01*
X94124085Y-118976190D02*
X94314561Y-119023809D01*
X94314561Y-119023809D02*
X94409800Y-119119047D01*
X94409800Y-119119047D02*
X94457419Y-119214285D01*
X94457419Y-119214285D02*
X94457419Y-119404761D01*
X94457419Y-118547618D02*
X93457419Y-118547618D01*
X93457419Y-118547618D02*
X94171704Y-118214285D01*
X94171704Y-118214285D02*
X93457419Y-117880952D01*
X93457419Y-117880952D02*
X94457419Y-117880952D01*
X94362180Y-116833333D02*
X94409800Y-116880952D01*
X94409800Y-116880952D02*
X94457419Y-117023809D01*
X94457419Y-117023809D02*
X94457419Y-117119047D01*
X94457419Y-117119047D02*
X94409800Y-117261904D01*
X94409800Y-117261904D02*
X94314561Y-117357142D01*
X94314561Y-117357142D02*
X94219323Y-117404761D01*
X94219323Y-117404761D02*
X94028847Y-117452380D01*
X94028847Y-117452380D02*
X93885990Y-117452380D01*
X93885990Y-117452380D02*
X93695514Y-117404761D01*
X93695514Y-117404761D02*
X93600276Y-117357142D01*
X93600276Y-117357142D02*
X93505038Y-117261904D01*
X93505038Y-117261904D02*
X93457419Y-117119047D01*
X93457419Y-117119047D02*
X93457419Y-117023809D01*
X93457419Y-117023809D02*
X93505038Y-116880952D01*
X93505038Y-116880952D02*
X93552657Y-116833333D01*
X93457419Y-115928571D02*
X93457419Y-116404761D01*
X93457419Y-116404761D02*
X93933609Y-116452380D01*
X93933609Y-116452380D02*
X93885990Y-116404761D01*
X93885990Y-116404761D02*
X93838371Y-116309523D01*
X93838371Y-116309523D02*
X93838371Y-116071428D01*
X93838371Y-116071428D02*
X93885990Y-115976190D01*
X93885990Y-115976190D02*
X93933609Y-115928571D01*
X93933609Y-115928571D02*
X94028847Y-115880952D01*
X94028847Y-115880952D02*
X94266942Y-115880952D01*
X94266942Y-115880952D02*
X94362180Y-115928571D01*
X94362180Y-115928571D02*
X94409800Y-115976190D01*
X94409800Y-115976190D02*
X94457419Y-116071428D01*
X94457419Y-116071428D02*
X94457419Y-116309523D01*
X94457419Y-116309523D02*
X94409800Y-116404761D01*
X94409800Y-116404761D02*
X94362180Y-116452380D01*
X93885990Y-115309523D02*
X93838371Y-115404761D01*
X93838371Y-115404761D02*
X93790752Y-115452380D01*
X93790752Y-115452380D02*
X93695514Y-115499999D01*
X93695514Y-115499999D02*
X93647895Y-115499999D01*
X93647895Y-115499999D02*
X93552657Y-115452380D01*
X93552657Y-115452380D02*
X93505038Y-115404761D01*
X93505038Y-115404761D02*
X93457419Y-115309523D01*
X93457419Y-115309523D02*
X93457419Y-115119047D01*
X93457419Y-115119047D02*
X93505038Y-115023809D01*
X93505038Y-115023809D02*
X93552657Y-114976190D01*
X93552657Y-114976190D02*
X93647895Y-114928571D01*
X93647895Y-114928571D02*
X93695514Y-114928571D01*
X93695514Y-114928571D02*
X93790752Y-114976190D01*
X93790752Y-114976190D02*
X93838371Y-115023809D01*
X93838371Y-115023809D02*
X93885990Y-115119047D01*
X93885990Y-115119047D02*
X93885990Y-115309523D01*
X93885990Y-115309523D02*
X93933609Y-115404761D01*
X93933609Y-115404761D02*
X93981228Y-115452380D01*
X93981228Y-115452380D02*
X94076466Y-115499999D01*
X94076466Y-115499999D02*
X94266942Y-115499999D01*
X94266942Y-115499999D02*
X94362180Y-115452380D01*
X94362180Y-115452380D02*
X94409800Y-115404761D01*
X94409800Y-115404761D02*
X94457419Y-115309523D01*
X94457419Y-115309523D02*
X94457419Y-115119047D01*
X94457419Y-115119047D02*
X94409800Y-115023809D01*
X94409800Y-115023809D02*
X94362180Y-114976190D01*
X94362180Y-114976190D02*
X94266942Y-114928571D01*
X94266942Y-114928571D02*
X94076466Y-114928571D01*
X94076466Y-114928571D02*
X93981228Y-114976190D01*
X93981228Y-114976190D02*
X93933609Y-115023809D01*
X93933609Y-115023809D02*
X93885990Y-115119047D01*
X93885990Y-114357142D02*
X93838371Y-114452380D01*
X93838371Y-114452380D02*
X93790752Y-114499999D01*
X93790752Y-114499999D02*
X93695514Y-114547618D01*
X93695514Y-114547618D02*
X93647895Y-114547618D01*
X93647895Y-114547618D02*
X93552657Y-114499999D01*
X93552657Y-114499999D02*
X93505038Y-114452380D01*
X93505038Y-114452380D02*
X93457419Y-114357142D01*
X93457419Y-114357142D02*
X93457419Y-114166666D01*
X93457419Y-114166666D02*
X93505038Y-114071428D01*
X93505038Y-114071428D02*
X93552657Y-114023809D01*
X93552657Y-114023809D02*
X93647895Y-113976190D01*
X93647895Y-113976190D02*
X93695514Y-113976190D01*
X93695514Y-113976190D02*
X93790752Y-114023809D01*
X93790752Y-114023809D02*
X93838371Y-114071428D01*
X93838371Y-114071428D02*
X93885990Y-114166666D01*
X93885990Y-114166666D02*
X93885990Y-114357142D01*
X93885990Y-114357142D02*
X93933609Y-114452380D01*
X93933609Y-114452380D02*
X93981228Y-114499999D01*
X93981228Y-114499999D02*
X94076466Y-114547618D01*
X94076466Y-114547618D02*
X94266942Y-114547618D01*
X94266942Y-114547618D02*
X94362180Y-114499999D01*
X94362180Y-114499999D02*
X94409800Y-114452380D01*
X94409800Y-114452380D02*
X94457419Y-114357142D01*
X94457419Y-114357142D02*
X94457419Y-114166666D01*
X94457419Y-114166666D02*
X94409800Y-114071428D01*
X94409800Y-114071428D02*
X94362180Y-114023809D01*
X94362180Y-114023809D02*
X94266942Y-113976190D01*
X94266942Y-113976190D02*
X94076466Y-113976190D01*
X94076466Y-113976190D02*
X93981228Y-114023809D01*
X93981228Y-114023809D02*
X93933609Y-114071428D01*
X93933609Y-114071428D02*
X93885990Y-114166666D01*
X93457419Y-113642856D02*
X93457419Y-113023809D01*
X93457419Y-113023809D02*
X93838371Y-113357142D01*
X93838371Y-113357142D02*
X93838371Y-113214285D01*
X93838371Y-113214285D02*
X93885990Y-113119047D01*
X93885990Y-113119047D02*
X93933609Y-113071428D01*
X93933609Y-113071428D02*
X94028847Y-113023809D01*
X94028847Y-113023809D02*
X94266942Y-113023809D01*
X94266942Y-113023809D02*
X94362180Y-113071428D01*
X94362180Y-113071428D02*
X94409800Y-113119047D01*
X94409800Y-113119047D02*
X94457419Y-113214285D01*
X94457419Y-113214285D02*
X94457419Y-113499999D01*
X94457419Y-113499999D02*
X94409800Y-113595237D01*
X94409800Y-113595237D02*
X94362180Y-113642856D01*
X94552657Y-112833333D02*
X94552657Y-112071428D01*
X94457419Y-111833332D02*
X93457419Y-111833332D01*
X93457419Y-111833332D02*
X94171704Y-111499999D01*
X94171704Y-111499999D02*
X93457419Y-111166666D01*
X93457419Y-111166666D02*
X94457419Y-111166666D01*
X94457419Y-110261904D02*
X93933609Y-110261904D01*
X93933609Y-110261904D02*
X93838371Y-110309523D01*
X93838371Y-110309523D02*
X93790752Y-110404761D01*
X93790752Y-110404761D02*
X93790752Y-110595237D01*
X93790752Y-110595237D02*
X93838371Y-110690475D01*
X94409800Y-110261904D02*
X94457419Y-110357142D01*
X94457419Y-110357142D02*
X94457419Y-110595237D01*
X94457419Y-110595237D02*
X94409800Y-110690475D01*
X94409800Y-110690475D02*
X94314561Y-110738094D01*
X94314561Y-110738094D02*
X94219323Y-110738094D01*
X94219323Y-110738094D02*
X94124085Y-110690475D01*
X94124085Y-110690475D02*
X94076466Y-110595237D01*
X94076466Y-110595237D02*
X94076466Y-110357142D01*
X94076466Y-110357142D02*
X94028847Y-110261904D01*
X93790752Y-109357142D02*
X94600276Y-109357142D01*
X94600276Y-109357142D02*
X94695514Y-109404761D01*
X94695514Y-109404761D02*
X94743133Y-109452380D01*
X94743133Y-109452380D02*
X94790752Y-109547618D01*
X94790752Y-109547618D02*
X94790752Y-109690475D01*
X94790752Y-109690475D02*
X94743133Y-109785713D01*
X94409800Y-109357142D02*
X94457419Y-109452380D01*
X94457419Y-109452380D02*
X94457419Y-109642856D01*
X94457419Y-109642856D02*
X94409800Y-109738094D01*
X94409800Y-109738094D02*
X94362180Y-109785713D01*
X94362180Y-109785713D02*
X94266942Y-109833332D01*
X94266942Y-109833332D02*
X93981228Y-109833332D01*
X93981228Y-109833332D02*
X93885990Y-109785713D01*
X93885990Y-109785713D02*
X93838371Y-109738094D01*
X93838371Y-109738094D02*
X93790752Y-109642856D01*
X93790752Y-109642856D02*
X93790752Y-109452380D01*
X93790752Y-109452380D02*
X93838371Y-109357142D01*
X94457419Y-108357142D02*
X94457419Y-108928570D01*
X94457419Y-108642856D02*
X93457419Y-108642856D01*
X93457419Y-108642856D02*
X93600276Y-108738094D01*
X93600276Y-108738094D02*
X93695514Y-108833332D01*
X93695514Y-108833332D02*
X93743133Y-108928570D01*
X96840038Y-130252306D02*
X96792419Y-130347544D01*
X96792419Y-130347544D02*
X96792419Y-130490401D01*
X96792419Y-130490401D02*
X96840038Y-130633258D01*
X96840038Y-130633258D02*
X96935276Y-130728496D01*
X96935276Y-130728496D02*
X97030514Y-130776115D01*
X97030514Y-130776115D02*
X97220990Y-130823734D01*
X97220990Y-130823734D02*
X97363847Y-130823734D01*
X97363847Y-130823734D02*
X97554323Y-130776115D01*
X97554323Y-130776115D02*
X97649561Y-130728496D01*
X97649561Y-130728496D02*
X97744800Y-130633258D01*
X97744800Y-130633258D02*
X97792419Y-130490401D01*
X97792419Y-130490401D02*
X97792419Y-130395163D01*
X97792419Y-130395163D02*
X97744800Y-130252306D01*
X97744800Y-130252306D02*
X97697180Y-130204687D01*
X97697180Y-130204687D02*
X97363847Y-130204687D01*
X97363847Y-130204687D02*
X97363847Y-130395163D01*
X97792419Y-129776115D02*
X96792419Y-129776115D01*
X96792419Y-129776115D02*
X97792419Y-129204687D01*
X97792419Y-129204687D02*
X96792419Y-129204687D01*
X97792419Y-128728496D02*
X96792419Y-128728496D01*
X96792419Y-128728496D02*
X96792419Y-128490401D01*
X96792419Y-128490401D02*
X96840038Y-128347544D01*
X96840038Y-128347544D02*
X96935276Y-128252306D01*
X96935276Y-128252306D02*
X97030514Y-128204687D01*
X97030514Y-128204687D02*
X97220990Y-128157068D01*
X97220990Y-128157068D02*
X97363847Y-128157068D01*
X97363847Y-128157068D02*
X97554323Y-128204687D01*
X97554323Y-128204687D02*
X97649561Y-128252306D01*
X97649561Y-128252306D02*
X97744800Y-128347544D01*
X97744800Y-128347544D02*
X97792419Y-128490401D01*
X97792419Y-128490401D02*
X97792419Y-128728496D01*
X96792419Y-134918972D02*
X97792419Y-134585639D01*
X97792419Y-134585639D02*
X96792419Y-134252306D01*
X97744800Y-133490401D02*
X97792419Y-133585639D01*
X97792419Y-133585639D02*
X97792419Y-133776115D01*
X97792419Y-133776115D02*
X97744800Y-133871353D01*
X97744800Y-133871353D02*
X97697180Y-133918972D01*
X97697180Y-133918972D02*
X97601942Y-133966591D01*
X97601942Y-133966591D02*
X97316228Y-133966591D01*
X97316228Y-133966591D02*
X97220990Y-133918972D01*
X97220990Y-133918972D02*
X97173371Y-133871353D01*
X97173371Y-133871353D02*
X97125752Y-133776115D01*
X97125752Y-133776115D02*
X97125752Y-133585639D01*
X97125752Y-133585639D02*
X97173371Y-133490401D01*
X97744800Y-132633258D02*
X97792419Y-132728496D01*
X97792419Y-132728496D02*
X97792419Y-132918972D01*
X97792419Y-132918972D02*
X97744800Y-133014210D01*
X97744800Y-133014210D02*
X97697180Y-133061829D01*
X97697180Y-133061829D02*
X97601942Y-133109448D01*
X97601942Y-133109448D02*
X97316228Y-133109448D01*
X97316228Y-133109448D02*
X97220990Y-133061829D01*
X97220990Y-133061829D02*
X97173371Y-133014210D01*
X97173371Y-133014210D02*
X97125752Y-132918972D01*
X97125752Y-132918972D02*
X97125752Y-132728496D01*
X97125752Y-132728496D02*
X97173371Y-132633258D01*
X97744800Y-124823734D02*
X97792419Y-124680877D01*
X97792419Y-124680877D02*
X97792419Y-124442782D01*
X97792419Y-124442782D02*
X97744800Y-124347544D01*
X97744800Y-124347544D02*
X97697180Y-124299925D01*
X97697180Y-124299925D02*
X97601942Y-124252306D01*
X97601942Y-124252306D02*
X97506704Y-124252306D01*
X97506704Y-124252306D02*
X97411466Y-124299925D01*
X97411466Y-124299925D02*
X97363847Y-124347544D01*
X97363847Y-124347544D02*
X97316228Y-124442782D01*
X97316228Y-124442782D02*
X97268609Y-124633258D01*
X97268609Y-124633258D02*
X97220990Y-124728496D01*
X97220990Y-124728496D02*
X97173371Y-124776115D01*
X97173371Y-124776115D02*
X97078133Y-124823734D01*
X97078133Y-124823734D02*
X96982895Y-124823734D01*
X96982895Y-124823734D02*
X96887657Y-124776115D01*
X96887657Y-124776115D02*
X96840038Y-124728496D01*
X96840038Y-124728496D02*
X96792419Y-124633258D01*
X96792419Y-124633258D02*
X96792419Y-124395163D01*
X96792419Y-124395163D02*
X96840038Y-124252306D01*
X97792419Y-123823734D02*
X96792419Y-123823734D01*
X96792419Y-123823734D02*
X96792419Y-123585639D01*
X96792419Y-123585639D02*
X96840038Y-123442782D01*
X96840038Y-123442782D02*
X96935276Y-123347544D01*
X96935276Y-123347544D02*
X97030514Y-123299925D01*
X97030514Y-123299925D02*
X97220990Y-123252306D01*
X97220990Y-123252306D02*
X97363847Y-123252306D01*
X97363847Y-123252306D02*
X97554323Y-123299925D01*
X97554323Y-123299925D02*
X97649561Y-123347544D01*
X97649561Y-123347544D02*
X97744800Y-123442782D01*
X97744800Y-123442782D02*
X97792419Y-123585639D01*
X97792419Y-123585639D02*
X97792419Y-123823734D01*
X97506704Y-122871353D02*
X97506704Y-122395163D01*
X97792419Y-122966591D02*
X96792419Y-122633258D01*
X96792419Y-122633258D02*
X97792419Y-122299925D01*
X97792419Y-119776115D02*
X96792419Y-119776115D01*
X96792419Y-119776115D02*
X96792419Y-119538020D01*
X96792419Y-119538020D02*
X96840038Y-119395163D01*
X96840038Y-119395163D02*
X96935276Y-119299925D01*
X96935276Y-119299925D02*
X97030514Y-119252306D01*
X97030514Y-119252306D02*
X97220990Y-119204687D01*
X97220990Y-119204687D02*
X97363847Y-119204687D01*
X97363847Y-119204687D02*
X97554323Y-119252306D01*
X97554323Y-119252306D02*
X97649561Y-119299925D01*
X97649561Y-119299925D02*
X97744800Y-119395163D01*
X97744800Y-119395163D02*
X97792419Y-119538020D01*
X97792419Y-119538020D02*
X97792419Y-119776115D01*
X97792419Y-118204687D02*
X97316228Y-118538020D01*
X97792419Y-118776115D02*
X96792419Y-118776115D01*
X96792419Y-118776115D02*
X96792419Y-118395163D01*
X96792419Y-118395163D02*
X96840038Y-118299925D01*
X96840038Y-118299925D02*
X96887657Y-118252306D01*
X96887657Y-118252306D02*
X96982895Y-118204687D01*
X96982895Y-118204687D02*
X97125752Y-118204687D01*
X97125752Y-118204687D02*
X97220990Y-118252306D01*
X97220990Y-118252306D02*
X97268609Y-118299925D01*
X97268609Y-118299925D02*
X97316228Y-118395163D01*
X97316228Y-118395163D02*
X97316228Y-118776115D01*
X97792419Y-117776115D02*
X96792419Y-117776115D01*
X96792419Y-117776115D02*
X96792419Y-117538020D01*
X96792419Y-117538020D02*
X96840038Y-117395163D01*
X96840038Y-117395163D02*
X96935276Y-117299925D01*
X96935276Y-117299925D02*
X97030514Y-117252306D01*
X97030514Y-117252306D02*
X97220990Y-117204687D01*
X97220990Y-117204687D02*
X97363847Y-117204687D01*
X97363847Y-117204687D02*
X97554323Y-117252306D01*
X97554323Y-117252306D02*
X97649561Y-117299925D01*
X97649561Y-117299925D02*
X97744800Y-117395163D01*
X97744800Y-117395163D02*
X97792419Y-117538020D01*
X97792419Y-117538020D02*
X97792419Y-117776115D01*
X97316228Y-116585639D02*
X97792419Y-116585639D01*
X96792419Y-116918972D02*
X97316228Y-116585639D01*
X97316228Y-116585639D02*
X96792419Y-116252306D01*
X98744800Y-127823734D02*
X98792419Y-127680877D01*
X98792419Y-127680877D02*
X98792419Y-127442782D01*
X98792419Y-127442782D02*
X98744800Y-127347544D01*
X98744800Y-127347544D02*
X98697180Y-127299925D01*
X98697180Y-127299925D02*
X98601942Y-127252306D01*
X98601942Y-127252306D02*
X98506704Y-127252306D01*
X98506704Y-127252306D02*
X98411466Y-127299925D01*
X98411466Y-127299925D02*
X98363847Y-127347544D01*
X98363847Y-127347544D02*
X98316228Y-127442782D01*
X98316228Y-127442782D02*
X98268609Y-127633258D01*
X98268609Y-127633258D02*
X98220990Y-127728496D01*
X98220990Y-127728496D02*
X98173371Y-127776115D01*
X98173371Y-127776115D02*
X98078133Y-127823734D01*
X98078133Y-127823734D02*
X97982895Y-127823734D01*
X97982895Y-127823734D02*
X97887657Y-127776115D01*
X97887657Y-127776115D02*
X97840038Y-127728496D01*
X97840038Y-127728496D02*
X97792419Y-127633258D01*
X97792419Y-127633258D02*
X97792419Y-127395163D01*
X97792419Y-127395163D02*
X97840038Y-127252306D01*
X98697180Y-126252306D02*
X98744800Y-126299925D01*
X98744800Y-126299925D02*
X98792419Y-126442782D01*
X98792419Y-126442782D02*
X98792419Y-126538020D01*
X98792419Y-126538020D02*
X98744800Y-126680877D01*
X98744800Y-126680877D02*
X98649561Y-126776115D01*
X98649561Y-126776115D02*
X98554323Y-126823734D01*
X98554323Y-126823734D02*
X98363847Y-126871353D01*
X98363847Y-126871353D02*
X98220990Y-126871353D01*
X98220990Y-126871353D02*
X98030514Y-126823734D01*
X98030514Y-126823734D02*
X97935276Y-126776115D01*
X97935276Y-126776115D02*
X97840038Y-126680877D01*
X97840038Y-126680877D02*
X97792419Y-126538020D01*
X97792419Y-126538020D02*
X97792419Y-126442782D01*
X97792419Y-126442782D02*
X97840038Y-126299925D01*
X97840038Y-126299925D02*
X97887657Y-126252306D01*
X98792419Y-125347544D02*
X98792419Y-125823734D01*
X98792419Y-125823734D02*
X97792419Y-125823734D01*
X162261905Y-138457419D02*
X162261905Y-137457419D01*
X162261905Y-137457419D02*
X162642857Y-137457419D01*
X162642857Y-137457419D02*
X162738095Y-137505038D01*
X162738095Y-137505038D02*
X162785714Y-137552657D01*
X162785714Y-137552657D02*
X162833333Y-137647895D01*
X162833333Y-137647895D02*
X162833333Y-137790752D01*
X162833333Y-137790752D02*
X162785714Y-137885990D01*
X162785714Y-137885990D02*
X162738095Y-137933609D01*
X162738095Y-137933609D02*
X162642857Y-137981228D01*
X162642857Y-137981228D02*
X162261905Y-137981228D01*
X163785714Y-138457419D02*
X163214286Y-138457419D01*
X163500000Y-138457419D02*
X163500000Y-137457419D01*
X163500000Y-137457419D02*
X163404762Y-137600276D01*
X163404762Y-137600276D02*
X163309524Y-137695514D01*
X163309524Y-137695514D02*
X163214286Y-137743133D01*
X156920038Y-141172306D02*
X156872419Y-141267544D01*
X156872419Y-141267544D02*
X156872419Y-141410401D01*
X156872419Y-141410401D02*
X156920038Y-141553258D01*
X156920038Y-141553258D02*
X157015276Y-141648496D01*
X157015276Y-141648496D02*
X157110514Y-141696115D01*
X157110514Y-141696115D02*
X157300990Y-141743734D01*
X157300990Y-141743734D02*
X157443847Y-141743734D01*
X157443847Y-141743734D02*
X157634323Y-141696115D01*
X157634323Y-141696115D02*
X157729561Y-141648496D01*
X157729561Y-141648496D02*
X157824800Y-141553258D01*
X157824800Y-141553258D02*
X157872419Y-141410401D01*
X157872419Y-141410401D02*
X157872419Y-141315163D01*
X157872419Y-141315163D02*
X157824800Y-141172306D01*
X157824800Y-141172306D02*
X157777180Y-141124687D01*
X157777180Y-141124687D02*
X157443847Y-141124687D01*
X157443847Y-141124687D02*
X157443847Y-141315163D01*
X157872419Y-140696115D02*
X156872419Y-140696115D01*
X156872419Y-140696115D02*
X157872419Y-140124687D01*
X157872419Y-140124687D02*
X156872419Y-140124687D01*
X157872419Y-139648496D02*
X156872419Y-139648496D01*
X156872419Y-139648496D02*
X156872419Y-139410401D01*
X156872419Y-139410401D02*
X156920038Y-139267544D01*
X156920038Y-139267544D02*
X157015276Y-139172306D01*
X157015276Y-139172306D02*
X157110514Y-139124687D01*
X157110514Y-139124687D02*
X157300990Y-139077068D01*
X157300990Y-139077068D02*
X157443847Y-139077068D01*
X157443847Y-139077068D02*
X157634323Y-139124687D01*
X157634323Y-139124687D02*
X157729561Y-139172306D01*
X157729561Y-139172306D02*
X157824800Y-139267544D01*
X157824800Y-139267544D02*
X157872419Y-139410401D01*
X157872419Y-139410401D02*
X157872419Y-139648496D01*
X113761905Y-99457419D02*
X113761905Y-98457419D01*
X113761905Y-98457419D02*
X114142857Y-98457419D01*
X114142857Y-98457419D02*
X114238095Y-98505038D01*
X114238095Y-98505038D02*
X114285714Y-98552657D01*
X114285714Y-98552657D02*
X114333333Y-98647895D01*
X114333333Y-98647895D02*
X114333333Y-98790752D01*
X114333333Y-98790752D02*
X114285714Y-98885990D01*
X114285714Y-98885990D02*
X114238095Y-98933609D01*
X114238095Y-98933609D02*
X114142857Y-98981228D01*
X114142857Y-98981228D02*
X113761905Y-98981228D01*
X115238095Y-98457419D02*
X114761905Y-98457419D01*
X114761905Y-98457419D02*
X114714286Y-98933609D01*
X114714286Y-98933609D02*
X114761905Y-98885990D01*
X114761905Y-98885990D02*
X114857143Y-98838371D01*
X114857143Y-98838371D02*
X115095238Y-98838371D01*
X115095238Y-98838371D02*
X115190476Y-98885990D01*
X115190476Y-98885990D02*
X115238095Y-98933609D01*
X115238095Y-98933609D02*
X115285714Y-99028847D01*
X115285714Y-99028847D02*
X115285714Y-99266942D01*
X115285714Y-99266942D02*
X115238095Y-99362180D01*
X115238095Y-99362180D02*
X115190476Y-99409800D01*
X115190476Y-99409800D02*
X115095238Y-99457419D01*
X115095238Y-99457419D02*
X114857143Y-99457419D01*
X114857143Y-99457419D02*
X114761905Y-99409800D01*
X114761905Y-99409800D02*
X114714286Y-99362180D01*
X153130390Y-114476666D02*
X153082771Y-114619523D01*
X153082771Y-114619523D02*
X153035152Y-114667142D01*
X153035152Y-114667142D02*
X152939914Y-114714761D01*
X152939914Y-114714761D02*
X152797057Y-114714761D01*
X152797057Y-114714761D02*
X152701819Y-114667142D01*
X152701819Y-114667142D02*
X152654200Y-114619523D01*
X152654200Y-114619523D02*
X152606580Y-114524285D01*
X152606580Y-114524285D02*
X152606580Y-114143333D01*
X152606580Y-114143333D02*
X153606580Y-114143333D01*
X153606580Y-114143333D02*
X153606580Y-114476666D01*
X153606580Y-114476666D02*
X153558961Y-114571904D01*
X153558961Y-114571904D02*
X153511342Y-114619523D01*
X153511342Y-114619523D02*
X153416104Y-114667142D01*
X153416104Y-114667142D02*
X153320866Y-114667142D01*
X153320866Y-114667142D02*
X153225628Y-114619523D01*
X153225628Y-114619523D02*
X153178009Y-114571904D01*
X153178009Y-114571904D02*
X153130390Y-114476666D01*
X153130390Y-114476666D02*
X153130390Y-114143333D01*
X152606580Y-115143333D02*
X153606580Y-115143333D01*
X153606580Y-115143333D02*
X152892295Y-115476666D01*
X152892295Y-115476666D02*
X153606580Y-115809999D01*
X153606580Y-115809999D02*
X152606580Y-115809999D01*
X152606580Y-116286190D02*
X153606580Y-116286190D01*
X153606580Y-116286190D02*
X153606580Y-116667142D01*
X153606580Y-116667142D02*
X153558961Y-116762380D01*
X153558961Y-116762380D02*
X153511342Y-116809999D01*
X153511342Y-116809999D02*
X153416104Y-116857618D01*
X153416104Y-116857618D02*
X153273247Y-116857618D01*
X153273247Y-116857618D02*
X153178009Y-116809999D01*
X153178009Y-116809999D02*
X153130390Y-116762380D01*
X153130390Y-116762380D02*
X153082771Y-116667142D01*
X153082771Y-116667142D02*
X153082771Y-116286190D01*
X152606580Y-117809999D02*
X152606580Y-117238571D01*
X152606580Y-117524285D02*
X153606580Y-117524285D01*
X153606580Y-117524285D02*
X153463723Y-117429047D01*
X153463723Y-117429047D02*
X153368485Y-117333809D01*
X153368485Y-117333809D02*
X153320866Y-117238571D01*
X153178009Y-118381428D02*
X153225628Y-118286190D01*
X153225628Y-118286190D02*
X153273247Y-118238571D01*
X153273247Y-118238571D02*
X153368485Y-118190952D01*
X153368485Y-118190952D02*
X153416104Y-118190952D01*
X153416104Y-118190952D02*
X153511342Y-118238571D01*
X153511342Y-118238571D02*
X153558961Y-118286190D01*
X153558961Y-118286190D02*
X153606580Y-118381428D01*
X153606580Y-118381428D02*
X153606580Y-118571904D01*
X153606580Y-118571904D02*
X153558961Y-118667142D01*
X153558961Y-118667142D02*
X153511342Y-118714761D01*
X153511342Y-118714761D02*
X153416104Y-118762380D01*
X153416104Y-118762380D02*
X153368485Y-118762380D01*
X153368485Y-118762380D02*
X153273247Y-118714761D01*
X153273247Y-118714761D02*
X153225628Y-118667142D01*
X153225628Y-118667142D02*
X153178009Y-118571904D01*
X153178009Y-118571904D02*
X153178009Y-118381428D01*
X153178009Y-118381428D02*
X153130390Y-118286190D01*
X153130390Y-118286190D02*
X153082771Y-118238571D01*
X153082771Y-118238571D02*
X152987533Y-118190952D01*
X152987533Y-118190952D02*
X152797057Y-118190952D01*
X152797057Y-118190952D02*
X152701819Y-118238571D01*
X152701819Y-118238571D02*
X152654200Y-118286190D01*
X152654200Y-118286190D02*
X152606580Y-118381428D01*
X152606580Y-118381428D02*
X152606580Y-118571904D01*
X152606580Y-118571904D02*
X152654200Y-118667142D01*
X152654200Y-118667142D02*
X152701819Y-118714761D01*
X152701819Y-118714761D02*
X152797057Y-118762380D01*
X152797057Y-118762380D02*
X152987533Y-118762380D01*
X152987533Y-118762380D02*
X153082771Y-118714761D01*
X153082771Y-118714761D02*
X153130390Y-118667142D01*
X153130390Y-118667142D02*
X153178009Y-118571904D01*
X153606580Y-119381428D02*
X153606580Y-119476666D01*
X153606580Y-119476666D02*
X153558961Y-119571904D01*
X153558961Y-119571904D02*
X153511342Y-119619523D01*
X153511342Y-119619523D02*
X153416104Y-119667142D01*
X153416104Y-119667142D02*
X153225628Y-119714761D01*
X153225628Y-119714761D02*
X152987533Y-119714761D01*
X152987533Y-119714761D02*
X152797057Y-119667142D01*
X152797057Y-119667142D02*
X152701819Y-119619523D01*
X152701819Y-119619523D02*
X152654200Y-119571904D01*
X152654200Y-119571904D02*
X152606580Y-119476666D01*
X152606580Y-119476666D02*
X152606580Y-119381428D01*
X152606580Y-119381428D02*
X152654200Y-119286190D01*
X152654200Y-119286190D02*
X152701819Y-119238571D01*
X152701819Y-119238571D02*
X152797057Y-119190952D01*
X152797057Y-119190952D02*
X152987533Y-119143333D01*
X152987533Y-119143333D02*
X153225628Y-119143333D01*
X153225628Y-119143333D02*
X153416104Y-119190952D01*
X153416104Y-119190952D02*
X153511342Y-119238571D01*
X153511342Y-119238571D02*
X153558961Y-119286190D01*
X153558961Y-119286190D02*
X153606580Y-119381428D01*
X152511342Y-119905238D02*
X152511342Y-120667142D01*
X152606580Y-120905238D02*
X153606580Y-120905238D01*
X153606580Y-120905238D02*
X153606580Y-121286190D01*
X153606580Y-121286190D02*
X153558961Y-121381428D01*
X153558961Y-121381428D02*
X153511342Y-121429047D01*
X153511342Y-121429047D02*
X153416104Y-121476666D01*
X153416104Y-121476666D02*
X153273247Y-121476666D01*
X153273247Y-121476666D02*
X153178009Y-121429047D01*
X153178009Y-121429047D02*
X153130390Y-121381428D01*
X153130390Y-121381428D02*
X153082771Y-121286190D01*
X153082771Y-121286190D02*
X153082771Y-120905238D01*
X152606580Y-121905238D02*
X153273247Y-121905238D01*
X153082771Y-121905238D02*
X153178009Y-121952857D01*
X153178009Y-121952857D02*
X153225628Y-122000476D01*
X153225628Y-122000476D02*
X153273247Y-122095714D01*
X153273247Y-122095714D02*
X153273247Y-122190952D01*
X152654200Y-122905238D02*
X152606580Y-122810000D01*
X152606580Y-122810000D02*
X152606580Y-122619524D01*
X152606580Y-122619524D02*
X152654200Y-122524286D01*
X152654200Y-122524286D02*
X152749438Y-122476667D01*
X152749438Y-122476667D02*
X153130390Y-122476667D01*
X153130390Y-122476667D02*
X153225628Y-122524286D01*
X153225628Y-122524286D02*
X153273247Y-122619524D01*
X153273247Y-122619524D02*
X153273247Y-122810000D01*
X153273247Y-122810000D02*
X153225628Y-122905238D01*
X153225628Y-122905238D02*
X153130390Y-122952857D01*
X153130390Y-122952857D02*
X153035152Y-122952857D01*
X153035152Y-122952857D02*
X152939914Y-122476667D01*
X152654200Y-123333810D02*
X152606580Y-123429048D01*
X152606580Y-123429048D02*
X152606580Y-123619524D01*
X152606580Y-123619524D02*
X152654200Y-123714762D01*
X152654200Y-123714762D02*
X152749438Y-123762381D01*
X152749438Y-123762381D02*
X152797057Y-123762381D01*
X152797057Y-123762381D02*
X152892295Y-123714762D01*
X152892295Y-123714762D02*
X152939914Y-123619524D01*
X152939914Y-123619524D02*
X152939914Y-123476667D01*
X152939914Y-123476667D02*
X152987533Y-123381429D01*
X152987533Y-123381429D02*
X153082771Y-123333810D01*
X153082771Y-123333810D02*
X153130390Y-123333810D01*
X153130390Y-123333810D02*
X153225628Y-123381429D01*
X153225628Y-123381429D02*
X153273247Y-123476667D01*
X153273247Y-123476667D02*
X153273247Y-123619524D01*
X153273247Y-123619524D02*
X153225628Y-123714762D01*
X152654200Y-124143334D02*
X152606580Y-124238572D01*
X152606580Y-124238572D02*
X152606580Y-124429048D01*
X152606580Y-124429048D02*
X152654200Y-124524286D01*
X152654200Y-124524286D02*
X152749438Y-124571905D01*
X152749438Y-124571905D02*
X152797057Y-124571905D01*
X152797057Y-124571905D02*
X152892295Y-124524286D01*
X152892295Y-124524286D02*
X152939914Y-124429048D01*
X152939914Y-124429048D02*
X152939914Y-124286191D01*
X152939914Y-124286191D02*
X152987533Y-124190953D01*
X152987533Y-124190953D02*
X153082771Y-124143334D01*
X153082771Y-124143334D02*
X153130390Y-124143334D01*
X153130390Y-124143334D02*
X153225628Y-124190953D01*
X153225628Y-124190953D02*
X153273247Y-124286191D01*
X153273247Y-124286191D02*
X153273247Y-124429048D01*
X153273247Y-124429048D02*
X153225628Y-124524286D01*
X152606580Y-125524286D02*
X152606580Y-124952858D01*
X152606580Y-125238572D02*
X153606580Y-125238572D01*
X153606580Y-125238572D02*
X153463723Y-125143334D01*
X153463723Y-125143334D02*
X153368485Y-125048096D01*
X153368485Y-125048096D02*
X153320866Y-124952858D01*
X142753580Y-124971027D02*
X141753580Y-125304360D01*
X141753580Y-125304360D02*
X142753580Y-125637693D01*
X141753580Y-125971027D02*
X142753580Y-125971027D01*
X141753580Y-126447217D02*
X142753580Y-126447217D01*
X142753580Y-126447217D02*
X141753580Y-127018645D01*
X141753580Y-127018645D02*
X142753580Y-127018645D01*
X141801200Y-113066265D02*
X141753580Y-113209122D01*
X141753580Y-113209122D02*
X141753580Y-113447217D01*
X141753580Y-113447217D02*
X141801200Y-113542455D01*
X141801200Y-113542455D02*
X141848819Y-113590074D01*
X141848819Y-113590074D02*
X141944057Y-113637693D01*
X141944057Y-113637693D02*
X142039295Y-113637693D01*
X142039295Y-113637693D02*
X142134533Y-113590074D01*
X142134533Y-113590074D02*
X142182152Y-113542455D01*
X142182152Y-113542455D02*
X142229771Y-113447217D01*
X142229771Y-113447217D02*
X142277390Y-113256741D01*
X142277390Y-113256741D02*
X142325009Y-113161503D01*
X142325009Y-113161503D02*
X142372628Y-113113884D01*
X142372628Y-113113884D02*
X142467866Y-113066265D01*
X142467866Y-113066265D02*
X142563104Y-113066265D01*
X142563104Y-113066265D02*
X142658342Y-113113884D01*
X142658342Y-113113884D02*
X142705961Y-113161503D01*
X142705961Y-113161503D02*
X142753580Y-113256741D01*
X142753580Y-113256741D02*
X142753580Y-113494836D01*
X142753580Y-113494836D02*
X142705961Y-113637693D01*
X141753580Y-114066265D02*
X142753580Y-114066265D01*
X142753580Y-114066265D02*
X142753580Y-114304360D01*
X142753580Y-114304360D02*
X142705961Y-114447217D01*
X142705961Y-114447217D02*
X142610723Y-114542455D01*
X142610723Y-114542455D02*
X142515485Y-114590074D01*
X142515485Y-114590074D02*
X142325009Y-114637693D01*
X142325009Y-114637693D02*
X142182152Y-114637693D01*
X142182152Y-114637693D02*
X141991676Y-114590074D01*
X141991676Y-114590074D02*
X141896438Y-114542455D01*
X141896438Y-114542455D02*
X141801200Y-114447217D01*
X141801200Y-114447217D02*
X141753580Y-114304360D01*
X141753580Y-114304360D02*
X141753580Y-114066265D01*
X142039295Y-115018646D02*
X142039295Y-115494836D01*
X141753580Y-114923408D02*
X142753580Y-115256741D01*
X142753580Y-115256741D02*
X141753580Y-115590074D01*
X142705961Y-121637693D02*
X142753580Y-121542455D01*
X142753580Y-121542455D02*
X142753580Y-121399598D01*
X142753580Y-121399598D02*
X142705961Y-121256741D01*
X142705961Y-121256741D02*
X142610723Y-121161503D01*
X142610723Y-121161503D02*
X142515485Y-121113884D01*
X142515485Y-121113884D02*
X142325009Y-121066265D01*
X142325009Y-121066265D02*
X142182152Y-121066265D01*
X142182152Y-121066265D02*
X141991676Y-121113884D01*
X141991676Y-121113884D02*
X141896438Y-121161503D01*
X141896438Y-121161503D02*
X141801200Y-121256741D01*
X141801200Y-121256741D02*
X141753580Y-121399598D01*
X141753580Y-121399598D02*
X141753580Y-121494836D01*
X141753580Y-121494836D02*
X141801200Y-121637693D01*
X141801200Y-121637693D02*
X141848819Y-121685312D01*
X141848819Y-121685312D02*
X142182152Y-121685312D01*
X142182152Y-121685312D02*
X142182152Y-121494836D01*
X141753580Y-122113884D02*
X142753580Y-122113884D01*
X142753580Y-122113884D02*
X141753580Y-122685312D01*
X141753580Y-122685312D02*
X142753580Y-122685312D01*
X141753580Y-123161503D02*
X142753580Y-123161503D01*
X142753580Y-123161503D02*
X142753580Y-123399598D01*
X142753580Y-123399598D02*
X142705961Y-123542455D01*
X142705961Y-123542455D02*
X142610723Y-123637693D01*
X142610723Y-123637693D02*
X142515485Y-123685312D01*
X142515485Y-123685312D02*
X142325009Y-123732931D01*
X142325009Y-123732931D02*
X142182152Y-123732931D01*
X142182152Y-123732931D02*
X141991676Y-123685312D01*
X141991676Y-123685312D02*
X141896438Y-123637693D01*
X141896438Y-123637693D02*
X141801200Y-123542455D01*
X141801200Y-123542455D02*
X141753580Y-123399598D01*
X141753580Y-123399598D02*
X141753580Y-123161503D01*
X141801200Y-117066265D02*
X141753580Y-117209122D01*
X141753580Y-117209122D02*
X141753580Y-117447217D01*
X141753580Y-117447217D02*
X141801200Y-117542455D01*
X141801200Y-117542455D02*
X141848819Y-117590074D01*
X141848819Y-117590074D02*
X141944057Y-117637693D01*
X141944057Y-117637693D02*
X142039295Y-117637693D01*
X142039295Y-117637693D02*
X142134533Y-117590074D01*
X142134533Y-117590074D02*
X142182152Y-117542455D01*
X142182152Y-117542455D02*
X142229771Y-117447217D01*
X142229771Y-117447217D02*
X142277390Y-117256741D01*
X142277390Y-117256741D02*
X142325009Y-117161503D01*
X142325009Y-117161503D02*
X142372628Y-117113884D01*
X142372628Y-117113884D02*
X142467866Y-117066265D01*
X142467866Y-117066265D02*
X142563104Y-117066265D01*
X142563104Y-117066265D02*
X142658342Y-117113884D01*
X142658342Y-117113884D02*
X142705961Y-117161503D01*
X142705961Y-117161503D02*
X142753580Y-117256741D01*
X142753580Y-117256741D02*
X142753580Y-117494836D01*
X142753580Y-117494836D02*
X142705961Y-117637693D01*
X141848819Y-118637693D02*
X141801200Y-118590074D01*
X141801200Y-118590074D02*
X141753580Y-118447217D01*
X141753580Y-118447217D02*
X141753580Y-118351979D01*
X141753580Y-118351979D02*
X141801200Y-118209122D01*
X141801200Y-118209122D02*
X141896438Y-118113884D01*
X141896438Y-118113884D02*
X141991676Y-118066265D01*
X141991676Y-118066265D02*
X142182152Y-118018646D01*
X142182152Y-118018646D02*
X142325009Y-118018646D01*
X142325009Y-118018646D02*
X142515485Y-118066265D01*
X142515485Y-118066265D02*
X142610723Y-118113884D01*
X142610723Y-118113884D02*
X142705961Y-118209122D01*
X142705961Y-118209122D02*
X142753580Y-118351979D01*
X142753580Y-118351979D02*
X142753580Y-118447217D01*
X142753580Y-118447217D02*
X142705961Y-118590074D01*
X142705961Y-118590074D02*
X142658342Y-118637693D01*
X141753580Y-119542455D02*
X141753580Y-119066265D01*
X141753580Y-119066265D02*
X142753580Y-119066265D01*
X135261905Y-138457419D02*
X135261905Y-137457419D01*
X135261905Y-137457419D02*
X135642857Y-137457419D01*
X135642857Y-137457419D02*
X135738095Y-137505038D01*
X135738095Y-137505038D02*
X135785714Y-137552657D01*
X135785714Y-137552657D02*
X135833333Y-137647895D01*
X135833333Y-137647895D02*
X135833333Y-137790752D01*
X135833333Y-137790752D02*
X135785714Y-137885990D01*
X135785714Y-137885990D02*
X135738095Y-137933609D01*
X135738095Y-137933609D02*
X135642857Y-137981228D01*
X135642857Y-137981228D02*
X135261905Y-137981228D01*
X136166667Y-137457419D02*
X136785714Y-137457419D01*
X136785714Y-137457419D02*
X136452381Y-137838371D01*
X136452381Y-137838371D02*
X136595238Y-137838371D01*
X136595238Y-137838371D02*
X136690476Y-137885990D01*
X136690476Y-137885990D02*
X136738095Y-137933609D01*
X136738095Y-137933609D02*
X136785714Y-138028847D01*
X136785714Y-138028847D02*
X136785714Y-138266942D01*
X136785714Y-138266942D02*
X136738095Y-138362180D01*
X136738095Y-138362180D02*
X136690476Y-138409800D01*
X136690476Y-138409800D02*
X136595238Y-138457419D01*
X136595238Y-138457419D02*
X136309524Y-138457419D01*
X136309524Y-138457419D02*
X136214286Y-138409800D01*
X136214286Y-138409800D02*
X136166667Y-138362180D01*
X130460038Y-141172306D02*
X130412419Y-141267544D01*
X130412419Y-141267544D02*
X130412419Y-141410401D01*
X130412419Y-141410401D02*
X130460038Y-141553258D01*
X130460038Y-141553258D02*
X130555276Y-141648496D01*
X130555276Y-141648496D02*
X130650514Y-141696115D01*
X130650514Y-141696115D02*
X130840990Y-141743734D01*
X130840990Y-141743734D02*
X130983847Y-141743734D01*
X130983847Y-141743734D02*
X131174323Y-141696115D01*
X131174323Y-141696115D02*
X131269561Y-141648496D01*
X131269561Y-141648496D02*
X131364800Y-141553258D01*
X131364800Y-141553258D02*
X131412419Y-141410401D01*
X131412419Y-141410401D02*
X131412419Y-141315163D01*
X131412419Y-141315163D02*
X131364800Y-141172306D01*
X131364800Y-141172306D02*
X131317180Y-141124687D01*
X131317180Y-141124687D02*
X130983847Y-141124687D01*
X130983847Y-141124687D02*
X130983847Y-141315163D01*
X131412419Y-140696115D02*
X130412419Y-140696115D01*
X130412419Y-140696115D02*
X131412419Y-140124687D01*
X131412419Y-140124687D02*
X130412419Y-140124687D01*
X131412419Y-139648496D02*
X130412419Y-139648496D01*
X130412419Y-139648496D02*
X130412419Y-139410401D01*
X130412419Y-139410401D02*
X130460038Y-139267544D01*
X130460038Y-139267544D02*
X130555276Y-139172306D01*
X130555276Y-139172306D02*
X130650514Y-139124687D01*
X130650514Y-139124687D02*
X130840990Y-139077068D01*
X130840990Y-139077068D02*
X130983847Y-139077068D01*
X130983847Y-139077068D02*
X131174323Y-139124687D01*
X131174323Y-139124687D02*
X131269561Y-139172306D01*
X131269561Y-139172306D02*
X131364800Y-139267544D01*
X131364800Y-139267544D02*
X131412419Y-139410401D01*
X131412419Y-139410401D02*
X131412419Y-139648496D01*
%TO.C,Usb-C-charger1*%
X184000000Y-100000000D02*
X167000000Y-100000000D01*
X167000000Y-100000000D02*
X167000000Y-114000000D01*
X167000000Y-114000000D02*
X184000000Y-114000000D01*
X184000000Y-114000000D02*
X184000000Y-100000000D01*
X185000000Y-105000000D02*
X184000000Y-105000000D01*
X184000000Y-105000000D02*
X184000000Y-110000000D01*
X184000000Y-110000000D02*
X185000000Y-110000000D01*
X185000000Y-110000000D02*
X185000000Y-105000000D01*
D12*
%TO.C,R1*%
X102880000Y-139000000D02*
X103650000Y-139000000D01*
X103650000Y-137630000D02*
X103650000Y-140370000D01*
X103650000Y-140370000D02*
X110190000Y-140370000D01*
X110190000Y-137630000D02*
X103650000Y-137630000D01*
X110190000Y-140370000D02*
X110190000Y-137630000D01*
X110960000Y-139000000D02*
X110190000Y-139000000D01*
%TO.C,ESP32-2432S028_WROOM-32*%
D13*
X158188614Y-108275877D02*
X158212327Y-108290647D01*
X158238978Y-108312227D01*
X158238978Y-108633773D01*
X158238893Y-108727830D01*
X158238529Y-108801932D01*
X158237724Y-108858704D01*
X158236313Y-108900768D01*
X158234133Y-108930748D01*
X158231021Y-108951267D01*
X158226814Y-108964949D01*
X158221348Y-108974416D01*
X158217472Y-108979082D01*
X158186034Y-108999575D01*
X158150233Y-108998739D01*
X158118873Y-108981264D01*
X158092222Y-108959684D01*
X158092222Y-108312227D01*
X158118873Y-108290647D01*
X158144594Y-108274949D01*
X158165600Y-108269067D01*
X158188614Y-108275877D01*
G36*
X158188614Y-108275877D02*
G01*
X158212327Y-108290647D01*
X158238978Y-108312227D01*
X158238978Y-108633773D01*
X158238893Y-108727830D01*
X158238529Y-108801932D01*
X158237724Y-108858704D01*
X158236313Y-108900768D01*
X158234133Y-108930748D01*
X158231021Y-108951267D01*
X158226814Y-108964949D01*
X158221348Y-108974416D01*
X158217472Y-108979082D01*
X158186034Y-108999575D01*
X158150233Y-108998739D01*
X158118873Y-108981264D01*
X158092222Y-108959684D01*
X158092222Y-108312227D01*
X158118873Y-108290647D01*
X158144594Y-108274949D01*
X158165600Y-108269067D01*
X158188614Y-108275877D01*
G37*
X151076178Y-108291645D02*
X151082758Y-108299218D01*
X151087921Y-108308987D01*
X151091836Y-108323571D01*
X151094676Y-108345585D01*
X151096613Y-108377648D01*
X151097817Y-108422375D01*
X151098461Y-108482385D01*
X151098716Y-108560294D01*
X151098755Y-108635956D01*
X151098686Y-108729802D01*
X151098362Y-108803689D01*
X151097614Y-108860232D01*
X151096268Y-108902049D01*
X151094154Y-108931757D01*
X151091100Y-108951973D01*
X151086934Y-108965314D01*
X151081484Y-108974398D01*
X151076178Y-108980267D01*
X151043174Y-108999947D01*
X151008009Y-108998181D01*
X150976545Y-108976717D01*
X150969316Y-108968337D01*
X150963666Y-108958614D01*
X150959401Y-108944861D01*
X150956327Y-108924389D01*
X150954248Y-108894512D01*
X150952970Y-108852541D01*
X150952299Y-108795789D01*
X150952041Y-108721567D01*
X150952000Y-108637537D01*
X150952000Y-108324485D01*
X150979709Y-108296776D01*
X151013863Y-108273463D01*
X151046994Y-108272623D01*
X151076178Y-108291645D01*
G36*
X151076178Y-108291645D02*
G01*
X151082758Y-108299218D01*
X151087921Y-108308987D01*
X151091836Y-108323571D01*
X151094676Y-108345585D01*
X151096613Y-108377648D01*
X151097817Y-108422375D01*
X151098461Y-108482385D01*
X151098716Y-108560294D01*
X151098755Y-108635956D01*
X151098686Y-108729802D01*
X151098362Y-108803689D01*
X151097614Y-108860232D01*
X151096268Y-108902049D01*
X151094154Y-108931757D01*
X151091100Y-108951973D01*
X151086934Y-108965314D01*
X151081484Y-108974398D01*
X151076178Y-108980267D01*
X151043174Y-108999947D01*
X151008009Y-108998181D01*
X150976545Y-108976717D01*
X150969316Y-108968337D01*
X150963666Y-108958614D01*
X150959401Y-108944861D01*
X150956327Y-108924389D01*
X150954248Y-108894512D01*
X150952970Y-108852541D01*
X150952299Y-108795789D01*
X150952041Y-108721567D01*
X150952000Y-108637537D01*
X150952000Y-108324485D01*
X150979709Y-108296776D01*
X151013863Y-108273463D01*
X151046994Y-108272623D01*
X151076178Y-108291645D01*
G37*
X151726957Y-103026571D02*
X151823232Y-103050809D01*
X151909816Y-103093641D01*
X151984627Y-103153419D01*
X152045582Y-103228494D01*
X152090601Y-103317220D01*
X152116864Y-103413530D01*
X152122714Y-103510795D01*
X152107860Y-103604654D01*
X152074160Y-103692511D01*
X152023472Y-103771770D01*
X151957655Y-103839836D01*
X151878566Y-103894112D01*
X151788066Y-103932002D01*
X151736800Y-103944426D01*
X151692302Y-103951947D01*
X151658001Y-103954919D01*
X151625040Y-103953094D01*
X151584566Y-103946225D01*
X151551469Y-103939250D01*
X151458053Y-103907741D01*
X151374381Y-103856617D01*
X151302335Y-103787429D01*
X151243800Y-103701728D01*
X151229852Y-103674489D01*
X151213414Y-103638122D01*
X151203106Y-103607582D01*
X151197540Y-103575450D01*
X151195331Y-103534307D01*
X151195052Y-103488222D01*
X151199139Y-103403865D01*
X151212554Y-103334586D01*
X151237744Y-103273961D01*
X151277154Y-103215567D01*
X151315702Y-103171302D01*
X151387594Y-103105484D01*
X151462687Y-103060053D01*
X151545438Y-103032850D01*
X151623072Y-103022576D01*
X151726957Y-103026571D01*
G36*
X151726957Y-103026571D02*
G01*
X151823232Y-103050809D01*
X151909816Y-103093641D01*
X151984627Y-103153419D01*
X152045582Y-103228494D01*
X152090601Y-103317220D01*
X152116864Y-103413530D01*
X152122714Y-103510795D01*
X152107860Y-103604654D01*
X152074160Y-103692511D01*
X152023472Y-103771770D01*
X151957655Y-103839836D01*
X151878566Y-103894112D01*
X151788066Y-103932002D01*
X151736800Y-103944426D01*
X151692302Y-103951947D01*
X151658001Y-103954919D01*
X151625040Y-103953094D01*
X151584566Y-103946225D01*
X151551469Y-103939250D01*
X151458053Y-103907741D01*
X151374381Y-103856617D01*
X151302335Y-103787429D01*
X151243800Y-103701728D01*
X151229852Y-103674489D01*
X151213414Y-103638122D01*
X151203106Y-103607582D01*
X151197540Y-103575450D01*
X151195331Y-103534307D01*
X151195052Y-103488222D01*
X151199139Y-103403865D01*
X151212554Y-103334586D01*
X151237744Y-103273961D01*
X151277154Y-103215567D01*
X151315702Y-103171302D01*
X151387594Y-103105484D01*
X151462687Y-103060053D01*
X151545438Y-103032850D01*
X151623072Y-103022576D01*
X151726957Y-103026571D01*
G37*
X158963065Y-108269163D02*
X159041772Y-108269542D01*
X159102863Y-108270333D01*
X159148817Y-108271670D01*
X159182114Y-108273683D01*
X159205236Y-108276506D01*
X159220662Y-108280269D01*
X159230871Y-108285105D01*
X159235813Y-108288822D01*
X159261457Y-108321358D01*
X159264559Y-108355138D01*
X159248711Y-108385826D01*
X159238348Y-108398089D01*
X159227196Y-108406450D01*
X159211035Y-108411657D01*
X159185642Y-108414457D01*
X159146798Y-108415596D01*
X159090280Y-108415821D01*
X159079180Y-108415822D01*
X158933244Y-108415822D01*
X158933244Y-108686756D01*
X158933148Y-108772154D01*
X158932711Y-108837864D01*
X158931712Y-108886774D01*
X158929928Y-108921773D01*
X158927137Y-108945749D01*
X158923117Y-108961593D01*
X158917645Y-108972191D01*
X158910666Y-108980267D01*
X158877734Y-109000112D01*
X158843354Y-108998548D01*
X158812176Y-108975906D01*
X158809886Y-108973100D01*
X158802429Y-108962492D01*
X158796747Y-108950081D01*
X158792601Y-108932850D01*
X158789750Y-108907784D01*
X158787954Y-108871867D01*
X158786972Y-108822083D01*
X158786564Y-108755417D01*
X158786489Y-108679589D01*
X158786489Y-108415822D01*
X158647127Y-108415822D01*
X158587322Y-108415418D01*
X158545918Y-108413840D01*
X158518748Y-108410547D01*
X158501646Y-108404992D01*
X158490443Y-108396631D01*
X158489083Y-108395178D01*
X158472725Y-108361939D01*
X158474172Y-108324362D01*
X158492978Y-108291645D01*
X158500250Y-108285298D01*
X158509627Y-108280266D01*
X158523609Y-108276396D01*
X158544696Y-108273537D01*
X158575389Y-108271535D01*
X158618189Y-108270239D01*
X158675595Y-108269498D01*
X158750110Y-108269158D01*
X158844233Y-108269068D01*
X158864260Y-108269067D01*
X158963065Y-108269163D01*
G36*
X158963065Y-108269163D02*
G01*
X159041772Y-108269542D01*
X159102863Y-108270333D01*
X159148817Y-108271670D01*
X159182114Y-108273683D01*
X159205236Y-108276506D01*
X159220662Y-108280269D01*
X159230871Y-108285105D01*
X159235813Y-108288822D01*
X159261457Y-108321358D01*
X159264559Y-108355138D01*
X159248711Y-108385826D01*
X159238348Y-108398089D01*
X159227196Y-108406450D01*
X159211035Y-108411657D01*
X159185642Y-108414457D01*
X159146798Y-108415596D01*
X159090280Y-108415821D01*
X159079180Y-108415822D01*
X158933244Y-108415822D01*
X158933244Y-108686756D01*
X158933148Y-108772154D01*
X158932711Y-108837864D01*
X158931712Y-108886774D01*
X158929928Y-108921773D01*
X158927137Y-108945749D01*
X158923117Y-108961593D01*
X158917645Y-108972191D01*
X158910666Y-108980267D01*
X158877734Y-109000112D01*
X158843354Y-108998548D01*
X158812176Y-108975906D01*
X158809886Y-108973100D01*
X158802429Y-108962492D01*
X158796747Y-108950081D01*
X158792601Y-108932850D01*
X158789750Y-108907784D01*
X158787954Y-108871867D01*
X158786972Y-108822083D01*
X158786564Y-108755417D01*
X158786489Y-108679589D01*
X158786489Y-108415822D01*
X158647127Y-108415822D01*
X158587322Y-108415418D01*
X158545918Y-108413840D01*
X158518748Y-108410547D01*
X158501646Y-108404992D01*
X158490443Y-108396631D01*
X158489083Y-108395178D01*
X158472725Y-108361939D01*
X158474172Y-108324362D01*
X158492978Y-108291645D01*
X158500250Y-108285298D01*
X158509627Y-108280266D01*
X158523609Y-108276396D01*
X158544696Y-108273537D01*
X158575389Y-108271535D01*
X158618189Y-108270239D01*
X158675595Y-108269498D01*
X158750110Y-108269158D01*
X158844233Y-108269068D01*
X158864260Y-108269067D01*
X158963065Y-108269163D01*
G37*
X160228823Y-108274533D02*
X160260202Y-108296776D01*
X160287911Y-108324485D01*
X160287911Y-108633920D01*
X160287838Y-108725799D01*
X160287495Y-108797840D01*
X160286692Y-108852780D01*
X160285241Y-108893360D01*
X160282952Y-108922317D01*
X160279636Y-108942391D01*
X160275105Y-108956321D01*
X160269169Y-108966845D01*
X160264514Y-108973100D01*
X160233783Y-108997673D01*
X160198496Y-109000341D01*
X160166245Y-108985271D01*
X160155588Y-108976374D01*
X160148464Y-108964557D01*
X160144167Y-108945526D01*
X160141991Y-108914992D01*
X160141228Y-108868662D01*
X160141155Y-108832871D01*
X160141155Y-108698045D01*
X159644444Y-108698045D01*
X159644444Y-108820700D01*
X159643931Y-108876787D01*
X159641876Y-108915333D01*
X159637508Y-108941361D01*
X159630056Y-108959897D01*
X159621047Y-108973100D01*
X159590144Y-108997604D01*
X159555196Y-109000506D01*
X159521738Y-108983089D01*
X159512604Y-108973959D01*
X159506152Y-108961855D01*
X159501897Y-108943001D01*
X159499352Y-108913620D01*
X159498029Y-108869937D01*
X159497443Y-108808175D01*
X159497375Y-108794000D01*
X159496891Y-108677631D01*
X159496641Y-108581727D01*
X159496723Y-108504177D01*
X159497231Y-108442869D01*
X159498262Y-108395690D01*
X159499913Y-108360530D01*
X159502279Y-108335276D01*
X159505457Y-108317817D01*
X159509544Y-108306041D01*
X159514634Y-108297835D01*
X159520266Y-108291645D01*
X159552128Y-108271844D01*
X159585357Y-108274533D01*
X159616735Y-108296776D01*
X159629433Y-108311126D01*
X159637526Y-108326978D01*
X159642042Y-108349554D01*
X159644006Y-108384078D01*
X159644444Y-108435776D01*
X159644444Y-108551289D01*
X160141155Y-108551289D01*
X160141155Y-108432756D01*
X160141662Y-108378148D01*
X160143698Y-108341275D01*
X160148035Y-108317307D01*
X160155447Y-108301415D01*
X160163733Y-108291645D01*
X160195594Y-108271844D01*
X160228823Y-108274533D01*
G36*
X160228823Y-108274533D02*
G01*
X160260202Y-108296776D01*
X160287911Y-108324485D01*
X160287911Y-108633920D01*
X160287838Y-108725799D01*
X160287495Y-108797840D01*
X160286692Y-108852780D01*
X160285241Y-108893360D01*
X160282952Y-108922317D01*
X160279636Y-108942391D01*
X160275105Y-108956321D01*
X160269169Y-108966845D01*
X160264514Y-108973100D01*
X160233783Y-108997673D01*
X160198496Y-109000341D01*
X160166245Y-108985271D01*
X160155588Y-108976374D01*
X160148464Y-108964557D01*
X160144167Y-108945526D01*
X160141991Y-108914992D01*
X160141228Y-108868662D01*
X160141155Y-108832871D01*
X160141155Y-108698045D01*
X159644444Y-108698045D01*
X159644444Y-108820700D01*
X159643931Y-108876787D01*
X159641876Y-108915333D01*
X159637508Y-108941361D01*
X159630056Y-108959897D01*
X159621047Y-108973100D01*
X159590144Y-108997604D01*
X159555196Y-109000506D01*
X159521738Y-108983089D01*
X159512604Y-108973959D01*
X159506152Y-108961855D01*
X159501897Y-108943001D01*
X159499352Y-108913620D01*
X159498029Y-108869937D01*
X159497443Y-108808175D01*
X159497375Y-108794000D01*
X159496891Y-108677631D01*
X159496641Y-108581727D01*
X159496723Y-108504177D01*
X159497231Y-108442869D01*
X159498262Y-108395690D01*
X159499913Y-108360530D01*
X159502279Y-108335276D01*
X159505457Y-108317817D01*
X159509544Y-108306041D01*
X159514634Y-108297835D01*
X159520266Y-108291645D01*
X159552128Y-108271844D01*
X159585357Y-108274533D01*
X159616735Y-108296776D01*
X159629433Y-108311126D01*
X159637526Y-108326978D01*
X159642042Y-108349554D01*
X159644006Y-108384078D01*
X159644444Y-108435776D01*
X159644444Y-108551289D01*
X160141155Y-108551289D01*
X160141155Y-108432756D01*
X160141662Y-108378148D01*
X160143698Y-108341275D01*
X160148035Y-108317307D01*
X160155447Y-108301415D01*
X160163733Y-108291645D01*
X160195594Y-108271844D01*
X160228823Y-108274533D01*
G37*
X155018309Y-108269275D02*
X155147288Y-108273636D01*
X155256991Y-108286861D01*
X155349226Y-108309741D01*
X155425802Y-108343070D01*
X155488527Y-108387638D01*
X155539212Y-108444236D01*
X155579663Y-108513658D01*
X155580459Y-108515351D01*
X155604601Y-108577483D01*
X155613203Y-108632509D01*
X155606231Y-108687887D01*
X155583654Y-108751073D01*
X155579372Y-108760689D01*
X155550172Y-108816966D01*
X155517356Y-108860451D01*
X155475002Y-108897417D01*
X155417190Y-108934135D01*
X155413831Y-108936052D01*
X155363504Y-108960227D01*
X155306621Y-108978282D01*
X155239527Y-108990839D01*
X155158565Y-108998522D01*
X155060082Y-109001953D01*
X155025286Y-109002251D01*
X154859594Y-109002845D01*
X154836197Y-108973100D01*
X154829257Y-108963319D01*
X154823842Y-108951897D01*
X154819765Y-108936095D01*
X154816837Y-108913175D01*
X154814867Y-108880396D01*
X154814225Y-108856089D01*
X154970844Y-108856089D01*
X155064726Y-108856089D01*
X155119664Y-108854483D01*
X155176060Y-108850255D01*
X155222345Y-108844292D01*
X155225139Y-108843790D01*
X155307348Y-108821736D01*
X155371114Y-108788600D01*
X155418452Y-108742847D01*
X155451382Y-108682939D01*
X155457108Y-108667061D01*
X155462721Y-108642333D01*
X155460291Y-108617902D01*
X155448467Y-108585400D01*
X155441340Y-108569434D01*
X155418000Y-108527006D01*
X155389880Y-108497240D01*
X155358940Y-108476511D01*
X155296966Y-108449537D01*
X155217651Y-108429998D01*
X155125253Y-108418746D01*
X155058333Y-108416270D01*
X154970844Y-108415822D01*
X154970844Y-108856089D01*
X154814225Y-108856089D01*
X154813668Y-108835021D01*
X154813050Y-108774311D01*
X154812825Y-108695526D01*
X154812800Y-108633920D01*
X154812800Y-108324485D01*
X154840509Y-108296776D01*
X154852806Y-108285544D01*
X154866103Y-108277853D01*
X154884672Y-108273040D01*
X154912786Y-108270446D01*
X154954717Y-108269410D01*
X155014737Y-108269270D01*
X155018309Y-108269275D01*
G36*
X155018309Y-108269275D02*
G01*
X155147288Y-108273636D01*
X155256991Y-108286861D01*
X155349226Y-108309741D01*
X155425802Y-108343070D01*
X155488527Y-108387638D01*
X155539212Y-108444236D01*
X155579663Y-108513658D01*
X155580459Y-108515351D01*
X155604601Y-108577483D01*
X155613203Y-108632509D01*
X155606231Y-108687887D01*
X155583654Y-108751073D01*
X155579372Y-108760689D01*
X155550172Y-108816966D01*
X155517356Y-108860451D01*
X155475002Y-108897417D01*
X155417190Y-108934135D01*
X155413831Y-108936052D01*
X155363504Y-108960227D01*
X155306621Y-108978282D01*
X155239527Y-108990839D01*
X155158565Y-108998522D01*
X155060082Y-109001953D01*
X155025286Y-109002251D01*
X154859594Y-109002845D01*
X154836197Y-108973100D01*
X154829257Y-108963319D01*
X154823842Y-108951897D01*
X154819765Y-108936095D01*
X154816837Y-108913175D01*
X154814867Y-108880396D01*
X154814225Y-108856089D01*
X154970844Y-108856089D01*
X155064726Y-108856089D01*
X155119664Y-108854483D01*
X155176060Y-108850255D01*
X155222345Y-108844292D01*
X155225139Y-108843790D01*
X155307348Y-108821736D01*
X155371114Y-108788600D01*
X155418452Y-108742847D01*
X155451382Y-108682939D01*
X155457108Y-108667061D01*
X155462721Y-108642333D01*
X155460291Y-108617902D01*
X155448467Y-108585400D01*
X155441340Y-108569434D01*
X155418000Y-108527006D01*
X155389880Y-108497240D01*
X155358940Y-108476511D01*
X155296966Y-108449537D01*
X155217651Y-108429998D01*
X155125253Y-108418746D01*
X155058333Y-108416270D01*
X154970844Y-108415822D01*
X154970844Y-108856089D01*
X154814225Y-108856089D01*
X154813668Y-108835021D01*
X154813050Y-108774311D01*
X154812825Y-108695526D01*
X154812800Y-108633920D01*
X154812800Y-108324485D01*
X154840509Y-108296776D01*
X154852806Y-108285544D01*
X154866103Y-108277853D01*
X154884672Y-108273040D01*
X154912786Y-108270446D01*
X154954717Y-108269410D01*
X155014737Y-108269270D01*
X155018309Y-108269275D01*
G37*
X147878629Y-108269066D02*
X147918111Y-108269467D01*
X148033800Y-108272259D01*
X148130689Y-108280550D01*
X148212081Y-108295232D01*
X148281277Y-108317193D01*
X148341580Y-108347322D01*
X148396292Y-108386510D01*
X148415833Y-108403532D01*
X148448250Y-108443363D01*
X148477480Y-108497413D01*
X148500009Y-108557323D01*
X148512321Y-108614739D01*
X148513600Y-108635956D01*
X148505583Y-108694769D01*
X148484101Y-108759013D01*
X148453001Y-108819821D01*
X148416134Y-108868330D01*
X148410146Y-108874182D01*
X148359421Y-108915321D01*
X148303875Y-108947435D01*
X148240304Y-108971365D01*
X148165506Y-108987953D01*
X148076278Y-108998041D01*
X147969418Y-109002469D01*
X147920472Y-109002845D01*
X147858238Y-109002545D01*
X147814472Y-109001292D01*
X147785069Y-108998554D01*
X147765921Y-108993801D01*
X147752923Y-108986501D01*
X147745955Y-108980267D01*
X147739374Y-108972694D01*
X147734212Y-108962924D01*
X147730297Y-108948340D01*
X147727457Y-108926326D01*
X147725520Y-108894264D01*
X147724316Y-108849536D01*
X147723672Y-108789526D01*
X147723417Y-108711617D01*
X147723378Y-108635956D01*
X147723130Y-108535041D01*
X147723183Y-108454427D01*
X147724143Y-108415822D01*
X147870133Y-108415822D01*
X147870133Y-108856089D01*
X147963266Y-108856004D01*
X148019307Y-108854396D01*
X148078001Y-108850256D01*
X148126972Y-108844464D01*
X148128462Y-108844226D01*
X148207608Y-108825090D01*
X148268998Y-108795287D01*
X148315695Y-108752878D01*
X148345365Y-108706961D01*
X148363647Y-108656026D01*
X148362229Y-108608200D01*
X148341012Y-108556933D01*
X148299511Y-108503899D01*
X148242002Y-108464600D01*
X148167250Y-108438331D01*
X148117292Y-108429035D01*
X148060584Y-108422507D01*
X148000481Y-108417782D01*
X147949361Y-108415817D01*
X147946333Y-108415808D01*
X147870133Y-108415822D01*
X147724143Y-108415822D01*
X147724740Y-108391851D01*
X147729002Y-108345055D01*
X147737170Y-108311778D01*
X147750444Y-108289759D01*
X147770026Y-108276739D01*
X147797117Y-108270457D01*
X147832918Y-108268653D01*
X147878629Y-108269066D01*
G36*
X147878629Y-108269066D02*
G01*
X147918111Y-108269467D01*
X148033800Y-108272259D01*
X148130689Y-108280550D01*
X148212081Y-108295232D01*
X148281277Y-108317193D01*
X148341580Y-108347322D01*
X148396292Y-108386510D01*
X148415833Y-108403532D01*
X148448250Y-108443363D01*
X148477480Y-108497413D01*
X148500009Y-108557323D01*
X148512321Y-108614739D01*
X148513600Y-108635956D01*
X148505583Y-108694769D01*
X148484101Y-108759013D01*
X148453001Y-108819821D01*
X148416134Y-108868330D01*
X148410146Y-108874182D01*
X148359421Y-108915321D01*
X148303875Y-108947435D01*
X148240304Y-108971365D01*
X148165506Y-108987953D01*
X148076278Y-108998041D01*
X147969418Y-109002469D01*
X147920472Y-109002845D01*
X147858238Y-109002545D01*
X147814472Y-109001292D01*
X147785069Y-108998554D01*
X147765921Y-108993801D01*
X147752923Y-108986501D01*
X147745955Y-108980267D01*
X147739374Y-108972694D01*
X147734212Y-108962924D01*
X147730297Y-108948340D01*
X147727457Y-108926326D01*
X147725520Y-108894264D01*
X147724316Y-108849536D01*
X147723672Y-108789526D01*
X147723417Y-108711617D01*
X147723378Y-108635956D01*
X147723130Y-108535041D01*
X147723183Y-108454427D01*
X147724143Y-108415822D01*
X147870133Y-108415822D01*
X147870133Y-108856089D01*
X147963266Y-108856004D01*
X148019307Y-108854396D01*
X148078001Y-108850256D01*
X148126972Y-108844464D01*
X148128462Y-108844226D01*
X148207608Y-108825090D01*
X148268998Y-108795287D01*
X148315695Y-108752878D01*
X148345365Y-108706961D01*
X148363647Y-108656026D01*
X148362229Y-108608200D01*
X148341012Y-108556933D01*
X148299511Y-108503899D01*
X148242002Y-108464600D01*
X148167250Y-108438331D01*
X148117292Y-108429035D01*
X148060584Y-108422507D01*
X148000481Y-108417782D01*
X147949361Y-108415817D01*
X147946333Y-108415808D01*
X147870133Y-108415822D01*
X147724143Y-108415822D01*
X147724740Y-108391851D01*
X147729002Y-108345055D01*
X147737170Y-108311778D01*
X147750444Y-108289759D01*
X147770026Y-108276739D01*
X147797117Y-108270457D01*
X147832918Y-108268653D01*
X147878629Y-108269066D01*
G37*
X152699886Y-108273448D02*
X152723452Y-108287273D01*
X152754265Y-108309881D01*
X152793922Y-108342338D01*
X152844020Y-108385708D01*
X152906157Y-108441058D01*
X152981928Y-108509451D01*
X153068666Y-108588084D01*
X153249289Y-108751878D01*
X153254933Y-108532029D01*
X153256971Y-108456351D01*
X153258937Y-108399994D01*
X153261266Y-108359706D01*
X153264394Y-108332235D01*
X153268755Y-108314329D01*
X153274784Y-108302737D01*
X153282916Y-108294208D01*
X153287228Y-108290623D01*
X153321759Y-108271670D01*
X153354617Y-108274441D01*
X153380682Y-108290633D01*
X153407333Y-108312199D01*
X153410648Y-108627151D01*
X153411565Y-108719779D01*
X153412032Y-108792544D01*
X153411887Y-108848161D01*
X153410968Y-108889342D01*
X153409113Y-108918803D01*
X153406161Y-108939255D01*
X153401950Y-108953413D01*
X153396318Y-108963991D01*
X153390073Y-108972474D01*
X153376561Y-108988207D01*
X153363117Y-108998636D01*
X153347876Y-109002639D01*
X153328974Y-108999094D01*
X153304545Y-108986879D01*
X153272727Y-108964871D01*
X153231652Y-108931949D01*
X153179458Y-108886991D01*
X153114278Y-108828875D01*
X153040444Y-108762099D01*
X152775155Y-108521458D01*
X152769511Y-108740589D01*
X152767469Y-108816128D01*
X152765498Y-108872354D01*
X152763161Y-108912524D01*
X152760019Y-108939896D01*
X152755636Y-108957728D01*
X152749576Y-108969279D01*
X152741400Y-108977807D01*
X152737216Y-108981282D01*
X152700235Y-109000372D01*
X152665292Y-108997493D01*
X152634864Y-108973100D01*
X152627903Y-108963286D01*
X152622477Y-108951826D01*
X152618397Y-108935968D01*
X152615471Y-108912963D01*
X152613508Y-108880062D01*
X152612317Y-108834516D01*
X152611708Y-108773573D01*
X152611489Y-108694486D01*
X152611466Y-108635956D01*
X152611540Y-108544407D01*
X152611887Y-108472687D01*
X152612699Y-108418045D01*
X152614167Y-108377732D01*
X152616481Y-108348998D01*
X152619833Y-108329093D01*
X152624412Y-108315268D01*
X152630411Y-108304772D01*
X152634864Y-108298811D01*
X152646150Y-108284691D01*
X152656699Y-108274029D01*
X152668107Y-108267892D01*
X152681970Y-108267343D01*
X152699886Y-108273448D01*
G36*
X152699886Y-108273448D02*
G01*
X152723452Y-108287273D01*
X152754265Y-108309881D01*
X152793922Y-108342338D01*
X152844020Y-108385708D01*
X152906157Y-108441058D01*
X152981928Y-108509451D01*
X153068666Y-108588084D01*
X153249289Y-108751878D01*
X153254933Y-108532029D01*
X153256971Y-108456351D01*
X153258937Y-108399994D01*
X153261266Y-108359706D01*
X153264394Y-108332235D01*
X153268755Y-108314329D01*
X153274784Y-108302737D01*
X153282916Y-108294208D01*
X153287228Y-108290623D01*
X153321759Y-108271670D01*
X153354617Y-108274441D01*
X153380682Y-108290633D01*
X153407333Y-108312199D01*
X153410648Y-108627151D01*
X153411565Y-108719779D01*
X153412032Y-108792544D01*
X153411887Y-108848161D01*
X153410968Y-108889342D01*
X153409113Y-108918803D01*
X153406161Y-108939255D01*
X153401950Y-108953413D01*
X153396318Y-108963991D01*
X153390073Y-108972474D01*
X153376561Y-108988207D01*
X153363117Y-108998636D01*
X153347876Y-109002639D01*
X153328974Y-108999094D01*
X153304545Y-108986879D01*
X153272727Y-108964871D01*
X153231652Y-108931949D01*
X153179458Y-108886991D01*
X153114278Y-108828875D01*
X153040444Y-108762099D01*
X152775155Y-108521458D01*
X152769511Y-108740589D01*
X152767469Y-108816128D01*
X152765498Y-108872354D01*
X152763161Y-108912524D01*
X152760019Y-108939896D01*
X152755636Y-108957728D01*
X152749576Y-108969279D01*
X152741400Y-108977807D01*
X152737216Y-108981282D01*
X152700235Y-109000372D01*
X152665292Y-108997493D01*
X152634864Y-108973100D01*
X152627903Y-108963286D01*
X152622477Y-108951826D01*
X152618397Y-108935968D01*
X152615471Y-108912963D01*
X152613508Y-108880062D01*
X152612317Y-108834516D01*
X152611708Y-108773573D01*
X152611489Y-108694486D01*
X152611466Y-108635956D01*
X152611540Y-108544407D01*
X152611887Y-108472687D01*
X152612699Y-108418045D01*
X152614167Y-108377732D01*
X152616481Y-108348998D01*
X152619833Y-108329093D01*
X152624412Y-108315268D01*
X152630411Y-108304772D01*
X152634864Y-108298811D01*
X152646150Y-108284691D01*
X152656699Y-108274029D01*
X152668107Y-108267892D01*
X152681970Y-108267343D01*
X152699886Y-108273448D01*
G37*
X152049919Y-108274599D02*
X152118435Y-108286095D01*
X152171057Y-108303967D01*
X152205292Y-108327499D01*
X152214621Y-108340924D01*
X152224107Y-108372148D01*
X152217723Y-108400395D01*
X152197570Y-108427182D01*
X152166255Y-108439713D01*
X152120817Y-108438696D01*
X152085674Y-108431906D01*
X152007581Y-108418971D01*
X151927774Y-108417742D01*
X151838445Y-108428241D01*
X151813771Y-108432690D01*
X151730709Y-108456108D01*
X151665727Y-108490945D01*
X151619539Y-108536604D01*
X151592855Y-108592494D01*
X151587337Y-108621388D01*
X151590949Y-108680012D01*
X151614271Y-108731879D01*
X151655176Y-108775978D01*
X151711541Y-108811299D01*
X151781240Y-108836829D01*
X151862148Y-108851559D01*
X151952140Y-108854478D01*
X152049090Y-108844575D01*
X152054564Y-108843641D01*
X152093125Y-108836459D01*
X152114506Y-108829521D01*
X152123773Y-108819227D01*
X152125994Y-108801976D01*
X152126044Y-108792841D01*
X152126044Y-108754489D01*
X152057569Y-108754489D01*
X151997100Y-108750347D01*
X151955835Y-108737147D01*
X151931825Y-108713730D01*
X151923123Y-108678936D01*
X151923017Y-108674394D01*
X151928108Y-108644654D01*
X151945567Y-108623419D01*
X151978061Y-108609366D01*
X152028257Y-108601173D01*
X152076877Y-108598161D01*
X152147544Y-108596433D01*
X152198802Y-108599070D01*
X152233761Y-108608800D01*
X152255530Y-108628353D01*
X152267220Y-108660456D01*
X152271940Y-108707838D01*
X152272800Y-108770071D01*
X152271391Y-108839535D01*
X152267152Y-108886786D01*
X152260064Y-108912012D01*
X152258689Y-108913988D01*
X152219772Y-108945508D01*
X152162714Y-108970470D01*
X152091131Y-108988340D01*
X152008642Y-108998586D01*
X151918861Y-109000673D01*
X151825408Y-108994068D01*
X151770444Y-108985956D01*
X151684234Y-108961554D01*
X151604108Y-108921662D01*
X151537023Y-108869887D01*
X151526827Y-108859539D01*
X151493698Y-108816035D01*
X151463806Y-108762118D01*
X151440643Y-108705592D01*
X151427702Y-108654259D01*
X151426142Y-108634544D01*
X151432782Y-108593419D01*
X151450432Y-108542252D01*
X151475703Y-108488394D01*
X151505211Y-108439195D01*
X151531281Y-108406334D01*
X151592235Y-108357452D01*
X151671031Y-108318545D01*
X151764843Y-108290494D01*
X151870850Y-108274179D01*
X151968000Y-108270192D01*
X152049919Y-108274599D01*
G36*
X152049919Y-108274599D02*
G01*
X152118435Y-108286095D01*
X152171057Y-108303967D01*
X152205292Y-108327499D01*
X152214621Y-108340924D01*
X152224107Y-108372148D01*
X152217723Y-108400395D01*
X152197570Y-108427182D01*
X152166255Y-108439713D01*
X152120817Y-108438696D01*
X152085674Y-108431906D01*
X152007581Y-108418971D01*
X151927774Y-108417742D01*
X151838445Y-108428241D01*
X151813771Y-108432690D01*
X151730709Y-108456108D01*
X151665727Y-108490945D01*
X151619539Y-108536604D01*
X151592855Y-108592494D01*
X151587337Y-108621388D01*
X151590949Y-108680012D01*
X151614271Y-108731879D01*
X151655176Y-108775978D01*
X151711541Y-108811299D01*
X151781240Y-108836829D01*
X151862148Y-108851559D01*
X151952140Y-108854478D01*
X152049090Y-108844575D01*
X152054564Y-108843641D01*
X152093125Y-108836459D01*
X152114506Y-108829521D01*
X152123773Y-108819227D01*
X152125994Y-108801976D01*
X152126044Y-108792841D01*
X152126044Y-108754489D01*
X152057569Y-108754489D01*
X151997100Y-108750347D01*
X151955835Y-108737147D01*
X151931825Y-108713730D01*
X151923123Y-108678936D01*
X151923017Y-108674394D01*
X151928108Y-108644654D01*
X151945567Y-108623419D01*
X151978061Y-108609366D01*
X152028257Y-108601173D01*
X152076877Y-108598161D01*
X152147544Y-108596433D01*
X152198802Y-108599070D01*
X152233761Y-108608800D01*
X152255530Y-108628353D01*
X152267220Y-108660456D01*
X152271940Y-108707838D01*
X152272800Y-108770071D01*
X152271391Y-108839535D01*
X152267152Y-108886786D01*
X152260064Y-108912012D01*
X152258689Y-108913988D01*
X152219772Y-108945508D01*
X152162714Y-108970470D01*
X152091131Y-108988340D01*
X152008642Y-108998586D01*
X151918861Y-109000673D01*
X151825408Y-108994068D01*
X151770444Y-108985956D01*
X151684234Y-108961554D01*
X151604108Y-108921662D01*
X151537023Y-108869887D01*
X151526827Y-108859539D01*
X151493698Y-108816035D01*
X151463806Y-108762118D01*
X151440643Y-108705592D01*
X151427702Y-108654259D01*
X151426142Y-108634544D01*
X151432782Y-108593419D01*
X151450432Y-108542252D01*
X151475703Y-108488394D01*
X151505211Y-108439195D01*
X151531281Y-108406334D01*
X151592235Y-108357452D01*
X151671031Y-108318545D01*
X151764843Y-108290494D01*
X151870850Y-108274179D01*
X151968000Y-108270192D01*
X152049919Y-108274599D01*
G37*
X154230343Y-108269260D02*
X154306701Y-108270174D01*
X154365217Y-108272311D01*
X154408255Y-108276175D01*
X154438183Y-108282267D01*
X154457368Y-108291090D01*
X154468176Y-108303146D01*
X154472973Y-108318939D01*
X154474127Y-108338970D01*
X154474133Y-108341335D01*
X154473131Y-108363992D01*
X154468396Y-108381503D01*
X154457333Y-108394574D01*
X154437348Y-108403913D01*
X154405846Y-108410227D01*
X154360232Y-108414222D01*
X154297913Y-108416606D01*
X154216293Y-108418086D01*
X154191277Y-108418414D01*
X153949200Y-108421467D01*
X153945814Y-108486378D01*
X153942429Y-108551289D01*
X154110576Y-108551289D01*
X154176266Y-108551531D01*
X154223172Y-108552556D01*
X154255083Y-108554811D01*
X154275791Y-108558742D01*
X154289084Y-108564798D01*
X154298755Y-108573424D01*
X154298817Y-108573493D01*
X154316356Y-108607112D01*
X154315722Y-108643448D01*
X154297314Y-108674423D01*
X154293671Y-108677607D01*
X154280741Y-108685812D01*
X154263024Y-108691521D01*
X154236570Y-108695162D01*
X154197432Y-108697167D01*
X154141662Y-108697964D01*
X154105994Y-108698045D01*
X153943555Y-108698045D01*
X153943555Y-108856089D01*
X154190161Y-108856089D01*
X154271580Y-108856231D01*
X154333410Y-108856814D01*
X154378637Y-108858068D01*
X154410248Y-108860227D01*
X154431231Y-108863523D01*
X154444573Y-108868189D01*
X154453261Y-108874457D01*
X154455450Y-108876733D01*
X154471614Y-108908280D01*
X154472797Y-108944168D01*
X154459536Y-108975285D01*
X154449043Y-108985271D01*
X154438129Y-108990769D01*
X154421217Y-108995022D01*
X154395633Y-108998180D01*
X154358701Y-109000392D01*
X154307746Y-109001806D01*
X154240094Y-109002572D01*
X154153069Y-109002838D01*
X154133394Y-109002845D01*
X154044911Y-109002787D01*
X153976227Y-109002467D01*
X153924564Y-109001667D01*
X153887145Y-109000167D01*
X153861190Y-108997749D01*
X153843922Y-108994194D01*
X153832562Y-108989282D01*
X153824332Y-108982795D01*
X153819817Y-108978138D01*
X153813021Y-108969889D01*
X153807712Y-108959669D01*
X153803706Y-108944800D01*
X153800821Y-108922602D01*
X153798874Y-108890393D01*
X153797681Y-108845496D01*
X153797061Y-108785228D01*
X153796829Y-108706911D01*
X153796800Y-108640994D01*
X153796871Y-108548628D01*
X153797208Y-108476117D01*
X153797998Y-108420737D01*
X153799426Y-108379765D01*
X153801679Y-108350478D01*
X153804943Y-108330153D01*
X153809404Y-108316066D01*
X153815248Y-108305495D01*
X153820197Y-108298811D01*
X153843594Y-108269067D01*
X154133774Y-108269067D01*
X154230343Y-108269260D01*
G36*
X154230343Y-108269260D02*
G01*
X154306701Y-108270174D01*
X154365217Y-108272311D01*
X154408255Y-108276175D01*
X154438183Y-108282267D01*
X154457368Y-108291090D01*
X154468176Y-108303146D01*
X154472973Y-108318939D01*
X154474127Y-108338970D01*
X154474133Y-108341335D01*
X154473131Y-108363992D01*
X154468396Y-108381503D01*
X154457333Y-108394574D01*
X154437348Y-108403913D01*
X154405846Y-108410227D01*
X154360232Y-108414222D01*
X154297913Y-108416606D01*
X154216293Y-108418086D01*
X154191277Y-108418414D01*
X153949200Y-108421467D01*
X153945814Y-108486378D01*
X153942429Y-108551289D01*
X154110576Y-108551289D01*
X154176266Y-108551531D01*
X154223172Y-108552556D01*
X154255083Y-108554811D01*
X154275791Y-108558742D01*
X154289084Y-108564798D01*
X154298755Y-108573424D01*
X154298817Y-108573493D01*
X154316356Y-108607112D01*
X154315722Y-108643448D01*
X154297314Y-108674423D01*
X154293671Y-108677607D01*
X154280741Y-108685812D01*
X154263024Y-108691521D01*
X154236570Y-108695162D01*
X154197432Y-108697167D01*
X154141662Y-108697964D01*
X154105994Y-108698045D01*
X153943555Y-108698045D01*
X153943555Y-108856089D01*
X154190161Y-108856089D01*
X154271580Y-108856231D01*
X154333410Y-108856814D01*
X154378637Y-108858068D01*
X154410248Y-108860227D01*
X154431231Y-108863523D01*
X154444573Y-108868189D01*
X154453261Y-108874457D01*
X154455450Y-108876733D01*
X154471614Y-108908280D01*
X154472797Y-108944168D01*
X154459536Y-108975285D01*
X154449043Y-108985271D01*
X154438129Y-108990769D01*
X154421217Y-108995022D01*
X154395633Y-108998180D01*
X154358701Y-109000392D01*
X154307746Y-109001806D01*
X154240094Y-109002572D01*
X154153069Y-109002838D01*
X154133394Y-109002845D01*
X154044911Y-109002787D01*
X153976227Y-109002467D01*
X153924564Y-109001667D01*
X153887145Y-109000167D01*
X153861190Y-108997749D01*
X153843922Y-108994194D01*
X153832562Y-108989282D01*
X153824332Y-108982795D01*
X153819817Y-108978138D01*
X153813021Y-108969889D01*
X153807712Y-108959669D01*
X153803706Y-108944800D01*
X153800821Y-108922602D01*
X153798874Y-108890393D01*
X153797681Y-108845496D01*
X153797061Y-108785228D01*
X153796829Y-108706911D01*
X153796800Y-108640994D01*
X153796871Y-108548628D01*
X153797208Y-108476117D01*
X153797998Y-108420737D01*
X153799426Y-108379765D01*
X153801679Y-108350478D01*
X153804943Y-108330153D01*
X153809404Y-108316066D01*
X153815248Y-108305495D01*
X153820197Y-108298811D01*
X153843594Y-108269067D01*
X154133774Y-108269067D01*
X154230343Y-108269260D01*
G37*
X149287206Y-108269146D02*
X149356614Y-108269518D01*
X149409003Y-108270385D01*
X149447153Y-108271946D01*
X149473841Y-108274403D01*
X149491847Y-108277957D01*
X149503951Y-108282810D01*
X149512931Y-108289161D01*
X149516182Y-108292084D01*
X149535957Y-108323142D01*
X149539518Y-108358828D01*
X149526509Y-108390510D01*
X149520494Y-108396913D01*
X149510765Y-108403121D01*
X149495099Y-108407910D01*
X149470592Y-108411514D01*
X149434339Y-108414164D01*
X149383435Y-108416095D01*
X149314974Y-108417539D01*
X149252383Y-108418418D01*
X149004666Y-108421467D01*
X149001281Y-108486378D01*
X148997895Y-108551289D01*
X149166042Y-108551289D01*
X149239041Y-108551919D01*
X149292483Y-108554553D01*
X149329372Y-108560309D01*
X149352712Y-108570304D01*
X149365506Y-108585656D01*
X149370758Y-108607482D01*
X149371555Y-108627738D01*
X149369077Y-108652592D01*
X149359723Y-108670906D01*
X149340617Y-108683637D01*
X149308882Y-108691741D01*
X149261641Y-108696176D01*
X149196017Y-108697899D01*
X149160199Y-108698045D01*
X148999022Y-108698045D01*
X148999022Y-108856089D01*
X149247378Y-108856089D01*
X149328787Y-108856202D01*
X149390658Y-108856712D01*
X149436032Y-108857870D01*
X149467946Y-108859930D01*
X149489441Y-108863146D01*
X149503557Y-108867772D01*
X149513332Y-108874059D01*
X149518311Y-108878667D01*
X149535390Y-108905560D01*
X149540889Y-108929467D01*
X149533037Y-108958667D01*
X149518311Y-108980267D01*
X149510454Y-108987066D01*
X149500312Y-108992346D01*
X149485156Y-108996298D01*
X149462259Y-108999113D01*
X149428891Y-109000982D01*
X149382325Y-109002098D01*
X149319833Y-109002651D01*
X149238686Y-109002833D01*
X149196578Y-109002845D01*
X149106402Y-109002765D01*
X149036076Y-109002398D01*
X148982871Y-109001552D01*
X148944060Y-109000036D01*
X148916913Y-108997659D01*
X148898702Y-108994229D01*
X148886700Y-108989554D01*
X148878178Y-108983444D01*
X148874844Y-108980267D01*
X148868245Y-108972670D01*
X148863073Y-108962870D01*
X148859154Y-108948239D01*
X148856316Y-108926152D01*
X148854385Y-108893982D01*
X148853188Y-108849103D01*
X148852552Y-108788889D01*
X148852303Y-108710713D01*
X148852266Y-108637923D01*
X148852300Y-108544707D01*
X148852535Y-108471431D01*
X148853170Y-108415458D01*
X148854406Y-108374151D01*
X148856444Y-108344872D01*
X148859483Y-108324984D01*
X148863723Y-108311850D01*
X148869365Y-108302832D01*
X148876609Y-108295293D01*
X148878394Y-108293612D01*
X148887055Y-108286172D01*
X148897118Y-108280409D01*
X148911375Y-108276112D01*
X148932617Y-108273064D01*
X148963636Y-108271051D01*
X149007223Y-108269860D01*
X149066169Y-108269275D01*
X149143266Y-108269083D01*
X149197999Y-108269067D01*
X149287206Y-108269146D01*
G36*
X149287206Y-108269146D02*
G01*
X149356614Y-108269518D01*
X149409003Y-108270385D01*
X149447153Y-108271946D01*
X149473841Y-108274403D01*
X149491847Y-108277957D01*
X149503951Y-108282810D01*
X149512931Y-108289161D01*
X149516182Y-108292084D01*
X149535957Y-108323142D01*
X149539518Y-108358828D01*
X149526509Y-108390510D01*
X149520494Y-108396913D01*
X149510765Y-108403121D01*
X149495099Y-108407910D01*
X149470592Y-108411514D01*
X149434339Y-108414164D01*
X149383435Y-108416095D01*
X149314974Y-108417539D01*
X149252383Y-108418418D01*
X149004666Y-108421467D01*
X149001281Y-108486378D01*
X148997895Y-108551289D01*
X149166042Y-108551289D01*
X149239041Y-108551919D01*
X149292483Y-108554553D01*
X149329372Y-108560309D01*
X149352712Y-108570304D01*
X149365506Y-108585656D01*
X149370758Y-108607482D01*
X149371555Y-108627738D01*
X149369077Y-108652592D01*
X149359723Y-108670906D01*
X149340617Y-108683637D01*
X149308882Y-108691741D01*
X149261641Y-108696176D01*
X149196017Y-108697899D01*
X149160199Y-108698045D01*
X148999022Y-108698045D01*
X148999022Y-108856089D01*
X149247378Y-108856089D01*
X149328787Y-108856202D01*
X149390658Y-108856712D01*
X149436032Y-108857870D01*
X149467946Y-108859930D01*
X149489441Y-108863146D01*
X149503557Y-108867772D01*
X149513332Y-108874059D01*
X149518311Y-108878667D01*
X149535390Y-108905560D01*
X149540889Y-108929467D01*
X149533037Y-108958667D01*
X149518311Y-108980267D01*
X149510454Y-108987066D01*
X149500312Y-108992346D01*
X149485156Y-108996298D01*
X149462259Y-108999113D01*
X149428891Y-109000982D01*
X149382325Y-109002098D01*
X149319833Y-109002651D01*
X149238686Y-109002833D01*
X149196578Y-109002845D01*
X149106402Y-109002765D01*
X149036076Y-109002398D01*
X148982871Y-109001552D01*
X148944060Y-109000036D01*
X148916913Y-108997659D01*
X148898702Y-108994229D01*
X148886700Y-108989554D01*
X148878178Y-108983444D01*
X148874844Y-108980267D01*
X148868245Y-108972670D01*
X148863073Y-108962870D01*
X148859154Y-108948239D01*
X148856316Y-108926152D01*
X148854385Y-108893982D01*
X148853188Y-108849103D01*
X148852552Y-108788889D01*
X148852303Y-108710713D01*
X148852266Y-108637923D01*
X148852300Y-108544707D01*
X148852535Y-108471431D01*
X148853170Y-108415458D01*
X148854406Y-108374151D01*
X148856444Y-108344872D01*
X148859483Y-108324984D01*
X148863723Y-108311850D01*
X148869365Y-108302832D01*
X148876609Y-108295293D01*
X148878394Y-108293612D01*
X148887055Y-108286172D01*
X148897118Y-108280409D01*
X148911375Y-108276112D01*
X148932617Y-108273064D01*
X148963636Y-108271051D01*
X149007223Y-108269860D01*
X149066169Y-108269275D01*
X149143266Y-108269083D01*
X149197999Y-108269067D01*
X149287206Y-108269146D01*
G37*
X157744665Y-108271034D02*
X157764255Y-108278035D01*
X157765010Y-108278377D01*
X157791613Y-108298678D01*
X157806270Y-108319561D01*
X157809138Y-108329352D01*
X157808996Y-108342361D01*
X157804961Y-108360895D01*
X157796146Y-108387257D01*
X157781669Y-108423752D01*
X157760645Y-108472687D01*
X157732188Y-108536365D01*
X157695415Y-108617093D01*
X157675175Y-108661216D01*
X157638625Y-108739985D01*
X157604315Y-108812423D01*
X157573552Y-108875880D01*
X157547648Y-108927708D01*
X157527910Y-108965259D01*
X157515650Y-108985884D01*
X157513224Y-108988733D01*
X157482183Y-109001302D01*
X157447121Y-108999619D01*
X157419000Y-108984332D01*
X157417854Y-108983089D01*
X157406668Y-108966154D01*
X157387904Y-108933170D01*
X157363875Y-108888380D01*
X157336897Y-108836032D01*
X157327201Y-108816742D01*
X157254014Y-108670150D01*
X157174240Y-108829393D01*
X157145767Y-108884415D01*
X157119350Y-108932132D01*
X157097148Y-108968893D01*
X157081319Y-108991044D01*
X157075954Y-108995741D01*
X157034257Y-109002102D01*
X156999849Y-108988733D01*
X156989728Y-108974446D01*
X156972214Y-108942692D01*
X156948735Y-108896597D01*
X156920720Y-108839285D01*
X156889599Y-108773880D01*
X156856799Y-108703507D01*
X156823750Y-108631291D01*
X156791881Y-108560355D01*
X156762619Y-108493825D01*
X156737395Y-108434826D01*
X156717636Y-108386481D01*
X156704772Y-108351915D01*
X156700231Y-108334253D01*
X156700277Y-108333613D01*
X156711326Y-108311388D01*
X156733410Y-108288753D01*
X156734710Y-108287768D01*
X156761853Y-108272425D01*
X156786958Y-108272574D01*
X156796368Y-108275466D01*
X156807834Y-108281718D01*
X156820010Y-108294014D01*
X156834357Y-108314908D01*
X156852336Y-108346949D01*
X156875407Y-108392688D01*
X156905030Y-108454677D01*
X156931745Y-108511898D01*
X156962480Y-108578226D01*
X156990021Y-108637874D01*
X157012938Y-108687725D01*
X157029798Y-108724664D01*
X157039173Y-108745573D01*
X157040540Y-108748845D01*
X157046689Y-108743497D01*
X157060822Y-108721109D01*
X157081057Y-108684946D01*
X157105515Y-108638277D01*
X157115248Y-108619022D01*
X157148217Y-108554004D01*
X157173643Y-108506654D01*
X157193612Y-108474219D01*
X157210210Y-108453946D01*
X157225524Y-108443082D01*
X157241640Y-108438875D01*
X157252143Y-108438400D01*
X157270670Y-108440042D01*
X157286904Y-108446831D01*
X157303035Y-108461566D01*
X157321251Y-108487044D01*
X157343739Y-108526061D01*
X157372689Y-108581414D01*
X157388662Y-108612903D01*
X157414570Y-108663087D01*
X157437167Y-108704704D01*
X157454458Y-108734242D01*
X157464450Y-108748189D01*
X157465809Y-108748770D01*
X157472261Y-108737793D01*
X157486708Y-108709290D01*
X157507703Y-108666244D01*
X157533797Y-108611638D01*
X157563546Y-108548454D01*
X157578180Y-108517071D01*
X157616250Y-108436078D01*
X157646905Y-108373756D01*
X157671737Y-108328071D01*
X157692337Y-108296989D01*
X157710298Y-108278478D01*
X157727210Y-108270504D01*
X157744665Y-108271034D01*
G36*
X157744665Y-108271034D02*
G01*
X157764255Y-108278035D01*
X157765010Y-108278377D01*
X157791613Y-108298678D01*
X157806270Y-108319561D01*
X157809138Y-108329352D01*
X157808996Y-108342361D01*
X157804961Y-108360895D01*
X157796146Y-108387257D01*
X157781669Y-108423752D01*
X157760645Y-108472687D01*
X157732188Y-108536365D01*
X157695415Y-108617093D01*
X157675175Y-108661216D01*
X157638625Y-108739985D01*
X157604315Y-108812423D01*
X157573552Y-108875880D01*
X157547648Y-108927708D01*
X157527910Y-108965259D01*
X157515650Y-108985884D01*
X157513224Y-108988733D01*
X157482183Y-109001302D01*
X157447121Y-108999619D01*
X157419000Y-108984332D01*
X157417854Y-108983089D01*
X157406668Y-108966154D01*
X157387904Y-108933170D01*
X157363875Y-108888380D01*
X157336897Y-108836032D01*
X157327201Y-108816742D01*
X157254014Y-108670150D01*
X157174240Y-108829393D01*
X157145767Y-108884415D01*
X157119350Y-108932132D01*
X157097148Y-108968893D01*
X157081319Y-108991044D01*
X157075954Y-108995741D01*
X157034257Y-109002102D01*
X156999849Y-108988733D01*
X156989728Y-108974446D01*
X156972214Y-108942692D01*
X156948735Y-108896597D01*
X156920720Y-108839285D01*
X156889599Y-108773880D01*
X156856799Y-108703507D01*
X156823750Y-108631291D01*
X156791881Y-108560355D01*
X156762619Y-108493825D01*
X156737395Y-108434826D01*
X156717636Y-108386481D01*
X156704772Y-108351915D01*
X156700231Y-108334253D01*
X156700277Y-108333613D01*
X156711326Y-108311388D01*
X156733410Y-108288753D01*
X156734710Y-108287768D01*
X156761853Y-108272425D01*
X156786958Y-108272574D01*
X156796368Y-108275466D01*
X156807834Y-108281718D01*
X156820010Y-108294014D01*
X156834357Y-108314908D01*
X156852336Y-108346949D01*
X156875407Y-108392688D01*
X156905030Y-108454677D01*
X156931745Y-108511898D01*
X156962480Y-108578226D01*
X156990021Y-108637874D01*
X157012938Y-108687725D01*
X157029798Y-108724664D01*
X157039173Y-108745573D01*
X157040540Y-108748845D01*
X157046689Y-108743497D01*
X157060822Y-108721109D01*
X157081057Y-108684946D01*
X157105515Y-108638277D01*
X157115248Y-108619022D01*
X157148217Y-108554004D01*
X157173643Y-108506654D01*
X157193612Y-108474219D01*
X157210210Y-108453946D01*
X157225524Y-108443082D01*
X157241640Y-108438875D01*
X157252143Y-108438400D01*
X157270670Y-108440042D01*
X157286904Y-108446831D01*
X157303035Y-108461566D01*
X157321251Y-108487044D01*
X157343739Y-108526061D01*
X157372689Y-108581414D01*
X157388662Y-108612903D01*
X157414570Y-108663087D01*
X157437167Y-108704704D01*
X157454458Y-108734242D01*
X157464450Y-108748189D01*
X157465809Y-108748770D01*
X157472261Y-108737793D01*
X157486708Y-108709290D01*
X157507703Y-108666244D01*
X157533797Y-108611638D01*
X157563546Y-108548454D01*
X157578180Y-108517071D01*
X157616250Y-108436078D01*
X157646905Y-108373756D01*
X157671737Y-108328071D01*
X157692337Y-108296989D01*
X157710298Y-108278478D01*
X157727210Y-108270504D01*
X157744665Y-108271034D01*
G37*
X150308297Y-108270351D02*
X150383112Y-108275581D01*
X150452694Y-108283750D01*
X150512998Y-108294550D01*
X150559980Y-108307673D01*
X150589594Y-108322813D01*
X150594140Y-108327269D01*
X150609946Y-108361850D01*
X150605153Y-108397351D01*
X150580636Y-108427725D01*
X150579466Y-108428596D01*
X150565046Y-108437954D01*
X150549992Y-108442876D01*
X150528995Y-108443473D01*
X150496743Y-108439861D01*
X150447927Y-108432154D01*
X150444000Y-108431505D01*
X150371261Y-108422569D01*
X150292783Y-108418161D01*
X150214073Y-108418119D01*
X150140639Y-108422279D01*
X150077989Y-108430479D01*
X150031630Y-108442557D01*
X150028584Y-108443771D01*
X149994952Y-108462615D01*
X149983136Y-108481685D01*
X149992386Y-108500439D01*
X150021953Y-108518337D01*
X150071089Y-108534837D01*
X150139043Y-108549396D01*
X150184355Y-108556406D01*
X150278544Y-108569889D01*
X150353456Y-108582214D01*
X150412283Y-108594449D01*
X150458215Y-108607661D01*
X150494445Y-108622917D01*
X150524162Y-108641285D01*
X150550558Y-108663831D01*
X150571770Y-108685971D01*
X150596935Y-108716819D01*
X150609319Y-108743345D01*
X150613192Y-108776026D01*
X150613333Y-108787995D01*
X150610424Y-108827712D01*
X150598798Y-108857259D01*
X150578677Y-108883486D01*
X150537784Y-108923576D01*
X150492183Y-108954149D01*
X150438487Y-108976203D01*
X150373308Y-108990735D01*
X150293256Y-108998741D01*
X150194943Y-109001218D01*
X150178711Y-109001177D01*
X150113151Y-108999818D01*
X150048134Y-108996730D01*
X149990748Y-108992356D01*
X149948078Y-108987140D01*
X149944628Y-108986541D01*
X149902204Y-108976491D01*
X149866220Y-108963796D01*
X149845850Y-108952190D01*
X149826893Y-108921572D01*
X149825573Y-108885918D01*
X149841915Y-108854144D01*
X149845571Y-108850551D01*
X149860685Y-108839876D01*
X149879585Y-108835276D01*
X149908838Y-108836059D01*
X149944349Y-108840127D01*
X149984030Y-108843762D01*
X150039655Y-108846828D01*
X150104594Y-108849053D01*
X150172215Y-108850164D01*
X150190000Y-108850237D01*
X150257872Y-108849964D01*
X150307546Y-108848646D01*
X150343390Y-108845827D01*
X150369776Y-108841050D01*
X150391074Y-108833857D01*
X150403874Y-108827867D01*
X150432000Y-108811233D01*
X150449932Y-108796168D01*
X150452553Y-108791897D01*
X150447024Y-108774263D01*
X150420740Y-108757192D01*
X150375522Y-108741458D01*
X150313192Y-108727838D01*
X150294829Y-108724804D01*
X150198910Y-108709738D01*
X150122359Y-108697146D01*
X150062220Y-108686111D01*
X150015540Y-108675720D01*
X149979363Y-108665056D01*
X149950735Y-108653205D01*
X149926702Y-108639251D01*
X149904308Y-108622281D01*
X149880598Y-108601378D01*
X149872620Y-108594049D01*
X149844647Y-108566699D01*
X149829840Y-108545029D01*
X149824048Y-108520232D01*
X149823111Y-108488983D01*
X149833425Y-108427705D01*
X149864248Y-108375640D01*
X149915405Y-108332958D01*
X149986717Y-108299825D01*
X150037600Y-108284964D01*
X150092900Y-108275366D01*
X150159147Y-108269936D01*
X150232294Y-108268367D01*
X150308297Y-108270351D01*
G36*
X150308297Y-108270351D02*
G01*
X150383112Y-108275581D01*
X150452694Y-108283750D01*
X150512998Y-108294550D01*
X150559980Y-108307673D01*
X150589594Y-108322813D01*
X150594140Y-108327269D01*
X150609946Y-108361850D01*
X150605153Y-108397351D01*
X150580636Y-108427725D01*
X150579466Y-108428596D01*
X150565046Y-108437954D01*
X150549992Y-108442876D01*
X150528995Y-108443473D01*
X150496743Y-108439861D01*
X150447927Y-108432154D01*
X150444000Y-108431505D01*
X150371261Y-108422569D01*
X150292783Y-108418161D01*
X150214073Y-108418119D01*
X150140639Y-108422279D01*
X150077989Y-108430479D01*
X150031630Y-108442557D01*
X150028584Y-108443771D01*
X149994952Y-108462615D01*
X149983136Y-108481685D01*
X149992386Y-108500439D01*
X150021953Y-108518337D01*
X150071089Y-108534837D01*
X150139043Y-108549396D01*
X150184355Y-108556406D01*
X150278544Y-108569889D01*
X150353456Y-108582214D01*
X150412283Y-108594449D01*
X150458215Y-108607661D01*
X150494445Y-108622917D01*
X150524162Y-108641285D01*
X150550558Y-108663831D01*
X150571770Y-108685971D01*
X150596935Y-108716819D01*
X150609319Y-108743345D01*
X150613192Y-108776026D01*
X150613333Y-108787995D01*
X150610424Y-108827712D01*
X150598798Y-108857259D01*
X150578677Y-108883486D01*
X150537784Y-108923576D01*
X150492183Y-108954149D01*
X150438487Y-108976203D01*
X150373308Y-108990735D01*
X150293256Y-108998741D01*
X150194943Y-109001218D01*
X150178711Y-109001177D01*
X150113151Y-108999818D01*
X150048134Y-108996730D01*
X149990748Y-108992356D01*
X149948078Y-108987140D01*
X149944628Y-108986541D01*
X149902204Y-108976491D01*
X149866220Y-108963796D01*
X149845850Y-108952190D01*
X149826893Y-108921572D01*
X149825573Y-108885918D01*
X149841915Y-108854144D01*
X149845571Y-108850551D01*
X149860685Y-108839876D01*
X149879585Y-108835276D01*
X149908838Y-108836059D01*
X149944349Y-108840127D01*
X149984030Y-108843762D01*
X150039655Y-108846828D01*
X150104594Y-108849053D01*
X150172215Y-108850164D01*
X150190000Y-108850237D01*
X150257872Y-108849964D01*
X150307546Y-108848646D01*
X150343390Y-108845827D01*
X150369776Y-108841050D01*
X150391074Y-108833857D01*
X150403874Y-108827867D01*
X150432000Y-108811233D01*
X150449932Y-108796168D01*
X150452553Y-108791897D01*
X150447024Y-108774263D01*
X150420740Y-108757192D01*
X150375522Y-108741458D01*
X150313192Y-108727838D01*
X150294829Y-108724804D01*
X150198910Y-108709738D01*
X150122359Y-108697146D01*
X150062220Y-108686111D01*
X150015540Y-108675720D01*
X149979363Y-108665056D01*
X149950735Y-108653205D01*
X149926702Y-108639251D01*
X149904308Y-108622281D01*
X149880598Y-108601378D01*
X149872620Y-108594049D01*
X149844647Y-108566699D01*
X149829840Y-108545029D01*
X149824048Y-108520232D01*
X149823111Y-108488983D01*
X149833425Y-108427705D01*
X149864248Y-108375640D01*
X149915405Y-108332958D01*
X149986717Y-108299825D01*
X150037600Y-108284964D01*
X150092900Y-108275366D01*
X150159147Y-108269936D01*
X150232294Y-108268367D01*
X150308297Y-108270351D01*
G37*
X154328429Y-103949071D02*
X154488570Y-103970245D01*
X154652510Y-104010385D01*
X154822313Y-104069889D01*
X155000043Y-104149154D01*
X155011310Y-104154699D01*
X155069005Y-104182725D01*
X155120552Y-104206802D01*
X155162191Y-104225249D01*
X155190162Y-104236386D01*
X155199733Y-104238933D01*
X155218950Y-104243941D01*
X155223561Y-104248147D01*
X155218458Y-104258580D01*
X155202418Y-104284868D01*
X155177288Y-104324257D01*
X155144914Y-104373991D01*
X155107143Y-104431315D01*
X155065822Y-104493476D01*
X155022798Y-104557718D01*
X154979917Y-104621285D01*
X154939026Y-104681425D01*
X154901971Y-104735380D01*
X154870600Y-104780397D01*
X154846759Y-104813721D01*
X154832294Y-104832597D01*
X154830309Y-104834787D01*
X154820191Y-104830138D01*
X154797850Y-104812962D01*
X154767280Y-104786440D01*
X154751536Y-104771964D01*
X154655047Y-104696682D01*
X154548336Y-104641241D01*
X154432832Y-104606141D01*
X154309962Y-104591880D01*
X154240561Y-104593051D01*
X154119423Y-104610212D01*
X154010205Y-104646094D01*
X153912582Y-104700959D01*
X153826228Y-104775070D01*
X153750815Y-104868688D01*
X153686018Y-104982076D01*
X153648601Y-105068667D01*
X153604748Y-105204366D01*
X153572428Y-105351850D01*
X153551557Y-105507314D01*
X153542051Y-105666956D01*
X153543827Y-105826973D01*
X153556803Y-105983561D01*
X153580894Y-106132918D01*
X153616018Y-106271240D01*
X153662092Y-106394724D01*
X153678373Y-106428978D01*
X153746620Y-106543064D01*
X153827079Y-106639557D01*
X153918570Y-106717670D01*
X154019911Y-106776617D01*
X154129920Y-106815612D01*
X154247415Y-106833868D01*
X154288883Y-106835211D01*
X154410441Y-106824290D01*
X154530878Y-106791474D01*
X154648666Y-106737439D01*
X154762277Y-106662865D01*
X154853685Y-106584539D01*
X154900215Y-106540008D01*
X155081483Y-106837271D01*
X155126580Y-106911433D01*
X155167819Y-106979646D01*
X155203735Y-107039459D01*
X155232866Y-107088420D01*
X155253750Y-107124079D01*
X155264924Y-107143984D01*
X155266375Y-107147079D01*
X155258146Y-107156718D01*
X155232567Y-107173999D01*
X155192873Y-107197283D01*
X155142297Y-107224934D01*
X155084074Y-107255315D01*
X155021437Y-107286790D01*
X154957621Y-107317722D01*
X154895860Y-107346473D01*
X154839388Y-107371408D01*
X154791438Y-107390889D01*
X154767986Y-107399318D01*
X154634221Y-107437133D01*
X154496327Y-107462136D01*
X154348622Y-107475140D01*
X154221833Y-107477468D01*
X154153878Y-107476373D01*
X154088277Y-107474275D01*
X154030847Y-107471434D01*
X153987403Y-107468106D01*
X153973298Y-107466422D01*
X153834284Y-107437587D01*
X153692757Y-107392468D01*
X153555275Y-107333750D01*
X153428394Y-107264120D01*
X153350889Y-107211441D01*
X153223481Y-107103239D01*
X153105178Y-106976671D01*
X152998172Y-106834866D01*
X152904652Y-106680951D01*
X152826810Y-106518053D01*
X152782956Y-106400756D01*
X152732708Y-106217128D01*
X152699209Y-106022581D01*
X152682449Y-105821325D01*
X152682416Y-105617568D01*
X152699101Y-105415521D01*
X152732493Y-105219392D01*
X152782580Y-105033391D01*
X152786397Y-105021803D01*
X152849281Y-104859750D01*
X152926028Y-104711832D01*
X153019242Y-104573865D01*
X153131527Y-104441661D01*
X153175392Y-104396399D01*
X153311534Y-104272457D01*
X153451491Y-104169915D01*
X153597411Y-104087656D01*
X153751442Y-104024564D01*
X153915732Y-103979523D01*
X154011289Y-103962033D01*
X154170023Y-103946466D01*
X154328429Y-103949071D01*
G36*
X154328429Y-103949071D02*
G01*
X154488570Y-103970245D01*
X154652510Y-104010385D01*
X154822313Y-104069889D01*
X155000043Y-104149154D01*
X155011310Y-104154699D01*
X155069005Y-104182725D01*
X155120552Y-104206802D01*
X155162191Y-104225249D01*
X155190162Y-104236386D01*
X155199733Y-104238933D01*
X155218950Y-104243941D01*
X155223561Y-104248147D01*
X155218458Y-104258580D01*
X155202418Y-104284868D01*
X155177288Y-104324257D01*
X155144914Y-104373991D01*
X155107143Y-104431315D01*
X155065822Y-104493476D01*
X155022798Y-104557718D01*
X154979917Y-104621285D01*
X154939026Y-104681425D01*
X154901971Y-104735380D01*
X154870600Y-104780397D01*
X154846759Y-104813721D01*
X154832294Y-104832597D01*
X154830309Y-104834787D01*
X154820191Y-104830138D01*
X154797850Y-104812962D01*
X154767280Y-104786440D01*
X154751536Y-104771964D01*
X154655047Y-104696682D01*
X154548336Y-104641241D01*
X154432832Y-104606141D01*
X154309962Y-104591880D01*
X154240561Y-104593051D01*
X154119423Y-104610212D01*
X154010205Y-104646094D01*
X153912582Y-104700959D01*
X153826228Y-104775070D01*
X153750815Y-104868688D01*
X153686018Y-104982076D01*
X153648601Y-105068667D01*
X153604748Y-105204366D01*
X153572428Y-105351850D01*
X153551557Y-105507314D01*
X153542051Y-105666956D01*
X153543827Y-105826973D01*
X153556803Y-105983561D01*
X153580894Y-106132918D01*
X153616018Y-106271240D01*
X153662092Y-106394724D01*
X153678373Y-106428978D01*
X153746620Y-106543064D01*
X153827079Y-106639557D01*
X153918570Y-106717670D01*
X154019911Y-106776617D01*
X154129920Y-106815612D01*
X154247415Y-106833868D01*
X154288883Y-106835211D01*
X154410441Y-106824290D01*
X154530878Y-106791474D01*
X154648666Y-106737439D01*
X154762277Y-106662865D01*
X154853685Y-106584539D01*
X154900215Y-106540008D01*
X155081483Y-106837271D01*
X155126580Y-106911433D01*
X155167819Y-106979646D01*
X155203735Y-107039459D01*
X155232866Y-107088420D01*
X155253750Y-107124079D01*
X155264924Y-107143984D01*
X155266375Y-107147079D01*
X155258146Y-107156718D01*
X155232567Y-107173999D01*
X155192873Y-107197283D01*
X155142297Y-107224934D01*
X155084074Y-107255315D01*
X155021437Y-107286790D01*
X154957621Y-107317722D01*
X154895860Y-107346473D01*
X154839388Y-107371408D01*
X154791438Y-107390889D01*
X154767986Y-107399318D01*
X154634221Y-107437133D01*
X154496327Y-107462136D01*
X154348622Y-107475140D01*
X154221833Y-107477468D01*
X154153878Y-107476373D01*
X154088277Y-107474275D01*
X154030847Y-107471434D01*
X153987403Y-107468106D01*
X153973298Y-107466422D01*
X153834284Y-107437587D01*
X153692757Y-107392468D01*
X153555275Y-107333750D01*
X153428394Y-107264120D01*
X153350889Y-107211441D01*
X153223481Y-107103239D01*
X153105178Y-106976671D01*
X152998172Y-106834866D01*
X152904652Y-106680951D01*
X152826810Y-106518053D01*
X152782956Y-106400756D01*
X152732708Y-106217128D01*
X152699209Y-106022581D01*
X152682449Y-105821325D01*
X152682416Y-105617568D01*
X152699101Y-105415521D01*
X152732493Y-105219392D01*
X152782580Y-105033391D01*
X152786397Y-105021803D01*
X152849281Y-104859750D01*
X152926028Y-104711832D01*
X153019242Y-104573865D01*
X153131527Y-104441661D01*
X153175392Y-104396399D01*
X153311534Y-104272457D01*
X153451491Y-104169915D01*
X153597411Y-104087656D01*
X153751442Y-104024564D01*
X153915732Y-103979523D01*
X154011289Y-103962033D01*
X154170023Y-103946466D01*
X154328429Y-103949071D01*
G37*
X160186507Y-105472245D02*
X160186526Y-105706662D01*
X160186552Y-105919603D01*
X160186625Y-106112168D01*
X160186782Y-106285459D01*
X160187064Y-106440576D01*
X160187509Y-106578620D01*
X160188156Y-106700692D01*
X160189045Y-106807894D01*
X160190213Y-106901326D01*
X160191701Y-106982090D01*
X160193546Y-107051286D01*
X160195789Y-107110015D01*
X160198469Y-107159379D01*
X160201623Y-107200478D01*
X160205292Y-107234413D01*
X160209513Y-107262286D01*
X160214327Y-107285198D01*
X160219773Y-107304249D01*
X160225888Y-107320540D01*
X160232712Y-107335173D01*
X160240285Y-107349249D01*
X160248645Y-107363868D01*
X160253839Y-107372974D01*
X160288104Y-107433689D01*
X159429955Y-107433689D01*
X159429955Y-107337733D01*
X159429224Y-107294370D01*
X159427272Y-107261205D01*
X159424463Y-107243424D01*
X159423221Y-107241778D01*
X159411799Y-107248662D01*
X159389084Y-107266505D01*
X159366385Y-107285879D01*
X159311800Y-107326614D01*
X159242321Y-107367617D01*
X159165270Y-107405123D01*
X159087965Y-107435364D01*
X159057113Y-107445012D01*
X158988616Y-107459578D01*
X158905764Y-107469539D01*
X158816371Y-107474583D01*
X158728248Y-107474396D01*
X158649207Y-107468666D01*
X158611511Y-107462858D01*
X158473414Y-107424797D01*
X158346113Y-107367073D01*
X158230292Y-107290211D01*
X158126637Y-107194739D01*
X158035833Y-107081179D01*
X157969031Y-106970381D01*
X157914164Y-106853625D01*
X157872163Y-106734276D01*
X157842167Y-106608283D01*
X157823311Y-106471594D01*
X157814732Y-106320158D01*
X157814006Y-106242711D01*
X157816100Y-106185934D01*
X158645217Y-106185934D01*
X158645424Y-106279002D01*
X158648337Y-106366692D01*
X158654000Y-106443772D01*
X158662455Y-106505009D01*
X158665038Y-106517350D01*
X158696840Y-106624633D01*
X158738498Y-106711658D01*
X158790363Y-106778642D01*
X158852781Y-106825805D01*
X158926100Y-106853365D01*
X159010669Y-106861541D01*
X159106835Y-106850551D01*
X159170311Y-106834829D01*
X159219454Y-106816639D01*
X159273583Y-106790791D01*
X159314244Y-106767089D01*
X159384800Y-106720721D01*
X159384800Y-105570530D01*
X159317392Y-105526962D01*
X159238867Y-105486040D01*
X159154681Y-105459389D01*
X159069557Y-105447465D01*
X158988216Y-105450722D01*
X158915380Y-105469615D01*
X158883426Y-105485184D01*
X158825501Y-105528181D01*
X158776544Y-105584953D01*
X158735390Y-105657575D01*
X158700874Y-105748121D01*
X158671833Y-105858666D01*
X158670552Y-105864533D01*
X158660381Y-105926788D01*
X158652739Y-106004594D01*
X158647670Y-106092720D01*
X158645217Y-106185934D01*
X157816100Y-106185934D01*
X157821857Y-106029895D01*
X157843802Y-105834059D01*
X157879786Y-105655332D01*
X157929759Y-105493845D01*
X157993668Y-105349726D01*
X158071462Y-105223106D01*
X158163089Y-105114115D01*
X158268497Y-105022883D01*
X158313662Y-104991932D01*
X158414611Y-104935785D01*
X158517901Y-104896174D01*
X158627989Y-104872014D01*
X158749330Y-104862219D01*
X158841836Y-104863265D01*
X158971490Y-104874231D01*
X159084084Y-104896046D01*
X159182875Y-104929714D01*
X159271121Y-104976236D01*
X159319986Y-105010448D01*
X159349353Y-105032362D01*
X159371043Y-105047333D01*
X159379253Y-105051733D01*
X159380868Y-105040904D01*
X159382159Y-105010251D01*
X159383138Y-104962526D01*
X159383817Y-104900479D01*
X159384210Y-104826862D01*
X159384330Y-104744427D01*
X159384188Y-104655925D01*
X159383797Y-104564107D01*
X159383171Y-104471724D01*
X159382320Y-104381528D01*
X159381260Y-104296271D01*
X159380001Y-104218703D01*
X159378556Y-104151576D01*
X159376938Y-104097641D01*
X159375161Y-104059650D01*
X159374669Y-104052667D01*
X159367092Y-103982251D01*
X159355531Y-103927102D01*
X159337792Y-103879981D01*
X159311682Y-103833647D01*
X159305415Y-103824067D01*
X159280983Y-103787378D01*
X160186311Y-103787378D01*
X160186507Y-105472245D01*
G36*
X160186507Y-105472245D02*
G01*
X160186526Y-105706662D01*
X160186552Y-105919603D01*
X160186625Y-106112168D01*
X160186782Y-106285459D01*
X160187064Y-106440576D01*
X160187509Y-106578620D01*
X160188156Y-106700692D01*
X160189045Y-106807894D01*
X160190213Y-106901326D01*
X160191701Y-106982090D01*
X160193546Y-107051286D01*
X160195789Y-107110015D01*
X160198469Y-107159379D01*
X160201623Y-107200478D01*
X160205292Y-107234413D01*
X160209513Y-107262286D01*
X160214327Y-107285198D01*
X160219773Y-107304249D01*
X160225888Y-107320540D01*
X160232712Y-107335173D01*
X160240285Y-107349249D01*
X160248645Y-107363868D01*
X160253839Y-107372974D01*
X160288104Y-107433689D01*
X159429955Y-107433689D01*
X159429955Y-107337733D01*
X159429224Y-107294370D01*
X159427272Y-107261205D01*
X159424463Y-107243424D01*
X159423221Y-107241778D01*
X159411799Y-107248662D01*
X159389084Y-107266505D01*
X159366385Y-107285879D01*
X159311800Y-107326614D01*
X159242321Y-107367617D01*
X159165270Y-107405123D01*
X159087965Y-107435364D01*
X159057113Y-107445012D01*
X158988616Y-107459578D01*
X158905764Y-107469539D01*
X158816371Y-107474583D01*
X158728248Y-107474396D01*
X158649207Y-107468666D01*
X158611511Y-107462858D01*
X158473414Y-107424797D01*
X158346113Y-107367073D01*
X158230292Y-107290211D01*
X158126637Y-107194739D01*
X158035833Y-107081179D01*
X157969031Y-106970381D01*
X157914164Y-106853625D01*
X157872163Y-106734276D01*
X157842167Y-106608283D01*
X157823311Y-106471594D01*
X157814732Y-106320158D01*
X157814006Y-106242711D01*
X157816100Y-106185934D01*
X158645217Y-106185934D01*
X158645424Y-106279002D01*
X158648337Y-106366692D01*
X158654000Y-106443772D01*
X158662455Y-106505009D01*
X158665038Y-106517350D01*
X158696840Y-106624633D01*
X158738498Y-106711658D01*
X158790363Y-106778642D01*
X158852781Y-106825805D01*
X158926100Y-106853365D01*
X159010669Y-106861541D01*
X159106835Y-106850551D01*
X159170311Y-106834829D01*
X159219454Y-106816639D01*
X159273583Y-106790791D01*
X159314244Y-106767089D01*
X159384800Y-106720721D01*
X159384800Y-105570530D01*
X159317392Y-105526962D01*
X159238867Y-105486040D01*
X159154681Y-105459389D01*
X159069557Y-105447465D01*
X158988216Y-105450722D01*
X158915380Y-105469615D01*
X158883426Y-105485184D01*
X158825501Y-105528181D01*
X158776544Y-105584953D01*
X158735390Y-105657575D01*
X158700874Y-105748121D01*
X158671833Y-105858666D01*
X158670552Y-105864533D01*
X158660381Y-105926788D01*
X158652739Y-106004594D01*
X158647670Y-106092720D01*
X158645217Y-106185934D01*
X157816100Y-106185934D01*
X157821857Y-106029895D01*
X157843802Y-105834059D01*
X157879786Y-105655332D01*
X157929759Y-105493845D01*
X157993668Y-105349726D01*
X158071462Y-105223106D01*
X158163089Y-105114115D01*
X158268497Y-105022883D01*
X158313662Y-104991932D01*
X158414611Y-104935785D01*
X158517901Y-104896174D01*
X158627989Y-104872014D01*
X158749330Y-104862219D01*
X158841836Y-104863265D01*
X158971490Y-104874231D01*
X159084084Y-104896046D01*
X159182875Y-104929714D01*
X159271121Y-104976236D01*
X159319986Y-105010448D01*
X159349353Y-105032362D01*
X159371043Y-105047333D01*
X159379253Y-105051733D01*
X159380868Y-105040904D01*
X159382159Y-105010251D01*
X159383138Y-104962526D01*
X159383817Y-104900479D01*
X159384210Y-104826862D01*
X159384330Y-104744427D01*
X159384188Y-104655925D01*
X159383797Y-104564107D01*
X159383171Y-104471724D01*
X159382320Y-104381528D01*
X159381260Y-104296271D01*
X159380001Y-104218703D01*
X159378556Y-104151576D01*
X159376938Y-104097641D01*
X159375161Y-104059650D01*
X159374669Y-104052667D01*
X159367092Y-103982251D01*
X159355531Y-103927102D01*
X159337792Y-103879981D01*
X159311682Y-103833647D01*
X159305415Y-103824067D01*
X159280983Y-103787378D01*
X160186311Y-103787378D01*
X160186507Y-105472245D01*
G37*
X156673574Y-104866552D02*
X156825492Y-104886567D01*
X156960756Y-104920202D01*
X157080239Y-104967725D01*
X157184815Y-105029405D01*
X157262424Y-105092965D01*
X157331265Y-105167099D01*
X157385006Y-105246871D01*
X157427910Y-105339091D01*
X157443384Y-105382161D01*
X157456244Y-105421142D01*
X157467446Y-105457289D01*
X157477120Y-105492434D01*
X157485396Y-105528410D01*
X157492403Y-105567050D01*
X157498272Y-105610185D01*
X157503131Y-105659649D01*
X157507110Y-105717273D01*
X157510340Y-105784891D01*
X157512949Y-105864334D01*
X157515067Y-105957436D01*
X157516824Y-106066027D01*
X157518349Y-106191942D01*
X157519772Y-106337012D01*
X157521025Y-106479778D01*
X157522351Y-106635968D01*
X157523556Y-106771239D01*
X157524766Y-106887246D01*
X157526106Y-106985645D01*
X157527700Y-107068093D01*
X157529675Y-107136246D01*
X157532156Y-107191760D01*
X157535269Y-107236292D01*
X157539138Y-107271498D01*
X157543889Y-107299034D01*
X157549648Y-107320556D01*
X157556539Y-107337722D01*
X157564689Y-107352186D01*
X157574223Y-107365606D01*
X157585266Y-107379638D01*
X157589566Y-107385071D01*
X157605386Y-107407910D01*
X157612422Y-107423463D01*
X157612444Y-107423922D01*
X157601567Y-107426121D01*
X157570582Y-107428147D01*
X157521957Y-107429942D01*
X157458163Y-107431451D01*
X157381669Y-107432616D01*
X157294944Y-107433380D01*
X157200457Y-107433686D01*
X157189550Y-107433689D01*
X156766657Y-107433689D01*
X156763395Y-107337622D01*
X156760133Y-107241556D01*
X156698044Y-107292543D01*
X156600714Y-107360057D01*
X156490813Y-107414749D01*
X156404349Y-107444978D01*
X156335278Y-107459666D01*
X156251925Y-107469659D01*
X156162159Y-107474646D01*
X156073845Y-107474313D01*
X155994851Y-107468351D01*
X155958622Y-107462638D01*
X155818603Y-107424776D01*
X155692178Y-107369932D01*
X155580260Y-107298924D01*
X155483762Y-107212568D01*
X155403600Y-107111679D01*
X155340687Y-106997076D01*
X155296312Y-106870984D01*
X155283978Y-106814401D01*
X155276368Y-106752202D01*
X155272739Y-106677363D01*
X155272245Y-106643467D01*
X155272310Y-106640282D01*
X156032248Y-106640282D01*
X156041541Y-106715333D01*
X156069728Y-106779160D01*
X156118197Y-106834798D01*
X156123254Y-106839211D01*
X156171548Y-106874037D01*
X156223257Y-106896620D01*
X156283989Y-106908540D01*
X156359352Y-106911383D01*
X156377459Y-106910978D01*
X156431278Y-106908325D01*
X156471308Y-106902909D01*
X156506324Y-106892745D01*
X156545103Y-106875850D01*
X156555745Y-106870672D01*
X156616396Y-106834844D01*
X156663215Y-106792212D01*
X156675952Y-106776973D01*
X156720622Y-106720462D01*
X156720622Y-106524586D01*
X156720086Y-106445939D01*
X156718396Y-106387988D01*
X156715428Y-106348875D01*
X156711057Y-106326741D01*
X156706972Y-106320274D01*
X156691047Y-106317111D01*
X156657264Y-106314488D01*
X156610340Y-106312655D01*
X156554993Y-106311857D01*
X156546106Y-106311842D01*
X156425330Y-106317096D01*
X156322660Y-106333263D01*
X156236106Y-106360961D01*
X156163681Y-106400808D01*
X156108751Y-106447758D01*
X156064204Y-106505645D01*
X156039480Y-106568693D01*
X156032248Y-106640282D01*
X155272310Y-106640282D01*
X155274178Y-106549712D01*
X155282522Y-106470812D01*
X155298768Y-106399590D01*
X155324405Y-106328864D01*
X155348401Y-106276493D01*
X155407020Y-106181196D01*
X155485117Y-106093170D01*
X155580315Y-106014017D01*
X155690238Y-105945340D01*
X155812510Y-105888741D01*
X155944755Y-105845821D01*
X156009422Y-105830882D01*
X156145604Y-105808777D01*
X156294049Y-105794194D01*
X156445505Y-105787813D01*
X156572064Y-105789445D01*
X156733950Y-105796224D01*
X156726530Y-105737245D01*
X156707238Y-105638092D01*
X156676104Y-105557372D01*
X156632269Y-105494466D01*
X156574871Y-105448756D01*
X156503048Y-105419622D01*
X156415941Y-105406447D01*
X156312686Y-105408611D01*
X156274711Y-105412612D01*
X156133520Y-105437780D01*
X155996707Y-105478814D01*
X155902178Y-105516815D01*
X155857018Y-105536190D01*
X155818585Y-105551760D01*
X155792234Y-105561405D01*
X155784546Y-105563452D01*
X155774802Y-105554374D01*
X155758083Y-105525405D01*
X155734232Y-105476217D01*
X155703093Y-105406484D01*
X155664507Y-105315879D01*
X155657910Y-105300089D01*
X155627853Y-105227772D01*
X155600874Y-105162425D01*
X155578136Y-105106906D01*
X155560806Y-105064072D01*
X155550048Y-105036781D01*
X155546941Y-105027942D01*
X155556940Y-105023187D01*
X155583217Y-105017910D01*
X155611489Y-105014231D01*
X155641646Y-105009474D01*
X155689433Y-105000028D01*
X155750612Y-104986820D01*
X155820946Y-104970776D01*
X155896194Y-104952820D01*
X155924755Y-104945797D01*
X156029816Y-104920209D01*
X156117480Y-104900147D01*
X156192068Y-104884969D01*
X156257903Y-104874035D01*
X156319307Y-104866704D01*
X156380602Y-104862335D01*
X156446110Y-104860287D01*
X156504128Y-104859889D01*
X156673574Y-104866552D01*
G36*
X156673574Y-104866552D02*
G01*
X156825492Y-104886567D01*
X156960756Y-104920202D01*
X157080239Y-104967725D01*
X157184815Y-105029405D01*
X157262424Y-105092965D01*
X157331265Y-105167099D01*
X157385006Y-105246871D01*
X157427910Y-105339091D01*
X157443384Y-105382161D01*
X157456244Y-105421142D01*
X157467446Y-105457289D01*
X157477120Y-105492434D01*
X157485396Y-105528410D01*
X157492403Y-105567050D01*
X157498272Y-105610185D01*
X157503131Y-105659649D01*
X157507110Y-105717273D01*
X157510340Y-105784891D01*
X157512949Y-105864334D01*
X157515067Y-105957436D01*
X157516824Y-106066027D01*
X157518349Y-106191942D01*
X157519772Y-106337012D01*
X157521025Y-106479778D01*
X157522351Y-106635968D01*
X157523556Y-106771239D01*
X157524766Y-106887246D01*
X157526106Y-106985645D01*
X157527700Y-107068093D01*
X157529675Y-107136246D01*
X157532156Y-107191760D01*
X157535269Y-107236292D01*
X157539138Y-107271498D01*
X157543889Y-107299034D01*
X157549648Y-107320556D01*
X157556539Y-107337722D01*
X157564689Y-107352186D01*
X157574223Y-107365606D01*
X157585266Y-107379638D01*
X157589566Y-107385071D01*
X157605386Y-107407910D01*
X157612422Y-107423463D01*
X157612444Y-107423922D01*
X157601567Y-107426121D01*
X157570582Y-107428147D01*
X157521957Y-107429942D01*
X157458163Y-107431451D01*
X157381669Y-107432616D01*
X157294944Y-107433380D01*
X157200457Y-107433686D01*
X157189550Y-107433689D01*
X156766657Y-107433689D01*
X156763395Y-107337622D01*
X156760133Y-107241556D01*
X156698044Y-107292543D01*
X156600714Y-107360057D01*
X156490813Y-107414749D01*
X156404349Y-107444978D01*
X156335278Y-107459666D01*
X156251925Y-107469659D01*
X156162159Y-107474646D01*
X156073845Y-107474313D01*
X155994851Y-107468351D01*
X155958622Y-107462638D01*
X155818603Y-107424776D01*
X155692178Y-107369932D01*
X155580260Y-107298924D01*
X155483762Y-107212568D01*
X155403600Y-107111679D01*
X155340687Y-106997076D01*
X155296312Y-106870984D01*
X155283978Y-106814401D01*
X155276368Y-106752202D01*
X155272739Y-106677363D01*
X155272245Y-106643467D01*
X155272310Y-106640282D01*
X156032248Y-106640282D01*
X156041541Y-106715333D01*
X156069728Y-106779160D01*
X156118197Y-106834798D01*
X156123254Y-106839211D01*
X156171548Y-106874037D01*
X156223257Y-106896620D01*
X156283989Y-106908540D01*
X156359352Y-106911383D01*
X156377459Y-106910978D01*
X156431278Y-106908325D01*
X156471308Y-106902909D01*
X156506324Y-106892745D01*
X156545103Y-106875850D01*
X156555745Y-106870672D01*
X156616396Y-106834844D01*
X156663215Y-106792212D01*
X156675952Y-106776973D01*
X156720622Y-106720462D01*
X156720622Y-106524586D01*
X156720086Y-106445939D01*
X156718396Y-106387988D01*
X156715428Y-106348875D01*
X156711057Y-106326741D01*
X156706972Y-106320274D01*
X156691047Y-106317111D01*
X156657264Y-106314488D01*
X156610340Y-106312655D01*
X156554993Y-106311857D01*
X156546106Y-106311842D01*
X156425330Y-106317096D01*
X156322660Y-106333263D01*
X156236106Y-106360961D01*
X156163681Y-106400808D01*
X156108751Y-106447758D01*
X156064204Y-106505645D01*
X156039480Y-106568693D01*
X156032248Y-106640282D01*
X155272310Y-106640282D01*
X155274178Y-106549712D01*
X155282522Y-106470812D01*
X155298768Y-106399590D01*
X155324405Y-106328864D01*
X155348401Y-106276493D01*
X155407020Y-106181196D01*
X155485117Y-106093170D01*
X155580315Y-106014017D01*
X155690238Y-105945340D01*
X155812510Y-105888741D01*
X155944755Y-105845821D01*
X156009422Y-105830882D01*
X156145604Y-105808777D01*
X156294049Y-105794194D01*
X156445505Y-105787813D01*
X156572064Y-105789445D01*
X156733950Y-105796224D01*
X156726530Y-105737245D01*
X156707238Y-105638092D01*
X156676104Y-105557372D01*
X156632269Y-105494466D01*
X156574871Y-105448756D01*
X156503048Y-105419622D01*
X156415941Y-105406447D01*
X156312686Y-105408611D01*
X156274711Y-105412612D01*
X156133520Y-105437780D01*
X155996707Y-105478814D01*
X155902178Y-105516815D01*
X155857018Y-105536190D01*
X155818585Y-105551760D01*
X155792234Y-105561405D01*
X155784546Y-105563452D01*
X155774802Y-105554374D01*
X155758083Y-105525405D01*
X155734232Y-105476217D01*
X155703093Y-105406484D01*
X155664507Y-105315879D01*
X155657910Y-105300089D01*
X155627853Y-105227772D01*
X155600874Y-105162425D01*
X155578136Y-105106906D01*
X155560806Y-105064072D01*
X155550048Y-105036781D01*
X155546941Y-105027942D01*
X155556940Y-105023187D01*
X155583217Y-105017910D01*
X155611489Y-105014231D01*
X155641646Y-105009474D01*
X155689433Y-105000028D01*
X155750612Y-104986820D01*
X155820946Y-104970776D01*
X155896194Y-104952820D01*
X155924755Y-104945797D01*
X156029816Y-104920209D01*
X156117480Y-104900147D01*
X156192068Y-104884969D01*
X156257903Y-104874035D01*
X156319307Y-104866704D01*
X156380602Y-104862335D01*
X156446110Y-104860287D01*
X156504128Y-104859889D01*
X156673574Y-104866552D01*
G37*
X151053600Y-103489054D02*
X151064465Y-103602993D01*
X151096082Y-103710616D01*
X151146985Y-103809615D01*
X151215707Y-103897684D01*
X151300781Y-103972516D01*
X151397768Y-104030384D01*
X151504036Y-104070005D01*
X151611050Y-104088573D01*
X151716700Y-104087434D01*
X151818875Y-104067930D01*
X151915466Y-104031406D01*
X152004362Y-103979205D01*
X152083454Y-103912673D01*
X152150631Y-103833152D01*
X152203783Y-103741987D01*
X152240801Y-103640523D01*
X152259573Y-103530102D01*
X152261511Y-103480206D01*
X152261511Y-103392267D01*
X152313440Y-103392267D01*
X152349747Y-103395111D01*
X152376645Y-103406911D01*
X152403751Y-103430649D01*
X152442133Y-103469031D01*
X152442133Y-105660602D01*
X152442124Y-105922739D01*
X152442092Y-106163241D01*
X152442028Y-106383048D01*
X152441924Y-106583101D01*
X152441773Y-106764344D01*
X152441566Y-106927716D01*
X152441294Y-107074160D01*
X152440950Y-107204617D01*
X152440526Y-107320029D01*
X152440013Y-107421338D01*
X152439403Y-107509484D01*
X152438688Y-107585410D01*
X152437860Y-107650057D01*
X152436911Y-107704367D01*
X152435833Y-107749280D01*
X152434617Y-107785740D01*
X152433255Y-107814687D01*
X152431739Y-107837063D01*
X152430062Y-107853809D01*
X152428214Y-107865868D01*
X152426187Y-107874180D01*
X152423975Y-107879687D01*
X152422892Y-107881537D01*
X152418729Y-107888549D01*
X152415195Y-107894996D01*
X152411365Y-107900900D01*
X152406318Y-107906286D01*
X152399129Y-107911178D01*
X152388877Y-107915598D01*
X152374636Y-107919572D01*
X152355486Y-107923121D01*
X152330501Y-107926270D01*
X152298760Y-107929042D01*
X152259338Y-107931461D01*
X152211314Y-107933551D01*
X152153763Y-107935335D01*
X152085763Y-107936837D01*
X152006390Y-107938080D01*
X151914721Y-107939089D01*
X151809834Y-107939885D01*
X151690804Y-107940494D01*
X151556710Y-107940939D01*
X151406627Y-107941243D01*
X151239633Y-107941430D01*
X151054804Y-107941524D01*
X150851217Y-107941548D01*
X150627950Y-107941525D01*
X150384078Y-107941480D01*
X150118679Y-107941437D01*
X150080296Y-107941432D01*
X149813318Y-107941389D01*
X149567998Y-107941318D01*
X149343417Y-107941213D01*
X149138655Y-107941066D01*
X148952794Y-107940869D01*
X148784912Y-107940616D01*
X148634092Y-107940300D01*
X148499413Y-107939913D01*
X148379956Y-107939447D01*
X148274801Y-107938897D01*
X148183029Y-107938253D01*
X148103721Y-107937511D01*
X148035957Y-107936661D01*
X147978818Y-107935697D01*
X147931383Y-107934611D01*
X147892734Y-107933397D01*
X147861951Y-107932047D01*
X147838115Y-107930555D01*
X147820306Y-107928911D01*
X147807605Y-107927111D01*
X147799092Y-107925145D01*
X147794734Y-107923477D01*
X147786272Y-107919906D01*
X147778503Y-107917270D01*
X147771398Y-107914634D01*
X147764927Y-107911062D01*
X147759061Y-107905621D01*
X147753771Y-107897375D01*
X147749026Y-107885390D01*
X147744798Y-107868731D01*
X147741057Y-107846463D01*
X147737773Y-107817652D01*
X147734917Y-107781363D01*
X147732460Y-107736661D01*
X147730371Y-107682611D01*
X147728622Y-107618279D01*
X147727183Y-107542730D01*
X147726024Y-107455030D01*
X147725117Y-107354243D01*
X147724431Y-107239434D01*
X147723937Y-107109670D01*
X147723605Y-106964015D01*
X147723407Y-106801535D01*
X147723313Y-106621295D01*
X147723292Y-106422360D01*
X147723315Y-106203796D01*
X147723354Y-105964668D01*
X147723378Y-105704040D01*
X147723378Y-105661889D01*
X147723364Y-105398992D01*
X147723339Y-105157732D01*
X147723329Y-104937165D01*
X147723358Y-104736352D01*
X147723452Y-104554349D01*
X147723638Y-104390216D01*
X147723941Y-104243011D01*
X147724386Y-104111792D01*
X147724966Y-104001867D01*
X148027803Y-104001867D01*
X148067593Y-104059711D01*
X148078764Y-104075479D01*
X148088834Y-104089441D01*
X148097862Y-104102784D01*
X148105903Y-104116693D01*
X148113014Y-104132356D01*
X148119253Y-104150958D01*
X148124675Y-104173686D01*
X148129338Y-104201727D01*
X148133299Y-104236267D01*
X148136615Y-104278492D01*
X148139341Y-104329589D01*
X148141536Y-104390744D01*
X148143255Y-104463144D01*
X148144556Y-104547975D01*
X148145495Y-104646422D01*
X148146130Y-104759674D01*
X148146516Y-104888916D01*
X148146712Y-105035334D01*
X148146773Y-105200116D01*
X148146757Y-105384447D01*
X148146720Y-105589513D01*
X148146711Y-105712133D01*
X148146735Y-105929082D01*
X148146769Y-106124642D01*
X148146757Y-106299999D01*
X148146642Y-106456341D01*
X148146370Y-106594857D01*
X148145882Y-106716734D01*
X148145124Y-106823160D01*
X148144038Y-106915322D01*
X148142569Y-106994409D01*
X148140660Y-107061608D01*
X148138256Y-107118107D01*
X148135299Y-107165093D01*
X148131734Y-107203755D01*
X148127505Y-107235280D01*
X148122554Y-107260855D01*
X148116827Y-107281670D01*
X148110267Y-107298911D01*
X148102817Y-107313765D01*
X148094421Y-107327422D01*
X148085024Y-107341069D01*
X148074568Y-107355893D01*
X148068477Y-107364783D01*
X148029704Y-107422400D01*
X148561268Y-107422400D01*
X148684517Y-107422365D01*
X148787013Y-107422215D01*
X148870580Y-107421878D01*
X148937044Y-107421286D01*
X148988229Y-107420367D01*
X149025959Y-107419051D01*
X149052060Y-107417269D01*
X149068356Y-107414951D01*
X149076672Y-107412026D01*
X149078832Y-107408424D01*
X149076661Y-107404075D01*
X149075465Y-107402645D01*
X149050315Y-107365573D01*
X149024417Y-107312772D01*
X149000808Y-107250770D01*
X148992539Y-107224357D01*
X148987922Y-107206416D01*
X148984021Y-107185355D01*
X148980752Y-107159089D01*
X148978034Y-107125532D01*
X148975785Y-107082599D01*
X148973923Y-107028204D01*
X148972364Y-106960262D01*
X148971028Y-106876688D01*
X148969831Y-106775395D01*
X148968692Y-106654300D01*
X148968315Y-106609600D01*
X148967298Y-106484449D01*
X148966540Y-106380082D01*
X148966097Y-106294707D01*
X148966030Y-106226533D01*
X148966395Y-106173765D01*
X148967252Y-106134614D01*
X148968659Y-106107285D01*
X148970675Y-106089986D01*
X148973357Y-106080926D01*
X148976764Y-106078312D01*
X148980956Y-106080351D01*
X148985429Y-106084667D01*
X148995784Y-106097602D01*
X149017842Y-106126676D01*
X149050043Y-106169759D01*
X149090826Y-106224718D01*
X149138630Y-106289423D01*
X149191895Y-106361742D01*
X149249060Y-106439544D01*
X149308563Y-106520698D01*
X149368845Y-106603072D01*
X149428345Y-106684536D01*
X149485502Y-106762957D01*
X149538755Y-106836204D01*
X149586543Y-106902147D01*
X149627307Y-106958654D01*
X149659484Y-107003593D01*
X149681515Y-107034834D01*
X149686083Y-107041466D01*
X149709004Y-107078369D01*
X149735812Y-107126359D01*
X149761211Y-107175897D01*
X149764432Y-107182577D01*
X149786110Y-107230772D01*
X149798696Y-107268334D01*
X149804426Y-107304160D01*
X149805544Y-107346200D01*
X149804910Y-107422400D01*
X150959349Y-107422400D01*
X150868185Y-107328669D01*
X150821388Y-107278775D01*
X150771101Y-107222295D01*
X150725056Y-107168026D01*
X150704631Y-107142673D01*
X150674193Y-107103128D01*
X150634138Y-107049916D01*
X150585639Y-106984667D01*
X150529865Y-106909011D01*
X150467989Y-106824577D01*
X150401181Y-106732994D01*
X150330613Y-106635892D01*
X150257455Y-106534901D01*
X150182879Y-106431650D01*
X150108056Y-106327768D01*
X150034157Y-106224885D01*
X149962354Y-106124631D01*
X149893816Y-106028636D01*
X149829716Y-105938527D01*
X149771225Y-105855936D01*
X149719514Y-105782492D01*
X149675753Y-105719824D01*
X149641115Y-105669561D01*
X149616770Y-105633334D01*
X149603889Y-105612771D01*
X149602131Y-105608668D01*
X149610090Y-105597342D01*
X149630885Y-105570162D01*
X149663153Y-105528829D01*
X149705530Y-105475044D01*
X149756653Y-105410506D01*
X149815159Y-105336918D01*
X149879686Y-105255978D01*
X149948869Y-105169388D01*
X150021347Y-105078848D01*
X150095754Y-104986060D01*
X150155483Y-104911702D01*
X151166489Y-104911702D01*
X151172398Y-104924659D01*
X151186728Y-104946908D01*
X151187775Y-104948391D01*
X151206562Y-104978544D01*
X151226209Y-105015375D01*
X151230108Y-105023511D01*
X151233644Y-105031940D01*
X151236770Y-105042059D01*
X151239514Y-105055260D01*
X151241908Y-105072938D01*
X151243981Y-105096484D01*
X151245765Y-105127293D01*
X151247288Y-105166757D01*
X151248581Y-105216269D01*
X151249674Y-105277223D01*
X151250597Y-105351011D01*
X151251381Y-105439028D01*
X151252055Y-105542665D01*
X151252650Y-105663316D01*
X151253195Y-105802374D01*
X151253721Y-105961232D01*
X151254255Y-106140089D01*
X151254794Y-106325207D01*
X151255228Y-106489145D01*
X151255491Y-106633303D01*
X151255516Y-106759079D01*
X151255235Y-106867871D01*
X151254581Y-106961077D01*
X151253486Y-107040097D01*
X151251882Y-107106328D01*
X151249703Y-107161170D01*
X151246881Y-107206021D01*
X151243349Y-107242278D01*
X151239039Y-107271341D01*
X151233883Y-107294609D01*
X151227815Y-107313479D01*
X151220767Y-107329351D01*
X151212671Y-107343622D01*
X151203460Y-107357691D01*
X151194960Y-107370158D01*
X151177824Y-107396452D01*
X151167678Y-107414037D01*
X151166489Y-107417257D01*
X151177396Y-107418334D01*
X151208589Y-107419335D01*
X151257777Y-107420235D01*
X151322667Y-107421010D01*
X151400970Y-107421637D01*
X151490393Y-107422091D01*
X151588644Y-107422349D01*
X151657555Y-107422400D01*
X151762548Y-107422180D01*
X151859390Y-107421548D01*
X151945893Y-107420549D01*
X152019868Y-107419227D01*
X152079126Y-107417626D01*
X152121480Y-107415791D01*
X152144740Y-107413765D01*
X152148622Y-107412493D01*
X152140924Y-107397591D01*
X152132926Y-107389560D01*
X152119754Y-107372434D01*
X152102515Y-107342183D01*
X152090593Y-107317622D01*
X152063955Y-107258711D01*
X152060880Y-106081845D01*
X152057805Y-104904978D01*
X151612147Y-104904978D01*
X151514330Y-104905142D01*
X151423936Y-104905611D01*
X151343370Y-104906347D01*
X151275038Y-104907316D01*
X151221344Y-104908480D01*
X151184695Y-104909803D01*
X151167496Y-104911249D01*
X151166489Y-104911702D01*
X150155483Y-104911702D01*
X150170730Y-104892722D01*
X150244910Y-104800537D01*
X150316931Y-104711204D01*
X150385431Y-104626424D01*
X150449045Y-104547898D01*
X150506412Y-104477326D01*
X150556167Y-104416409D01*
X150596948Y-104366847D01*
X150614112Y-104346178D01*
X150700404Y-104245516D01*
X150777003Y-104162259D01*
X150845817Y-104094438D01*
X150908752Y-104040089D01*
X150918133Y-104032722D01*
X150957644Y-104002117D01*
X149825884Y-104001867D01*
X149831173Y-104049844D01*
X149827870Y-104107188D01*
X149806339Y-104175463D01*
X149766365Y-104255212D01*
X149721057Y-104327495D01*
X149704839Y-104350140D01*
X149676786Y-104387696D01*
X149638570Y-104438021D01*
X149591863Y-104498973D01*
X149538339Y-104568411D01*
X149479669Y-104644194D01*
X149417525Y-104724180D01*
X149353579Y-104806228D01*
X149289505Y-104888196D01*
X149226973Y-104967943D01*
X149167657Y-105043327D01*
X149113229Y-105112207D01*
X149065361Y-105172442D01*
X149025725Y-105221889D01*
X148995994Y-105258408D01*
X148977839Y-105279858D01*
X148974780Y-105283156D01*
X148971921Y-105275149D01*
X148969707Y-105244855D01*
X148968143Y-105192556D01*
X148967233Y-105118531D01*
X148966980Y-105023063D01*
X148967387Y-104906434D01*
X148968296Y-104786445D01*
X148969618Y-104654333D01*
X148971143Y-104542594D01*
X148973119Y-104449025D01*
X148975794Y-104371419D01*
X148979418Y-104307574D01*
X148984239Y-104255283D01*
X148990506Y-104212344D01*
X148998468Y-104176551D01*
X149008373Y-104145700D01*
X149020469Y-104117586D01*
X149035007Y-104090005D01*
X149049689Y-104064966D01*
X149087686Y-104001867D01*
X148027803Y-104001867D01*
X147724966Y-104001867D01*
X147724999Y-103995617D01*
X147725805Y-103893544D01*
X147726830Y-103804633D01*
X147728100Y-103727941D01*
X147729640Y-103662527D01*
X147731476Y-103607449D01*
X147733633Y-103561765D01*
X147736137Y-103524534D01*
X147739013Y-103494813D01*
X147742287Y-103471662D01*
X147745985Y-103454139D01*
X147750131Y-103441301D01*
X147754753Y-103432208D01*
X147759874Y-103425918D01*
X147765522Y-103421488D01*
X147771721Y-103417978D01*
X147778496Y-103414445D01*
X147784492Y-103410876D01*
X147789725Y-103408300D01*
X147797901Y-103405972D01*
X147810114Y-103403878D01*
X147827459Y-103402007D01*
X147851031Y-103400347D01*
X147881923Y-103398884D01*
X147921232Y-103397608D01*
X147970050Y-103396504D01*
X148029473Y-103395561D01*
X148100596Y-103394767D01*
X148184512Y-103394109D01*
X148282317Y-103393575D01*
X148395106Y-103393153D01*
X148523971Y-103392829D01*
X148670009Y-103392592D01*
X148834314Y-103392430D01*
X149017980Y-103392330D01*
X149222103Y-103392280D01*
X149433247Y-103392267D01*
X151053600Y-103392267D01*
X151053600Y-103489054D01*
G36*
X151053600Y-103489054D02*
G01*
X151064465Y-103602993D01*
X151096082Y-103710616D01*
X151146985Y-103809615D01*
X151215707Y-103897684D01*
X151300781Y-103972516D01*
X151397768Y-104030384D01*
X151504036Y-104070005D01*
X151611050Y-104088573D01*
X151716700Y-104087434D01*
X151818875Y-104067930D01*
X151915466Y-104031406D01*
X152004362Y-103979205D01*
X152083454Y-103912673D01*
X152150631Y-103833152D01*
X152203783Y-103741987D01*
X152240801Y-103640523D01*
X152259573Y-103530102D01*
X152261511Y-103480206D01*
X152261511Y-103392267D01*
X152313440Y-103392267D01*
X152349747Y-103395111D01*
X152376645Y-103406911D01*
X152403751Y-103430649D01*
X152442133Y-103469031D01*
X152442133Y-105660602D01*
X152442124Y-105922739D01*
X152442092Y-106163241D01*
X152442028Y-106383048D01*
X152441924Y-106583101D01*
X152441773Y-106764344D01*
X152441566Y-106927716D01*
X152441294Y-107074160D01*
X152440950Y-107204617D01*
X152440526Y-107320029D01*
X152440013Y-107421338D01*
X152439403Y-107509484D01*
X152438688Y-107585410D01*
X152437860Y-107650057D01*
X152436911Y-107704367D01*
X152435833Y-107749280D01*
X152434617Y-107785740D01*
X152433255Y-107814687D01*
X152431739Y-107837063D01*
X152430062Y-107853809D01*
X152428214Y-107865868D01*
X152426187Y-107874180D01*
X152423975Y-107879687D01*
X152422892Y-107881537D01*
X152418729Y-107888549D01*
X152415195Y-107894996D01*
X152411365Y-107900900D01*
X152406318Y-107906286D01*
X152399129Y-107911178D01*
X152388877Y-107915598D01*
X152374636Y-107919572D01*
X152355486Y-107923121D01*
X152330501Y-107926270D01*
X152298760Y-107929042D01*
X152259338Y-107931461D01*
X152211314Y-107933551D01*
X152153763Y-107935335D01*
X152085763Y-107936837D01*
X152006390Y-107938080D01*
X151914721Y-107939089D01*
X151809834Y-107939885D01*
X151690804Y-107940494D01*
X151556710Y-107940939D01*
X151406627Y-107941243D01*
X151239633Y-107941430D01*
X151054804Y-107941524D01*
X150851217Y-107941548D01*
X150627950Y-107941525D01*
X150384078Y-107941480D01*
X150118679Y-107941437D01*
X150080296Y-107941432D01*
X149813318Y-107941389D01*
X149567998Y-107941318D01*
X149343417Y-107941213D01*
X149138655Y-107941066D01*
X148952794Y-107940869D01*
X148784912Y-107940616D01*
X148634092Y-107940300D01*
X148499413Y-107939913D01*
X148379956Y-107939447D01*
X148274801Y-107938897D01*
X148183029Y-107938253D01*
X148103721Y-107937511D01*
X148035957Y-107936661D01*
X147978818Y-107935697D01*
X147931383Y-107934611D01*
X147892734Y-107933397D01*
X147861951Y-107932047D01*
X147838115Y-107930555D01*
X147820306Y-107928911D01*
X147807605Y-107927111D01*
X147799092Y-107925145D01*
X147794734Y-107923477D01*
X147786272Y-107919906D01*
X147778503Y-107917270D01*
X147771398Y-107914634D01*
X147764927Y-107911062D01*
X147759061Y-107905621D01*
X147753771Y-107897375D01*
X147749026Y-107885390D01*
X147744798Y-107868731D01*
X147741057Y-107846463D01*
X147737773Y-107817652D01*
X147734917Y-107781363D01*
X147732460Y-107736661D01*
X147730371Y-107682611D01*
X147728622Y-107618279D01*
X147727183Y-107542730D01*
X147726024Y-107455030D01*
X147725117Y-107354243D01*
X147724431Y-107239434D01*
X147723937Y-107109670D01*
X147723605Y-106964015D01*
X147723407Y-106801535D01*
X147723313Y-106621295D01*
X147723292Y-106422360D01*
X147723315Y-106203796D01*
X147723354Y-105964668D01*
X147723378Y-105704040D01*
X147723378Y-105661889D01*
X147723364Y-105398992D01*
X147723339Y-105157732D01*
X147723329Y-104937165D01*
X147723358Y-104736352D01*
X147723452Y-104554349D01*
X147723638Y-104390216D01*
X147723941Y-104243011D01*
X147724386Y-104111792D01*
X147724966Y-104001867D01*
X148027803Y-104001867D01*
X148067593Y-104059711D01*
X148078764Y-104075479D01*
X148088834Y-104089441D01*
X148097862Y-104102784D01*
X148105903Y-104116693D01*
X148113014Y-104132356D01*
X148119253Y-104150958D01*
X148124675Y-104173686D01*
X148129338Y-104201727D01*
X148133299Y-104236267D01*
X148136615Y-104278492D01*
X148139341Y-104329589D01*
X148141536Y-104390744D01*
X148143255Y-104463144D01*
X148144556Y-104547975D01*
X148145495Y-104646422D01*
X148146130Y-104759674D01*
X148146516Y-104888916D01*
X148146712Y-105035334D01*
X148146773Y-105200116D01*
X148146757Y-105384447D01*
X148146720Y-105589513D01*
X148146711Y-105712133D01*
X148146735Y-105929082D01*
X148146769Y-106124642D01*
X148146757Y-106299999D01*
X148146642Y-106456341D01*
X148146370Y-106594857D01*
X148145882Y-106716734D01*
X148145124Y-106823160D01*
X148144038Y-106915322D01*
X148142569Y-106994409D01*
X148140660Y-107061608D01*
X148138256Y-107118107D01*
X148135299Y-107165093D01*
X148131734Y-107203755D01*
X148127505Y-107235280D01*
X148122554Y-107260855D01*
X148116827Y-107281670D01*
X148110267Y-107298911D01*
X148102817Y-107313765D01*
X148094421Y-107327422D01*
X148085024Y-107341069D01*
X148074568Y-107355893D01*
X148068477Y-107364783D01*
X148029704Y-107422400D01*
X148561268Y-107422400D01*
X148684517Y-107422365D01*
X148787013Y-107422215D01*
X148870580Y-107421878D01*
X148937044Y-107421286D01*
X148988229Y-107420367D01*
X149025959Y-107419051D01*
X149052060Y-107417269D01*
X149068356Y-107414951D01*
X149076672Y-107412026D01*
X149078832Y-107408424D01*
X149076661Y-107404075D01*
X149075465Y-107402645D01*
X149050315Y-107365573D01*
X149024417Y-107312772D01*
X149000808Y-107250770D01*
X148992539Y-107224357D01*
X148987922Y-107206416D01*
X148984021Y-107185355D01*
X148980752Y-107159089D01*
X148978034Y-107125532D01*
X148975785Y-107082599D01*
X148973923Y-107028204D01*
X148972364Y-106960262D01*
X148971028Y-106876688D01*
X148969831Y-106775395D01*
X148968692Y-106654300D01*
X148968315Y-106609600D01*
X148967298Y-106484449D01*
X148966540Y-106380082D01*
X148966097Y-106294707D01*
X148966030Y-106226533D01*
X148966395Y-106173765D01*
X148967252Y-106134614D01*
X148968659Y-106107285D01*
X148970675Y-106089986D01*
X148973357Y-106080926D01*
X148976764Y-106078312D01*
X148980956Y-106080351D01*
X148985429Y-106084667D01*
X148995784Y-106097602D01*
X149017842Y-106126676D01*
X149050043Y-106169759D01*
X149090826Y-106224718D01*
X149138630Y-106289423D01*
X149191895Y-106361742D01*
X149249060Y-106439544D01*
X149308563Y-106520698D01*
X149368845Y-106603072D01*
X149428345Y-106684536D01*
X149485502Y-106762957D01*
X149538755Y-106836204D01*
X149586543Y-106902147D01*
X149627307Y-106958654D01*
X149659484Y-107003593D01*
X149681515Y-107034834D01*
X149686083Y-107041466D01*
X149709004Y-107078369D01*
X149735812Y-107126359D01*
X149761211Y-107175897D01*
X149764432Y-107182577D01*
X149786110Y-107230772D01*
X149798696Y-107268334D01*
X149804426Y-107304160D01*
X149805544Y-107346200D01*
X149804910Y-107422400D01*
X150959349Y-107422400D01*
X150868185Y-107328669D01*
X150821388Y-107278775D01*
X150771101Y-107222295D01*
X150725056Y-107168026D01*
X150704631Y-107142673D01*
X150674193Y-107103128D01*
X150634138Y-107049916D01*
X150585639Y-106984667D01*
X150529865Y-106909011D01*
X150467989Y-106824577D01*
X150401181Y-106732994D01*
X150330613Y-106635892D01*
X150257455Y-106534901D01*
X150182879Y-106431650D01*
X150108056Y-106327768D01*
X150034157Y-106224885D01*
X149962354Y-106124631D01*
X149893816Y-106028636D01*
X149829716Y-105938527D01*
X149771225Y-105855936D01*
X149719514Y-105782492D01*
X149675753Y-105719824D01*
X149641115Y-105669561D01*
X149616770Y-105633334D01*
X149603889Y-105612771D01*
X149602131Y-105608668D01*
X149610090Y-105597342D01*
X149630885Y-105570162D01*
X149663153Y-105528829D01*
X149705530Y-105475044D01*
X149756653Y-105410506D01*
X149815159Y-105336918D01*
X149879686Y-105255978D01*
X149948869Y-105169388D01*
X150021347Y-105078848D01*
X150095754Y-104986060D01*
X150155483Y-104911702D01*
X151166489Y-104911702D01*
X151172398Y-104924659D01*
X151186728Y-104946908D01*
X151187775Y-104948391D01*
X151206562Y-104978544D01*
X151226209Y-105015375D01*
X151230108Y-105023511D01*
X151233644Y-105031940D01*
X151236770Y-105042059D01*
X151239514Y-105055260D01*
X151241908Y-105072938D01*
X151243981Y-105096484D01*
X151245765Y-105127293D01*
X151247288Y-105166757D01*
X151248581Y-105216269D01*
X151249674Y-105277223D01*
X151250597Y-105351011D01*
X151251381Y-105439028D01*
X151252055Y-105542665D01*
X151252650Y-105663316D01*
X151253195Y-105802374D01*
X151253721Y-105961232D01*
X151254255Y-106140089D01*
X151254794Y-106325207D01*
X151255228Y-106489145D01*
X151255491Y-106633303D01*
X151255516Y-106759079D01*
X151255235Y-106867871D01*
X151254581Y-106961077D01*
X151253486Y-107040097D01*
X151251882Y-107106328D01*
X151249703Y-107161170D01*
X151246881Y-107206021D01*
X151243349Y-107242278D01*
X151239039Y-107271341D01*
X151233883Y-107294609D01*
X151227815Y-107313479D01*
X151220767Y-107329351D01*
X151212671Y-107343622D01*
X151203460Y-107357691D01*
X151194960Y-107370158D01*
X151177824Y-107396452D01*
X151167678Y-107414037D01*
X151166489Y-107417257D01*
X151177396Y-107418334D01*
X151208589Y-107419335D01*
X151257777Y-107420235D01*
X151322667Y-107421010D01*
X151400970Y-107421637D01*
X151490393Y-107422091D01*
X151588644Y-107422349D01*
X151657555Y-107422400D01*
X151762548Y-107422180D01*
X151859390Y-107421548D01*
X151945893Y-107420549D01*
X152019868Y-107419227D01*
X152079126Y-107417626D01*
X152121480Y-107415791D01*
X152144740Y-107413765D01*
X152148622Y-107412493D01*
X152140924Y-107397591D01*
X152132926Y-107389560D01*
X152119754Y-107372434D01*
X152102515Y-107342183D01*
X152090593Y-107317622D01*
X152063955Y-107258711D01*
X152060880Y-106081845D01*
X152057805Y-104904978D01*
X151612147Y-104904978D01*
X151514330Y-104905142D01*
X151423936Y-104905611D01*
X151343370Y-104906347D01*
X151275038Y-104907316D01*
X151221344Y-104908480D01*
X151184695Y-104909803D01*
X151167496Y-104911249D01*
X151166489Y-104911702D01*
X150155483Y-104911702D01*
X150170730Y-104892722D01*
X150244910Y-104800537D01*
X150316931Y-104711204D01*
X150385431Y-104626424D01*
X150449045Y-104547898D01*
X150506412Y-104477326D01*
X150556167Y-104416409D01*
X150596948Y-104366847D01*
X150614112Y-104346178D01*
X150700404Y-104245516D01*
X150777003Y-104162259D01*
X150845817Y-104094438D01*
X150908752Y-104040089D01*
X150918133Y-104032722D01*
X150957644Y-104002117D01*
X149825884Y-104001867D01*
X149831173Y-104049844D01*
X149827870Y-104107188D01*
X149806339Y-104175463D01*
X149766365Y-104255212D01*
X149721057Y-104327495D01*
X149704839Y-104350140D01*
X149676786Y-104387696D01*
X149638570Y-104438021D01*
X149591863Y-104498973D01*
X149538339Y-104568411D01*
X149479669Y-104644194D01*
X149417525Y-104724180D01*
X149353579Y-104806228D01*
X149289505Y-104888196D01*
X149226973Y-104967943D01*
X149167657Y-105043327D01*
X149113229Y-105112207D01*
X149065361Y-105172442D01*
X149025725Y-105221889D01*
X148995994Y-105258408D01*
X148977839Y-105279858D01*
X148974780Y-105283156D01*
X148971921Y-105275149D01*
X148969707Y-105244855D01*
X148968143Y-105192556D01*
X148967233Y-105118531D01*
X148966980Y-105023063D01*
X148967387Y-104906434D01*
X148968296Y-104786445D01*
X148969618Y-104654333D01*
X148971143Y-104542594D01*
X148973119Y-104449025D01*
X148975794Y-104371419D01*
X148979418Y-104307574D01*
X148984239Y-104255283D01*
X148990506Y-104212344D01*
X148998468Y-104176551D01*
X149008373Y-104145700D01*
X149020469Y-104117586D01*
X149035007Y-104090005D01*
X149049689Y-104064966D01*
X149087686Y-104001867D01*
X148027803Y-104001867D01*
X147724966Y-104001867D01*
X147724999Y-103995617D01*
X147725805Y-103893544D01*
X147726830Y-103804633D01*
X147728100Y-103727941D01*
X147729640Y-103662527D01*
X147731476Y-103607449D01*
X147733633Y-103561765D01*
X147736137Y-103524534D01*
X147739013Y-103494813D01*
X147742287Y-103471662D01*
X147745985Y-103454139D01*
X147750131Y-103441301D01*
X147754753Y-103432208D01*
X147759874Y-103425918D01*
X147765522Y-103421488D01*
X147771721Y-103417978D01*
X147778496Y-103414445D01*
X147784492Y-103410876D01*
X147789725Y-103408300D01*
X147797901Y-103405972D01*
X147810114Y-103403878D01*
X147827459Y-103402007D01*
X147851031Y-103400347D01*
X147881923Y-103398884D01*
X147921232Y-103397608D01*
X147970050Y-103396504D01*
X148029473Y-103395561D01*
X148100596Y-103394767D01*
X148184512Y-103394109D01*
X148282317Y-103393575D01*
X148395106Y-103393153D01*
X148523971Y-103392829D01*
X148670009Y-103392592D01*
X148834314Y-103392430D01*
X149017980Y-103392330D01*
X149222103Y-103392280D01*
X149433247Y-103392267D01*
X151053600Y-103392267D01*
X151053600Y-103489054D01*
G37*
D10*
%TO.C,GPS-NEO6M1*%
X100500000Y-135000000D02*
X131500000Y-135000000D01*
X131500000Y-135000000D02*
X131500000Y-109000000D01*
X131500000Y-109000000D02*
X100500000Y-109000000D01*
X100500000Y-109000000D02*
X100500000Y-135000000D01*
%TO.C,Lipo-1S-to-5V1*%
X134000000Y-94500000D02*
X142000000Y-94500000D01*
X142000000Y-94500000D02*
X142000000Y-107500000D01*
X142000000Y-107500000D02*
X134000000Y-107500000D01*
X134000000Y-107500000D02*
X134000000Y-94500000D01*
%TO.C,QMC5883_Mag1*%
X77920000Y-133580000D02*
X95920000Y-133580000D01*
X95920000Y-133580000D02*
X95920000Y-120580000D01*
X95920000Y-120580000D02*
X77920000Y-120580000D01*
X77920000Y-120580000D02*
X77920000Y-133580000D01*
%TO.C,BMP180_Press1*%
X156922000Y-114310000D02*
X143922000Y-114310000D01*
X143922000Y-114310000D02*
X143922000Y-125310000D01*
X143922000Y-125310000D02*
X156922000Y-125310000D01*
X156922000Y-125310000D02*
X156922000Y-114310000D01*
%TD*%
M02*
