M48
; DRILL file {KiCad 7.0.11+dfsg-1build4} date mar. 08 oct. 2024 05:42:03
; FORMAT={-:-/ absolute / inch / decimal}
; #@! TF.CreationDate,2024-10-08T05:42:03+02:00
; #@! TF.GenerationSoftware,Kicad,Pcbnew,7.0.11+dfsg-1build4
; #@! TF.FileFunction,Plated,1,2,PTH
FMAT,2
INCH
; #@! TA.AperFunction,Plated,PTH,ComponentDrill
T1C0.0315
%
G90
G05
T1
X3.7008Y-4.8031
X3.7008Y-4.9031
X3.7008Y-5.0031
X3.7008Y-5.1031
X3.7008Y-5.2031
X4.0094Y-5.4724
X4.4094Y-3.8976
X4.4094Y-5.4724
X4.5079Y-4.0551
X4.585Y-5.5118
X4.6063Y-3.8976
X4.685Y-5.5118
X4.9Y-5.5118
X5.0Y-5.5118
X5.1167Y-4.6531
X5.1167Y-4.7531
X5.1167Y-4.8531
X5.1167Y-4.9531
X5.215Y-5.5118
X5.315Y-5.5118
X5.3331Y-4.1929
X5.415Y-5.5118
X5.4331Y-4.1929
X5.515Y-5.5118
X5.5331Y-4.1929
X5.7236Y-5.5118
X5.748Y-4.8031
X5.748Y-4.9031
X5.748Y-5.0031
X5.748Y-5.1031
X5.8236Y-5.5118
X5.9236Y-5.5118
X6.0236Y-5.5118
X6.2567Y-5.5118
X6.3567Y-5.5118
X6.4567Y-5.5118
X6.5567Y-5.5118
X6.5748Y-5.1181
X6.5748Y-5.2181
X6.6142Y-4.0945
X6.6142Y-4.4488
X6.7717Y-5.1181
X6.7717Y-5.2181
M30
