%TF.GenerationSoftware,KiCad,Pcbnew,7.0.11+dfsg-1build4*%
%TF.CreationDate,2024-10-08T11:47:21+02:00*%
%TF.ProjectId,BertheVarioTac-Shema,42657274-6865-4566-9172-696f5461632d,rev?*%
%TF.SameCoordinates,Original*%
%TF.FileFunction,Copper,L2,Bot*%
%TF.FilePolarity,Positive*%
%FSLAX46Y46*%
G04 Gerber Fmt 4.6, Leading zero omitted, Abs format (unit mm)*
G04 Created by KiCad (PCBNEW 7.0.11+dfsg-1build4) date 2024-10-08 11:47:21*
%MOMM*%
%LPD*%
G01*
G04 APERTURE LIST*
%TA.AperFunction,ComponentPad*%
%ADD10C,1.800000*%
%TD*%
%TA.AperFunction,ComponentPad*%
%ADD11C,1.600000*%
%TD*%
%TA.AperFunction,ComponentPad*%
%ADD12O,1.600000X1.600000*%
%TD*%
%TA.AperFunction,Conductor*%
%ADD13C,1.500000*%
%TD*%
G04 APERTURE END LIST*
D10*
%TO.P,Usb-C-charger1,1,B-*%
%TO.N,GNDREF*%
X168000000Y-103000000D03*
%TO.P,Usb-C-charger1,2,+*%
%TO.N,Net-(BT1-+)*%
X168000000Y-112000000D03*
%TD*%
%TO.P,QMC5883_Mag1,1,VCC*%
%TO.N,Net-(BMP180_Press1-VIN)*%
X94000000Y-133160000D03*
%TO.P,QMC5883_Mag1,2,GND*%
%TO.N,GNDREF*%
X94000000Y-130620000D03*
%TO.P,QMC5883_Mag1,3,SCL*%
%TO.N,Net-(BMP180_Press1-SCL)*%
X94000000Y-128080000D03*
%TO.P,QMC5883_Mag1,4,SDA*%
%TO.N,Net-(BMP180_Press1-SDA)*%
X94000000Y-125540000D03*
%TO.P,QMC5883_Mag1,5*%
%TO.N,N/C*%
X94000000Y-123000000D03*
%TD*%
%TO.P,GPS-NEO6M1,1,GND*%
%TO.N,GNDREF*%
X134000000Y-126620000D03*
%TO.P,GPS-NEO6M1,2,TX*%
%TO.N,Net-(GPS-NEO6M1-TX)*%
X134000000Y-124080000D03*
%TO.P,GPS-NEO6M1,3,RX*%
%TO.N,unconnected-(GPS-NEO6M1-RX-Pad3)*%
X134000000Y-121540000D03*
%TO.P,GPS-NEO6M1,4,VCC*%
%TO.N,Net-(BMP180_Press1-VIN)*%
X134000000Y-119000000D03*
%TD*%
%TO.P,Lipo-1S-to-5V1,1,GND*%
%TO.N,GNDREF*%
X135460000Y-106500000D03*
%TO.P,Lipo-1S-to-5V1,2,IN_3.7v*%
%TO.N,Net-(Lipo-1S-to-5V1-IN_3.7v)*%
X138000000Y-106500000D03*
%TO.P,Lipo-1S-to-5V1,3,OUT_5V*%
%TO.N,Net-(Lipo-1S-to-5V1-OUT_5V)*%
X140540000Y-106500000D03*
%TD*%
%TO.P,BMP180_Press1,1,SDA*%
%TO.N,Net-(BMP180_Press1-SDA)*%
X145702000Y-125200000D03*
%TO.P,BMP180_Press1,2,SCL*%
%TO.N,Net-(BMP180_Press1-SCL)*%
X145702000Y-127740000D03*
%TO.P,BMP180_Press1,3,GND*%
%TO.N,GNDREF*%
X145702000Y-130280000D03*
%TO.P,BMP180_Press1,4,VIN*%
%TO.N,Net-(BMP180_Press1-VIN)*%
X145702000Y-132820000D03*
%TD*%
%TO.P,SW1,1*%
%TO.N,Net-(Lipo-1S-to-5V1-IN_3.7v)*%
X167000000Y-132540000D03*
%TO.P,SW1,2*%
%TO.N,Net-(BT1-+)*%
X167000000Y-130000000D03*
%TD*%
D11*
%TO.P,R1,1*%
%TO.N,Net-(R1-Pad1)*%
X101840000Y-139000000D03*
D12*
%TO.P,R1,2*%
%TO.N,Net-(P4-Pin_1)*%
X112000000Y-139000000D03*
%TD*%
D10*
%TO.P,CN1,1,Pin_1*%
%TO.N,Net-(BMP180_Press1-VIN)*%
X153000000Y-140000000D03*
%TO.P,CN1,2,Pin_2*%
%TO.N,Net-(BMP180_Press1-SDA)*%
X150460000Y-140000000D03*
%TO.P,CN1,3,Pin_3*%
%TO.N,Net-(BMP180_Press1-SCL)*%
X147920000Y-140000000D03*
%TO.P,CN1,4,Pin_4*%
%TO.N,GNDREF*%
X145380000Y-140000000D03*
%TD*%
%TO.P,S1,1,1*%
%TO.N,Net-(P4-Pin_2)*%
X119000000Y-140000000D03*
%TO.P,S1,2,2*%
%TO.N,Net-(R1-Pad1)*%
X116460000Y-140000000D03*
%TD*%
%TO.P,P4,1,Pin_1*%
%TO.N,Net-(P4-Pin_1)*%
X127000000Y-140000000D03*
%TO.P,P4,2,Pin_2*%
%TO.N,Net-(P4-Pin_2)*%
X124460000Y-140000000D03*
%TD*%
%TO.P,BT1,1,+*%
%TO.N,Net-(BT1-+)*%
X172000000Y-130000000D03*
%TO.P,BT1,2,-*%
%TO.N,GNDREF*%
X172000000Y-132540000D03*
%TD*%
%TO.P,P1,1,Pin_1*%
%TO.N,Net-(Lipo-1S-to-5V1-OUT_5V)*%
X166540000Y-140000000D03*
%TO.P,P1,2,Pin_2*%
%TO.N,Net-(GPS-NEO6M1-TX)*%
X164000000Y-140000000D03*
%TO.P,P1,3,Pin_3*%
%TO.N,unconnected-(P1-Pin_3-Pad3)*%
X161460000Y-140000000D03*
%TO.P,P1,4,Pin_4*%
%TO.N,GNDREF*%
X158920000Y-140000000D03*
%TD*%
%TO.P,P5,1,1*%
%TO.N,Net-(Lipo-1S-to-5V1-IN_3.7v)*%
X112000000Y-99000000D03*
%TO.P,P5,2,2*%
%TO.N,Net-(P3-Pin_3)*%
X114500000Y-103000000D03*
%TO.P,P5,3,3*%
%TO.N,GNDREF*%
X117000000Y-99000000D03*
%TD*%
%TO.P,P3,1,Pin_1*%
%TO.N,unconnected-(P3-Pin_1-Pad1)*%
X140080000Y-140000000D03*
%TO.P,P3,2,Pin_2*%
%TO.N,unconnected-(P3-Pin_2-Pad2)*%
X137540000Y-140000000D03*
%TO.P,P3,3,Pin_3*%
%TO.N,Net-(P3-Pin_3)*%
X135000000Y-140000000D03*
%TO.P,P3,4,Pin_4*%
%TO.N,unconnected-(P3-Pin_4-Pad4)*%
X132460000Y-140000000D03*
%TD*%
D13*
%TO.N,Net-(Lipo-1S-to-5V1-IN_3.7v)*%
X138000000Y-106412700D02*
X138000000Y-106500000D01*
X132511800Y-100924500D02*
X138000000Y-106412700D01*
X113924500Y-100924500D02*
X132511800Y-100924500D01*
X112000000Y-99000000D02*
X113924500Y-100924500D01*
%TO.N,Net-(BMP180_Press1-VIN)*%
X134110300Y-119000000D02*
X134000000Y-119000000D01*
X141747800Y-126637500D02*
X134110300Y-119000000D01*
X141747800Y-128944700D02*
X141747800Y-126637500D01*
X145623100Y-132820000D02*
X141747800Y-128944700D01*
X145702000Y-132820000D02*
X145623100Y-132820000D01*
X133846300Y-119000000D02*
X134000000Y-119000000D01*
X132145700Y-120700600D02*
X133846300Y-119000000D01*
X132145700Y-127406900D02*
X132145700Y-120700600D01*
X142810100Y-138071300D02*
X132145700Y-127406900D01*
X151189400Y-138071300D02*
X142810100Y-138071300D01*
X153000000Y-139881900D02*
X151189400Y-138071300D01*
X153000000Y-140000000D02*
X153000000Y-139881900D01*
%TO.N,Net-(P3-Pin_3)*%
X135000000Y-133497400D02*
X135000000Y-140000000D01*
X114500000Y-112997400D02*
X135000000Y-133497400D01*
X114500000Y-103000000D02*
X114500000Y-112997400D01*
%TO.N,Net-(GPS-NEO6M1-TX)*%
X134330800Y-124080000D02*
X134000000Y-124080000D01*
X146386800Y-136136000D02*
X134330800Y-124080000D01*
X160251600Y-136136000D02*
X146386800Y-136136000D01*
X164000000Y-139884400D02*
X160251600Y-136136000D01*
X164000000Y-140000000D02*
X164000000Y-139884400D01*
%TO.N,Net-(Lipo-1S-to-5V1-OUT_5V)*%
X140540000Y-109939000D02*
X140540000Y-106500000D01*
X166540000Y-135939000D02*
X140540000Y-109939000D01*
X166540000Y-140000000D02*
X166540000Y-135939000D01*
%TO.N,Net-(P4-Pin_1)*%
X127000000Y-139897600D02*
X127000000Y-140000000D01*
X125235700Y-138133300D02*
X127000000Y-139897600D01*
X115166700Y-138133300D02*
X125235700Y-138133300D01*
X114300000Y-139000000D02*
X115166700Y-138133300D01*
X112000000Y-139000000D02*
X114300000Y-139000000D01*
%TD*%
%TA.AperFunction,Conductor*%
%TO.N,GNDREF*%
G36*
X176298004Y-93577910D02*
G01*
X176365031Y-93597625D01*
X176410762Y-93650450D01*
X176421944Y-93701997D01*
X176389183Y-140264953D01*
X176369451Y-140331979D01*
X176316615Y-140377697D01*
X176264954Y-140388866D01*
X168048551Y-140373692D01*
X167981548Y-140353883D01*
X167935891Y-140300995D01*
X167926739Y-140236501D01*
X167925711Y-140236416D01*
X167926085Y-140231893D01*
X167926075Y-140231818D01*
X167926111Y-140231586D01*
X167945300Y-140000006D01*
X167945300Y-139999993D01*
X167926135Y-139768702D01*
X167926133Y-139768691D01*
X167869157Y-139543699D01*
X167800944Y-139388189D01*
X167790500Y-139338379D01*
X167790500Y-138000000D01*
X171894592Y-138000000D01*
X171914201Y-138286680D01*
X171914201Y-138286684D01*
X171914202Y-138286686D01*
X171926790Y-138347265D01*
X171972666Y-138568034D01*
X171972667Y-138568037D01*
X172068894Y-138838793D01*
X172068893Y-138838793D01*
X172201098Y-139093935D01*
X172366812Y-139328700D01*
X172420329Y-139386002D01*
X172562947Y-139538708D01*
X172785853Y-139720055D01*
X172981677Y-139839139D01*
X173031382Y-139869365D01*
X173218237Y-139950526D01*
X173294942Y-139983844D01*
X173571642Y-140061371D01*
X173821920Y-140095771D01*
X173856321Y-140100500D01*
X173856322Y-140100500D01*
X174143679Y-140100500D01*
X174175079Y-140096184D01*
X174428358Y-140061371D01*
X174705058Y-139983844D01*
X174818015Y-139934779D01*
X174968617Y-139869365D01*
X174968620Y-139869363D01*
X174968625Y-139869361D01*
X175214147Y-139720055D01*
X175437053Y-139538708D01*
X175633189Y-139328698D01*
X175798901Y-139093936D01*
X175931104Y-138838797D01*
X176027334Y-138568032D01*
X176085798Y-138286686D01*
X176105408Y-138000000D01*
X176085798Y-137713314D01*
X176027334Y-137431968D01*
X176024082Y-137422819D01*
X175938619Y-137182349D01*
X175931105Y-137161206D01*
X175931106Y-137161206D01*
X175798901Y-136906064D01*
X175633187Y-136671299D01*
X175554554Y-136587105D01*
X175437053Y-136461292D01*
X175214147Y-136279945D01*
X175214146Y-136279944D01*
X174968617Y-136130634D01*
X174705063Y-136016158D01*
X174705061Y-136016157D01*
X174705058Y-136016156D01*
X174530245Y-135967176D01*
X174428364Y-135938630D01*
X174428359Y-135938629D01*
X174428358Y-135938629D01*
X174286018Y-135919064D01*
X174143679Y-135899500D01*
X174143678Y-135899500D01*
X173856322Y-135899500D01*
X173856321Y-135899500D01*
X173571642Y-135938629D01*
X173571635Y-135938630D01*
X173363861Y-135996845D01*
X173294942Y-136016156D01*
X173294939Y-136016156D01*
X173294936Y-136016158D01*
X173294935Y-136016158D01*
X173031382Y-136130634D01*
X172785853Y-136279944D01*
X172562950Y-136461289D01*
X172366812Y-136671299D01*
X172201098Y-136906064D01*
X172068894Y-137161206D01*
X171972667Y-137431962D01*
X171972666Y-137431965D01*
X171914201Y-137713319D01*
X171894592Y-138000000D01*
X167790500Y-138000000D01*
X167790500Y-136016185D01*
X167791280Y-136002300D01*
X167795238Y-135967173D01*
X167790781Y-135901061D01*
X167790500Y-135892720D01*
X167790500Y-135882852D01*
X167790500Y-135882845D01*
X167786844Y-135842224D01*
X167786630Y-135839498D01*
X167780098Y-135742597D01*
X167780096Y-135742584D01*
X167779028Y-135738345D01*
X167775768Y-135719155D01*
X167775377Y-135714815D01*
X167775377Y-135714812D01*
X167749507Y-135621079D01*
X167748856Y-135618610D01*
X167725096Y-135524317D01*
X167723289Y-135520339D01*
X167716653Y-135502034D01*
X167715493Y-135497831D01*
X167715493Y-135497830D01*
X167673298Y-135410211D01*
X167672200Y-135407864D01*
X167632007Y-135319375D01*
X167629518Y-135315782D01*
X167619728Y-135298970D01*
X167617829Y-135295027D01*
X167617827Y-135295024D01*
X167617825Y-135295020D01*
X167617824Y-135295019D01*
X167560740Y-135216451D01*
X167559128Y-135214180D01*
X167539567Y-135185945D01*
X167503820Y-135134346D01*
X167500729Y-135131255D01*
X167488093Y-135116461D01*
X167485521Y-135112921D01*
X167485518Y-135112918D01*
X167415299Y-135045781D01*
X167413310Y-135043836D01*
X166450418Y-134080944D01*
X166416933Y-134019621D01*
X166421917Y-133949929D01*
X166463789Y-133893996D01*
X166529253Y-133869579D01*
X166578362Y-133875982D01*
X166655015Y-133902297D01*
X166655017Y-133902297D01*
X166655019Y-133902298D01*
X166883951Y-133940500D01*
X166883952Y-133940500D01*
X167116048Y-133940500D01*
X167116049Y-133940500D01*
X167344981Y-133902298D01*
X167564503Y-133826936D01*
X167768626Y-133716470D01*
X167769170Y-133716047D01*
X167897325Y-133616300D01*
X167951784Y-133573913D01*
X168108979Y-133403153D01*
X168235924Y-133208849D01*
X168329157Y-132996300D01*
X168386134Y-132771305D01*
X168386135Y-132771297D01*
X168405300Y-132540006D01*
X168405300Y-132539993D01*
X168386135Y-132308702D01*
X168386133Y-132308691D01*
X168329157Y-132083699D01*
X168235924Y-131871151D01*
X168108983Y-131676852D01*
X168108980Y-131676849D01*
X168108979Y-131676847D01*
X167951784Y-131506087D01*
X167774180Y-131367853D01*
X167733368Y-131311143D01*
X167729693Y-131241370D01*
X167764324Y-131180687D01*
X167774181Y-131172146D01*
X167951784Y-131033913D01*
X168108979Y-130863153D01*
X168235924Y-130668849D01*
X168329157Y-130456300D01*
X168386134Y-130231305D01*
X168387071Y-130220000D01*
X168405300Y-130000006D01*
X170594700Y-130000006D01*
X170613864Y-130231297D01*
X170613866Y-130231308D01*
X170670842Y-130456300D01*
X170764075Y-130668848D01*
X170891016Y-130863147D01*
X170891019Y-130863151D01*
X170891021Y-130863153D01*
X171048216Y-131033913D01*
X171225819Y-131172146D01*
X171226225Y-131172462D01*
X171267038Y-131229173D01*
X171270713Y-131298946D01*
X171236082Y-131359629D01*
X171226225Y-131368170D01*
X171201201Y-131387646D01*
X171201200Y-131387647D01*
X171955600Y-132142046D01*
X171874852Y-132154835D01*
X171761955Y-132212359D01*
X171672359Y-132301955D01*
X171614835Y-132414852D01*
X171602046Y-132495600D01*
X170848811Y-131742365D01*
X170764516Y-131871390D01*
X170671317Y-132083864D01*
X170614361Y-132308781D01*
X170595202Y-132539994D01*
X170595202Y-132540005D01*
X170614361Y-132771218D01*
X170671317Y-132996135D01*
X170764515Y-133208606D01*
X170848812Y-133337633D01*
X171602046Y-132584399D01*
X171614835Y-132665148D01*
X171672359Y-132778045D01*
X171761955Y-132867641D01*
X171874852Y-132925165D01*
X171955599Y-132937953D01*
X171201201Y-133692351D01*
X171231649Y-133716050D01*
X171435697Y-133826476D01*
X171435706Y-133826479D01*
X171655139Y-133901811D01*
X171883993Y-133940000D01*
X172116007Y-133940000D01*
X172344860Y-133901811D01*
X172564293Y-133826479D01*
X172564301Y-133826476D01*
X172768355Y-133716047D01*
X172798797Y-133692351D01*
X172798798Y-133692350D01*
X172044401Y-132937953D01*
X172125148Y-132925165D01*
X172238045Y-132867641D01*
X172327641Y-132778045D01*
X172385165Y-132665148D01*
X172397953Y-132584400D01*
X173151186Y-133337633D01*
X173235482Y-133208611D01*
X173328682Y-132996135D01*
X173385638Y-132771218D01*
X173404798Y-132540005D01*
X173404798Y-132539994D01*
X173385638Y-132308781D01*
X173328682Y-132083864D01*
X173235484Y-131871393D01*
X173151186Y-131742365D01*
X172397953Y-132495598D01*
X172385165Y-132414852D01*
X172327641Y-132301955D01*
X172238045Y-132212359D01*
X172125148Y-132154835D01*
X172044400Y-132142046D01*
X172798797Y-131387647D01*
X172798797Y-131387646D01*
X172773773Y-131368169D01*
X172732961Y-131311459D01*
X172729286Y-131241686D01*
X172763918Y-131181003D01*
X172773760Y-131172473D01*
X172951784Y-131033913D01*
X173108979Y-130863153D01*
X173235924Y-130668849D01*
X173329157Y-130456300D01*
X173386134Y-130231305D01*
X173387071Y-130220000D01*
X173405300Y-130000006D01*
X173405300Y-129999993D01*
X173386135Y-129768702D01*
X173386133Y-129768691D01*
X173329157Y-129543699D01*
X173235924Y-129331151D01*
X173108983Y-129136852D01*
X173108980Y-129136849D01*
X173108979Y-129136847D01*
X172951784Y-128966087D01*
X172951779Y-128966083D01*
X172951777Y-128966081D01*
X172768634Y-128823535D01*
X172768628Y-128823531D01*
X172564504Y-128713064D01*
X172564495Y-128713061D01*
X172344984Y-128637702D01*
X172137904Y-128603147D01*
X172116049Y-128599500D01*
X171883951Y-128599500D01*
X171862096Y-128603147D01*
X171655015Y-128637702D01*
X171435504Y-128713061D01*
X171435495Y-128713064D01*
X171231371Y-128823531D01*
X171231365Y-128823535D01*
X171048222Y-128966081D01*
X171048219Y-128966084D01*
X170891016Y-129136852D01*
X170764075Y-129331151D01*
X170670842Y-129543699D01*
X170613866Y-129768691D01*
X170613864Y-129768702D01*
X170594700Y-129999993D01*
X170594700Y-130000006D01*
X168405300Y-130000006D01*
X168405300Y-129999993D01*
X168386135Y-129768702D01*
X168386133Y-129768691D01*
X168329157Y-129543699D01*
X168235924Y-129331151D01*
X168108983Y-129136852D01*
X168108980Y-129136849D01*
X168108979Y-129136847D01*
X167951784Y-128966087D01*
X167951779Y-128966083D01*
X167951777Y-128966081D01*
X167768634Y-128823535D01*
X167768628Y-128823531D01*
X167564504Y-128713064D01*
X167564495Y-128713061D01*
X167344984Y-128637702D01*
X167137904Y-128603147D01*
X167116049Y-128599500D01*
X166883951Y-128599500D01*
X166862096Y-128603147D01*
X166655015Y-128637702D01*
X166435504Y-128713061D01*
X166435495Y-128713064D01*
X166231371Y-128823531D01*
X166231365Y-128823535D01*
X166048222Y-128966081D01*
X166048219Y-128966084D01*
X165891016Y-129136852D01*
X165764075Y-129331151D01*
X165670842Y-129543699D01*
X165613866Y-129768691D01*
X165613864Y-129768702D01*
X165594700Y-129999993D01*
X165594700Y-130000006D01*
X165613864Y-130231297D01*
X165613866Y-130231308D01*
X165670842Y-130456300D01*
X165764075Y-130668848D01*
X165891016Y-130863147D01*
X165891019Y-130863151D01*
X165891021Y-130863153D01*
X166048216Y-131033913D01*
X166048219Y-131033915D01*
X166048222Y-131033918D01*
X166225818Y-131172147D01*
X166266631Y-131228857D01*
X166270306Y-131298630D01*
X166235674Y-131359313D01*
X166225818Y-131367853D01*
X166048222Y-131506081D01*
X166048219Y-131506084D01*
X165891016Y-131676852D01*
X165764075Y-131871151D01*
X165670842Y-132083699D01*
X165613866Y-132308691D01*
X165613864Y-132308702D01*
X165594700Y-132539993D01*
X165594700Y-132540006D01*
X165613864Y-132771297D01*
X165613866Y-132771308D01*
X165663742Y-132968260D01*
X165661117Y-133038080D01*
X165621161Y-133095397D01*
X165556560Y-133122014D01*
X165487823Y-133109480D01*
X165455855Y-133086381D01*
X144369480Y-112000006D01*
X166594700Y-112000006D01*
X166613864Y-112231297D01*
X166613866Y-112231308D01*
X166670842Y-112456300D01*
X166764075Y-112668848D01*
X166891016Y-112863147D01*
X166891019Y-112863151D01*
X166891021Y-112863153D01*
X167048216Y-113033913D01*
X167048219Y-113033915D01*
X167048222Y-113033918D01*
X167231365Y-113176464D01*
X167231371Y-113176468D01*
X167231374Y-113176470D01*
X167435497Y-113286936D01*
X167525736Y-113317915D01*
X167655015Y-113362297D01*
X167655017Y-113362297D01*
X167655019Y-113362298D01*
X167883951Y-113400500D01*
X167883952Y-113400500D01*
X168116048Y-113400500D01*
X168116049Y-113400500D01*
X168344981Y-113362298D01*
X168564503Y-113286936D01*
X168768626Y-113176470D01*
X168951784Y-113033913D01*
X169108979Y-112863153D01*
X169235924Y-112668849D01*
X169329157Y-112456300D01*
X169386134Y-112231305D01*
X169405300Y-112000000D01*
X169405300Y-111999993D01*
X169386135Y-111768702D01*
X169386133Y-111768691D01*
X169329157Y-111543699D01*
X169235924Y-111331151D01*
X169108983Y-111136852D01*
X169108980Y-111136849D01*
X169108979Y-111136847D01*
X168951784Y-110966087D01*
X168951779Y-110966083D01*
X168951777Y-110966081D01*
X168768634Y-110823535D01*
X168768628Y-110823531D01*
X168564504Y-110713064D01*
X168564495Y-110713061D01*
X168344984Y-110637702D01*
X168173282Y-110609050D01*
X168116049Y-110599500D01*
X167883951Y-110599500D01*
X167838164Y-110607140D01*
X167655015Y-110637702D01*
X167435504Y-110713061D01*
X167435495Y-110713064D01*
X167231371Y-110823531D01*
X167231365Y-110823535D01*
X167048222Y-110966081D01*
X167048219Y-110966084D01*
X166891016Y-111136852D01*
X166764075Y-111331151D01*
X166670842Y-111543699D01*
X166613866Y-111768691D01*
X166613864Y-111768702D01*
X166594700Y-111999993D01*
X166594700Y-112000006D01*
X144369480Y-112000006D01*
X141826819Y-109457345D01*
X141793334Y-109396022D01*
X141790500Y-109369664D01*
X141790500Y-107161619D01*
X141800943Y-107111810D01*
X141869157Y-106956300D01*
X141926134Y-106731305D01*
X141926135Y-106731297D01*
X141945300Y-106500006D01*
X141945300Y-106499993D01*
X141926135Y-106268702D01*
X141926133Y-106268691D01*
X141869157Y-106043699D01*
X141775924Y-105831151D01*
X141648983Y-105636852D01*
X141648980Y-105636849D01*
X141648979Y-105636847D01*
X141491784Y-105466087D01*
X141491779Y-105466083D01*
X141491777Y-105466081D01*
X141308634Y-105323535D01*
X141308628Y-105323531D01*
X141104504Y-105213064D01*
X141104495Y-105213061D01*
X140884984Y-105137702D01*
X140713282Y-105109050D01*
X140656049Y-105099500D01*
X140423951Y-105099500D01*
X140378164Y-105107140D01*
X140195015Y-105137702D01*
X139975504Y-105213061D01*
X139975495Y-105213064D01*
X139771371Y-105323531D01*
X139771365Y-105323535D01*
X139588222Y-105466081D01*
X139588219Y-105466084D01*
X139431016Y-105636852D01*
X139373809Y-105724416D01*
X139320662Y-105769773D01*
X139251431Y-105779197D01*
X139188095Y-105749695D01*
X139166191Y-105724416D01*
X139108983Y-105636852D01*
X139108980Y-105636849D01*
X139108979Y-105636847D01*
X138951784Y-105466087D01*
X138951779Y-105466083D01*
X138951777Y-105466081D01*
X138768634Y-105323535D01*
X138768628Y-105323531D01*
X138589837Y-105226774D01*
X138561174Y-105205400D01*
X136355779Y-103000005D01*
X166595202Y-103000005D01*
X166614361Y-103231218D01*
X166671317Y-103456135D01*
X166764515Y-103668606D01*
X166848812Y-103797633D01*
X167602046Y-103044399D01*
X167614835Y-103125148D01*
X167672359Y-103238045D01*
X167761955Y-103327641D01*
X167874852Y-103385165D01*
X167955599Y-103397953D01*
X167201201Y-104152351D01*
X167231649Y-104176050D01*
X167435697Y-104286476D01*
X167435706Y-104286479D01*
X167655139Y-104361811D01*
X167883993Y-104400000D01*
X168116007Y-104400000D01*
X168344860Y-104361811D01*
X168564293Y-104286479D01*
X168564301Y-104286476D01*
X168768355Y-104176047D01*
X168798797Y-104152351D01*
X168798798Y-104152350D01*
X168044401Y-103397953D01*
X168125148Y-103385165D01*
X168238045Y-103327641D01*
X168327641Y-103238045D01*
X168385165Y-103125148D01*
X168397953Y-103044400D01*
X169151186Y-103797633D01*
X169235482Y-103668611D01*
X169328682Y-103456135D01*
X169385638Y-103231218D01*
X169404798Y-103000005D01*
X169404798Y-102999994D01*
X169385638Y-102768781D01*
X169328682Y-102543864D01*
X169235484Y-102331393D01*
X169151186Y-102202365D01*
X168397953Y-102955598D01*
X168385165Y-102874852D01*
X168327641Y-102761955D01*
X168238045Y-102672359D01*
X168125148Y-102614835D01*
X168044400Y-102602046D01*
X168798797Y-101847647D01*
X168798797Y-101847645D01*
X168768360Y-101823955D01*
X168768354Y-101823951D01*
X168564302Y-101713523D01*
X168564293Y-101713520D01*
X168344860Y-101638188D01*
X168116007Y-101600000D01*
X167883993Y-101600000D01*
X167655139Y-101638188D01*
X167435706Y-101713520D01*
X167435697Y-101713523D01*
X167231650Y-101823949D01*
X167201200Y-101847647D01*
X167955600Y-102602046D01*
X167874852Y-102614835D01*
X167761955Y-102672359D01*
X167672359Y-102761955D01*
X167614835Y-102874852D01*
X167602046Y-102955600D01*
X166848811Y-102202365D01*
X166764516Y-102331390D01*
X166671317Y-102543864D01*
X166614361Y-102768781D01*
X166595202Y-102999994D01*
X166595202Y-103000005D01*
X136355779Y-103000005D01*
X133450616Y-100094842D01*
X133441349Y-100084473D01*
X133419306Y-100056832D01*
X133369403Y-100013232D01*
X133363307Y-100007533D01*
X133356332Y-100000558D01*
X133356321Y-100000548D01*
X133325055Y-99974445D01*
X133322939Y-99972638D01*
X133249803Y-99908740D01*
X133249797Y-99908736D01*
X133249796Y-99908735D01*
X133246041Y-99906491D01*
X133230173Y-99895232D01*
X133226819Y-99892432D01*
X133226818Y-99892431D01*
X133226813Y-99892427D01*
X133142348Y-99844501D01*
X133139944Y-99843101D01*
X133056563Y-99793284D01*
X133052469Y-99791748D01*
X133034844Y-99783502D01*
X133031045Y-99781346D01*
X132939369Y-99749267D01*
X132936753Y-99748319D01*
X132845829Y-99714194D01*
X132845819Y-99714191D01*
X132841523Y-99713412D01*
X132822718Y-99708449D01*
X132818584Y-99707002D01*
X132818577Y-99707001D01*
X132722648Y-99691807D01*
X132719905Y-99691341D01*
X132624350Y-99674000D01*
X132624347Y-99674000D01*
X132619972Y-99674000D01*
X132600569Y-99672472D01*
X132596260Y-99671789D01*
X132499159Y-99673969D01*
X132496377Y-99674000D01*
X118422914Y-99674000D01*
X118355875Y-99654315D01*
X118310120Y-99601511D01*
X118300176Y-99532353D01*
X118309358Y-99500189D01*
X118328683Y-99456132D01*
X118385638Y-99231218D01*
X118404798Y-99000005D01*
X118404798Y-98999994D01*
X118385638Y-98768781D01*
X118328682Y-98543864D01*
X118235484Y-98331393D01*
X118151186Y-98202365D01*
X117397953Y-98955598D01*
X117385165Y-98874852D01*
X117327641Y-98761955D01*
X117238045Y-98672359D01*
X117125148Y-98614835D01*
X117044400Y-98602046D01*
X117798797Y-97847647D01*
X117798797Y-97847645D01*
X117768360Y-97823955D01*
X117768354Y-97823951D01*
X117564302Y-97713523D01*
X117564293Y-97713520D01*
X117344860Y-97638188D01*
X117116007Y-97600000D01*
X116883993Y-97600000D01*
X116655139Y-97638188D01*
X116435706Y-97713520D01*
X116435697Y-97713523D01*
X116231650Y-97823949D01*
X116201200Y-97847647D01*
X116955600Y-98602046D01*
X116874852Y-98614835D01*
X116761955Y-98672359D01*
X116672359Y-98761955D01*
X116614835Y-98874852D01*
X116602046Y-98955600D01*
X115848811Y-98202365D01*
X115764516Y-98331390D01*
X115671317Y-98543864D01*
X115614361Y-98768781D01*
X115595202Y-98999994D01*
X115595202Y-99000005D01*
X115614361Y-99231218D01*
X115671316Y-99456132D01*
X115690642Y-99500189D01*
X115699545Y-99569489D01*
X115669568Y-99632602D01*
X115610229Y-99669489D01*
X115577086Y-99674000D01*
X114493836Y-99674000D01*
X114426797Y-99654315D01*
X114406155Y-99637681D01*
X113358321Y-98589847D01*
X113332182Y-98547972D01*
X113331217Y-98548396D01*
X113235924Y-98331151D01*
X113108983Y-98136852D01*
X113108980Y-98136849D01*
X113108979Y-98136847D01*
X112951784Y-97966087D01*
X112951779Y-97966083D01*
X112951777Y-97966081D01*
X112768634Y-97823535D01*
X112768628Y-97823531D01*
X112564504Y-97713064D01*
X112564495Y-97713061D01*
X112344984Y-97637702D01*
X112173282Y-97609050D01*
X112116049Y-97599500D01*
X111883951Y-97599500D01*
X111838164Y-97607140D01*
X111655015Y-97637702D01*
X111435504Y-97713061D01*
X111435495Y-97713064D01*
X111231371Y-97823531D01*
X111231365Y-97823535D01*
X111048222Y-97966081D01*
X111048219Y-97966084D01*
X111048216Y-97966086D01*
X111048216Y-97966087D01*
X111031870Y-97983844D01*
X110891016Y-98136852D01*
X110764075Y-98331151D01*
X110670842Y-98543699D01*
X110613866Y-98768691D01*
X110613864Y-98768702D01*
X110594700Y-98999993D01*
X110594700Y-99000006D01*
X110613864Y-99231297D01*
X110613866Y-99231308D01*
X110670842Y-99456300D01*
X110764075Y-99668848D01*
X110891016Y-99863147D01*
X110891019Y-99863151D01*
X110891021Y-99863153D01*
X111048216Y-100033913D01*
X111048219Y-100033915D01*
X111048222Y-100033918D01*
X111231365Y-100176464D01*
X111231371Y-100176468D01*
X111231374Y-100176470D01*
X111435497Y-100286936D01*
X111519978Y-100315938D01*
X111534699Y-100320992D01*
X111582118Y-100350592D01*
X112985682Y-101754156D01*
X112994948Y-101764524D01*
X113016992Y-101792166D01*
X113066895Y-101835766D01*
X113072991Y-101841465D01*
X113079971Y-101848445D01*
X113111298Y-101874598D01*
X113113364Y-101876364D01*
X113186501Y-101940263D01*
X113190250Y-101942503D01*
X113206124Y-101953765D01*
X113209481Y-101956568D01*
X113294015Y-102004534D01*
X113296333Y-102005884D01*
X113307067Y-102012298D01*
X113315168Y-102017138D01*
X113362620Y-102068421D01*
X113374814Y-102137219D01*
X113355375Y-102191405D01*
X113264075Y-102331151D01*
X113170842Y-102543699D01*
X113113866Y-102768691D01*
X113113864Y-102768702D01*
X113094700Y-102999993D01*
X113094700Y-103000006D01*
X113113864Y-103231297D01*
X113113866Y-103231308D01*
X113170801Y-103456135D01*
X113170843Y-103456300D01*
X113239056Y-103611810D01*
X113249500Y-103661619D01*
X113249500Y-112920214D01*
X113248720Y-112934098D01*
X113244762Y-112969222D01*
X113244761Y-112969230D01*
X113248922Y-113030941D01*
X113249123Y-113033915D01*
X113249219Y-113035331D01*
X113249500Y-113043673D01*
X113249500Y-113053556D01*
X113253153Y-113094149D01*
X113253371Y-113096921D01*
X113259903Y-113193807D01*
X113259903Y-113193812D01*
X113260972Y-113198052D01*
X113264230Y-113217224D01*
X113264623Y-113221590D01*
X113290465Y-113315224D01*
X113291158Y-113317847D01*
X113302359Y-113362297D01*
X113314903Y-113412081D01*
X113316715Y-113416070D01*
X113323340Y-113434344D01*
X113324504Y-113438562D01*
X113324507Y-113438570D01*
X113366657Y-113526098D01*
X113367835Y-113528616D01*
X113407993Y-113617026D01*
X113407994Y-113617029D01*
X113410483Y-113620621D01*
X113420269Y-113637426D01*
X113422166Y-113641365D01*
X113422171Y-113641373D01*
X113479311Y-113720020D01*
X113480835Y-113722168D01*
X113518433Y-113776438D01*
X113536181Y-113802056D01*
X113539273Y-113805148D01*
X113551907Y-113819939D01*
X113554478Y-113823478D01*
X113554482Y-113823482D01*
X113624699Y-113890617D01*
X113626688Y-113892562D01*
X133713181Y-133979055D01*
X133746666Y-134040378D01*
X133749500Y-134066736D01*
X133749500Y-139015160D01*
X133729815Y-139082199D01*
X133677011Y-139127954D01*
X133607853Y-139137898D01*
X133544297Y-139108873D01*
X133534270Y-139099143D01*
X133529084Y-139093509D01*
X133411784Y-138966087D01*
X133411779Y-138966083D01*
X133411777Y-138966081D01*
X133228634Y-138823535D01*
X133228628Y-138823531D01*
X133024504Y-138713064D01*
X133024495Y-138713061D01*
X132804984Y-138637702D01*
X132633282Y-138609050D01*
X132576049Y-138599500D01*
X132343951Y-138599500D01*
X132298164Y-138607140D01*
X132115015Y-138637702D01*
X131895504Y-138713061D01*
X131895495Y-138713064D01*
X131691371Y-138823531D01*
X131691365Y-138823535D01*
X131508222Y-138966081D01*
X131508219Y-138966084D01*
X131508216Y-138966086D01*
X131508216Y-138966087D01*
X131490531Y-138985298D01*
X131351016Y-139136852D01*
X131224075Y-139331151D01*
X131130842Y-139543699D01*
X131073866Y-139768691D01*
X131073864Y-139768702D01*
X131054699Y-139999993D01*
X131056975Y-140027456D01*
X131068547Y-140167117D01*
X131068864Y-140170933D01*
X131054782Y-140239369D01*
X131005937Y-140289328D01*
X130945058Y-140305173D01*
X128514855Y-140300685D01*
X128447852Y-140280876D01*
X128402195Y-140227988D01*
X128391508Y-140166445D01*
X128391708Y-140164040D01*
X128403025Y-140027456D01*
X128405300Y-140000005D01*
X128405300Y-139999993D01*
X128386135Y-139768702D01*
X128386133Y-139768691D01*
X128329157Y-139543699D01*
X128235924Y-139331151D01*
X128108983Y-139136852D01*
X128108980Y-139136849D01*
X128108979Y-139136847D01*
X127951784Y-138966087D01*
X127951779Y-138966083D01*
X127951777Y-138966081D01*
X127768634Y-138823535D01*
X127768628Y-138823531D01*
X127622747Y-138744584D01*
X127594084Y-138723210D01*
X126174516Y-137303642D01*
X126165249Y-137293273D01*
X126143206Y-137265632D01*
X126093303Y-137222032D01*
X126087207Y-137216333D01*
X126080232Y-137209358D01*
X126080221Y-137209348D01*
X126048955Y-137183245D01*
X126046839Y-137181438D01*
X125973703Y-137117540D01*
X125973697Y-137117536D01*
X125973696Y-137117535D01*
X125969941Y-137115291D01*
X125954073Y-137104032D01*
X125950719Y-137101232D01*
X125950718Y-137101231D01*
X125950713Y-137101227D01*
X125866248Y-137053301D01*
X125863844Y-137051901D01*
X125780463Y-137002084D01*
X125776369Y-137000548D01*
X125758744Y-136992302D01*
X125754945Y-136990146D01*
X125663269Y-136958067D01*
X125660653Y-136957119D01*
X125569729Y-136922994D01*
X125569719Y-136922991D01*
X125565423Y-136922212D01*
X125546618Y-136917249D01*
X125542484Y-136915802D01*
X125542477Y-136915801D01*
X125446548Y-136900607D01*
X125443805Y-136900141D01*
X125348250Y-136882800D01*
X125348247Y-136882800D01*
X125343872Y-136882800D01*
X125324469Y-136881272D01*
X125320160Y-136880589D01*
X125223059Y-136882769D01*
X125220277Y-136882800D01*
X115243886Y-136882800D01*
X115230002Y-136882020D01*
X115194877Y-136878062D01*
X115194869Y-136878061D01*
X115128767Y-136882519D01*
X115120425Y-136882800D01*
X115110538Y-136882800D01*
X115069951Y-136886452D01*
X115067182Y-136886670D01*
X114970290Y-136893203D01*
X114966049Y-136894272D01*
X114946876Y-136897530D01*
X114942508Y-136897923D01*
X114848885Y-136923762D01*
X114846195Y-136924472D01*
X114752019Y-136948202D01*
X114748022Y-136950018D01*
X114729759Y-136956639D01*
X114725531Y-136957806D01*
X114638016Y-136999949D01*
X114635500Y-137001126D01*
X114547076Y-137041291D01*
X114547071Y-137041294D01*
X114543475Y-137043786D01*
X114526671Y-137053571D01*
X114522731Y-137055468D01*
X114522729Y-137055469D01*
X114444160Y-137112551D01*
X114441895Y-137114158D01*
X114362045Y-137169480D01*
X114358939Y-137172586D01*
X114344165Y-137185203D01*
X114340628Y-137187773D01*
X114340621Y-137187778D01*
X114273504Y-137257977D01*
X114271559Y-137259965D01*
X113818345Y-137713181D01*
X113757022Y-137746666D01*
X113730664Y-137749500D01*
X112374143Y-137749500D01*
X112342050Y-137745275D01*
X112226697Y-137714366D01*
X112226693Y-137714365D01*
X112226692Y-137714365D01*
X112226691Y-137714364D01*
X112226686Y-137714364D01*
X112000002Y-137694532D01*
X111999998Y-137694532D01*
X111773313Y-137714364D01*
X111773302Y-137714366D01*
X111553511Y-137773258D01*
X111553502Y-137773261D01*
X111347267Y-137869431D01*
X111347265Y-137869432D01*
X111160858Y-137999954D01*
X110999954Y-138160858D01*
X110869432Y-138347265D01*
X110869431Y-138347267D01*
X110773261Y-138553502D01*
X110773258Y-138553511D01*
X110714366Y-138773302D01*
X110714364Y-138773313D01*
X110694532Y-138999998D01*
X110694532Y-139000001D01*
X110714364Y-139226686D01*
X110714366Y-139226697D01*
X110773258Y-139446488D01*
X110773261Y-139446497D01*
X110869431Y-139652732D01*
X110869432Y-139652734D01*
X110999954Y-139839141D01*
X111160857Y-140000044D01*
X111160860Y-140000046D01*
X111160861Y-140000047D01*
X111222267Y-140043043D01*
X111265892Y-140097618D01*
X111273086Y-140167117D01*
X111241564Y-140229472D01*
X111181335Y-140264887D01*
X111150915Y-140268618D01*
X102710886Y-140253032D01*
X102643883Y-140233223D01*
X102598226Y-140180335D01*
X102588410Y-140111158D01*
X102617552Y-140047656D01*
X102639992Y-140027457D01*
X102679139Y-140000047D01*
X102840047Y-139839139D01*
X102970568Y-139652734D01*
X103066739Y-139446496D01*
X103125635Y-139226692D01*
X103145468Y-139000000D01*
X103144088Y-138984232D01*
X103136803Y-138900961D01*
X103125635Y-138773308D01*
X103069847Y-138565102D01*
X103066741Y-138553511D01*
X103066738Y-138553502D01*
X103059344Y-138537645D01*
X102970568Y-138347266D01*
X102840047Y-138160861D01*
X102840045Y-138160858D01*
X102679141Y-137999954D01*
X102492734Y-137869432D01*
X102492732Y-137869431D01*
X102286497Y-137773261D01*
X102286488Y-137773258D01*
X102066697Y-137714366D01*
X102066693Y-137714365D01*
X102066692Y-137714365D01*
X102066691Y-137714364D01*
X102066686Y-137714364D01*
X101840002Y-137694532D01*
X101839998Y-137694532D01*
X101613313Y-137714364D01*
X101613302Y-137714366D01*
X101393511Y-137773258D01*
X101393502Y-137773261D01*
X101187267Y-137869431D01*
X101187265Y-137869432D01*
X101000858Y-137999954D01*
X100839954Y-138160858D01*
X100709432Y-138347265D01*
X100709431Y-138347267D01*
X100613261Y-138553502D01*
X100613258Y-138553511D01*
X100554366Y-138773302D01*
X100554364Y-138773313D01*
X100534532Y-138999998D01*
X100534532Y-139000001D01*
X100554364Y-139226686D01*
X100554366Y-139226697D01*
X100613258Y-139446488D01*
X100613261Y-139446497D01*
X100709431Y-139652732D01*
X100709432Y-139652734D01*
X100839954Y-139839141D01*
X101000857Y-140000044D01*
X101000860Y-140000046D01*
X101000861Y-140000047D01*
X101029244Y-140019921D01*
X101035400Y-140024231D01*
X101079026Y-140078808D01*
X101086220Y-140148306D01*
X101054698Y-140210661D01*
X100994468Y-140246076D01*
X100964049Y-140249807D01*
X96685956Y-140241906D01*
X96618953Y-140222097D01*
X96573296Y-140169209D01*
X96563480Y-140100032D01*
X96592622Y-140036530D01*
X96651470Y-139998865D01*
X96652618Y-139998536D01*
X96705058Y-139983844D01*
X96818015Y-139934779D01*
X96968617Y-139869365D01*
X96968620Y-139869363D01*
X96968625Y-139869361D01*
X97214147Y-139720055D01*
X97437053Y-139538708D01*
X97633189Y-139328698D01*
X97798901Y-139093936D01*
X97931104Y-138838797D01*
X98027334Y-138568032D01*
X98085798Y-138286686D01*
X98105408Y-138000000D01*
X98085798Y-137713314D01*
X98027334Y-137431968D01*
X98024082Y-137422819D01*
X97938619Y-137182349D01*
X97931105Y-137161206D01*
X97931106Y-137161206D01*
X97798901Y-136906064D01*
X97633187Y-136671299D01*
X97554554Y-136587105D01*
X97437053Y-136461292D01*
X97214147Y-136279945D01*
X97214146Y-136279944D01*
X96968617Y-136130634D01*
X96705063Y-136016158D01*
X96705061Y-136016157D01*
X96705058Y-136016156D01*
X96530245Y-135967176D01*
X96428364Y-135938630D01*
X96428359Y-135938629D01*
X96428358Y-135938629D01*
X96286018Y-135919064D01*
X96143679Y-135899500D01*
X96143678Y-135899500D01*
X95856322Y-135899500D01*
X95856321Y-135899500D01*
X95571642Y-135938629D01*
X95571635Y-135938630D01*
X95363861Y-135996845D01*
X95294942Y-136016156D01*
X95294939Y-136016156D01*
X95294936Y-136016158D01*
X95294935Y-136016158D01*
X95031382Y-136130634D01*
X94785853Y-136279944D01*
X94562950Y-136461289D01*
X94366812Y-136671299D01*
X94201098Y-136906064D01*
X94068893Y-137161206D01*
X93990459Y-137381900D01*
X93949461Y-137438477D01*
X93884383Y-137463907D01*
X93815888Y-137450116D01*
X93765722Y-137401484D01*
X93749620Y-137340972D01*
X93736889Y-134682955D01*
X93756252Y-134615827D01*
X93808836Y-134569820D01*
X93877946Y-134559545D01*
X93881298Y-134560057D01*
X93883951Y-134560500D01*
X94116048Y-134560500D01*
X94116049Y-134560500D01*
X94344981Y-134522298D01*
X94564503Y-134446936D01*
X94768626Y-134336470D01*
X94951784Y-134193913D01*
X95108979Y-134023153D01*
X95235924Y-133828849D01*
X95329157Y-133616300D01*
X95386134Y-133391305D01*
X95386135Y-133391297D01*
X95405300Y-133160006D01*
X95405300Y-133159993D01*
X95386135Y-132928702D01*
X95386133Y-132928691D01*
X95329157Y-132703699D01*
X95235924Y-132491151D01*
X95108983Y-132296852D01*
X95108980Y-132296849D01*
X95108979Y-132296847D01*
X94951784Y-132126087D01*
X94773773Y-131987536D01*
X94732961Y-131930826D01*
X94729286Y-131861053D01*
X94763917Y-131800370D01*
X94773772Y-131791831D01*
X94798797Y-131772352D01*
X94798798Y-131772351D01*
X94044400Y-131017953D01*
X94125148Y-131005165D01*
X94238045Y-130947641D01*
X94327641Y-130858045D01*
X94385165Y-130745148D01*
X94397953Y-130664400D01*
X95151186Y-131417633D01*
X95235482Y-131288611D01*
X95328682Y-131076135D01*
X95385638Y-130851218D01*
X95404798Y-130620005D01*
X95404798Y-130619994D01*
X95385638Y-130388781D01*
X95328682Y-130163864D01*
X95235484Y-129951393D01*
X95151186Y-129822365D01*
X94397953Y-130575598D01*
X94385165Y-130494852D01*
X94327641Y-130381955D01*
X94238045Y-130292359D01*
X94125148Y-130234835D01*
X94044400Y-130222046D01*
X94798797Y-129467647D01*
X94798797Y-129467646D01*
X94773773Y-129448169D01*
X94732961Y-129391459D01*
X94729286Y-129321686D01*
X94763918Y-129261003D01*
X94773760Y-129252473D01*
X94951784Y-129113913D01*
X95108979Y-128943153D01*
X95235924Y-128748849D01*
X95329157Y-128536300D01*
X95386134Y-128311305D01*
X95389360Y-128272377D01*
X95405300Y-128080006D01*
X95405300Y-128079993D01*
X95386135Y-127848702D01*
X95386133Y-127848691D01*
X95329157Y-127623699D01*
X95235924Y-127411151D01*
X95108983Y-127216852D01*
X95108980Y-127216849D01*
X95108979Y-127216847D01*
X94951784Y-127046087D01*
X94774180Y-126907853D01*
X94733368Y-126851143D01*
X94729693Y-126781370D01*
X94764324Y-126720687D01*
X94774181Y-126712146D01*
X94781967Y-126706086D01*
X94951784Y-126573913D01*
X95108979Y-126403153D01*
X95235924Y-126208849D01*
X95329157Y-125996300D01*
X95386134Y-125771305D01*
X95386135Y-125771297D01*
X95405300Y-125540006D01*
X95405300Y-125539993D01*
X95386135Y-125308702D01*
X95386133Y-125308691D01*
X95329157Y-125083699D01*
X95235924Y-124871151D01*
X95108983Y-124676852D01*
X95108980Y-124676849D01*
X95108979Y-124676847D01*
X94951784Y-124506087D01*
X94774180Y-124367853D01*
X94733368Y-124311143D01*
X94729693Y-124241370D01*
X94764324Y-124180687D01*
X94774181Y-124172146D01*
X94781966Y-124166087D01*
X94951784Y-124033913D01*
X95108979Y-123863153D01*
X95235924Y-123668849D01*
X95329157Y-123456300D01*
X95386134Y-123231305D01*
X95394683Y-123128138D01*
X95405300Y-123000001D01*
X95405300Y-122999993D01*
X95386135Y-122768702D01*
X95386133Y-122768691D01*
X95329157Y-122543699D01*
X95235924Y-122331151D01*
X95108983Y-122136852D01*
X95108980Y-122136849D01*
X95108979Y-122136847D01*
X94951784Y-121966087D01*
X94951779Y-121966083D01*
X94951777Y-121966081D01*
X94768634Y-121823535D01*
X94768628Y-121823531D01*
X94564504Y-121713064D01*
X94564495Y-121713061D01*
X94344984Y-121637702D01*
X94173282Y-121609050D01*
X94116049Y-121599500D01*
X93883951Y-121599500D01*
X93883950Y-121599500D01*
X93818098Y-121610488D01*
X93748733Y-121602106D01*
X93694912Y-121557552D01*
X93673721Y-121490973D01*
X93673691Y-121488841D01*
X93551605Y-96000000D01*
X93894592Y-96000000D01*
X93914201Y-96286680D01*
X93972666Y-96568034D01*
X93972667Y-96568037D01*
X94068894Y-96838793D01*
X94068893Y-96838793D01*
X94201098Y-97093935D01*
X94366812Y-97328700D01*
X94451923Y-97419831D01*
X94562947Y-97538708D01*
X94785853Y-97720055D01*
X94956708Y-97823955D01*
X95031382Y-97869365D01*
X95218237Y-97950526D01*
X95294942Y-97983844D01*
X95571642Y-98061371D01*
X95821920Y-98095771D01*
X95856321Y-98100500D01*
X95856322Y-98100500D01*
X96143679Y-98100500D01*
X96174370Y-98096281D01*
X96428358Y-98061371D01*
X96705058Y-97983844D01*
X96818015Y-97934779D01*
X96968617Y-97869365D01*
X96968620Y-97869363D01*
X96968625Y-97869361D01*
X97214147Y-97720055D01*
X97437053Y-97538708D01*
X97633189Y-97328698D01*
X97798901Y-97093936D01*
X97931104Y-96838797D01*
X98027334Y-96568032D01*
X98085798Y-96286686D01*
X98105408Y-96000000D01*
X171894592Y-96000000D01*
X171914201Y-96286680D01*
X171972666Y-96568034D01*
X171972667Y-96568037D01*
X172068894Y-96838793D01*
X172068893Y-96838793D01*
X172201098Y-97093935D01*
X172366812Y-97328700D01*
X172451923Y-97419831D01*
X172562947Y-97538708D01*
X172785853Y-97720055D01*
X172956708Y-97823955D01*
X173031382Y-97869365D01*
X173218237Y-97950526D01*
X173294942Y-97983844D01*
X173571642Y-98061371D01*
X173821920Y-98095771D01*
X173856321Y-98100500D01*
X173856322Y-98100500D01*
X174143679Y-98100500D01*
X174174370Y-98096281D01*
X174428358Y-98061371D01*
X174705058Y-97983844D01*
X174818015Y-97934779D01*
X174968617Y-97869365D01*
X174968620Y-97869363D01*
X174968625Y-97869361D01*
X175214147Y-97720055D01*
X175437053Y-97538708D01*
X175633189Y-97328698D01*
X175798901Y-97093936D01*
X175931104Y-96838797D01*
X176027334Y-96568032D01*
X176085798Y-96286686D01*
X176105408Y-96000000D01*
X176085798Y-95713314D01*
X176027334Y-95431968D01*
X175931105Y-95161206D01*
X175931106Y-95161206D01*
X175798901Y-94906064D01*
X175633187Y-94671299D01*
X175554554Y-94587105D01*
X175437053Y-94461292D01*
X175214147Y-94279945D01*
X175214146Y-94279944D01*
X174968617Y-94130634D01*
X174705063Y-94016158D01*
X174705061Y-94016157D01*
X174705058Y-94016156D01*
X174575578Y-93979877D01*
X174428364Y-93938630D01*
X174428359Y-93938629D01*
X174428358Y-93938629D01*
X174286018Y-93919064D01*
X174143679Y-93899500D01*
X174143678Y-93899500D01*
X173856322Y-93899500D01*
X173856321Y-93899500D01*
X173571642Y-93938629D01*
X173571635Y-93938630D01*
X173363861Y-93996845D01*
X173294942Y-94016156D01*
X173294939Y-94016156D01*
X173294936Y-94016158D01*
X173294935Y-94016158D01*
X173031382Y-94130634D01*
X172785853Y-94279944D01*
X172562950Y-94461289D01*
X172366812Y-94671299D01*
X172201098Y-94906064D01*
X172068894Y-95161206D01*
X171972667Y-95431962D01*
X171972666Y-95431965D01*
X171914201Y-95713319D01*
X171894592Y-96000000D01*
X98105408Y-96000000D01*
X98085798Y-95713314D01*
X98027334Y-95431968D01*
X97931105Y-95161206D01*
X97931106Y-95161206D01*
X97798901Y-94906064D01*
X97633187Y-94671299D01*
X97554554Y-94587105D01*
X97437053Y-94461292D01*
X97214147Y-94279945D01*
X97214146Y-94279944D01*
X96968617Y-94130634D01*
X96705063Y-94016158D01*
X96705061Y-94016157D01*
X96705058Y-94016156D01*
X96575578Y-93979877D01*
X96428364Y-93938630D01*
X96428359Y-93938629D01*
X96428358Y-93938629D01*
X96286018Y-93919064D01*
X96143679Y-93899500D01*
X96143678Y-93899500D01*
X95856322Y-93899500D01*
X95856321Y-93899500D01*
X95571642Y-93938629D01*
X95571635Y-93938630D01*
X95363861Y-93996845D01*
X95294942Y-94016156D01*
X95294939Y-94016156D01*
X95294936Y-94016158D01*
X95294935Y-94016158D01*
X95031382Y-94130634D01*
X94785853Y-94279944D01*
X94562950Y-94461289D01*
X94366812Y-94671299D01*
X94201098Y-94906064D01*
X94068894Y-95161206D01*
X93972667Y-95431962D01*
X93972666Y-95431965D01*
X93914201Y-95713319D01*
X93894592Y-96000000D01*
X93551605Y-96000000D01*
X93540418Y-93664471D01*
X93559782Y-93597339D01*
X93612366Y-93551332D01*
X93664472Y-93539878D01*
X176298004Y-93577910D01*
G37*
%TD.AperFunction*%
%TA.AperFunction,Conductor*%
G36*
X159749303Y-137406185D02*
G01*
X159769945Y-137422819D01*
X160884770Y-138537645D01*
X160918255Y-138598968D01*
X160913271Y-138668660D01*
X160871399Y-138724593D01*
X160856108Y-138734379D01*
X160837253Y-138744584D01*
X160691371Y-138823531D01*
X160691365Y-138823535D01*
X160508222Y-138966081D01*
X160508219Y-138966084D01*
X160508216Y-138966086D01*
X160508216Y-138966087D01*
X160381841Y-139103368D01*
X160351015Y-139136854D01*
X160293509Y-139224874D01*
X160240363Y-139270230D01*
X160171132Y-139279654D01*
X160107796Y-139250152D01*
X160085892Y-139224874D01*
X160071186Y-139202365D01*
X159317953Y-139955598D01*
X159305165Y-139874852D01*
X159247641Y-139761955D01*
X159158045Y-139672359D01*
X159045148Y-139614835D01*
X158964400Y-139602046D01*
X159718797Y-138847647D01*
X159718797Y-138847645D01*
X159688360Y-138823955D01*
X159688354Y-138823951D01*
X159484302Y-138713523D01*
X159484293Y-138713520D01*
X159264860Y-138638188D01*
X159036007Y-138600000D01*
X158803993Y-138600000D01*
X158575139Y-138638188D01*
X158355706Y-138713520D01*
X158355697Y-138713523D01*
X158151650Y-138823949D01*
X158121200Y-138847647D01*
X158875600Y-139602046D01*
X158794852Y-139614835D01*
X158681955Y-139672359D01*
X158592359Y-139761955D01*
X158534835Y-139874852D01*
X158522046Y-139955600D01*
X157768811Y-139202365D01*
X157684516Y-139331390D01*
X157591317Y-139543864D01*
X157534361Y-139768781D01*
X157515202Y-139999994D01*
X157515202Y-140000005D01*
X157533415Y-140219806D01*
X157519334Y-140288242D01*
X157470489Y-140338201D01*
X157409610Y-140354046D01*
X154510877Y-140348692D01*
X154443874Y-140328883D01*
X154398217Y-140275995D01*
X154387530Y-140214452D01*
X154387633Y-140213217D01*
X154403025Y-140027456D01*
X154405300Y-140000005D01*
X154405300Y-139999993D01*
X154386135Y-139768702D01*
X154386133Y-139768691D01*
X154329157Y-139543699D01*
X154235924Y-139331151D01*
X154108983Y-139136852D01*
X154108980Y-139136849D01*
X154108979Y-139136847D01*
X153951784Y-138966087D01*
X153951779Y-138966083D01*
X153951777Y-138966081D01*
X153768634Y-138823535D01*
X153768619Y-138823525D01*
X153656964Y-138763100D01*
X153628301Y-138741727D01*
X152484755Y-137598181D01*
X152451270Y-137536858D01*
X152456254Y-137467166D01*
X152498126Y-137411233D01*
X152563590Y-137386816D01*
X152572436Y-137386500D01*
X159682264Y-137386500D01*
X159749303Y-137406185D01*
G37*
%TD.AperFunction*%
%TA.AperFunction,Conductor*%
G36*
X132009503Y-102194685D02*
G01*
X132030145Y-102211319D01*
X134866776Y-105047950D01*
X134900261Y-105109273D01*
X134895277Y-105178965D01*
X134853405Y-105234898D01*
X134838113Y-105244685D01*
X134691656Y-105323944D01*
X134691652Y-105323947D01*
X134661200Y-105347647D01*
X135415599Y-106102046D01*
X135334852Y-106114835D01*
X135221955Y-106172359D01*
X135132359Y-106261955D01*
X135074835Y-106374852D01*
X135062046Y-106455600D01*
X134308811Y-105702365D01*
X134224516Y-105831390D01*
X134131317Y-106043864D01*
X134074361Y-106268781D01*
X134055202Y-106499994D01*
X134055202Y-106500005D01*
X134074361Y-106731218D01*
X134131317Y-106956135D01*
X134224515Y-107168606D01*
X134308812Y-107297633D01*
X135062046Y-106544399D01*
X135074835Y-106625148D01*
X135132359Y-106738045D01*
X135221955Y-106827641D01*
X135334852Y-106885165D01*
X135415599Y-106897953D01*
X134661201Y-107652351D01*
X134691649Y-107676050D01*
X134895697Y-107786476D01*
X134895706Y-107786479D01*
X135115139Y-107861811D01*
X135343993Y-107900000D01*
X135576007Y-107900000D01*
X135804860Y-107861811D01*
X136024293Y-107786479D01*
X136024301Y-107786476D01*
X136228355Y-107676047D01*
X136258797Y-107652351D01*
X136258798Y-107652350D01*
X135504401Y-106897953D01*
X135585148Y-106885165D01*
X135698045Y-106827641D01*
X135787641Y-106738045D01*
X135845165Y-106625148D01*
X135857953Y-106544400D01*
X136611185Y-107297632D01*
X136625891Y-107275125D01*
X136679037Y-107229768D01*
X136748268Y-107220344D01*
X136811604Y-107249846D01*
X136833508Y-107275123D01*
X136891021Y-107363153D01*
X137048216Y-107533913D01*
X137048219Y-107533915D01*
X137048222Y-107533918D01*
X137231365Y-107676464D01*
X137231371Y-107676468D01*
X137231374Y-107676470D01*
X137398860Y-107767109D01*
X137434652Y-107786479D01*
X137435497Y-107786936D01*
X137549487Y-107826068D01*
X137655015Y-107862297D01*
X137655017Y-107862297D01*
X137655019Y-107862298D01*
X137883951Y-107900500D01*
X137883952Y-107900500D01*
X138116048Y-107900500D01*
X138116049Y-107900500D01*
X138344981Y-107862298D01*
X138564503Y-107786936D01*
X138768626Y-107676470D01*
X138769170Y-107676047D01*
X138830129Y-107628600D01*
X138951784Y-107533913D01*
X139074272Y-107400854D01*
X139134157Y-107364866D01*
X139203995Y-107366966D01*
X139261611Y-107406489D01*
X139288713Y-107470889D01*
X139289500Y-107484839D01*
X139289500Y-109861814D01*
X139288720Y-109875698D01*
X139284762Y-109910822D01*
X139284761Y-109910830D01*
X139289219Y-109976931D01*
X139289500Y-109985273D01*
X139289500Y-109995156D01*
X139293153Y-110035749D01*
X139293371Y-110038521D01*
X139299903Y-110135407D01*
X139299903Y-110135412D01*
X139300972Y-110139652D01*
X139304230Y-110158824D01*
X139304623Y-110163190D01*
X139330465Y-110256824D01*
X139331158Y-110259447D01*
X139345971Y-110318234D01*
X139354903Y-110353681D01*
X139356715Y-110357670D01*
X139363340Y-110375944D01*
X139364504Y-110380162D01*
X139364507Y-110380170D01*
X139406657Y-110467698D01*
X139407835Y-110470216D01*
X139447993Y-110558626D01*
X139447994Y-110558629D01*
X139450483Y-110562221D01*
X139460269Y-110579026D01*
X139462166Y-110582965D01*
X139462171Y-110582973D01*
X139519311Y-110661620D01*
X139520835Y-110663768D01*
X139554985Y-110713061D01*
X139576181Y-110743656D01*
X139579273Y-110746748D01*
X139591907Y-110761539D01*
X139594478Y-110765078D01*
X139594482Y-110765082D01*
X139664699Y-110832217D01*
X139666688Y-110834162D01*
X165253181Y-136420655D01*
X165286666Y-136481978D01*
X165289500Y-136508336D01*
X165289500Y-139015160D01*
X165269815Y-139082199D01*
X165217011Y-139127954D01*
X165147853Y-139137898D01*
X165084297Y-139108873D01*
X165074270Y-139099143D01*
X165069084Y-139093509D01*
X164951784Y-138966087D01*
X164951779Y-138966083D01*
X164951777Y-138966081D01*
X164768634Y-138823535D01*
X164768628Y-138823531D01*
X164651516Y-138760153D01*
X164622853Y-138738779D01*
X161190416Y-135306342D01*
X161181149Y-135295973D01*
X161180389Y-135295020D01*
X161159108Y-135268334D01*
X161159106Y-135268332D01*
X161109203Y-135224732D01*
X161103107Y-135219033D01*
X161096132Y-135212058D01*
X161096121Y-135212048D01*
X161064855Y-135185945D01*
X161062739Y-135184138D01*
X160989603Y-135120240D01*
X160989597Y-135120236D01*
X160989596Y-135120235D01*
X160985841Y-135117991D01*
X160969973Y-135106732D01*
X160966619Y-135103932D01*
X160966618Y-135103931D01*
X160966613Y-135103927D01*
X160882148Y-135056001D01*
X160879744Y-135054601D01*
X160796363Y-135004784D01*
X160792269Y-135003248D01*
X160774644Y-134995002D01*
X160770845Y-134992846D01*
X160679169Y-134960767D01*
X160676553Y-134959819D01*
X160585629Y-134925694D01*
X160585619Y-134925691D01*
X160581323Y-134924912D01*
X160562518Y-134919949D01*
X160558384Y-134918502D01*
X160558377Y-134918501D01*
X160462448Y-134903307D01*
X160459705Y-134902841D01*
X160364150Y-134885500D01*
X160364147Y-134885500D01*
X160359772Y-134885500D01*
X160340369Y-134883972D01*
X160336060Y-134883289D01*
X160238959Y-134885469D01*
X160236177Y-134885500D01*
X146956136Y-134885500D01*
X146889097Y-134865815D01*
X146868455Y-134849181D01*
X146293061Y-134273787D01*
X146259576Y-134212464D01*
X146264560Y-134142772D01*
X146306432Y-134086839D01*
X146321721Y-134077052D01*
X146470626Y-133996470D01*
X146653784Y-133853913D01*
X146810979Y-133683153D01*
X146937924Y-133488849D01*
X147031157Y-133276300D01*
X147088134Y-133051305D01*
X147092692Y-132996300D01*
X147107300Y-132820006D01*
X147107300Y-132819993D01*
X147088135Y-132588702D01*
X147088133Y-132588691D01*
X147031157Y-132363699D01*
X146937924Y-132151151D01*
X146810983Y-131956852D01*
X146810980Y-131956849D01*
X146810979Y-131956847D01*
X146653784Y-131786087D01*
X146475773Y-131647536D01*
X146434961Y-131590826D01*
X146431286Y-131521053D01*
X146465917Y-131460370D01*
X146475772Y-131451831D01*
X146500797Y-131432352D01*
X146500798Y-131432351D01*
X145746400Y-130677953D01*
X145827148Y-130665165D01*
X145940045Y-130607641D01*
X146029641Y-130518045D01*
X146087165Y-130405148D01*
X146099953Y-130324400D01*
X146853186Y-131077633D01*
X146937482Y-130948611D01*
X147030682Y-130736135D01*
X147087638Y-130511218D01*
X147106798Y-130280005D01*
X147106798Y-130279994D01*
X147087638Y-130048781D01*
X147030682Y-129823864D01*
X146937484Y-129611393D01*
X146853186Y-129482365D01*
X146099953Y-130235598D01*
X146087165Y-130154852D01*
X146029641Y-130041955D01*
X145940045Y-129952359D01*
X145827148Y-129894835D01*
X145746400Y-129882046D01*
X146500797Y-129127647D01*
X146500797Y-129127646D01*
X146475773Y-129108169D01*
X146434961Y-129051459D01*
X146431286Y-128981686D01*
X146465918Y-128921003D01*
X146475760Y-128912473D01*
X146653784Y-128773913D01*
X146810979Y-128603153D01*
X146937924Y-128408849D01*
X147031157Y-128196300D01*
X147088134Y-127971305D01*
X147102656Y-127796048D01*
X147107300Y-127740006D01*
X147107300Y-127739993D01*
X147088135Y-127508702D01*
X147088133Y-127508691D01*
X147031157Y-127283699D01*
X146937924Y-127071151D01*
X146810983Y-126876852D01*
X146810980Y-126876849D01*
X146810979Y-126876847D01*
X146653784Y-126706087D01*
X146476180Y-126567853D01*
X146435368Y-126511143D01*
X146431693Y-126441370D01*
X146466324Y-126380687D01*
X146476181Y-126372146D01*
X146653784Y-126233913D01*
X146810979Y-126063153D01*
X146937924Y-125868849D01*
X147031157Y-125656300D01*
X147088134Y-125431305D01*
X147107300Y-125200000D01*
X147107300Y-125199993D01*
X147088135Y-124968702D01*
X147088133Y-124968691D01*
X147031157Y-124743699D01*
X146937924Y-124531151D01*
X146810983Y-124336852D01*
X146810980Y-124336849D01*
X146810979Y-124336847D01*
X146653784Y-124166087D01*
X146653779Y-124166083D01*
X146653777Y-124166081D01*
X146470634Y-124023535D01*
X146470628Y-124023531D01*
X146266504Y-123913064D01*
X146266495Y-123913061D01*
X146046984Y-123837702D01*
X145875282Y-123809050D01*
X145818049Y-123799500D01*
X145585951Y-123799500D01*
X145540164Y-123807140D01*
X145357015Y-123837702D01*
X145137504Y-123913061D01*
X145137495Y-123913064D01*
X144933371Y-124023531D01*
X144933365Y-124023535D01*
X144750222Y-124166081D01*
X144750219Y-124166084D01*
X144750216Y-124166086D01*
X144750216Y-124166087D01*
X144740658Y-124176470D01*
X144593016Y-124336852D01*
X144466075Y-124531151D01*
X144372842Y-124743699D01*
X144315866Y-124968691D01*
X144315864Y-124968702D01*
X144296700Y-125199993D01*
X144296700Y-125200006D01*
X144315864Y-125431297D01*
X144315866Y-125431308D01*
X144372842Y-125656300D01*
X144466075Y-125868848D01*
X144593016Y-126063147D01*
X144593019Y-126063151D01*
X144593021Y-126063153D01*
X144750216Y-126233913D01*
X144750219Y-126233915D01*
X144750222Y-126233918D01*
X144927818Y-126372147D01*
X144968631Y-126428857D01*
X144972306Y-126498630D01*
X144937674Y-126559313D01*
X144927818Y-126567853D01*
X144750222Y-126706081D01*
X144750219Y-126706084D01*
X144750216Y-126706086D01*
X144750216Y-126706087D01*
X144742302Y-126714684D01*
X144593016Y-126876852D01*
X144466075Y-127071151D01*
X144372842Y-127283699D01*
X144315866Y-127508691D01*
X144315864Y-127508702D01*
X144296700Y-127739993D01*
X144296700Y-127740006D01*
X144315864Y-127971297D01*
X144315866Y-127971308D01*
X144372842Y-128196300D01*
X144466075Y-128408848D01*
X144593016Y-128603147D01*
X144593019Y-128603151D01*
X144593021Y-128603153D01*
X144750216Y-128773913D01*
X144813971Y-128823535D01*
X144928225Y-128912462D01*
X144969038Y-128969173D01*
X144972713Y-129038946D01*
X144938082Y-129099629D01*
X144928225Y-129108170D01*
X144903201Y-129127646D01*
X144903200Y-129127647D01*
X145657600Y-129882046D01*
X145576852Y-129894835D01*
X145463955Y-129952359D01*
X145374359Y-130041955D01*
X145316835Y-130154852D01*
X145304046Y-130235599D01*
X144550811Y-129482365D01*
X144466515Y-129611391D01*
X144452964Y-129642285D01*
X144408007Y-129695770D01*
X144341271Y-129716459D01*
X144273943Y-129697783D01*
X144251728Y-129680154D01*
X143034619Y-128463045D01*
X143001134Y-128401722D01*
X142998300Y-128375364D01*
X142998300Y-126714684D01*
X142999080Y-126700799D01*
X143003038Y-126665672D01*
X142998580Y-126599565D01*
X142998300Y-126591224D01*
X142998300Y-126581350D01*
X142997878Y-126576666D01*
X142994641Y-126540706D01*
X142994426Y-126537958D01*
X142987897Y-126441093D01*
X142986828Y-126436851D01*
X142983568Y-126417669D01*
X142983177Y-126413312D01*
X142957331Y-126319664D01*
X142956639Y-126317044D01*
X142932896Y-126222816D01*
X142931090Y-126218840D01*
X142924454Y-126200539D01*
X142923293Y-126196330D01*
X142881140Y-126108799D01*
X142879989Y-126106339D01*
X142839807Y-126017874D01*
X142837317Y-126014280D01*
X142827525Y-125997464D01*
X142825630Y-125993529D01*
X142825627Y-125993524D01*
X142768540Y-125914950D01*
X142766962Y-125912728D01*
X142711620Y-125832846D01*
X142708529Y-125829755D01*
X142695893Y-125814961D01*
X142693321Y-125811421D01*
X142693318Y-125811418D01*
X142623099Y-125744281D01*
X142621110Y-125742336D01*
X135272740Y-118393966D01*
X135246864Y-118356093D01*
X135235924Y-118331151D01*
X135195176Y-118268782D01*
X135108983Y-118136852D01*
X135108980Y-118136849D01*
X135108979Y-118136847D01*
X134951784Y-117966087D01*
X134951779Y-117966083D01*
X134951777Y-117966081D01*
X134768634Y-117823535D01*
X134768628Y-117823531D01*
X134564504Y-117713064D01*
X134564495Y-117713061D01*
X134344984Y-117637702D01*
X134173282Y-117609050D01*
X134116049Y-117599500D01*
X133883951Y-117599500D01*
X133838164Y-117607140D01*
X133655015Y-117637702D01*
X133435504Y-117713061D01*
X133435495Y-117713064D01*
X133231371Y-117823531D01*
X133231365Y-117823535D01*
X133048222Y-117966081D01*
X133048219Y-117966084D01*
X132891023Y-118136844D01*
X132803902Y-118270191D01*
X132787775Y-118290049D01*
X131316044Y-119761780D01*
X131305680Y-119771043D01*
X131278037Y-119793089D01*
X131278034Y-119793092D01*
X131234436Y-119842992D01*
X131228748Y-119849076D01*
X131221764Y-119856060D01*
X131221751Y-119856075D01*
X131195628Y-119887364D01*
X131193825Y-119889475D01*
X131129934Y-119962604D01*
X131129930Y-119962610D01*
X131127681Y-119966374D01*
X131116446Y-119982208D01*
X131113632Y-119985579D01*
X131065678Y-120070090D01*
X131064304Y-120072449D01*
X131033664Y-120123733D01*
X131014481Y-120155842D01*
X131012947Y-120159932D01*
X131004708Y-120177545D01*
X131002550Y-120181347D01*
X131002547Y-120181354D01*
X130970462Y-120273045D01*
X130969515Y-120275657D01*
X130935392Y-120366579D01*
X130935389Y-120366588D01*
X130934609Y-120370888D01*
X130929652Y-120389669D01*
X130928203Y-120393809D01*
X130928202Y-120393815D01*
X130913004Y-120489765D01*
X130912538Y-120492506D01*
X130895200Y-120588047D01*
X130895200Y-120592427D01*
X130893673Y-120611829D01*
X130892989Y-120616140D01*
X130895169Y-120713239D01*
X130895200Y-120716021D01*
X130895200Y-127324764D01*
X130875515Y-127391803D01*
X130822711Y-127437558D01*
X130753553Y-127447502D01*
X130689997Y-127418477D01*
X130683519Y-127412445D01*
X115786819Y-112515745D01*
X115753334Y-112454422D01*
X115750500Y-112428064D01*
X115750500Y-103661619D01*
X115760943Y-103611810D01*
X115829157Y-103456300D01*
X115886134Y-103231305D01*
X115886135Y-103231297D01*
X115905300Y-103000006D01*
X115905300Y-102999993D01*
X115886135Y-102768702D01*
X115886133Y-102768691D01*
X115829157Y-102543699D01*
X115743670Y-102348810D01*
X115734767Y-102279510D01*
X115764744Y-102216398D01*
X115824083Y-102179511D01*
X115857226Y-102175000D01*
X131942464Y-102175000D01*
X132009503Y-102194685D01*
G37*
%TD.AperFunction*%
%TA.AperFunction,Conductor*%
G36*
X135151186Y-127417633D02*
G01*
X135235482Y-127288611D01*
X135325838Y-127082620D01*
X135370794Y-127029134D01*
X135437530Y-127008444D01*
X135504858Y-127027118D01*
X135527075Y-127044749D01*
X145091445Y-136609119D01*
X145124930Y-136670442D01*
X145119946Y-136740134D01*
X145078074Y-136796067D01*
X145012610Y-136820484D01*
X145003764Y-136820800D01*
X143379436Y-136820800D01*
X143312397Y-136801115D01*
X143291755Y-136784481D01*
X134584203Y-128076929D01*
X134550718Y-128015606D01*
X134555702Y-127945914D01*
X134597574Y-127889981D01*
X134612867Y-127880193D01*
X134768353Y-127796048D01*
X134798797Y-127772351D01*
X134798798Y-127772351D01*
X134044400Y-127017953D01*
X134125148Y-127005165D01*
X134238045Y-126947641D01*
X134327641Y-126858045D01*
X134385165Y-126745148D01*
X134397953Y-126664400D01*
X135151186Y-127417633D01*
G37*
%TD.AperFunction*%
%TD*%
M02*
