%TF.GenerationSoftware,KiCad,Pcbnew,7.0.11+dfsg-1build4*%
%TF.CreationDate,2024-10-09T07:19:40+02:00*%
%TF.ProjectId,BertheVarioTac-Shema,42657274-6865-4566-9172-696f5461632d,rev?*%
%TF.SameCoordinates,Original*%
%TF.FileFunction,Copper,L1,Top*%
%TF.FilePolarity,Positive*%
%FSLAX46Y46*%
G04 Gerber Fmt 4.6, Leading zero omitted, Abs format (unit mm)*
G04 Created by KiCad (PCBNEW 7.0.11+dfsg-1build4) date 2024-10-09 07:19:40*
%MOMM*%
%LPD*%
G01*
G04 APERTURE LIST*
%TA.AperFunction,ComponentPad*%
%ADD10C,2.000000*%
%TD*%
%TA.AperFunction,ComponentPad*%
%ADD11C,1.800000*%
%TD*%
%TA.AperFunction,ComponentPad*%
%ADD12C,1.600000*%
%TD*%
%TA.AperFunction,ComponentPad*%
%ADD13O,1.600000X1.600000*%
%TD*%
%TA.AperFunction,ViaPad*%
%ADD14C,0.600000*%
%TD*%
%TA.AperFunction,Conductor*%
%ADD15C,1.500000*%
%TD*%
G04 APERTURE END LIST*
D10*
%TO.P,R3,1*%
%TO.N,Net-(BMP180_Press1-VIN)*%
X111580000Y-103500000D03*
%TO.P,R3,2*%
%TO.N,Net-(BMP180_Press1-SCL)*%
X101420000Y-103500000D03*
%TD*%
%TO.P,R2,1*%
%TO.N,Net-(BMP180_Press1-VIN)*%
X111580000Y-99000000D03*
%TO.P,R2,2*%
%TO.N,Net-(BMP180_Press1-SDA)*%
X101420000Y-99000000D03*
%TD*%
D11*
%TO.P,SW1,1*%
%TO.N,Net-(Lipo-1S-to-5V1-IN_3.7v)*%
X168000000Y-132540000D03*
%TO.P,SW1,2*%
%TO.N,Net-(BT1-+)*%
X168000000Y-130000000D03*
%TD*%
%TO.P,Usb-C-charger1,1,B-*%
%TO.N,GNDREF*%
X168000000Y-103000000D03*
%TO.P,Usb-C-charger1,2,+*%
%TO.N,Net-(BT1-+)*%
X168000000Y-112000000D03*
%TD*%
D12*
%TO.P,R1,1*%
%TO.N,Net-(R1-Pad1)*%
X101840000Y-139000000D03*
D13*
%TO.P,R1,2*%
%TO.N,Net-(P4-Pin_1)*%
X112000000Y-139000000D03*
%TD*%
D11*
%TO.P,CN1,1,Pin_1*%
%TO.N,Net-(BMP180_Press1-VIN)*%
X153000000Y-140000000D03*
%TO.P,CN1,2,Pin_2*%
%TO.N,Net-(BMP180_Press1-SDA)*%
X150460000Y-140000000D03*
%TO.P,CN1,3,Pin_3*%
%TO.N,Net-(BMP180_Press1-SCL)*%
X147920000Y-140000000D03*
%TO.P,CN1,4,Pin_4*%
%TO.N,GNDREF*%
X145380000Y-140000000D03*
%TD*%
%TO.P,S1,1,1*%
%TO.N,Net-(P4-Pin_2)*%
X119000000Y-140000000D03*
%TO.P,S1,2,2*%
%TO.N,Net-(R1-Pad1)*%
X116460000Y-140000000D03*
%TD*%
%TO.P,P4,1,Pin_1*%
%TO.N,Net-(P4-Pin_1)*%
X127000000Y-140000000D03*
%TO.P,P4,2,Pin_2*%
%TO.N,Net-(P4-Pin_2)*%
X124460000Y-140000000D03*
%TD*%
%TO.P,GPS-NEO6M1,1,GND*%
%TO.N,GNDREF*%
X134000000Y-126620000D03*
%TO.P,GPS-NEO6M1,2,TX*%
%TO.N,Net-(GPS-NEO6M1-TX)*%
X134000000Y-124080000D03*
%TO.P,GPS-NEO6M1,3,RX*%
%TO.N,unconnected-(GPS-NEO6M1-RX-Pad3)*%
X134000000Y-121540000D03*
%TO.P,GPS-NEO6M1,4,VCC*%
%TO.N,Net-(BMP180_Press1-VIN)*%
X134000000Y-119000000D03*
%TD*%
%TO.P,Lipo-1S-to-5V1,1,GND*%
%TO.N,GNDREF*%
X130460000Y-105500000D03*
%TO.P,Lipo-1S-to-5V1,2,IN_3.7v*%
%TO.N,Net-(Lipo-1S-to-5V1-IN_3.7v)*%
X133000000Y-105500000D03*
%TO.P,Lipo-1S-to-5V1,3,OUT_5V*%
%TO.N,Net-(Lipo-1S-to-5V1-OUT_5V)*%
X135540000Y-105500000D03*
%TD*%
%TO.P,BT1,1,+*%
%TO.N,Net-(BT1-+)*%
X173000000Y-130000000D03*
%TO.P,BT1,2,-*%
%TO.N,GNDREF*%
X173000000Y-132540000D03*
%TD*%
%TO.P,QMC5883_Mag1,1,VCC*%
%TO.N,Net-(BMP180_Press1-VIN)*%
X94000000Y-133160000D03*
%TO.P,QMC5883_Mag1,2,GND*%
%TO.N,GNDREF*%
X94000000Y-130620000D03*
%TO.P,QMC5883_Mag1,3,SCL*%
%TO.N,Net-(BMP180_Press1-SCL)*%
X94000000Y-128080000D03*
%TO.P,QMC5883_Mag1,4,SDA*%
%TO.N,Net-(BMP180_Press1-SDA)*%
X94000000Y-125540000D03*
%TO.P,QMC5883_Mag1,5*%
%TO.N,N/C*%
X94000000Y-123000000D03*
%TD*%
%TO.P,P1,1,Pin_1*%
%TO.N,Net-(Lipo-1S-to-5V1-OUT_5V)*%
X166540000Y-140000000D03*
%TO.P,P1,2,Pin_2*%
%TO.N,Net-(GPS-NEO6M1-TX)*%
X164000000Y-140000000D03*
%TO.P,P1,3,Pin_3*%
%TO.N,unconnected-(P1-Pin_3-Pad3)*%
X161460000Y-140000000D03*
%TO.P,P1,4,Pin_4*%
%TO.N,GNDREF*%
X158920000Y-140000000D03*
%TD*%
%TO.P,P5,1,1*%
%TO.N,Net-(Lipo-1S-to-5V1-IN_3.7v)*%
X118000000Y-96000000D03*
%TO.P,P5,2,2*%
%TO.N,Net-(P3-Pin_3)*%
X120500000Y-100000000D03*
%TO.P,P5,3,3*%
%TO.N,GNDREF*%
X123000000Y-96000000D03*
%TD*%
%TO.P,BMP180_Press1,1,SDA*%
%TO.N,Net-(BMP180_Press1-SDA)*%
X144000000Y-125460000D03*
%TO.P,BMP180_Press1,2,SCL*%
%TO.N,Net-(BMP180_Press1-SCL)*%
X144000000Y-128000000D03*
%TO.P,BMP180_Press1,3,GND*%
%TO.N,GNDREF*%
X144000000Y-130540000D03*
%TO.P,BMP180_Press1,4,VIN*%
%TO.N,Net-(BMP180_Press1-VIN)*%
X144000000Y-133080000D03*
%TD*%
%TO.P,P3,1,Pin_1*%
%TO.N,unconnected-(P3-Pin_1-Pad1)*%
X140080000Y-140000000D03*
%TO.P,P3,2,Pin_2*%
%TO.N,unconnected-(P3-Pin_2-Pad2)*%
X137540000Y-140000000D03*
%TO.P,P3,3,Pin_3*%
%TO.N,Net-(P3-Pin_3)*%
X135000000Y-140000000D03*
%TO.P,P3,4,Pin_4*%
%TO.N,unconnected-(P3-Pin_4-Pad4)*%
X132460000Y-140000000D03*
%TD*%
D14*
%TO.N,Net-(BMP180_Press1-SDA)*%
X138032800Y-119952500D03*
%TD*%
D15*
%TO.N,Net-(Lipo-1S-to-5V1-IN_3.7v)*%
X133000000Y-105354500D02*
X133000000Y-105500000D01*
X128493800Y-100848300D02*
X133000000Y-105354500D01*
X125012600Y-100848300D02*
X128493800Y-100848300D01*
X120164300Y-96000000D02*
X125012600Y-100848300D01*
X118000000Y-96000000D02*
X120164300Y-96000000D01*
X159919100Y-132540000D02*
X168000000Y-132540000D01*
X133000000Y-105620900D02*
X159919100Y-132540000D01*
X133000000Y-105500000D02*
X133000000Y-105620900D01*
%TO.N,Net-(BMP180_Press1-SCL)*%
X101420000Y-128080000D02*
X94000000Y-128080000D01*
X101851000Y-128511000D02*
X101420000Y-128080000D01*
X143489000Y-128511000D02*
X101851000Y-128511000D01*
X144000000Y-128000000D02*
X143489000Y-128511000D01*
X101420000Y-128080000D02*
X101420000Y-103500000D01*
%TO.N,Net-(BMP180_Press1-SDA)*%
X150460000Y-131826200D02*
X150460000Y-140000000D01*
X144093800Y-125460000D02*
X150460000Y-131826200D01*
X144000000Y-125460000D02*
X144093800Y-125460000D01*
X119568100Y-117148100D02*
X101420000Y-99000000D01*
X135228400Y-117148100D02*
X119568100Y-117148100D01*
X138032800Y-119952500D02*
X135228400Y-117148100D01*
%TO.N,Net-(BMP180_Press1-VIN)*%
X94080000Y-133080000D02*
X94000000Y-133160000D01*
X144000000Y-133080000D02*
X94080000Y-133080000D01*
%TO.N,Net-(P4-Pin_2)*%
X124460000Y-140000000D02*
X119000000Y-140000000D01*
%TO.N,Net-(GPS-NEO6M1-TX)*%
X164000000Y-139871800D02*
X164000000Y-140000000D01*
X147733500Y-123605300D02*
X164000000Y-139871800D01*
X134474700Y-123605300D02*
X147733500Y-123605300D01*
X134000000Y-124080000D02*
X134474700Y-123605300D01*
%TO.N,Net-(BT1-+)*%
X173000000Y-130000000D02*
X168000000Y-130000000D01*
%TO.N,Net-(P4-Pin_1)*%
X127000000Y-139892200D02*
X127000000Y-140000000D01*
X125247600Y-138139800D02*
X127000000Y-139892200D01*
X115160200Y-138139800D02*
X125247600Y-138139800D01*
X114300000Y-139000000D02*
X115160200Y-138139800D01*
X112000000Y-139000000D02*
X114300000Y-139000000D01*
%TD*%
%TA.AperFunction,Conductor*%
%TO.N,GNDREF*%
G36*
X176260171Y-93615943D02*
G01*
X176327183Y-93635720D01*
X176372865Y-93688587D01*
X176384000Y-93739828D01*
X176427127Y-140302840D01*
X176407504Y-140369898D01*
X176354743Y-140415702D01*
X176302841Y-140426955D01*
X168040445Y-140407890D01*
X167973451Y-140388050D01*
X167927818Y-140335141D01*
X167918034Y-140265960D01*
X167920524Y-140253454D01*
X167926134Y-140231305D01*
X167926141Y-140231220D01*
X167945300Y-140000006D01*
X167945300Y-139999993D01*
X167926135Y-139768702D01*
X167926133Y-139768691D01*
X167869157Y-139543699D01*
X167775924Y-139331151D01*
X167648983Y-139136852D01*
X167648980Y-139136849D01*
X167648979Y-139136847D01*
X167491784Y-138966087D01*
X167491779Y-138966083D01*
X167491777Y-138966081D01*
X167308634Y-138823535D01*
X167308628Y-138823531D01*
X167104504Y-138713064D01*
X167104495Y-138713061D01*
X166884984Y-138637702D01*
X166704428Y-138607573D01*
X166656049Y-138599500D01*
X166423951Y-138599500D01*
X166378164Y-138607140D01*
X166195015Y-138637702D01*
X165975504Y-138713061D01*
X165975495Y-138713064D01*
X165771371Y-138823531D01*
X165771365Y-138823535D01*
X165588222Y-138966081D01*
X165588219Y-138966084D01*
X165588216Y-138966086D01*
X165588216Y-138966087D01*
X165556999Y-138999998D01*
X165431016Y-139136852D01*
X165373809Y-139224416D01*
X165320662Y-139269773D01*
X165251431Y-139279197D01*
X165188095Y-139249695D01*
X165166191Y-139224416D01*
X165108983Y-139136852D01*
X165108980Y-139136849D01*
X165108979Y-139136847D01*
X164951784Y-138966087D01*
X164951779Y-138966083D01*
X164951777Y-138966081D01*
X164768634Y-138823535D01*
X164768619Y-138823525D01*
X164678977Y-138775013D01*
X164650314Y-138753640D01*
X163896674Y-138000000D01*
X171894592Y-138000000D01*
X171914201Y-138286680D01*
X171914201Y-138286684D01*
X171914202Y-138286686D01*
X171926790Y-138347265D01*
X171972666Y-138568034D01*
X171972667Y-138568037D01*
X172068894Y-138838793D01*
X172068893Y-138838793D01*
X172201098Y-139093935D01*
X172366812Y-139328700D01*
X172424343Y-139390300D01*
X172562947Y-139538708D01*
X172785853Y-139720055D01*
X172981677Y-139839139D01*
X173031382Y-139869365D01*
X173218237Y-139950526D01*
X173294942Y-139983844D01*
X173571642Y-140061371D01*
X173821920Y-140095771D01*
X173856321Y-140100500D01*
X173856322Y-140100500D01*
X174143679Y-140100500D01*
X174174370Y-140096281D01*
X174428358Y-140061371D01*
X174705058Y-139983844D01*
X174818015Y-139934779D01*
X174968617Y-139869365D01*
X174968620Y-139869363D01*
X174968625Y-139869361D01*
X175214147Y-139720055D01*
X175437053Y-139538708D01*
X175633189Y-139328698D01*
X175798901Y-139093936D01*
X175931104Y-138838797D01*
X176027334Y-138568032D01*
X176085798Y-138286686D01*
X176105408Y-138000000D01*
X176085798Y-137713314D01*
X176027334Y-137431968D01*
X175997347Y-137347594D01*
X175931105Y-137161206D01*
X175931106Y-137161206D01*
X175798901Y-136906064D01*
X175633187Y-136671299D01*
X175554554Y-136587105D01*
X175437053Y-136461292D01*
X175214147Y-136279945D01*
X175214146Y-136279944D01*
X174968617Y-136130634D01*
X174705063Y-136016158D01*
X174705061Y-136016157D01*
X174705058Y-136016156D01*
X174575578Y-135979877D01*
X174428364Y-135938630D01*
X174428359Y-135938629D01*
X174428358Y-135938629D01*
X174286018Y-135919064D01*
X174143679Y-135899500D01*
X174143678Y-135899500D01*
X173856322Y-135899500D01*
X173856321Y-135899500D01*
X173571642Y-135938629D01*
X173571635Y-135938630D01*
X173363861Y-135996845D01*
X173294942Y-136016156D01*
X173294939Y-136016156D01*
X173294936Y-136016158D01*
X173294935Y-136016158D01*
X173031382Y-136130634D01*
X172785853Y-136279944D01*
X172562950Y-136461289D01*
X172366812Y-136671299D01*
X172201098Y-136906064D01*
X172068894Y-137161206D01*
X171972667Y-137431962D01*
X171972666Y-137431965D01*
X171914201Y-137713319D01*
X171894592Y-138000000D01*
X163896674Y-138000000D01*
X159898855Y-134002181D01*
X159865370Y-133940858D01*
X159870354Y-133871166D01*
X159912226Y-133815233D01*
X159977690Y-133790816D01*
X159986536Y-133790500D01*
X167336768Y-133790500D01*
X167395786Y-133805446D01*
X167431830Y-133824951D01*
X167435497Y-133826936D01*
X167545258Y-133864617D01*
X167655015Y-133902297D01*
X167655017Y-133902297D01*
X167655019Y-133902298D01*
X167883951Y-133940500D01*
X167883952Y-133940500D01*
X168116048Y-133940500D01*
X168116049Y-133940500D01*
X168344981Y-133902298D01*
X168564503Y-133826936D01*
X168768626Y-133716470D01*
X168769170Y-133716047D01*
X168897325Y-133616300D01*
X168951784Y-133573913D01*
X169108979Y-133403153D01*
X169235924Y-133208849D01*
X169329157Y-132996300D01*
X169386134Y-132771305D01*
X169386135Y-132771297D01*
X169405300Y-132540006D01*
X169405300Y-132539993D01*
X169386135Y-132308702D01*
X169386133Y-132308691D01*
X169329157Y-132083699D01*
X169235924Y-131871151D01*
X169108983Y-131676852D01*
X169108980Y-131676849D01*
X169108979Y-131676847D01*
X168951784Y-131506087D01*
X168908442Y-131472352D01*
X168867630Y-131415644D01*
X168863955Y-131345871D01*
X168898586Y-131285187D01*
X168960528Y-131252860D01*
X168984605Y-131250500D01*
X172077778Y-131250500D01*
X172144817Y-131270185D01*
X172190572Y-131322989D01*
X172201540Y-131382184D01*
X172201200Y-131387647D01*
X172955600Y-132142046D01*
X172874852Y-132154835D01*
X172761955Y-132212359D01*
X172672359Y-132301955D01*
X172614835Y-132414852D01*
X172602046Y-132495600D01*
X171848811Y-131742365D01*
X171764516Y-131871390D01*
X171671317Y-132083864D01*
X171614361Y-132308781D01*
X171595202Y-132539994D01*
X171595202Y-132540005D01*
X171614361Y-132771218D01*
X171671317Y-132996135D01*
X171764515Y-133208606D01*
X171848812Y-133337633D01*
X172602046Y-132584399D01*
X172614835Y-132665148D01*
X172672359Y-132778045D01*
X172761955Y-132867641D01*
X172874852Y-132925165D01*
X172955599Y-132937953D01*
X172201201Y-133692351D01*
X172231649Y-133716050D01*
X172435697Y-133826476D01*
X172435706Y-133826479D01*
X172655139Y-133901811D01*
X172883993Y-133940000D01*
X173116007Y-133940000D01*
X173344860Y-133901811D01*
X173564293Y-133826479D01*
X173564301Y-133826476D01*
X173768355Y-133716047D01*
X173798797Y-133692351D01*
X173798798Y-133692350D01*
X173044401Y-132937953D01*
X173125148Y-132925165D01*
X173238045Y-132867641D01*
X173327641Y-132778045D01*
X173385165Y-132665148D01*
X173397953Y-132584400D01*
X174151186Y-133337633D01*
X174235482Y-133208611D01*
X174328682Y-132996135D01*
X174385638Y-132771218D01*
X174404798Y-132540005D01*
X174404798Y-132539994D01*
X174385638Y-132308781D01*
X174328682Y-132083864D01*
X174235484Y-131871393D01*
X174151186Y-131742365D01*
X173397953Y-132495598D01*
X173385165Y-132414852D01*
X173327641Y-132301955D01*
X173238045Y-132212359D01*
X173125148Y-132154835D01*
X173044400Y-132142046D01*
X173798797Y-131387647D01*
X173798797Y-131387646D01*
X173773773Y-131368169D01*
X173732961Y-131311459D01*
X173729286Y-131241686D01*
X173763918Y-131181003D01*
X173773760Y-131172473D01*
X173951784Y-131033913D01*
X174108979Y-130863153D01*
X174235924Y-130668849D01*
X174329157Y-130456300D01*
X174386134Y-130231305D01*
X174389851Y-130186447D01*
X174405300Y-130000006D01*
X174405300Y-129999993D01*
X174386135Y-129768702D01*
X174386133Y-129768691D01*
X174329157Y-129543699D01*
X174235924Y-129331151D01*
X174108983Y-129136852D01*
X174108980Y-129136849D01*
X174108979Y-129136847D01*
X173951784Y-128966087D01*
X173951779Y-128966083D01*
X173951777Y-128966081D01*
X173768634Y-128823535D01*
X173768628Y-128823531D01*
X173564504Y-128713064D01*
X173564495Y-128713061D01*
X173344984Y-128637702D01*
X173173282Y-128609050D01*
X173116049Y-128599500D01*
X172883951Y-128599500D01*
X172838164Y-128607140D01*
X172655015Y-128637702D01*
X172435501Y-128713062D01*
X172435486Y-128713069D01*
X172395786Y-128734554D01*
X172336768Y-128749500D01*
X168663232Y-128749500D01*
X168604214Y-128734554D01*
X168564513Y-128713069D01*
X168564507Y-128713066D01*
X168564503Y-128713064D01*
X168564500Y-128713063D01*
X168564498Y-128713062D01*
X168344984Y-128637702D01*
X168173282Y-128609050D01*
X168116049Y-128599500D01*
X167883951Y-128599500D01*
X167838164Y-128607140D01*
X167655015Y-128637702D01*
X167435504Y-128713061D01*
X167435495Y-128713064D01*
X167231371Y-128823531D01*
X167231365Y-128823535D01*
X167048222Y-128966081D01*
X167048219Y-128966084D01*
X166891016Y-129136852D01*
X166764075Y-129331151D01*
X166670842Y-129543699D01*
X166613866Y-129768691D01*
X166613864Y-129768702D01*
X166594700Y-129999993D01*
X166594700Y-130000006D01*
X166613864Y-130231297D01*
X166613866Y-130231308D01*
X166670842Y-130456300D01*
X166764075Y-130668848D01*
X166891016Y-130863147D01*
X166891019Y-130863151D01*
X166891021Y-130863153D01*
X167048216Y-131033913D01*
X167091557Y-131067647D01*
X167132370Y-131124356D01*
X167136045Y-131194129D01*
X167101414Y-131254813D01*
X167039472Y-131287140D01*
X167015395Y-131289500D01*
X160488436Y-131289500D01*
X160421397Y-131269815D01*
X160400755Y-131253181D01*
X141147580Y-112000006D01*
X166594700Y-112000006D01*
X166613864Y-112231297D01*
X166613866Y-112231308D01*
X166670842Y-112456300D01*
X166764075Y-112668848D01*
X166891016Y-112863147D01*
X166891019Y-112863151D01*
X166891021Y-112863153D01*
X167048216Y-113033913D01*
X167048219Y-113033915D01*
X167048222Y-113033918D01*
X167231365Y-113176464D01*
X167231371Y-113176468D01*
X167231374Y-113176470D01*
X167435497Y-113286936D01*
X167549487Y-113326068D01*
X167655015Y-113362297D01*
X167655017Y-113362297D01*
X167655019Y-113362298D01*
X167883951Y-113400500D01*
X167883952Y-113400500D01*
X168116048Y-113400500D01*
X168116049Y-113400500D01*
X168344981Y-113362298D01*
X168564503Y-113286936D01*
X168768626Y-113176470D01*
X168951784Y-113033913D01*
X169108979Y-112863153D01*
X169235924Y-112668849D01*
X169329157Y-112456300D01*
X169386134Y-112231305D01*
X169405300Y-112000000D01*
X169405300Y-111999993D01*
X169386135Y-111768702D01*
X169386133Y-111768691D01*
X169329157Y-111543699D01*
X169235924Y-111331151D01*
X169108983Y-111136852D01*
X169108980Y-111136849D01*
X169108979Y-111136847D01*
X168951784Y-110966087D01*
X168951779Y-110966083D01*
X168951777Y-110966081D01*
X168768634Y-110823535D01*
X168768628Y-110823531D01*
X168564504Y-110713064D01*
X168564495Y-110713061D01*
X168344984Y-110637702D01*
X168173282Y-110609050D01*
X168116049Y-110599500D01*
X167883951Y-110599500D01*
X167838164Y-110607140D01*
X167655015Y-110637702D01*
X167435504Y-110713061D01*
X167435495Y-110713064D01*
X167231371Y-110823531D01*
X167231365Y-110823535D01*
X167048222Y-110966081D01*
X167048219Y-110966084D01*
X166891016Y-111136852D01*
X166764075Y-111331151D01*
X166670842Y-111543699D01*
X166613866Y-111768691D01*
X166613864Y-111768702D01*
X166594700Y-111999993D01*
X166594700Y-112000006D01*
X141147580Y-112000006D01*
X136111790Y-106964216D01*
X136078305Y-106902893D01*
X136083289Y-106833201D01*
X136125161Y-106777268D01*
X136140454Y-106767480D01*
X136163576Y-106754967D01*
X136308626Y-106676470D01*
X136309170Y-106676047D01*
X136370129Y-106628600D01*
X136491784Y-106533913D01*
X136648979Y-106363153D01*
X136775924Y-106168849D01*
X136869157Y-105956300D01*
X136926134Y-105731305D01*
X136926135Y-105731297D01*
X136945300Y-105500006D01*
X136945300Y-105499993D01*
X136926135Y-105268702D01*
X136926133Y-105268691D01*
X136869157Y-105043699D01*
X136775924Y-104831151D01*
X136648983Y-104636852D01*
X136648980Y-104636849D01*
X136648979Y-104636847D01*
X136491784Y-104466087D01*
X136491779Y-104466083D01*
X136491777Y-104466081D01*
X136308634Y-104323535D01*
X136308628Y-104323531D01*
X136104504Y-104213064D01*
X136104495Y-104213061D01*
X135884984Y-104137702D01*
X135713282Y-104109050D01*
X135656049Y-104099500D01*
X135423951Y-104099500D01*
X135378164Y-104107140D01*
X135195015Y-104137702D01*
X134975504Y-104213061D01*
X134975495Y-104213064D01*
X134771371Y-104323531D01*
X134771365Y-104323535D01*
X134588222Y-104466081D01*
X134588219Y-104466084D01*
X134431016Y-104636852D01*
X134373809Y-104724416D01*
X134320662Y-104769773D01*
X134251431Y-104779197D01*
X134188095Y-104749695D01*
X134166191Y-104724416D01*
X134108983Y-104636852D01*
X134108980Y-104636849D01*
X134108979Y-104636847D01*
X133951784Y-104466087D01*
X133951779Y-104466083D01*
X133951777Y-104466081D01*
X133768634Y-104323535D01*
X133768619Y-104323525D01*
X133716682Y-104295418D01*
X133688019Y-104274045D01*
X132413979Y-103000005D01*
X166595202Y-103000005D01*
X166614361Y-103231218D01*
X166671317Y-103456135D01*
X166764515Y-103668606D01*
X166848812Y-103797633D01*
X167602046Y-103044399D01*
X167614835Y-103125148D01*
X167672359Y-103238045D01*
X167761955Y-103327641D01*
X167874852Y-103385165D01*
X167955599Y-103397953D01*
X167201201Y-104152351D01*
X167231649Y-104176050D01*
X167435697Y-104286476D01*
X167435706Y-104286479D01*
X167655139Y-104361811D01*
X167883993Y-104400000D01*
X168116007Y-104400000D01*
X168344860Y-104361811D01*
X168564293Y-104286479D01*
X168564301Y-104286476D01*
X168768355Y-104176047D01*
X168798797Y-104152351D01*
X168798798Y-104152350D01*
X168044401Y-103397953D01*
X168125148Y-103385165D01*
X168238045Y-103327641D01*
X168327641Y-103238045D01*
X168385165Y-103125148D01*
X168397953Y-103044400D01*
X169151186Y-103797633D01*
X169235482Y-103668611D01*
X169328682Y-103456135D01*
X169385638Y-103231218D01*
X169404798Y-103000005D01*
X169404798Y-102999994D01*
X169385638Y-102768781D01*
X169328682Y-102543864D01*
X169235484Y-102331393D01*
X169151186Y-102202365D01*
X168397953Y-102955598D01*
X168385165Y-102874852D01*
X168327641Y-102761955D01*
X168238045Y-102672359D01*
X168125148Y-102614835D01*
X168044400Y-102602046D01*
X168798797Y-101847647D01*
X168798797Y-101847645D01*
X168768360Y-101823955D01*
X168768354Y-101823951D01*
X168564302Y-101713523D01*
X168564293Y-101713520D01*
X168344860Y-101638188D01*
X168116007Y-101600000D01*
X167883993Y-101600000D01*
X167655139Y-101638188D01*
X167435706Y-101713520D01*
X167435697Y-101713523D01*
X167231650Y-101823949D01*
X167201200Y-101847647D01*
X167955600Y-102602046D01*
X167874852Y-102614835D01*
X167761955Y-102672359D01*
X167672359Y-102761955D01*
X167614835Y-102874852D01*
X167602046Y-102955600D01*
X166848811Y-102202365D01*
X166764516Y-102331390D01*
X166671317Y-102543864D01*
X166614361Y-102768781D01*
X166595202Y-102999994D01*
X166595202Y-103000005D01*
X132413979Y-103000005D01*
X129432616Y-100018642D01*
X129423349Y-100008273D01*
X129401308Y-99980634D01*
X129401306Y-99980632D01*
X129351403Y-99937032D01*
X129345307Y-99931333D01*
X129338332Y-99924358D01*
X129338321Y-99924348D01*
X129307055Y-99898245D01*
X129304939Y-99896438D01*
X129231803Y-99832540D01*
X129231797Y-99832536D01*
X129231796Y-99832535D01*
X129228041Y-99830291D01*
X129212173Y-99819032D01*
X129208819Y-99816232D01*
X129208818Y-99816231D01*
X129208813Y-99816227D01*
X129124348Y-99768301D01*
X129121944Y-99766901D01*
X129038563Y-99717084D01*
X129034469Y-99715548D01*
X129016844Y-99707302D01*
X129013045Y-99705146D01*
X128921369Y-99673067D01*
X128918753Y-99672119D01*
X128827829Y-99637994D01*
X128827819Y-99637991D01*
X128823523Y-99637212D01*
X128804718Y-99632249D01*
X128800584Y-99630802D01*
X128800577Y-99630801D01*
X128704648Y-99615607D01*
X128701905Y-99615141D01*
X128606350Y-99597800D01*
X128606347Y-99597800D01*
X128601972Y-99597800D01*
X128582569Y-99596272D01*
X128578260Y-99595589D01*
X128481159Y-99597769D01*
X128478377Y-99597800D01*
X125581936Y-99597800D01*
X125514897Y-99578115D01*
X125494255Y-99561481D01*
X123447896Y-97515122D01*
X123414411Y-97453799D01*
X123419395Y-97384107D01*
X123461267Y-97328174D01*
X123495315Y-97310159D01*
X123564301Y-97286476D01*
X123768355Y-97176047D01*
X123798797Y-97152351D01*
X123798798Y-97152351D01*
X123044400Y-96397953D01*
X123125148Y-96385165D01*
X123238045Y-96327641D01*
X123327641Y-96238045D01*
X123385165Y-96125148D01*
X123397953Y-96044400D01*
X124151186Y-96797633D01*
X124235482Y-96668611D01*
X124328682Y-96456135D01*
X124385638Y-96231218D01*
X124404798Y-96000005D01*
X124404798Y-96000000D01*
X171894592Y-96000000D01*
X171914201Y-96286680D01*
X171914201Y-96286684D01*
X171914202Y-96286686D01*
X171928097Y-96353553D01*
X171972666Y-96568034D01*
X171972667Y-96568037D01*
X172068894Y-96838793D01*
X172068893Y-96838793D01*
X172201098Y-97093935D01*
X172366812Y-97328700D01*
X172451923Y-97419831D01*
X172562947Y-97538708D01*
X172664309Y-97621172D01*
X172785853Y-97720055D01*
X173031382Y-97869365D01*
X173218237Y-97950526D01*
X173294942Y-97983844D01*
X173571642Y-98061371D01*
X173821920Y-98095771D01*
X173856321Y-98100500D01*
X173856322Y-98100500D01*
X174143679Y-98100500D01*
X174174370Y-98096281D01*
X174428358Y-98061371D01*
X174705058Y-97983844D01*
X174818015Y-97934779D01*
X174968617Y-97869365D01*
X174968620Y-97869363D01*
X174968625Y-97869361D01*
X175214147Y-97720055D01*
X175437053Y-97538708D01*
X175633189Y-97328698D01*
X175798901Y-97093936D01*
X175931104Y-96838797D01*
X176027334Y-96568032D01*
X176085798Y-96286686D01*
X176105408Y-96000000D01*
X176085798Y-95713314D01*
X176027334Y-95431968D01*
X175931105Y-95161206D01*
X175931106Y-95161206D01*
X175798901Y-94906064D01*
X175633187Y-94671299D01*
X175554554Y-94587105D01*
X175437053Y-94461292D01*
X175214147Y-94279945D01*
X175214146Y-94279944D01*
X174968617Y-94130634D01*
X174705063Y-94016158D01*
X174705061Y-94016157D01*
X174705058Y-94016156D01*
X174575578Y-93979877D01*
X174428364Y-93938630D01*
X174428359Y-93938629D01*
X174428358Y-93938629D01*
X174286018Y-93919064D01*
X174143679Y-93899500D01*
X174143678Y-93899500D01*
X173856322Y-93899500D01*
X173856321Y-93899500D01*
X173571642Y-93938629D01*
X173571635Y-93938630D01*
X173363861Y-93996845D01*
X173294942Y-94016156D01*
X173294939Y-94016156D01*
X173294936Y-94016158D01*
X173294935Y-94016158D01*
X173031382Y-94130634D01*
X172785853Y-94279944D01*
X172562950Y-94461289D01*
X172366812Y-94671299D01*
X172201098Y-94906064D01*
X172068894Y-95161206D01*
X171972667Y-95431962D01*
X171972666Y-95431965D01*
X171914201Y-95713319D01*
X171894592Y-96000000D01*
X124404798Y-96000000D01*
X124404798Y-95999994D01*
X124385638Y-95768781D01*
X124328682Y-95543864D01*
X124235484Y-95331393D01*
X124151186Y-95202365D01*
X123397953Y-95955598D01*
X123385165Y-95874852D01*
X123327641Y-95761955D01*
X123238045Y-95672359D01*
X123125148Y-95614835D01*
X123044400Y-95602046D01*
X123798797Y-94847647D01*
X123798797Y-94847645D01*
X123768360Y-94823955D01*
X123768354Y-94823951D01*
X123564302Y-94713523D01*
X123564293Y-94713520D01*
X123344860Y-94638188D01*
X123116007Y-94600000D01*
X122883993Y-94600000D01*
X122655139Y-94638188D01*
X122435706Y-94713520D01*
X122435697Y-94713523D01*
X122231650Y-94823949D01*
X122201200Y-94847647D01*
X122955600Y-95602046D01*
X122874852Y-95614835D01*
X122761955Y-95672359D01*
X122672359Y-95761955D01*
X122614835Y-95874852D01*
X122602046Y-95955599D01*
X121848811Y-95202365D01*
X121764516Y-95331390D01*
X121684863Y-95512981D01*
X121639907Y-95566467D01*
X121573171Y-95587157D01*
X121505843Y-95568482D01*
X121483626Y-95550852D01*
X121103116Y-95170342D01*
X121093849Y-95159973D01*
X121071806Y-95132332D01*
X121021903Y-95088732D01*
X121015807Y-95083033D01*
X121008832Y-95076058D01*
X121008821Y-95076048D01*
X120977555Y-95049945D01*
X120975439Y-95048138D01*
X120902303Y-94984240D01*
X120902297Y-94984236D01*
X120902296Y-94984235D01*
X120898541Y-94981991D01*
X120882673Y-94970732D01*
X120879319Y-94967932D01*
X120879318Y-94967931D01*
X120879313Y-94967927D01*
X120794848Y-94920001D01*
X120792444Y-94918601D01*
X120709063Y-94868784D01*
X120704969Y-94867248D01*
X120687344Y-94859002D01*
X120683545Y-94856846D01*
X120591869Y-94824767D01*
X120589253Y-94823819D01*
X120498329Y-94789694D01*
X120498319Y-94789691D01*
X120494023Y-94788912D01*
X120475218Y-94783949D01*
X120471084Y-94782502D01*
X120471077Y-94782501D01*
X120375148Y-94767307D01*
X120372405Y-94766841D01*
X120276850Y-94749500D01*
X120276847Y-94749500D01*
X120272472Y-94749500D01*
X120253069Y-94747972D01*
X120248760Y-94747289D01*
X120151659Y-94749469D01*
X120148877Y-94749500D01*
X118663232Y-94749500D01*
X118604214Y-94734554D01*
X118564513Y-94713069D01*
X118564507Y-94713066D01*
X118564503Y-94713064D01*
X118564500Y-94713063D01*
X118564498Y-94713062D01*
X118344984Y-94637702D01*
X118173282Y-94609050D01*
X118116049Y-94599500D01*
X117883951Y-94599500D01*
X117838164Y-94607140D01*
X117655015Y-94637702D01*
X117435504Y-94713061D01*
X117435495Y-94713064D01*
X117231371Y-94823531D01*
X117231365Y-94823535D01*
X117048222Y-94966081D01*
X117048219Y-94966084D01*
X116891016Y-95136852D01*
X116764075Y-95331151D01*
X116670842Y-95543699D01*
X116613866Y-95768691D01*
X116613864Y-95768702D01*
X116594700Y-95999993D01*
X116594700Y-96000006D01*
X116613864Y-96231297D01*
X116613866Y-96231308D01*
X116670842Y-96456300D01*
X116764075Y-96668848D01*
X116891016Y-96863147D01*
X116891019Y-96863151D01*
X116891021Y-96863153D01*
X117048216Y-97033913D01*
X117048219Y-97033915D01*
X117048222Y-97033918D01*
X117231365Y-97176464D01*
X117231371Y-97176468D01*
X117231374Y-97176470D01*
X117435497Y-97286936D01*
X117549487Y-97326068D01*
X117655015Y-97362297D01*
X117655017Y-97362297D01*
X117655019Y-97362298D01*
X117883951Y-97400500D01*
X117883952Y-97400500D01*
X118116048Y-97400500D01*
X118116049Y-97400500D01*
X118344981Y-97362298D01*
X118564503Y-97286936D01*
X118586696Y-97274925D01*
X118604214Y-97265446D01*
X118663232Y-97250500D01*
X119594964Y-97250500D01*
X119662003Y-97270185D01*
X119682645Y-97286819D01*
X120797593Y-98401767D01*
X120831078Y-98463090D01*
X120826094Y-98532782D01*
X120784222Y-98588715D01*
X120718758Y-98613132D01*
X120689503Y-98611757D01*
X120616049Y-98599500D01*
X120383951Y-98599500D01*
X120338164Y-98607140D01*
X120155015Y-98637702D01*
X119935504Y-98713061D01*
X119935495Y-98713064D01*
X119731371Y-98823531D01*
X119731365Y-98823535D01*
X119548222Y-98966081D01*
X119548219Y-98966084D01*
X119548216Y-98966086D01*
X119548216Y-98966087D01*
X119489267Y-99030122D01*
X119391016Y-99136852D01*
X119264075Y-99331151D01*
X119170842Y-99543699D01*
X119113866Y-99768691D01*
X119113864Y-99768702D01*
X119094700Y-99999993D01*
X119094700Y-100000006D01*
X119113864Y-100231297D01*
X119113866Y-100231308D01*
X119170842Y-100456300D01*
X119264075Y-100668848D01*
X119391016Y-100863147D01*
X119391019Y-100863151D01*
X119391021Y-100863153D01*
X119548216Y-101033913D01*
X119548219Y-101033915D01*
X119548222Y-101033918D01*
X119731365Y-101176464D01*
X119731371Y-101176468D01*
X119731374Y-101176470D01*
X119935497Y-101286936D01*
X120049487Y-101326068D01*
X120155015Y-101362297D01*
X120155017Y-101362297D01*
X120155019Y-101362298D01*
X120383951Y-101400500D01*
X120383952Y-101400500D01*
X120616048Y-101400500D01*
X120616049Y-101400500D01*
X120844981Y-101362298D01*
X121064503Y-101286936D01*
X121268626Y-101176470D01*
X121451784Y-101033913D01*
X121608979Y-100863153D01*
X121735924Y-100668849D01*
X121829157Y-100456300D01*
X121886134Y-100231305D01*
X121896373Y-100107738D01*
X121905300Y-100000006D01*
X121905300Y-99999994D01*
X121888916Y-99802268D01*
X121902997Y-99733832D01*
X121951842Y-99683873D01*
X122019943Y-99668252D01*
X122085679Y-99691929D01*
X122100173Y-99704347D01*
X124073782Y-101677956D01*
X124083048Y-101688324D01*
X124105092Y-101715966D01*
X124154995Y-101759566D01*
X124161091Y-101765265D01*
X124168071Y-101772245D01*
X124199371Y-101798376D01*
X124201459Y-101800160D01*
X124274604Y-101864065D01*
X124278353Y-101866305D01*
X124294222Y-101877564D01*
X124297580Y-101880367D01*
X124297583Y-101880370D01*
X124382066Y-101928306D01*
X124384434Y-101929684D01*
X124467836Y-101979515D01*
X124471926Y-101981049D01*
X124489550Y-101989295D01*
X124493349Y-101991451D01*
X124493351Y-101991452D01*
X124493355Y-101991454D01*
X124585079Y-102023549D01*
X124587620Y-102024470D01*
X124678576Y-102058607D01*
X124682866Y-102059385D01*
X124701694Y-102064355D01*
X124705818Y-102065798D01*
X124801879Y-102081012D01*
X124804427Y-102081445D01*
X124882622Y-102095636D01*
X124900052Y-102098800D01*
X124900053Y-102098800D01*
X124904422Y-102098800D01*
X124923820Y-102100326D01*
X124928141Y-102101011D01*
X125025267Y-102098830D01*
X125028049Y-102098800D01*
X127924464Y-102098800D01*
X127991503Y-102118485D01*
X128012145Y-102135119D01*
X129904539Y-104027514D01*
X129938024Y-104088837D01*
X129933040Y-104158529D01*
X129891168Y-104214462D01*
X129875876Y-104224249D01*
X129691656Y-104323944D01*
X129691652Y-104323947D01*
X129661200Y-104347647D01*
X130415599Y-105102046D01*
X130334852Y-105114835D01*
X130221955Y-105172359D01*
X130132359Y-105261955D01*
X130074835Y-105374852D01*
X130062046Y-105455600D01*
X129308811Y-104702365D01*
X129224516Y-104831390D01*
X129131317Y-105043864D01*
X129074361Y-105268781D01*
X129055202Y-105499994D01*
X129055202Y-105500005D01*
X129074361Y-105731218D01*
X129131317Y-105956135D01*
X129224515Y-106168606D01*
X129308812Y-106297633D01*
X130062046Y-105544399D01*
X130074835Y-105625148D01*
X130132359Y-105738045D01*
X130221955Y-105827641D01*
X130334852Y-105885165D01*
X130415599Y-105897953D01*
X129661201Y-106652351D01*
X129691649Y-106676050D01*
X129895697Y-106786476D01*
X129895706Y-106786479D01*
X130115139Y-106861811D01*
X130343993Y-106900000D01*
X130576007Y-106900000D01*
X130804860Y-106861811D01*
X131024293Y-106786479D01*
X131024301Y-106786476D01*
X131228355Y-106676047D01*
X131258797Y-106652351D01*
X131258798Y-106652350D01*
X130504401Y-105897953D01*
X130585148Y-105885165D01*
X130698045Y-105827641D01*
X130787641Y-105738045D01*
X130845165Y-105625148D01*
X130857953Y-105544400D01*
X131611185Y-106297632D01*
X131625891Y-106275125D01*
X131679037Y-106229768D01*
X131748268Y-106220344D01*
X131811604Y-106249846D01*
X131833508Y-106275123D01*
X131891021Y-106363153D01*
X132048216Y-106533913D01*
X132048219Y-106533915D01*
X132048222Y-106533918D01*
X132231365Y-106676464D01*
X132231375Y-106676471D01*
X132292757Y-106709689D01*
X132336930Y-106733594D01*
X132365593Y-106754967D01*
X147753745Y-122143119D01*
X147787230Y-122204442D01*
X147782246Y-122274134D01*
X147740374Y-122330067D01*
X147674910Y-122354484D01*
X147666064Y-122354800D01*
X135361700Y-122354800D01*
X135294661Y-122335115D01*
X135248906Y-122282311D01*
X135238962Y-122213153D01*
X135248142Y-122180992D01*
X135329157Y-121996300D01*
X135386134Y-121771305D01*
X135390960Y-121713061D01*
X135405300Y-121540006D01*
X135405300Y-121539993D01*
X135386135Y-121308702D01*
X135386133Y-121308691D01*
X135329157Y-121083699D01*
X135235924Y-120871151D01*
X135108983Y-120676852D01*
X135108980Y-120676849D01*
X135108979Y-120676847D01*
X134951784Y-120506087D01*
X134774180Y-120367853D01*
X134733368Y-120311143D01*
X134729693Y-120241370D01*
X134764324Y-120180687D01*
X134774181Y-120172146D01*
X134951784Y-120033913D01*
X135108979Y-119863153D01*
X135235924Y-119668849D01*
X135329157Y-119456300D01*
X135364284Y-119317584D01*
X135399824Y-119257430D01*
X135462244Y-119226038D01*
X135531727Y-119233376D01*
X135572171Y-119260345D01*
X137188271Y-120876445D01*
X137317782Y-120984569D01*
X137317785Y-120984570D01*
X137317787Y-120984572D01*
X137513556Y-121095654D01*
X137726018Y-121169998D01*
X137948341Y-121205211D01*
X138173378Y-121200160D01*
X138393896Y-121155008D01*
X138602810Y-121071208D01*
X138793403Y-120951450D01*
X138959549Y-120799586D01*
X139095909Y-120620496D01*
X139198099Y-120419935D01*
X139213739Y-120367854D01*
X139262836Y-120204352D01*
X139262836Y-120204349D01*
X139266464Y-120172147D01*
X139288038Y-119980673D01*
X139272897Y-119756088D01*
X139217896Y-119537817D01*
X139124807Y-119332875D01*
X138996620Y-119147846D01*
X136167216Y-116318442D01*
X136157949Y-116308073D01*
X136135906Y-116280432D01*
X136086003Y-116236832D01*
X136079907Y-116231133D01*
X136072932Y-116224158D01*
X136072921Y-116224148D01*
X136041655Y-116198045D01*
X136039539Y-116196238D01*
X135966403Y-116132340D01*
X135966397Y-116132336D01*
X135966396Y-116132335D01*
X135962641Y-116130091D01*
X135946773Y-116118832D01*
X135943419Y-116116032D01*
X135943418Y-116116031D01*
X135943413Y-116116027D01*
X135858948Y-116068101D01*
X135856544Y-116066701D01*
X135773163Y-116016884D01*
X135769069Y-116015348D01*
X135751444Y-116007102D01*
X135747645Y-116004946D01*
X135655969Y-115972867D01*
X135653353Y-115971919D01*
X135562429Y-115937794D01*
X135562419Y-115937791D01*
X135558123Y-115937012D01*
X135539318Y-115932049D01*
X135535184Y-115930602D01*
X135535177Y-115930601D01*
X135439248Y-115915407D01*
X135436505Y-115914941D01*
X135340950Y-115897600D01*
X135340947Y-115897600D01*
X135336572Y-115897600D01*
X135317169Y-115896072D01*
X135312860Y-115895389D01*
X135215759Y-115897569D01*
X135212977Y-115897600D01*
X120137436Y-115897600D01*
X120070397Y-115877915D01*
X120049755Y-115861281D01*
X107688479Y-103500005D01*
X110074357Y-103500005D01*
X110094890Y-103747812D01*
X110094892Y-103747824D01*
X110155936Y-103988881D01*
X110255826Y-104216606D01*
X110391833Y-104424782D01*
X110391836Y-104424785D01*
X110560256Y-104607738D01*
X110756491Y-104760474D01*
X110975190Y-104878828D01*
X111210386Y-104959571D01*
X111455665Y-105000500D01*
X111704335Y-105000500D01*
X111949614Y-104959571D01*
X112184810Y-104878828D01*
X112403509Y-104760474D01*
X112599744Y-104607738D01*
X112768164Y-104424785D01*
X112904173Y-104216607D01*
X113004063Y-103988881D01*
X113065108Y-103747821D01*
X113085643Y-103500000D01*
X113082008Y-103456135D01*
X113065109Y-103252187D01*
X113065107Y-103252175D01*
X113004063Y-103011118D01*
X112904173Y-102783393D01*
X112768166Y-102575217D01*
X112739303Y-102543864D01*
X112599744Y-102392262D01*
X112403509Y-102239526D01*
X112403507Y-102239525D01*
X112403506Y-102239524D01*
X112184811Y-102121172D01*
X112184802Y-102121169D01*
X111949616Y-102040429D01*
X111704335Y-101999500D01*
X111455665Y-101999500D01*
X111210383Y-102040429D01*
X110975197Y-102121169D01*
X110975188Y-102121172D01*
X110756493Y-102239524D01*
X110560257Y-102392261D01*
X110391833Y-102575217D01*
X110255826Y-102783393D01*
X110155936Y-103011118D01*
X110094892Y-103252175D01*
X110094890Y-103252187D01*
X110074357Y-103499994D01*
X110074357Y-103500005D01*
X107688479Y-103500005D01*
X103188479Y-99000005D01*
X110074357Y-99000005D01*
X110094890Y-99247812D01*
X110094892Y-99247824D01*
X110155936Y-99488881D01*
X110255826Y-99716606D01*
X110391833Y-99924782D01*
X110403110Y-99937032D01*
X110560256Y-100107738D01*
X110756491Y-100260474D01*
X110975190Y-100378828D01*
X111210386Y-100459571D01*
X111455665Y-100500500D01*
X111704335Y-100500500D01*
X111949614Y-100459571D01*
X112184810Y-100378828D01*
X112403509Y-100260474D01*
X112599744Y-100107738D01*
X112768164Y-99924785D01*
X112904173Y-99716607D01*
X113004063Y-99488881D01*
X113065108Y-99247821D01*
X113085643Y-99000000D01*
X113082832Y-98966081D01*
X113065109Y-98752187D01*
X113065107Y-98752175D01*
X113004063Y-98511118D01*
X112904173Y-98283393D01*
X112768166Y-98075217D01*
X112684048Y-97983841D01*
X112599744Y-97892262D01*
X112403509Y-97739526D01*
X112403507Y-97739525D01*
X112403506Y-97739524D01*
X112184811Y-97621172D01*
X112184802Y-97621169D01*
X111949616Y-97540429D01*
X111704335Y-97499500D01*
X111455665Y-97499500D01*
X111210383Y-97540429D01*
X110975197Y-97621169D01*
X110975188Y-97621172D01*
X110756493Y-97739524D01*
X110560257Y-97892261D01*
X110391833Y-98075217D01*
X110255826Y-98283393D01*
X110155936Y-98511118D01*
X110094892Y-98752175D01*
X110094890Y-98752187D01*
X110074357Y-98999994D01*
X110074357Y-99000005D01*
X103188479Y-99000005D01*
X102917197Y-98728723D01*
X102884672Y-98671482D01*
X102869896Y-98613132D01*
X102844063Y-98511119D01*
X102744173Y-98283393D01*
X102608166Y-98075217D01*
X102524048Y-97983841D01*
X102439744Y-97892262D01*
X102243509Y-97739526D01*
X102243507Y-97739525D01*
X102243506Y-97739524D01*
X102024811Y-97621172D01*
X102024802Y-97621169D01*
X101789616Y-97540429D01*
X101544335Y-97499500D01*
X101295665Y-97499500D01*
X101050383Y-97540429D01*
X100815197Y-97621169D01*
X100815188Y-97621172D01*
X100596493Y-97739524D01*
X100400257Y-97892261D01*
X100231833Y-98075217D01*
X100095826Y-98283393D01*
X99995936Y-98511118D01*
X99934892Y-98752175D01*
X99934890Y-98752187D01*
X99914357Y-98999994D01*
X99914357Y-99000005D01*
X99934890Y-99247812D01*
X99934892Y-99247824D01*
X99995936Y-99488881D01*
X100095826Y-99716606D01*
X100231833Y-99924782D01*
X100243110Y-99937032D01*
X100400256Y-100107738D01*
X100596491Y-100260474D01*
X100815190Y-100378828D01*
X101019995Y-100449138D01*
X101050380Y-100459569D01*
X101050385Y-100459571D01*
X101084073Y-100465192D01*
X101146959Y-100495641D01*
X101151346Y-100499820D01*
X118629286Y-117977761D01*
X118638552Y-117988129D01*
X118660592Y-118015766D01*
X118710487Y-118059359D01*
X118716583Y-118065058D01*
X118723570Y-118072045D01*
X118737988Y-118084082D01*
X118754890Y-118098193D01*
X118757004Y-118099999D01*
X118830104Y-118163865D01*
X118833866Y-118166113D01*
X118849722Y-118177364D01*
X118853081Y-118180168D01*
X118937226Y-118227913D01*
X118937550Y-118228097D01*
X118939954Y-118229497D01*
X119023332Y-118279313D01*
X119023333Y-118279313D01*
X119023336Y-118279315D01*
X119027427Y-118280850D01*
X119045055Y-118289096D01*
X119048855Y-118291253D01*
X119140596Y-118323354D01*
X119143098Y-118324261D01*
X119234076Y-118358407D01*
X119236665Y-118358876D01*
X119238374Y-118359187D01*
X119257189Y-118364153D01*
X119261317Y-118365598D01*
X119357337Y-118380805D01*
X119359932Y-118381246D01*
X119431532Y-118394240D01*
X119455552Y-118398600D01*
X119455553Y-118398600D01*
X119459928Y-118398600D01*
X119479331Y-118400128D01*
X119481038Y-118400397D01*
X119483640Y-118400810D01*
X119580721Y-118398631D01*
X119583504Y-118398600D01*
X132548272Y-118398600D01*
X132615311Y-118418285D01*
X132661066Y-118471089D01*
X132671010Y-118540247D01*
X132668478Y-118553041D01*
X132613866Y-118768694D01*
X132613864Y-118768702D01*
X132594700Y-118999993D01*
X132594700Y-119000006D01*
X132613864Y-119231297D01*
X132613866Y-119231308D01*
X132670842Y-119456300D01*
X132764075Y-119668848D01*
X132891016Y-119863147D01*
X132891019Y-119863151D01*
X132891021Y-119863153D01*
X133048216Y-120033913D01*
X133048219Y-120033915D01*
X133048222Y-120033918D01*
X133225818Y-120172147D01*
X133266631Y-120228857D01*
X133270306Y-120298630D01*
X133235674Y-120359313D01*
X133225818Y-120367853D01*
X133048222Y-120506081D01*
X133048219Y-120506084D01*
X132891016Y-120676852D01*
X132764075Y-120871151D01*
X132670842Y-121083699D01*
X132613866Y-121308691D01*
X132613864Y-121308702D01*
X132594700Y-121539993D01*
X132594700Y-121540006D01*
X132613864Y-121771297D01*
X132613866Y-121771308D01*
X132670842Y-121996300D01*
X132764075Y-122208848D01*
X132891016Y-122403147D01*
X132891019Y-122403151D01*
X132891021Y-122403153D01*
X133048216Y-122573913D01*
X133048219Y-122573915D01*
X133048222Y-122573918D01*
X133225818Y-122712147D01*
X133266631Y-122768857D01*
X133270306Y-122838630D01*
X133235674Y-122899313D01*
X133225818Y-122907853D01*
X133048222Y-123046081D01*
X133048219Y-123046084D01*
X132891016Y-123216852D01*
X132764075Y-123411151D01*
X132670842Y-123623699D01*
X132613866Y-123848691D01*
X132613864Y-123848702D01*
X132594700Y-124079993D01*
X132594700Y-124080006D01*
X132613864Y-124311297D01*
X132613866Y-124311308D01*
X132670842Y-124536300D01*
X132764075Y-124748848D01*
X132891016Y-124943147D01*
X132891019Y-124943151D01*
X132891021Y-124943153D01*
X133048216Y-125113913D01*
X133195689Y-125228695D01*
X133226225Y-125252462D01*
X133267038Y-125309173D01*
X133270713Y-125378946D01*
X133236082Y-125439629D01*
X133226225Y-125448170D01*
X133201201Y-125467646D01*
X133201200Y-125467647D01*
X133955600Y-126222046D01*
X133874852Y-126234835D01*
X133761955Y-126292359D01*
X133672359Y-126381955D01*
X133614835Y-126494852D01*
X133602046Y-126575600D01*
X132848811Y-125822365D01*
X132764516Y-125951390D01*
X132671317Y-126163864D01*
X132614361Y-126388781D01*
X132595202Y-126619994D01*
X132595202Y-126620005D01*
X132614361Y-126851218D01*
X132671316Y-127076132D01*
X132675948Y-127086691D01*
X132684849Y-127155992D01*
X132654872Y-127219104D01*
X132595532Y-127255989D01*
X132562391Y-127260500D01*
X102794500Y-127260500D01*
X102727461Y-127240815D01*
X102681706Y-127188011D01*
X102670500Y-127136500D01*
X102670500Y-104366289D01*
X102690185Y-104299250D01*
X102690691Y-104298468D01*
X102739180Y-104224249D01*
X102744173Y-104216607D01*
X102844063Y-103988881D01*
X102905108Y-103747821D01*
X102925643Y-103500000D01*
X102922008Y-103456135D01*
X102905109Y-103252187D01*
X102905107Y-103252175D01*
X102844063Y-103011118D01*
X102744173Y-102783393D01*
X102608166Y-102575217D01*
X102579303Y-102543864D01*
X102439744Y-102392262D01*
X102243509Y-102239526D01*
X102243507Y-102239525D01*
X102243506Y-102239524D01*
X102024811Y-102121172D01*
X102024802Y-102121169D01*
X101789616Y-102040429D01*
X101544335Y-101999500D01*
X101295665Y-101999500D01*
X101050383Y-102040429D01*
X100815197Y-102121169D01*
X100815188Y-102121172D01*
X100596493Y-102239524D01*
X100400257Y-102392261D01*
X100231833Y-102575217D01*
X100095826Y-102783393D01*
X99995936Y-103011118D01*
X99934892Y-103252175D01*
X99934890Y-103252187D01*
X99914357Y-103499994D01*
X99914357Y-103500005D01*
X99934890Y-103747812D01*
X99934892Y-103747824D01*
X99995936Y-103988881D01*
X100095826Y-104216606D01*
X100149309Y-104298468D01*
X100169496Y-104365357D01*
X100169500Y-104366289D01*
X100169500Y-126705500D01*
X100149815Y-126772539D01*
X100097011Y-126818294D01*
X100045500Y-126829500D01*
X94984605Y-126829500D01*
X94917566Y-126809815D01*
X94871811Y-126757011D01*
X94861867Y-126687853D01*
X94890892Y-126624297D01*
X94908439Y-126607648D01*
X94951784Y-126573913D01*
X95108979Y-126403153D01*
X95235924Y-126208849D01*
X95329157Y-125996300D01*
X95386134Y-125771305D01*
X95392763Y-125691305D01*
X95405300Y-125540006D01*
X95405300Y-125539993D01*
X95386135Y-125308702D01*
X95386133Y-125308691D01*
X95329157Y-125083699D01*
X95235924Y-124871151D01*
X95108983Y-124676852D01*
X95108980Y-124676849D01*
X95108979Y-124676847D01*
X94951784Y-124506087D01*
X94774180Y-124367853D01*
X94733368Y-124311143D01*
X94729693Y-124241370D01*
X94764324Y-124180687D01*
X94774181Y-124172146D01*
X94951784Y-124033913D01*
X95108979Y-123863153D01*
X95118428Y-123848691D01*
X95122832Y-123841948D01*
X95235924Y-123668849D01*
X95329157Y-123456300D01*
X95386134Y-123231305D01*
X95387332Y-123216847D01*
X95405300Y-123000006D01*
X95405300Y-122999993D01*
X95386135Y-122768702D01*
X95386133Y-122768691D01*
X95329157Y-122543699D01*
X95235924Y-122331151D01*
X95108983Y-122136852D01*
X95108980Y-122136849D01*
X95108979Y-122136847D01*
X94951784Y-121966087D01*
X94951779Y-121966083D01*
X94951777Y-121966081D01*
X94768634Y-121823535D01*
X94768628Y-121823531D01*
X94564504Y-121713064D01*
X94564495Y-121713061D01*
X94344984Y-121637702D01*
X94146875Y-121604644D01*
X94116049Y-121599500D01*
X93883951Y-121599500D01*
X93883950Y-121599500D01*
X93802881Y-121613027D01*
X93733516Y-121604644D01*
X93679695Y-121560091D01*
X93658504Y-121493512D01*
X93658478Y-121491653D01*
X93515670Y-96000000D01*
X93894592Y-96000000D01*
X93914201Y-96286680D01*
X93914201Y-96286684D01*
X93914202Y-96286686D01*
X93928097Y-96353553D01*
X93972666Y-96568034D01*
X93972667Y-96568037D01*
X94068894Y-96838793D01*
X94068893Y-96838793D01*
X94201098Y-97093935D01*
X94366812Y-97328700D01*
X94451923Y-97419831D01*
X94562947Y-97538708D01*
X94664309Y-97621172D01*
X94785853Y-97720055D01*
X95031382Y-97869365D01*
X95218237Y-97950526D01*
X95294942Y-97983844D01*
X95571642Y-98061371D01*
X95821920Y-98095771D01*
X95856321Y-98100500D01*
X95856322Y-98100500D01*
X96143679Y-98100500D01*
X96174370Y-98096281D01*
X96428358Y-98061371D01*
X96705058Y-97983844D01*
X96818015Y-97934779D01*
X96968617Y-97869365D01*
X96968620Y-97869363D01*
X96968625Y-97869361D01*
X97214147Y-97720055D01*
X97437053Y-97538708D01*
X97633189Y-97328698D01*
X97798901Y-97093936D01*
X97931104Y-96838797D01*
X98027334Y-96568032D01*
X98085798Y-96286686D01*
X98105408Y-96000000D01*
X98085798Y-95713314D01*
X98027334Y-95431968D01*
X97931105Y-95161206D01*
X97931106Y-95161206D01*
X97798901Y-94906064D01*
X97633187Y-94671299D01*
X97554554Y-94587105D01*
X97437053Y-94461292D01*
X97214147Y-94279945D01*
X97214146Y-94279944D01*
X96968617Y-94130634D01*
X96705063Y-94016158D01*
X96705061Y-94016157D01*
X96705058Y-94016156D01*
X96575578Y-93979877D01*
X96428364Y-93938630D01*
X96428359Y-93938629D01*
X96428358Y-93938629D01*
X96286018Y-93919064D01*
X96143679Y-93899500D01*
X96143678Y-93899500D01*
X95856322Y-93899500D01*
X95856321Y-93899500D01*
X95571642Y-93938629D01*
X95571635Y-93938630D01*
X95363861Y-93996845D01*
X95294942Y-94016156D01*
X95294939Y-94016156D01*
X95294936Y-94016158D01*
X95294935Y-94016158D01*
X95031382Y-94130634D01*
X94785853Y-94279944D01*
X94562950Y-94461289D01*
X94366812Y-94671299D01*
X94201098Y-94906064D01*
X94068894Y-95161206D01*
X93972667Y-95431962D01*
X93972666Y-95431965D01*
X93914201Y-95713319D01*
X93894592Y-96000000D01*
X93515670Y-96000000D01*
X93502373Y-93626535D01*
X93521681Y-93559392D01*
X93574227Y-93513342D01*
X93626539Y-93501846D01*
X176260171Y-93615943D01*
G37*
%TD.AperFunction*%
%TA.AperFunction,Conductor*%
G36*
X147231203Y-124875485D02*
G01*
X147251845Y-124892119D01*
X160892946Y-138533220D01*
X160926431Y-138594543D01*
X160921447Y-138664235D01*
X160879575Y-138720168D01*
X160864283Y-138729956D01*
X160691371Y-138823531D01*
X160691365Y-138823535D01*
X160508222Y-138966081D01*
X160508219Y-138966084D01*
X160508216Y-138966086D01*
X160508216Y-138966087D01*
X160390524Y-139093936D01*
X160351015Y-139136854D01*
X160293509Y-139224874D01*
X160240363Y-139270230D01*
X160171132Y-139279654D01*
X160107796Y-139250152D01*
X160085892Y-139224874D01*
X160071186Y-139202365D01*
X159317953Y-139955598D01*
X159305165Y-139874852D01*
X159247641Y-139761955D01*
X159158045Y-139672359D01*
X159045148Y-139614835D01*
X158964400Y-139602046D01*
X159718797Y-138847647D01*
X159718797Y-138847645D01*
X159688360Y-138823955D01*
X159688354Y-138823951D01*
X159484302Y-138713523D01*
X159484293Y-138713520D01*
X159264860Y-138638188D01*
X159036007Y-138600000D01*
X158803993Y-138600000D01*
X158575139Y-138638188D01*
X158355706Y-138713520D01*
X158355697Y-138713523D01*
X158151650Y-138823949D01*
X158121200Y-138847647D01*
X158875600Y-139602046D01*
X158794852Y-139614835D01*
X158681955Y-139672359D01*
X158592359Y-139761955D01*
X158534835Y-139874852D01*
X158522046Y-139955600D01*
X157768811Y-139202365D01*
X157684516Y-139331390D01*
X157591317Y-139543864D01*
X157534361Y-139768781D01*
X157515202Y-139999994D01*
X157515202Y-140000005D01*
X157534361Y-140231220D01*
X157535206Y-140236283D01*
X157533500Y-140236567D01*
X157531146Y-140298778D01*
X157491177Y-140356086D01*
X157426569Y-140382687D01*
X157413289Y-140383370D01*
X154507998Y-140376666D01*
X154441004Y-140356826D01*
X154395371Y-140303917D01*
X154385825Y-140236425D01*
X154385711Y-140236416D01*
X154385752Y-140235909D01*
X154385587Y-140234736D01*
X154385976Y-140232254D01*
X154386134Y-140231303D01*
X154386135Y-140231297D01*
X154395896Y-140113491D01*
X154405300Y-140000006D01*
X154405300Y-139999993D01*
X154386135Y-139768702D01*
X154386133Y-139768691D01*
X154329157Y-139543699D01*
X154235924Y-139331151D01*
X154108983Y-139136852D01*
X154108980Y-139136849D01*
X154108979Y-139136847D01*
X153951784Y-138966087D01*
X153951779Y-138966083D01*
X153951777Y-138966081D01*
X153768634Y-138823535D01*
X153768628Y-138823531D01*
X153564504Y-138713064D01*
X153564495Y-138713061D01*
X153344984Y-138637702D01*
X153164428Y-138607573D01*
X153116049Y-138599500D01*
X152883951Y-138599500D01*
X152838164Y-138607140D01*
X152655015Y-138637702D01*
X152435504Y-138713061D01*
X152435495Y-138713064D01*
X152231371Y-138823531D01*
X152231365Y-138823535D01*
X152048222Y-138966081D01*
X152048219Y-138966084D01*
X152048216Y-138966086D01*
X152048216Y-138966087D01*
X151964040Y-139057527D01*
X151925730Y-139099143D01*
X151865843Y-139135133D01*
X151796005Y-139133033D01*
X151738389Y-139093509D01*
X151711287Y-139029110D01*
X151710500Y-139015160D01*
X151710500Y-131903375D01*
X151711280Y-131889490D01*
X151713319Y-131871393D01*
X151715237Y-131854372D01*
X151711416Y-131797702D01*
X151710781Y-131788275D01*
X151710500Y-131779934D01*
X151710500Y-131770050D01*
X151710500Y-131770045D01*
X151706843Y-131729415D01*
X151706626Y-131726652D01*
X151700096Y-131629787D01*
X151699027Y-131625547D01*
X151695768Y-131606358D01*
X151695726Y-131605899D01*
X151695377Y-131602012D01*
X151669532Y-131508368D01*
X151668840Y-131505748D01*
X151645096Y-131411516D01*
X151643290Y-131407540D01*
X151636654Y-131389239D01*
X151635493Y-131385030D01*
X151593340Y-131297499D01*
X151592189Y-131295039D01*
X151552007Y-131206574D01*
X151549517Y-131202980D01*
X151539725Y-131186164D01*
X151537829Y-131182227D01*
X151480739Y-131103650D01*
X151479128Y-131101379D01*
X151432388Y-131033913D01*
X151423820Y-131021545D01*
X151420725Y-131018450D01*
X151408087Y-131003653D01*
X151405521Y-131000121D01*
X151405518Y-131000118D01*
X151335322Y-130933003D01*
X151333333Y-130931058D01*
X145469755Y-125067481D01*
X145436270Y-125006158D01*
X145441254Y-124936466D01*
X145483126Y-124880533D01*
X145548590Y-124856116D01*
X145557436Y-124855800D01*
X147164164Y-124855800D01*
X147231203Y-124875485D01*
G37*
%TD.AperFunction*%
%TA.AperFunction,Conductor*%
G36*
X145432974Y-128572235D02*
G01*
X145455193Y-128589867D01*
X149173181Y-132307855D01*
X149206666Y-132369178D01*
X149209500Y-132395536D01*
X149209500Y-139015160D01*
X149189815Y-139082199D01*
X149137011Y-139127954D01*
X149067853Y-139137898D01*
X149004297Y-139108873D01*
X148994270Y-139099143D01*
X148955960Y-139057527D01*
X148871784Y-138966087D01*
X148871779Y-138966083D01*
X148871777Y-138966081D01*
X148688634Y-138823535D01*
X148688628Y-138823531D01*
X148484504Y-138713064D01*
X148484495Y-138713061D01*
X148264984Y-138637702D01*
X148084428Y-138607573D01*
X148036049Y-138599500D01*
X147803951Y-138599500D01*
X147758164Y-138607140D01*
X147575015Y-138637702D01*
X147355504Y-138713061D01*
X147355495Y-138713064D01*
X147151371Y-138823531D01*
X147151365Y-138823535D01*
X146968222Y-138966081D01*
X146968219Y-138966084D01*
X146968216Y-138966086D01*
X146968216Y-138966087D01*
X146850524Y-139093936D01*
X146811015Y-139136854D01*
X146753509Y-139224874D01*
X146700363Y-139270230D01*
X146631132Y-139279654D01*
X146567796Y-139250152D01*
X146545892Y-139224874D01*
X146531186Y-139202365D01*
X145777953Y-139955598D01*
X145765165Y-139874852D01*
X145707641Y-139761955D01*
X145618045Y-139672359D01*
X145505148Y-139614835D01*
X145424400Y-139602046D01*
X146178797Y-138847647D01*
X146178797Y-138847645D01*
X146148360Y-138823955D01*
X146148354Y-138823951D01*
X145944302Y-138713523D01*
X145944293Y-138713520D01*
X145724860Y-138638188D01*
X145496007Y-138600000D01*
X145263993Y-138600000D01*
X145035139Y-138638188D01*
X144815706Y-138713520D01*
X144815697Y-138713523D01*
X144611650Y-138823949D01*
X144581200Y-138847647D01*
X145335600Y-139602046D01*
X145254852Y-139614835D01*
X145141955Y-139672359D01*
X145052359Y-139761955D01*
X144994835Y-139874852D01*
X144982046Y-139955600D01*
X144228811Y-139202365D01*
X144144516Y-139331390D01*
X144051317Y-139543864D01*
X143994361Y-139768781D01*
X143975202Y-139999994D01*
X143993256Y-140217880D01*
X143979174Y-140286316D01*
X143930329Y-140336275D01*
X143869393Y-140352120D01*
X141590972Y-140346863D01*
X141523978Y-140327023D01*
X141478345Y-140274114D01*
X141467682Y-140212623D01*
X141485300Y-140000005D01*
X141485300Y-139999993D01*
X141466135Y-139768702D01*
X141466133Y-139768691D01*
X141409157Y-139543699D01*
X141315924Y-139331151D01*
X141188983Y-139136852D01*
X141188980Y-139136849D01*
X141188979Y-139136847D01*
X141031784Y-138966087D01*
X141031779Y-138966083D01*
X141031777Y-138966081D01*
X140848634Y-138823535D01*
X140848628Y-138823531D01*
X140644504Y-138713064D01*
X140644495Y-138713061D01*
X140424984Y-138637702D01*
X140244428Y-138607573D01*
X140196049Y-138599500D01*
X139963951Y-138599500D01*
X139918164Y-138607140D01*
X139735015Y-138637702D01*
X139515504Y-138713061D01*
X139515495Y-138713064D01*
X139311371Y-138823531D01*
X139311365Y-138823535D01*
X139128222Y-138966081D01*
X139128219Y-138966084D01*
X139128216Y-138966086D01*
X139128216Y-138966087D01*
X139096999Y-138999998D01*
X138971016Y-139136852D01*
X138913809Y-139224416D01*
X138860662Y-139269773D01*
X138791431Y-139279197D01*
X138728095Y-139249695D01*
X138706191Y-139224416D01*
X138648983Y-139136852D01*
X138648980Y-139136849D01*
X138648979Y-139136847D01*
X138491784Y-138966087D01*
X138491779Y-138966083D01*
X138491777Y-138966081D01*
X138308634Y-138823535D01*
X138308628Y-138823531D01*
X138104504Y-138713064D01*
X138104495Y-138713061D01*
X137884984Y-138637702D01*
X137704428Y-138607573D01*
X137656049Y-138599500D01*
X137423951Y-138599500D01*
X137378164Y-138607140D01*
X137195015Y-138637702D01*
X136975504Y-138713061D01*
X136975495Y-138713064D01*
X136771371Y-138823531D01*
X136771365Y-138823535D01*
X136588222Y-138966081D01*
X136588219Y-138966084D01*
X136588216Y-138966086D01*
X136588216Y-138966087D01*
X136556999Y-138999998D01*
X136431016Y-139136852D01*
X136373809Y-139224416D01*
X136320662Y-139269773D01*
X136251431Y-139279197D01*
X136188095Y-139249695D01*
X136166191Y-139224416D01*
X136108983Y-139136852D01*
X136108980Y-139136849D01*
X136108979Y-139136847D01*
X135951784Y-138966087D01*
X135951779Y-138966083D01*
X135951777Y-138966081D01*
X135768634Y-138823535D01*
X135768628Y-138823531D01*
X135564504Y-138713064D01*
X135564495Y-138713061D01*
X135344984Y-138637702D01*
X135164428Y-138607573D01*
X135116049Y-138599500D01*
X134883951Y-138599500D01*
X134838164Y-138607140D01*
X134655015Y-138637702D01*
X134435504Y-138713061D01*
X134435495Y-138713064D01*
X134231371Y-138823531D01*
X134231365Y-138823535D01*
X134048222Y-138966081D01*
X134048219Y-138966084D01*
X134048216Y-138966086D01*
X134048216Y-138966087D01*
X134016999Y-138999998D01*
X133891016Y-139136852D01*
X133833809Y-139224416D01*
X133780662Y-139269773D01*
X133711431Y-139279197D01*
X133648095Y-139249695D01*
X133626191Y-139224416D01*
X133568983Y-139136852D01*
X133568980Y-139136849D01*
X133568979Y-139136847D01*
X133411784Y-138966087D01*
X133411779Y-138966083D01*
X133411777Y-138966081D01*
X133228634Y-138823535D01*
X133228628Y-138823531D01*
X133024504Y-138713064D01*
X133024495Y-138713061D01*
X132804984Y-138637702D01*
X132624428Y-138607573D01*
X132576049Y-138599500D01*
X132343951Y-138599500D01*
X132298164Y-138607140D01*
X132115015Y-138637702D01*
X131895504Y-138713061D01*
X131895495Y-138713064D01*
X131691371Y-138823531D01*
X131691365Y-138823535D01*
X131508222Y-138966081D01*
X131508219Y-138966084D01*
X131508216Y-138966086D01*
X131508216Y-138966087D01*
X131476999Y-138999998D01*
X131351016Y-139136852D01*
X131224075Y-139331151D01*
X131130842Y-139543699D01*
X131073866Y-139768691D01*
X131073864Y-139768702D01*
X131054700Y-139999993D01*
X131054700Y-139999994D01*
X131054700Y-140000000D01*
X131068293Y-140164044D01*
X131070283Y-140188063D01*
X131056201Y-140256499D01*
X131007356Y-140306458D01*
X130946420Y-140322302D01*
X128513472Y-140316689D01*
X128446478Y-140296849D01*
X128400845Y-140243940D01*
X128390182Y-140182449D01*
X128390759Y-140175493D01*
X128400215Y-140061369D01*
X128405300Y-140000005D01*
X128405300Y-139999993D01*
X128386135Y-139768702D01*
X128386133Y-139768691D01*
X128329157Y-139543699D01*
X128235924Y-139331151D01*
X128108983Y-139136852D01*
X128108980Y-139136849D01*
X128108979Y-139136847D01*
X127951784Y-138966087D01*
X127951779Y-138966083D01*
X127951777Y-138966081D01*
X127768634Y-138823535D01*
X127768628Y-138823531D01*
X127634516Y-138750953D01*
X127605853Y-138729579D01*
X126186416Y-137310142D01*
X126177149Y-137299773D01*
X126155106Y-137272132D01*
X126105203Y-137228532D01*
X126099107Y-137222833D01*
X126092132Y-137215858D01*
X126092121Y-137215848D01*
X126060855Y-137189745D01*
X126058739Y-137187938D01*
X125985603Y-137124040D01*
X125985597Y-137124036D01*
X125985596Y-137124035D01*
X125981841Y-137121791D01*
X125965973Y-137110532D01*
X125962619Y-137107732D01*
X125962618Y-137107731D01*
X125962613Y-137107727D01*
X125878148Y-137059801D01*
X125875744Y-137058401D01*
X125792363Y-137008584D01*
X125788269Y-137007048D01*
X125770644Y-136998802D01*
X125766845Y-136996646D01*
X125675169Y-136964567D01*
X125672553Y-136963619D01*
X125581629Y-136929494D01*
X125581619Y-136929491D01*
X125577323Y-136928712D01*
X125558518Y-136923749D01*
X125554384Y-136922302D01*
X125554377Y-136922301D01*
X125458448Y-136907107D01*
X125455705Y-136906641D01*
X125447709Y-136905190D01*
X125423381Y-136900775D01*
X125360150Y-136889300D01*
X125360147Y-136889300D01*
X125355772Y-136889300D01*
X125336369Y-136887772D01*
X125332060Y-136887089D01*
X125234959Y-136889269D01*
X125232177Y-136889300D01*
X115237386Y-136889300D01*
X115223503Y-136888520D01*
X115213893Y-136887437D01*
X115188376Y-136884562D01*
X115188369Y-136884561D01*
X115125507Y-136888800D01*
X115122262Y-136889019D01*
X115113922Y-136889300D01*
X115104037Y-136889300D01*
X115063484Y-136892949D01*
X115060716Y-136893167D01*
X114963788Y-136899702D01*
X114963781Y-136899703D01*
X114959527Y-136900775D01*
X114940374Y-136904030D01*
X114936011Y-136904423D01*
X114936002Y-136904424D01*
X114842413Y-136930254D01*
X114839724Y-136930964D01*
X114745518Y-136954703D01*
X114741522Y-136956518D01*
X114723259Y-136963139D01*
X114719038Y-136964304D01*
X114719021Y-136964310D01*
X114631489Y-137006462D01*
X114628972Y-137007640D01*
X114540574Y-137047792D01*
X114536972Y-137050288D01*
X114520180Y-137060067D01*
X114516229Y-137061970D01*
X114516220Y-137061975D01*
X114437611Y-137119087D01*
X114435385Y-137120666D01*
X114394514Y-137148982D01*
X114355545Y-137175980D01*
X114352439Y-137179086D01*
X114337665Y-137191703D01*
X114334128Y-137194273D01*
X114334121Y-137194278D01*
X114267004Y-137264477D01*
X114265059Y-137266465D01*
X113818345Y-137713181D01*
X113757022Y-137746666D01*
X113730664Y-137749500D01*
X112374143Y-137749500D01*
X112342050Y-137745275D01*
X112226697Y-137714366D01*
X112226693Y-137714365D01*
X112226692Y-137714365D01*
X112226691Y-137714364D01*
X112226686Y-137714364D01*
X112000002Y-137694532D01*
X111999998Y-137694532D01*
X111773313Y-137714364D01*
X111773302Y-137714366D01*
X111553511Y-137773258D01*
X111553502Y-137773261D01*
X111347267Y-137869431D01*
X111347265Y-137869432D01*
X111160858Y-137999954D01*
X110999954Y-138160858D01*
X110869432Y-138347265D01*
X110869431Y-138347267D01*
X110773261Y-138553502D01*
X110773258Y-138553511D01*
X110714366Y-138773302D01*
X110714364Y-138773313D01*
X110694532Y-138999998D01*
X110694532Y-139000001D01*
X110714364Y-139226686D01*
X110714366Y-139226697D01*
X110773258Y-139446488D01*
X110773261Y-139446497D01*
X110869431Y-139652732D01*
X110869432Y-139652734D01*
X110999954Y-139839141D01*
X111160859Y-140000046D01*
X111233742Y-140051079D01*
X111277367Y-140105656D01*
X111284561Y-140175154D01*
X111253038Y-140237509D01*
X111192808Y-140272923D01*
X111162333Y-140276654D01*
X102704962Y-140257140D01*
X102637968Y-140237300D01*
X102592335Y-140184391D01*
X102582551Y-140115210D01*
X102611723Y-140051721D01*
X102634124Y-140031566D01*
X102679139Y-140000047D01*
X102840047Y-139839139D01*
X102970568Y-139652734D01*
X103066739Y-139446496D01*
X103125635Y-139226692D01*
X103145468Y-139000000D01*
X103144088Y-138984232D01*
X103139801Y-138935230D01*
X103125635Y-138773308D01*
X103066739Y-138553504D01*
X102970568Y-138347266D01*
X102840047Y-138160861D01*
X102840045Y-138160858D01*
X102679141Y-137999954D01*
X102492734Y-137869432D01*
X102492732Y-137869431D01*
X102286497Y-137773261D01*
X102286488Y-137773258D01*
X102066697Y-137714366D01*
X102066693Y-137714365D01*
X102066692Y-137714365D01*
X102066691Y-137714364D01*
X102066686Y-137714364D01*
X101840002Y-137694532D01*
X101839998Y-137694532D01*
X101613313Y-137714364D01*
X101613302Y-137714366D01*
X101393511Y-137773258D01*
X101393502Y-137773261D01*
X101187267Y-137869431D01*
X101187265Y-137869432D01*
X101000858Y-137999954D01*
X100839954Y-138160858D01*
X100709432Y-138347265D01*
X100709431Y-138347267D01*
X100613261Y-138553502D01*
X100613258Y-138553511D01*
X100554366Y-138773302D01*
X100554364Y-138773313D01*
X100534532Y-138999998D01*
X100534532Y-139000001D01*
X100554364Y-139226686D01*
X100554366Y-139226697D01*
X100613258Y-139446488D01*
X100613261Y-139446497D01*
X100709431Y-139652732D01*
X100709432Y-139652734D01*
X100839954Y-139839141D01*
X101000858Y-140000045D01*
X101040152Y-140027559D01*
X101083777Y-140082136D01*
X101090971Y-140151634D01*
X101059448Y-140213989D01*
X100999219Y-140249403D01*
X100968743Y-140253134D01*
X96681136Y-140243241D01*
X96614142Y-140223401D01*
X96568509Y-140170492D01*
X96558725Y-140101311D01*
X96587897Y-140037822D01*
X96646762Y-140000184D01*
X96647890Y-139999861D01*
X96705058Y-139983844D01*
X96818015Y-139934779D01*
X96968617Y-139869365D01*
X96968620Y-139869363D01*
X96968625Y-139869361D01*
X97214147Y-139720055D01*
X97437053Y-139538708D01*
X97633189Y-139328698D01*
X97798901Y-139093936D01*
X97931104Y-138838797D01*
X98027334Y-138568032D01*
X98085798Y-138286686D01*
X98105408Y-138000000D01*
X98085798Y-137713314D01*
X98027334Y-137431968D01*
X97997347Y-137347594D01*
X97931105Y-137161206D01*
X97931106Y-137161206D01*
X97798901Y-136906064D01*
X97633187Y-136671299D01*
X97554554Y-136587105D01*
X97437053Y-136461292D01*
X97214147Y-136279945D01*
X97214146Y-136279944D01*
X96968617Y-136130634D01*
X96705063Y-136016158D01*
X96705061Y-136016157D01*
X96705058Y-136016156D01*
X96575578Y-135979877D01*
X96428364Y-135938630D01*
X96428359Y-135938629D01*
X96428358Y-135938629D01*
X96286018Y-135919064D01*
X96143679Y-135899500D01*
X96143678Y-135899500D01*
X95856322Y-135899500D01*
X95856321Y-135899500D01*
X95571642Y-135938629D01*
X95571635Y-135938630D01*
X95363861Y-135996845D01*
X95294942Y-136016156D01*
X95294939Y-136016156D01*
X95294936Y-136016158D01*
X95294935Y-136016158D01*
X95031382Y-136130634D01*
X94785853Y-136279944D01*
X94562950Y-136461289D01*
X94366812Y-136671299D01*
X94201098Y-136906064D01*
X94068895Y-137161204D01*
X93988142Y-137388419D01*
X93947144Y-137444995D01*
X93882066Y-137470425D01*
X93813571Y-137456634D01*
X93763405Y-137408001D01*
X93747305Y-137347594D01*
X93732374Y-134682298D01*
X93751681Y-134615158D01*
X93804227Y-134569108D01*
X93873329Y-134558777D01*
X93876743Y-134559297D01*
X93883951Y-134560500D01*
X93883954Y-134560500D01*
X94116048Y-134560500D01*
X94116049Y-134560500D01*
X94344981Y-134522298D01*
X94564503Y-134446936D01*
X94752043Y-134345444D01*
X94811058Y-134330500D01*
X143336768Y-134330500D01*
X143395786Y-134345446D01*
X143431830Y-134364951D01*
X143435497Y-134366936D01*
X143545258Y-134404617D01*
X143655015Y-134442297D01*
X143655017Y-134442297D01*
X143655019Y-134442298D01*
X143883951Y-134480500D01*
X143883952Y-134480500D01*
X144116048Y-134480500D01*
X144116049Y-134480500D01*
X144344981Y-134442298D01*
X144564503Y-134366936D01*
X144768626Y-134256470D01*
X144951784Y-134113913D01*
X145108979Y-133943153D01*
X145235924Y-133748849D01*
X145329157Y-133536300D01*
X145386134Y-133311305D01*
X145394624Y-133208848D01*
X145405300Y-133080006D01*
X145405300Y-133079993D01*
X145386135Y-132848702D01*
X145386133Y-132848691D01*
X145329157Y-132623699D01*
X145235924Y-132411151D01*
X145108983Y-132216852D01*
X145108980Y-132216849D01*
X145108979Y-132216847D01*
X144951784Y-132046087D01*
X144773773Y-131907536D01*
X144732961Y-131850826D01*
X144729286Y-131781053D01*
X144763917Y-131720370D01*
X144773772Y-131711831D01*
X144798797Y-131692352D01*
X144798798Y-131692350D01*
X144044401Y-130937953D01*
X144125148Y-130925165D01*
X144238045Y-130867641D01*
X144327641Y-130778045D01*
X144385165Y-130665148D01*
X144397953Y-130584400D01*
X145151186Y-131337633D01*
X145235482Y-131208611D01*
X145328682Y-130996135D01*
X145385638Y-130771218D01*
X145404798Y-130540005D01*
X145404798Y-130539994D01*
X145385638Y-130308781D01*
X145328682Y-130083864D01*
X145235484Y-129871393D01*
X145151186Y-129742365D01*
X144397953Y-130495598D01*
X144385165Y-130414852D01*
X144327641Y-130301955D01*
X144238045Y-130212359D01*
X144125148Y-130154835D01*
X144044400Y-130142046D01*
X144798797Y-129387647D01*
X144798797Y-129387646D01*
X144773773Y-129368169D01*
X144732961Y-129311459D01*
X144729286Y-129241686D01*
X144763918Y-129181003D01*
X144773760Y-129172473D01*
X144951784Y-129033913D01*
X145108979Y-128863153D01*
X145235924Y-128668849D01*
X145253956Y-128627737D01*
X145298910Y-128574254D01*
X145365645Y-128553562D01*
X145432974Y-128572235D01*
G37*
%TD.AperFunction*%
%TA.AperFunction,Conductor*%
G36*
X100912404Y-129350185D02*
G01*
X100939567Y-129374709D01*
X100939641Y-129374639D01*
X100940593Y-129375635D01*
X100942309Y-129377184D01*
X100943488Y-129378663D01*
X100943490Y-129378665D01*
X100993395Y-129422266D01*
X100999491Y-129427965D01*
X101006471Y-129434945D01*
X101037798Y-129461098D01*
X101039864Y-129462864D01*
X101113001Y-129526763D01*
X101116750Y-129529003D01*
X101132624Y-129540265D01*
X101135981Y-129543068D01*
X101220516Y-129591034D01*
X101222778Y-129592352D01*
X101306236Y-129642215D01*
X101310327Y-129643750D01*
X101327955Y-129651996D01*
X101331755Y-129654153D01*
X101423496Y-129686254D01*
X101425998Y-129687161D01*
X101516976Y-129721307D01*
X101519565Y-129721776D01*
X101521274Y-129722087D01*
X101540089Y-129727053D01*
X101544217Y-129728498D01*
X101640237Y-129743705D01*
X101642832Y-129744146D01*
X101714432Y-129757140D01*
X101738452Y-129761500D01*
X101738453Y-129761500D01*
X101742828Y-129761500D01*
X101762231Y-129763028D01*
X101763938Y-129763297D01*
X101766540Y-129763710D01*
X101863621Y-129761531D01*
X101866404Y-129761500D01*
X142622923Y-129761500D01*
X142689962Y-129781185D01*
X142735717Y-129833989D01*
X142745661Y-129903147D01*
X142736479Y-129935310D01*
X142671317Y-130083864D01*
X142614361Y-130308781D01*
X142595202Y-130539994D01*
X142595202Y-130540005D01*
X142614361Y-130771218D01*
X142671317Y-130996135D01*
X142764515Y-131208606D01*
X142848812Y-131337632D01*
X143602046Y-130584399D01*
X143614835Y-130665148D01*
X143672359Y-130778045D01*
X143761955Y-130867641D01*
X143874852Y-130925165D01*
X143955599Y-130937953D01*
X143201201Y-131692351D01*
X143201541Y-131697816D01*
X143186048Y-131765946D01*
X143136181Y-131814885D01*
X143077779Y-131829500D01*
X94907309Y-131829500D01*
X94840270Y-131809815D01*
X94819628Y-131793181D01*
X94044400Y-131017953D01*
X94125148Y-131005165D01*
X94238045Y-130947641D01*
X94327641Y-130858045D01*
X94385165Y-130745148D01*
X94397953Y-130664400D01*
X95151186Y-131417633D01*
X95235482Y-131288611D01*
X95328682Y-131076135D01*
X95385638Y-130851218D01*
X95404798Y-130620005D01*
X95404798Y-130619994D01*
X95385638Y-130388781D01*
X95328682Y-130163864D01*
X95235484Y-129951393D01*
X95151186Y-129822365D01*
X94397953Y-130575598D01*
X94385165Y-130494852D01*
X94327641Y-130381955D01*
X94238045Y-130292359D01*
X94125148Y-130234835D01*
X94044400Y-130222046D01*
X94798797Y-129467647D01*
X94798458Y-129462184D01*
X94813951Y-129394054D01*
X94863818Y-129345115D01*
X94922220Y-129330500D01*
X100845365Y-129330500D01*
X100912404Y-129350185D01*
G37*
%TD.AperFunction*%
%TA.AperFunction,Conductor*%
G36*
X142616020Y-124875485D02*
G01*
X142661775Y-124928289D01*
X142671719Y-124997447D01*
X142669188Y-125010233D01*
X142650584Y-125083700D01*
X142613866Y-125228694D01*
X142613864Y-125228702D01*
X142594700Y-125459993D01*
X142594700Y-125460006D01*
X142613864Y-125691297D01*
X142613866Y-125691308D01*
X142670842Y-125916300D01*
X142764075Y-126128848D01*
X142891016Y-126323147D01*
X142891019Y-126323151D01*
X142891021Y-126323153D01*
X143048216Y-126493913D01*
X143048219Y-126493915D01*
X143048222Y-126493918D01*
X143225818Y-126632147D01*
X143266631Y-126688857D01*
X143270306Y-126758630D01*
X143235674Y-126819313D01*
X143225818Y-126827853D01*
X143048222Y-126966081D01*
X143048219Y-126966084D01*
X142891019Y-127136849D01*
X142846938Y-127204321D01*
X142793792Y-127249678D01*
X142743129Y-127260500D01*
X135437609Y-127260500D01*
X135370570Y-127240815D01*
X135324815Y-127188011D01*
X135314871Y-127118853D01*
X135324052Y-127086691D01*
X135328683Y-127076132D01*
X135385638Y-126851218D01*
X135404798Y-126620005D01*
X135404798Y-126619994D01*
X135385638Y-126388781D01*
X135328682Y-126163864D01*
X135235484Y-125951393D01*
X135151186Y-125822365D01*
X134397953Y-126575598D01*
X134385165Y-126494852D01*
X134327641Y-126381955D01*
X134238045Y-126292359D01*
X134125148Y-126234835D01*
X134044400Y-126222046D01*
X134798797Y-125467647D01*
X134798797Y-125467646D01*
X134773773Y-125448169D01*
X134732961Y-125391459D01*
X134729286Y-125321686D01*
X134763918Y-125261003D01*
X134773760Y-125252473D01*
X134951784Y-125113913D01*
X135108979Y-124943153D01*
X135129348Y-124911976D01*
X135182494Y-124866621D01*
X135233155Y-124855800D01*
X142548981Y-124855800D01*
X142616020Y-124875485D01*
G37*
%TD.AperFunction*%
%TD*%
M02*
