%TF.GenerationSoftware,KiCad,Pcbnew,7.0.11+dfsg-1build4*%
%TF.CreationDate,2024-10-09T07:19:40+02:00*%
%TF.ProjectId,BertheVarioTac-Shema,42657274-6865-4566-9172-696f5461632d,rev?*%
%TF.SameCoordinates,Original*%
%TF.FileFunction,Copper,L2,Bot*%
%TF.FilePolarity,Positive*%
%FSLAX46Y46*%
G04 Gerber Fmt 4.6, Leading zero omitted, Abs format (unit mm)*
G04 Created by KiCad (PCBNEW 7.0.11+dfsg-1build4) date 2024-10-09 07:19:40*
%MOMM*%
%LPD*%
G01*
G04 APERTURE LIST*
%TA.AperFunction,ComponentPad*%
%ADD10C,2.000000*%
%TD*%
%TA.AperFunction,ComponentPad*%
%ADD11C,1.800000*%
%TD*%
%TA.AperFunction,ComponentPad*%
%ADD12C,1.600000*%
%TD*%
%TA.AperFunction,ComponentPad*%
%ADD13O,1.600000X1.600000*%
%TD*%
%TA.AperFunction,ViaPad*%
%ADD14C,0.600000*%
%TD*%
%TA.AperFunction,Conductor*%
%ADD15C,1.500000*%
%TD*%
G04 APERTURE END LIST*
D10*
%TO.P,R3,1*%
%TO.N,Net-(BMP180_Press1-VIN)*%
X111580000Y-103500000D03*
%TO.P,R3,2*%
%TO.N,Net-(BMP180_Press1-SCL)*%
X101420000Y-103500000D03*
%TD*%
%TO.P,R2,1*%
%TO.N,Net-(BMP180_Press1-VIN)*%
X111580000Y-99000000D03*
%TO.P,R2,2*%
%TO.N,Net-(BMP180_Press1-SDA)*%
X101420000Y-99000000D03*
%TD*%
D11*
%TO.P,SW1,1*%
%TO.N,Net-(Lipo-1S-to-5V1-IN_3.7v)*%
X168000000Y-132540000D03*
%TO.P,SW1,2*%
%TO.N,Net-(BT1-+)*%
X168000000Y-130000000D03*
%TD*%
%TO.P,Usb-C-charger1,1,B-*%
%TO.N,GNDREF*%
X168000000Y-103000000D03*
%TO.P,Usb-C-charger1,2,+*%
%TO.N,Net-(BT1-+)*%
X168000000Y-112000000D03*
%TD*%
D12*
%TO.P,R1,1*%
%TO.N,Net-(R1-Pad1)*%
X101840000Y-139000000D03*
D13*
%TO.P,R1,2*%
%TO.N,Net-(P4-Pin_1)*%
X112000000Y-139000000D03*
%TD*%
D11*
%TO.P,CN1,1,Pin_1*%
%TO.N,Net-(BMP180_Press1-VIN)*%
X153000000Y-140000000D03*
%TO.P,CN1,2,Pin_2*%
%TO.N,Net-(BMP180_Press1-SDA)*%
X150460000Y-140000000D03*
%TO.P,CN1,3,Pin_3*%
%TO.N,Net-(BMP180_Press1-SCL)*%
X147920000Y-140000000D03*
%TO.P,CN1,4,Pin_4*%
%TO.N,GNDREF*%
X145380000Y-140000000D03*
%TD*%
%TO.P,S1,1,1*%
%TO.N,Net-(P4-Pin_2)*%
X119000000Y-140000000D03*
%TO.P,S1,2,2*%
%TO.N,Net-(R1-Pad1)*%
X116460000Y-140000000D03*
%TD*%
%TO.P,P4,1,Pin_1*%
%TO.N,Net-(P4-Pin_1)*%
X127000000Y-140000000D03*
%TO.P,P4,2,Pin_2*%
%TO.N,Net-(P4-Pin_2)*%
X124460000Y-140000000D03*
%TD*%
%TO.P,GPS-NEO6M1,1,GND*%
%TO.N,GNDREF*%
X134000000Y-126620000D03*
%TO.P,GPS-NEO6M1,2,TX*%
%TO.N,Net-(GPS-NEO6M1-TX)*%
X134000000Y-124080000D03*
%TO.P,GPS-NEO6M1,3,RX*%
%TO.N,unconnected-(GPS-NEO6M1-RX-Pad3)*%
X134000000Y-121540000D03*
%TO.P,GPS-NEO6M1,4,VCC*%
%TO.N,Net-(BMP180_Press1-VIN)*%
X134000000Y-119000000D03*
%TD*%
%TO.P,Lipo-1S-to-5V1,1,GND*%
%TO.N,GNDREF*%
X130460000Y-105500000D03*
%TO.P,Lipo-1S-to-5V1,2,IN_3.7v*%
%TO.N,Net-(Lipo-1S-to-5V1-IN_3.7v)*%
X133000000Y-105500000D03*
%TO.P,Lipo-1S-to-5V1,3,OUT_5V*%
%TO.N,Net-(Lipo-1S-to-5V1-OUT_5V)*%
X135540000Y-105500000D03*
%TD*%
%TO.P,BT1,1,+*%
%TO.N,Net-(BT1-+)*%
X173000000Y-130000000D03*
%TO.P,BT1,2,-*%
%TO.N,GNDREF*%
X173000000Y-132540000D03*
%TD*%
%TO.P,QMC5883_Mag1,1,VCC*%
%TO.N,Net-(BMP180_Press1-VIN)*%
X94000000Y-133160000D03*
%TO.P,QMC5883_Mag1,2,GND*%
%TO.N,GNDREF*%
X94000000Y-130620000D03*
%TO.P,QMC5883_Mag1,3,SCL*%
%TO.N,Net-(BMP180_Press1-SCL)*%
X94000000Y-128080000D03*
%TO.P,QMC5883_Mag1,4,SDA*%
%TO.N,Net-(BMP180_Press1-SDA)*%
X94000000Y-125540000D03*
%TO.P,QMC5883_Mag1,5*%
%TO.N,N/C*%
X94000000Y-123000000D03*
%TD*%
%TO.P,P1,1,Pin_1*%
%TO.N,Net-(Lipo-1S-to-5V1-OUT_5V)*%
X166540000Y-140000000D03*
%TO.P,P1,2,Pin_2*%
%TO.N,Net-(GPS-NEO6M1-TX)*%
X164000000Y-140000000D03*
%TO.P,P1,3,Pin_3*%
%TO.N,unconnected-(P1-Pin_3-Pad3)*%
X161460000Y-140000000D03*
%TO.P,P1,4,Pin_4*%
%TO.N,GNDREF*%
X158920000Y-140000000D03*
%TD*%
%TO.P,P5,1,1*%
%TO.N,Net-(Lipo-1S-to-5V1-IN_3.7v)*%
X118000000Y-96000000D03*
%TO.P,P5,2,2*%
%TO.N,Net-(P3-Pin_3)*%
X120500000Y-100000000D03*
%TO.P,P5,3,3*%
%TO.N,GNDREF*%
X123000000Y-96000000D03*
%TD*%
%TO.P,BMP180_Press1,1,SDA*%
%TO.N,Net-(BMP180_Press1-SDA)*%
X144000000Y-125460000D03*
%TO.P,BMP180_Press1,2,SCL*%
%TO.N,Net-(BMP180_Press1-SCL)*%
X144000000Y-128000000D03*
%TO.P,BMP180_Press1,3,GND*%
%TO.N,GNDREF*%
X144000000Y-130540000D03*
%TO.P,BMP180_Press1,4,VIN*%
%TO.N,Net-(BMP180_Press1-VIN)*%
X144000000Y-133080000D03*
%TD*%
%TO.P,P3,1,Pin_1*%
%TO.N,unconnected-(P3-Pin_1-Pad1)*%
X140080000Y-140000000D03*
%TO.P,P3,2,Pin_2*%
%TO.N,unconnected-(P3-Pin_2-Pad2)*%
X137540000Y-140000000D03*
%TO.P,P3,3,Pin_3*%
%TO.N,Net-(P3-Pin_3)*%
X135000000Y-140000000D03*
%TO.P,P3,4,Pin_4*%
%TO.N,unconnected-(P3-Pin_4-Pad4)*%
X132460000Y-140000000D03*
%TD*%
D14*
%TO.N,Net-(BMP180_Press1-SDA)*%
X138032800Y-119952500D03*
%TD*%
D15*
%TO.N,Net-(BMP180_Press1-SCL)*%
X147920000Y-139685500D02*
X147920000Y-140000000D01*
X142114000Y-133879500D02*
X147920000Y-139685500D01*
X142114000Y-129799700D02*
X142114000Y-133879500D01*
X143913700Y-128000000D02*
X142114000Y-129799700D01*
X144000000Y-128000000D02*
X143913700Y-128000000D01*
%TO.N,Net-(BMP180_Press1-SDA)*%
X143540300Y-125460000D02*
X138032800Y-119952500D01*
X144000000Y-125460000D02*
X143540300Y-125460000D01*
X94111000Y-125540000D02*
X94000000Y-125540000D01*
X98240500Y-121410500D02*
X94111000Y-125540000D01*
X98240500Y-102179500D02*
X98240500Y-121410500D01*
X101420000Y-99000000D02*
X98240500Y-102179500D01*
%TO.N,Net-(BMP180_Press1-VIN)*%
X146217100Y-133080000D02*
X144000000Y-133080000D01*
X153000000Y-139862900D02*
X146217100Y-133080000D01*
X153000000Y-140000000D02*
X153000000Y-139862900D01*
X111580000Y-99000000D02*
X111580000Y-103500000D01*
X130674000Y-115674000D02*
X111580000Y-115674000D01*
X134000000Y-119000000D02*
X130674000Y-115674000D01*
X94094000Y-133160000D02*
X111580000Y-115674000D01*
X94000000Y-133160000D02*
X94094000Y-133160000D01*
X111580000Y-115674000D02*
X111580000Y-103500000D01*
%TO.N,Net-(P3-Pin_3)*%
X135000000Y-129160000D02*
X135000000Y-140000000D01*
X135855600Y-128304400D02*
X135000000Y-129160000D01*
X135855600Y-115355600D02*
X135855600Y-128304400D01*
X120500000Y-100000000D02*
X135855600Y-115355600D01*
%TO.N,Net-(Lipo-1S-to-5V1-OUT_5V)*%
X166540000Y-136500000D02*
X166540000Y-140000000D01*
X135540000Y-105500000D02*
X166540000Y-136500000D01*
%TO.N,Net-(BT1-+)*%
X168000000Y-112000000D02*
X168000000Y-130000000D01*
%TO.N,Net-(R1-Pad1)*%
X113693200Y-137233200D02*
X116460000Y-140000000D01*
X103606800Y-137233200D02*
X113693200Y-137233200D01*
X101840000Y-139000000D02*
X103606800Y-137233200D01*
%TD*%
%TA.AperFunction,Conductor*%
%TO.N,GNDREF*%
G36*
X176298004Y-93577910D02*
G01*
X176365031Y-93597625D01*
X176410762Y-93650450D01*
X176421944Y-93701997D01*
X176389183Y-140264953D01*
X176369451Y-140331979D01*
X176316615Y-140377697D01*
X176264954Y-140388866D01*
X168048551Y-140373692D01*
X167981548Y-140353883D01*
X167935891Y-140300995D01*
X167926739Y-140236501D01*
X167925711Y-140236416D01*
X167926085Y-140231893D01*
X167926075Y-140231818D01*
X167926111Y-140231586D01*
X167945300Y-140000006D01*
X167945300Y-139999993D01*
X167926135Y-139768702D01*
X167926133Y-139768691D01*
X167869157Y-139543699D01*
X167800944Y-139388189D01*
X167790500Y-139338379D01*
X167790500Y-138000000D01*
X171894592Y-138000000D01*
X171914201Y-138286680D01*
X171914201Y-138286684D01*
X171914202Y-138286686D01*
X171926790Y-138347265D01*
X171972666Y-138568034D01*
X171972667Y-138568037D01*
X172068894Y-138838793D01*
X172068893Y-138838793D01*
X172201098Y-139093935D01*
X172366812Y-139328700D01*
X172422372Y-139388189D01*
X172562947Y-139538708D01*
X172785853Y-139720055D01*
X172981677Y-139839139D01*
X173031382Y-139869365D01*
X173218237Y-139950526D01*
X173294942Y-139983844D01*
X173571642Y-140061371D01*
X173821920Y-140095771D01*
X173856321Y-140100500D01*
X173856322Y-140100500D01*
X174143679Y-140100500D01*
X174175079Y-140096184D01*
X174428358Y-140061371D01*
X174705058Y-139983844D01*
X174869726Y-139912319D01*
X174968617Y-139869365D01*
X174968620Y-139869363D01*
X174968625Y-139869361D01*
X175214147Y-139720055D01*
X175437053Y-139538708D01*
X175633189Y-139328698D01*
X175798901Y-139093936D01*
X175931104Y-138838797D01*
X176027334Y-138568032D01*
X176085798Y-138286686D01*
X176105408Y-138000000D01*
X176085798Y-137713314D01*
X176027334Y-137431968D01*
X175931105Y-137161206D01*
X175931106Y-137161206D01*
X175798901Y-136906064D01*
X175633187Y-136671299D01*
X175538779Y-136570214D01*
X175437053Y-136461292D01*
X175220487Y-136285103D01*
X175214146Y-136279944D01*
X174968617Y-136130634D01*
X174705063Y-136016158D01*
X174705061Y-136016157D01*
X174705058Y-136016156D01*
X174545003Y-135971311D01*
X174428364Y-135938630D01*
X174428359Y-135938629D01*
X174428358Y-135938629D01*
X174286018Y-135919064D01*
X174143679Y-135899500D01*
X174143678Y-135899500D01*
X173856322Y-135899500D01*
X173856321Y-135899500D01*
X173571642Y-135938629D01*
X173571635Y-135938630D01*
X173377220Y-135993103D01*
X173294942Y-136016156D01*
X173294939Y-136016156D01*
X173294936Y-136016158D01*
X173294935Y-136016158D01*
X173031382Y-136130634D01*
X172785853Y-136279944D01*
X172562950Y-136461289D01*
X172366812Y-136671299D01*
X172201098Y-136906064D01*
X172068894Y-137161206D01*
X171972667Y-137431962D01*
X171972666Y-137431965D01*
X171914201Y-137713319D01*
X171894592Y-138000000D01*
X167790500Y-138000000D01*
X167790500Y-136577175D01*
X167791280Y-136563290D01*
X167795237Y-136528172D01*
X167790781Y-136462075D01*
X167790500Y-136453734D01*
X167790500Y-136443850D01*
X167790500Y-136443845D01*
X167786843Y-136403215D01*
X167786626Y-136400452D01*
X167783890Y-136359865D01*
X167780096Y-136303587D01*
X167779027Y-136299347D01*
X167775768Y-136280158D01*
X167775697Y-136279372D01*
X167775377Y-136275812D01*
X167749532Y-136182168D01*
X167748840Y-136179548D01*
X167725096Y-136085316D01*
X167723290Y-136081340D01*
X167716654Y-136063039D01*
X167715493Y-136058830D01*
X167673340Y-135971299D01*
X167672189Y-135968839D01*
X167632007Y-135880374D01*
X167629516Y-135876780D01*
X167619726Y-135859967D01*
X167617829Y-135856027D01*
X167560736Y-135777445D01*
X167559158Y-135775223D01*
X167503819Y-135695345D01*
X167500729Y-135692255D01*
X167488093Y-135677461D01*
X167485521Y-135673921D01*
X167485518Y-135673918D01*
X167415299Y-135606781D01*
X167413310Y-135604836D01*
X164348480Y-132540006D01*
X166594700Y-132540006D01*
X166613864Y-132771297D01*
X166613866Y-132771308D01*
X166670842Y-132996300D01*
X166764075Y-133208848D01*
X166891016Y-133403147D01*
X166891019Y-133403151D01*
X166891021Y-133403153D01*
X167048216Y-133573913D01*
X167048219Y-133573915D01*
X167048222Y-133573918D01*
X167231365Y-133716464D01*
X167231371Y-133716468D01*
X167231374Y-133716470D01*
X167269301Y-133736995D01*
X167434652Y-133826479D01*
X167435497Y-133826936D01*
X167549487Y-133866068D01*
X167655015Y-133902297D01*
X167655017Y-133902297D01*
X167655019Y-133902298D01*
X167883951Y-133940500D01*
X167883952Y-133940500D01*
X168116048Y-133940500D01*
X168116049Y-133940500D01*
X168344981Y-133902298D01*
X168564503Y-133826936D01*
X168768626Y-133716470D01*
X168769170Y-133716047D01*
X168897325Y-133616300D01*
X168951784Y-133573913D01*
X169108979Y-133403153D01*
X169235924Y-133208849D01*
X169329157Y-132996300D01*
X169386134Y-132771305D01*
X169386135Y-132771297D01*
X169405300Y-132540006D01*
X169405300Y-132539993D01*
X169386135Y-132308702D01*
X169386133Y-132308691D01*
X169329157Y-132083699D01*
X169235924Y-131871151D01*
X169108983Y-131676852D01*
X169108980Y-131676849D01*
X169108979Y-131676847D01*
X168951784Y-131506087D01*
X168774180Y-131367853D01*
X168733368Y-131311143D01*
X168729693Y-131241370D01*
X168764324Y-131180687D01*
X168774181Y-131172146D01*
X168951784Y-131033913D01*
X169108979Y-130863153D01*
X169235924Y-130668849D01*
X169329157Y-130456300D01*
X169386134Y-130231305D01*
X169389851Y-130186447D01*
X169405300Y-130000006D01*
X171594700Y-130000006D01*
X171613864Y-130231297D01*
X171613866Y-130231308D01*
X171670842Y-130456300D01*
X171764075Y-130668848D01*
X171891016Y-130863147D01*
X171891019Y-130863151D01*
X171891021Y-130863153D01*
X172048216Y-131033913D01*
X172225819Y-131172146D01*
X172226225Y-131172462D01*
X172267038Y-131229173D01*
X172270713Y-131298946D01*
X172236082Y-131359629D01*
X172226225Y-131368170D01*
X172201201Y-131387646D01*
X172201200Y-131387647D01*
X172955600Y-132142046D01*
X172874852Y-132154835D01*
X172761955Y-132212359D01*
X172672359Y-132301955D01*
X172614835Y-132414852D01*
X172602046Y-132495600D01*
X171848811Y-131742365D01*
X171764516Y-131871390D01*
X171671317Y-132083864D01*
X171614361Y-132308781D01*
X171595202Y-132539994D01*
X171595202Y-132540005D01*
X171614361Y-132771218D01*
X171671317Y-132996135D01*
X171764515Y-133208606D01*
X171848812Y-133337633D01*
X172602046Y-132584399D01*
X172614835Y-132665148D01*
X172672359Y-132778045D01*
X172761955Y-132867641D01*
X172874852Y-132925165D01*
X172955599Y-132937953D01*
X172201201Y-133692351D01*
X172231649Y-133716050D01*
X172435697Y-133826476D01*
X172435706Y-133826479D01*
X172655139Y-133901811D01*
X172883993Y-133940000D01*
X173116007Y-133940000D01*
X173344860Y-133901811D01*
X173564293Y-133826479D01*
X173564301Y-133826476D01*
X173768355Y-133716047D01*
X173798797Y-133692351D01*
X173798798Y-133692350D01*
X173044401Y-132937953D01*
X173125148Y-132925165D01*
X173238045Y-132867641D01*
X173327641Y-132778045D01*
X173385165Y-132665148D01*
X173397953Y-132584400D01*
X174151186Y-133337633D01*
X174235482Y-133208611D01*
X174328682Y-132996135D01*
X174385638Y-132771218D01*
X174404798Y-132540005D01*
X174404798Y-132539994D01*
X174385638Y-132308781D01*
X174328682Y-132083864D01*
X174235484Y-131871393D01*
X174151186Y-131742365D01*
X173397953Y-132495598D01*
X173385165Y-132414852D01*
X173327641Y-132301955D01*
X173238045Y-132212359D01*
X173125148Y-132154835D01*
X173044400Y-132142046D01*
X173798797Y-131387647D01*
X173798797Y-131387646D01*
X173773773Y-131368169D01*
X173732961Y-131311459D01*
X173729286Y-131241686D01*
X173763918Y-131181003D01*
X173773760Y-131172473D01*
X173951784Y-131033913D01*
X174108979Y-130863153D01*
X174235924Y-130668849D01*
X174329157Y-130456300D01*
X174386134Y-130231305D01*
X174389851Y-130186447D01*
X174405300Y-130000006D01*
X174405300Y-129999993D01*
X174386135Y-129768702D01*
X174386133Y-129768691D01*
X174329157Y-129543699D01*
X174235924Y-129331151D01*
X174108983Y-129136852D01*
X174108980Y-129136849D01*
X174108979Y-129136847D01*
X173951784Y-128966087D01*
X173951779Y-128966083D01*
X173951777Y-128966081D01*
X173768634Y-128823535D01*
X173768628Y-128823531D01*
X173564504Y-128713064D01*
X173564495Y-128713061D01*
X173344984Y-128637702D01*
X173173282Y-128609050D01*
X173116049Y-128599500D01*
X172883951Y-128599500D01*
X172838164Y-128607140D01*
X172655015Y-128637702D01*
X172435504Y-128713061D01*
X172435495Y-128713064D01*
X172231371Y-128823531D01*
X172231365Y-128823535D01*
X172048222Y-128966081D01*
X172048219Y-128966084D01*
X172048216Y-128966086D01*
X172048216Y-128966087D01*
X171999123Y-129019416D01*
X171891016Y-129136852D01*
X171764075Y-129331151D01*
X171670842Y-129543699D01*
X171613866Y-129768691D01*
X171613864Y-129768702D01*
X171594700Y-129999993D01*
X171594700Y-130000006D01*
X169405300Y-130000006D01*
X169405300Y-129999993D01*
X169386135Y-129768702D01*
X169386133Y-129768691D01*
X169329157Y-129543699D01*
X169260944Y-129388189D01*
X169250500Y-129338379D01*
X169250500Y-112661619D01*
X169260943Y-112611810D01*
X169329157Y-112456300D01*
X169386134Y-112231305D01*
X169405300Y-112000000D01*
X169405300Y-111999993D01*
X169386135Y-111768702D01*
X169386133Y-111768691D01*
X169329157Y-111543699D01*
X169235924Y-111331151D01*
X169108983Y-111136852D01*
X169108980Y-111136849D01*
X169108979Y-111136847D01*
X168951784Y-110966087D01*
X168951779Y-110966083D01*
X168951777Y-110966081D01*
X168768634Y-110823535D01*
X168768628Y-110823531D01*
X168564504Y-110713064D01*
X168564495Y-110713061D01*
X168344984Y-110637702D01*
X168173282Y-110609050D01*
X168116049Y-110599500D01*
X167883951Y-110599500D01*
X167838164Y-110607140D01*
X167655015Y-110637702D01*
X167435504Y-110713061D01*
X167435495Y-110713064D01*
X167231371Y-110823531D01*
X167231365Y-110823535D01*
X167048222Y-110966081D01*
X167048219Y-110966084D01*
X166891016Y-111136852D01*
X166764075Y-111331151D01*
X166670842Y-111543699D01*
X166613866Y-111768691D01*
X166613864Y-111768702D01*
X166594700Y-111999993D01*
X166594700Y-112000006D01*
X166613864Y-112231297D01*
X166613866Y-112231308D01*
X166670842Y-112456297D01*
X166670843Y-112456300D01*
X166739056Y-112611810D01*
X166749500Y-112661619D01*
X166749500Y-129338379D01*
X166739056Y-129388189D01*
X166670842Y-129543699D01*
X166613866Y-129768691D01*
X166613864Y-129768702D01*
X166594700Y-129999993D01*
X166594700Y-130000006D01*
X166613864Y-130231297D01*
X166613866Y-130231308D01*
X166670842Y-130456300D01*
X166764075Y-130668848D01*
X166891016Y-130863147D01*
X166891019Y-130863151D01*
X166891021Y-130863153D01*
X167048216Y-131033913D01*
X167048219Y-131033915D01*
X167048222Y-131033918D01*
X167225818Y-131172147D01*
X167266631Y-131228857D01*
X167270306Y-131298630D01*
X167235674Y-131359313D01*
X167225818Y-131367853D01*
X167048222Y-131506081D01*
X167048219Y-131506084D01*
X166891016Y-131676852D01*
X166764075Y-131871151D01*
X166670842Y-132083699D01*
X166613866Y-132308691D01*
X166613864Y-132308702D01*
X166594700Y-132539993D01*
X166594700Y-132540006D01*
X164348480Y-132540006D01*
X136898321Y-105089847D01*
X136872182Y-105047972D01*
X136871217Y-105048396D01*
X136775924Y-104831151D01*
X136648983Y-104636852D01*
X136648980Y-104636849D01*
X136648979Y-104636847D01*
X136491784Y-104466087D01*
X136491779Y-104466083D01*
X136491777Y-104466081D01*
X136308634Y-104323535D01*
X136308628Y-104323531D01*
X136104504Y-104213064D01*
X136104495Y-104213061D01*
X135884984Y-104137702D01*
X135713282Y-104109050D01*
X135656049Y-104099500D01*
X135423951Y-104099500D01*
X135378164Y-104107140D01*
X135195015Y-104137702D01*
X134975504Y-104213061D01*
X134975495Y-104213064D01*
X134771371Y-104323531D01*
X134771365Y-104323535D01*
X134588222Y-104466081D01*
X134588219Y-104466084D01*
X134431016Y-104636852D01*
X134373809Y-104724416D01*
X134320662Y-104769773D01*
X134251431Y-104779197D01*
X134188095Y-104749695D01*
X134166191Y-104724416D01*
X134108983Y-104636852D01*
X134108980Y-104636849D01*
X134108979Y-104636847D01*
X133951784Y-104466087D01*
X133951779Y-104466083D01*
X133951777Y-104466081D01*
X133768634Y-104323535D01*
X133768628Y-104323531D01*
X133564504Y-104213064D01*
X133564495Y-104213061D01*
X133344984Y-104137702D01*
X133173282Y-104109050D01*
X133116049Y-104099500D01*
X132883951Y-104099500D01*
X132838164Y-104107140D01*
X132655015Y-104137702D01*
X132435504Y-104213061D01*
X132435495Y-104213064D01*
X132231371Y-104323531D01*
X132231365Y-104323535D01*
X132048222Y-104466081D01*
X132048219Y-104466084D01*
X131891015Y-104636854D01*
X131833509Y-104724874D01*
X131780363Y-104770230D01*
X131711132Y-104779654D01*
X131647796Y-104750152D01*
X131625892Y-104724874D01*
X131611186Y-104702365D01*
X130857953Y-105455598D01*
X130845165Y-105374852D01*
X130787641Y-105261955D01*
X130698045Y-105172359D01*
X130585148Y-105114835D01*
X130504400Y-105102046D01*
X131258797Y-104347647D01*
X131258797Y-104347645D01*
X131228360Y-104323955D01*
X131228354Y-104323951D01*
X131024302Y-104213523D01*
X131024293Y-104213520D01*
X130804860Y-104138188D01*
X130576007Y-104100000D01*
X130343993Y-104100000D01*
X130115139Y-104138188D01*
X129895706Y-104213520D01*
X129895697Y-104213523D01*
X129691650Y-104323949D01*
X129661200Y-104347647D01*
X130415600Y-105102046D01*
X130334852Y-105114835D01*
X130221955Y-105172359D01*
X130132359Y-105261955D01*
X130074835Y-105374852D01*
X130062046Y-105455600D01*
X129308811Y-104702365D01*
X129224516Y-104831390D01*
X129131317Y-105043864D01*
X129074361Y-105268781D01*
X129055202Y-105499994D01*
X129055202Y-105500005D01*
X129074361Y-105731218D01*
X129131317Y-105956135D01*
X129224515Y-106168606D01*
X129308812Y-106297633D01*
X130062046Y-105544399D01*
X130074835Y-105625148D01*
X130132359Y-105738045D01*
X130221955Y-105827641D01*
X130334852Y-105885165D01*
X130415599Y-105897953D01*
X129661201Y-106652351D01*
X129691649Y-106676050D01*
X129895697Y-106786476D01*
X129895706Y-106786479D01*
X130115139Y-106861811D01*
X130343993Y-106900000D01*
X130576007Y-106900000D01*
X130804860Y-106861811D01*
X131024293Y-106786479D01*
X131024301Y-106786476D01*
X131228355Y-106676047D01*
X131258797Y-106652351D01*
X131258798Y-106652350D01*
X130504401Y-105897953D01*
X130585148Y-105885165D01*
X130698045Y-105827641D01*
X130787641Y-105738045D01*
X130845165Y-105625148D01*
X130857953Y-105544400D01*
X131611185Y-106297632D01*
X131625891Y-106275125D01*
X131679037Y-106229768D01*
X131748268Y-106220344D01*
X131811604Y-106249846D01*
X131833508Y-106275123D01*
X131891021Y-106363153D01*
X132048216Y-106533913D01*
X132048219Y-106533915D01*
X132048222Y-106533918D01*
X132231365Y-106676464D01*
X132231371Y-106676468D01*
X132231374Y-106676470D01*
X132398860Y-106767109D01*
X132434652Y-106786479D01*
X132435497Y-106786936D01*
X132534699Y-106820992D01*
X132655015Y-106862297D01*
X132655017Y-106862297D01*
X132655019Y-106862298D01*
X132883951Y-106900500D01*
X132883952Y-106900500D01*
X133116048Y-106900500D01*
X133116049Y-106900500D01*
X133344981Y-106862298D01*
X133564503Y-106786936D01*
X133768626Y-106676470D01*
X133769170Y-106676047D01*
X133830129Y-106628600D01*
X133951784Y-106533913D01*
X134108979Y-106363153D01*
X134166191Y-106275582D01*
X134219337Y-106230226D01*
X134288568Y-106220802D01*
X134351904Y-106250304D01*
X134373809Y-106275583D01*
X134431016Y-106363147D01*
X134431018Y-106363149D01*
X134431021Y-106363153D01*
X134588216Y-106533913D01*
X134588219Y-106533915D01*
X134588222Y-106533918D01*
X134771365Y-106676464D01*
X134771371Y-106676468D01*
X134771374Y-106676470D01*
X134938860Y-106767109D01*
X134974652Y-106786479D01*
X134975497Y-106786936D01*
X135059978Y-106815938D01*
X135074699Y-106820992D01*
X135122118Y-106850592D01*
X165253181Y-136981655D01*
X165286666Y-137042978D01*
X165289500Y-137069336D01*
X165289500Y-139015160D01*
X165269815Y-139082199D01*
X165217011Y-139127954D01*
X165147853Y-139137898D01*
X165084297Y-139108873D01*
X165074270Y-139099143D01*
X165035960Y-139057527D01*
X164951784Y-138966087D01*
X164951779Y-138966083D01*
X164951777Y-138966081D01*
X164768634Y-138823535D01*
X164768628Y-138823531D01*
X164564504Y-138713064D01*
X164564495Y-138713061D01*
X164344984Y-138637702D01*
X164173282Y-138609050D01*
X164116049Y-138599500D01*
X163883951Y-138599500D01*
X163838164Y-138607140D01*
X163655015Y-138637702D01*
X163435504Y-138713061D01*
X163435495Y-138713064D01*
X163231371Y-138823531D01*
X163231365Y-138823535D01*
X163048222Y-138966081D01*
X163048219Y-138966084D01*
X163048216Y-138966086D01*
X163048216Y-138966087D01*
X163016999Y-138999998D01*
X162891016Y-139136852D01*
X162833809Y-139224416D01*
X162780662Y-139269773D01*
X162711431Y-139279197D01*
X162648095Y-139249695D01*
X162626191Y-139224416D01*
X162568983Y-139136852D01*
X162568980Y-139136849D01*
X162568979Y-139136847D01*
X162411784Y-138966087D01*
X162411779Y-138966083D01*
X162411777Y-138966081D01*
X162228634Y-138823535D01*
X162228628Y-138823531D01*
X162024504Y-138713064D01*
X162024495Y-138713061D01*
X161804984Y-138637702D01*
X161633282Y-138609050D01*
X161576049Y-138599500D01*
X161343951Y-138599500D01*
X161298164Y-138607140D01*
X161115015Y-138637702D01*
X160895504Y-138713061D01*
X160895495Y-138713064D01*
X160691371Y-138823531D01*
X160691365Y-138823535D01*
X160508222Y-138966081D01*
X160508219Y-138966084D01*
X160508216Y-138966086D01*
X160508216Y-138966087D01*
X160390524Y-139093936D01*
X160351015Y-139136854D01*
X160293509Y-139224874D01*
X160240363Y-139270230D01*
X160171132Y-139279654D01*
X160107796Y-139250152D01*
X160085892Y-139224874D01*
X160071186Y-139202365D01*
X159317953Y-139955598D01*
X159305165Y-139874852D01*
X159247641Y-139761955D01*
X159158045Y-139672359D01*
X159045148Y-139614835D01*
X158964400Y-139602046D01*
X159718797Y-138847647D01*
X159718797Y-138847645D01*
X159688360Y-138823955D01*
X159688354Y-138823951D01*
X159484302Y-138713523D01*
X159484293Y-138713520D01*
X159264860Y-138638188D01*
X159036007Y-138600000D01*
X158803993Y-138600000D01*
X158575139Y-138638188D01*
X158355706Y-138713520D01*
X158355697Y-138713523D01*
X158151650Y-138823949D01*
X158121200Y-138847647D01*
X158875600Y-139602046D01*
X158794852Y-139614835D01*
X158681955Y-139672359D01*
X158592359Y-139761955D01*
X158534835Y-139874852D01*
X158522046Y-139955600D01*
X157768811Y-139202365D01*
X157684516Y-139331390D01*
X157591317Y-139543864D01*
X157534361Y-139768781D01*
X157515202Y-139999994D01*
X157515202Y-140000005D01*
X157533415Y-140219806D01*
X157519334Y-140288242D01*
X157470489Y-140338201D01*
X157409610Y-140354046D01*
X154510877Y-140348692D01*
X154443874Y-140328883D01*
X154398217Y-140275995D01*
X154387530Y-140214452D01*
X154387633Y-140213217D01*
X154401351Y-140047656D01*
X154405300Y-140000005D01*
X154405300Y-139999993D01*
X154386135Y-139768702D01*
X154386133Y-139768691D01*
X154329157Y-139543699D01*
X154235924Y-139331151D01*
X154108983Y-139136852D01*
X154108980Y-139136849D01*
X154108979Y-139136847D01*
X153951784Y-138966087D01*
X153951779Y-138966083D01*
X153951777Y-138966081D01*
X153768634Y-138823535D01*
X153768619Y-138823525D01*
X153698374Y-138785510D01*
X153669711Y-138764137D01*
X147155916Y-132250342D01*
X147146649Y-132239973D01*
X147124606Y-132212332D01*
X147074703Y-132168732D01*
X147068607Y-132163033D01*
X147061632Y-132156058D01*
X147061621Y-132156048D01*
X147030355Y-132129945D01*
X147028239Y-132128138D01*
X146955103Y-132064240D01*
X146955097Y-132064236D01*
X146955096Y-132064235D01*
X146951341Y-132061991D01*
X146935473Y-132050732D01*
X146932119Y-132047932D01*
X146932118Y-132047931D01*
X146932113Y-132047927D01*
X146847648Y-132000001D01*
X146845244Y-131998601D01*
X146761863Y-131948784D01*
X146757769Y-131947248D01*
X146740144Y-131939002D01*
X146736345Y-131936846D01*
X146644669Y-131904767D01*
X146642053Y-131903819D01*
X146551129Y-131869694D01*
X146551119Y-131869691D01*
X146546823Y-131868912D01*
X146528018Y-131863949D01*
X146523884Y-131862502D01*
X146523877Y-131862501D01*
X146427948Y-131847307D01*
X146425205Y-131846841D01*
X146329650Y-131829500D01*
X146329647Y-131829500D01*
X146325272Y-131829500D01*
X146305869Y-131827972D01*
X146301560Y-131827289D01*
X146204459Y-131829469D01*
X146201677Y-131829500D01*
X144922221Y-131829500D01*
X144855182Y-131809815D01*
X144809427Y-131757011D01*
X144798459Y-131697818D01*
X144798798Y-131692351D01*
X144044400Y-130937953D01*
X144125148Y-130925165D01*
X144238045Y-130867641D01*
X144327641Y-130778045D01*
X144385165Y-130665148D01*
X144397953Y-130584400D01*
X145151186Y-131337633D01*
X145235482Y-131208611D01*
X145328682Y-130996135D01*
X145385638Y-130771218D01*
X145404798Y-130540005D01*
X145404798Y-130539994D01*
X145385638Y-130308781D01*
X145328682Y-130083864D01*
X145235484Y-129871393D01*
X145151186Y-129742365D01*
X144397953Y-130495598D01*
X144385165Y-130414852D01*
X144327641Y-130301955D01*
X144238045Y-130212359D01*
X144125148Y-130154835D01*
X144044400Y-130142046D01*
X144798797Y-129387647D01*
X144798797Y-129387646D01*
X144773773Y-129368169D01*
X144732961Y-129311459D01*
X144729286Y-129241686D01*
X144763918Y-129181003D01*
X144773760Y-129172473D01*
X144951784Y-129033913D01*
X145108979Y-128863153D01*
X145235924Y-128668849D01*
X145329157Y-128456300D01*
X145386134Y-128231305D01*
X145391906Y-128161647D01*
X145405300Y-128000006D01*
X145405300Y-127999993D01*
X145386135Y-127768702D01*
X145386133Y-127768691D01*
X145329157Y-127543699D01*
X145235924Y-127331151D01*
X145108983Y-127136852D01*
X145108980Y-127136849D01*
X145108979Y-127136847D01*
X144951784Y-126966087D01*
X144774180Y-126827853D01*
X144733368Y-126771143D01*
X144729693Y-126701370D01*
X144764324Y-126640687D01*
X144774181Y-126632146D01*
X144789780Y-126620005D01*
X144951784Y-126493913D01*
X145108979Y-126323153D01*
X145235924Y-126128849D01*
X145329157Y-125916300D01*
X145386134Y-125691305D01*
X145386135Y-125691297D01*
X145405300Y-125460006D01*
X145405300Y-125459993D01*
X145386135Y-125228702D01*
X145386133Y-125228691D01*
X145329157Y-125003699D01*
X145235924Y-124791151D01*
X145108983Y-124596852D01*
X145108980Y-124596849D01*
X145108979Y-124596847D01*
X144951784Y-124426087D01*
X144951779Y-124426083D01*
X144951777Y-124426081D01*
X144768634Y-124283535D01*
X144768628Y-124283531D01*
X144564504Y-124173064D01*
X144564495Y-124173061D01*
X144344984Y-124097702D01*
X144173282Y-124069050D01*
X144116049Y-124059500D01*
X144116048Y-124059500D01*
X143959636Y-124059500D01*
X143892597Y-124039815D01*
X143871955Y-124023181D01*
X138877333Y-119028559D01*
X138877329Y-119028555D01*
X138747819Y-118920432D01*
X138747813Y-118920428D01*
X138552045Y-118809347D01*
X138339586Y-118735002D01*
X138339583Y-118735001D01*
X138117260Y-118699789D01*
X137892221Y-118704840D01*
X137671711Y-118749990D01*
X137671698Y-118749994D01*
X137462791Y-118833792D01*
X137296072Y-118938549D01*
X137228835Y-118957549D01*
X137162000Y-118937181D01*
X137116786Y-118883913D01*
X137106100Y-118833555D01*
X137106100Y-115432785D01*
X137106880Y-115418900D01*
X137110838Y-115383773D01*
X137106380Y-115317666D01*
X137106100Y-115309325D01*
X137106100Y-115299452D01*
X137106100Y-115299445D01*
X137102438Y-115258772D01*
X137102230Y-115256116D01*
X137096540Y-115171701D01*
X137095697Y-115159193D01*
X137094628Y-115154951D01*
X137091368Y-115135769D01*
X137090977Y-115131412D01*
X137065127Y-115037750D01*
X137064431Y-115035114D01*
X137040696Y-114940917D01*
X137038889Y-114936939D01*
X137032253Y-114918634D01*
X137031093Y-114914431D01*
X137031093Y-114914430D01*
X136988898Y-114826811D01*
X136987800Y-114824464D01*
X136947607Y-114735975D01*
X136945118Y-114732382D01*
X136935328Y-114715570D01*
X136933429Y-114711627D01*
X136933427Y-114711624D01*
X136933425Y-114711620D01*
X136933424Y-114711619D01*
X136876340Y-114633051D01*
X136874728Y-114630780D01*
X136849248Y-114594001D01*
X136819420Y-114550946D01*
X136816329Y-114547855D01*
X136803693Y-114533061D01*
X136803650Y-114533002D01*
X136801122Y-114529522D01*
X136768474Y-114498307D01*
X136730899Y-114462381D01*
X136728910Y-114460436D01*
X125268479Y-103000005D01*
X166595202Y-103000005D01*
X166614361Y-103231218D01*
X166671317Y-103456135D01*
X166764515Y-103668606D01*
X166848812Y-103797633D01*
X167602046Y-103044399D01*
X167614835Y-103125148D01*
X167672359Y-103238045D01*
X167761955Y-103327641D01*
X167874852Y-103385165D01*
X167955599Y-103397953D01*
X167201201Y-104152351D01*
X167231649Y-104176050D01*
X167435697Y-104286476D01*
X167435706Y-104286479D01*
X167655139Y-104361811D01*
X167883993Y-104400000D01*
X168116007Y-104400000D01*
X168344860Y-104361811D01*
X168564293Y-104286479D01*
X168564301Y-104286476D01*
X168768355Y-104176047D01*
X168798797Y-104152351D01*
X168798798Y-104152350D01*
X168044401Y-103397953D01*
X168125148Y-103385165D01*
X168238045Y-103327641D01*
X168327641Y-103238045D01*
X168385165Y-103125148D01*
X168397953Y-103044400D01*
X169151186Y-103797633D01*
X169235482Y-103668611D01*
X169328682Y-103456135D01*
X169385638Y-103231218D01*
X169404798Y-103000005D01*
X169404798Y-102999994D01*
X169385638Y-102768781D01*
X169328682Y-102543864D01*
X169235484Y-102331393D01*
X169151186Y-102202365D01*
X168397953Y-102955598D01*
X168385165Y-102874852D01*
X168327641Y-102761955D01*
X168238045Y-102672359D01*
X168125148Y-102614835D01*
X168044400Y-102602046D01*
X168798797Y-101847647D01*
X168798797Y-101847645D01*
X168768360Y-101823955D01*
X168768354Y-101823951D01*
X168564302Y-101713523D01*
X168564293Y-101713520D01*
X168344860Y-101638188D01*
X168116007Y-101600000D01*
X167883993Y-101600000D01*
X167655139Y-101638188D01*
X167435706Y-101713520D01*
X167435697Y-101713523D01*
X167231650Y-101823949D01*
X167201200Y-101847647D01*
X167955600Y-102602046D01*
X167874852Y-102614835D01*
X167761955Y-102672359D01*
X167672359Y-102761955D01*
X167614835Y-102874852D01*
X167602046Y-102955600D01*
X166848811Y-102202365D01*
X166764516Y-102331390D01*
X166671317Y-102543864D01*
X166614361Y-102768781D01*
X166595202Y-102999994D01*
X166595202Y-103000005D01*
X125268479Y-103000005D01*
X121858321Y-99589847D01*
X121832182Y-99547972D01*
X121831217Y-99548396D01*
X121735924Y-99331151D01*
X121608983Y-99136852D01*
X121608980Y-99136849D01*
X121608979Y-99136847D01*
X121451784Y-98966087D01*
X121451779Y-98966083D01*
X121451777Y-98966081D01*
X121268634Y-98823535D01*
X121268628Y-98823531D01*
X121064504Y-98713064D01*
X121064495Y-98713061D01*
X120844984Y-98637702D01*
X120673282Y-98609050D01*
X120616049Y-98599500D01*
X120383951Y-98599500D01*
X120338164Y-98607140D01*
X120155015Y-98637702D01*
X119935504Y-98713061D01*
X119935495Y-98713064D01*
X119731371Y-98823531D01*
X119731365Y-98823535D01*
X119548222Y-98966081D01*
X119548219Y-98966084D01*
X119548216Y-98966086D01*
X119548216Y-98966087D01*
X119489267Y-99030122D01*
X119391016Y-99136852D01*
X119264075Y-99331151D01*
X119170842Y-99543699D01*
X119113866Y-99768691D01*
X119113864Y-99768702D01*
X119094700Y-99999993D01*
X119094700Y-100000006D01*
X119113864Y-100231297D01*
X119113866Y-100231308D01*
X119170842Y-100456300D01*
X119264075Y-100668848D01*
X119391016Y-100863147D01*
X119391019Y-100863151D01*
X119391021Y-100863153D01*
X119548216Y-101033913D01*
X119548219Y-101033915D01*
X119548222Y-101033918D01*
X119731365Y-101176464D01*
X119731371Y-101176468D01*
X119731374Y-101176470D01*
X119935497Y-101286936D01*
X120019978Y-101315938D01*
X120034699Y-101320992D01*
X120082118Y-101350592D01*
X134568781Y-115837255D01*
X134602266Y-115898578D01*
X134605100Y-115924936D01*
X134605100Y-117537264D01*
X134585415Y-117604303D01*
X134532611Y-117650058D01*
X134463453Y-117660002D01*
X134399897Y-117630977D01*
X134393419Y-117624945D01*
X131612816Y-114844342D01*
X131603549Y-114833973D01*
X131581508Y-114806334D01*
X131581506Y-114806332D01*
X131531603Y-114762732D01*
X131525507Y-114757033D01*
X131518532Y-114750058D01*
X131518521Y-114750048D01*
X131487255Y-114723945D01*
X131485139Y-114722138D01*
X131412003Y-114658240D01*
X131411997Y-114658236D01*
X131411996Y-114658235D01*
X131408241Y-114655991D01*
X131392373Y-114644732D01*
X131389019Y-114641932D01*
X131389018Y-114641931D01*
X131389013Y-114641927D01*
X131304548Y-114594001D01*
X131302144Y-114592601D01*
X131218763Y-114542784D01*
X131214669Y-114541248D01*
X131197044Y-114533002D01*
X131193245Y-114530846D01*
X131101569Y-114498767D01*
X131098953Y-114497819D01*
X131008029Y-114463694D01*
X131008019Y-114463691D01*
X131003723Y-114462912D01*
X130984918Y-114457949D01*
X130980784Y-114456502D01*
X130980777Y-114456501D01*
X130884848Y-114441307D01*
X130882105Y-114440841D01*
X130786550Y-114423500D01*
X130786547Y-114423500D01*
X130782172Y-114423500D01*
X130762769Y-114421972D01*
X130758460Y-114421289D01*
X130661359Y-114423469D01*
X130658577Y-114423500D01*
X112954500Y-114423500D01*
X112887461Y-114403815D01*
X112841706Y-114351011D01*
X112830500Y-114299500D01*
X112830500Y-104366289D01*
X112850185Y-104299250D01*
X112850691Y-104298468D01*
X112871715Y-104266286D01*
X112904173Y-104216607D01*
X113004063Y-103988881D01*
X113065108Y-103747821D01*
X113085643Y-103500000D01*
X113082008Y-103456135D01*
X113065109Y-103252187D01*
X113065107Y-103252175D01*
X113004063Y-103011118D01*
X112904173Y-102783393D01*
X112850691Y-102701531D01*
X112830503Y-102634641D01*
X112830500Y-102633710D01*
X112830500Y-99866289D01*
X112850185Y-99799250D01*
X112850691Y-99798468D01*
X112871715Y-99766286D01*
X112904173Y-99716607D01*
X113004063Y-99488881D01*
X113065108Y-99247821D01*
X113085643Y-99000000D01*
X113082832Y-98966081D01*
X113065109Y-98752187D01*
X113065107Y-98752175D01*
X113004063Y-98511118D01*
X112904173Y-98283393D01*
X112768166Y-98075217D01*
X112684048Y-97983841D01*
X112599744Y-97892262D01*
X112403509Y-97739526D01*
X112403507Y-97739525D01*
X112403506Y-97739524D01*
X112184811Y-97621172D01*
X112184802Y-97621169D01*
X111949616Y-97540429D01*
X111704335Y-97499500D01*
X111455665Y-97499500D01*
X111210383Y-97540429D01*
X110975197Y-97621169D01*
X110975188Y-97621172D01*
X110756493Y-97739524D01*
X110560257Y-97892261D01*
X110391833Y-98075217D01*
X110255826Y-98283393D01*
X110155936Y-98511118D01*
X110094892Y-98752175D01*
X110094890Y-98752187D01*
X110074357Y-98999994D01*
X110074357Y-99000005D01*
X110094890Y-99247812D01*
X110094892Y-99247824D01*
X110155936Y-99488881D01*
X110255826Y-99716606D01*
X110309309Y-99798468D01*
X110329496Y-99865357D01*
X110329500Y-99866289D01*
X110329500Y-102633710D01*
X110309815Y-102700749D01*
X110309309Y-102701531D01*
X110255826Y-102783393D01*
X110155936Y-103011118D01*
X110094892Y-103252175D01*
X110094890Y-103252187D01*
X110074357Y-103499994D01*
X110074357Y-103500005D01*
X110094890Y-103747812D01*
X110094892Y-103747824D01*
X110155936Y-103988881D01*
X110255826Y-104216606D01*
X110309309Y-104298468D01*
X110329496Y-104365357D01*
X110329500Y-104366289D01*
X110329500Y-115104662D01*
X110309815Y-115171701D01*
X110293181Y-115192343D01*
X95454874Y-130030649D01*
X95393551Y-130064134D01*
X95323859Y-130059150D01*
X95267926Y-130017278D01*
X95253636Y-129992777D01*
X95235482Y-129951390D01*
X95151186Y-129822365D01*
X94397953Y-130575597D01*
X94385165Y-130494852D01*
X94327641Y-130381955D01*
X94238045Y-130292359D01*
X94125148Y-130234835D01*
X94044398Y-130222045D01*
X94798797Y-129467647D01*
X94798797Y-129467646D01*
X94773773Y-129448169D01*
X94732961Y-129391459D01*
X94729286Y-129321686D01*
X94763918Y-129261003D01*
X94773760Y-129252473D01*
X94951784Y-129113913D01*
X95108979Y-128943153D01*
X95114314Y-128934988D01*
X95159510Y-128865809D01*
X95235924Y-128748849D01*
X95329157Y-128536300D01*
X95386134Y-128311305D01*
X95386135Y-128311297D01*
X95405300Y-128080006D01*
X95405300Y-128079993D01*
X95386135Y-127848702D01*
X95386133Y-127848691D01*
X95329157Y-127623699D01*
X95235924Y-127411151D01*
X95108983Y-127216852D01*
X95108980Y-127216849D01*
X95108979Y-127216847D01*
X94951784Y-127046087D01*
X94774180Y-126907853D01*
X94733368Y-126851143D01*
X94729693Y-126781370D01*
X94764324Y-126720687D01*
X94774181Y-126712146D01*
X94779918Y-126707681D01*
X94951784Y-126573913D01*
X95108979Y-126403153D01*
X95235924Y-126208849D01*
X95246319Y-126185148D01*
X95272191Y-126147281D01*
X99070166Y-122349306D01*
X99080516Y-122340057D01*
X99108166Y-122318008D01*
X99151767Y-122268101D01*
X99157457Y-122262016D01*
X99164445Y-122255029D01*
X99190624Y-122223669D01*
X99192324Y-122221679D01*
X99256265Y-122148496D01*
X99258506Y-122144743D01*
X99269774Y-122128864D01*
X99272568Y-122125519D01*
X99320529Y-122040991D01*
X99321875Y-122038682D01*
X99347197Y-121996300D01*
X99371715Y-121955264D01*
X99373247Y-121951179D01*
X99381503Y-121933533D01*
X99383653Y-121929745D01*
X99415751Y-121838012D01*
X99416641Y-121835555D01*
X99450807Y-121744524D01*
X99451585Y-121740234D01*
X99456555Y-121721404D01*
X99457998Y-121717282D01*
X99470602Y-121637702D01*
X99473196Y-121621325D01*
X99473654Y-121618624D01*
X99487922Y-121540006D01*
X99491000Y-121523049D01*
X99491000Y-121518669D01*
X99492527Y-121499270D01*
X99493210Y-121494960D01*
X99491031Y-121397859D01*
X99491000Y-121395077D01*
X99491000Y-103500005D01*
X99914357Y-103500005D01*
X99934890Y-103747812D01*
X99934892Y-103747824D01*
X99995936Y-103988881D01*
X100095826Y-104216606D01*
X100231833Y-104424782D01*
X100231836Y-104424785D01*
X100400256Y-104607738D01*
X100596491Y-104760474D01*
X100815190Y-104878828D01*
X101050386Y-104959571D01*
X101295665Y-105000500D01*
X101544335Y-105000500D01*
X101789614Y-104959571D01*
X102024810Y-104878828D01*
X102243509Y-104760474D01*
X102439744Y-104607738D01*
X102608164Y-104424785D01*
X102744173Y-104216607D01*
X102844063Y-103988881D01*
X102905108Y-103747821D01*
X102925643Y-103500000D01*
X102922008Y-103456135D01*
X102905109Y-103252187D01*
X102905107Y-103252175D01*
X102844063Y-103011118D01*
X102744173Y-102783393D01*
X102608166Y-102575217D01*
X102579303Y-102543864D01*
X102439744Y-102392262D01*
X102243509Y-102239526D01*
X102243507Y-102239525D01*
X102243506Y-102239524D01*
X102024811Y-102121172D01*
X102024802Y-102121169D01*
X101789616Y-102040429D01*
X101544335Y-101999500D01*
X101295665Y-101999500D01*
X101050383Y-102040429D01*
X100815197Y-102121169D01*
X100815188Y-102121172D01*
X100596493Y-102239524D01*
X100400257Y-102392261D01*
X100231833Y-102575217D01*
X100095826Y-102783393D01*
X99995936Y-103011118D01*
X99934892Y-103252175D01*
X99934890Y-103252187D01*
X99914357Y-103499994D01*
X99914357Y-103500005D01*
X99491000Y-103500005D01*
X99491000Y-102748835D01*
X99510685Y-102681796D01*
X99527314Y-102661159D01*
X101688654Y-100499818D01*
X101749975Y-100466335D01*
X101755926Y-100465192D01*
X101789614Y-100459571D01*
X102024810Y-100378828D01*
X102243509Y-100260474D01*
X102439744Y-100107738D01*
X102608164Y-99924785D01*
X102744173Y-99716607D01*
X102844063Y-99488881D01*
X102905108Y-99247821D01*
X102925643Y-99000000D01*
X102922832Y-98966081D01*
X102905109Y-98752187D01*
X102905107Y-98752175D01*
X102844063Y-98511118D01*
X102744173Y-98283393D01*
X102608166Y-98075217D01*
X102524048Y-97983841D01*
X102439744Y-97892262D01*
X102243509Y-97739526D01*
X102243507Y-97739525D01*
X102243506Y-97739524D01*
X102024811Y-97621172D01*
X102024802Y-97621169D01*
X101789616Y-97540429D01*
X101544335Y-97499500D01*
X101295665Y-97499500D01*
X101050383Y-97540429D01*
X100815197Y-97621169D01*
X100815188Y-97621172D01*
X100596493Y-97739524D01*
X100400257Y-97892261D01*
X100231833Y-98075217D01*
X100095826Y-98283393D01*
X99995938Y-98511114D01*
X99995936Y-98511120D01*
X99955326Y-98671482D01*
X99922802Y-98728722D01*
X97410844Y-101240680D01*
X97400480Y-101249943D01*
X97372837Y-101271989D01*
X97372834Y-101271992D01*
X97329236Y-101321892D01*
X97323548Y-101327976D01*
X97316564Y-101334960D01*
X97316551Y-101334975D01*
X97290428Y-101366264D01*
X97288625Y-101368375D01*
X97224734Y-101441504D01*
X97224730Y-101441510D01*
X97222481Y-101445274D01*
X97211246Y-101461108D01*
X97208432Y-101464479D01*
X97160478Y-101548990D01*
X97159104Y-101551349D01*
X97130038Y-101600000D01*
X97109281Y-101634742D01*
X97107747Y-101638832D01*
X97099508Y-101656445D01*
X97097350Y-101660247D01*
X97097347Y-101660254D01*
X97065262Y-101751945D01*
X97064315Y-101754557D01*
X97030192Y-101845479D01*
X97030189Y-101845488D01*
X97029409Y-101849788D01*
X97024452Y-101868569D01*
X97023003Y-101872709D01*
X97023002Y-101872715D01*
X97007804Y-101968665D01*
X97007338Y-101971406D01*
X96990000Y-102066947D01*
X96990000Y-102071327D01*
X96988473Y-102090729D01*
X96987789Y-102095040D01*
X96989969Y-102192139D01*
X96990000Y-102194921D01*
X96990000Y-120841163D01*
X96970315Y-120908202D01*
X96953681Y-120928844D01*
X95460437Y-122422087D01*
X95399114Y-122455572D01*
X95329422Y-122450588D01*
X95273489Y-122408716D01*
X95259200Y-122384215D01*
X95235925Y-122331152D01*
X95108983Y-122136852D01*
X95108980Y-122136849D01*
X95108979Y-122136847D01*
X94951784Y-121966087D01*
X94951779Y-121966083D01*
X94951777Y-121966081D01*
X94768634Y-121823535D01*
X94768628Y-121823531D01*
X94564504Y-121713064D01*
X94564495Y-121713061D01*
X94344984Y-121637702D01*
X94173282Y-121609050D01*
X94116049Y-121599500D01*
X93883951Y-121599500D01*
X93883950Y-121599500D01*
X93818098Y-121610488D01*
X93748733Y-121602106D01*
X93694912Y-121557552D01*
X93673721Y-121490973D01*
X93673691Y-121488841D01*
X93551605Y-96000000D01*
X93894592Y-96000000D01*
X93914201Y-96286680D01*
X93914201Y-96286684D01*
X93914202Y-96286686D01*
X93928097Y-96353553D01*
X93972666Y-96568034D01*
X93972667Y-96568037D01*
X94068894Y-96838793D01*
X94068893Y-96838793D01*
X94201098Y-97093935D01*
X94366812Y-97328700D01*
X94451923Y-97419831D01*
X94562947Y-97538708D01*
X94664309Y-97621172D01*
X94785853Y-97720055D01*
X95031382Y-97869365D01*
X95218237Y-97950526D01*
X95294942Y-97983844D01*
X95571642Y-98061371D01*
X95821920Y-98095771D01*
X95856321Y-98100500D01*
X95856322Y-98100500D01*
X96143679Y-98100500D01*
X96174370Y-98096281D01*
X96428358Y-98061371D01*
X96705058Y-97983844D01*
X96818015Y-97934779D01*
X96968617Y-97869365D01*
X96968620Y-97869363D01*
X96968625Y-97869361D01*
X97214147Y-97720055D01*
X97437053Y-97538708D01*
X97633189Y-97328698D01*
X97798901Y-97093936D01*
X97931104Y-96838797D01*
X98027334Y-96568032D01*
X98085798Y-96286686D01*
X98105408Y-96000006D01*
X116594700Y-96000006D01*
X116613864Y-96231297D01*
X116613866Y-96231308D01*
X116670842Y-96456300D01*
X116764075Y-96668848D01*
X116891016Y-96863147D01*
X116891019Y-96863151D01*
X116891021Y-96863153D01*
X117048216Y-97033913D01*
X117048219Y-97033915D01*
X117048222Y-97033918D01*
X117231365Y-97176464D01*
X117231371Y-97176468D01*
X117231374Y-97176470D01*
X117398860Y-97267109D01*
X117434652Y-97286479D01*
X117435497Y-97286936D01*
X117549487Y-97326068D01*
X117655015Y-97362297D01*
X117655017Y-97362297D01*
X117655019Y-97362298D01*
X117883951Y-97400500D01*
X117883952Y-97400500D01*
X118116048Y-97400500D01*
X118116049Y-97400500D01*
X118344981Y-97362298D01*
X118564503Y-97286936D01*
X118768626Y-97176470D01*
X118769170Y-97176047D01*
X118874667Y-97093935D01*
X118951784Y-97033913D01*
X119108979Y-96863153D01*
X119235924Y-96668849D01*
X119329157Y-96456300D01*
X119386134Y-96231305D01*
X119386135Y-96231297D01*
X119405300Y-96000006D01*
X119405300Y-96000005D01*
X121595202Y-96000005D01*
X121614361Y-96231218D01*
X121671317Y-96456135D01*
X121764515Y-96668606D01*
X121848812Y-96797633D01*
X122602046Y-96044399D01*
X122614835Y-96125148D01*
X122672359Y-96238045D01*
X122761955Y-96327641D01*
X122874852Y-96385165D01*
X122955599Y-96397953D01*
X122201201Y-97152351D01*
X122231649Y-97176050D01*
X122435697Y-97286476D01*
X122435706Y-97286479D01*
X122655139Y-97361811D01*
X122883993Y-97400000D01*
X123116007Y-97400000D01*
X123344860Y-97361811D01*
X123564293Y-97286479D01*
X123564301Y-97286476D01*
X123768355Y-97176047D01*
X123798797Y-97152351D01*
X123798798Y-97152350D01*
X123044401Y-96397953D01*
X123125148Y-96385165D01*
X123238045Y-96327641D01*
X123327641Y-96238045D01*
X123385165Y-96125148D01*
X123397953Y-96044400D01*
X124151186Y-96797633D01*
X124235482Y-96668611D01*
X124328682Y-96456135D01*
X124385638Y-96231218D01*
X124404798Y-96000005D01*
X124404798Y-96000000D01*
X171894592Y-96000000D01*
X171914201Y-96286680D01*
X171914201Y-96286684D01*
X171914202Y-96286686D01*
X171928097Y-96353553D01*
X171972666Y-96568034D01*
X171972667Y-96568037D01*
X172068894Y-96838793D01*
X172068893Y-96838793D01*
X172201098Y-97093935D01*
X172366812Y-97328700D01*
X172451923Y-97419831D01*
X172562947Y-97538708D01*
X172664309Y-97621172D01*
X172785853Y-97720055D01*
X173031382Y-97869365D01*
X173218237Y-97950526D01*
X173294942Y-97983844D01*
X173571642Y-98061371D01*
X173821920Y-98095771D01*
X173856321Y-98100500D01*
X173856322Y-98100500D01*
X174143679Y-98100500D01*
X174174370Y-98096281D01*
X174428358Y-98061371D01*
X174705058Y-97983844D01*
X174818015Y-97934779D01*
X174968617Y-97869365D01*
X174968620Y-97869363D01*
X174968625Y-97869361D01*
X175214147Y-97720055D01*
X175437053Y-97538708D01*
X175633189Y-97328698D01*
X175798901Y-97093936D01*
X175931104Y-96838797D01*
X176027334Y-96568032D01*
X176085798Y-96286686D01*
X176105408Y-96000000D01*
X176085798Y-95713314D01*
X176027334Y-95431968D01*
X175931105Y-95161206D01*
X175931106Y-95161206D01*
X175798901Y-94906064D01*
X175633187Y-94671299D01*
X175554554Y-94587105D01*
X175437053Y-94461292D01*
X175214147Y-94279945D01*
X175214146Y-94279944D01*
X174968617Y-94130634D01*
X174705063Y-94016158D01*
X174705061Y-94016157D01*
X174705058Y-94016156D01*
X174575578Y-93979877D01*
X174428364Y-93938630D01*
X174428359Y-93938629D01*
X174428358Y-93938629D01*
X174286018Y-93919064D01*
X174143679Y-93899500D01*
X174143678Y-93899500D01*
X173856322Y-93899500D01*
X173856321Y-93899500D01*
X173571642Y-93938629D01*
X173571635Y-93938630D01*
X173363861Y-93996845D01*
X173294942Y-94016156D01*
X173294939Y-94016156D01*
X173294936Y-94016158D01*
X173294935Y-94016158D01*
X173031382Y-94130634D01*
X172785853Y-94279944D01*
X172562950Y-94461289D01*
X172366812Y-94671299D01*
X172201098Y-94906064D01*
X172068894Y-95161206D01*
X171972667Y-95431962D01*
X171972666Y-95431965D01*
X171914201Y-95713319D01*
X171894592Y-96000000D01*
X124404798Y-96000000D01*
X124404798Y-95999994D01*
X124385638Y-95768781D01*
X124328682Y-95543864D01*
X124235484Y-95331393D01*
X124151186Y-95202365D01*
X123397953Y-95955598D01*
X123385165Y-95874852D01*
X123327641Y-95761955D01*
X123238045Y-95672359D01*
X123125148Y-95614835D01*
X123044400Y-95602046D01*
X123798797Y-94847647D01*
X123798797Y-94847645D01*
X123768360Y-94823955D01*
X123768354Y-94823951D01*
X123564302Y-94713523D01*
X123564293Y-94713520D01*
X123344860Y-94638188D01*
X123116007Y-94600000D01*
X122883993Y-94600000D01*
X122655139Y-94638188D01*
X122435706Y-94713520D01*
X122435697Y-94713523D01*
X122231650Y-94823949D01*
X122201200Y-94847647D01*
X122955600Y-95602046D01*
X122874852Y-95614835D01*
X122761955Y-95672359D01*
X122672359Y-95761955D01*
X122614835Y-95874852D01*
X122602046Y-95955600D01*
X121848811Y-95202365D01*
X121764516Y-95331390D01*
X121671317Y-95543864D01*
X121614361Y-95768781D01*
X121595202Y-95999994D01*
X121595202Y-96000005D01*
X119405300Y-96000005D01*
X119405300Y-95999993D01*
X119386135Y-95768702D01*
X119386133Y-95768691D01*
X119329157Y-95543699D01*
X119235924Y-95331151D01*
X119108983Y-95136852D01*
X119108980Y-95136849D01*
X119108979Y-95136847D01*
X118951784Y-94966087D01*
X118951779Y-94966083D01*
X118951777Y-94966081D01*
X118768634Y-94823535D01*
X118768628Y-94823531D01*
X118564504Y-94713064D01*
X118564495Y-94713061D01*
X118344984Y-94637702D01*
X118173282Y-94609050D01*
X118116049Y-94599500D01*
X117883951Y-94599500D01*
X117838164Y-94607140D01*
X117655015Y-94637702D01*
X117435504Y-94713061D01*
X117435495Y-94713064D01*
X117231371Y-94823531D01*
X117231365Y-94823535D01*
X117048222Y-94966081D01*
X117048219Y-94966084D01*
X116891016Y-95136852D01*
X116764075Y-95331151D01*
X116670842Y-95543699D01*
X116613866Y-95768691D01*
X116613864Y-95768702D01*
X116594700Y-95999993D01*
X116594700Y-96000006D01*
X98105408Y-96000006D01*
X98105408Y-96000000D01*
X98085798Y-95713314D01*
X98027334Y-95431968D01*
X97931105Y-95161206D01*
X97931106Y-95161206D01*
X97798901Y-94906064D01*
X97633187Y-94671299D01*
X97554554Y-94587105D01*
X97437053Y-94461292D01*
X97214147Y-94279945D01*
X97214146Y-94279944D01*
X96968617Y-94130634D01*
X96705063Y-94016158D01*
X96705061Y-94016157D01*
X96705058Y-94016156D01*
X96575578Y-93979877D01*
X96428364Y-93938630D01*
X96428359Y-93938629D01*
X96428358Y-93938629D01*
X96286018Y-93919064D01*
X96143679Y-93899500D01*
X96143678Y-93899500D01*
X95856322Y-93899500D01*
X95856321Y-93899500D01*
X95571642Y-93938629D01*
X95571635Y-93938630D01*
X95363861Y-93996845D01*
X95294942Y-94016156D01*
X95294939Y-94016156D01*
X95294936Y-94016158D01*
X95294935Y-94016158D01*
X95031382Y-94130634D01*
X94785853Y-94279944D01*
X94562950Y-94461289D01*
X94366812Y-94671299D01*
X94201098Y-94906064D01*
X94068894Y-95161206D01*
X93972667Y-95431962D01*
X93972666Y-95431965D01*
X93914201Y-95713319D01*
X93894592Y-96000000D01*
X93551605Y-96000000D01*
X93540418Y-93664471D01*
X93559782Y-93597339D01*
X93612366Y-93551332D01*
X93664472Y-93539878D01*
X176298004Y-93577910D01*
G37*
%TD.AperFunction*%
%TA.AperFunction,Conductor*%
G36*
X137311303Y-120999923D02*
G01*
X137317781Y-121005955D01*
X142601482Y-126289656D01*
X142610748Y-126300024D01*
X142632792Y-126327666D01*
X142682695Y-126371266D01*
X142688791Y-126376965D01*
X142695766Y-126383940D01*
X142695777Y-126383950D01*
X142727039Y-126410050D01*
X142729154Y-126411856D01*
X142802304Y-126475765D01*
X142806050Y-126478003D01*
X142821924Y-126489265D01*
X142825281Y-126492068D01*
X142909816Y-126540034D01*
X142912078Y-126541352D01*
X142995536Y-126591215D01*
X142999627Y-126592750D01*
X143017255Y-126600996D01*
X143021055Y-126603153D01*
X143112795Y-126635254D01*
X143115370Y-126636189D01*
X143148584Y-126648655D01*
X143204432Y-126690641D01*
X143228714Y-126756155D01*
X143213722Y-126824397D01*
X143181175Y-126862600D01*
X143048218Y-126966085D01*
X142891016Y-127136852D01*
X142764079Y-127331145D01*
X142734379Y-127398851D01*
X142708505Y-127436719D01*
X141284344Y-128860880D01*
X141273980Y-128870143D01*
X141246337Y-128892189D01*
X141246334Y-128892192D01*
X141202736Y-128942092D01*
X141197048Y-128948176D01*
X141190064Y-128955160D01*
X141190051Y-128955175D01*
X141163928Y-128986464D01*
X141162125Y-128988575D01*
X141098234Y-129061704D01*
X141098230Y-129061710D01*
X141095981Y-129065474D01*
X141084746Y-129081308D01*
X141081932Y-129084679D01*
X141033978Y-129169190D01*
X141032604Y-129171549D01*
X141026957Y-129181003D01*
X140982781Y-129254942D01*
X140981247Y-129259032D01*
X140973008Y-129276645D01*
X140970850Y-129280447D01*
X140970847Y-129280454D01*
X140938762Y-129372145D01*
X140937815Y-129374757D01*
X140903692Y-129465679D01*
X140903689Y-129465688D01*
X140902909Y-129469988D01*
X140897952Y-129488769D01*
X140896503Y-129492909D01*
X140896502Y-129492915D01*
X140881304Y-129588865D01*
X140880838Y-129591606D01*
X140863500Y-129687147D01*
X140863500Y-129691527D01*
X140861973Y-129710929D01*
X140861289Y-129715240D01*
X140863469Y-129812339D01*
X140863500Y-129815121D01*
X140863500Y-133802314D01*
X140862720Y-133816198D01*
X140858762Y-133851322D01*
X140858761Y-133851330D01*
X140863219Y-133917431D01*
X140863500Y-133925773D01*
X140863500Y-133935656D01*
X140867153Y-133976249D01*
X140867371Y-133979021D01*
X140873903Y-134075907D01*
X140873903Y-134075912D01*
X140874972Y-134080152D01*
X140878230Y-134099324D01*
X140878623Y-134103690D01*
X140904465Y-134197324D01*
X140905158Y-134199947D01*
X140919971Y-134258734D01*
X140928903Y-134294181D01*
X140930715Y-134298170D01*
X140937340Y-134316444D01*
X140938504Y-134320662D01*
X140938507Y-134320670D01*
X140980657Y-134408198D01*
X140981830Y-134410705D01*
X140998287Y-134446936D01*
X141021993Y-134499126D01*
X141021994Y-134499129D01*
X141024483Y-134502721D01*
X141034269Y-134519526D01*
X141036166Y-134523465D01*
X141036171Y-134523473D01*
X141093311Y-134602120D01*
X141094835Y-134604268D01*
X141102843Y-134615827D01*
X141150181Y-134684156D01*
X141153273Y-134687248D01*
X141165907Y-134702039D01*
X141168478Y-134705578D01*
X141168482Y-134705582D01*
X141238699Y-134772717D01*
X141240688Y-134774662D01*
X144946098Y-138480072D01*
X144979583Y-138541395D01*
X144974599Y-138611087D01*
X144932727Y-138667020D01*
X144898681Y-138685034D01*
X144815703Y-138713521D01*
X144815697Y-138713523D01*
X144611650Y-138823949D01*
X144581200Y-138847647D01*
X145335599Y-139602046D01*
X145254852Y-139614835D01*
X145141955Y-139672359D01*
X145052359Y-139761955D01*
X144994835Y-139874852D01*
X144982046Y-139955600D01*
X144228811Y-139202365D01*
X144144516Y-139331390D01*
X144051317Y-139543864D01*
X143994361Y-139768781D01*
X143975202Y-139999994D01*
X143975202Y-140000005D01*
X143991343Y-140194797D01*
X143977262Y-140263233D01*
X143928417Y-140313192D01*
X143867538Y-140329037D01*
X141592854Y-140324836D01*
X141525851Y-140305027D01*
X141480194Y-140252139D01*
X141469507Y-140190596D01*
X141485300Y-140000005D01*
X141485300Y-139999993D01*
X141466135Y-139768702D01*
X141466133Y-139768691D01*
X141409157Y-139543699D01*
X141315924Y-139331151D01*
X141188983Y-139136852D01*
X141188980Y-139136849D01*
X141188979Y-139136847D01*
X141031784Y-138966087D01*
X141031779Y-138966083D01*
X141031777Y-138966081D01*
X140848634Y-138823535D01*
X140848628Y-138823531D01*
X140644504Y-138713064D01*
X140644495Y-138713061D01*
X140424984Y-138637702D01*
X140253282Y-138609050D01*
X140196049Y-138599500D01*
X139963951Y-138599500D01*
X139918164Y-138607140D01*
X139735015Y-138637702D01*
X139515504Y-138713061D01*
X139515495Y-138713064D01*
X139311371Y-138823531D01*
X139311365Y-138823535D01*
X139128222Y-138966081D01*
X139128219Y-138966084D01*
X139128216Y-138966086D01*
X139128216Y-138966087D01*
X139096999Y-138999998D01*
X138971016Y-139136852D01*
X138913809Y-139224416D01*
X138860662Y-139269773D01*
X138791431Y-139279197D01*
X138728095Y-139249695D01*
X138706191Y-139224416D01*
X138648983Y-139136852D01*
X138648980Y-139136849D01*
X138648979Y-139136847D01*
X138491784Y-138966087D01*
X138491779Y-138966083D01*
X138491777Y-138966081D01*
X138308634Y-138823535D01*
X138308628Y-138823531D01*
X138104504Y-138713064D01*
X138104495Y-138713061D01*
X137884984Y-138637702D01*
X137713282Y-138609050D01*
X137656049Y-138599500D01*
X137423951Y-138599500D01*
X137378164Y-138607140D01*
X137195015Y-138637702D01*
X136975504Y-138713061D01*
X136975495Y-138713064D01*
X136771371Y-138823531D01*
X136771365Y-138823535D01*
X136588222Y-138966081D01*
X136588219Y-138966084D01*
X136588216Y-138966086D01*
X136588216Y-138966087D01*
X136518772Y-139041524D01*
X136465730Y-139099143D01*
X136405843Y-139135133D01*
X136336005Y-139133033D01*
X136278389Y-139093509D01*
X136251287Y-139029110D01*
X136250500Y-139015160D01*
X136250500Y-129729336D01*
X136270185Y-129662297D01*
X136286819Y-129641655D01*
X136480305Y-129448169D01*
X136685267Y-129243206D01*
X136695629Y-129233947D01*
X136723264Y-129211910D01*
X136750266Y-129181003D01*
X136766860Y-129162009D01*
X136772550Y-129155924D01*
X136779545Y-129148930D01*
X136805713Y-129117583D01*
X136807487Y-129115508D01*
X136834421Y-129084681D01*
X136871365Y-129042396D01*
X136873604Y-129038648D01*
X136884865Y-129022775D01*
X136887668Y-129019419D01*
X136935608Y-128934929D01*
X136936975Y-128932582D01*
X136942495Y-128923341D01*
X136986815Y-128849164D01*
X136988347Y-128845079D01*
X136996603Y-128827433D01*
X136997430Y-128825976D01*
X136998753Y-128823645D01*
X137030853Y-128731907D01*
X137031761Y-128729402D01*
X137065907Y-128638424D01*
X137066685Y-128634137D01*
X137071656Y-128615302D01*
X137073098Y-128611183D01*
X137088308Y-128515146D01*
X137088744Y-128512581D01*
X137106100Y-128416947D01*
X137106100Y-128412569D01*
X137107627Y-128393170D01*
X137108310Y-128388860D01*
X137106130Y-128291777D01*
X137106100Y-128288996D01*
X137106100Y-121093636D01*
X137125785Y-121026597D01*
X137178589Y-120980842D01*
X137247747Y-120970898D01*
X137311303Y-120999923D01*
G37*
%TD.AperFunction*%
%TA.AperFunction,Conductor*%
G36*
X130171703Y-116944185D02*
G01*
X130192345Y-116960819D01*
X132641678Y-119410152D01*
X132667822Y-119452025D01*
X132668783Y-119451604D01*
X132764075Y-119668848D01*
X132891016Y-119863147D01*
X132891019Y-119863151D01*
X132891021Y-119863153D01*
X133048216Y-120033913D01*
X133048219Y-120033915D01*
X133048222Y-120033918D01*
X133225818Y-120172147D01*
X133266631Y-120228857D01*
X133270306Y-120298630D01*
X133235674Y-120359313D01*
X133225818Y-120367853D01*
X133048222Y-120506081D01*
X133048219Y-120506084D01*
X132891016Y-120676852D01*
X132764075Y-120871151D01*
X132670842Y-121083699D01*
X132613866Y-121308691D01*
X132613864Y-121308702D01*
X132594700Y-121539993D01*
X132594700Y-121540006D01*
X132613864Y-121771297D01*
X132613866Y-121771308D01*
X132670842Y-121996300D01*
X132764075Y-122208848D01*
X132891016Y-122403147D01*
X132891019Y-122403151D01*
X132891021Y-122403153D01*
X133048216Y-122573913D01*
X133048219Y-122573915D01*
X133048222Y-122573918D01*
X133225818Y-122712147D01*
X133266631Y-122768857D01*
X133270306Y-122838630D01*
X133235674Y-122899313D01*
X133225818Y-122907853D01*
X133048222Y-123046081D01*
X133048219Y-123046084D01*
X132891016Y-123216852D01*
X132764075Y-123411151D01*
X132670842Y-123623699D01*
X132613866Y-123848691D01*
X132613864Y-123848702D01*
X132594700Y-124079993D01*
X132594700Y-124080006D01*
X132613864Y-124311297D01*
X132613866Y-124311308D01*
X132670842Y-124536300D01*
X132764075Y-124748848D01*
X132891016Y-124943147D01*
X132891019Y-124943151D01*
X132891021Y-124943153D01*
X133048216Y-125113913D01*
X133195689Y-125228695D01*
X133226225Y-125252462D01*
X133267038Y-125309173D01*
X133270713Y-125378946D01*
X133236082Y-125439629D01*
X133226225Y-125448170D01*
X133201201Y-125467646D01*
X133201200Y-125467647D01*
X133955599Y-126222046D01*
X133874852Y-126234835D01*
X133761955Y-126292359D01*
X133672359Y-126381955D01*
X133614835Y-126494852D01*
X133602046Y-126575600D01*
X132848811Y-125822365D01*
X132764516Y-125951390D01*
X132671317Y-126163864D01*
X132614361Y-126388781D01*
X132595202Y-126619994D01*
X132595202Y-126620005D01*
X132614361Y-126851218D01*
X132671317Y-127076135D01*
X132764515Y-127288606D01*
X132848812Y-127417633D01*
X133602046Y-126664399D01*
X133614835Y-126745148D01*
X133672359Y-126858045D01*
X133761955Y-126947641D01*
X133874852Y-127005165D01*
X133955598Y-127017953D01*
X133201201Y-127772351D01*
X133231649Y-127796050D01*
X133435697Y-127906476D01*
X133435706Y-127906479D01*
X133655139Y-127981811D01*
X133883993Y-128020000D01*
X134069497Y-128020000D01*
X134136536Y-128039685D01*
X134182291Y-128092489D01*
X134192235Y-128161647D01*
X134163210Y-128225203D01*
X134146812Y-128240945D01*
X134132340Y-128252486D01*
X134132334Y-128252492D01*
X134088736Y-128302392D01*
X134083048Y-128308476D01*
X134076064Y-128315460D01*
X134076051Y-128315475D01*
X134049928Y-128346764D01*
X134048125Y-128348875D01*
X133984234Y-128422004D01*
X133984230Y-128422010D01*
X133981981Y-128425774D01*
X133970746Y-128441608D01*
X133967932Y-128444979D01*
X133919978Y-128529490D01*
X133918604Y-128531849D01*
X133915946Y-128536300D01*
X133868781Y-128615242D01*
X133867247Y-128619332D01*
X133859008Y-128636945D01*
X133856850Y-128640747D01*
X133856847Y-128640754D01*
X133824762Y-128732445D01*
X133823815Y-128735057D01*
X133789692Y-128825979D01*
X133789689Y-128825988D01*
X133788909Y-128830288D01*
X133783952Y-128849069D01*
X133782503Y-128853209D01*
X133782502Y-128853215D01*
X133767304Y-128949165D01*
X133766838Y-128951906D01*
X133749500Y-129047447D01*
X133749500Y-129051827D01*
X133747973Y-129071229D01*
X133747289Y-129075540D01*
X133749469Y-129172639D01*
X133749500Y-129175421D01*
X133749500Y-139015160D01*
X133729815Y-139082199D01*
X133677011Y-139127954D01*
X133607853Y-139137898D01*
X133544297Y-139108873D01*
X133534270Y-139099143D01*
X133495960Y-139057527D01*
X133411784Y-138966087D01*
X133411779Y-138966083D01*
X133411777Y-138966081D01*
X133228634Y-138823535D01*
X133228628Y-138823531D01*
X133024504Y-138713064D01*
X133024495Y-138713061D01*
X132804984Y-138637702D01*
X132633282Y-138609050D01*
X132576049Y-138599500D01*
X132343951Y-138599500D01*
X132298164Y-138607140D01*
X132115015Y-138637702D01*
X131895504Y-138713061D01*
X131895495Y-138713064D01*
X131691371Y-138823531D01*
X131691365Y-138823535D01*
X131508222Y-138966081D01*
X131508219Y-138966084D01*
X131508216Y-138966086D01*
X131508216Y-138966087D01*
X131476999Y-138999998D01*
X131351016Y-139136852D01*
X131224075Y-139331151D01*
X131130842Y-139543699D01*
X131073866Y-139768691D01*
X131073864Y-139768702D01*
X131054699Y-139999993D01*
X131058649Y-140047656D01*
X131068547Y-140167117D01*
X131068864Y-140170933D01*
X131054782Y-140239369D01*
X131005937Y-140289328D01*
X130945058Y-140305173D01*
X128514855Y-140300685D01*
X128447852Y-140280876D01*
X128402195Y-140227988D01*
X128391508Y-140166445D01*
X128391708Y-140164040D01*
X128401351Y-140047656D01*
X128405300Y-140000005D01*
X128405300Y-139999993D01*
X128386135Y-139768702D01*
X128386133Y-139768691D01*
X128329157Y-139543699D01*
X128235924Y-139331151D01*
X128108983Y-139136852D01*
X128108980Y-139136849D01*
X128108979Y-139136847D01*
X127951784Y-138966087D01*
X127951779Y-138966083D01*
X127951777Y-138966081D01*
X127768634Y-138823535D01*
X127768628Y-138823531D01*
X127564504Y-138713064D01*
X127564495Y-138713061D01*
X127344984Y-138637702D01*
X127173282Y-138609050D01*
X127116049Y-138599500D01*
X126883951Y-138599500D01*
X126838164Y-138607140D01*
X126655015Y-138637702D01*
X126435504Y-138713061D01*
X126435495Y-138713064D01*
X126231371Y-138823531D01*
X126231365Y-138823535D01*
X126048222Y-138966081D01*
X126048219Y-138966084D01*
X126048216Y-138966086D01*
X126048216Y-138966087D01*
X126016999Y-138999998D01*
X125891016Y-139136852D01*
X125833809Y-139224416D01*
X125780662Y-139269773D01*
X125711431Y-139279197D01*
X125648095Y-139249695D01*
X125626191Y-139224416D01*
X125568983Y-139136852D01*
X125568980Y-139136849D01*
X125568979Y-139136847D01*
X125411784Y-138966087D01*
X125411779Y-138966083D01*
X125411777Y-138966081D01*
X125228634Y-138823535D01*
X125228628Y-138823531D01*
X125024504Y-138713064D01*
X125024495Y-138713061D01*
X124804984Y-138637702D01*
X124633282Y-138609050D01*
X124576049Y-138599500D01*
X124343951Y-138599500D01*
X124298164Y-138607140D01*
X124115015Y-138637702D01*
X123895504Y-138713061D01*
X123895495Y-138713064D01*
X123691371Y-138823531D01*
X123691365Y-138823535D01*
X123508222Y-138966081D01*
X123508219Y-138966084D01*
X123508216Y-138966086D01*
X123508216Y-138966087D01*
X123476999Y-138999998D01*
X123351016Y-139136852D01*
X123224075Y-139331151D01*
X123130842Y-139543699D01*
X123073866Y-139768691D01*
X123073864Y-139768702D01*
X123054700Y-139999993D01*
X123054700Y-139999994D01*
X123054700Y-140000000D01*
X123061965Y-140087681D01*
X123067639Y-140156158D01*
X123053557Y-140224594D01*
X123004711Y-140274553D01*
X122943833Y-140290397D01*
X120516079Y-140285914D01*
X120449076Y-140266105D01*
X120403419Y-140213217D01*
X120392732Y-140151674D01*
X120405300Y-140000005D01*
X120405300Y-139999993D01*
X120386135Y-139768702D01*
X120386133Y-139768691D01*
X120329157Y-139543699D01*
X120235924Y-139331151D01*
X120108983Y-139136852D01*
X120108980Y-139136849D01*
X120108979Y-139136847D01*
X119951784Y-138966087D01*
X119951779Y-138966083D01*
X119951777Y-138966081D01*
X119768634Y-138823535D01*
X119768628Y-138823531D01*
X119564504Y-138713064D01*
X119564495Y-138713061D01*
X119344984Y-138637702D01*
X119173282Y-138609050D01*
X119116049Y-138599500D01*
X118883951Y-138599500D01*
X118838164Y-138607140D01*
X118655015Y-138637702D01*
X118435504Y-138713061D01*
X118435495Y-138713064D01*
X118231371Y-138823531D01*
X118231365Y-138823535D01*
X118048222Y-138966081D01*
X118048219Y-138966084D01*
X118048216Y-138966086D01*
X118048216Y-138966087D01*
X118016999Y-138999998D01*
X117891016Y-139136852D01*
X117833809Y-139224416D01*
X117780662Y-139269773D01*
X117711431Y-139279197D01*
X117648095Y-139249695D01*
X117626191Y-139224416D01*
X117568983Y-139136852D01*
X117568980Y-139136849D01*
X117568979Y-139136847D01*
X117411784Y-138966087D01*
X117411779Y-138966083D01*
X117411777Y-138966081D01*
X117228634Y-138823535D01*
X117228628Y-138823531D01*
X117024504Y-138713064D01*
X117024495Y-138713061D01*
X116925298Y-138679006D01*
X116877880Y-138649406D01*
X114632016Y-136403542D01*
X114622749Y-136393173D01*
X114600706Y-136365532D01*
X114550803Y-136321932D01*
X114544707Y-136316233D01*
X114537732Y-136309258D01*
X114537721Y-136309248D01*
X114506455Y-136283145D01*
X114504339Y-136281338D01*
X114431203Y-136217440D01*
X114431197Y-136217436D01*
X114431196Y-136217435D01*
X114427441Y-136215191D01*
X114411573Y-136203932D01*
X114408219Y-136201132D01*
X114408218Y-136201131D01*
X114408213Y-136201127D01*
X114323748Y-136153201D01*
X114321344Y-136151801D01*
X114237963Y-136101984D01*
X114233869Y-136100448D01*
X114216244Y-136092202D01*
X114212445Y-136090046D01*
X114120769Y-136057967D01*
X114118153Y-136057019D01*
X114027229Y-136022894D01*
X114027219Y-136022891D01*
X114022923Y-136022112D01*
X114004118Y-136017149D01*
X113999984Y-136015702D01*
X113999977Y-136015701D01*
X113904048Y-136000507D01*
X113901305Y-136000041D01*
X113805750Y-135982700D01*
X113805747Y-135982700D01*
X113801372Y-135982700D01*
X113781969Y-135981172D01*
X113777660Y-135980489D01*
X113680559Y-135982669D01*
X113677777Y-135982700D01*
X103683986Y-135982700D01*
X103670103Y-135981920D01*
X103660493Y-135980837D01*
X103634976Y-135977962D01*
X103634969Y-135977961D01*
X103572107Y-135982200D01*
X103568862Y-135982419D01*
X103560522Y-135982700D01*
X103550637Y-135982700D01*
X103510084Y-135986349D01*
X103507316Y-135986567D01*
X103410388Y-135993102D01*
X103410381Y-135993103D01*
X103406127Y-135994175D01*
X103386974Y-135997430D01*
X103382611Y-135997823D01*
X103382602Y-135997824D01*
X103289013Y-136023654D01*
X103286324Y-136024364D01*
X103192118Y-136048103D01*
X103188122Y-136049918D01*
X103169859Y-136056539D01*
X103165638Y-136057704D01*
X103165621Y-136057710D01*
X103078089Y-136099862D01*
X103075572Y-136101040D01*
X102987174Y-136141192D01*
X102983572Y-136143688D01*
X102966780Y-136153467D01*
X102962829Y-136155370D01*
X102962820Y-136155375D01*
X102884211Y-136212487D01*
X102881985Y-136214066D01*
X102841114Y-136242382D01*
X102802145Y-136269380D01*
X102799039Y-136272486D01*
X102784265Y-136285103D01*
X102780728Y-136287673D01*
X102780721Y-136287678D01*
X102713604Y-136357877D01*
X102711659Y-136359865D01*
X101230509Y-137841015D01*
X101195242Y-137865712D01*
X101187264Y-137869432D01*
X101000858Y-137999954D01*
X100839954Y-138160858D01*
X100709432Y-138347265D01*
X100709431Y-138347267D01*
X100613261Y-138553502D01*
X100613258Y-138553511D01*
X100554366Y-138773302D01*
X100554364Y-138773313D01*
X100534532Y-138999998D01*
X100534532Y-139000001D01*
X100554364Y-139226686D01*
X100554366Y-139226697D01*
X100613258Y-139446488D01*
X100613261Y-139446497D01*
X100709431Y-139652732D01*
X100709432Y-139652734D01*
X100839954Y-139839141D01*
X101000857Y-140000044D01*
X101035400Y-140024231D01*
X101079026Y-140078808D01*
X101086220Y-140148306D01*
X101054698Y-140210661D01*
X100994468Y-140246076D01*
X100964049Y-140249807D01*
X96685956Y-140241906D01*
X96618953Y-140222097D01*
X96573296Y-140169209D01*
X96563480Y-140100032D01*
X96592622Y-140036530D01*
X96651470Y-139998865D01*
X96652618Y-139998536D01*
X96705058Y-139983844D01*
X96869726Y-139912319D01*
X96968617Y-139869365D01*
X96968620Y-139869363D01*
X96968625Y-139869361D01*
X97214147Y-139720055D01*
X97437053Y-139538708D01*
X97633189Y-139328698D01*
X97798901Y-139093936D01*
X97931104Y-138838797D01*
X98027334Y-138568032D01*
X98085798Y-138286686D01*
X98105408Y-138000000D01*
X98085798Y-137713314D01*
X98027334Y-137431968D01*
X97931105Y-137161206D01*
X97931106Y-137161206D01*
X97798901Y-136906064D01*
X97633187Y-136671299D01*
X97538779Y-136570214D01*
X97437053Y-136461292D01*
X97220487Y-136285103D01*
X97214146Y-136279944D01*
X96968617Y-136130634D01*
X96705063Y-136016158D01*
X96705061Y-136016157D01*
X96705058Y-136016156D01*
X96545003Y-135971311D01*
X96428364Y-135938630D01*
X96428359Y-135938629D01*
X96428358Y-135938629D01*
X96286018Y-135919064D01*
X96143679Y-135899500D01*
X96143678Y-135899500D01*
X95856322Y-135899500D01*
X95856321Y-135899500D01*
X95571642Y-135938629D01*
X95571635Y-135938630D01*
X95377220Y-135993103D01*
X95294942Y-136016156D01*
X95294939Y-136016156D01*
X95294936Y-136016158D01*
X95294935Y-136016158D01*
X95031382Y-136130634D01*
X94785853Y-136279944D01*
X94562950Y-136461289D01*
X94366812Y-136671299D01*
X94201098Y-136906064D01*
X94068893Y-137161206D01*
X93990459Y-137381900D01*
X93949461Y-137438477D01*
X93884383Y-137463907D01*
X93815888Y-137450116D01*
X93765722Y-137401484D01*
X93749620Y-137340972D01*
X93736889Y-134682955D01*
X93756252Y-134615827D01*
X93808836Y-134569820D01*
X93877946Y-134559545D01*
X93881298Y-134560057D01*
X93883951Y-134560500D01*
X94116048Y-134560500D01*
X94116049Y-134560500D01*
X94344981Y-134522298D01*
X94564503Y-134446936D01*
X94768626Y-134336470D01*
X94776297Y-134330500D01*
X94943944Y-134200015D01*
X94951784Y-134193913D01*
X95108979Y-134023153D01*
X95235924Y-133828849D01*
X95259603Y-133774864D01*
X95285474Y-133736998D01*
X112061655Y-116960819D01*
X112122978Y-116927334D01*
X112149336Y-116924500D01*
X130104664Y-116924500D01*
X130171703Y-116944185D01*
G37*
%TD.AperFunction*%
%TD*%
M02*
