%TF.GenerationSoftware,KiCad,Pcbnew,7.0.11+dfsg-1build4*%
%TF.CreationDate,2024-10-08T05:42:05+02:00*%
%TF.ProjectId,BertheVarioTac-Shema,42657274-6865-4566-9172-696f5461632d,rev?*%
%TF.SameCoordinates,Original*%
%TF.FileFunction,Copper,L2,Bot*%
%TF.FilePolarity,Positive*%
%FSLAX46Y46*%
G04 Gerber Fmt 4.6, Leading zero omitted, Abs format (unit mm)*
G04 Created by KiCad (PCBNEW 7.0.11+dfsg-1build4) date 2024-10-08 05:42:05*
%MOMM*%
%LPD*%
G01*
G04 APERTURE LIST*
%TA.AperFunction,ComponentPad*%
%ADD10C,1.800000*%
%TD*%
%TA.AperFunction,ComponentPad*%
%ADD11C,1.600000*%
%TD*%
%TA.AperFunction,ComponentPad*%
%ADD12O,1.600000X1.600000*%
%TD*%
%TA.AperFunction,Conductor*%
%ADD13C,1.500000*%
%TD*%
G04 APERTURE END LIST*
D10*
%TO.P,SW1,1*%
%TO.N,Net-(Lipo-1S-to-5V1-IN_3.7v)*%
X167000000Y-132540000D03*
%TO.P,SW1,2*%
%TO.N,Net-(BT1-+)*%
X167000000Y-130000000D03*
%TD*%
%TO.P,Usb-C-charger1,1,B-*%
%TO.N,GNDREF*%
X168000000Y-104000000D03*
%TO.P,Usb-C-charger1,2,+*%
%TO.N,Net-(BT1-+)*%
X168000000Y-113000000D03*
%TD*%
D11*
%TO.P,R1,1*%
%TO.N,Net-(R1-Pad1)*%
X101840000Y-139000000D03*
D12*
%TO.P,R1,2*%
%TO.N,Net-(P4-Pin_1)*%
X112000000Y-139000000D03*
%TD*%
D10*
%TO.P,CN1,1,Pin_1*%
%TO.N,Net-(BMP180_Press1-VIN)*%
X153000000Y-140000000D03*
%TO.P,CN1,2,Pin_2*%
%TO.N,Net-(BMP180_Press1-SDA)*%
X150460000Y-140000000D03*
%TO.P,CN1,3,Pin_3*%
%TO.N,Net-(BMP180_Press1-SCL)*%
X147920000Y-140000000D03*
%TO.P,CN1,4,Pin_4*%
%TO.N,GNDREF*%
X145380000Y-140000000D03*
%TD*%
%TO.P,S1,1,1*%
%TO.N,Net-(P4-Pin_2)*%
X119000000Y-140000000D03*
%TO.P,S1,2,2*%
%TO.N,Net-(R1-Pad1)*%
X116460000Y-140000000D03*
%TD*%
%TO.P,P4,1,Pin_1*%
%TO.N,Net-(P4-Pin_1)*%
X127000000Y-140000000D03*
%TO.P,P4,2,Pin_2*%
%TO.N,Net-(P4-Pin_2)*%
X124460000Y-140000000D03*
%TD*%
%TO.P,GPS-NEO6M1,1,GND*%
%TO.N,GNDREF*%
X129964000Y-125810000D03*
%TO.P,GPS-NEO6M1,2,TX*%
%TO.N,Net-(GPS-NEO6M1-TX)*%
X129964000Y-123270000D03*
%TO.P,GPS-NEO6M1,3,RX*%
%TO.N,unconnected-(GPS-NEO6M1-RX-Pad3)*%
X129964000Y-120730000D03*
%TO.P,GPS-NEO6M1,4,VCC*%
%TO.N,Net-(BMP180_Press1-VIN)*%
X129964000Y-118190000D03*
%TD*%
%TO.P,Lipo-1S-to-5V1,1,OUT_5V*%
%TO.N,Net-(Lipo-1S-to-5V1-OUT_5V)*%
X135460000Y-106500000D03*
%TO.P,Lipo-1S-to-5V1,2,IN_3.7v*%
%TO.N,Net-(Lipo-1S-to-5V1-IN_3.7v)*%
X138000000Y-106500000D03*
%TO.P,Lipo-1S-to-5V1,3,GND*%
%TO.N,GNDREF*%
X140540000Y-106500000D03*
%TD*%
%TO.P,BT1,1,+*%
%TO.N,Net-(BT1-+)*%
X172000000Y-130000000D03*
%TO.P,BT1,2,-*%
%TO.N,GNDREF*%
X172000000Y-132540000D03*
%TD*%
%TO.P,QMC5883_Mag1,1,VCC*%
%TO.N,Net-(BMP180_Press1-VIN)*%
X94000000Y-132160000D03*
%TO.P,QMC5883_Mag1,2,GND*%
%TO.N,GNDREF*%
X94000000Y-129620000D03*
%TO.P,QMC5883_Mag1,3,SCL*%
%TO.N,Net-(BMP180_Press1-SCL)*%
X94000000Y-127080000D03*
%TO.P,QMC5883_Mag1,4,SDA*%
%TO.N,Net-(BMP180_Press1-SDA)*%
X94000000Y-124540000D03*
%TO.P,QMC5883_Mag1,5*%
%TO.N,N/C*%
X94000000Y-122000000D03*
%TD*%
%TO.P,P1,1,Pin_1*%
%TO.N,Net-(Lipo-1S-to-5V1-OUT_5V)*%
X166540000Y-140000000D03*
%TO.P,P1,2,Pin_2*%
%TO.N,Net-(GPS-NEO6M1-TX)*%
X164000000Y-140000000D03*
%TO.P,P1,3,Pin_3*%
%TO.N,unconnected-(P1-Pin_3-Pad3)*%
X161460000Y-140000000D03*
%TO.P,P1,4,Pin_4*%
%TO.N,GNDREF*%
X158920000Y-140000000D03*
%TD*%
%TO.P,P5,1,1*%
%TO.N,Net-(Lipo-1S-to-5V1-IN_3.7v)*%
X112000000Y-99000000D03*
%TO.P,P5,2,2*%
%TO.N,Net-(P3-Pin_3)*%
X114500000Y-103000000D03*
%TO.P,P5,3,3*%
%TO.N,GNDREF*%
X117000000Y-99000000D03*
%TD*%
%TO.P,BMP180_Press1,1,SDA*%
%TO.N,Net-(BMP180_Press1-SDA)*%
X146000000Y-122000000D03*
%TO.P,BMP180_Press1,2,SCL*%
%TO.N,Net-(BMP180_Press1-SCL)*%
X146000000Y-124540000D03*
%TO.P,BMP180_Press1,3,GND*%
%TO.N,GNDREF*%
X146000000Y-127080000D03*
%TO.P,BMP180_Press1,4,VIN*%
%TO.N,Net-(BMP180_Press1-VIN)*%
X146000000Y-129620000D03*
%TD*%
%TO.P,P3,1,Pin_1*%
%TO.N,unconnected-(P3-Pin_1-Pad1)*%
X140080000Y-140000000D03*
%TO.P,P3,2,Pin_2*%
%TO.N,unconnected-(P3-Pin_2-Pad2)*%
X137540000Y-140000000D03*
%TO.P,P3,3,Pin_3*%
%TO.N,Net-(P3-Pin_3)*%
X135000000Y-140000000D03*
%TO.P,P3,4,Pin_4*%
%TO.N,unconnected-(P3-Pin_4-Pad4)*%
X132460000Y-140000000D03*
%TD*%
D13*
%TO.N,Net-(Lipo-1S-to-5V1-IN_3.7v)*%
X163948100Y-132540000D02*
X167000000Y-132540000D01*
X138000000Y-106591900D02*
X163948100Y-132540000D01*
X138000000Y-106500000D02*
X138000000Y-106591900D01*
%TO.N,Net-(BMP180_Press1-VIN)*%
X153000000Y-136620000D02*
X153000000Y-140000000D01*
X146000000Y-129620000D02*
X153000000Y-136620000D01*
X108060500Y-118190000D02*
X129964000Y-118190000D01*
X94090500Y-132160000D02*
X108060500Y-118190000D01*
X94000000Y-132160000D02*
X94090500Y-132160000D01*
%TO.N,Net-(P3-Pin_3)*%
X135000000Y-120600900D02*
X135000000Y-140000000D01*
X117399100Y-103000000D02*
X135000000Y-120600900D01*
X114500000Y-103000000D02*
X117399100Y-103000000D01*
%TO.N,Net-(Lipo-1S-to-5V1-OUT_5V)*%
X166540000Y-137737700D02*
X166540000Y-140000000D01*
X135460000Y-106657700D02*
X166540000Y-137737700D01*
X135460000Y-106500000D02*
X135460000Y-106657700D01*
%TO.N,Net-(BT1-+)*%
X167000000Y-114000000D02*
X167000000Y-130000000D01*
X168000000Y-113000000D02*
X167000000Y-114000000D01*
%TO.N,Net-(R1-Pad1)*%
X113693200Y-137233200D02*
X116460000Y-140000000D01*
X103606800Y-137233200D02*
X113693200Y-137233200D01*
X101840000Y-139000000D02*
X103606800Y-137233200D01*
%TD*%
%TA.AperFunction,Conductor*%
%TO.N,GNDREF*%
G36*
X176298004Y-93577910D02*
G01*
X176365031Y-93597625D01*
X176410762Y-93650450D01*
X176421944Y-93701997D01*
X176389183Y-140264953D01*
X176369451Y-140331979D01*
X176316615Y-140377697D01*
X176264954Y-140388866D01*
X168048551Y-140373692D01*
X167981548Y-140353883D01*
X167935891Y-140300995D01*
X167926739Y-140236501D01*
X167925711Y-140236416D01*
X167926085Y-140231893D01*
X167926075Y-140231818D01*
X167926111Y-140231586D01*
X167945300Y-140000006D01*
X167945300Y-139999993D01*
X167926135Y-139768702D01*
X167926133Y-139768691D01*
X167869157Y-139543699D01*
X167800944Y-139388189D01*
X167790500Y-139338379D01*
X167790500Y-138000000D01*
X171894592Y-138000000D01*
X171914201Y-138286680D01*
X171914201Y-138286684D01*
X171914202Y-138286686D01*
X171926790Y-138347265D01*
X171972666Y-138568034D01*
X171972667Y-138568037D01*
X172068894Y-138838793D01*
X172068893Y-138838793D01*
X172201098Y-139093935D01*
X172366812Y-139328700D01*
X172422372Y-139388189D01*
X172562947Y-139538708D01*
X172785853Y-139720055D01*
X172981677Y-139839139D01*
X173031382Y-139869365D01*
X173218237Y-139950526D01*
X173294942Y-139983844D01*
X173571642Y-140061371D01*
X173821920Y-140095771D01*
X173856321Y-140100500D01*
X173856322Y-140100500D01*
X174143679Y-140100500D01*
X174175079Y-140096184D01*
X174428358Y-140061371D01*
X174705058Y-139983844D01*
X174818015Y-139934779D01*
X174968617Y-139869365D01*
X174968620Y-139869363D01*
X174968625Y-139869361D01*
X175214147Y-139720055D01*
X175437053Y-139538708D01*
X175633189Y-139328698D01*
X175798901Y-139093936D01*
X175931104Y-138838797D01*
X176027334Y-138568032D01*
X176085798Y-138286686D01*
X176105408Y-138000000D01*
X176085798Y-137713314D01*
X176027334Y-137431968D01*
X176022085Y-137417200D01*
X175931105Y-137161206D01*
X175931106Y-137161206D01*
X175798901Y-136906064D01*
X175633187Y-136671299D01*
X175549849Y-136582067D01*
X175437053Y-136461292D01*
X175220487Y-136285103D01*
X175214146Y-136279944D01*
X174968617Y-136130634D01*
X174705063Y-136016158D01*
X174705061Y-136016157D01*
X174705058Y-136016156D01*
X174561842Y-135976029D01*
X174428364Y-135938630D01*
X174428359Y-135938629D01*
X174428358Y-135938629D01*
X174286018Y-135919064D01*
X174143679Y-135899500D01*
X174143678Y-135899500D01*
X173856322Y-135899500D01*
X173856321Y-135899500D01*
X173571642Y-135938629D01*
X173571635Y-135938630D01*
X173377220Y-135993103D01*
X173294942Y-136016156D01*
X173294939Y-136016156D01*
X173294936Y-136016158D01*
X173294935Y-136016158D01*
X173031382Y-136130634D01*
X172785853Y-136279944D01*
X172562950Y-136461289D01*
X172366812Y-136671299D01*
X172201098Y-136906064D01*
X172068894Y-137161206D01*
X171972667Y-137431962D01*
X171972666Y-137431965D01*
X171914201Y-137713319D01*
X171894592Y-138000000D01*
X167790500Y-138000000D01*
X167790500Y-137814885D01*
X167791280Y-137801000D01*
X167791622Y-137797967D01*
X167795238Y-137765873D01*
X167790781Y-137699761D01*
X167790500Y-137691420D01*
X167790500Y-137681552D01*
X167790500Y-137681545D01*
X167786844Y-137640924D01*
X167786630Y-137638198D01*
X167780098Y-137541297D01*
X167780096Y-137541284D01*
X167779028Y-137537045D01*
X167775768Y-137517855D01*
X167775377Y-137513515D01*
X167775377Y-137513512D01*
X167749507Y-137419779D01*
X167748856Y-137417310D01*
X167725096Y-137323017D01*
X167723289Y-137319039D01*
X167716653Y-137300734D01*
X167715493Y-137296531D01*
X167697550Y-137259272D01*
X167673298Y-137208911D01*
X167672200Y-137206564D01*
X167632007Y-137118075D01*
X167629518Y-137114482D01*
X167619728Y-137097670D01*
X167617829Y-137093727D01*
X167617827Y-137093724D01*
X167617825Y-137093720D01*
X167617824Y-137093719D01*
X167560740Y-137015151D01*
X167559128Y-137012880D01*
X167503820Y-136933046D01*
X167500729Y-136929955D01*
X167488093Y-136915161D01*
X167485521Y-136911621D01*
X167485518Y-136911618D01*
X167415299Y-136844481D01*
X167413310Y-136842536D01*
X164572955Y-134002181D01*
X164539470Y-133940858D01*
X164544454Y-133871166D01*
X164586326Y-133815233D01*
X164651790Y-133790816D01*
X164660636Y-133790500D01*
X166336768Y-133790500D01*
X166395786Y-133805446D01*
X166431830Y-133824951D01*
X166435497Y-133826936D01*
X166545258Y-133864617D01*
X166655015Y-133902297D01*
X166655017Y-133902297D01*
X166655019Y-133902298D01*
X166883951Y-133940500D01*
X166883952Y-133940500D01*
X167116048Y-133940500D01*
X167116049Y-133940500D01*
X167344981Y-133902298D01*
X167564503Y-133826936D01*
X167768626Y-133716470D01*
X167769170Y-133716047D01*
X167830129Y-133668600D01*
X167951784Y-133573913D01*
X168108979Y-133403153D01*
X168235924Y-133208849D01*
X168329157Y-132996300D01*
X168386134Y-132771305D01*
X168386135Y-132771297D01*
X168405300Y-132540006D01*
X168405300Y-132539993D01*
X168386135Y-132308702D01*
X168386133Y-132308691D01*
X168329157Y-132083699D01*
X168235924Y-131871151D01*
X168108983Y-131676852D01*
X168108980Y-131676849D01*
X168108979Y-131676847D01*
X167951784Y-131506087D01*
X167774180Y-131367853D01*
X167733368Y-131311143D01*
X167729693Y-131241370D01*
X167764324Y-131180687D01*
X167774181Y-131172146D01*
X167951784Y-131033913D01*
X168108979Y-130863153D01*
X168235924Y-130668849D01*
X168329157Y-130456300D01*
X168386134Y-130231305D01*
X168403643Y-130020000D01*
X168405300Y-130000006D01*
X170594700Y-130000006D01*
X170613864Y-130231297D01*
X170613866Y-130231308D01*
X170670842Y-130456300D01*
X170764075Y-130668848D01*
X170891016Y-130863147D01*
X170891019Y-130863151D01*
X170891021Y-130863153D01*
X171048216Y-131033913D01*
X171164418Y-131124356D01*
X171226225Y-131172462D01*
X171267038Y-131229173D01*
X171270713Y-131298946D01*
X171236082Y-131359629D01*
X171226225Y-131368170D01*
X171201201Y-131387646D01*
X171201200Y-131387647D01*
X171955600Y-132142046D01*
X171874852Y-132154835D01*
X171761955Y-132212359D01*
X171672359Y-132301955D01*
X171614835Y-132414852D01*
X171602046Y-132495600D01*
X170848811Y-131742365D01*
X170764516Y-131871390D01*
X170671317Y-132083864D01*
X170614361Y-132308781D01*
X170595202Y-132539994D01*
X170595202Y-132540005D01*
X170614361Y-132771218D01*
X170671317Y-132996135D01*
X170764515Y-133208606D01*
X170848812Y-133337633D01*
X171602046Y-132584399D01*
X171614835Y-132665148D01*
X171672359Y-132778045D01*
X171761955Y-132867641D01*
X171874852Y-132925165D01*
X171955599Y-132937953D01*
X171201201Y-133692351D01*
X171231649Y-133716050D01*
X171435697Y-133826476D01*
X171435706Y-133826479D01*
X171655139Y-133901811D01*
X171883993Y-133940000D01*
X172116007Y-133940000D01*
X172344860Y-133901811D01*
X172564293Y-133826479D01*
X172564301Y-133826476D01*
X172768355Y-133716047D01*
X172798797Y-133692351D01*
X172798798Y-133692350D01*
X172044401Y-132937953D01*
X172125148Y-132925165D01*
X172238045Y-132867641D01*
X172327641Y-132778045D01*
X172385165Y-132665148D01*
X172397953Y-132584400D01*
X173151186Y-133337633D01*
X173235482Y-133208611D01*
X173328682Y-132996135D01*
X173385638Y-132771218D01*
X173404798Y-132540005D01*
X173404798Y-132539994D01*
X173385638Y-132308781D01*
X173328682Y-132083864D01*
X173235484Y-131871393D01*
X173151186Y-131742365D01*
X172397953Y-132495598D01*
X172385165Y-132414852D01*
X172327641Y-132301955D01*
X172238045Y-132212359D01*
X172125148Y-132154835D01*
X172044400Y-132142046D01*
X172798797Y-131387647D01*
X172798797Y-131387646D01*
X172773773Y-131368169D01*
X172732961Y-131311459D01*
X172729286Y-131241686D01*
X172763918Y-131181003D01*
X172773760Y-131172473D01*
X172951784Y-131033913D01*
X173108979Y-130863153D01*
X173235924Y-130668849D01*
X173329157Y-130456300D01*
X173386134Y-130231305D01*
X173403643Y-130020000D01*
X173405300Y-130000006D01*
X173405300Y-129999993D01*
X173386135Y-129768702D01*
X173386133Y-129768691D01*
X173329157Y-129543699D01*
X173235924Y-129331151D01*
X173108983Y-129136852D01*
X173108980Y-129136849D01*
X173108979Y-129136847D01*
X172951784Y-128966087D01*
X172951779Y-128966083D01*
X172951777Y-128966081D01*
X172768634Y-128823535D01*
X172768628Y-128823531D01*
X172564504Y-128713064D01*
X172564495Y-128713061D01*
X172344984Y-128637702D01*
X172173282Y-128609050D01*
X172116049Y-128599500D01*
X171883951Y-128599500D01*
X171838164Y-128607140D01*
X171655015Y-128637702D01*
X171435504Y-128713061D01*
X171435495Y-128713064D01*
X171231371Y-128823531D01*
X171231365Y-128823535D01*
X171048222Y-128966081D01*
X171048219Y-128966084D01*
X170891016Y-129136852D01*
X170764075Y-129331151D01*
X170670842Y-129543699D01*
X170613866Y-129768691D01*
X170613864Y-129768702D01*
X170594700Y-129999993D01*
X170594700Y-130000006D01*
X168405300Y-130000006D01*
X168405300Y-129999993D01*
X168386135Y-129768702D01*
X168386133Y-129768691D01*
X168329157Y-129543699D01*
X168260944Y-129388189D01*
X168250500Y-129338379D01*
X168250500Y-114569335D01*
X168270185Y-114502296D01*
X168286815Y-114481658D01*
X168417881Y-114350591D01*
X168465296Y-114320993D01*
X168564503Y-114286936D01*
X168768626Y-114176470D01*
X168951784Y-114033913D01*
X169108979Y-113863153D01*
X169235924Y-113668849D01*
X169329157Y-113456300D01*
X169386134Y-113231305D01*
X169389650Y-113188875D01*
X169405300Y-113000006D01*
X169405300Y-112999993D01*
X169386135Y-112768702D01*
X169386133Y-112768691D01*
X169329157Y-112543699D01*
X169235924Y-112331151D01*
X169108983Y-112136852D01*
X169108980Y-112136849D01*
X169108979Y-112136847D01*
X168951784Y-111966087D01*
X168951779Y-111966083D01*
X168951777Y-111966081D01*
X168768634Y-111823535D01*
X168768628Y-111823531D01*
X168564504Y-111713064D01*
X168564495Y-111713061D01*
X168344984Y-111637702D01*
X168173282Y-111609050D01*
X168116049Y-111599500D01*
X167883951Y-111599500D01*
X167838164Y-111607140D01*
X167655015Y-111637702D01*
X167435504Y-111713061D01*
X167435495Y-111713064D01*
X167231371Y-111823531D01*
X167231365Y-111823535D01*
X167048222Y-111966081D01*
X167048219Y-111966084D01*
X166891016Y-112136852D01*
X166764076Y-112331149D01*
X166668783Y-112548396D01*
X166667822Y-112547974D01*
X166641678Y-112589846D01*
X166170344Y-113061180D01*
X166159980Y-113070443D01*
X166132337Y-113092489D01*
X166132334Y-113092492D01*
X166088736Y-113142392D01*
X166083048Y-113148476D01*
X166076064Y-113155460D01*
X166076051Y-113155475D01*
X166049928Y-113186764D01*
X166048125Y-113188875D01*
X165984234Y-113262004D01*
X165984230Y-113262010D01*
X165981981Y-113265774D01*
X165970746Y-113281608D01*
X165967932Y-113284979D01*
X165919978Y-113369490D01*
X165918604Y-113371849D01*
X165887964Y-113423133D01*
X165868781Y-113455242D01*
X165867247Y-113459332D01*
X165859008Y-113476945D01*
X165856850Y-113480747D01*
X165856847Y-113480754D01*
X165824762Y-113572445D01*
X165823815Y-113575057D01*
X165789692Y-113665979D01*
X165789689Y-113665988D01*
X165788909Y-113670288D01*
X165783952Y-113689069D01*
X165782503Y-113693209D01*
X165782502Y-113693215D01*
X165767304Y-113789165D01*
X165766838Y-113791906D01*
X165749500Y-113887447D01*
X165749500Y-113891827D01*
X165747973Y-113911229D01*
X165747289Y-113915540D01*
X165749469Y-114012639D01*
X165749500Y-114015421D01*
X165749500Y-129338379D01*
X165739056Y-129388189D01*
X165670842Y-129543699D01*
X165613866Y-129768691D01*
X165613864Y-129768702D01*
X165594700Y-129999993D01*
X165594700Y-130000006D01*
X165613864Y-130231297D01*
X165613866Y-130231308D01*
X165670842Y-130456300D01*
X165764075Y-130668848D01*
X165891016Y-130863147D01*
X165891019Y-130863151D01*
X165891021Y-130863153D01*
X166048216Y-131033913D01*
X166091557Y-131067647D01*
X166132370Y-131124356D01*
X166136045Y-131194129D01*
X166101414Y-131254813D01*
X166039472Y-131287140D01*
X166015395Y-131289500D01*
X164517436Y-131289500D01*
X164450397Y-131269815D01*
X164429755Y-131253181D01*
X141130238Y-107953664D01*
X141096753Y-107892341D01*
X141101737Y-107822649D01*
X141143609Y-107766716D01*
X141158902Y-107756928D01*
X141308353Y-107676048D01*
X141338797Y-107652351D01*
X141338798Y-107652351D01*
X140584400Y-106897953D01*
X140665148Y-106885165D01*
X140778045Y-106827641D01*
X140867641Y-106738045D01*
X140925165Y-106625148D01*
X140937953Y-106544400D01*
X141691186Y-107297633D01*
X141775482Y-107168611D01*
X141868682Y-106956135D01*
X141925638Y-106731218D01*
X141944798Y-106500005D01*
X141944798Y-106499994D01*
X141925638Y-106268781D01*
X141868682Y-106043864D01*
X141775484Y-105831393D01*
X141691186Y-105702365D01*
X140937953Y-106455598D01*
X140925165Y-106374852D01*
X140867641Y-106261955D01*
X140778045Y-106172359D01*
X140665148Y-106114835D01*
X140584400Y-106102046D01*
X141338797Y-105347647D01*
X141338797Y-105347645D01*
X141308360Y-105323955D01*
X141308354Y-105323951D01*
X141104302Y-105213523D01*
X141104293Y-105213520D01*
X140884860Y-105138188D01*
X140656007Y-105100000D01*
X140423993Y-105100000D01*
X140195139Y-105138188D01*
X139975706Y-105213520D01*
X139975697Y-105213523D01*
X139771650Y-105323949D01*
X139741200Y-105347647D01*
X140495600Y-106102046D01*
X140414852Y-106114835D01*
X140301955Y-106172359D01*
X140212359Y-106261955D01*
X140154835Y-106374852D01*
X140142046Y-106455599D01*
X139388811Y-105702365D01*
X139374106Y-105724873D01*
X139320959Y-105770230D01*
X139251728Y-105779653D01*
X139188392Y-105750150D01*
X139166489Y-105724873D01*
X139166190Y-105724416D01*
X139108979Y-105636847D01*
X138951784Y-105466087D01*
X138951779Y-105466083D01*
X138951777Y-105466081D01*
X138768634Y-105323535D01*
X138768628Y-105323531D01*
X138564504Y-105213064D01*
X138564495Y-105213061D01*
X138344984Y-105137702D01*
X138173282Y-105109050D01*
X138116049Y-105099500D01*
X137883951Y-105099500D01*
X137838164Y-105107140D01*
X137655015Y-105137702D01*
X137435504Y-105213061D01*
X137435495Y-105213064D01*
X137231371Y-105323531D01*
X137231365Y-105323535D01*
X137048222Y-105466081D01*
X137048219Y-105466084D01*
X136891016Y-105636852D01*
X136833809Y-105724416D01*
X136780662Y-105769773D01*
X136711431Y-105779197D01*
X136648095Y-105749695D01*
X136626191Y-105724416D01*
X136568983Y-105636852D01*
X136568980Y-105636849D01*
X136568979Y-105636847D01*
X136411784Y-105466087D01*
X136411779Y-105466083D01*
X136411777Y-105466081D01*
X136228634Y-105323535D01*
X136228628Y-105323531D01*
X136024504Y-105213064D01*
X136024495Y-105213061D01*
X135804984Y-105137702D01*
X135633282Y-105109050D01*
X135576049Y-105099500D01*
X135343951Y-105099500D01*
X135298164Y-105107140D01*
X135115015Y-105137702D01*
X134895504Y-105213061D01*
X134895495Y-105213064D01*
X134691371Y-105323531D01*
X134691365Y-105323535D01*
X134508222Y-105466081D01*
X134508219Y-105466084D01*
X134351016Y-105636852D01*
X134224075Y-105831151D01*
X134130842Y-106043699D01*
X134073866Y-106268691D01*
X134073864Y-106268702D01*
X134054700Y-106499993D01*
X134054700Y-106500006D01*
X134073864Y-106731297D01*
X134073866Y-106731308D01*
X134130842Y-106956300D01*
X134224075Y-107168848D01*
X134351016Y-107363147D01*
X134351019Y-107363151D01*
X134351021Y-107363153D01*
X134508216Y-107533913D01*
X134508219Y-107533915D01*
X134508222Y-107533918D01*
X134691365Y-107676464D01*
X134691376Y-107676471D01*
X134716726Y-107690190D01*
X134745390Y-107711564D01*
X165253181Y-138219355D01*
X165286666Y-138280678D01*
X165289500Y-138307036D01*
X165289500Y-139015160D01*
X165269815Y-139082199D01*
X165217011Y-139127954D01*
X165147853Y-139137898D01*
X165084297Y-139108873D01*
X165074270Y-139099143D01*
X165035960Y-139057527D01*
X164951784Y-138966087D01*
X164951779Y-138966083D01*
X164951777Y-138966081D01*
X164768634Y-138823535D01*
X164768628Y-138823531D01*
X164564504Y-138713064D01*
X164564495Y-138713061D01*
X164344984Y-138637702D01*
X164173282Y-138609050D01*
X164116049Y-138599500D01*
X163883951Y-138599500D01*
X163838164Y-138607140D01*
X163655015Y-138637702D01*
X163435504Y-138713061D01*
X163435495Y-138713064D01*
X163231371Y-138823531D01*
X163231365Y-138823535D01*
X163048222Y-138966081D01*
X163048219Y-138966084D01*
X163048216Y-138966086D01*
X163048216Y-138966087D01*
X163016999Y-138999998D01*
X162891016Y-139136852D01*
X162833809Y-139224416D01*
X162780662Y-139269773D01*
X162711431Y-139279197D01*
X162648095Y-139249695D01*
X162626191Y-139224416D01*
X162568983Y-139136852D01*
X162568980Y-139136849D01*
X162568979Y-139136847D01*
X162411784Y-138966087D01*
X162411779Y-138966083D01*
X162411777Y-138966081D01*
X162228634Y-138823535D01*
X162228628Y-138823531D01*
X162024504Y-138713064D01*
X162024495Y-138713061D01*
X161804984Y-138637702D01*
X161633282Y-138609050D01*
X161576049Y-138599500D01*
X161343951Y-138599500D01*
X161298164Y-138607140D01*
X161115015Y-138637702D01*
X160895504Y-138713061D01*
X160895495Y-138713064D01*
X160691371Y-138823531D01*
X160691365Y-138823535D01*
X160508222Y-138966081D01*
X160508219Y-138966084D01*
X160508216Y-138966086D01*
X160508216Y-138966087D01*
X160390524Y-139093936D01*
X160351015Y-139136854D01*
X160293509Y-139224874D01*
X160240363Y-139270230D01*
X160171132Y-139279654D01*
X160107796Y-139250152D01*
X160085892Y-139224874D01*
X160071186Y-139202365D01*
X159317953Y-139955598D01*
X159305165Y-139874852D01*
X159247641Y-139761955D01*
X159158045Y-139672359D01*
X159045148Y-139614835D01*
X158964400Y-139602046D01*
X159718797Y-138847647D01*
X159718797Y-138847645D01*
X159688360Y-138823955D01*
X159688354Y-138823951D01*
X159484302Y-138713523D01*
X159484293Y-138713520D01*
X159264860Y-138638188D01*
X159036007Y-138600000D01*
X158803993Y-138600000D01*
X158575139Y-138638188D01*
X158355706Y-138713520D01*
X158355697Y-138713523D01*
X158151650Y-138823949D01*
X158121200Y-138847647D01*
X158875600Y-139602046D01*
X158794852Y-139614835D01*
X158681955Y-139672359D01*
X158592359Y-139761955D01*
X158534835Y-139874852D01*
X158522046Y-139955600D01*
X157768811Y-139202365D01*
X157684516Y-139331390D01*
X157591317Y-139543864D01*
X157534361Y-139768781D01*
X157515202Y-139999994D01*
X157515202Y-140000005D01*
X157533415Y-140219806D01*
X157519334Y-140288242D01*
X157470489Y-140338201D01*
X157409610Y-140354046D01*
X154510877Y-140348692D01*
X154443874Y-140328883D01*
X154398217Y-140275995D01*
X154387530Y-140214452D01*
X154387633Y-140213217D01*
X154401351Y-140047656D01*
X154405300Y-140000005D01*
X154405300Y-139999993D01*
X154386135Y-139768702D01*
X154386133Y-139768691D01*
X154329157Y-139543699D01*
X154260944Y-139388189D01*
X154250500Y-139338379D01*
X154250500Y-136697185D01*
X154251280Y-136683300D01*
X154252632Y-136671299D01*
X154255238Y-136648173D01*
X154250780Y-136582066D01*
X154250500Y-136573725D01*
X154250500Y-136563852D01*
X154250500Y-136563845D01*
X154246838Y-136523172D01*
X154246630Y-136520516D01*
X154242638Y-136461289D01*
X154240097Y-136423593D01*
X154239028Y-136419351D01*
X154235768Y-136400169D01*
X154235377Y-136395812D01*
X154209527Y-136302150D01*
X154208831Y-136299514D01*
X154205849Y-136287678D01*
X154185096Y-136205317D01*
X154183289Y-136201339D01*
X154176653Y-136183034D01*
X154175492Y-136178828D01*
X154133343Y-136091303D01*
X154132164Y-136088783D01*
X154102236Y-136022894D01*
X154092007Y-136000374D01*
X154089517Y-135996780D01*
X154079725Y-135979964D01*
X154077830Y-135976029D01*
X154077827Y-135976024D01*
X154020740Y-135897450D01*
X154019162Y-135895228D01*
X153963820Y-135815346D01*
X153960729Y-135812255D01*
X153948093Y-135797461D01*
X153945521Y-135793921D01*
X153945518Y-135793918D01*
X153875299Y-135726781D01*
X153873310Y-135724836D01*
X147358321Y-129209847D01*
X147332182Y-129167972D01*
X147331217Y-129168396D01*
X147235924Y-128951151D01*
X147108983Y-128756852D01*
X147108980Y-128756849D01*
X147108979Y-128756847D01*
X146951784Y-128586087D01*
X146773773Y-128447536D01*
X146732961Y-128390826D01*
X146729286Y-128321053D01*
X146763917Y-128260370D01*
X146773772Y-128251831D01*
X146798797Y-128232352D01*
X146798798Y-128232350D01*
X146044401Y-127477953D01*
X146125148Y-127465165D01*
X146238045Y-127407641D01*
X146327641Y-127318045D01*
X146385165Y-127205148D01*
X146397953Y-127124400D01*
X147151186Y-127877633D01*
X147235482Y-127748611D01*
X147328682Y-127536135D01*
X147385638Y-127311218D01*
X147404798Y-127080005D01*
X147404798Y-127079994D01*
X147385638Y-126848781D01*
X147328682Y-126623864D01*
X147235484Y-126411393D01*
X147151186Y-126282365D01*
X146397953Y-127035598D01*
X146385165Y-126954852D01*
X146327641Y-126841955D01*
X146238045Y-126752359D01*
X146125148Y-126694835D01*
X146044400Y-126682046D01*
X146798797Y-125927647D01*
X146798797Y-125927646D01*
X146773773Y-125908169D01*
X146732961Y-125851459D01*
X146729286Y-125781686D01*
X146763918Y-125721003D01*
X146773760Y-125712473D01*
X146951784Y-125573913D01*
X147108979Y-125403153D01*
X147235924Y-125208849D01*
X147329157Y-124996300D01*
X147386134Y-124771305D01*
X147397166Y-124638169D01*
X147405300Y-124540006D01*
X147405300Y-124539993D01*
X147386135Y-124308702D01*
X147386133Y-124308691D01*
X147329157Y-124083699D01*
X147235924Y-123871151D01*
X147108983Y-123676852D01*
X147108980Y-123676849D01*
X147108979Y-123676847D01*
X146951784Y-123506087D01*
X146774180Y-123367853D01*
X146733368Y-123311143D01*
X146729693Y-123241370D01*
X146764324Y-123180687D01*
X146774181Y-123172146D01*
X146951784Y-123033913D01*
X147108979Y-122863153D01*
X147235924Y-122668849D01*
X147329157Y-122456300D01*
X147386134Y-122231305D01*
X147397192Y-122097853D01*
X147405300Y-122000006D01*
X147405300Y-121999993D01*
X147386135Y-121768702D01*
X147386133Y-121768691D01*
X147329157Y-121543699D01*
X147235924Y-121331151D01*
X147108983Y-121136852D01*
X147108980Y-121136849D01*
X147108979Y-121136847D01*
X146951784Y-120966087D01*
X146951779Y-120966083D01*
X146951777Y-120966081D01*
X146768634Y-120823535D01*
X146768628Y-120823531D01*
X146564504Y-120713064D01*
X146564495Y-120713061D01*
X146344984Y-120637702D01*
X146173282Y-120609050D01*
X146116049Y-120599500D01*
X145883951Y-120599500D01*
X145838164Y-120607140D01*
X145655015Y-120637702D01*
X145435504Y-120713061D01*
X145435495Y-120713064D01*
X145231371Y-120823531D01*
X145231365Y-120823535D01*
X145048222Y-120966081D01*
X145048219Y-120966084D01*
X144891016Y-121136852D01*
X144764075Y-121331151D01*
X144670842Y-121543699D01*
X144613866Y-121768691D01*
X144613864Y-121768702D01*
X144594700Y-121999993D01*
X144594700Y-122000006D01*
X144613864Y-122231297D01*
X144613866Y-122231308D01*
X144670842Y-122456300D01*
X144764075Y-122668848D01*
X144891016Y-122863147D01*
X144891019Y-122863151D01*
X144891021Y-122863153D01*
X145048216Y-123033913D01*
X145048219Y-123033915D01*
X145048222Y-123033918D01*
X145225818Y-123172147D01*
X145266631Y-123228857D01*
X145270306Y-123298630D01*
X145235674Y-123359313D01*
X145225818Y-123367853D01*
X145048222Y-123506081D01*
X145048219Y-123506084D01*
X144891016Y-123676852D01*
X144764075Y-123871151D01*
X144670842Y-124083699D01*
X144613866Y-124308691D01*
X144613864Y-124308702D01*
X144594700Y-124539993D01*
X144594700Y-124540006D01*
X144613864Y-124771297D01*
X144613866Y-124771308D01*
X144670842Y-124996300D01*
X144764075Y-125208848D01*
X144891016Y-125403147D01*
X144891019Y-125403151D01*
X144891021Y-125403153D01*
X145048216Y-125573913D01*
X145225819Y-125712146D01*
X145226225Y-125712462D01*
X145267038Y-125769173D01*
X145270713Y-125838946D01*
X145236082Y-125899629D01*
X145226225Y-125908170D01*
X145201201Y-125927646D01*
X145201200Y-125927647D01*
X145955600Y-126682046D01*
X145874852Y-126694835D01*
X145761955Y-126752359D01*
X145672359Y-126841955D01*
X145614835Y-126954852D01*
X145602046Y-127035600D01*
X144848811Y-126282365D01*
X144764516Y-126411390D01*
X144671317Y-126623864D01*
X144614361Y-126848781D01*
X144595202Y-127079994D01*
X144595202Y-127080005D01*
X144614361Y-127311218D01*
X144671317Y-127536135D01*
X144764515Y-127748606D01*
X144848812Y-127877633D01*
X145602046Y-127124399D01*
X145614835Y-127205148D01*
X145672359Y-127318045D01*
X145761955Y-127407641D01*
X145874852Y-127465165D01*
X145955599Y-127477953D01*
X145201201Y-128232351D01*
X145226226Y-128251829D01*
X145267038Y-128308539D01*
X145270713Y-128378312D01*
X145236081Y-128438995D01*
X145226226Y-128447535D01*
X145048218Y-128586085D01*
X144891016Y-128756852D01*
X144764075Y-128951151D01*
X144670842Y-129163699D01*
X144613866Y-129388691D01*
X144613864Y-129388702D01*
X144594700Y-129619993D01*
X144594700Y-129620006D01*
X144613864Y-129851297D01*
X144613866Y-129851308D01*
X144670842Y-130076300D01*
X144764075Y-130288848D01*
X144891016Y-130483147D01*
X144891019Y-130483151D01*
X144891021Y-130483153D01*
X145048216Y-130653913D01*
X145048219Y-130653915D01*
X145048222Y-130653918D01*
X145231365Y-130796464D01*
X145231371Y-130796468D01*
X145231374Y-130796470D01*
X145435497Y-130906936D01*
X145519978Y-130935938D01*
X145534699Y-130940992D01*
X145582118Y-130970592D01*
X151713181Y-137101655D01*
X151746666Y-137162978D01*
X151749500Y-137189336D01*
X151749500Y-139015160D01*
X151729815Y-139082199D01*
X151677011Y-139127954D01*
X151607853Y-139137898D01*
X151544297Y-139108873D01*
X151534270Y-139099143D01*
X151495960Y-139057527D01*
X151411784Y-138966087D01*
X151411779Y-138966083D01*
X151411777Y-138966081D01*
X151228634Y-138823535D01*
X151228628Y-138823531D01*
X151024504Y-138713064D01*
X151024495Y-138713061D01*
X150804984Y-138637702D01*
X150633282Y-138609050D01*
X150576049Y-138599500D01*
X150343951Y-138599500D01*
X150298164Y-138607140D01*
X150115015Y-138637702D01*
X149895504Y-138713061D01*
X149895495Y-138713064D01*
X149691371Y-138823531D01*
X149691365Y-138823535D01*
X149508222Y-138966081D01*
X149508219Y-138966084D01*
X149508216Y-138966086D01*
X149508216Y-138966087D01*
X149476999Y-138999998D01*
X149351016Y-139136852D01*
X149293809Y-139224416D01*
X149240662Y-139269773D01*
X149171431Y-139279197D01*
X149108095Y-139249695D01*
X149086191Y-139224416D01*
X149028983Y-139136852D01*
X149028980Y-139136849D01*
X149028979Y-139136847D01*
X148871784Y-138966087D01*
X148871779Y-138966083D01*
X148871777Y-138966081D01*
X148688634Y-138823535D01*
X148688628Y-138823531D01*
X148484504Y-138713064D01*
X148484495Y-138713061D01*
X148264984Y-138637702D01*
X148093282Y-138609050D01*
X148036049Y-138599500D01*
X147803951Y-138599500D01*
X147758164Y-138607140D01*
X147575015Y-138637702D01*
X147355504Y-138713061D01*
X147355495Y-138713064D01*
X147151371Y-138823531D01*
X147151365Y-138823535D01*
X146968222Y-138966081D01*
X146968219Y-138966084D01*
X146968216Y-138966086D01*
X146968216Y-138966087D01*
X146850524Y-139093936D01*
X146811015Y-139136854D01*
X146753509Y-139224874D01*
X146700363Y-139270230D01*
X146631132Y-139279654D01*
X146567796Y-139250152D01*
X146545892Y-139224874D01*
X146531186Y-139202365D01*
X145777953Y-139955598D01*
X145765165Y-139874852D01*
X145707641Y-139761955D01*
X145618045Y-139672359D01*
X145505148Y-139614835D01*
X145424400Y-139602046D01*
X146178797Y-138847647D01*
X146178797Y-138847645D01*
X146148360Y-138823955D01*
X146148354Y-138823951D01*
X145944302Y-138713523D01*
X145944293Y-138713520D01*
X145724860Y-138638188D01*
X145496007Y-138600000D01*
X145263993Y-138600000D01*
X145035139Y-138638188D01*
X144815706Y-138713520D01*
X144815697Y-138713523D01*
X144611650Y-138823949D01*
X144581200Y-138847647D01*
X145335600Y-139602046D01*
X145254852Y-139614835D01*
X145141955Y-139672359D01*
X145052359Y-139761955D01*
X144994835Y-139874852D01*
X144982046Y-139955600D01*
X144228811Y-139202365D01*
X144144516Y-139331390D01*
X144051317Y-139543864D01*
X143994361Y-139768781D01*
X143975202Y-139999994D01*
X143975202Y-140000005D01*
X143991343Y-140194797D01*
X143977262Y-140263233D01*
X143928417Y-140313192D01*
X143867538Y-140329037D01*
X141592854Y-140324836D01*
X141525851Y-140305027D01*
X141480194Y-140252139D01*
X141469507Y-140190596D01*
X141485300Y-140000005D01*
X141485300Y-139999993D01*
X141466135Y-139768702D01*
X141466133Y-139768691D01*
X141409157Y-139543699D01*
X141315924Y-139331151D01*
X141188983Y-139136852D01*
X141188980Y-139136849D01*
X141188979Y-139136847D01*
X141031784Y-138966087D01*
X141031779Y-138966083D01*
X141031777Y-138966081D01*
X140848634Y-138823535D01*
X140848628Y-138823531D01*
X140644504Y-138713064D01*
X140644495Y-138713061D01*
X140424984Y-138637702D01*
X140253282Y-138609050D01*
X140196049Y-138599500D01*
X139963951Y-138599500D01*
X139918164Y-138607140D01*
X139735015Y-138637702D01*
X139515504Y-138713061D01*
X139515495Y-138713064D01*
X139311371Y-138823531D01*
X139311365Y-138823535D01*
X139128222Y-138966081D01*
X139128219Y-138966084D01*
X139128216Y-138966086D01*
X139128216Y-138966087D01*
X139096999Y-138999998D01*
X138971016Y-139136852D01*
X138913809Y-139224416D01*
X138860662Y-139269773D01*
X138791431Y-139279197D01*
X138728095Y-139249695D01*
X138706191Y-139224416D01*
X138648983Y-139136852D01*
X138648980Y-139136849D01*
X138648979Y-139136847D01*
X138491784Y-138966087D01*
X138491779Y-138966083D01*
X138491777Y-138966081D01*
X138308634Y-138823535D01*
X138308628Y-138823531D01*
X138104504Y-138713064D01*
X138104495Y-138713061D01*
X137884984Y-138637702D01*
X137713282Y-138609050D01*
X137656049Y-138599500D01*
X137423951Y-138599500D01*
X137378164Y-138607140D01*
X137195015Y-138637702D01*
X136975504Y-138713061D01*
X136975495Y-138713064D01*
X136771371Y-138823531D01*
X136771365Y-138823535D01*
X136588222Y-138966081D01*
X136588219Y-138966084D01*
X136588216Y-138966086D01*
X136588216Y-138966087D01*
X136504040Y-139057527D01*
X136465730Y-139099143D01*
X136405843Y-139135133D01*
X136336005Y-139133033D01*
X136278389Y-139093509D01*
X136251287Y-139029110D01*
X136250500Y-139015160D01*
X136250500Y-120678075D01*
X136251280Y-120664190D01*
X136255237Y-120629072D01*
X136253243Y-120599500D01*
X136250781Y-120562975D01*
X136250500Y-120554634D01*
X136250500Y-120544750D01*
X136250500Y-120544745D01*
X136246843Y-120504115D01*
X136246626Y-120501352D01*
X136240096Y-120404492D01*
X136240096Y-120404487D01*
X136239027Y-120400247D01*
X136235768Y-120381058D01*
X136235726Y-120380599D01*
X136235377Y-120376712D01*
X136209532Y-120283068D01*
X136208840Y-120280448D01*
X136185096Y-120186216D01*
X136183290Y-120182240D01*
X136176654Y-120163939D01*
X136175493Y-120159730D01*
X136133340Y-120072199D01*
X136132189Y-120069739D01*
X136092007Y-119981274D01*
X136089516Y-119977680D01*
X136079726Y-119960867D01*
X136077829Y-119956927D01*
X136020736Y-119878345D01*
X136019158Y-119876123D01*
X135963819Y-119796245D01*
X135960729Y-119793155D01*
X135948093Y-119778361D01*
X135945521Y-119774821D01*
X135945518Y-119774818D01*
X135875299Y-119707681D01*
X135873310Y-119705736D01*
X120167579Y-104000005D01*
X166595202Y-104000005D01*
X166614361Y-104231218D01*
X166671317Y-104456135D01*
X166764515Y-104668606D01*
X166848812Y-104797633D01*
X167602046Y-104044399D01*
X167614835Y-104125148D01*
X167672359Y-104238045D01*
X167761955Y-104327641D01*
X167874852Y-104385165D01*
X167955599Y-104397953D01*
X167201201Y-105152351D01*
X167231649Y-105176050D01*
X167435697Y-105286476D01*
X167435706Y-105286479D01*
X167655139Y-105361811D01*
X167883993Y-105400000D01*
X168116007Y-105400000D01*
X168344860Y-105361811D01*
X168564293Y-105286479D01*
X168564301Y-105286476D01*
X168768355Y-105176047D01*
X168798797Y-105152351D01*
X168798798Y-105152350D01*
X168044401Y-104397953D01*
X168125148Y-104385165D01*
X168238045Y-104327641D01*
X168327641Y-104238045D01*
X168385165Y-104125148D01*
X168397953Y-104044400D01*
X169151186Y-104797633D01*
X169235482Y-104668611D01*
X169328682Y-104456135D01*
X169385638Y-104231218D01*
X169404798Y-104000005D01*
X169404798Y-103999994D01*
X169385638Y-103768781D01*
X169328682Y-103543864D01*
X169235484Y-103331393D01*
X169151186Y-103202365D01*
X168397953Y-103955598D01*
X168385165Y-103874852D01*
X168327641Y-103761955D01*
X168238045Y-103672359D01*
X168125148Y-103614835D01*
X168044400Y-103602046D01*
X168798797Y-102847647D01*
X168798797Y-102847645D01*
X168768360Y-102823955D01*
X168768354Y-102823951D01*
X168564302Y-102713523D01*
X168564293Y-102713520D01*
X168344860Y-102638188D01*
X168116007Y-102600000D01*
X167883993Y-102600000D01*
X167655139Y-102638188D01*
X167435706Y-102713520D01*
X167435697Y-102713523D01*
X167231650Y-102823949D01*
X167201200Y-102847647D01*
X167955600Y-103602046D01*
X167874852Y-103614835D01*
X167761955Y-103672359D01*
X167672359Y-103761955D01*
X167614835Y-103874852D01*
X167602046Y-103955600D01*
X166848811Y-103202365D01*
X166764516Y-103331390D01*
X166671317Y-103543864D01*
X166614361Y-103768781D01*
X166595202Y-103999994D01*
X166595202Y-104000005D01*
X120167579Y-104000005D01*
X118337916Y-102170342D01*
X118328649Y-102159973D01*
X118306606Y-102132332D01*
X118256703Y-102088732D01*
X118250607Y-102083033D01*
X118243632Y-102076058D01*
X118243621Y-102076048D01*
X118212355Y-102049945D01*
X118210239Y-102048138D01*
X118137103Y-101984240D01*
X118137097Y-101984236D01*
X118137096Y-101984235D01*
X118133341Y-101981991D01*
X118117473Y-101970732D01*
X118114119Y-101967932D01*
X118114118Y-101967931D01*
X118114113Y-101967927D01*
X118029648Y-101920001D01*
X118027244Y-101918601D01*
X117943863Y-101868784D01*
X117939769Y-101867248D01*
X117922144Y-101859002D01*
X117918345Y-101856846D01*
X117826669Y-101824767D01*
X117824053Y-101823819D01*
X117733129Y-101789694D01*
X117733119Y-101789691D01*
X117728823Y-101788912D01*
X117710018Y-101783949D01*
X117705884Y-101782502D01*
X117705877Y-101782501D01*
X117609948Y-101767307D01*
X117607205Y-101766841D01*
X117511650Y-101749500D01*
X117511647Y-101749500D01*
X117507272Y-101749500D01*
X117487869Y-101747972D01*
X117483560Y-101747289D01*
X117386459Y-101749469D01*
X117383677Y-101749500D01*
X115163232Y-101749500D01*
X115104214Y-101734554D01*
X115064513Y-101713069D01*
X115064507Y-101713066D01*
X115064503Y-101713064D01*
X115064500Y-101713063D01*
X115064498Y-101713062D01*
X114844984Y-101637702D01*
X114673282Y-101609050D01*
X114616049Y-101599500D01*
X114383951Y-101599500D01*
X114338164Y-101607140D01*
X114155015Y-101637702D01*
X113935504Y-101713061D01*
X113935495Y-101713064D01*
X113731371Y-101823531D01*
X113731365Y-101823535D01*
X113548222Y-101966081D01*
X113548219Y-101966084D01*
X113391016Y-102136852D01*
X113264075Y-102331151D01*
X113170842Y-102543699D01*
X113113866Y-102768691D01*
X113113864Y-102768702D01*
X113094700Y-102999993D01*
X113094700Y-103000006D01*
X113113864Y-103231297D01*
X113113866Y-103231308D01*
X113170842Y-103456300D01*
X113264075Y-103668848D01*
X113391016Y-103863147D01*
X113391019Y-103863151D01*
X113391021Y-103863153D01*
X113548216Y-104033913D01*
X113548219Y-104033915D01*
X113548222Y-104033918D01*
X113731365Y-104176464D01*
X113731371Y-104176468D01*
X113731374Y-104176470D01*
X113935497Y-104286936D01*
X114049487Y-104326068D01*
X114155015Y-104362297D01*
X114155017Y-104362297D01*
X114155019Y-104362298D01*
X114383951Y-104400500D01*
X114383952Y-104400500D01*
X114616048Y-104400500D01*
X114616049Y-104400500D01*
X114844981Y-104362298D01*
X115064503Y-104286936D01*
X115086696Y-104274925D01*
X115104214Y-104265446D01*
X115163232Y-104250500D01*
X116829764Y-104250500D01*
X116896803Y-104270185D01*
X116917445Y-104286819D01*
X129358445Y-116727819D01*
X129391930Y-116789142D01*
X129386946Y-116858834D01*
X129345074Y-116914767D01*
X129279610Y-116939184D01*
X129270764Y-116939500D01*
X108137676Y-116939500D01*
X108123793Y-116938720D01*
X108114059Y-116937623D01*
X108088675Y-116934763D01*
X108088668Y-116934762D01*
X108025852Y-116938998D01*
X108022576Y-116939219D01*
X108014236Y-116939500D01*
X108004337Y-116939500D01*
X107963738Y-116943153D01*
X107960970Y-116943371D01*
X107864089Y-116949903D01*
X107859848Y-116950972D01*
X107840675Y-116954230D01*
X107836312Y-116954622D01*
X107836310Y-116954623D01*
X107742652Y-116980470D01*
X107739965Y-116981179D01*
X107645813Y-117004904D01*
X107645812Y-117004904D01*
X107641819Y-117006718D01*
X107623559Y-117013338D01*
X107619350Y-117014500D01*
X107619322Y-117014510D01*
X107531823Y-117056646D01*
X107529307Y-117057824D01*
X107440869Y-117097995D01*
X107440866Y-117097997D01*
X107437272Y-117100487D01*
X107420478Y-117110267D01*
X107416533Y-117112167D01*
X107416523Y-117112172D01*
X107337933Y-117169270D01*
X107335668Y-117170877D01*
X107255844Y-117226181D01*
X107252739Y-117229286D01*
X107237965Y-117241903D01*
X107234428Y-117244473D01*
X107234421Y-117244478D01*
X107167304Y-117314677D01*
X107165359Y-117316665D01*
X95453807Y-129028216D01*
X95392484Y-129061701D01*
X95322792Y-129056717D01*
X95266859Y-129014845D01*
X95252570Y-128990344D01*
X95235485Y-128951395D01*
X95151186Y-128822365D01*
X94397953Y-129575597D01*
X94385165Y-129494852D01*
X94327641Y-129381955D01*
X94238045Y-129292359D01*
X94125148Y-129234835D01*
X94044398Y-129222045D01*
X94798797Y-128467647D01*
X94798797Y-128467646D01*
X94773773Y-128448169D01*
X94732961Y-128391459D01*
X94729286Y-128321686D01*
X94763918Y-128261003D01*
X94773760Y-128252473D01*
X94951784Y-128113913D01*
X95108979Y-127943153D01*
X95235924Y-127748849D01*
X95329157Y-127536300D01*
X95386134Y-127311305D01*
X95386135Y-127311297D01*
X95405300Y-127080006D01*
X95405300Y-127079993D01*
X95386135Y-126848702D01*
X95386133Y-126848691D01*
X95329157Y-126623699D01*
X95235924Y-126411151D01*
X95108983Y-126216852D01*
X95108980Y-126216849D01*
X95108979Y-126216847D01*
X94951784Y-126046087D01*
X94774180Y-125907853D01*
X94733368Y-125851143D01*
X94729693Y-125781370D01*
X94764324Y-125720687D01*
X94774181Y-125712146D01*
X94951784Y-125573913D01*
X95108979Y-125403153D01*
X95235924Y-125208849D01*
X95329157Y-124996300D01*
X95386134Y-124771305D01*
X95397166Y-124638169D01*
X95405300Y-124540006D01*
X95405300Y-124539993D01*
X95386135Y-124308702D01*
X95386133Y-124308691D01*
X95329157Y-124083699D01*
X95235924Y-123871151D01*
X95108983Y-123676852D01*
X95108980Y-123676849D01*
X95108979Y-123676847D01*
X94951784Y-123506087D01*
X94774180Y-123367853D01*
X94733368Y-123311143D01*
X94729693Y-123241370D01*
X94764324Y-123180687D01*
X94774181Y-123172146D01*
X94951784Y-123033913D01*
X95108979Y-122863153D01*
X95235924Y-122668849D01*
X95329157Y-122456300D01*
X95386134Y-122231305D01*
X95397192Y-122097853D01*
X95405300Y-122000006D01*
X95405300Y-121999993D01*
X95386135Y-121768702D01*
X95386133Y-121768691D01*
X95329157Y-121543699D01*
X95235924Y-121331151D01*
X95108983Y-121136852D01*
X95108980Y-121136849D01*
X95108979Y-121136847D01*
X94951784Y-120966087D01*
X94951779Y-120966083D01*
X94951777Y-120966081D01*
X94768634Y-120823535D01*
X94768628Y-120823531D01*
X94564504Y-120713064D01*
X94564495Y-120713061D01*
X94344984Y-120637702D01*
X94173282Y-120609050D01*
X94116049Y-120599500D01*
X93883951Y-120599500D01*
X93813313Y-120611287D01*
X93743948Y-120602905D01*
X93690126Y-120558352D01*
X93668936Y-120491773D01*
X93668905Y-120489637D01*
X93565974Y-99000006D01*
X110594700Y-99000006D01*
X110613864Y-99231297D01*
X110613866Y-99231308D01*
X110670842Y-99456300D01*
X110764075Y-99668848D01*
X110891016Y-99863147D01*
X110891019Y-99863151D01*
X110891021Y-99863153D01*
X111048216Y-100033913D01*
X111048219Y-100033915D01*
X111048222Y-100033918D01*
X111231365Y-100176464D01*
X111231371Y-100176468D01*
X111231374Y-100176470D01*
X111398860Y-100267109D01*
X111434652Y-100286479D01*
X111435497Y-100286936D01*
X111549487Y-100326068D01*
X111655015Y-100362297D01*
X111655017Y-100362297D01*
X111655019Y-100362298D01*
X111883951Y-100400500D01*
X111883952Y-100400500D01*
X112116048Y-100400500D01*
X112116049Y-100400500D01*
X112344981Y-100362298D01*
X112564503Y-100286936D01*
X112768626Y-100176470D01*
X112769170Y-100176047D01*
X112830129Y-100128600D01*
X112951784Y-100033913D01*
X113108979Y-99863153D01*
X113235924Y-99668849D01*
X113329157Y-99456300D01*
X113386134Y-99231305D01*
X113386135Y-99231297D01*
X113405300Y-99000006D01*
X113405300Y-99000005D01*
X115595202Y-99000005D01*
X115614361Y-99231218D01*
X115671317Y-99456135D01*
X115764515Y-99668606D01*
X115848812Y-99797633D01*
X116602046Y-99044399D01*
X116614835Y-99125148D01*
X116672359Y-99238045D01*
X116761955Y-99327641D01*
X116874852Y-99385165D01*
X116955599Y-99397953D01*
X116201201Y-100152351D01*
X116231649Y-100176050D01*
X116435697Y-100286476D01*
X116435706Y-100286479D01*
X116655139Y-100361811D01*
X116883993Y-100400000D01*
X117116007Y-100400000D01*
X117344860Y-100361811D01*
X117564293Y-100286479D01*
X117564301Y-100286476D01*
X117768355Y-100176047D01*
X117798797Y-100152351D01*
X117798798Y-100152350D01*
X117044401Y-99397953D01*
X117125148Y-99385165D01*
X117238045Y-99327641D01*
X117327641Y-99238045D01*
X117385165Y-99125148D01*
X117397953Y-99044400D01*
X118151186Y-99797633D01*
X118235482Y-99668611D01*
X118328682Y-99456135D01*
X118385638Y-99231218D01*
X118404798Y-99000005D01*
X118404798Y-98999994D01*
X118385638Y-98768781D01*
X118328682Y-98543864D01*
X118235484Y-98331393D01*
X118151186Y-98202365D01*
X117397953Y-98955598D01*
X117385165Y-98874852D01*
X117327641Y-98761955D01*
X117238045Y-98672359D01*
X117125148Y-98614835D01*
X117044400Y-98602046D01*
X117798797Y-97847647D01*
X117798797Y-97847645D01*
X117768360Y-97823955D01*
X117768354Y-97823951D01*
X117564302Y-97713523D01*
X117564293Y-97713520D01*
X117344860Y-97638188D01*
X117116007Y-97600000D01*
X116883993Y-97600000D01*
X116655139Y-97638188D01*
X116435706Y-97713520D01*
X116435697Y-97713523D01*
X116231650Y-97823949D01*
X116201200Y-97847647D01*
X116955600Y-98602046D01*
X116874852Y-98614835D01*
X116761955Y-98672359D01*
X116672359Y-98761955D01*
X116614835Y-98874852D01*
X116602046Y-98955600D01*
X115848811Y-98202365D01*
X115764516Y-98331390D01*
X115671317Y-98543864D01*
X115614361Y-98768781D01*
X115595202Y-98999994D01*
X115595202Y-99000005D01*
X113405300Y-99000005D01*
X113405300Y-98999993D01*
X113386135Y-98768702D01*
X113386133Y-98768691D01*
X113329157Y-98543699D01*
X113235924Y-98331151D01*
X113108983Y-98136852D01*
X113108980Y-98136849D01*
X113108979Y-98136847D01*
X112951784Y-97966087D01*
X112951779Y-97966083D01*
X112951777Y-97966081D01*
X112768634Y-97823535D01*
X112768628Y-97823531D01*
X112564504Y-97713064D01*
X112564495Y-97713061D01*
X112344984Y-97637702D01*
X112173282Y-97609050D01*
X112116049Y-97599500D01*
X111883951Y-97599500D01*
X111838164Y-97607140D01*
X111655015Y-97637702D01*
X111435504Y-97713061D01*
X111435495Y-97713064D01*
X111231371Y-97823531D01*
X111231365Y-97823535D01*
X111048222Y-97966081D01*
X111048219Y-97966084D01*
X111048216Y-97966086D01*
X111048216Y-97966087D01*
X111031870Y-97983844D01*
X110891016Y-98136852D01*
X110764075Y-98331151D01*
X110670842Y-98543699D01*
X110613866Y-98768691D01*
X110613864Y-98768702D01*
X110594700Y-98999993D01*
X110594700Y-99000006D01*
X93565974Y-99000006D01*
X93551605Y-96000000D01*
X93894592Y-96000000D01*
X93914201Y-96286680D01*
X93972666Y-96568034D01*
X93972667Y-96568037D01*
X94068894Y-96838793D01*
X94068893Y-96838793D01*
X94201098Y-97093935D01*
X94366812Y-97328700D01*
X94451923Y-97419831D01*
X94562947Y-97538708D01*
X94785853Y-97720055D01*
X94956708Y-97823955D01*
X95031382Y-97869365D01*
X95218237Y-97950526D01*
X95294942Y-97983844D01*
X95571642Y-98061371D01*
X95821920Y-98095771D01*
X95856321Y-98100500D01*
X95856322Y-98100500D01*
X96143679Y-98100500D01*
X96174370Y-98096281D01*
X96428358Y-98061371D01*
X96705058Y-97983844D01*
X96818015Y-97934779D01*
X96968617Y-97869365D01*
X96968620Y-97869363D01*
X96968625Y-97869361D01*
X97214147Y-97720055D01*
X97437053Y-97538708D01*
X97633189Y-97328698D01*
X97798901Y-97093936D01*
X97931104Y-96838797D01*
X98027334Y-96568032D01*
X98085798Y-96286686D01*
X98105408Y-96000000D01*
X171894592Y-96000000D01*
X171914201Y-96286680D01*
X171972666Y-96568034D01*
X171972667Y-96568037D01*
X172068894Y-96838793D01*
X172068893Y-96838793D01*
X172201098Y-97093935D01*
X172366812Y-97328700D01*
X172451923Y-97419831D01*
X172562947Y-97538708D01*
X172785853Y-97720055D01*
X172956708Y-97823955D01*
X173031382Y-97869365D01*
X173218237Y-97950526D01*
X173294942Y-97983844D01*
X173571642Y-98061371D01*
X173821920Y-98095771D01*
X173856321Y-98100500D01*
X173856322Y-98100500D01*
X174143679Y-98100500D01*
X174174370Y-98096281D01*
X174428358Y-98061371D01*
X174705058Y-97983844D01*
X174818015Y-97934779D01*
X174968617Y-97869365D01*
X174968620Y-97869363D01*
X174968625Y-97869361D01*
X175214147Y-97720055D01*
X175437053Y-97538708D01*
X175633189Y-97328698D01*
X175798901Y-97093936D01*
X175931104Y-96838797D01*
X176027334Y-96568032D01*
X176085798Y-96286686D01*
X176105408Y-96000000D01*
X176085798Y-95713314D01*
X176027334Y-95431968D01*
X175931105Y-95161206D01*
X175931106Y-95161206D01*
X175798901Y-94906064D01*
X175633187Y-94671299D01*
X175554554Y-94587105D01*
X175437053Y-94461292D01*
X175214147Y-94279945D01*
X175214146Y-94279944D01*
X174968617Y-94130634D01*
X174705063Y-94016158D01*
X174705061Y-94016157D01*
X174705058Y-94016156D01*
X174575578Y-93979877D01*
X174428364Y-93938630D01*
X174428359Y-93938629D01*
X174428358Y-93938629D01*
X174286018Y-93919064D01*
X174143679Y-93899500D01*
X174143678Y-93899500D01*
X173856322Y-93899500D01*
X173856321Y-93899500D01*
X173571642Y-93938629D01*
X173571635Y-93938630D01*
X173363861Y-93996845D01*
X173294942Y-94016156D01*
X173294939Y-94016156D01*
X173294936Y-94016158D01*
X173294935Y-94016158D01*
X173031382Y-94130634D01*
X172785853Y-94279944D01*
X172562950Y-94461289D01*
X172366812Y-94671299D01*
X172201098Y-94906064D01*
X172068894Y-95161206D01*
X171972667Y-95431962D01*
X171972666Y-95431965D01*
X171914201Y-95713319D01*
X171894592Y-96000000D01*
X98105408Y-96000000D01*
X98085798Y-95713314D01*
X98027334Y-95431968D01*
X97931105Y-95161206D01*
X97931106Y-95161206D01*
X97798901Y-94906064D01*
X97633187Y-94671299D01*
X97554554Y-94587105D01*
X97437053Y-94461292D01*
X97214147Y-94279945D01*
X97214146Y-94279944D01*
X96968617Y-94130634D01*
X96705063Y-94016158D01*
X96705061Y-94016157D01*
X96705058Y-94016156D01*
X96575578Y-93979877D01*
X96428364Y-93938630D01*
X96428359Y-93938629D01*
X96428358Y-93938629D01*
X96286018Y-93919064D01*
X96143679Y-93899500D01*
X96143678Y-93899500D01*
X95856322Y-93899500D01*
X95856321Y-93899500D01*
X95571642Y-93938629D01*
X95571635Y-93938630D01*
X95363861Y-93996845D01*
X95294942Y-94016156D01*
X95294939Y-94016156D01*
X95294936Y-94016158D01*
X95294935Y-94016158D01*
X95031382Y-94130634D01*
X94785853Y-94279944D01*
X94562950Y-94461289D01*
X94366812Y-94671299D01*
X94201098Y-94906064D01*
X94068894Y-95161206D01*
X93972667Y-95431962D01*
X93972666Y-95431965D01*
X93914201Y-95713319D01*
X93894592Y-96000000D01*
X93551605Y-96000000D01*
X93540418Y-93664471D01*
X93559782Y-93597339D01*
X93612366Y-93551332D01*
X93664472Y-93539878D01*
X176298004Y-93577910D01*
G37*
%TD.AperFunction*%
%TA.AperFunction,Conductor*%
G36*
X131394323Y-118768284D02*
G01*
X131416541Y-118785915D01*
X133713181Y-121082555D01*
X133746666Y-121143878D01*
X133749500Y-121170236D01*
X133749500Y-139015160D01*
X133729815Y-139082199D01*
X133677011Y-139127954D01*
X133607853Y-139137898D01*
X133544297Y-139108873D01*
X133534270Y-139099143D01*
X133495960Y-139057527D01*
X133411784Y-138966087D01*
X133411779Y-138966083D01*
X133411777Y-138966081D01*
X133228634Y-138823535D01*
X133228628Y-138823531D01*
X133024504Y-138713064D01*
X133024495Y-138713061D01*
X132804984Y-138637702D01*
X132633282Y-138609050D01*
X132576049Y-138599500D01*
X132343951Y-138599500D01*
X132298164Y-138607140D01*
X132115015Y-138637702D01*
X131895504Y-138713061D01*
X131895495Y-138713064D01*
X131691371Y-138823531D01*
X131691365Y-138823535D01*
X131508222Y-138966081D01*
X131508219Y-138966084D01*
X131508216Y-138966086D01*
X131508216Y-138966087D01*
X131476999Y-138999998D01*
X131351016Y-139136852D01*
X131224075Y-139331151D01*
X131130842Y-139543699D01*
X131073866Y-139768691D01*
X131073864Y-139768702D01*
X131054699Y-139999993D01*
X131058649Y-140047656D01*
X131068547Y-140167117D01*
X131068864Y-140170933D01*
X131054782Y-140239369D01*
X131005937Y-140289328D01*
X130945058Y-140305173D01*
X128514855Y-140300685D01*
X128447852Y-140280876D01*
X128402195Y-140227988D01*
X128391508Y-140166445D01*
X128391708Y-140164040D01*
X128401351Y-140047656D01*
X128405300Y-140000005D01*
X128405300Y-139999993D01*
X128386135Y-139768702D01*
X128386133Y-139768691D01*
X128329157Y-139543699D01*
X128235924Y-139331151D01*
X128108983Y-139136852D01*
X128108980Y-139136849D01*
X128108979Y-139136847D01*
X127951784Y-138966087D01*
X127951779Y-138966083D01*
X127951777Y-138966081D01*
X127768634Y-138823535D01*
X127768628Y-138823531D01*
X127564504Y-138713064D01*
X127564495Y-138713061D01*
X127344984Y-138637702D01*
X127173282Y-138609050D01*
X127116049Y-138599500D01*
X126883951Y-138599500D01*
X126838164Y-138607140D01*
X126655015Y-138637702D01*
X126435504Y-138713061D01*
X126435495Y-138713064D01*
X126231371Y-138823531D01*
X126231365Y-138823535D01*
X126048222Y-138966081D01*
X126048219Y-138966084D01*
X126048216Y-138966086D01*
X126048216Y-138966087D01*
X126016999Y-138999998D01*
X125891016Y-139136852D01*
X125833809Y-139224416D01*
X125780662Y-139269773D01*
X125711431Y-139279197D01*
X125648095Y-139249695D01*
X125626191Y-139224416D01*
X125568983Y-139136852D01*
X125568980Y-139136849D01*
X125568979Y-139136847D01*
X125411784Y-138966087D01*
X125411779Y-138966083D01*
X125411777Y-138966081D01*
X125228634Y-138823535D01*
X125228628Y-138823531D01*
X125024504Y-138713064D01*
X125024495Y-138713061D01*
X124804984Y-138637702D01*
X124633282Y-138609050D01*
X124576049Y-138599500D01*
X124343951Y-138599500D01*
X124298164Y-138607140D01*
X124115015Y-138637702D01*
X123895504Y-138713061D01*
X123895495Y-138713064D01*
X123691371Y-138823531D01*
X123691365Y-138823535D01*
X123508222Y-138966081D01*
X123508219Y-138966084D01*
X123508216Y-138966086D01*
X123508216Y-138966087D01*
X123476999Y-138999998D01*
X123351016Y-139136852D01*
X123224075Y-139331151D01*
X123130842Y-139543699D01*
X123073866Y-139768691D01*
X123073864Y-139768702D01*
X123054700Y-139999993D01*
X123054700Y-139999994D01*
X123054700Y-140000000D01*
X123062230Y-140090878D01*
X123067639Y-140156158D01*
X123053557Y-140224594D01*
X123004711Y-140274553D01*
X122943833Y-140290397D01*
X120516079Y-140285914D01*
X120449076Y-140266105D01*
X120403419Y-140213217D01*
X120392732Y-140151674D01*
X120405300Y-140000005D01*
X120405300Y-139999993D01*
X120386135Y-139768702D01*
X120386133Y-139768691D01*
X120329157Y-139543699D01*
X120235924Y-139331151D01*
X120108983Y-139136852D01*
X120108980Y-139136849D01*
X120108979Y-139136847D01*
X119951784Y-138966087D01*
X119951779Y-138966083D01*
X119951777Y-138966081D01*
X119768634Y-138823535D01*
X119768628Y-138823531D01*
X119564504Y-138713064D01*
X119564495Y-138713061D01*
X119344984Y-138637702D01*
X119173282Y-138609050D01*
X119116049Y-138599500D01*
X118883951Y-138599500D01*
X118838164Y-138607140D01*
X118655015Y-138637702D01*
X118435504Y-138713061D01*
X118435495Y-138713064D01*
X118231371Y-138823531D01*
X118231365Y-138823535D01*
X118048222Y-138966081D01*
X118048219Y-138966084D01*
X118048216Y-138966086D01*
X118048216Y-138966087D01*
X118016999Y-138999998D01*
X117891016Y-139136852D01*
X117833809Y-139224416D01*
X117780662Y-139269773D01*
X117711431Y-139279197D01*
X117648095Y-139249695D01*
X117626191Y-139224416D01*
X117568983Y-139136852D01*
X117568980Y-139136849D01*
X117568979Y-139136847D01*
X117411784Y-138966087D01*
X117411779Y-138966083D01*
X117411777Y-138966081D01*
X117228634Y-138823535D01*
X117228628Y-138823531D01*
X117024504Y-138713064D01*
X117024495Y-138713061D01*
X116925298Y-138679006D01*
X116877880Y-138649406D01*
X114632016Y-136403542D01*
X114622749Y-136393173D01*
X114600706Y-136365532D01*
X114550803Y-136321932D01*
X114544707Y-136316233D01*
X114537732Y-136309258D01*
X114537721Y-136309248D01*
X114506455Y-136283145D01*
X114504339Y-136281338D01*
X114431203Y-136217440D01*
X114431197Y-136217436D01*
X114431196Y-136217435D01*
X114427441Y-136215191D01*
X114411573Y-136203932D01*
X114408219Y-136201132D01*
X114408218Y-136201131D01*
X114408213Y-136201127D01*
X114323748Y-136153201D01*
X114321344Y-136151801D01*
X114237963Y-136101984D01*
X114233869Y-136100448D01*
X114216244Y-136092202D01*
X114212445Y-136090046D01*
X114120769Y-136057967D01*
X114118153Y-136057019D01*
X114027229Y-136022894D01*
X114027219Y-136022891D01*
X114022923Y-136022112D01*
X114004118Y-136017149D01*
X113999984Y-136015702D01*
X113999977Y-136015701D01*
X113904048Y-136000507D01*
X113901305Y-136000041D01*
X113805750Y-135982700D01*
X113805747Y-135982700D01*
X113801372Y-135982700D01*
X113781969Y-135981172D01*
X113777660Y-135980489D01*
X113680559Y-135982669D01*
X113677777Y-135982700D01*
X103683986Y-135982700D01*
X103670103Y-135981920D01*
X103660493Y-135980837D01*
X103634976Y-135977962D01*
X103634969Y-135977961D01*
X103572107Y-135982200D01*
X103568862Y-135982419D01*
X103560522Y-135982700D01*
X103550637Y-135982700D01*
X103510084Y-135986349D01*
X103507316Y-135986567D01*
X103410388Y-135993102D01*
X103410381Y-135993103D01*
X103406127Y-135994175D01*
X103386974Y-135997430D01*
X103382611Y-135997823D01*
X103382602Y-135997824D01*
X103289013Y-136023654D01*
X103286324Y-136024364D01*
X103192118Y-136048103D01*
X103188122Y-136049918D01*
X103169859Y-136056539D01*
X103165638Y-136057704D01*
X103165621Y-136057710D01*
X103078089Y-136099862D01*
X103075572Y-136101040D01*
X102987174Y-136141192D01*
X102983572Y-136143688D01*
X102966780Y-136153467D01*
X102962829Y-136155370D01*
X102962820Y-136155375D01*
X102884211Y-136212487D01*
X102881985Y-136214066D01*
X102841114Y-136242382D01*
X102802145Y-136269380D01*
X102799039Y-136272486D01*
X102784265Y-136285103D01*
X102780728Y-136287673D01*
X102780721Y-136287678D01*
X102713604Y-136357877D01*
X102711659Y-136359865D01*
X101230509Y-137841015D01*
X101195242Y-137865712D01*
X101187264Y-137869432D01*
X101000858Y-137999954D01*
X100839954Y-138160858D01*
X100709432Y-138347265D01*
X100709431Y-138347267D01*
X100613261Y-138553502D01*
X100613258Y-138553511D01*
X100554366Y-138773302D01*
X100554364Y-138773313D01*
X100534532Y-138999998D01*
X100534532Y-139000001D01*
X100554364Y-139226686D01*
X100554366Y-139226697D01*
X100613258Y-139446488D01*
X100613261Y-139446497D01*
X100709431Y-139652732D01*
X100709432Y-139652734D01*
X100839954Y-139839141D01*
X101000857Y-140000044D01*
X101035400Y-140024231D01*
X101079026Y-140078808D01*
X101086220Y-140148306D01*
X101054698Y-140210661D01*
X100994468Y-140246076D01*
X100964049Y-140249807D01*
X96685956Y-140241906D01*
X96618953Y-140222097D01*
X96573296Y-140169209D01*
X96563480Y-140100032D01*
X96592622Y-140036530D01*
X96651470Y-139998865D01*
X96652618Y-139998536D01*
X96705058Y-139983844D01*
X96818015Y-139934779D01*
X96968617Y-139869365D01*
X96968620Y-139869363D01*
X96968625Y-139869361D01*
X97214147Y-139720055D01*
X97437053Y-139538708D01*
X97633189Y-139328698D01*
X97798901Y-139093936D01*
X97931104Y-138838797D01*
X98027334Y-138568032D01*
X98085798Y-138286686D01*
X98105408Y-138000000D01*
X98085798Y-137713314D01*
X98027334Y-137431968D01*
X98022085Y-137417200D01*
X97931105Y-137161206D01*
X97931106Y-137161206D01*
X97798901Y-136906064D01*
X97633187Y-136671299D01*
X97549849Y-136582067D01*
X97437053Y-136461292D01*
X97220487Y-136285103D01*
X97214146Y-136279944D01*
X96968617Y-136130634D01*
X96705063Y-136016158D01*
X96705061Y-136016157D01*
X96705058Y-136016156D01*
X96561842Y-135976029D01*
X96428364Y-135938630D01*
X96428359Y-135938629D01*
X96428358Y-135938629D01*
X96286018Y-135919064D01*
X96143679Y-135899500D01*
X96143678Y-135899500D01*
X95856322Y-135899500D01*
X95856321Y-135899500D01*
X95571642Y-135938629D01*
X95571635Y-135938630D01*
X95377220Y-135993103D01*
X95294942Y-136016156D01*
X95294939Y-136016156D01*
X95294936Y-136016158D01*
X95294935Y-136016158D01*
X95031382Y-136130634D01*
X94785853Y-136279944D01*
X94562950Y-136461289D01*
X94366812Y-136671299D01*
X94201098Y-136906064D01*
X94068893Y-137161206D01*
X93990459Y-137381900D01*
X93949461Y-137438477D01*
X93884383Y-137463907D01*
X93815888Y-137450116D01*
X93765722Y-137401484D01*
X93749620Y-137340972D01*
X93732095Y-133682153D01*
X93751458Y-133615027D01*
X93804042Y-133569020D01*
X93873152Y-133558745D01*
X93876503Y-133559257D01*
X93883951Y-133560500D01*
X94116048Y-133560500D01*
X94116049Y-133560500D01*
X94344981Y-133522298D01*
X94564503Y-133446936D01*
X94768626Y-133336470D01*
X94951784Y-133193913D01*
X95108979Y-133023153D01*
X95235924Y-132828849D01*
X95262338Y-132768629D01*
X95288209Y-132730763D01*
X108542155Y-119476819D01*
X108603478Y-119443334D01*
X108629836Y-119440500D01*
X128979395Y-119440500D01*
X129046434Y-119460185D01*
X129092189Y-119512989D01*
X129102133Y-119582147D01*
X129073108Y-119645703D01*
X129055560Y-119662351D01*
X129025278Y-119685920D01*
X129012217Y-119696086D01*
X128855016Y-119866852D01*
X128728075Y-120061151D01*
X128634842Y-120273699D01*
X128577866Y-120498691D01*
X128577864Y-120498702D01*
X128558700Y-120729993D01*
X128558700Y-120730006D01*
X128577864Y-120961297D01*
X128577866Y-120961308D01*
X128634842Y-121186300D01*
X128728075Y-121398848D01*
X128855016Y-121593147D01*
X128855019Y-121593151D01*
X128855021Y-121593153D01*
X129012216Y-121763913D01*
X129012219Y-121763915D01*
X129012222Y-121763918D01*
X129189818Y-121902147D01*
X129230631Y-121958857D01*
X129234306Y-122028630D01*
X129199674Y-122089313D01*
X129189818Y-122097853D01*
X129012222Y-122236081D01*
X129012219Y-122236084D01*
X128855016Y-122406852D01*
X128728075Y-122601151D01*
X128634842Y-122813699D01*
X128577866Y-123038691D01*
X128577864Y-123038702D01*
X128558700Y-123269993D01*
X128558700Y-123270006D01*
X128577864Y-123501297D01*
X128577866Y-123501308D01*
X128634842Y-123726300D01*
X128728075Y-123938848D01*
X128855016Y-124133147D01*
X128855019Y-124133151D01*
X128855021Y-124133153D01*
X129012216Y-124303913D01*
X129190225Y-124442462D01*
X129231038Y-124499173D01*
X129234713Y-124568946D01*
X129200082Y-124629629D01*
X129190225Y-124638170D01*
X129165201Y-124657646D01*
X129165200Y-124657647D01*
X129919600Y-125412046D01*
X129838852Y-125424835D01*
X129725955Y-125482359D01*
X129636359Y-125571955D01*
X129578835Y-125684852D01*
X129566046Y-125765600D01*
X128812811Y-125012365D01*
X128728516Y-125141390D01*
X128635317Y-125353864D01*
X128578361Y-125578781D01*
X128559202Y-125809994D01*
X128559202Y-125810005D01*
X128578361Y-126041218D01*
X128635317Y-126266135D01*
X128728515Y-126478606D01*
X128812812Y-126607633D01*
X129566046Y-125854399D01*
X129578835Y-125935148D01*
X129636359Y-126048045D01*
X129725955Y-126137641D01*
X129838852Y-126195165D01*
X129919599Y-126207953D01*
X129165201Y-126962351D01*
X129195649Y-126986050D01*
X129399697Y-127096476D01*
X129399706Y-127096479D01*
X129619139Y-127171811D01*
X129847993Y-127210000D01*
X130080007Y-127210000D01*
X130308860Y-127171811D01*
X130528293Y-127096479D01*
X130528301Y-127096476D01*
X130732355Y-126986047D01*
X130762797Y-126962351D01*
X130762798Y-126962350D01*
X130008401Y-126207953D01*
X130089148Y-126195165D01*
X130202045Y-126137641D01*
X130291641Y-126048045D01*
X130349165Y-125935148D01*
X130361953Y-125854400D01*
X131115186Y-126607633D01*
X131199482Y-126478611D01*
X131292682Y-126266135D01*
X131349638Y-126041218D01*
X131368798Y-125810005D01*
X131368798Y-125809994D01*
X131349638Y-125578781D01*
X131292682Y-125353864D01*
X131199484Y-125141393D01*
X131115186Y-125012365D01*
X130361953Y-125765598D01*
X130349165Y-125684852D01*
X130291641Y-125571955D01*
X130202045Y-125482359D01*
X130089148Y-125424835D01*
X130008400Y-125412046D01*
X130762797Y-124657647D01*
X130762797Y-124657646D01*
X130737773Y-124638169D01*
X130696961Y-124581459D01*
X130693286Y-124511686D01*
X130727918Y-124451003D01*
X130737760Y-124442473D01*
X130915784Y-124303913D01*
X131072979Y-124133153D01*
X131199924Y-123938849D01*
X131293157Y-123726300D01*
X131350134Y-123501305D01*
X131361192Y-123367853D01*
X131369300Y-123270006D01*
X131369300Y-123269993D01*
X131350135Y-123038702D01*
X131350133Y-123038691D01*
X131293157Y-122813699D01*
X131199924Y-122601151D01*
X131072983Y-122406852D01*
X131072980Y-122406849D01*
X131072979Y-122406847D01*
X130915784Y-122236087D01*
X130738180Y-122097853D01*
X130697368Y-122041143D01*
X130693693Y-121971370D01*
X130728324Y-121910687D01*
X130738181Y-121902146D01*
X130915784Y-121763913D01*
X131072979Y-121593153D01*
X131199924Y-121398849D01*
X131293157Y-121186300D01*
X131350134Y-120961305D01*
X131361550Y-120823531D01*
X131369300Y-120730006D01*
X131369300Y-120729993D01*
X131350135Y-120498702D01*
X131350133Y-120498691D01*
X131293157Y-120273699D01*
X131199924Y-120061151D01*
X131072983Y-119866852D01*
X131072980Y-119866849D01*
X131072979Y-119866847D01*
X130915784Y-119696087D01*
X130738180Y-119557853D01*
X130697368Y-119501143D01*
X130693693Y-119431370D01*
X130728324Y-119370687D01*
X130738181Y-119362146D01*
X130915784Y-119223913D01*
X131072979Y-119053153D01*
X131199924Y-118858849D01*
X131215304Y-118823787D01*
X131260259Y-118770301D01*
X131326995Y-118749610D01*
X131394323Y-118768284D01*
G37*
%TD.AperFunction*%
%TD*%
M02*
