%TF.GenerationSoftware,KiCad,Pcbnew,7.0.11+dfsg-1build4*%
%TF.CreationDate,2024-10-07T04:22:03+02:00*%
%TF.ProjectId,BertheVarioTac-Shema,42657274-6865-4566-9172-696f5461632d,rev?*%
%TF.SameCoordinates,Original*%
%TF.FileFunction,Copper,L1,Top*%
%TF.FilePolarity,Positive*%
%FSLAX46Y46*%
G04 Gerber Fmt 4.6, Leading zero omitted, Abs format (unit mm)*
G04 Created by KiCad (PCBNEW 7.0.11+dfsg-1build4) date 2024-10-07 04:22:03*
%MOMM*%
%LPD*%
G01*
G04 APERTURE LIST*
%TA.AperFunction,ComponentPad*%
%ADD10C,1.800000*%
%TD*%
%TA.AperFunction,ComponentPad*%
%ADD11C,1.600000*%
%TD*%
%TA.AperFunction,ComponentPad*%
%ADD12O,1.600000X1.600000*%
%TD*%
%TA.AperFunction,Conductor*%
%ADD13C,1.500000*%
%TD*%
G04 APERTURE END LIST*
D10*
%TO.P,SW1,1*%
%TO.N,Net-(Lipo-1S-to-5V1-IN_3.7v)*%
X167000000Y-132540000D03*
%TO.P,SW1,2*%
%TO.N,Net-(BT1-+)*%
X167000000Y-130000000D03*
%TD*%
%TO.P,Usb-C-charger1,1,B-*%
%TO.N,GNDREF*%
X168000000Y-104000000D03*
%TO.P,Usb-C-charger1,2,+*%
%TO.N,Net-(BT1-+)*%
X168000000Y-113000000D03*
%TD*%
D11*
%TO.P,R1,1*%
%TO.N,Net-(R1-Pad1)*%
X101840000Y-139000000D03*
D12*
%TO.P,R1,2*%
%TO.N,Net-(P4-Pin_1)*%
X112000000Y-139000000D03*
%TD*%
D10*
%TO.P,CN1,1,Pin_1*%
%TO.N,Net-(BMP180_Press1-VIN)*%
X153000000Y-140000000D03*
%TO.P,CN1,2,Pin_2*%
%TO.N,Net-(BMP180_Press1-SDA)*%
X150460000Y-140000000D03*
%TO.P,CN1,3,Pin_3*%
%TO.N,Net-(BMP180_Press1-SCL)*%
X147920000Y-140000000D03*
%TO.P,CN1,4,Pin_4*%
%TO.N,GNDREF*%
X145380000Y-140000000D03*
%TD*%
%TO.P,S1,1,1*%
%TO.N,Net-(P4-Pin_2)*%
X119000000Y-140000000D03*
%TO.P,S1,2,2*%
%TO.N,Net-(R1-Pad1)*%
X116460000Y-140000000D03*
%TD*%
%TO.P,P4,1,Pin_1*%
%TO.N,Net-(P4-Pin_1)*%
X127000000Y-140000000D03*
%TO.P,P4,2,Pin_2*%
%TO.N,Net-(P4-Pin_2)*%
X124460000Y-140000000D03*
%TD*%
%TO.P,GPS-NEO6M1,1,GND*%
%TO.N,GNDREF*%
X129964000Y-125810000D03*
%TO.P,GPS-NEO6M1,2,TX*%
%TO.N,Net-(GPS-NEO6M1-TX)*%
X129964000Y-123270000D03*
%TO.P,GPS-NEO6M1,3,RX*%
%TO.N,unconnected-(GPS-NEO6M1-RX-Pad3)*%
X129964000Y-120730000D03*
%TO.P,GPS-NEO6M1,4,VCC*%
%TO.N,Net-(BMP180_Press1-VIN)*%
X129964000Y-118190000D03*
%TD*%
%TO.P,Lipo-1S-to-5V1,1,OUT_5V*%
%TO.N,Net-(Lipo-1S-to-5V1-OUT_5V)*%
X135460000Y-106500000D03*
%TO.P,Lipo-1S-to-5V1,2,IN_3.7v*%
%TO.N,Net-(Lipo-1S-to-5V1-IN_3.7v)*%
X138000000Y-106500000D03*
%TO.P,Lipo-1S-to-5V1,3,GND*%
%TO.N,GNDREF*%
X140540000Y-106500000D03*
%TD*%
%TO.P,BT1,1,+*%
%TO.N,Net-(BT1-+)*%
X172000000Y-130000000D03*
%TO.P,BT1,2,-*%
%TO.N,GNDREF*%
X172000000Y-132540000D03*
%TD*%
%TO.P,QMC5883_Mag1,1,VCC*%
%TO.N,Net-(BMP180_Press1-VIN)*%
X94000000Y-132160000D03*
%TO.P,QMC5883_Mag1,2,GND*%
%TO.N,GNDREF*%
X94000000Y-129620000D03*
%TO.P,QMC5883_Mag1,3,SCL*%
%TO.N,Net-(BMP180_Press1-SCL)*%
X94000000Y-127080000D03*
%TO.P,QMC5883_Mag1,4,SDA*%
%TO.N,Net-(BMP180_Press1-SDA)*%
X94000000Y-124540000D03*
%TO.P,QMC5883_Mag1,5*%
%TO.N,N/C*%
X94000000Y-122000000D03*
%TD*%
%TO.P,P1,1,Pin_1*%
%TO.N,Net-(Lipo-1S-to-5V1-OUT_5V)*%
X166540000Y-140000000D03*
%TO.P,P1,2,Pin_2*%
%TO.N,Net-(GPS-NEO6M1-TX)*%
X164000000Y-140000000D03*
%TO.P,P1,3,Pin_3*%
%TO.N,unconnected-(P1-Pin_3-Pad3)*%
X161460000Y-140000000D03*
%TO.P,P1,4,Pin_4*%
%TO.N,GNDREF*%
X158920000Y-140000000D03*
%TD*%
%TO.P,P5,1,1*%
%TO.N,Net-(Lipo-1S-to-5V1-IN_3.7v)*%
X112000000Y-99000000D03*
%TO.P,P5,2,2*%
%TO.N,Net-(P3-Pin_3)*%
X114500000Y-103000000D03*
%TO.P,P5,3,3*%
%TO.N,GNDREF*%
X117000000Y-99000000D03*
%TD*%
%TO.P,BMP180_Press1,1,SDA*%
%TO.N,Net-(BMP180_Press1-SDA)*%
X145374000Y-120190000D03*
%TO.P,BMP180_Press1,2,SCL*%
%TO.N,Net-(BMP180_Press1-SCL)*%
X145374000Y-122730000D03*
%TO.P,BMP180_Press1,3,GND*%
%TO.N,GNDREF*%
X145374000Y-125270000D03*
%TO.P,BMP180_Press1,4,VIN*%
%TO.N,Net-(BMP180_Press1-VIN)*%
X145374000Y-127810000D03*
%TD*%
%TO.P,P3,1,Pin_1*%
%TO.N,unconnected-(P3-Pin_1-Pad1)*%
X140080000Y-140000000D03*
%TO.P,P3,2,Pin_2*%
%TO.N,unconnected-(P3-Pin_2-Pad2)*%
X137540000Y-140000000D03*
%TO.P,P3,3,Pin_3*%
%TO.N,Net-(P3-Pin_3)*%
X135000000Y-140000000D03*
%TO.P,P3,4,Pin_4*%
%TO.N,unconnected-(P3-Pin_4-Pad4)*%
X132460000Y-140000000D03*
%TD*%
D13*
%TO.N,Net-(P4-Pin_1)*%
X114300000Y-139000000D02*
X115169400Y-138130600D01*
X112000000Y-139000000D02*
X114300000Y-139000000D01*
X115169400Y-138130600D02*
X125220500Y-138130600D01*
X127000000Y-139910100D02*
X127000000Y-140000000D01*
X125220500Y-138130600D02*
X127000000Y-139910100D01*
%TO.N,Net-(BT1-+)*%
X167000000Y-114000000D02*
X167000000Y-130000000D01*
X168000000Y-113000000D02*
X167000000Y-114000000D01*
X172000000Y-130000000D02*
X167000000Y-130000000D01*
%TO.N,GNDREF*%
X145374000Y-125270000D02*
X130504000Y-125270000D01*
X117000000Y-99000000D02*
X133144900Y-99000000D01*
X140540000Y-106395100D02*
X140540000Y-106500000D01*
X133144900Y-99000000D02*
X140540000Y-106395100D01*
X130504000Y-125270000D02*
X129964000Y-125810000D01*
%TO.N,Net-(Lipo-1S-to-5V1-OUT_5V)*%
X140206100Y-111387000D02*
X141695600Y-111387000D01*
X135460000Y-106640900D02*
X140206100Y-111387000D01*
X135460000Y-106500000D02*
X135460000Y-106640900D01*
X166540000Y-136231400D02*
X166540000Y-140000000D01*
X141695600Y-111387000D02*
X166540000Y-136231400D01*
%TO.N,Net-(GPS-NEO6M1-TX)*%
X164000000Y-136167200D02*
X164000000Y-140000000D01*
X129964000Y-123270000D02*
X139288600Y-123270000D01*
X146125800Y-118293000D02*
X164000000Y-136167200D01*
X144265600Y-118293000D02*
X146125800Y-118293000D01*
X139288600Y-123270000D02*
X144265600Y-118293000D01*
%TO.N,Net-(P4-Pin_2)*%
X124460000Y-140000000D02*
X119000000Y-140000000D01*
%TO.N,Net-(BMP180_Press1-VIN)*%
X129283700Y-127810000D02*
X128097700Y-126624000D01*
X129883500Y-118190000D02*
X129964000Y-118190000D01*
X145374000Y-127810000D02*
X129283700Y-127810000D01*
X128097700Y-119975800D02*
X129883500Y-118190000D01*
X128097700Y-126624000D02*
X128097700Y-119975800D01*
%TO.N,Net-(BMP180_Press1-SDA)*%
X147252800Y-129691300D02*
X150460000Y-132898500D01*
X147252800Y-121989100D02*
X147252800Y-129691300D01*
X150460000Y-132898500D02*
X150460000Y-140000000D01*
X145453700Y-120190000D02*
X147252800Y-121989100D01*
X94000000Y-124540000D02*
X119070600Y-124540000D01*
X145374000Y-120190000D02*
X145453700Y-120190000D01*
X124221900Y-129691300D02*
X147252800Y-129691300D01*
X119070600Y-124540000D02*
X124221900Y-129691300D01*
%TO.N,Net-(BMP180_Press1-SCL)*%
X109921000Y-135894100D02*
X101106900Y-127080000D01*
X101106900Y-127080000D02*
X94000000Y-127080000D01*
X143929700Y-135894100D02*
X109921000Y-135894100D01*
X147920000Y-139884400D02*
X143929700Y-135894100D01*
X147920000Y-140000000D02*
X147920000Y-139884400D01*
%TO.N,Net-(Lipo-1S-to-5V1-IN_3.7v)*%
X140256100Y-108835000D02*
X143216100Y-108835000D01*
X133723500Y-102073700D02*
X138000000Y-106350200D01*
X166921100Y-132540000D02*
X167000000Y-132540000D01*
X143216100Y-108835000D02*
X166921100Y-132540000D01*
X138000000Y-106500000D02*
X138000000Y-106578900D01*
X138000000Y-106578900D02*
X140256100Y-108835000D01*
X112000000Y-99000000D02*
X114164300Y-99000000D01*
X117238000Y-102073700D02*
X133723500Y-102073700D01*
X138000000Y-106350200D02*
X138000000Y-106500000D01*
X114164300Y-99000000D02*
X117238000Y-102073700D01*
%TD*%
M02*
