%TF.GenerationSoftware,KiCad,Pcbnew,7.0.11+dfsg-1build4*%
%TF.CreationDate,2024-10-07T04:22:03+02:00*%
%TF.ProjectId,BertheVarioTac-Shema,42657274-6865-4566-9172-696f5461632d,rev?*%
%TF.SameCoordinates,Original*%
%TF.FileFunction,Copper,L2,Bot*%
%TF.FilePolarity,Positive*%
%FSLAX46Y46*%
G04 Gerber Fmt 4.6, Leading zero omitted, Abs format (unit mm)*
G04 Created by KiCad (PCBNEW 7.0.11+dfsg-1build4) date 2024-10-07 04:22:03*
%MOMM*%
%LPD*%
G01*
G04 APERTURE LIST*
%TA.AperFunction,ComponentPad*%
%ADD10C,1.800000*%
%TD*%
%TA.AperFunction,ComponentPad*%
%ADD11C,1.600000*%
%TD*%
%TA.AperFunction,ComponentPad*%
%ADD12O,1.600000X1.600000*%
%TD*%
%TA.AperFunction,Conductor*%
%ADD13C,1.500000*%
%TD*%
G04 APERTURE END LIST*
D10*
%TO.P,SW1,1*%
%TO.N,Net-(Lipo-1S-to-5V1-IN_3.7v)*%
X167000000Y-132540000D03*
%TO.P,SW1,2*%
%TO.N,Net-(BT1-+)*%
X167000000Y-130000000D03*
%TD*%
%TO.P,Usb-C-charger1,1,B-*%
%TO.N,GNDREF*%
X168000000Y-104000000D03*
%TO.P,Usb-C-charger1,2,+*%
%TO.N,Net-(BT1-+)*%
X168000000Y-113000000D03*
%TD*%
D11*
%TO.P,R1,1*%
%TO.N,Net-(R1-Pad1)*%
X101840000Y-139000000D03*
D12*
%TO.P,R1,2*%
%TO.N,Net-(P4-Pin_1)*%
X112000000Y-139000000D03*
%TD*%
D10*
%TO.P,CN1,1,Pin_1*%
%TO.N,Net-(BMP180_Press1-VIN)*%
X153000000Y-140000000D03*
%TO.P,CN1,2,Pin_2*%
%TO.N,Net-(BMP180_Press1-SDA)*%
X150460000Y-140000000D03*
%TO.P,CN1,3,Pin_3*%
%TO.N,Net-(BMP180_Press1-SCL)*%
X147920000Y-140000000D03*
%TO.P,CN1,4,Pin_4*%
%TO.N,GNDREF*%
X145380000Y-140000000D03*
%TD*%
%TO.P,S1,1,1*%
%TO.N,Net-(P4-Pin_2)*%
X119000000Y-140000000D03*
%TO.P,S1,2,2*%
%TO.N,Net-(R1-Pad1)*%
X116460000Y-140000000D03*
%TD*%
%TO.P,P4,1,Pin_1*%
%TO.N,Net-(P4-Pin_1)*%
X127000000Y-140000000D03*
%TO.P,P4,2,Pin_2*%
%TO.N,Net-(P4-Pin_2)*%
X124460000Y-140000000D03*
%TD*%
%TO.P,GPS-NEO6M1,1,GND*%
%TO.N,GNDREF*%
X129964000Y-125810000D03*
%TO.P,GPS-NEO6M1,2,TX*%
%TO.N,Net-(GPS-NEO6M1-TX)*%
X129964000Y-123270000D03*
%TO.P,GPS-NEO6M1,3,RX*%
%TO.N,unconnected-(GPS-NEO6M1-RX-Pad3)*%
X129964000Y-120730000D03*
%TO.P,GPS-NEO6M1,4,VCC*%
%TO.N,Net-(BMP180_Press1-VIN)*%
X129964000Y-118190000D03*
%TD*%
%TO.P,Lipo-1S-to-5V1,1,OUT_5V*%
%TO.N,Net-(Lipo-1S-to-5V1-OUT_5V)*%
X135460000Y-106500000D03*
%TO.P,Lipo-1S-to-5V1,2,IN_3.7v*%
%TO.N,Net-(Lipo-1S-to-5V1-IN_3.7v)*%
X138000000Y-106500000D03*
%TO.P,Lipo-1S-to-5V1,3,GND*%
%TO.N,GNDREF*%
X140540000Y-106500000D03*
%TD*%
%TO.P,BT1,1,+*%
%TO.N,Net-(BT1-+)*%
X172000000Y-130000000D03*
%TO.P,BT1,2,-*%
%TO.N,GNDREF*%
X172000000Y-132540000D03*
%TD*%
%TO.P,QMC5883_Mag1,1,VCC*%
%TO.N,Net-(BMP180_Press1-VIN)*%
X94000000Y-132160000D03*
%TO.P,QMC5883_Mag1,2,GND*%
%TO.N,GNDREF*%
X94000000Y-129620000D03*
%TO.P,QMC5883_Mag1,3,SCL*%
%TO.N,Net-(BMP180_Press1-SCL)*%
X94000000Y-127080000D03*
%TO.P,QMC5883_Mag1,4,SDA*%
%TO.N,Net-(BMP180_Press1-SDA)*%
X94000000Y-124540000D03*
%TO.P,QMC5883_Mag1,5*%
%TO.N,N/C*%
X94000000Y-122000000D03*
%TD*%
%TO.P,P1,1,Pin_1*%
%TO.N,Net-(Lipo-1S-to-5V1-OUT_5V)*%
X166540000Y-140000000D03*
%TO.P,P1,2,Pin_2*%
%TO.N,Net-(GPS-NEO6M1-TX)*%
X164000000Y-140000000D03*
%TO.P,P1,3,Pin_3*%
%TO.N,unconnected-(P1-Pin_3-Pad3)*%
X161460000Y-140000000D03*
%TO.P,P1,4,Pin_4*%
%TO.N,GNDREF*%
X158920000Y-140000000D03*
%TD*%
%TO.P,P5,1,1*%
%TO.N,Net-(Lipo-1S-to-5V1-IN_3.7v)*%
X112000000Y-99000000D03*
%TO.P,P5,2,2*%
%TO.N,Net-(P3-Pin_3)*%
X114500000Y-103000000D03*
%TO.P,P5,3,3*%
%TO.N,GNDREF*%
X117000000Y-99000000D03*
%TD*%
%TO.P,BMP180_Press1,1,SDA*%
%TO.N,Net-(BMP180_Press1-SDA)*%
X145374000Y-120190000D03*
%TO.P,BMP180_Press1,2,SCL*%
%TO.N,Net-(BMP180_Press1-SCL)*%
X145374000Y-122730000D03*
%TO.P,BMP180_Press1,3,GND*%
%TO.N,GNDREF*%
X145374000Y-125270000D03*
%TO.P,BMP180_Press1,4,VIN*%
%TO.N,Net-(BMP180_Press1-VIN)*%
X145374000Y-127810000D03*
%TD*%
%TO.P,P3,1,Pin_1*%
%TO.N,unconnected-(P3-Pin_1-Pad1)*%
X140080000Y-140000000D03*
%TO.P,P3,2,Pin_2*%
%TO.N,unconnected-(P3-Pin_2-Pad2)*%
X137540000Y-140000000D03*
%TO.P,P3,3,Pin_3*%
%TO.N,Net-(P3-Pin_3)*%
X135000000Y-140000000D03*
%TO.P,P3,4,Pin_4*%
%TO.N,unconnected-(P3-Pin_4-Pad4)*%
X132460000Y-140000000D03*
%TD*%
D13*
%TO.N,Net-(R1-Pad1)*%
X101840000Y-139000000D02*
X103645100Y-137194900D01*
X113654900Y-137194900D02*
X116460000Y-140000000D01*
X103645100Y-137194900D02*
X113654900Y-137194900D01*
%TO.N,GNDREF*%
X146144300Y-118338100D02*
X147228600Y-119422400D01*
X168000000Y-104000000D02*
X173883200Y-109883200D01*
X115856600Y-99000000D02*
X117000000Y-99000000D01*
X172000000Y-132540000D02*
X167013600Y-137526400D01*
X144559400Y-110519400D02*
X144559400Y-118338100D01*
X146069600Y-124675900D02*
X145475500Y-125270000D01*
X173883200Y-109883200D02*
X173883200Y-130761800D01*
X141780700Y-136400700D02*
X141780700Y-121116800D01*
X145475500Y-125270000D02*
X145374000Y-125270000D01*
X140540000Y-106500000D02*
X144559400Y-110519400D01*
X147228600Y-119422400D02*
X147228600Y-123516900D01*
X145380000Y-140000000D02*
X141780700Y-136400700D01*
X103523700Y-120211900D02*
X103523700Y-111332900D01*
X158920000Y-137526400D02*
X146069600Y-124675900D01*
X167013600Y-137526400D02*
X158920000Y-137526400D01*
X173883200Y-130761800D02*
X172105000Y-132540000D01*
X172105000Y-132540000D02*
X172000000Y-132540000D01*
X141780700Y-121116800D02*
X144559400Y-118338100D01*
X147228600Y-123516900D02*
X146069600Y-124675900D01*
X94115600Y-129620000D02*
X103523700Y-120211900D01*
X144559400Y-118338100D02*
X146144300Y-118338100D01*
X158920000Y-137526400D02*
X158920000Y-140000000D01*
X103523700Y-111332900D02*
X115856600Y-99000000D01*
X94000000Y-129620000D02*
X94115600Y-129620000D01*
%TO.N,Net-(P3-Pin_3)*%
X114500000Y-103000000D02*
X117399100Y-103000000D01*
X135000000Y-120600900D02*
X135000000Y-140000000D01*
X117399100Y-103000000D02*
X135000000Y-120600900D01*
%TO.N,Net-(BMP180_Press1-VIN)*%
X102182000Y-132160000D02*
X94000000Y-132160000D01*
X116152000Y-118190000D02*
X102182000Y-132160000D01*
X153000000Y-135436000D02*
X153000000Y-140000000D01*
X145374000Y-127810000D02*
X153000000Y-135436000D01*
X129964000Y-118190000D02*
X116152000Y-118190000D01*
%TO.N,Net-(BMP180_Press1-SCL)*%
X145275700Y-122730000D02*
X145374000Y-122730000D01*
X143495500Y-129396500D02*
X143495500Y-124510200D01*
X147920000Y-133821000D02*
X143495500Y-129396500D01*
X143495500Y-124510200D02*
X145275700Y-122730000D01*
X147920000Y-140000000D02*
X147920000Y-133821000D01*
%TD*%
M02*
