%TF.GenerationSoftware,KiCad,Pcbnew,7.0.11+dfsg-1build4*%
%TF.CreationDate,2024-10-07T04:22:03+02:00*%
%TF.ProjectId,BertheVarioTac-Shema,42657274-6865-4566-9172-696f5461632d,rev?*%
%TF.SameCoordinates,Original*%
%TF.FileFunction,Legend,Top*%
%TF.FilePolarity,Positive*%
%FSLAX46Y46*%
G04 Gerber Fmt 4.6, Leading zero omitted, Abs format (unit mm)*
G04 Created by KiCad (PCBNEW 7.0.11+dfsg-1build4) date 2024-10-07 04:22:03*
%MOMM*%
%LPD*%
G01*
G04 APERTURE LIST*
%ADD10C,0.100000*%
%ADD11C,0.150000*%
%ADD12C,0.120000*%
%ADD13C,0.010000*%
G04 APERTURE END LIST*
D10*
X165409800Y-132873332D02*
X165457419Y-132730475D01*
X165457419Y-132730475D02*
X165457419Y-132492380D01*
X165457419Y-132492380D02*
X165409800Y-132397142D01*
X165409800Y-132397142D02*
X165362180Y-132349523D01*
X165362180Y-132349523D02*
X165266942Y-132301904D01*
X165266942Y-132301904D02*
X165171704Y-132301904D01*
X165171704Y-132301904D02*
X165076466Y-132349523D01*
X165076466Y-132349523D02*
X165028847Y-132397142D01*
X165028847Y-132397142D02*
X164981228Y-132492380D01*
X164981228Y-132492380D02*
X164933609Y-132682856D01*
X164933609Y-132682856D02*
X164885990Y-132778094D01*
X164885990Y-132778094D02*
X164838371Y-132825713D01*
X164838371Y-132825713D02*
X164743133Y-132873332D01*
X164743133Y-132873332D02*
X164647895Y-132873332D01*
X164647895Y-132873332D02*
X164552657Y-132825713D01*
X164552657Y-132825713D02*
X164505038Y-132778094D01*
X164505038Y-132778094D02*
X164457419Y-132682856D01*
X164457419Y-132682856D02*
X164457419Y-132444761D01*
X164457419Y-132444761D02*
X164505038Y-132301904D01*
X164457419Y-131968570D02*
X165457419Y-131730475D01*
X165457419Y-131730475D02*
X164743133Y-131539999D01*
X164743133Y-131539999D02*
X165457419Y-131349523D01*
X165457419Y-131349523D02*
X164457419Y-131111428D01*
X165457419Y-130206666D02*
X165457419Y-130778094D01*
X165457419Y-130492380D02*
X164457419Y-130492380D01*
X164457419Y-130492380D02*
X164600276Y-130587618D01*
X164600276Y-130587618D02*
X164695514Y-130682856D01*
X164695514Y-130682856D02*
X164743133Y-130778094D01*
X175542580Y-100809523D02*
X174733057Y-100809523D01*
X174733057Y-100809523D02*
X174637819Y-100857142D01*
X174637819Y-100857142D02*
X174590200Y-100904761D01*
X174590200Y-100904761D02*
X174542580Y-100999999D01*
X174542580Y-100999999D02*
X174542580Y-101190475D01*
X174542580Y-101190475D02*
X174590200Y-101285713D01*
X174590200Y-101285713D02*
X174637819Y-101333332D01*
X174637819Y-101333332D02*
X174733057Y-101380951D01*
X174733057Y-101380951D02*
X175542580Y-101380951D01*
X174590200Y-101809523D02*
X174542580Y-101904761D01*
X174542580Y-101904761D02*
X174542580Y-102095237D01*
X174542580Y-102095237D02*
X174590200Y-102190475D01*
X174590200Y-102190475D02*
X174685438Y-102238094D01*
X174685438Y-102238094D02*
X174733057Y-102238094D01*
X174733057Y-102238094D02*
X174828295Y-102190475D01*
X174828295Y-102190475D02*
X174875914Y-102095237D01*
X174875914Y-102095237D02*
X174875914Y-101952380D01*
X174875914Y-101952380D02*
X174923533Y-101857142D01*
X174923533Y-101857142D02*
X175018771Y-101809523D01*
X175018771Y-101809523D02*
X175066390Y-101809523D01*
X175066390Y-101809523D02*
X175161628Y-101857142D01*
X175161628Y-101857142D02*
X175209247Y-101952380D01*
X175209247Y-101952380D02*
X175209247Y-102095237D01*
X175209247Y-102095237D02*
X175161628Y-102190475D01*
X174542580Y-102666666D02*
X175542580Y-102666666D01*
X175161628Y-102666666D02*
X175209247Y-102761904D01*
X175209247Y-102761904D02*
X175209247Y-102952380D01*
X175209247Y-102952380D02*
X175161628Y-103047618D01*
X175161628Y-103047618D02*
X175114009Y-103095237D01*
X175114009Y-103095237D02*
X175018771Y-103142856D01*
X175018771Y-103142856D02*
X174733057Y-103142856D01*
X174733057Y-103142856D02*
X174637819Y-103095237D01*
X174637819Y-103095237D02*
X174590200Y-103047618D01*
X174590200Y-103047618D02*
X174542580Y-102952380D01*
X174542580Y-102952380D02*
X174542580Y-102761904D01*
X174542580Y-102761904D02*
X174590200Y-102666666D01*
X174923533Y-103571428D02*
X174923533Y-104333333D01*
X174637819Y-105380951D02*
X174590200Y-105333332D01*
X174590200Y-105333332D02*
X174542580Y-105190475D01*
X174542580Y-105190475D02*
X174542580Y-105095237D01*
X174542580Y-105095237D02*
X174590200Y-104952380D01*
X174590200Y-104952380D02*
X174685438Y-104857142D01*
X174685438Y-104857142D02*
X174780676Y-104809523D01*
X174780676Y-104809523D02*
X174971152Y-104761904D01*
X174971152Y-104761904D02*
X175114009Y-104761904D01*
X175114009Y-104761904D02*
X175304485Y-104809523D01*
X175304485Y-104809523D02*
X175399723Y-104857142D01*
X175399723Y-104857142D02*
X175494961Y-104952380D01*
X175494961Y-104952380D02*
X175542580Y-105095237D01*
X175542580Y-105095237D02*
X175542580Y-105190475D01*
X175542580Y-105190475D02*
X175494961Y-105333332D01*
X175494961Y-105333332D02*
X175447342Y-105380951D01*
X174923533Y-105809523D02*
X174923533Y-106571428D01*
X174590200Y-107476189D02*
X174542580Y-107380951D01*
X174542580Y-107380951D02*
X174542580Y-107190475D01*
X174542580Y-107190475D02*
X174590200Y-107095237D01*
X174590200Y-107095237D02*
X174637819Y-107047618D01*
X174637819Y-107047618D02*
X174733057Y-106999999D01*
X174733057Y-106999999D02*
X175018771Y-106999999D01*
X175018771Y-106999999D02*
X175114009Y-107047618D01*
X175114009Y-107047618D02*
X175161628Y-107095237D01*
X175161628Y-107095237D02*
X175209247Y-107190475D01*
X175209247Y-107190475D02*
X175209247Y-107380951D01*
X175209247Y-107380951D02*
X175161628Y-107476189D01*
X174542580Y-107904761D02*
X175542580Y-107904761D01*
X174542580Y-108333332D02*
X175066390Y-108333332D01*
X175066390Y-108333332D02*
X175161628Y-108285713D01*
X175161628Y-108285713D02*
X175209247Y-108190475D01*
X175209247Y-108190475D02*
X175209247Y-108047618D01*
X175209247Y-108047618D02*
X175161628Y-107952380D01*
X175161628Y-107952380D02*
X175114009Y-107904761D01*
X174542580Y-109238094D02*
X175066390Y-109238094D01*
X175066390Y-109238094D02*
X175161628Y-109190475D01*
X175161628Y-109190475D02*
X175209247Y-109095237D01*
X175209247Y-109095237D02*
X175209247Y-108904761D01*
X175209247Y-108904761D02*
X175161628Y-108809523D01*
X174590200Y-109238094D02*
X174542580Y-109142856D01*
X174542580Y-109142856D02*
X174542580Y-108904761D01*
X174542580Y-108904761D02*
X174590200Y-108809523D01*
X174590200Y-108809523D02*
X174685438Y-108761904D01*
X174685438Y-108761904D02*
X174780676Y-108761904D01*
X174780676Y-108761904D02*
X174875914Y-108809523D01*
X174875914Y-108809523D02*
X174923533Y-108904761D01*
X174923533Y-108904761D02*
X174923533Y-109142856D01*
X174923533Y-109142856D02*
X174971152Y-109238094D01*
X174542580Y-109714285D02*
X175209247Y-109714285D01*
X175018771Y-109714285D02*
X175114009Y-109761904D01*
X175114009Y-109761904D02*
X175161628Y-109809523D01*
X175161628Y-109809523D02*
X175209247Y-109904761D01*
X175209247Y-109904761D02*
X175209247Y-109999999D01*
X175209247Y-110761904D02*
X174399723Y-110761904D01*
X174399723Y-110761904D02*
X174304485Y-110714285D01*
X174304485Y-110714285D02*
X174256866Y-110666666D01*
X174256866Y-110666666D02*
X174209247Y-110571428D01*
X174209247Y-110571428D02*
X174209247Y-110428571D01*
X174209247Y-110428571D02*
X174256866Y-110333333D01*
X174590200Y-110761904D02*
X174542580Y-110666666D01*
X174542580Y-110666666D02*
X174542580Y-110476190D01*
X174542580Y-110476190D02*
X174590200Y-110380952D01*
X174590200Y-110380952D02*
X174637819Y-110333333D01*
X174637819Y-110333333D02*
X174733057Y-110285714D01*
X174733057Y-110285714D02*
X175018771Y-110285714D01*
X175018771Y-110285714D02*
X175114009Y-110333333D01*
X175114009Y-110333333D02*
X175161628Y-110380952D01*
X175161628Y-110380952D02*
X175209247Y-110476190D01*
X175209247Y-110476190D02*
X175209247Y-110666666D01*
X175209247Y-110666666D02*
X175161628Y-110761904D01*
X174590200Y-111619047D02*
X174542580Y-111523809D01*
X174542580Y-111523809D02*
X174542580Y-111333333D01*
X174542580Y-111333333D02*
X174590200Y-111238095D01*
X174590200Y-111238095D02*
X174685438Y-111190476D01*
X174685438Y-111190476D02*
X175066390Y-111190476D01*
X175066390Y-111190476D02*
X175161628Y-111238095D01*
X175161628Y-111238095D02*
X175209247Y-111333333D01*
X175209247Y-111333333D02*
X175209247Y-111523809D01*
X175209247Y-111523809D02*
X175161628Y-111619047D01*
X175161628Y-111619047D02*
X175066390Y-111666666D01*
X175066390Y-111666666D02*
X174971152Y-111666666D01*
X174971152Y-111666666D02*
X174875914Y-111190476D01*
X174542580Y-112095238D02*
X175209247Y-112095238D01*
X175018771Y-112095238D02*
X175114009Y-112142857D01*
X175114009Y-112142857D02*
X175161628Y-112190476D01*
X175161628Y-112190476D02*
X175209247Y-112285714D01*
X175209247Y-112285714D02*
X175209247Y-112380952D01*
X174542580Y-113238095D02*
X174542580Y-112666667D01*
X174542580Y-112952381D02*
X175542580Y-112952381D01*
X175542580Y-112952381D02*
X175399723Y-112857143D01*
X175399723Y-112857143D02*
X175304485Y-112761905D01*
X175304485Y-112761905D02*
X175256866Y-112666667D01*
X165508533Y-113303884D02*
X165508533Y-114065789D01*
X165127580Y-113684836D02*
X165889485Y-113684836D01*
X165651390Y-103637217D02*
X165603771Y-103780074D01*
X165603771Y-103780074D02*
X165556152Y-103827693D01*
X165556152Y-103827693D02*
X165460914Y-103875312D01*
X165460914Y-103875312D02*
X165318057Y-103875312D01*
X165318057Y-103875312D02*
X165222819Y-103827693D01*
X165222819Y-103827693D02*
X165175200Y-103780074D01*
X165175200Y-103780074D02*
X165127580Y-103684836D01*
X165127580Y-103684836D02*
X165127580Y-103303884D01*
X165127580Y-103303884D02*
X166127580Y-103303884D01*
X166127580Y-103303884D02*
X166127580Y-103637217D01*
X166127580Y-103637217D02*
X166079961Y-103732455D01*
X166079961Y-103732455D02*
X166032342Y-103780074D01*
X166032342Y-103780074D02*
X165937104Y-103827693D01*
X165937104Y-103827693D02*
X165841866Y-103827693D01*
X165841866Y-103827693D02*
X165746628Y-103780074D01*
X165746628Y-103780074D02*
X165699009Y-103732455D01*
X165699009Y-103732455D02*
X165651390Y-103637217D01*
X165651390Y-103637217D02*
X165651390Y-103303884D01*
X165508533Y-104303884D02*
X165508533Y-105065789D01*
D11*
X106753333Y-137084819D02*
X106420000Y-136608628D01*
X106181905Y-137084819D02*
X106181905Y-136084819D01*
X106181905Y-136084819D02*
X106562857Y-136084819D01*
X106562857Y-136084819D02*
X106658095Y-136132438D01*
X106658095Y-136132438D02*
X106705714Y-136180057D01*
X106705714Y-136180057D02*
X106753333Y-136275295D01*
X106753333Y-136275295D02*
X106753333Y-136418152D01*
X106753333Y-136418152D02*
X106705714Y-136513390D01*
X106705714Y-136513390D02*
X106658095Y-136561009D01*
X106658095Y-136561009D02*
X106562857Y-136608628D01*
X106562857Y-136608628D02*
X106181905Y-136608628D01*
X107705714Y-137084819D02*
X107134286Y-137084819D01*
X107420000Y-137084819D02*
X107420000Y-136084819D01*
X107420000Y-136084819D02*
X107324762Y-136227676D01*
X107324762Y-136227676D02*
X107229524Y-136322914D01*
X107229524Y-136322914D02*
X107134286Y-136370533D01*
D10*
X148309523Y-138362180D02*
X148261904Y-138409800D01*
X148261904Y-138409800D02*
X148119047Y-138457419D01*
X148119047Y-138457419D02*
X148023809Y-138457419D01*
X148023809Y-138457419D02*
X147880952Y-138409800D01*
X147880952Y-138409800D02*
X147785714Y-138314561D01*
X147785714Y-138314561D02*
X147738095Y-138219323D01*
X147738095Y-138219323D02*
X147690476Y-138028847D01*
X147690476Y-138028847D02*
X147690476Y-137885990D01*
X147690476Y-137885990D02*
X147738095Y-137695514D01*
X147738095Y-137695514D02*
X147785714Y-137600276D01*
X147785714Y-137600276D02*
X147880952Y-137505038D01*
X147880952Y-137505038D02*
X148023809Y-137457419D01*
X148023809Y-137457419D02*
X148119047Y-137457419D01*
X148119047Y-137457419D02*
X148261904Y-137505038D01*
X148261904Y-137505038D02*
X148309523Y-137552657D01*
X148738095Y-138457419D02*
X148738095Y-137457419D01*
X148738095Y-137457419D02*
X149309523Y-138457419D01*
X149309523Y-138457419D02*
X149309523Y-137457419D01*
X150309523Y-138457419D02*
X149738095Y-138457419D01*
X150023809Y-138457419D02*
X150023809Y-137457419D01*
X150023809Y-137457419D02*
X149928571Y-137600276D01*
X149928571Y-137600276D02*
X149833333Y-137695514D01*
X149833333Y-137695514D02*
X149738095Y-137743133D01*
X143380038Y-141172306D02*
X143332419Y-141267544D01*
X143332419Y-141267544D02*
X143332419Y-141410401D01*
X143332419Y-141410401D02*
X143380038Y-141553258D01*
X143380038Y-141553258D02*
X143475276Y-141648496D01*
X143475276Y-141648496D02*
X143570514Y-141696115D01*
X143570514Y-141696115D02*
X143760990Y-141743734D01*
X143760990Y-141743734D02*
X143903847Y-141743734D01*
X143903847Y-141743734D02*
X144094323Y-141696115D01*
X144094323Y-141696115D02*
X144189561Y-141648496D01*
X144189561Y-141648496D02*
X144284800Y-141553258D01*
X144284800Y-141553258D02*
X144332419Y-141410401D01*
X144332419Y-141410401D02*
X144332419Y-141315163D01*
X144332419Y-141315163D02*
X144284800Y-141172306D01*
X144284800Y-141172306D02*
X144237180Y-141124687D01*
X144237180Y-141124687D02*
X143903847Y-141124687D01*
X143903847Y-141124687D02*
X143903847Y-141315163D01*
X144332419Y-140696115D02*
X143332419Y-140696115D01*
X143332419Y-140696115D02*
X144332419Y-140124687D01*
X144332419Y-140124687D02*
X143332419Y-140124687D01*
X144332419Y-139648496D02*
X143332419Y-139648496D01*
X143332419Y-139648496D02*
X143332419Y-139410401D01*
X143332419Y-139410401D02*
X143380038Y-139267544D01*
X143380038Y-139267544D02*
X143475276Y-139172306D01*
X143475276Y-139172306D02*
X143570514Y-139124687D01*
X143570514Y-139124687D02*
X143760990Y-139077068D01*
X143760990Y-139077068D02*
X143903847Y-139077068D01*
X143903847Y-139077068D02*
X144094323Y-139124687D01*
X144094323Y-139124687D02*
X144189561Y-139172306D01*
X144189561Y-139172306D02*
X144284800Y-139267544D01*
X144284800Y-139267544D02*
X144332419Y-139410401D01*
X144332419Y-139410401D02*
X144332419Y-139648496D01*
X117238095Y-138409800D02*
X117380952Y-138457419D01*
X117380952Y-138457419D02*
X117619047Y-138457419D01*
X117619047Y-138457419D02*
X117714285Y-138409800D01*
X117714285Y-138409800D02*
X117761904Y-138362180D01*
X117761904Y-138362180D02*
X117809523Y-138266942D01*
X117809523Y-138266942D02*
X117809523Y-138171704D01*
X117809523Y-138171704D02*
X117761904Y-138076466D01*
X117761904Y-138076466D02*
X117714285Y-138028847D01*
X117714285Y-138028847D02*
X117619047Y-137981228D01*
X117619047Y-137981228D02*
X117428571Y-137933609D01*
X117428571Y-137933609D02*
X117333333Y-137885990D01*
X117333333Y-137885990D02*
X117285714Y-137838371D01*
X117285714Y-137838371D02*
X117238095Y-137743133D01*
X117238095Y-137743133D02*
X117238095Y-137647895D01*
X117238095Y-137647895D02*
X117285714Y-137552657D01*
X117285714Y-137552657D02*
X117333333Y-137505038D01*
X117333333Y-137505038D02*
X117428571Y-137457419D01*
X117428571Y-137457419D02*
X117666666Y-137457419D01*
X117666666Y-137457419D02*
X117809523Y-137505038D01*
X118761904Y-138457419D02*
X118190476Y-138457419D01*
X118476190Y-138457419D02*
X118476190Y-137457419D01*
X118476190Y-137457419D02*
X118380952Y-137600276D01*
X118380952Y-137600276D02*
X118285714Y-137695514D01*
X118285714Y-137695514D02*
X118190476Y-137743133D01*
X125261905Y-138457419D02*
X125261905Y-137457419D01*
X125261905Y-137457419D02*
X125642857Y-137457419D01*
X125642857Y-137457419D02*
X125738095Y-137505038D01*
X125738095Y-137505038D02*
X125785714Y-137552657D01*
X125785714Y-137552657D02*
X125833333Y-137647895D01*
X125833333Y-137647895D02*
X125833333Y-137790752D01*
X125833333Y-137790752D02*
X125785714Y-137885990D01*
X125785714Y-137885990D02*
X125738095Y-137933609D01*
X125738095Y-137933609D02*
X125642857Y-137981228D01*
X125642857Y-137981228D02*
X125261905Y-137981228D01*
X126690476Y-137790752D02*
X126690476Y-138457419D01*
X126452381Y-137409800D02*
X126214286Y-138124085D01*
X126214286Y-138124085D02*
X126833333Y-138124085D01*
X115505038Y-126357142D02*
X115457419Y-126452380D01*
X115457419Y-126452380D02*
X115457419Y-126595237D01*
X115457419Y-126595237D02*
X115505038Y-126738094D01*
X115505038Y-126738094D02*
X115600276Y-126833332D01*
X115600276Y-126833332D02*
X115695514Y-126880951D01*
X115695514Y-126880951D02*
X115885990Y-126928570D01*
X115885990Y-126928570D02*
X116028847Y-126928570D01*
X116028847Y-126928570D02*
X116219323Y-126880951D01*
X116219323Y-126880951D02*
X116314561Y-126833332D01*
X116314561Y-126833332D02*
X116409800Y-126738094D01*
X116409800Y-126738094D02*
X116457419Y-126595237D01*
X116457419Y-126595237D02*
X116457419Y-126499999D01*
X116457419Y-126499999D02*
X116409800Y-126357142D01*
X116409800Y-126357142D02*
X116362180Y-126309523D01*
X116362180Y-126309523D02*
X116028847Y-126309523D01*
X116028847Y-126309523D02*
X116028847Y-126499999D01*
X116457419Y-125880951D02*
X115457419Y-125880951D01*
X115457419Y-125880951D02*
X115457419Y-125499999D01*
X115457419Y-125499999D02*
X115505038Y-125404761D01*
X115505038Y-125404761D02*
X115552657Y-125357142D01*
X115552657Y-125357142D02*
X115647895Y-125309523D01*
X115647895Y-125309523D02*
X115790752Y-125309523D01*
X115790752Y-125309523D02*
X115885990Y-125357142D01*
X115885990Y-125357142D02*
X115933609Y-125404761D01*
X115933609Y-125404761D02*
X115981228Y-125499999D01*
X115981228Y-125499999D02*
X115981228Y-125880951D01*
X116409800Y-124928570D02*
X116457419Y-124785713D01*
X116457419Y-124785713D02*
X116457419Y-124547618D01*
X116457419Y-124547618D02*
X116409800Y-124452380D01*
X116409800Y-124452380D02*
X116362180Y-124404761D01*
X116362180Y-124404761D02*
X116266942Y-124357142D01*
X116266942Y-124357142D02*
X116171704Y-124357142D01*
X116171704Y-124357142D02*
X116076466Y-124404761D01*
X116076466Y-124404761D02*
X116028847Y-124452380D01*
X116028847Y-124452380D02*
X115981228Y-124547618D01*
X115981228Y-124547618D02*
X115933609Y-124738094D01*
X115933609Y-124738094D02*
X115885990Y-124833332D01*
X115885990Y-124833332D02*
X115838371Y-124880951D01*
X115838371Y-124880951D02*
X115743133Y-124928570D01*
X115743133Y-124928570D02*
X115647895Y-124928570D01*
X115647895Y-124928570D02*
X115552657Y-124880951D01*
X115552657Y-124880951D02*
X115505038Y-124833332D01*
X115505038Y-124833332D02*
X115457419Y-124738094D01*
X115457419Y-124738094D02*
X115457419Y-124499999D01*
X115457419Y-124499999D02*
X115505038Y-124357142D01*
X116076466Y-123928570D02*
X116076466Y-123166666D01*
X116457419Y-122690475D02*
X115457419Y-122690475D01*
X115457419Y-122690475D02*
X116457419Y-122119047D01*
X116457419Y-122119047D02*
X115457419Y-122119047D01*
X115933609Y-121642856D02*
X115933609Y-121309523D01*
X116457419Y-121166666D02*
X116457419Y-121642856D01*
X116457419Y-121642856D02*
X115457419Y-121642856D01*
X115457419Y-121642856D02*
X115457419Y-121166666D01*
X115457419Y-120547618D02*
X115457419Y-120357142D01*
X115457419Y-120357142D02*
X115505038Y-120261904D01*
X115505038Y-120261904D02*
X115600276Y-120166666D01*
X115600276Y-120166666D02*
X115790752Y-120119047D01*
X115790752Y-120119047D02*
X116124085Y-120119047D01*
X116124085Y-120119047D02*
X116314561Y-120166666D01*
X116314561Y-120166666D02*
X116409800Y-120261904D01*
X116409800Y-120261904D02*
X116457419Y-120357142D01*
X116457419Y-120357142D02*
X116457419Y-120547618D01*
X116457419Y-120547618D02*
X116409800Y-120642856D01*
X116409800Y-120642856D02*
X116314561Y-120738094D01*
X116314561Y-120738094D02*
X116124085Y-120785713D01*
X116124085Y-120785713D02*
X115790752Y-120785713D01*
X115790752Y-120785713D02*
X115600276Y-120738094D01*
X115600276Y-120738094D02*
X115505038Y-120642856D01*
X115505038Y-120642856D02*
X115457419Y-120547618D01*
X115457419Y-119261904D02*
X115457419Y-119452380D01*
X115457419Y-119452380D02*
X115505038Y-119547618D01*
X115505038Y-119547618D02*
X115552657Y-119595237D01*
X115552657Y-119595237D02*
X115695514Y-119690475D01*
X115695514Y-119690475D02*
X115885990Y-119738094D01*
X115885990Y-119738094D02*
X116266942Y-119738094D01*
X116266942Y-119738094D02*
X116362180Y-119690475D01*
X116362180Y-119690475D02*
X116409800Y-119642856D01*
X116409800Y-119642856D02*
X116457419Y-119547618D01*
X116457419Y-119547618D02*
X116457419Y-119357142D01*
X116457419Y-119357142D02*
X116409800Y-119261904D01*
X116409800Y-119261904D02*
X116362180Y-119214285D01*
X116362180Y-119214285D02*
X116266942Y-119166666D01*
X116266942Y-119166666D02*
X116028847Y-119166666D01*
X116028847Y-119166666D02*
X115933609Y-119214285D01*
X115933609Y-119214285D02*
X115885990Y-119261904D01*
X115885990Y-119261904D02*
X115838371Y-119357142D01*
X115838371Y-119357142D02*
X115838371Y-119547618D01*
X115838371Y-119547618D02*
X115885990Y-119642856D01*
X115885990Y-119642856D02*
X115933609Y-119690475D01*
X115933609Y-119690475D02*
X116028847Y-119738094D01*
X116457419Y-118738094D02*
X115457419Y-118738094D01*
X115457419Y-118738094D02*
X116171704Y-118404761D01*
X116171704Y-118404761D02*
X115457419Y-118071428D01*
X115457419Y-118071428D02*
X116457419Y-118071428D01*
X116457419Y-117071428D02*
X116457419Y-117642856D01*
X116457419Y-117357142D02*
X115457419Y-117357142D01*
X115457419Y-117357142D02*
X115600276Y-117452380D01*
X115600276Y-117452380D02*
X115695514Y-117547618D01*
X115695514Y-117547618D02*
X115743133Y-117642856D01*
X131872419Y-117838972D02*
X132872419Y-117505639D01*
X132872419Y-117505639D02*
X131872419Y-117172306D01*
X132777180Y-116267544D02*
X132824800Y-116315163D01*
X132824800Y-116315163D02*
X132872419Y-116458020D01*
X132872419Y-116458020D02*
X132872419Y-116553258D01*
X132872419Y-116553258D02*
X132824800Y-116696115D01*
X132824800Y-116696115D02*
X132729561Y-116791353D01*
X132729561Y-116791353D02*
X132634323Y-116838972D01*
X132634323Y-116838972D02*
X132443847Y-116886591D01*
X132443847Y-116886591D02*
X132300990Y-116886591D01*
X132300990Y-116886591D02*
X132110514Y-116838972D01*
X132110514Y-116838972D02*
X132015276Y-116791353D01*
X132015276Y-116791353D02*
X131920038Y-116696115D01*
X131920038Y-116696115D02*
X131872419Y-116553258D01*
X131872419Y-116553258D02*
X131872419Y-116458020D01*
X131872419Y-116458020D02*
X131920038Y-116315163D01*
X131920038Y-116315163D02*
X131967657Y-116267544D01*
X132777180Y-115267544D02*
X132824800Y-115315163D01*
X132824800Y-115315163D02*
X132872419Y-115458020D01*
X132872419Y-115458020D02*
X132872419Y-115553258D01*
X132872419Y-115553258D02*
X132824800Y-115696115D01*
X132824800Y-115696115D02*
X132729561Y-115791353D01*
X132729561Y-115791353D02*
X132634323Y-115838972D01*
X132634323Y-115838972D02*
X132443847Y-115886591D01*
X132443847Y-115886591D02*
X132300990Y-115886591D01*
X132300990Y-115886591D02*
X132110514Y-115838972D01*
X132110514Y-115838972D02*
X132015276Y-115791353D01*
X132015276Y-115791353D02*
X131920038Y-115696115D01*
X131920038Y-115696115D02*
X131872419Y-115553258D01*
X131872419Y-115553258D02*
X131872419Y-115458020D01*
X131872419Y-115458020D02*
X131920038Y-115315163D01*
X131920038Y-115315163D02*
X131967657Y-115267544D01*
X131920038Y-127172306D02*
X131872419Y-127267544D01*
X131872419Y-127267544D02*
X131872419Y-127410401D01*
X131872419Y-127410401D02*
X131920038Y-127553258D01*
X131920038Y-127553258D02*
X132015276Y-127648496D01*
X132015276Y-127648496D02*
X132110514Y-127696115D01*
X132110514Y-127696115D02*
X132300990Y-127743734D01*
X132300990Y-127743734D02*
X132443847Y-127743734D01*
X132443847Y-127743734D02*
X132634323Y-127696115D01*
X132634323Y-127696115D02*
X132729561Y-127648496D01*
X132729561Y-127648496D02*
X132824800Y-127553258D01*
X132824800Y-127553258D02*
X132872419Y-127410401D01*
X132872419Y-127410401D02*
X132872419Y-127315163D01*
X132872419Y-127315163D02*
X132824800Y-127172306D01*
X132824800Y-127172306D02*
X132777180Y-127124687D01*
X132777180Y-127124687D02*
X132443847Y-127124687D01*
X132443847Y-127124687D02*
X132443847Y-127315163D01*
X132872419Y-126696115D02*
X131872419Y-126696115D01*
X131872419Y-126696115D02*
X132872419Y-126124687D01*
X132872419Y-126124687D02*
X131872419Y-126124687D01*
X132872419Y-125648496D02*
X131872419Y-125648496D01*
X131872419Y-125648496D02*
X131872419Y-125410401D01*
X131872419Y-125410401D02*
X131920038Y-125267544D01*
X131920038Y-125267544D02*
X132015276Y-125172306D01*
X132015276Y-125172306D02*
X132110514Y-125124687D01*
X132110514Y-125124687D02*
X132300990Y-125077068D01*
X132300990Y-125077068D02*
X132443847Y-125077068D01*
X132443847Y-125077068D02*
X132634323Y-125124687D01*
X132634323Y-125124687D02*
X132729561Y-125172306D01*
X132729561Y-125172306D02*
X132824800Y-125267544D01*
X132824800Y-125267544D02*
X132872419Y-125410401D01*
X132872419Y-125410401D02*
X132872419Y-125648496D01*
X131872419Y-123838972D02*
X131872419Y-123267544D01*
X132872419Y-123553258D02*
X131872419Y-123553258D01*
X132872419Y-123029448D02*
X132205752Y-122505639D01*
X132205752Y-123029448D02*
X132872419Y-122505639D01*
X132238095Y-100457419D02*
X131761905Y-100457419D01*
X131761905Y-100457419D02*
X131761905Y-99457419D01*
X132571429Y-100457419D02*
X132571429Y-99790752D01*
X132571429Y-99457419D02*
X132523810Y-99505038D01*
X132523810Y-99505038D02*
X132571429Y-99552657D01*
X132571429Y-99552657D02*
X132619048Y-99505038D01*
X132619048Y-99505038D02*
X132571429Y-99457419D01*
X132571429Y-99457419D02*
X132571429Y-99552657D01*
X133047619Y-99790752D02*
X133047619Y-100790752D01*
X133047619Y-99838371D02*
X133142857Y-99790752D01*
X133142857Y-99790752D02*
X133333333Y-99790752D01*
X133333333Y-99790752D02*
X133428571Y-99838371D01*
X133428571Y-99838371D02*
X133476190Y-99885990D01*
X133476190Y-99885990D02*
X133523809Y-99981228D01*
X133523809Y-99981228D02*
X133523809Y-100266942D01*
X133523809Y-100266942D02*
X133476190Y-100362180D01*
X133476190Y-100362180D02*
X133428571Y-100409800D01*
X133428571Y-100409800D02*
X133333333Y-100457419D01*
X133333333Y-100457419D02*
X133142857Y-100457419D01*
X133142857Y-100457419D02*
X133047619Y-100409800D01*
X134095238Y-100457419D02*
X134000000Y-100409800D01*
X134000000Y-100409800D02*
X133952381Y-100362180D01*
X133952381Y-100362180D02*
X133904762Y-100266942D01*
X133904762Y-100266942D02*
X133904762Y-99981228D01*
X133904762Y-99981228D02*
X133952381Y-99885990D01*
X133952381Y-99885990D02*
X134000000Y-99838371D01*
X134000000Y-99838371D02*
X134095238Y-99790752D01*
X134095238Y-99790752D02*
X134238095Y-99790752D01*
X134238095Y-99790752D02*
X134333333Y-99838371D01*
X134333333Y-99838371D02*
X134380952Y-99885990D01*
X134380952Y-99885990D02*
X134428571Y-99981228D01*
X134428571Y-99981228D02*
X134428571Y-100266942D01*
X134428571Y-100266942D02*
X134380952Y-100362180D01*
X134380952Y-100362180D02*
X134333333Y-100409800D01*
X134333333Y-100409800D02*
X134238095Y-100457419D01*
X134238095Y-100457419D02*
X134095238Y-100457419D01*
X134857143Y-100076466D02*
X135619048Y-100076466D01*
X136619047Y-100457419D02*
X136047619Y-100457419D01*
X136333333Y-100457419D02*
X136333333Y-99457419D01*
X136333333Y-99457419D02*
X136238095Y-99600276D01*
X136238095Y-99600276D02*
X136142857Y-99695514D01*
X136142857Y-99695514D02*
X136047619Y-99743133D01*
X137000000Y-100409800D02*
X137142857Y-100457419D01*
X137142857Y-100457419D02*
X137380952Y-100457419D01*
X137380952Y-100457419D02*
X137476190Y-100409800D01*
X137476190Y-100409800D02*
X137523809Y-100362180D01*
X137523809Y-100362180D02*
X137571428Y-100266942D01*
X137571428Y-100266942D02*
X137571428Y-100171704D01*
X137571428Y-100171704D02*
X137523809Y-100076466D01*
X137523809Y-100076466D02*
X137476190Y-100028847D01*
X137476190Y-100028847D02*
X137380952Y-99981228D01*
X137380952Y-99981228D02*
X137190476Y-99933609D01*
X137190476Y-99933609D02*
X137095238Y-99885990D01*
X137095238Y-99885990D02*
X137047619Y-99838371D01*
X137047619Y-99838371D02*
X137000000Y-99743133D01*
X137000000Y-99743133D02*
X137000000Y-99647895D01*
X137000000Y-99647895D02*
X137047619Y-99552657D01*
X137047619Y-99552657D02*
X137095238Y-99505038D01*
X137095238Y-99505038D02*
X137190476Y-99457419D01*
X137190476Y-99457419D02*
X137428571Y-99457419D01*
X137428571Y-99457419D02*
X137571428Y-99505038D01*
X138000000Y-100076466D02*
X138761905Y-100076466D01*
X139095238Y-99790752D02*
X139476190Y-99790752D01*
X139238095Y-99457419D02*
X139238095Y-100314561D01*
X139238095Y-100314561D02*
X139285714Y-100409800D01*
X139285714Y-100409800D02*
X139380952Y-100457419D01*
X139380952Y-100457419D02*
X139476190Y-100457419D01*
X139952381Y-100457419D02*
X139857143Y-100409800D01*
X139857143Y-100409800D02*
X139809524Y-100362180D01*
X139809524Y-100362180D02*
X139761905Y-100266942D01*
X139761905Y-100266942D02*
X139761905Y-99981228D01*
X139761905Y-99981228D02*
X139809524Y-99885990D01*
X139809524Y-99885990D02*
X139857143Y-99838371D01*
X139857143Y-99838371D02*
X139952381Y-99790752D01*
X139952381Y-99790752D02*
X140095238Y-99790752D01*
X140095238Y-99790752D02*
X140190476Y-99838371D01*
X140190476Y-99838371D02*
X140238095Y-99885990D01*
X140238095Y-99885990D02*
X140285714Y-99981228D01*
X140285714Y-99981228D02*
X140285714Y-100266942D01*
X140285714Y-100266942D02*
X140238095Y-100362180D01*
X140238095Y-100362180D02*
X140190476Y-100409800D01*
X140190476Y-100409800D02*
X140095238Y-100457419D01*
X140095238Y-100457419D02*
X139952381Y-100457419D01*
X140714286Y-100076466D02*
X141476191Y-100076466D01*
X142428571Y-99457419D02*
X141952381Y-99457419D01*
X141952381Y-99457419D02*
X141904762Y-99933609D01*
X141904762Y-99933609D02*
X141952381Y-99885990D01*
X141952381Y-99885990D02*
X142047619Y-99838371D01*
X142047619Y-99838371D02*
X142285714Y-99838371D01*
X142285714Y-99838371D02*
X142380952Y-99885990D01*
X142380952Y-99885990D02*
X142428571Y-99933609D01*
X142428571Y-99933609D02*
X142476190Y-100028847D01*
X142476190Y-100028847D02*
X142476190Y-100266942D01*
X142476190Y-100266942D02*
X142428571Y-100362180D01*
X142428571Y-100362180D02*
X142380952Y-100409800D01*
X142380952Y-100409800D02*
X142285714Y-100457419D01*
X142285714Y-100457419D02*
X142047619Y-100457419D01*
X142047619Y-100457419D02*
X141952381Y-100409800D01*
X141952381Y-100409800D02*
X141904762Y-100362180D01*
X142761905Y-99457419D02*
X143095238Y-100457419D01*
X143095238Y-100457419D02*
X143428571Y-99457419D01*
X144285714Y-100457419D02*
X143714286Y-100457419D01*
X144000000Y-100457419D02*
X144000000Y-99457419D01*
X144000000Y-99457419D02*
X143904762Y-99600276D01*
X143904762Y-99600276D02*
X143809524Y-99695514D01*
X143809524Y-99695514D02*
X143714286Y-99743133D01*
X140827693Y-107920038D02*
X140732455Y-107872419D01*
X140732455Y-107872419D02*
X140589598Y-107872419D01*
X140589598Y-107872419D02*
X140446741Y-107920038D01*
X140446741Y-107920038D02*
X140351503Y-108015276D01*
X140351503Y-108015276D02*
X140303884Y-108110514D01*
X140303884Y-108110514D02*
X140256265Y-108300990D01*
X140256265Y-108300990D02*
X140256265Y-108443847D01*
X140256265Y-108443847D02*
X140303884Y-108634323D01*
X140303884Y-108634323D02*
X140351503Y-108729561D01*
X140351503Y-108729561D02*
X140446741Y-108824800D01*
X140446741Y-108824800D02*
X140589598Y-108872419D01*
X140589598Y-108872419D02*
X140684836Y-108872419D01*
X140684836Y-108872419D02*
X140827693Y-108824800D01*
X140827693Y-108824800D02*
X140875312Y-108777180D01*
X140875312Y-108777180D02*
X140875312Y-108443847D01*
X140875312Y-108443847D02*
X140684836Y-108443847D01*
X141303884Y-108872419D02*
X141303884Y-107872419D01*
X141303884Y-107872419D02*
X141875312Y-108872419D01*
X141875312Y-108872419D02*
X141875312Y-107872419D01*
X142351503Y-108872419D02*
X142351503Y-107872419D01*
X142351503Y-107872419D02*
X142589598Y-107872419D01*
X142589598Y-107872419D02*
X142732455Y-107920038D01*
X142732455Y-107920038D02*
X142827693Y-108015276D01*
X142827693Y-108015276D02*
X142875312Y-108110514D01*
X142875312Y-108110514D02*
X142922931Y-108300990D01*
X142922931Y-108300990D02*
X142922931Y-108443847D01*
X142922931Y-108443847D02*
X142875312Y-108634323D01*
X142875312Y-108634323D02*
X142827693Y-108729561D01*
X142827693Y-108729561D02*
X142732455Y-108824800D01*
X142732455Y-108824800D02*
X142589598Y-108872419D01*
X142589598Y-108872419D02*
X142351503Y-108872419D01*
X134780074Y-107872419D02*
X134303884Y-107872419D01*
X134303884Y-107872419D02*
X134256265Y-108348609D01*
X134256265Y-108348609D02*
X134303884Y-108300990D01*
X134303884Y-108300990D02*
X134399122Y-108253371D01*
X134399122Y-108253371D02*
X134637217Y-108253371D01*
X134637217Y-108253371D02*
X134732455Y-108300990D01*
X134732455Y-108300990D02*
X134780074Y-108348609D01*
X134780074Y-108348609D02*
X134827693Y-108443847D01*
X134827693Y-108443847D02*
X134827693Y-108681942D01*
X134827693Y-108681942D02*
X134780074Y-108777180D01*
X134780074Y-108777180D02*
X134732455Y-108824800D01*
X134732455Y-108824800D02*
X134637217Y-108872419D01*
X134637217Y-108872419D02*
X134399122Y-108872419D01*
X134399122Y-108872419D02*
X134303884Y-108824800D01*
X134303884Y-108824800D02*
X134256265Y-108777180D01*
X135113408Y-107872419D02*
X135446741Y-108872419D01*
X135446741Y-108872419D02*
X135780074Y-107872419D01*
X137827693Y-108872419D02*
X137256265Y-108872419D01*
X137541979Y-108872419D02*
X137541979Y-107872419D01*
X137541979Y-107872419D02*
X137446741Y-108015276D01*
X137446741Y-108015276D02*
X137351503Y-108110514D01*
X137351503Y-108110514D02*
X137256265Y-108158133D01*
X138208646Y-108824800D02*
X138351503Y-108872419D01*
X138351503Y-108872419D02*
X138589598Y-108872419D01*
X138589598Y-108872419D02*
X138684836Y-108824800D01*
X138684836Y-108824800D02*
X138732455Y-108777180D01*
X138732455Y-108777180D02*
X138780074Y-108681942D01*
X138780074Y-108681942D02*
X138780074Y-108586704D01*
X138780074Y-108586704D02*
X138732455Y-108491466D01*
X138732455Y-108491466D02*
X138684836Y-108443847D01*
X138684836Y-108443847D02*
X138589598Y-108396228D01*
X138589598Y-108396228D02*
X138399122Y-108348609D01*
X138399122Y-108348609D02*
X138303884Y-108300990D01*
X138303884Y-108300990D02*
X138256265Y-108253371D01*
X138256265Y-108253371D02*
X138208646Y-108158133D01*
X138208646Y-108158133D02*
X138208646Y-108062895D01*
X138208646Y-108062895D02*
X138256265Y-107967657D01*
X138256265Y-107967657D02*
X138303884Y-107920038D01*
X138303884Y-107920038D02*
X138399122Y-107872419D01*
X138399122Y-107872419D02*
X138637217Y-107872419D01*
X138637217Y-107872419D02*
X138780074Y-107920038D01*
X169933609Y-131785714D02*
X169981228Y-131642857D01*
X169981228Y-131642857D02*
X170028847Y-131595238D01*
X170028847Y-131595238D02*
X170124085Y-131547619D01*
X170124085Y-131547619D02*
X170266942Y-131547619D01*
X170266942Y-131547619D02*
X170362180Y-131595238D01*
X170362180Y-131595238D02*
X170409800Y-131642857D01*
X170409800Y-131642857D02*
X170457419Y-131738095D01*
X170457419Y-131738095D02*
X170457419Y-132119047D01*
X170457419Y-132119047D02*
X169457419Y-132119047D01*
X169457419Y-132119047D02*
X169457419Y-131785714D01*
X169457419Y-131785714D02*
X169505038Y-131690476D01*
X169505038Y-131690476D02*
X169552657Y-131642857D01*
X169552657Y-131642857D02*
X169647895Y-131595238D01*
X169647895Y-131595238D02*
X169743133Y-131595238D01*
X169743133Y-131595238D02*
X169838371Y-131642857D01*
X169838371Y-131642857D02*
X169885990Y-131690476D01*
X169885990Y-131690476D02*
X169933609Y-131785714D01*
X169933609Y-131785714D02*
X169933609Y-132119047D01*
X169457419Y-131261904D02*
X169457419Y-130690476D01*
X170457419Y-130976190D02*
X169457419Y-130976190D01*
X170457419Y-129833333D02*
X170457419Y-130404761D01*
X170457419Y-130119047D02*
X169457419Y-130119047D01*
X169457419Y-130119047D02*
X169600276Y-130214285D01*
X169600276Y-130214285D02*
X169695514Y-130309523D01*
X169695514Y-130309523D02*
X169743133Y-130404761D01*
X94552657Y-118928571D02*
X94505038Y-119023809D01*
X94505038Y-119023809D02*
X94409800Y-119119047D01*
X94409800Y-119119047D02*
X94266942Y-119261904D01*
X94266942Y-119261904D02*
X94219323Y-119357142D01*
X94219323Y-119357142D02*
X94219323Y-119452380D01*
X94457419Y-119404761D02*
X94409800Y-119499999D01*
X94409800Y-119499999D02*
X94314561Y-119595237D01*
X94314561Y-119595237D02*
X94124085Y-119642856D01*
X94124085Y-119642856D02*
X93790752Y-119642856D01*
X93790752Y-119642856D02*
X93600276Y-119595237D01*
X93600276Y-119595237D02*
X93505038Y-119499999D01*
X93505038Y-119499999D02*
X93457419Y-119404761D01*
X93457419Y-119404761D02*
X93457419Y-119214285D01*
X93457419Y-119214285D02*
X93505038Y-119119047D01*
X93505038Y-119119047D02*
X93600276Y-119023809D01*
X93600276Y-119023809D02*
X93790752Y-118976190D01*
X93790752Y-118976190D02*
X94124085Y-118976190D01*
X94124085Y-118976190D02*
X94314561Y-119023809D01*
X94314561Y-119023809D02*
X94409800Y-119119047D01*
X94409800Y-119119047D02*
X94457419Y-119214285D01*
X94457419Y-119214285D02*
X94457419Y-119404761D01*
X94457419Y-118547618D02*
X93457419Y-118547618D01*
X93457419Y-118547618D02*
X94171704Y-118214285D01*
X94171704Y-118214285D02*
X93457419Y-117880952D01*
X93457419Y-117880952D02*
X94457419Y-117880952D01*
X94362180Y-116833333D02*
X94409800Y-116880952D01*
X94409800Y-116880952D02*
X94457419Y-117023809D01*
X94457419Y-117023809D02*
X94457419Y-117119047D01*
X94457419Y-117119047D02*
X94409800Y-117261904D01*
X94409800Y-117261904D02*
X94314561Y-117357142D01*
X94314561Y-117357142D02*
X94219323Y-117404761D01*
X94219323Y-117404761D02*
X94028847Y-117452380D01*
X94028847Y-117452380D02*
X93885990Y-117452380D01*
X93885990Y-117452380D02*
X93695514Y-117404761D01*
X93695514Y-117404761D02*
X93600276Y-117357142D01*
X93600276Y-117357142D02*
X93505038Y-117261904D01*
X93505038Y-117261904D02*
X93457419Y-117119047D01*
X93457419Y-117119047D02*
X93457419Y-117023809D01*
X93457419Y-117023809D02*
X93505038Y-116880952D01*
X93505038Y-116880952D02*
X93552657Y-116833333D01*
X93457419Y-115928571D02*
X93457419Y-116404761D01*
X93457419Y-116404761D02*
X93933609Y-116452380D01*
X93933609Y-116452380D02*
X93885990Y-116404761D01*
X93885990Y-116404761D02*
X93838371Y-116309523D01*
X93838371Y-116309523D02*
X93838371Y-116071428D01*
X93838371Y-116071428D02*
X93885990Y-115976190D01*
X93885990Y-115976190D02*
X93933609Y-115928571D01*
X93933609Y-115928571D02*
X94028847Y-115880952D01*
X94028847Y-115880952D02*
X94266942Y-115880952D01*
X94266942Y-115880952D02*
X94362180Y-115928571D01*
X94362180Y-115928571D02*
X94409800Y-115976190D01*
X94409800Y-115976190D02*
X94457419Y-116071428D01*
X94457419Y-116071428D02*
X94457419Y-116309523D01*
X94457419Y-116309523D02*
X94409800Y-116404761D01*
X94409800Y-116404761D02*
X94362180Y-116452380D01*
X93885990Y-115309523D02*
X93838371Y-115404761D01*
X93838371Y-115404761D02*
X93790752Y-115452380D01*
X93790752Y-115452380D02*
X93695514Y-115499999D01*
X93695514Y-115499999D02*
X93647895Y-115499999D01*
X93647895Y-115499999D02*
X93552657Y-115452380D01*
X93552657Y-115452380D02*
X93505038Y-115404761D01*
X93505038Y-115404761D02*
X93457419Y-115309523D01*
X93457419Y-115309523D02*
X93457419Y-115119047D01*
X93457419Y-115119047D02*
X93505038Y-115023809D01*
X93505038Y-115023809D02*
X93552657Y-114976190D01*
X93552657Y-114976190D02*
X93647895Y-114928571D01*
X93647895Y-114928571D02*
X93695514Y-114928571D01*
X93695514Y-114928571D02*
X93790752Y-114976190D01*
X93790752Y-114976190D02*
X93838371Y-115023809D01*
X93838371Y-115023809D02*
X93885990Y-115119047D01*
X93885990Y-115119047D02*
X93885990Y-115309523D01*
X93885990Y-115309523D02*
X93933609Y-115404761D01*
X93933609Y-115404761D02*
X93981228Y-115452380D01*
X93981228Y-115452380D02*
X94076466Y-115499999D01*
X94076466Y-115499999D02*
X94266942Y-115499999D01*
X94266942Y-115499999D02*
X94362180Y-115452380D01*
X94362180Y-115452380D02*
X94409800Y-115404761D01*
X94409800Y-115404761D02*
X94457419Y-115309523D01*
X94457419Y-115309523D02*
X94457419Y-115119047D01*
X94457419Y-115119047D02*
X94409800Y-115023809D01*
X94409800Y-115023809D02*
X94362180Y-114976190D01*
X94362180Y-114976190D02*
X94266942Y-114928571D01*
X94266942Y-114928571D02*
X94076466Y-114928571D01*
X94076466Y-114928571D02*
X93981228Y-114976190D01*
X93981228Y-114976190D02*
X93933609Y-115023809D01*
X93933609Y-115023809D02*
X93885990Y-115119047D01*
X93885990Y-114357142D02*
X93838371Y-114452380D01*
X93838371Y-114452380D02*
X93790752Y-114499999D01*
X93790752Y-114499999D02*
X93695514Y-114547618D01*
X93695514Y-114547618D02*
X93647895Y-114547618D01*
X93647895Y-114547618D02*
X93552657Y-114499999D01*
X93552657Y-114499999D02*
X93505038Y-114452380D01*
X93505038Y-114452380D02*
X93457419Y-114357142D01*
X93457419Y-114357142D02*
X93457419Y-114166666D01*
X93457419Y-114166666D02*
X93505038Y-114071428D01*
X93505038Y-114071428D02*
X93552657Y-114023809D01*
X93552657Y-114023809D02*
X93647895Y-113976190D01*
X93647895Y-113976190D02*
X93695514Y-113976190D01*
X93695514Y-113976190D02*
X93790752Y-114023809D01*
X93790752Y-114023809D02*
X93838371Y-114071428D01*
X93838371Y-114071428D02*
X93885990Y-114166666D01*
X93885990Y-114166666D02*
X93885990Y-114357142D01*
X93885990Y-114357142D02*
X93933609Y-114452380D01*
X93933609Y-114452380D02*
X93981228Y-114499999D01*
X93981228Y-114499999D02*
X94076466Y-114547618D01*
X94076466Y-114547618D02*
X94266942Y-114547618D01*
X94266942Y-114547618D02*
X94362180Y-114499999D01*
X94362180Y-114499999D02*
X94409800Y-114452380D01*
X94409800Y-114452380D02*
X94457419Y-114357142D01*
X94457419Y-114357142D02*
X94457419Y-114166666D01*
X94457419Y-114166666D02*
X94409800Y-114071428D01*
X94409800Y-114071428D02*
X94362180Y-114023809D01*
X94362180Y-114023809D02*
X94266942Y-113976190D01*
X94266942Y-113976190D02*
X94076466Y-113976190D01*
X94076466Y-113976190D02*
X93981228Y-114023809D01*
X93981228Y-114023809D02*
X93933609Y-114071428D01*
X93933609Y-114071428D02*
X93885990Y-114166666D01*
X93457419Y-113642856D02*
X93457419Y-113023809D01*
X93457419Y-113023809D02*
X93838371Y-113357142D01*
X93838371Y-113357142D02*
X93838371Y-113214285D01*
X93838371Y-113214285D02*
X93885990Y-113119047D01*
X93885990Y-113119047D02*
X93933609Y-113071428D01*
X93933609Y-113071428D02*
X94028847Y-113023809D01*
X94028847Y-113023809D02*
X94266942Y-113023809D01*
X94266942Y-113023809D02*
X94362180Y-113071428D01*
X94362180Y-113071428D02*
X94409800Y-113119047D01*
X94409800Y-113119047D02*
X94457419Y-113214285D01*
X94457419Y-113214285D02*
X94457419Y-113499999D01*
X94457419Y-113499999D02*
X94409800Y-113595237D01*
X94409800Y-113595237D02*
X94362180Y-113642856D01*
X94552657Y-112833333D02*
X94552657Y-112071428D01*
X94457419Y-111833332D02*
X93457419Y-111833332D01*
X93457419Y-111833332D02*
X94171704Y-111499999D01*
X94171704Y-111499999D02*
X93457419Y-111166666D01*
X93457419Y-111166666D02*
X94457419Y-111166666D01*
X94457419Y-110261904D02*
X93933609Y-110261904D01*
X93933609Y-110261904D02*
X93838371Y-110309523D01*
X93838371Y-110309523D02*
X93790752Y-110404761D01*
X93790752Y-110404761D02*
X93790752Y-110595237D01*
X93790752Y-110595237D02*
X93838371Y-110690475D01*
X94409800Y-110261904D02*
X94457419Y-110357142D01*
X94457419Y-110357142D02*
X94457419Y-110595237D01*
X94457419Y-110595237D02*
X94409800Y-110690475D01*
X94409800Y-110690475D02*
X94314561Y-110738094D01*
X94314561Y-110738094D02*
X94219323Y-110738094D01*
X94219323Y-110738094D02*
X94124085Y-110690475D01*
X94124085Y-110690475D02*
X94076466Y-110595237D01*
X94076466Y-110595237D02*
X94076466Y-110357142D01*
X94076466Y-110357142D02*
X94028847Y-110261904D01*
X93790752Y-109357142D02*
X94600276Y-109357142D01*
X94600276Y-109357142D02*
X94695514Y-109404761D01*
X94695514Y-109404761D02*
X94743133Y-109452380D01*
X94743133Y-109452380D02*
X94790752Y-109547618D01*
X94790752Y-109547618D02*
X94790752Y-109690475D01*
X94790752Y-109690475D02*
X94743133Y-109785713D01*
X94409800Y-109357142D02*
X94457419Y-109452380D01*
X94457419Y-109452380D02*
X94457419Y-109642856D01*
X94457419Y-109642856D02*
X94409800Y-109738094D01*
X94409800Y-109738094D02*
X94362180Y-109785713D01*
X94362180Y-109785713D02*
X94266942Y-109833332D01*
X94266942Y-109833332D02*
X93981228Y-109833332D01*
X93981228Y-109833332D02*
X93885990Y-109785713D01*
X93885990Y-109785713D02*
X93838371Y-109738094D01*
X93838371Y-109738094D02*
X93790752Y-109642856D01*
X93790752Y-109642856D02*
X93790752Y-109452380D01*
X93790752Y-109452380D02*
X93838371Y-109357142D01*
X94457419Y-108357142D02*
X94457419Y-108928570D01*
X94457419Y-108642856D02*
X93457419Y-108642856D01*
X93457419Y-108642856D02*
X93600276Y-108738094D01*
X93600276Y-108738094D02*
X93695514Y-108833332D01*
X93695514Y-108833332D02*
X93743133Y-108928570D01*
X96840038Y-130252306D02*
X96792419Y-130347544D01*
X96792419Y-130347544D02*
X96792419Y-130490401D01*
X96792419Y-130490401D02*
X96840038Y-130633258D01*
X96840038Y-130633258D02*
X96935276Y-130728496D01*
X96935276Y-130728496D02*
X97030514Y-130776115D01*
X97030514Y-130776115D02*
X97220990Y-130823734D01*
X97220990Y-130823734D02*
X97363847Y-130823734D01*
X97363847Y-130823734D02*
X97554323Y-130776115D01*
X97554323Y-130776115D02*
X97649561Y-130728496D01*
X97649561Y-130728496D02*
X97744800Y-130633258D01*
X97744800Y-130633258D02*
X97792419Y-130490401D01*
X97792419Y-130490401D02*
X97792419Y-130395163D01*
X97792419Y-130395163D02*
X97744800Y-130252306D01*
X97744800Y-130252306D02*
X97697180Y-130204687D01*
X97697180Y-130204687D02*
X97363847Y-130204687D01*
X97363847Y-130204687D02*
X97363847Y-130395163D01*
X97792419Y-129776115D02*
X96792419Y-129776115D01*
X96792419Y-129776115D02*
X97792419Y-129204687D01*
X97792419Y-129204687D02*
X96792419Y-129204687D01*
X97792419Y-128728496D02*
X96792419Y-128728496D01*
X96792419Y-128728496D02*
X96792419Y-128490401D01*
X96792419Y-128490401D02*
X96840038Y-128347544D01*
X96840038Y-128347544D02*
X96935276Y-128252306D01*
X96935276Y-128252306D02*
X97030514Y-128204687D01*
X97030514Y-128204687D02*
X97220990Y-128157068D01*
X97220990Y-128157068D02*
X97363847Y-128157068D01*
X97363847Y-128157068D02*
X97554323Y-128204687D01*
X97554323Y-128204687D02*
X97649561Y-128252306D01*
X97649561Y-128252306D02*
X97744800Y-128347544D01*
X97744800Y-128347544D02*
X97792419Y-128490401D01*
X97792419Y-128490401D02*
X97792419Y-128728496D01*
X96792419Y-134918972D02*
X97792419Y-134585639D01*
X97792419Y-134585639D02*
X96792419Y-134252306D01*
X97744800Y-133490401D02*
X97792419Y-133585639D01*
X97792419Y-133585639D02*
X97792419Y-133776115D01*
X97792419Y-133776115D02*
X97744800Y-133871353D01*
X97744800Y-133871353D02*
X97697180Y-133918972D01*
X97697180Y-133918972D02*
X97601942Y-133966591D01*
X97601942Y-133966591D02*
X97316228Y-133966591D01*
X97316228Y-133966591D02*
X97220990Y-133918972D01*
X97220990Y-133918972D02*
X97173371Y-133871353D01*
X97173371Y-133871353D02*
X97125752Y-133776115D01*
X97125752Y-133776115D02*
X97125752Y-133585639D01*
X97125752Y-133585639D02*
X97173371Y-133490401D01*
X97744800Y-132633258D02*
X97792419Y-132728496D01*
X97792419Y-132728496D02*
X97792419Y-132918972D01*
X97792419Y-132918972D02*
X97744800Y-133014210D01*
X97744800Y-133014210D02*
X97697180Y-133061829D01*
X97697180Y-133061829D02*
X97601942Y-133109448D01*
X97601942Y-133109448D02*
X97316228Y-133109448D01*
X97316228Y-133109448D02*
X97220990Y-133061829D01*
X97220990Y-133061829D02*
X97173371Y-133014210D01*
X97173371Y-133014210D02*
X97125752Y-132918972D01*
X97125752Y-132918972D02*
X97125752Y-132728496D01*
X97125752Y-132728496D02*
X97173371Y-132633258D01*
X97744800Y-124823734D02*
X97792419Y-124680877D01*
X97792419Y-124680877D02*
X97792419Y-124442782D01*
X97792419Y-124442782D02*
X97744800Y-124347544D01*
X97744800Y-124347544D02*
X97697180Y-124299925D01*
X97697180Y-124299925D02*
X97601942Y-124252306D01*
X97601942Y-124252306D02*
X97506704Y-124252306D01*
X97506704Y-124252306D02*
X97411466Y-124299925D01*
X97411466Y-124299925D02*
X97363847Y-124347544D01*
X97363847Y-124347544D02*
X97316228Y-124442782D01*
X97316228Y-124442782D02*
X97268609Y-124633258D01*
X97268609Y-124633258D02*
X97220990Y-124728496D01*
X97220990Y-124728496D02*
X97173371Y-124776115D01*
X97173371Y-124776115D02*
X97078133Y-124823734D01*
X97078133Y-124823734D02*
X96982895Y-124823734D01*
X96982895Y-124823734D02*
X96887657Y-124776115D01*
X96887657Y-124776115D02*
X96840038Y-124728496D01*
X96840038Y-124728496D02*
X96792419Y-124633258D01*
X96792419Y-124633258D02*
X96792419Y-124395163D01*
X96792419Y-124395163D02*
X96840038Y-124252306D01*
X97792419Y-123823734D02*
X96792419Y-123823734D01*
X96792419Y-123823734D02*
X96792419Y-123585639D01*
X96792419Y-123585639D02*
X96840038Y-123442782D01*
X96840038Y-123442782D02*
X96935276Y-123347544D01*
X96935276Y-123347544D02*
X97030514Y-123299925D01*
X97030514Y-123299925D02*
X97220990Y-123252306D01*
X97220990Y-123252306D02*
X97363847Y-123252306D01*
X97363847Y-123252306D02*
X97554323Y-123299925D01*
X97554323Y-123299925D02*
X97649561Y-123347544D01*
X97649561Y-123347544D02*
X97744800Y-123442782D01*
X97744800Y-123442782D02*
X97792419Y-123585639D01*
X97792419Y-123585639D02*
X97792419Y-123823734D01*
X97506704Y-122871353D02*
X97506704Y-122395163D01*
X97792419Y-122966591D02*
X96792419Y-122633258D01*
X96792419Y-122633258D02*
X97792419Y-122299925D01*
X97792419Y-119776115D02*
X96792419Y-119776115D01*
X96792419Y-119776115D02*
X96792419Y-119538020D01*
X96792419Y-119538020D02*
X96840038Y-119395163D01*
X96840038Y-119395163D02*
X96935276Y-119299925D01*
X96935276Y-119299925D02*
X97030514Y-119252306D01*
X97030514Y-119252306D02*
X97220990Y-119204687D01*
X97220990Y-119204687D02*
X97363847Y-119204687D01*
X97363847Y-119204687D02*
X97554323Y-119252306D01*
X97554323Y-119252306D02*
X97649561Y-119299925D01*
X97649561Y-119299925D02*
X97744800Y-119395163D01*
X97744800Y-119395163D02*
X97792419Y-119538020D01*
X97792419Y-119538020D02*
X97792419Y-119776115D01*
X97792419Y-118204687D02*
X97316228Y-118538020D01*
X97792419Y-118776115D02*
X96792419Y-118776115D01*
X96792419Y-118776115D02*
X96792419Y-118395163D01*
X96792419Y-118395163D02*
X96840038Y-118299925D01*
X96840038Y-118299925D02*
X96887657Y-118252306D01*
X96887657Y-118252306D02*
X96982895Y-118204687D01*
X96982895Y-118204687D02*
X97125752Y-118204687D01*
X97125752Y-118204687D02*
X97220990Y-118252306D01*
X97220990Y-118252306D02*
X97268609Y-118299925D01*
X97268609Y-118299925D02*
X97316228Y-118395163D01*
X97316228Y-118395163D02*
X97316228Y-118776115D01*
X97792419Y-117776115D02*
X96792419Y-117776115D01*
X96792419Y-117776115D02*
X96792419Y-117538020D01*
X96792419Y-117538020D02*
X96840038Y-117395163D01*
X96840038Y-117395163D02*
X96935276Y-117299925D01*
X96935276Y-117299925D02*
X97030514Y-117252306D01*
X97030514Y-117252306D02*
X97220990Y-117204687D01*
X97220990Y-117204687D02*
X97363847Y-117204687D01*
X97363847Y-117204687D02*
X97554323Y-117252306D01*
X97554323Y-117252306D02*
X97649561Y-117299925D01*
X97649561Y-117299925D02*
X97744800Y-117395163D01*
X97744800Y-117395163D02*
X97792419Y-117538020D01*
X97792419Y-117538020D02*
X97792419Y-117776115D01*
X97316228Y-116585639D02*
X97792419Y-116585639D01*
X96792419Y-116918972D02*
X97316228Y-116585639D01*
X97316228Y-116585639D02*
X96792419Y-116252306D01*
X98744800Y-127823734D02*
X98792419Y-127680877D01*
X98792419Y-127680877D02*
X98792419Y-127442782D01*
X98792419Y-127442782D02*
X98744800Y-127347544D01*
X98744800Y-127347544D02*
X98697180Y-127299925D01*
X98697180Y-127299925D02*
X98601942Y-127252306D01*
X98601942Y-127252306D02*
X98506704Y-127252306D01*
X98506704Y-127252306D02*
X98411466Y-127299925D01*
X98411466Y-127299925D02*
X98363847Y-127347544D01*
X98363847Y-127347544D02*
X98316228Y-127442782D01*
X98316228Y-127442782D02*
X98268609Y-127633258D01*
X98268609Y-127633258D02*
X98220990Y-127728496D01*
X98220990Y-127728496D02*
X98173371Y-127776115D01*
X98173371Y-127776115D02*
X98078133Y-127823734D01*
X98078133Y-127823734D02*
X97982895Y-127823734D01*
X97982895Y-127823734D02*
X97887657Y-127776115D01*
X97887657Y-127776115D02*
X97840038Y-127728496D01*
X97840038Y-127728496D02*
X97792419Y-127633258D01*
X97792419Y-127633258D02*
X97792419Y-127395163D01*
X97792419Y-127395163D02*
X97840038Y-127252306D01*
X98697180Y-126252306D02*
X98744800Y-126299925D01*
X98744800Y-126299925D02*
X98792419Y-126442782D01*
X98792419Y-126442782D02*
X98792419Y-126538020D01*
X98792419Y-126538020D02*
X98744800Y-126680877D01*
X98744800Y-126680877D02*
X98649561Y-126776115D01*
X98649561Y-126776115D02*
X98554323Y-126823734D01*
X98554323Y-126823734D02*
X98363847Y-126871353D01*
X98363847Y-126871353D02*
X98220990Y-126871353D01*
X98220990Y-126871353D02*
X98030514Y-126823734D01*
X98030514Y-126823734D02*
X97935276Y-126776115D01*
X97935276Y-126776115D02*
X97840038Y-126680877D01*
X97840038Y-126680877D02*
X97792419Y-126538020D01*
X97792419Y-126538020D02*
X97792419Y-126442782D01*
X97792419Y-126442782D02*
X97840038Y-126299925D01*
X97840038Y-126299925D02*
X97887657Y-126252306D01*
X98792419Y-125347544D02*
X98792419Y-125823734D01*
X98792419Y-125823734D02*
X97792419Y-125823734D01*
X162261905Y-138457419D02*
X162261905Y-137457419D01*
X162261905Y-137457419D02*
X162642857Y-137457419D01*
X162642857Y-137457419D02*
X162738095Y-137505038D01*
X162738095Y-137505038D02*
X162785714Y-137552657D01*
X162785714Y-137552657D02*
X162833333Y-137647895D01*
X162833333Y-137647895D02*
X162833333Y-137790752D01*
X162833333Y-137790752D02*
X162785714Y-137885990D01*
X162785714Y-137885990D02*
X162738095Y-137933609D01*
X162738095Y-137933609D02*
X162642857Y-137981228D01*
X162642857Y-137981228D02*
X162261905Y-137981228D01*
X163785714Y-138457419D02*
X163214286Y-138457419D01*
X163500000Y-138457419D02*
X163500000Y-137457419D01*
X163500000Y-137457419D02*
X163404762Y-137600276D01*
X163404762Y-137600276D02*
X163309524Y-137695514D01*
X163309524Y-137695514D02*
X163214286Y-137743133D01*
X156920038Y-141172306D02*
X156872419Y-141267544D01*
X156872419Y-141267544D02*
X156872419Y-141410401D01*
X156872419Y-141410401D02*
X156920038Y-141553258D01*
X156920038Y-141553258D02*
X157015276Y-141648496D01*
X157015276Y-141648496D02*
X157110514Y-141696115D01*
X157110514Y-141696115D02*
X157300990Y-141743734D01*
X157300990Y-141743734D02*
X157443847Y-141743734D01*
X157443847Y-141743734D02*
X157634323Y-141696115D01*
X157634323Y-141696115D02*
X157729561Y-141648496D01*
X157729561Y-141648496D02*
X157824800Y-141553258D01*
X157824800Y-141553258D02*
X157872419Y-141410401D01*
X157872419Y-141410401D02*
X157872419Y-141315163D01*
X157872419Y-141315163D02*
X157824800Y-141172306D01*
X157824800Y-141172306D02*
X157777180Y-141124687D01*
X157777180Y-141124687D02*
X157443847Y-141124687D01*
X157443847Y-141124687D02*
X157443847Y-141315163D01*
X157872419Y-140696115D02*
X156872419Y-140696115D01*
X156872419Y-140696115D02*
X157872419Y-140124687D01*
X157872419Y-140124687D02*
X156872419Y-140124687D01*
X157872419Y-139648496D02*
X156872419Y-139648496D01*
X156872419Y-139648496D02*
X156872419Y-139410401D01*
X156872419Y-139410401D02*
X156920038Y-139267544D01*
X156920038Y-139267544D02*
X157015276Y-139172306D01*
X157015276Y-139172306D02*
X157110514Y-139124687D01*
X157110514Y-139124687D02*
X157300990Y-139077068D01*
X157300990Y-139077068D02*
X157443847Y-139077068D01*
X157443847Y-139077068D02*
X157634323Y-139124687D01*
X157634323Y-139124687D02*
X157729561Y-139172306D01*
X157729561Y-139172306D02*
X157824800Y-139267544D01*
X157824800Y-139267544D02*
X157872419Y-139410401D01*
X157872419Y-139410401D02*
X157872419Y-139648496D01*
X113761905Y-99457419D02*
X113761905Y-98457419D01*
X113761905Y-98457419D02*
X114142857Y-98457419D01*
X114142857Y-98457419D02*
X114238095Y-98505038D01*
X114238095Y-98505038D02*
X114285714Y-98552657D01*
X114285714Y-98552657D02*
X114333333Y-98647895D01*
X114333333Y-98647895D02*
X114333333Y-98790752D01*
X114333333Y-98790752D02*
X114285714Y-98885990D01*
X114285714Y-98885990D02*
X114238095Y-98933609D01*
X114238095Y-98933609D02*
X114142857Y-98981228D01*
X114142857Y-98981228D02*
X113761905Y-98981228D01*
X115238095Y-98457419D02*
X114761905Y-98457419D01*
X114761905Y-98457419D02*
X114714286Y-98933609D01*
X114714286Y-98933609D02*
X114761905Y-98885990D01*
X114761905Y-98885990D02*
X114857143Y-98838371D01*
X114857143Y-98838371D02*
X115095238Y-98838371D01*
X115095238Y-98838371D02*
X115190476Y-98885990D01*
X115190476Y-98885990D02*
X115238095Y-98933609D01*
X115238095Y-98933609D02*
X115285714Y-99028847D01*
X115285714Y-99028847D02*
X115285714Y-99266942D01*
X115285714Y-99266942D02*
X115238095Y-99362180D01*
X115238095Y-99362180D02*
X115190476Y-99409800D01*
X115190476Y-99409800D02*
X115095238Y-99457419D01*
X115095238Y-99457419D02*
X114857143Y-99457419D01*
X114857143Y-99457419D02*
X114761905Y-99409800D01*
X114761905Y-99409800D02*
X114714286Y-99362180D01*
X152504390Y-118666666D02*
X152456771Y-118809523D01*
X152456771Y-118809523D02*
X152409152Y-118857142D01*
X152409152Y-118857142D02*
X152313914Y-118904761D01*
X152313914Y-118904761D02*
X152171057Y-118904761D01*
X152171057Y-118904761D02*
X152075819Y-118857142D01*
X152075819Y-118857142D02*
X152028200Y-118809523D01*
X152028200Y-118809523D02*
X151980580Y-118714285D01*
X151980580Y-118714285D02*
X151980580Y-118333333D01*
X151980580Y-118333333D02*
X152980580Y-118333333D01*
X152980580Y-118333333D02*
X152980580Y-118666666D01*
X152980580Y-118666666D02*
X152932961Y-118761904D01*
X152932961Y-118761904D02*
X152885342Y-118809523D01*
X152885342Y-118809523D02*
X152790104Y-118857142D01*
X152790104Y-118857142D02*
X152694866Y-118857142D01*
X152694866Y-118857142D02*
X152599628Y-118809523D01*
X152599628Y-118809523D02*
X152552009Y-118761904D01*
X152552009Y-118761904D02*
X152504390Y-118666666D01*
X152504390Y-118666666D02*
X152504390Y-118333333D01*
X151980580Y-119333333D02*
X152980580Y-119333333D01*
X152980580Y-119333333D02*
X152266295Y-119666666D01*
X152266295Y-119666666D02*
X152980580Y-119999999D01*
X152980580Y-119999999D02*
X151980580Y-119999999D01*
X151980580Y-120476190D02*
X152980580Y-120476190D01*
X152980580Y-120476190D02*
X152980580Y-120857142D01*
X152980580Y-120857142D02*
X152932961Y-120952380D01*
X152932961Y-120952380D02*
X152885342Y-120999999D01*
X152885342Y-120999999D02*
X152790104Y-121047618D01*
X152790104Y-121047618D02*
X152647247Y-121047618D01*
X152647247Y-121047618D02*
X152552009Y-120999999D01*
X152552009Y-120999999D02*
X152504390Y-120952380D01*
X152504390Y-120952380D02*
X152456771Y-120857142D01*
X152456771Y-120857142D02*
X152456771Y-120476190D01*
X151980580Y-121999999D02*
X151980580Y-121428571D01*
X151980580Y-121714285D02*
X152980580Y-121714285D01*
X152980580Y-121714285D02*
X152837723Y-121619047D01*
X152837723Y-121619047D02*
X152742485Y-121523809D01*
X152742485Y-121523809D02*
X152694866Y-121428571D01*
X152552009Y-122571428D02*
X152599628Y-122476190D01*
X152599628Y-122476190D02*
X152647247Y-122428571D01*
X152647247Y-122428571D02*
X152742485Y-122380952D01*
X152742485Y-122380952D02*
X152790104Y-122380952D01*
X152790104Y-122380952D02*
X152885342Y-122428571D01*
X152885342Y-122428571D02*
X152932961Y-122476190D01*
X152932961Y-122476190D02*
X152980580Y-122571428D01*
X152980580Y-122571428D02*
X152980580Y-122761904D01*
X152980580Y-122761904D02*
X152932961Y-122857142D01*
X152932961Y-122857142D02*
X152885342Y-122904761D01*
X152885342Y-122904761D02*
X152790104Y-122952380D01*
X152790104Y-122952380D02*
X152742485Y-122952380D01*
X152742485Y-122952380D02*
X152647247Y-122904761D01*
X152647247Y-122904761D02*
X152599628Y-122857142D01*
X152599628Y-122857142D02*
X152552009Y-122761904D01*
X152552009Y-122761904D02*
X152552009Y-122571428D01*
X152552009Y-122571428D02*
X152504390Y-122476190D01*
X152504390Y-122476190D02*
X152456771Y-122428571D01*
X152456771Y-122428571D02*
X152361533Y-122380952D01*
X152361533Y-122380952D02*
X152171057Y-122380952D01*
X152171057Y-122380952D02*
X152075819Y-122428571D01*
X152075819Y-122428571D02*
X152028200Y-122476190D01*
X152028200Y-122476190D02*
X151980580Y-122571428D01*
X151980580Y-122571428D02*
X151980580Y-122761904D01*
X151980580Y-122761904D02*
X152028200Y-122857142D01*
X152028200Y-122857142D02*
X152075819Y-122904761D01*
X152075819Y-122904761D02*
X152171057Y-122952380D01*
X152171057Y-122952380D02*
X152361533Y-122952380D01*
X152361533Y-122952380D02*
X152456771Y-122904761D01*
X152456771Y-122904761D02*
X152504390Y-122857142D01*
X152504390Y-122857142D02*
X152552009Y-122761904D01*
X152980580Y-123571428D02*
X152980580Y-123666666D01*
X152980580Y-123666666D02*
X152932961Y-123761904D01*
X152932961Y-123761904D02*
X152885342Y-123809523D01*
X152885342Y-123809523D02*
X152790104Y-123857142D01*
X152790104Y-123857142D02*
X152599628Y-123904761D01*
X152599628Y-123904761D02*
X152361533Y-123904761D01*
X152361533Y-123904761D02*
X152171057Y-123857142D01*
X152171057Y-123857142D02*
X152075819Y-123809523D01*
X152075819Y-123809523D02*
X152028200Y-123761904D01*
X152028200Y-123761904D02*
X151980580Y-123666666D01*
X151980580Y-123666666D02*
X151980580Y-123571428D01*
X151980580Y-123571428D02*
X152028200Y-123476190D01*
X152028200Y-123476190D02*
X152075819Y-123428571D01*
X152075819Y-123428571D02*
X152171057Y-123380952D01*
X152171057Y-123380952D02*
X152361533Y-123333333D01*
X152361533Y-123333333D02*
X152599628Y-123333333D01*
X152599628Y-123333333D02*
X152790104Y-123380952D01*
X152790104Y-123380952D02*
X152885342Y-123428571D01*
X152885342Y-123428571D02*
X152932961Y-123476190D01*
X152932961Y-123476190D02*
X152980580Y-123571428D01*
X151885342Y-124095238D02*
X151885342Y-124857142D01*
X151980580Y-125095238D02*
X152980580Y-125095238D01*
X152980580Y-125095238D02*
X152980580Y-125476190D01*
X152980580Y-125476190D02*
X152932961Y-125571428D01*
X152932961Y-125571428D02*
X152885342Y-125619047D01*
X152885342Y-125619047D02*
X152790104Y-125666666D01*
X152790104Y-125666666D02*
X152647247Y-125666666D01*
X152647247Y-125666666D02*
X152552009Y-125619047D01*
X152552009Y-125619047D02*
X152504390Y-125571428D01*
X152504390Y-125571428D02*
X152456771Y-125476190D01*
X152456771Y-125476190D02*
X152456771Y-125095238D01*
X151980580Y-126095238D02*
X152647247Y-126095238D01*
X152456771Y-126095238D02*
X152552009Y-126142857D01*
X152552009Y-126142857D02*
X152599628Y-126190476D01*
X152599628Y-126190476D02*
X152647247Y-126285714D01*
X152647247Y-126285714D02*
X152647247Y-126380952D01*
X152028200Y-127095238D02*
X151980580Y-127000000D01*
X151980580Y-127000000D02*
X151980580Y-126809524D01*
X151980580Y-126809524D02*
X152028200Y-126714286D01*
X152028200Y-126714286D02*
X152123438Y-126666667D01*
X152123438Y-126666667D02*
X152504390Y-126666667D01*
X152504390Y-126666667D02*
X152599628Y-126714286D01*
X152599628Y-126714286D02*
X152647247Y-126809524D01*
X152647247Y-126809524D02*
X152647247Y-127000000D01*
X152647247Y-127000000D02*
X152599628Y-127095238D01*
X152599628Y-127095238D02*
X152504390Y-127142857D01*
X152504390Y-127142857D02*
X152409152Y-127142857D01*
X152409152Y-127142857D02*
X152313914Y-126666667D01*
X152028200Y-127523810D02*
X151980580Y-127619048D01*
X151980580Y-127619048D02*
X151980580Y-127809524D01*
X151980580Y-127809524D02*
X152028200Y-127904762D01*
X152028200Y-127904762D02*
X152123438Y-127952381D01*
X152123438Y-127952381D02*
X152171057Y-127952381D01*
X152171057Y-127952381D02*
X152266295Y-127904762D01*
X152266295Y-127904762D02*
X152313914Y-127809524D01*
X152313914Y-127809524D02*
X152313914Y-127666667D01*
X152313914Y-127666667D02*
X152361533Y-127571429D01*
X152361533Y-127571429D02*
X152456771Y-127523810D01*
X152456771Y-127523810D02*
X152504390Y-127523810D01*
X152504390Y-127523810D02*
X152599628Y-127571429D01*
X152599628Y-127571429D02*
X152647247Y-127666667D01*
X152647247Y-127666667D02*
X152647247Y-127809524D01*
X152647247Y-127809524D02*
X152599628Y-127904762D01*
X152028200Y-128333334D02*
X151980580Y-128428572D01*
X151980580Y-128428572D02*
X151980580Y-128619048D01*
X151980580Y-128619048D02*
X152028200Y-128714286D01*
X152028200Y-128714286D02*
X152123438Y-128761905D01*
X152123438Y-128761905D02*
X152171057Y-128761905D01*
X152171057Y-128761905D02*
X152266295Y-128714286D01*
X152266295Y-128714286D02*
X152313914Y-128619048D01*
X152313914Y-128619048D02*
X152313914Y-128476191D01*
X152313914Y-128476191D02*
X152361533Y-128380953D01*
X152361533Y-128380953D02*
X152456771Y-128333334D01*
X152456771Y-128333334D02*
X152504390Y-128333334D01*
X152504390Y-128333334D02*
X152599628Y-128380953D01*
X152599628Y-128380953D02*
X152647247Y-128476191D01*
X152647247Y-128476191D02*
X152647247Y-128619048D01*
X152647247Y-128619048D02*
X152599628Y-128714286D01*
X151980580Y-129714286D02*
X151980580Y-129142858D01*
X151980580Y-129428572D02*
X152980580Y-129428572D01*
X152980580Y-129428572D02*
X152837723Y-129333334D01*
X152837723Y-129333334D02*
X152742485Y-129238096D01*
X152742485Y-129238096D02*
X152694866Y-129142858D01*
X142127580Y-129161027D02*
X141127580Y-129494360D01*
X141127580Y-129494360D02*
X142127580Y-129827693D01*
X141127580Y-130161027D02*
X142127580Y-130161027D01*
X141127580Y-130637217D02*
X142127580Y-130637217D01*
X142127580Y-130637217D02*
X141127580Y-131208645D01*
X141127580Y-131208645D02*
X142127580Y-131208645D01*
X141175200Y-117256265D02*
X141127580Y-117399122D01*
X141127580Y-117399122D02*
X141127580Y-117637217D01*
X141127580Y-117637217D02*
X141175200Y-117732455D01*
X141175200Y-117732455D02*
X141222819Y-117780074D01*
X141222819Y-117780074D02*
X141318057Y-117827693D01*
X141318057Y-117827693D02*
X141413295Y-117827693D01*
X141413295Y-117827693D02*
X141508533Y-117780074D01*
X141508533Y-117780074D02*
X141556152Y-117732455D01*
X141556152Y-117732455D02*
X141603771Y-117637217D01*
X141603771Y-117637217D02*
X141651390Y-117446741D01*
X141651390Y-117446741D02*
X141699009Y-117351503D01*
X141699009Y-117351503D02*
X141746628Y-117303884D01*
X141746628Y-117303884D02*
X141841866Y-117256265D01*
X141841866Y-117256265D02*
X141937104Y-117256265D01*
X141937104Y-117256265D02*
X142032342Y-117303884D01*
X142032342Y-117303884D02*
X142079961Y-117351503D01*
X142079961Y-117351503D02*
X142127580Y-117446741D01*
X142127580Y-117446741D02*
X142127580Y-117684836D01*
X142127580Y-117684836D02*
X142079961Y-117827693D01*
X141127580Y-118256265D02*
X142127580Y-118256265D01*
X142127580Y-118256265D02*
X142127580Y-118494360D01*
X142127580Y-118494360D02*
X142079961Y-118637217D01*
X142079961Y-118637217D02*
X141984723Y-118732455D01*
X141984723Y-118732455D02*
X141889485Y-118780074D01*
X141889485Y-118780074D02*
X141699009Y-118827693D01*
X141699009Y-118827693D02*
X141556152Y-118827693D01*
X141556152Y-118827693D02*
X141365676Y-118780074D01*
X141365676Y-118780074D02*
X141270438Y-118732455D01*
X141270438Y-118732455D02*
X141175200Y-118637217D01*
X141175200Y-118637217D02*
X141127580Y-118494360D01*
X141127580Y-118494360D02*
X141127580Y-118256265D01*
X141413295Y-119208646D02*
X141413295Y-119684836D01*
X141127580Y-119113408D02*
X142127580Y-119446741D01*
X142127580Y-119446741D02*
X141127580Y-119780074D01*
X142079961Y-125827693D02*
X142127580Y-125732455D01*
X142127580Y-125732455D02*
X142127580Y-125589598D01*
X142127580Y-125589598D02*
X142079961Y-125446741D01*
X142079961Y-125446741D02*
X141984723Y-125351503D01*
X141984723Y-125351503D02*
X141889485Y-125303884D01*
X141889485Y-125303884D02*
X141699009Y-125256265D01*
X141699009Y-125256265D02*
X141556152Y-125256265D01*
X141556152Y-125256265D02*
X141365676Y-125303884D01*
X141365676Y-125303884D02*
X141270438Y-125351503D01*
X141270438Y-125351503D02*
X141175200Y-125446741D01*
X141175200Y-125446741D02*
X141127580Y-125589598D01*
X141127580Y-125589598D02*
X141127580Y-125684836D01*
X141127580Y-125684836D02*
X141175200Y-125827693D01*
X141175200Y-125827693D02*
X141222819Y-125875312D01*
X141222819Y-125875312D02*
X141556152Y-125875312D01*
X141556152Y-125875312D02*
X141556152Y-125684836D01*
X141127580Y-126303884D02*
X142127580Y-126303884D01*
X142127580Y-126303884D02*
X141127580Y-126875312D01*
X141127580Y-126875312D02*
X142127580Y-126875312D01*
X141127580Y-127351503D02*
X142127580Y-127351503D01*
X142127580Y-127351503D02*
X142127580Y-127589598D01*
X142127580Y-127589598D02*
X142079961Y-127732455D01*
X142079961Y-127732455D02*
X141984723Y-127827693D01*
X141984723Y-127827693D02*
X141889485Y-127875312D01*
X141889485Y-127875312D02*
X141699009Y-127922931D01*
X141699009Y-127922931D02*
X141556152Y-127922931D01*
X141556152Y-127922931D02*
X141365676Y-127875312D01*
X141365676Y-127875312D02*
X141270438Y-127827693D01*
X141270438Y-127827693D02*
X141175200Y-127732455D01*
X141175200Y-127732455D02*
X141127580Y-127589598D01*
X141127580Y-127589598D02*
X141127580Y-127351503D01*
X141175200Y-121256265D02*
X141127580Y-121399122D01*
X141127580Y-121399122D02*
X141127580Y-121637217D01*
X141127580Y-121637217D02*
X141175200Y-121732455D01*
X141175200Y-121732455D02*
X141222819Y-121780074D01*
X141222819Y-121780074D02*
X141318057Y-121827693D01*
X141318057Y-121827693D02*
X141413295Y-121827693D01*
X141413295Y-121827693D02*
X141508533Y-121780074D01*
X141508533Y-121780074D02*
X141556152Y-121732455D01*
X141556152Y-121732455D02*
X141603771Y-121637217D01*
X141603771Y-121637217D02*
X141651390Y-121446741D01*
X141651390Y-121446741D02*
X141699009Y-121351503D01*
X141699009Y-121351503D02*
X141746628Y-121303884D01*
X141746628Y-121303884D02*
X141841866Y-121256265D01*
X141841866Y-121256265D02*
X141937104Y-121256265D01*
X141937104Y-121256265D02*
X142032342Y-121303884D01*
X142032342Y-121303884D02*
X142079961Y-121351503D01*
X142079961Y-121351503D02*
X142127580Y-121446741D01*
X142127580Y-121446741D02*
X142127580Y-121684836D01*
X142127580Y-121684836D02*
X142079961Y-121827693D01*
X141222819Y-122827693D02*
X141175200Y-122780074D01*
X141175200Y-122780074D02*
X141127580Y-122637217D01*
X141127580Y-122637217D02*
X141127580Y-122541979D01*
X141127580Y-122541979D02*
X141175200Y-122399122D01*
X141175200Y-122399122D02*
X141270438Y-122303884D01*
X141270438Y-122303884D02*
X141365676Y-122256265D01*
X141365676Y-122256265D02*
X141556152Y-122208646D01*
X141556152Y-122208646D02*
X141699009Y-122208646D01*
X141699009Y-122208646D02*
X141889485Y-122256265D01*
X141889485Y-122256265D02*
X141984723Y-122303884D01*
X141984723Y-122303884D02*
X142079961Y-122399122D01*
X142079961Y-122399122D02*
X142127580Y-122541979D01*
X142127580Y-122541979D02*
X142127580Y-122637217D01*
X142127580Y-122637217D02*
X142079961Y-122780074D01*
X142079961Y-122780074D02*
X142032342Y-122827693D01*
X141127580Y-123732455D02*
X141127580Y-123256265D01*
X141127580Y-123256265D02*
X142127580Y-123256265D01*
X135261905Y-138457419D02*
X135261905Y-137457419D01*
X135261905Y-137457419D02*
X135642857Y-137457419D01*
X135642857Y-137457419D02*
X135738095Y-137505038D01*
X135738095Y-137505038D02*
X135785714Y-137552657D01*
X135785714Y-137552657D02*
X135833333Y-137647895D01*
X135833333Y-137647895D02*
X135833333Y-137790752D01*
X135833333Y-137790752D02*
X135785714Y-137885990D01*
X135785714Y-137885990D02*
X135738095Y-137933609D01*
X135738095Y-137933609D02*
X135642857Y-137981228D01*
X135642857Y-137981228D02*
X135261905Y-137981228D01*
X136166667Y-137457419D02*
X136785714Y-137457419D01*
X136785714Y-137457419D02*
X136452381Y-137838371D01*
X136452381Y-137838371D02*
X136595238Y-137838371D01*
X136595238Y-137838371D02*
X136690476Y-137885990D01*
X136690476Y-137885990D02*
X136738095Y-137933609D01*
X136738095Y-137933609D02*
X136785714Y-138028847D01*
X136785714Y-138028847D02*
X136785714Y-138266942D01*
X136785714Y-138266942D02*
X136738095Y-138362180D01*
X136738095Y-138362180D02*
X136690476Y-138409800D01*
X136690476Y-138409800D02*
X136595238Y-138457419D01*
X136595238Y-138457419D02*
X136309524Y-138457419D01*
X136309524Y-138457419D02*
X136214286Y-138409800D01*
X136214286Y-138409800D02*
X136166667Y-138362180D01*
X130460038Y-141172306D02*
X130412419Y-141267544D01*
X130412419Y-141267544D02*
X130412419Y-141410401D01*
X130412419Y-141410401D02*
X130460038Y-141553258D01*
X130460038Y-141553258D02*
X130555276Y-141648496D01*
X130555276Y-141648496D02*
X130650514Y-141696115D01*
X130650514Y-141696115D02*
X130840990Y-141743734D01*
X130840990Y-141743734D02*
X130983847Y-141743734D01*
X130983847Y-141743734D02*
X131174323Y-141696115D01*
X131174323Y-141696115D02*
X131269561Y-141648496D01*
X131269561Y-141648496D02*
X131364800Y-141553258D01*
X131364800Y-141553258D02*
X131412419Y-141410401D01*
X131412419Y-141410401D02*
X131412419Y-141315163D01*
X131412419Y-141315163D02*
X131364800Y-141172306D01*
X131364800Y-141172306D02*
X131317180Y-141124687D01*
X131317180Y-141124687D02*
X130983847Y-141124687D01*
X130983847Y-141124687D02*
X130983847Y-141315163D01*
X131412419Y-140696115D02*
X130412419Y-140696115D01*
X130412419Y-140696115D02*
X131412419Y-140124687D01*
X131412419Y-140124687D02*
X130412419Y-140124687D01*
X131412419Y-139648496D02*
X130412419Y-139648496D01*
X130412419Y-139648496D02*
X130412419Y-139410401D01*
X130412419Y-139410401D02*
X130460038Y-139267544D01*
X130460038Y-139267544D02*
X130555276Y-139172306D01*
X130555276Y-139172306D02*
X130650514Y-139124687D01*
X130650514Y-139124687D02*
X130840990Y-139077068D01*
X130840990Y-139077068D02*
X130983847Y-139077068D01*
X130983847Y-139077068D02*
X131174323Y-139124687D01*
X131174323Y-139124687D02*
X131269561Y-139172306D01*
X131269561Y-139172306D02*
X131364800Y-139267544D01*
X131364800Y-139267544D02*
X131412419Y-139410401D01*
X131412419Y-139410401D02*
X131412419Y-139648496D01*
%TO.C,Usb-C-charger1*%
X184000000Y-100000000D02*
X167000000Y-100000000D01*
X167000000Y-100000000D02*
X167000000Y-114000000D01*
X167000000Y-114000000D02*
X184000000Y-114000000D01*
X184000000Y-114000000D02*
X184000000Y-100000000D01*
X185000000Y-105000000D02*
X184000000Y-105000000D01*
X184000000Y-105000000D02*
X184000000Y-110000000D01*
X184000000Y-110000000D02*
X185000000Y-110000000D01*
X185000000Y-110000000D02*
X185000000Y-105000000D01*
D12*
%TO.C,R1*%
X102880000Y-139000000D02*
X103650000Y-139000000D01*
X103650000Y-137630000D02*
X103650000Y-140370000D01*
X103650000Y-140370000D02*
X110190000Y-140370000D01*
X110190000Y-137630000D02*
X103650000Y-137630000D01*
X110190000Y-140370000D02*
X110190000Y-137630000D01*
X110960000Y-139000000D02*
X110190000Y-139000000D01*
%TO.C,ESP32-2432S028_WROOM-32*%
D13*
X156188614Y-113275877D02*
X156212327Y-113290647D01*
X156238978Y-113312227D01*
X156238978Y-113633773D01*
X156238893Y-113727830D01*
X156238529Y-113801932D01*
X156237724Y-113858704D01*
X156236313Y-113900768D01*
X156234133Y-113930748D01*
X156231021Y-113951267D01*
X156226814Y-113964949D01*
X156221348Y-113974416D01*
X156217472Y-113979082D01*
X156186034Y-113999575D01*
X156150233Y-113998739D01*
X156118873Y-113981264D01*
X156092222Y-113959684D01*
X156092222Y-113312227D01*
X156118873Y-113290647D01*
X156144594Y-113274949D01*
X156165600Y-113269067D01*
X156188614Y-113275877D01*
G36*
X156188614Y-113275877D02*
G01*
X156212327Y-113290647D01*
X156238978Y-113312227D01*
X156238978Y-113633773D01*
X156238893Y-113727830D01*
X156238529Y-113801932D01*
X156237724Y-113858704D01*
X156236313Y-113900768D01*
X156234133Y-113930748D01*
X156231021Y-113951267D01*
X156226814Y-113964949D01*
X156221348Y-113974416D01*
X156217472Y-113979082D01*
X156186034Y-113999575D01*
X156150233Y-113998739D01*
X156118873Y-113981264D01*
X156092222Y-113959684D01*
X156092222Y-113312227D01*
X156118873Y-113290647D01*
X156144594Y-113274949D01*
X156165600Y-113269067D01*
X156188614Y-113275877D01*
G37*
X149076178Y-113291645D02*
X149082758Y-113299218D01*
X149087921Y-113308987D01*
X149091836Y-113323571D01*
X149094676Y-113345585D01*
X149096613Y-113377648D01*
X149097817Y-113422375D01*
X149098461Y-113482385D01*
X149098716Y-113560294D01*
X149098755Y-113635956D01*
X149098686Y-113729802D01*
X149098362Y-113803689D01*
X149097614Y-113860232D01*
X149096268Y-113902049D01*
X149094154Y-113931757D01*
X149091100Y-113951973D01*
X149086934Y-113965314D01*
X149081484Y-113974398D01*
X149076178Y-113980267D01*
X149043174Y-113999947D01*
X149008009Y-113998181D01*
X148976545Y-113976717D01*
X148969316Y-113968337D01*
X148963666Y-113958614D01*
X148959401Y-113944861D01*
X148956327Y-113924389D01*
X148954248Y-113894512D01*
X148952970Y-113852541D01*
X148952299Y-113795789D01*
X148952041Y-113721567D01*
X148952000Y-113637537D01*
X148952000Y-113324485D01*
X148979709Y-113296776D01*
X149013863Y-113273463D01*
X149046994Y-113272623D01*
X149076178Y-113291645D01*
G36*
X149076178Y-113291645D02*
G01*
X149082758Y-113299218D01*
X149087921Y-113308987D01*
X149091836Y-113323571D01*
X149094676Y-113345585D01*
X149096613Y-113377648D01*
X149097817Y-113422375D01*
X149098461Y-113482385D01*
X149098716Y-113560294D01*
X149098755Y-113635956D01*
X149098686Y-113729802D01*
X149098362Y-113803689D01*
X149097614Y-113860232D01*
X149096268Y-113902049D01*
X149094154Y-113931757D01*
X149091100Y-113951973D01*
X149086934Y-113965314D01*
X149081484Y-113974398D01*
X149076178Y-113980267D01*
X149043174Y-113999947D01*
X149008009Y-113998181D01*
X148976545Y-113976717D01*
X148969316Y-113968337D01*
X148963666Y-113958614D01*
X148959401Y-113944861D01*
X148956327Y-113924389D01*
X148954248Y-113894512D01*
X148952970Y-113852541D01*
X148952299Y-113795789D01*
X148952041Y-113721567D01*
X148952000Y-113637537D01*
X148952000Y-113324485D01*
X148979709Y-113296776D01*
X149013863Y-113273463D01*
X149046994Y-113272623D01*
X149076178Y-113291645D01*
G37*
X149726957Y-108026571D02*
X149823232Y-108050809D01*
X149909816Y-108093641D01*
X149984627Y-108153419D01*
X150045582Y-108228494D01*
X150090601Y-108317220D01*
X150116864Y-108413530D01*
X150122714Y-108510795D01*
X150107860Y-108604654D01*
X150074160Y-108692511D01*
X150023472Y-108771770D01*
X149957655Y-108839836D01*
X149878566Y-108894112D01*
X149788066Y-108932002D01*
X149736800Y-108944426D01*
X149692302Y-108951947D01*
X149658001Y-108954919D01*
X149625040Y-108953094D01*
X149584566Y-108946225D01*
X149551469Y-108939250D01*
X149458053Y-108907741D01*
X149374381Y-108856617D01*
X149302335Y-108787429D01*
X149243800Y-108701728D01*
X149229852Y-108674489D01*
X149213414Y-108638122D01*
X149203106Y-108607582D01*
X149197540Y-108575450D01*
X149195331Y-108534307D01*
X149195052Y-108488222D01*
X149199139Y-108403865D01*
X149212554Y-108334586D01*
X149237744Y-108273961D01*
X149277154Y-108215567D01*
X149315702Y-108171302D01*
X149387594Y-108105484D01*
X149462687Y-108060053D01*
X149545438Y-108032850D01*
X149623072Y-108022576D01*
X149726957Y-108026571D01*
G36*
X149726957Y-108026571D02*
G01*
X149823232Y-108050809D01*
X149909816Y-108093641D01*
X149984627Y-108153419D01*
X150045582Y-108228494D01*
X150090601Y-108317220D01*
X150116864Y-108413530D01*
X150122714Y-108510795D01*
X150107860Y-108604654D01*
X150074160Y-108692511D01*
X150023472Y-108771770D01*
X149957655Y-108839836D01*
X149878566Y-108894112D01*
X149788066Y-108932002D01*
X149736800Y-108944426D01*
X149692302Y-108951947D01*
X149658001Y-108954919D01*
X149625040Y-108953094D01*
X149584566Y-108946225D01*
X149551469Y-108939250D01*
X149458053Y-108907741D01*
X149374381Y-108856617D01*
X149302335Y-108787429D01*
X149243800Y-108701728D01*
X149229852Y-108674489D01*
X149213414Y-108638122D01*
X149203106Y-108607582D01*
X149197540Y-108575450D01*
X149195331Y-108534307D01*
X149195052Y-108488222D01*
X149199139Y-108403865D01*
X149212554Y-108334586D01*
X149237744Y-108273961D01*
X149277154Y-108215567D01*
X149315702Y-108171302D01*
X149387594Y-108105484D01*
X149462687Y-108060053D01*
X149545438Y-108032850D01*
X149623072Y-108022576D01*
X149726957Y-108026571D01*
G37*
X156963065Y-113269163D02*
X157041772Y-113269542D01*
X157102863Y-113270333D01*
X157148817Y-113271670D01*
X157182114Y-113273683D01*
X157205236Y-113276506D01*
X157220662Y-113280269D01*
X157230871Y-113285105D01*
X157235813Y-113288822D01*
X157261457Y-113321358D01*
X157264559Y-113355138D01*
X157248711Y-113385826D01*
X157238348Y-113398089D01*
X157227196Y-113406450D01*
X157211035Y-113411657D01*
X157185642Y-113414457D01*
X157146798Y-113415596D01*
X157090280Y-113415821D01*
X157079180Y-113415822D01*
X156933244Y-113415822D01*
X156933244Y-113686756D01*
X156933148Y-113772154D01*
X156932711Y-113837864D01*
X156931712Y-113886774D01*
X156929928Y-113921773D01*
X156927137Y-113945749D01*
X156923117Y-113961593D01*
X156917645Y-113972191D01*
X156910666Y-113980267D01*
X156877734Y-114000112D01*
X156843354Y-113998548D01*
X156812176Y-113975906D01*
X156809886Y-113973100D01*
X156802429Y-113962492D01*
X156796747Y-113950081D01*
X156792601Y-113932850D01*
X156789750Y-113907784D01*
X156787954Y-113871867D01*
X156786972Y-113822083D01*
X156786564Y-113755417D01*
X156786489Y-113679589D01*
X156786489Y-113415822D01*
X156647127Y-113415822D01*
X156587322Y-113415418D01*
X156545918Y-113413840D01*
X156518748Y-113410547D01*
X156501646Y-113404992D01*
X156490443Y-113396631D01*
X156489083Y-113395178D01*
X156472725Y-113361939D01*
X156474172Y-113324362D01*
X156492978Y-113291645D01*
X156500250Y-113285298D01*
X156509627Y-113280266D01*
X156523609Y-113276396D01*
X156544696Y-113273537D01*
X156575389Y-113271535D01*
X156618189Y-113270239D01*
X156675595Y-113269498D01*
X156750110Y-113269158D01*
X156844233Y-113269068D01*
X156864260Y-113269067D01*
X156963065Y-113269163D01*
G36*
X156963065Y-113269163D02*
G01*
X157041772Y-113269542D01*
X157102863Y-113270333D01*
X157148817Y-113271670D01*
X157182114Y-113273683D01*
X157205236Y-113276506D01*
X157220662Y-113280269D01*
X157230871Y-113285105D01*
X157235813Y-113288822D01*
X157261457Y-113321358D01*
X157264559Y-113355138D01*
X157248711Y-113385826D01*
X157238348Y-113398089D01*
X157227196Y-113406450D01*
X157211035Y-113411657D01*
X157185642Y-113414457D01*
X157146798Y-113415596D01*
X157090280Y-113415821D01*
X157079180Y-113415822D01*
X156933244Y-113415822D01*
X156933244Y-113686756D01*
X156933148Y-113772154D01*
X156932711Y-113837864D01*
X156931712Y-113886774D01*
X156929928Y-113921773D01*
X156927137Y-113945749D01*
X156923117Y-113961593D01*
X156917645Y-113972191D01*
X156910666Y-113980267D01*
X156877734Y-114000112D01*
X156843354Y-113998548D01*
X156812176Y-113975906D01*
X156809886Y-113973100D01*
X156802429Y-113962492D01*
X156796747Y-113950081D01*
X156792601Y-113932850D01*
X156789750Y-113907784D01*
X156787954Y-113871867D01*
X156786972Y-113822083D01*
X156786564Y-113755417D01*
X156786489Y-113679589D01*
X156786489Y-113415822D01*
X156647127Y-113415822D01*
X156587322Y-113415418D01*
X156545918Y-113413840D01*
X156518748Y-113410547D01*
X156501646Y-113404992D01*
X156490443Y-113396631D01*
X156489083Y-113395178D01*
X156472725Y-113361939D01*
X156474172Y-113324362D01*
X156492978Y-113291645D01*
X156500250Y-113285298D01*
X156509627Y-113280266D01*
X156523609Y-113276396D01*
X156544696Y-113273537D01*
X156575389Y-113271535D01*
X156618189Y-113270239D01*
X156675595Y-113269498D01*
X156750110Y-113269158D01*
X156844233Y-113269068D01*
X156864260Y-113269067D01*
X156963065Y-113269163D01*
G37*
X158228823Y-113274533D02*
X158260202Y-113296776D01*
X158287911Y-113324485D01*
X158287911Y-113633920D01*
X158287838Y-113725799D01*
X158287495Y-113797840D01*
X158286692Y-113852780D01*
X158285241Y-113893360D01*
X158282952Y-113922317D01*
X158279636Y-113942391D01*
X158275105Y-113956321D01*
X158269169Y-113966845D01*
X158264514Y-113973100D01*
X158233783Y-113997673D01*
X158198496Y-114000341D01*
X158166245Y-113985271D01*
X158155588Y-113976374D01*
X158148464Y-113964557D01*
X158144167Y-113945526D01*
X158141991Y-113914992D01*
X158141228Y-113868662D01*
X158141155Y-113832871D01*
X158141155Y-113698045D01*
X157644444Y-113698045D01*
X157644444Y-113820700D01*
X157643931Y-113876787D01*
X157641876Y-113915333D01*
X157637508Y-113941361D01*
X157630056Y-113959897D01*
X157621047Y-113973100D01*
X157590144Y-113997604D01*
X157555196Y-114000506D01*
X157521738Y-113983089D01*
X157512604Y-113973959D01*
X157506152Y-113961855D01*
X157501897Y-113943001D01*
X157499352Y-113913620D01*
X157498029Y-113869937D01*
X157497443Y-113808175D01*
X157497375Y-113794000D01*
X157496891Y-113677631D01*
X157496641Y-113581727D01*
X157496723Y-113504177D01*
X157497231Y-113442869D01*
X157498262Y-113395690D01*
X157499913Y-113360530D01*
X157502279Y-113335276D01*
X157505457Y-113317817D01*
X157509544Y-113306041D01*
X157514634Y-113297835D01*
X157520266Y-113291645D01*
X157552128Y-113271844D01*
X157585357Y-113274533D01*
X157616735Y-113296776D01*
X157629433Y-113311126D01*
X157637526Y-113326978D01*
X157642042Y-113349554D01*
X157644006Y-113384078D01*
X157644444Y-113435776D01*
X157644444Y-113551289D01*
X158141155Y-113551289D01*
X158141155Y-113432756D01*
X158141662Y-113378148D01*
X158143698Y-113341275D01*
X158148035Y-113317307D01*
X158155447Y-113301415D01*
X158163733Y-113291645D01*
X158195594Y-113271844D01*
X158228823Y-113274533D01*
G36*
X158228823Y-113274533D02*
G01*
X158260202Y-113296776D01*
X158287911Y-113324485D01*
X158287911Y-113633920D01*
X158287838Y-113725799D01*
X158287495Y-113797840D01*
X158286692Y-113852780D01*
X158285241Y-113893360D01*
X158282952Y-113922317D01*
X158279636Y-113942391D01*
X158275105Y-113956321D01*
X158269169Y-113966845D01*
X158264514Y-113973100D01*
X158233783Y-113997673D01*
X158198496Y-114000341D01*
X158166245Y-113985271D01*
X158155588Y-113976374D01*
X158148464Y-113964557D01*
X158144167Y-113945526D01*
X158141991Y-113914992D01*
X158141228Y-113868662D01*
X158141155Y-113832871D01*
X158141155Y-113698045D01*
X157644444Y-113698045D01*
X157644444Y-113820700D01*
X157643931Y-113876787D01*
X157641876Y-113915333D01*
X157637508Y-113941361D01*
X157630056Y-113959897D01*
X157621047Y-113973100D01*
X157590144Y-113997604D01*
X157555196Y-114000506D01*
X157521738Y-113983089D01*
X157512604Y-113973959D01*
X157506152Y-113961855D01*
X157501897Y-113943001D01*
X157499352Y-113913620D01*
X157498029Y-113869937D01*
X157497443Y-113808175D01*
X157497375Y-113794000D01*
X157496891Y-113677631D01*
X157496641Y-113581727D01*
X157496723Y-113504177D01*
X157497231Y-113442869D01*
X157498262Y-113395690D01*
X157499913Y-113360530D01*
X157502279Y-113335276D01*
X157505457Y-113317817D01*
X157509544Y-113306041D01*
X157514634Y-113297835D01*
X157520266Y-113291645D01*
X157552128Y-113271844D01*
X157585357Y-113274533D01*
X157616735Y-113296776D01*
X157629433Y-113311126D01*
X157637526Y-113326978D01*
X157642042Y-113349554D01*
X157644006Y-113384078D01*
X157644444Y-113435776D01*
X157644444Y-113551289D01*
X158141155Y-113551289D01*
X158141155Y-113432756D01*
X158141662Y-113378148D01*
X158143698Y-113341275D01*
X158148035Y-113317307D01*
X158155447Y-113301415D01*
X158163733Y-113291645D01*
X158195594Y-113271844D01*
X158228823Y-113274533D01*
G37*
X153018309Y-113269275D02*
X153147288Y-113273636D01*
X153256991Y-113286861D01*
X153349226Y-113309741D01*
X153425802Y-113343070D01*
X153488527Y-113387638D01*
X153539212Y-113444236D01*
X153579663Y-113513658D01*
X153580459Y-113515351D01*
X153604601Y-113577483D01*
X153613203Y-113632509D01*
X153606231Y-113687887D01*
X153583654Y-113751073D01*
X153579372Y-113760689D01*
X153550172Y-113816966D01*
X153517356Y-113860451D01*
X153475002Y-113897417D01*
X153417190Y-113934135D01*
X153413831Y-113936052D01*
X153363504Y-113960227D01*
X153306621Y-113978282D01*
X153239527Y-113990839D01*
X153158565Y-113998522D01*
X153060082Y-114001953D01*
X153025286Y-114002251D01*
X152859594Y-114002845D01*
X152836197Y-113973100D01*
X152829257Y-113963319D01*
X152823842Y-113951897D01*
X152819765Y-113936095D01*
X152816837Y-113913175D01*
X152814867Y-113880396D01*
X152814225Y-113856089D01*
X152970844Y-113856089D01*
X153064726Y-113856089D01*
X153119664Y-113854483D01*
X153176060Y-113850255D01*
X153222345Y-113844292D01*
X153225139Y-113843790D01*
X153307348Y-113821736D01*
X153371114Y-113788600D01*
X153418452Y-113742847D01*
X153451382Y-113682939D01*
X153457108Y-113667061D01*
X153462721Y-113642333D01*
X153460291Y-113617902D01*
X153448467Y-113585400D01*
X153441340Y-113569434D01*
X153418000Y-113527006D01*
X153389880Y-113497240D01*
X153358940Y-113476511D01*
X153296966Y-113449537D01*
X153217651Y-113429998D01*
X153125253Y-113418746D01*
X153058333Y-113416270D01*
X152970844Y-113415822D01*
X152970844Y-113856089D01*
X152814225Y-113856089D01*
X152813668Y-113835021D01*
X152813050Y-113774311D01*
X152812825Y-113695526D01*
X152812800Y-113633920D01*
X152812800Y-113324485D01*
X152840509Y-113296776D01*
X152852806Y-113285544D01*
X152866103Y-113277853D01*
X152884672Y-113273040D01*
X152912786Y-113270446D01*
X152954717Y-113269410D01*
X153014737Y-113269270D01*
X153018309Y-113269275D01*
G36*
X153018309Y-113269275D02*
G01*
X153147288Y-113273636D01*
X153256991Y-113286861D01*
X153349226Y-113309741D01*
X153425802Y-113343070D01*
X153488527Y-113387638D01*
X153539212Y-113444236D01*
X153579663Y-113513658D01*
X153580459Y-113515351D01*
X153604601Y-113577483D01*
X153613203Y-113632509D01*
X153606231Y-113687887D01*
X153583654Y-113751073D01*
X153579372Y-113760689D01*
X153550172Y-113816966D01*
X153517356Y-113860451D01*
X153475002Y-113897417D01*
X153417190Y-113934135D01*
X153413831Y-113936052D01*
X153363504Y-113960227D01*
X153306621Y-113978282D01*
X153239527Y-113990839D01*
X153158565Y-113998522D01*
X153060082Y-114001953D01*
X153025286Y-114002251D01*
X152859594Y-114002845D01*
X152836197Y-113973100D01*
X152829257Y-113963319D01*
X152823842Y-113951897D01*
X152819765Y-113936095D01*
X152816837Y-113913175D01*
X152814867Y-113880396D01*
X152814225Y-113856089D01*
X152970844Y-113856089D01*
X153064726Y-113856089D01*
X153119664Y-113854483D01*
X153176060Y-113850255D01*
X153222345Y-113844292D01*
X153225139Y-113843790D01*
X153307348Y-113821736D01*
X153371114Y-113788600D01*
X153418452Y-113742847D01*
X153451382Y-113682939D01*
X153457108Y-113667061D01*
X153462721Y-113642333D01*
X153460291Y-113617902D01*
X153448467Y-113585400D01*
X153441340Y-113569434D01*
X153418000Y-113527006D01*
X153389880Y-113497240D01*
X153358940Y-113476511D01*
X153296966Y-113449537D01*
X153217651Y-113429998D01*
X153125253Y-113418746D01*
X153058333Y-113416270D01*
X152970844Y-113415822D01*
X152970844Y-113856089D01*
X152814225Y-113856089D01*
X152813668Y-113835021D01*
X152813050Y-113774311D01*
X152812825Y-113695526D01*
X152812800Y-113633920D01*
X152812800Y-113324485D01*
X152840509Y-113296776D01*
X152852806Y-113285544D01*
X152866103Y-113277853D01*
X152884672Y-113273040D01*
X152912786Y-113270446D01*
X152954717Y-113269410D01*
X153014737Y-113269270D01*
X153018309Y-113269275D01*
G37*
X145878629Y-113269066D02*
X145918111Y-113269467D01*
X146033800Y-113272259D01*
X146130689Y-113280550D01*
X146212081Y-113295232D01*
X146281277Y-113317193D01*
X146341580Y-113347322D01*
X146396292Y-113386510D01*
X146415833Y-113403532D01*
X146448250Y-113443363D01*
X146477480Y-113497413D01*
X146500009Y-113557323D01*
X146512321Y-113614739D01*
X146513600Y-113635956D01*
X146505583Y-113694769D01*
X146484101Y-113759013D01*
X146453001Y-113819821D01*
X146416134Y-113868330D01*
X146410146Y-113874182D01*
X146359421Y-113915321D01*
X146303875Y-113947435D01*
X146240304Y-113971365D01*
X146165506Y-113987953D01*
X146076278Y-113998041D01*
X145969418Y-114002469D01*
X145920472Y-114002845D01*
X145858238Y-114002545D01*
X145814472Y-114001292D01*
X145785069Y-113998554D01*
X145765921Y-113993801D01*
X145752923Y-113986501D01*
X145745955Y-113980267D01*
X145739374Y-113972694D01*
X145734212Y-113962924D01*
X145730297Y-113948340D01*
X145727457Y-113926326D01*
X145725520Y-113894264D01*
X145724316Y-113849536D01*
X145723672Y-113789526D01*
X145723417Y-113711617D01*
X145723378Y-113635956D01*
X145723130Y-113535041D01*
X145723183Y-113454427D01*
X145724143Y-113415822D01*
X145870133Y-113415822D01*
X145870133Y-113856089D01*
X145963266Y-113856004D01*
X146019307Y-113854396D01*
X146078001Y-113850256D01*
X146126972Y-113844464D01*
X146128462Y-113844226D01*
X146207608Y-113825090D01*
X146268998Y-113795287D01*
X146315695Y-113752878D01*
X146345365Y-113706961D01*
X146363647Y-113656026D01*
X146362229Y-113608200D01*
X146341012Y-113556933D01*
X146299511Y-113503899D01*
X146242002Y-113464600D01*
X146167250Y-113438331D01*
X146117292Y-113429035D01*
X146060584Y-113422507D01*
X146000481Y-113417782D01*
X145949361Y-113415817D01*
X145946333Y-113415808D01*
X145870133Y-113415822D01*
X145724143Y-113415822D01*
X145724740Y-113391851D01*
X145729002Y-113345055D01*
X145737170Y-113311778D01*
X145750444Y-113289759D01*
X145770026Y-113276739D01*
X145797117Y-113270457D01*
X145832918Y-113268653D01*
X145878629Y-113269066D01*
G36*
X145878629Y-113269066D02*
G01*
X145918111Y-113269467D01*
X146033800Y-113272259D01*
X146130689Y-113280550D01*
X146212081Y-113295232D01*
X146281277Y-113317193D01*
X146341580Y-113347322D01*
X146396292Y-113386510D01*
X146415833Y-113403532D01*
X146448250Y-113443363D01*
X146477480Y-113497413D01*
X146500009Y-113557323D01*
X146512321Y-113614739D01*
X146513600Y-113635956D01*
X146505583Y-113694769D01*
X146484101Y-113759013D01*
X146453001Y-113819821D01*
X146416134Y-113868330D01*
X146410146Y-113874182D01*
X146359421Y-113915321D01*
X146303875Y-113947435D01*
X146240304Y-113971365D01*
X146165506Y-113987953D01*
X146076278Y-113998041D01*
X145969418Y-114002469D01*
X145920472Y-114002845D01*
X145858238Y-114002545D01*
X145814472Y-114001292D01*
X145785069Y-113998554D01*
X145765921Y-113993801D01*
X145752923Y-113986501D01*
X145745955Y-113980267D01*
X145739374Y-113972694D01*
X145734212Y-113962924D01*
X145730297Y-113948340D01*
X145727457Y-113926326D01*
X145725520Y-113894264D01*
X145724316Y-113849536D01*
X145723672Y-113789526D01*
X145723417Y-113711617D01*
X145723378Y-113635956D01*
X145723130Y-113535041D01*
X145723183Y-113454427D01*
X145724143Y-113415822D01*
X145870133Y-113415822D01*
X145870133Y-113856089D01*
X145963266Y-113856004D01*
X146019307Y-113854396D01*
X146078001Y-113850256D01*
X146126972Y-113844464D01*
X146128462Y-113844226D01*
X146207608Y-113825090D01*
X146268998Y-113795287D01*
X146315695Y-113752878D01*
X146345365Y-113706961D01*
X146363647Y-113656026D01*
X146362229Y-113608200D01*
X146341012Y-113556933D01*
X146299511Y-113503899D01*
X146242002Y-113464600D01*
X146167250Y-113438331D01*
X146117292Y-113429035D01*
X146060584Y-113422507D01*
X146000481Y-113417782D01*
X145949361Y-113415817D01*
X145946333Y-113415808D01*
X145870133Y-113415822D01*
X145724143Y-113415822D01*
X145724740Y-113391851D01*
X145729002Y-113345055D01*
X145737170Y-113311778D01*
X145750444Y-113289759D01*
X145770026Y-113276739D01*
X145797117Y-113270457D01*
X145832918Y-113268653D01*
X145878629Y-113269066D01*
G37*
X150699886Y-113273448D02*
X150723452Y-113287273D01*
X150754265Y-113309881D01*
X150793922Y-113342338D01*
X150844020Y-113385708D01*
X150906157Y-113441058D01*
X150981928Y-113509451D01*
X151068666Y-113588084D01*
X151249289Y-113751878D01*
X151254933Y-113532029D01*
X151256971Y-113456351D01*
X151258937Y-113399994D01*
X151261266Y-113359706D01*
X151264394Y-113332235D01*
X151268755Y-113314329D01*
X151274784Y-113302737D01*
X151282916Y-113294208D01*
X151287228Y-113290623D01*
X151321759Y-113271670D01*
X151354617Y-113274441D01*
X151380682Y-113290633D01*
X151407333Y-113312199D01*
X151410648Y-113627151D01*
X151411565Y-113719779D01*
X151412032Y-113792544D01*
X151411887Y-113848161D01*
X151410968Y-113889342D01*
X151409113Y-113918803D01*
X151406161Y-113939255D01*
X151401950Y-113953413D01*
X151396318Y-113963991D01*
X151390073Y-113972474D01*
X151376561Y-113988207D01*
X151363117Y-113998636D01*
X151347876Y-114002639D01*
X151328974Y-113999094D01*
X151304545Y-113986879D01*
X151272727Y-113964871D01*
X151231652Y-113931949D01*
X151179458Y-113886991D01*
X151114278Y-113828875D01*
X151040444Y-113762099D01*
X150775155Y-113521458D01*
X150769511Y-113740589D01*
X150767469Y-113816128D01*
X150765498Y-113872354D01*
X150763161Y-113912524D01*
X150760019Y-113939896D01*
X150755636Y-113957728D01*
X150749576Y-113969279D01*
X150741400Y-113977807D01*
X150737216Y-113981282D01*
X150700235Y-114000372D01*
X150665292Y-113997493D01*
X150634864Y-113973100D01*
X150627903Y-113963286D01*
X150622477Y-113951826D01*
X150618397Y-113935968D01*
X150615471Y-113912963D01*
X150613508Y-113880062D01*
X150612317Y-113834516D01*
X150611708Y-113773573D01*
X150611489Y-113694486D01*
X150611466Y-113635956D01*
X150611540Y-113544407D01*
X150611887Y-113472687D01*
X150612699Y-113418045D01*
X150614167Y-113377732D01*
X150616481Y-113348998D01*
X150619833Y-113329093D01*
X150624412Y-113315268D01*
X150630411Y-113304772D01*
X150634864Y-113298811D01*
X150646150Y-113284691D01*
X150656699Y-113274029D01*
X150668107Y-113267892D01*
X150681970Y-113267343D01*
X150699886Y-113273448D01*
G36*
X150699886Y-113273448D02*
G01*
X150723452Y-113287273D01*
X150754265Y-113309881D01*
X150793922Y-113342338D01*
X150844020Y-113385708D01*
X150906157Y-113441058D01*
X150981928Y-113509451D01*
X151068666Y-113588084D01*
X151249289Y-113751878D01*
X151254933Y-113532029D01*
X151256971Y-113456351D01*
X151258937Y-113399994D01*
X151261266Y-113359706D01*
X151264394Y-113332235D01*
X151268755Y-113314329D01*
X151274784Y-113302737D01*
X151282916Y-113294208D01*
X151287228Y-113290623D01*
X151321759Y-113271670D01*
X151354617Y-113274441D01*
X151380682Y-113290633D01*
X151407333Y-113312199D01*
X151410648Y-113627151D01*
X151411565Y-113719779D01*
X151412032Y-113792544D01*
X151411887Y-113848161D01*
X151410968Y-113889342D01*
X151409113Y-113918803D01*
X151406161Y-113939255D01*
X151401950Y-113953413D01*
X151396318Y-113963991D01*
X151390073Y-113972474D01*
X151376561Y-113988207D01*
X151363117Y-113998636D01*
X151347876Y-114002639D01*
X151328974Y-113999094D01*
X151304545Y-113986879D01*
X151272727Y-113964871D01*
X151231652Y-113931949D01*
X151179458Y-113886991D01*
X151114278Y-113828875D01*
X151040444Y-113762099D01*
X150775155Y-113521458D01*
X150769511Y-113740589D01*
X150767469Y-113816128D01*
X150765498Y-113872354D01*
X150763161Y-113912524D01*
X150760019Y-113939896D01*
X150755636Y-113957728D01*
X150749576Y-113969279D01*
X150741400Y-113977807D01*
X150737216Y-113981282D01*
X150700235Y-114000372D01*
X150665292Y-113997493D01*
X150634864Y-113973100D01*
X150627903Y-113963286D01*
X150622477Y-113951826D01*
X150618397Y-113935968D01*
X150615471Y-113912963D01*
X150613508Y-113880062D01*
X150612317Y-113834516D01*
X150611708Y-113773573D01*
X150611489Y-113694486D01*
X150611466Y-113635956D01*
X150611540Y-113544407D01*
X150611887Y-113472687D01*
X150612699Y-113418045D01*
X150614167Y-113377732D01*
X150616481Y-113348998D01*
X150619833Y-113329093D01*
X150624412Y-113315268D01*
X150630411Y-113304772D01*
X150634864Y-113298811D01*
X150646150Y-113284691D01*
X150656699Y-113274029D01*
X150668107Y-113267892D01*
X150681970Y-113267343D01*
X150699886Y-113273448D01*
G37*
X150049919Y-113274599D02*
X150118435Y-113286095D01*
X150171057Y-113303967D01*
X150205292Y-113327499D01*
X150214621Y-113340924D01*
X150224107Y-113372148D01*
X150217723Y-113400395D01*
X150197570Y-113427182D01*
X150166255Y-113439713D01*
X150120817Y-113438696D01*
X150085674Y-113431906D01*
X150007581Y-113418971D01*
X149927774Y-113417742D01*
X149838445Y-113428241D01*
X149813771Y-113432690D01*
X149730709Y-113456108D01*
X149665727Y-113490945D01*
X149619539Y-113536604D01*
X149592855Y-113592494D01*
X149587337Y-113621388D01*
X149590949Y-113680012D01*
X149614271Y-113731879D01*
X149655176Y-113775978D01*
X149711541Y-113811299D01*
X149781240Y-113836829D01*
X149862148Y-113851559D01*
X149952140Y-113854478D01*
X150049090Y-113844575D01*
X150054564Y-113843641D01*
X150093125Y-113836459D01*
X150114506Y-113829521D01*
X150123773Y-113819227D01*
X150125994Y-113801976D01*
X150126044Y-113792841D01*
X150126044Y-113754489D01*
X150057569Y-113754489D01*
X149997100Y-113750347D01*
X149955835Y-113737147D01*
X149931825Y-113713730D01*
X149923123Y-113678936D01*
X149923017Y-113674394D01*
X149928108Y-113644654D01*
X149945567Y-113623419D01*
X149978061Y-113609366D01*
X150028257Y-113601173D01*
X150076877Y-113598161D01*
X150147544Y-113596433D01*
X150198802Y-113599070D01*
X150233761Y-113608800D01*
X150255530Y-113628353D01*
X150267220Y-113660456D01*
X150271940Y-113707838D01*
X150272800Y-113770071D01*
X150271391Y-113839535D01*
X150267152Y-113886786D01*
X150260064Y-113912012D01*
X150258689Y-113913988D01*
X150219772Y-113945508D01*
X150162714Y-113970470D01*
X150091131Y-113988340D01*
X150008642Y-113998586D01*
X149918861Y-114000673D01*
X149825408Y-113994068D01*
X149770444Y-113985956D01*
X149684234Y-113961554D01*
X149604108Y-113921662D01*
X149537023Y-113869887D01*
X149526827Y-113859539D01*
X149493698Y-113816035D01*
X149463806Y-113762118D01*
X149440643Y-113705592D01*
X149427702Y-113654259D01*
X149426142Y-113634544D01*
X149432782Y-113593419D01*
X149450432Y-113542252D01*
X149475703Y-113488394D01*
X149505211Y-113439195D01*
X149531281Y-113406334D01*
X149592235Y-113357452D01*
X149671031Y-113318545D01*
X149764843Y-113290494D01*
X149870850Y-113274179D01*
X149968000Y-113270192D01*
X150049919Y-113274599D01*
G36*
X150049919Y-113274599D02*
G01*
X150118435Y-113286095D01*
X150171057Y-113303967D01*
X150205292Y-113327499D01*
X150214621Y-113340924D01*
X150224107Y-113372148D01*
X150217723Y-113400395D01*
X150197570Y-113427182D01*
X150166255Y-113439713D01*
X150120817Y-113438696D01*
X150085674Y-113431906D01*
X150007581Y-113418971D01*
X149927774Y-113417742D01*
X149838445Y-113428241D01*
X149813771Y-113432690D01*
X149730709Y-113456108D01*
X149665727Y-113490945D01*
X149619539Y-113536604D01*
X149592855Y-113592494D01*
X149587337Y-113621388D01*
X149590949Y-113680012D01*
X149614271Y-113731879D01*
X149655176Y-113775978D01*
X149711541Y-113811299D01*
X149781240Y-113836829D01*
X149862148Y-113851559D01*
X149952140Y-113854478D01*
X150049090Y-113844575D01*
X150054564Y-113843641D01*
X150093125Y-113836459D01*
X150114506Y-113829521D01*
X150123773Y-113819227D01*
X150125994Y-113801976D01*
X150126044Y-113792841D01*
X150126044Y-113754489D01*
X150057569Y-113754489D01*
X149997100Y-113750347D01*
X149955835Y-113737147D01*
X149931825Y-113713730D01*
X149923123Y-113678936D01*
X149923017Y-113674394D01*
X149928108Y-113644654D01*
X149945567Y-113623419D01*
X149978061Y-113609366D01*
X150028257Y-113601173D01*
X150076877Y-113598161D01*
X150147544Y-113596433D01*
X150198802Y-113599070D01*
X150233761Y-113608800D01*
X150255530Y-113628353D01*
X150267220Y-113660456D01*
X150271940Y-113707838D01*
X150272800Y-113770071D01*
X150271391Y-113839535D01*
X150267152Y-113886786D01*
X150260064Y-113912012D01*
X150258689Y-113913988D01*
X150219772Y-113945508D01*
X150162714Y-113970470D01*
X150091131Y-113988340D01*
X150008642Y-113998586D01*
X149918861Y-114000673D01*
X149825408Y-113994068D01*
X149770444Y-113985956D01*
X149684234Y-113961554D01*
X149604108Y-113921662D01*
X149537023Y-113869887D01*
X149526827Y-113859539D01*
X149493698Y-113816035D01*
X149463806Y-113762118D01*
X149440643Y-113705592D01*
X149427702Y-113654259D01*
X149426142Y-113634544D01*
X149432782Y-113593419D01*
X149450432Y-113542252D01*
X149475703Y-113488394D01*
X149505211Y-113439195D01*
X149531281Y-113406334D01*
X149592235Y-113357452D01*
X149671031Y-113318545D01*
X149764843Y-113290494D01*
X149870850Y-113274179D01*
X149968000Y-113270192D01*
X150049919Y-113274599D01*
G37*
X152230343Y-113269260D02*
X152306701Y-113270174D01*
X152365217Y-113272311D01*
X152408255Y-113276175D01*
X152438183Y-113282267D01*
X152457368Y-113291090D01*
X152468176Y-113303146D01*
X152472973Y-113318939D01*
X152474127Y-113338970D01*
X152474133Y-113341335D01*
X152473131Y-113363992D01*
X152468396Y-113381503D01*
X152457333Y-113394574D01*
X152437348Y-113403913D01*
X152405846Y-113410227D01*
X152360232Y-113414222D01*
X152297913Y-113416606D01*
X152216293Y-113418086D01*
X152191277Y-113418414D01*
X151949200Y-113421467D01*
X151945814Y-113486378D01*
X151942429Y-113551289D01*
X152110576Y-113551289D01*
X152176266Y-113551531D01*
X152223172Y-113552556D01*
X152255083Y-113554811D01*
X152275791Y-113558742D01*
X152289084Y-113564798D01*
X152298755Y-113573424D01*
X152298817Y-113573493D01*
X152316356Y-113607112D01*
X152315722Y-113643448D01*
X152297314Y-113674423D01*
X152293671Y-113677607D01*
X152280741Y-113685812D01*
X152263024Y-113691521D01*
X152236570Y-113695162D01*
X152197432Y-113697167D01*
X152141662Y-113697964D01*
X152105994Y-113698045D01*
X151943555Y-113698045D01*
X151943555Y-113856089D01*
X152190161Y-113856089D01*
X152271580Y-113856231D01*
X152333410Y-113856814D01*
X152378637Y-113858068D01*
X152410248Y-113860227D01*
X152431231Y-113863523D01*
X152444573Y-113868189D01*
X152453261Y-113874457D01*
X152455450Y-113876733D01*
X152471614Y-113908280D01*
X152472797Y-113944168D01*
X152459536Y-113975285D01*
X152449043Y-113985271D01*
X152438129Y-113990769D01*
X152421217Y-113995022D01*
X152395633Y-113998180D01*
X152358701Y-114000392D01*
X152307746Y-114001806D01*
X152240094Y-114002572D01*
X152153069Y-114002838D01*
X152133394Y-114002845D01*
X152044911Y-114002787D01*
X151976227Y-114002467D01*
X151924564Y-114001667D01*
X151887145Y-114000167D01*
X151861190Y-113997749D01*
X151843922Y-113994194D01*
X151832562Y-113989282D01*
X151824332Y-113982795D01*
X151819817Y-113978138D01*
X151813021Y-113969889D01*
X151807712Y-113959669D01*
X151803706Y-113944800D01*
X151800821Y-113922602D01*
X151798874Y-113890393D01*
X151797681Y-113845496D01*
X151797061Y-113785228D01*
X151796829Y-113706911D01*
X151796800Y-113640994D01*
X151796871Y-113548628D01*
X151797208Y-113476117D01*
X151797998Y-113420737D01*
X151799426Y-113379765D01*
X151801679Y-113350478D01*
X151804943Y-113330153D01*
X151809404Y-113316066D01*
X151815248Y-113305495D01*
X151820197Y-113298811D01*
X151843594Y-113269067D01*
X152133774Y-113269067D01*
X152230343Y-113269260D01*
G36*
X152230343Y-113269260D02*
G01*
X152306701Y-113270174D01*
X152365217Y-113272311D01*
X152408255Y-113276175D01*
X152438183Y-113282267D01*
X152457368Y-113291090D01*
X152468176Y-113303146D01*
X152472973Y-113318939D01*
X152474127Y-113338970D01*
X152474133Y-113341335D01*
X152473131Y-113363992D01*
X152468396Y-113381503D01*
X152457333Y-113394574D01*
X152437348Y-113403913D01*
X152405846Y-113410227D01*
X152360232Y-113414222D01*
X152297913Y-113416606D01*
X152216293Y-113418086D01*
X152191277Y-113418414D01*
X151949200Y-113421467D01*
X151945814Y-113486378D01*
X151942429Y-113551289D01*
X152110576Y-113551289D01*
X152176266Y-113551531D01*
X152223172Y-113552556D01*
X152255083Y-113554811D01*
X152275791Y-113558742D01*
X152289084Y-113564798D01*
X152298755Y-113573424D01*
X152298817Y-113573493D01*
X152316356Y-113607112D01*
X152315722Y-113643448D01*
X152297314Y-113674423D01*
X152293671Y-113677607D01*
X152280741Y-113685812D01*
X152263024Y-113691521D01*
X152236570Y-113695162D01*
X152197432Y-113697167D01*
X152141662Y-113697964D01*
X152105994Y-113698045D01*
X151943555Y-113698045D01*
X151943555Y-113856089D01*
X152190161Y-113856089D01*
X152271580Y-113856231D01*
X152333410Y-113856814D01*
X152378637Y-113858068D01*
X152410248Y-113860227D01*
X152431231Y-113863523D01*
X152444573Y-113868189D01*
X152453261Y-113874457D01*
X152455450Y-113876733D01*
X152471614Y-113908280D01*
X152472797Y-113944168D01*
X152459536Y-113975285D01*
X152449043Y-113985271D01*
X152438129Y-113990769D01*
X152421217Y-113995022D01*
X152395633Y-113998180D01*
X152358701Y-114000392D01*
X152307746Y-114001806D01*
X152240094Y-114002572D01*
X152153069Y-114002838D01*
X152133394Y-114002845D01*
X152044911Y-114002787D01*
X151976227Y-114002467D01*
X151924564Y-114001667D01*
X151887145Y-114000167D01*
X151861190Y-113997749D01*
X151843922Y-113994194D01*
X151832562Y-113989282D01*
X151824332Y-113982795D01*
X151819817Y-113978138D01*
X151813021Y-113969889D01*
X151807712Y-113959669D01*
X151803706Y-113944800D01*
X151800821Y-113922602D01*
X151798874Y-113890393D01*
X151797681Y-113845496D01*
X151797061Y-113785228D01*
X151796829Y-113706911D01*
X151796800Y-113640994D01*
X151796871Y-113548628D01*
X151797208Y-113476117D01*
X151797998Y-113420737D01*
X151799426Y-113379765D01*
X151801679Y-113350478D01*
X151804943Y-113330153D01*
X151809404Y-113316066D01*
X151815248Y-113305495D01*
X151820197Y-113298811D01*
X151843594Y-113269067D01*
X152133774Y-113269067D01*
X152230343Y-113269260D01*
G37*
X147287206Y-113269146D02*
X147356614Y-113269518D01*
X147409003Y-113270385D01*
X147447153Y-113271946D01*
X147473841Y-113274403D01*
X147491847Y-113277957D01*
X147503951Y-113282810D01*
X147512931Y-113289161D01*
X147516182Y-113292084D01*
X147535957Y-113323142D01*
X147539518Y-113358828D01*
X147526509Y-113390510D01*
X147520494Y-113396913D01*
X147510765Y-113403121D01*
X147495099Y-113407910D01*
X147470592Y-113411514D01*
X147434339Y-113414164D01*
X147383435Y-113416095D01*
X147314974Y-113417539D01*
X147252383Y-113418418D01*
X147004666Y-113421467D01*
X147001281Y-113486378D01*
X146997895Y-113551289D01*
X147166042Y-113551289D01*
X147239041Y-113551919D01*
X147292483Y-113554553D01*
X147329372Y-113560309D01*
X147352712Y-113570304D01*
X147365506Y-113585656D01*
X147370758Y-113607482D01*
X147371555Y-113627738D01*
X147369077Y-113652592D01*
X147359723Y-113670906D01*
X147340617Y-113683637D01*
X147308882Y-113691741D01*
X147261641Y-113696176D01*
X147196017Y-113697899D01*
X147160199Y-113698045D01*
X146999022Y-113698045D01*
X146999022Y-113856089D01*
X147247378Y-113856089D01*
X147328787Y-113856202D01*
X147390658Y-113856712D01*
X147436032Y-113857870D01*
X147467946Y-113859930D01*
X147489441Y-113863146D01*
X147503557Y-113867772D01*
X147513332Y-113874059D01*
X147518311Y-113878667D01*
X147535390Y-113905560D01*
X147540889Y-113929467D01*
X147533037Y-113958667D01*
X147518311Y-113980267D01*
X147510454Y-113987066D01*
X147500312Y-113992346D01*
X147485156Y-113996298D01*
X147462259Y-113999113D01*
X147428891Y-114000982D01*
X147382325Y-114002098D01*
X147319833Y-114002651D01*
X147238686Y-114002833D01*
X147196578Y-114002845D01*
X147106402Y-114002765D01*
X147036076Y-114002398D01*
X146982871Y-114001552D01*
X146944060Y-114000036D01*
X146916913Y-113997659D01*
X146898702Y-113994229D01*
X146886700Y-113989554D01*
X146878178Y-113983444D01*
X146874844Y-113980267D01*
X146868245Y-113972670D01*
X146863073Y-113962870D01*
X146859154Y-113948239D01*
X146856316Y-113926152D01*
X146854385Y-113893982D01*
X146853188Y-113849103D01*
X146852552Y-113788889D01*
X146852303Y-113710713D01*
X146852266Y-113637923D01*
X146852300Y-113544707D01*
X146852535Y-113471431D01*
X146853170Y-113415458D01*
X146854406Y-113374151D01*
X146856444Y-113344872D01*
X146859483Y-113324984D01*
X146863723Y-113311850D01*
X146869365Y-113302832D01*
X146876609Y-113295293D01*
X146878394Y-113293612D01*
X146887055Y-113286172D01*
X146897118Y-113280409D01*
X146911375Y-113276112D01*
X146932617Y-113273064D01*
X146963636Y-113271051D01*
X147007223Y-113269860D01*
X147066169Y-113269275D01*
X147143266Y-113269083D01*
X147197999Y-113269067D01*
X147287206Y-113269146D01*
G36*
X147287206Y-113269146D02*
G01*
X147356614Y-113269518D01*
X147409003Y-113270385D01*
X147447153Y-113271946D01*
X147473841Y-113274403D01*
X147491847Y-113277957D01*
X147503951Y-113282810D01*
X147512931Y-113289161D01*
X147516182Y-113292084D01*
X147535957Y-113323142D01*
X147539518Y-113358828D01*
X147526509Y-113390510D01*
X147520494Y-113396913D01*
X147510765Y-113403121D01*
X147495099Y-113407910D01*
X147470592Y-113411514D01*
X147434339Y-113414164D01*
X147383435Y-113416095D01*
X147314974Y-113417539D01*
X147252383Y-113418418D01*
X147004666Y-113421467D01*
X147001281Y-113486378D01*
X146997895Y-113551289D01*
X147166042Y-113551289D01*
X147239041Y-113551919D01*
X147292483Y-113554553D01*
X147329372Y-113560309D01*
X147352712Y-113570304D01*
X147365506Y-113585656D01*
X147370758Y-113607482D01*
X147371555Y-113627738D01*
X147369077Y-113652592D01*
X147359723Y-113670906D01*
X147340617Y-113683637D01*
X147308882Y-113691741D01*
X147261641Y-113696176D01*
X147196017Y-113697899D01*
X147160199Y-113698045D01*
X146999022Y-113698045D01*
X146999022Y-113856089D01*
X147247378Y-113856089D01*
X147328787Y-113856202D01*
X147390658Y-113856712D01*
X147436032Y-113857870D01*
X147467946Y-113859930D01*
X147489441Y-113863146D01*
X147503557Y-113867772D01*
X147513332Y-113874059D01*
X147518311Y-113878667D01*
X147535390Y-113905560D01*
X147540889Y-113929467D01*
X147533037Y-113958667D01*
X147518311Y-113980267D01*
X147510454Y-113987066D01*
X147500312Y-113992346D01*
X147485156Y-113996298D01*
X147462259Y-113999113D01*
X147428891Y-114000982D01*
X147382325Y-114002098D01*
X147319833Y-114002651D01*
X147238686Y-114002833D01*
X147196578Y-114002845D01*
X147106402Y-114002765D01*
X147036076Y-114002398D01*
X146982871Y-114001552D01*
X146944060Y-114000036D01*
X146916913Y-113997659D01*
X146898702Y-113994229D01*
X146886700Y-113989554D01*
X146878178Y-113983444D01*
X146874844Y-113980267D01*
X146868245Y-113972670D01*
X146863073Y-113962870D01*
X146859154Y-113948239D01*
X146856316Y-113926152D01*
X146854385Y-113893982D01*
X146853188Y-113849103D01*
X146852552Y-113788889D01*
X146852303Y-113710713D01*
X146852266Y-113637923D01*
X146852300Y-113544707D01*
X146852535Y-113471431D01*
X146853170Y-113415458D01*
X146854406Y-113374151D01*
X146856444Y-113344872D01*
X146859483Y-113324984D01*
X146863723Y-113311850D01*
X146869365Y-113302832D01*
X146876609Y-113295293D01*
X146878394Y-113293612D01*
X146887055Y-113286172D01*
X146897118Y-113280409D01*
X146911375Y-113276112D01*
X146932617Y-113273064D01*
X146963636Y-113271051D01*
X147007223Y-113269860D01*
X147066169Y-113269275D01*
X147143266Y-113269083D01*
X147197999Y-113269067D01*
X147287206Y-113269146D01*
G37*
X155744665Y-113271034D02*
X155764255Y-113278035D01*
X155765010Y-113278377D01*
X155791613Y-113298678D01*
X155806270Y-113319561D01*
X155809138Y-113329352D01*
X155808996Y-113342361D01*
X155804961Y-113360895D01*
X155796146Y-113387257D01*
X155781669Y-113423752D01*
X155760645Y-113472687D01*
X155732188Y-113536365D01*
X155695415Y-113617093D01*
X155675175Y-113661216D01*
X155638625Y-113739985D01*
X155604315Y-113812423D01*
X155573552Y-113875880D01*
X155547648Y-113927708D01*
X155527910Y-113965259D01*
X155515650Y-113985884D01*
X155513224Y-113988733D01*
X155482183Y-114001302D01*
X155447121Y-113999619D01*
X155419000Y-113984332D01*
X155417854Y-113983089D01*
X155406668Y-113966154D01*
X155387904Y-113933170D01*
X155363875Y-113888380D01*
X155336897Y-113836032D01*
X155327201Y-113816742D01*
X155254014Y-113670150D01*
X155174240Y-113829393D01*
X155145767Y-113884415D01*
X155119350Y-113932132D01*
X155097148Y-113968893D01*
X155081319Y-113991044D01*
X155075954Y-113995741D01*
X155034257Y-114002102D01*
X154999849Y-113988733D01*
X154989728Y-113974446D01*
X154972214Y-113942692D01*
X154948735Y-113896597D01*
X154920720Y-113839285D01*
X154889599Y-113773880D01*
X154856799Y-113703507D01*
X154823750Y-113631291D01*
X154791881Y-113560355D01*
X154762619Y-113493825D01*
X154737395Y-113434826D01*
X154717636Y-113386481D01*
X154704772Y-113351915D01*
X154700231Y-113334253D01*
X154700277Y-113333613D01*
X154711326Y-113311388D01*
X154733410Y-113288753D01*
X154734710Y-113287768D01*
X154761853Y-113272425D01*
X154786958Y-113272574D01*
X154796368Y-113275466D01*
X154807834Y-113281718D01*
X154820010Y-113294014D01*
X154834357Y-113314908D01*
X154852336Y-113346949D01*
X154875407Y-113392688D01*
X154905030Y-113454677D01*
X154931745Y-113511898D01*
X154962480Y-113578226D01*
X154990021Y-113637874D01*
X155012938Y-113687725D01*
X155029798Y-113724664D01*
X155039173Y-113745573D01*
X155040540Y-113748845D01*
X155046689Y-113743497D01*
X155060822Y-113721109D01*
X155081057Y-113684946D01*
X155105515Y-113638277D01*
X155115248Y-113619022D01*
X155148217Y-113554004D01*
X155173643Y-113506654D01*
X155193612Y-113474219D01*
X155210210Y-113453946D01*
X155225524Y-113443082D01*
X155241640Y-113438875D01*
X155252143Y-113438400D01*
X155270670Y-113440042D01*
X155286904Y-113446831D01*
X155303035Y-113461566D01*
X155321251Y-113487044D01*
X155343739Y-113526061D01*
X155372689Y-113581414D01*
X155388662Y-113612903D01*
X155414570Y-113663087D01*
X155437167Y-113704704D01*
X155454458Y-113734242D01*
X155464450Y-113748189D01*
X155465809Y-113748770D01*
X155472261Y-113737793D01*
X155486708Y-113709290D01*
X155507703Y-113666244D01*
X155533797Y-113611638D01*
X155563546Y-113548454D01*
X155578180Y-113517071D01*
X155616250Y-113436078D01*
X155646905Y-113373756D01*
X155671737Y-113328071D01*
X155692337Y-113296989D01*
X155710298Y-113278478D01*
X155727210Y-113270504D01*
X155744665Y-113271034D01*
G36*
X155744665Y-113271034D02*
G01*
X155764255Y-113278035D01*
X155765010Y-113278377D01*
X155791613Y-113298678D01*
X155806270Y-113319561D01*
X155809138Y-113329352D01*
X155808996Y-113342361D01*
X155804961Y-113360895D01*
X155796146Y-113387257D01*
X155781669Y-113423752D01*
X155760645Y-113472687D01*
X155732188Y-113536365D01*
X155695415Y-113617093D01*
X155675175Y-113661216D01*
X155638625Y-113739985D01*
X155604315Y-113812423D01*
X155573552Y-113875880D01*
X155547648Y-113927708D01*
X155527910Y-113965259D01*
X155515650Y-113985884D01*
X155513224Y-113988733D01*
X155482183Y-114001302D01*
X155447121Y-113999619D01*
X155419000Y-113984332D01*
X155417854Y-113983089D01*
X155406668Y-113966154D01*
X155387904Y-113933170D01*
X155363875Y-113888380D01*
X155336897Y-113836032D01*
X155327201Y-113816742D01*
X155254014Y-113670150D01*
X155174240Y-113829393D01*
X155145767Y-113884415D01*
X155119350Y-113932132D01*
X155097148Y-113968893D01*
X155081319Y-113991044D01*
X155075954Y-113995741D01*
X155034257Y-114002102D01*
X154999849Y-113988733D01*
X154989728Y-113974446D01*
X154972214Y-113942692D01*
X154948735Y-113896597D01*
X154920720Y-113839285D01*
X154889599Y-113773880D01*
X154856799Y-113703507D01*
X154823750Y-113631291D01*
X154791881Y-113560355D01*
X154762619Y-113493825D01*
X154737395Y-113434826D01*
X154717636Y-113386481D01*
X154704772Y-113351915D01*
X154700231Y-113334253D01*
X154700277Y-113333613D01*
X154711326Y-113311388D01*
X154733410Y-113288753D01*
X154734710Y-113287768D01*
X154761853Y-113272425D01*
X154786958Y-113272574D01*
X154796368Y-113275466D01*
X154807834Y-113281718D01*
X154820010Y-113294014D01*
X154834357Y-113314908D01*
X154852336Y-113346949D01*
X154875407Y-113392688D01*
X154905030Y-113454677D01*
X154931745Y-113511898D01*
X154962480Y-113578226D01*
X154990021Y-113637874D01*
X155012938Y-113687725D01*
X155029798Y-113724664D01*
X155039173Y-113745573D01*
X155040540Y-113748845D01*
X155046689Y-113743497D01*
X155060822Y-113721109D01*
X155081057Y-113684946D01*
X155105515Y-113638277D01*
X155115248Y-113619022D01*
X155148217Y-113554004D01*
X155173643Y-113506654D01*
X155193612Y-113474219D01*
X155210210Y-113453946D01*
X155225524Y-113443082D01*
X155241640Y-113438875D01*
X155252143Y-113438400D01*
X155270670Y-113440042D01*
X155286904Y-113446831D01*
X155303035Y-113461566D01*
X155321251Y-113487044D01*
X155343739Y-113526061D01*
X155372689Y-113581414D01*
X155388662Y-113612903D01*
X155414570Y-113663087D01*
X155437167Y-113704704D01*
X155454458Y-113734242D01*
X155464450Y-113748189D01*
X155465809Y-113748770D01*
X155472261Y-113737793D01*
X155486708Y-113709290D01*
X155507703Y-113666244D01*
X155533797Y-113611638D01*
X155563546Y-113548454D01*
X155578180Y-113517071D01*
X155616250Y-113436078D01*
X155646905Y-113373756D01*
X155671737Y-113328071D01*
X155692337Y-113296989D01*
X155710298Y-113278478D01*
X155727210Y-113270504D01*
X155744665Y-113271034D01*
G37*
X148308297Y-113270351D02*
X148383112Y-113275581D01*
X148452694Y-113283750D01*
X148512998Y-113294550D01*
X148559980Y-113307673D01*
X148589594Y-113322813D01*
X148594140Y-113327269D01*
X148609946Y-113361850D01*
X148605153Y-113397351D01*
X148580636Y-113427725D01*
X148579466Y-113428596D01*
X148565046Y-113437954D01*
X148549992Y-113442876D01*
X148528995Y-113443473D01*
X148496743Y-113439861D01*
X148447927Y-113432154D01*
X148444000Y-113431505D01*
X148371261Y-113422569D01*
X148292783Y-113418161D01*
X148214073Y-113418119D01*
X148140639Y-113422279D01*
X148077989Y-113430479D01*
X148031630Y-113442557D01*
X148028584Y-113443771D01*
X147994952Y-113462615D01*
X147983136Y-113481685D01*
X147992386Y-113500439D01*
X148021953Y-113518337D01*
X148071089Y-113534837D01*
X148139043Y-113549396D01*
X148184355Y-113556406D01*
X148278544Y-113569889D01*
X148353456Y-113582214D01*
X148412283Y-113594449D01*
X148458215Y-113607661D01*
X148494445Y-113622917D01*
X148524162Y-113641285D01*
X148550558Y-113663831D01*
X148571770Y-113685971D01*
X148596935Y-113716819D01*
X148609319Y-113743345D01*
X148613192Y-113776026D01*
X148613333Y-113787995D01*
X148610424Y-113827712D01*
X148598798Y-113857259D01*
X148578677Y-113883486D01*
X148537784Y-113923576D01*
X148492183Y-113954149D01*
X148438487Y-113976203D01*
X148373308Y-113990735D01*
X148293256Y-113998741D01*
X148194943Y-114001218D01*
X148178711Y-114001177D01*
X148113151Y-113999818D01*
X148048134Y-113996730D01*
X147990748Y-113992356D01*
X147948078Y-113987140D01*
X147944628Y-113986541D01*
X147902204Y-113976491D01*
X147866220Y-113963796D01*
X147845850Y-113952190D01*
X147826893Y-113921572D01*
X147825573Y-113885918D01*
X147841915Y-113854144D01*
X147845571Y-113850551D01*
X147860685Y-113839876D01*
X147879585Y-113835276D01*
X147908838Y-113836059D01*
X147944349Y-113840127D01*
X147984030Y-113843762D01*
X148039655Y-113846828D01*
X148104594Y-113849053D01*
X148172215Y-113850164D01*
X148190000Y-113850237D01*
X148257872Y-113849964D01*
X148307546Y-113848646D01*
X148343390Y-113845827D01*
X148369776Y-113841050D01*
X148391074Y-113833857D01*
X148403874Y-113827867D01*
X148432000Y-113811233D01*
X148449932Y-113796168D01*
X148452553Y-113791897D01*
X148447024Y-113774263D01*
X148420740Y-113757192D01*
X148375522Y-113741458D01*
X148313192Y-113727838D01*
X148294829Y-113724804D01*
X148198910Y-113709738D01*
X148122359Y-113697146D01*
X148062220Y-113686111D01*
X148015540Y-113675720D01*
X147979363Y-113665056D01*
X147950735Y-113653205D01*
X147926702Y-113639251D01*
X147904308Y-113622281D01*
X147880598Y-113601378D01*
X147872620Y-113594049D01*
X147844647Y-113566699D01*
X147829840Y-113545029D01*
X147824048Y-113520232D01*
X147823111Y-113488983D01*
X147833425Y-113427705D01*
X147864248Y-113375640D01*
X147915405Y-113332958D01*
X147986717Y-113299825D01*
X148037600Y-113284964D01*
X148092900Y-113275366D01*
X148159147Y-113269936D01*
X148232294Y-113268367D01*
X148308297Y-113270351D01*
G36*
X148308297Y-113270351D02*
G01*
X148383112Y-113275581D01*
X148452694Y-113283750D01*
X148512998Y-113294550D01*
X148559980Y-113307673D01*
X148589594Y-113322813D01*
X148594140Y-113327269D01*
X148609946Y-113361850D01*
X148605153Y-113397351D01*
X148580636Y-113427725D01*
X148579466Y-113428596D01*
X148565046Y-113437954D01*
X148549992Y-113442876D01*
X148528995Y-113443473D01*
X148496743Y-113439861D01*
X148447927Y-113432154D01*
X148444000Y-113431505D01*
X148371261Y-113422569D01*
X148292783Y-113418161D01*
X148214073Y-113418119D01*
X148140639Y-113422279D01*
X148077989Y-113430479D01*
X148031630Y-113442557D01*
X148028584Y-113443771D01*
X147994952Y-113462615D01*
X147983136Y-113481685D01*
X147992386Y-113500439D01*
X148021953Y-113518337D01*
X148071089Y-113534837D01*
X148139043Y-113549396D01*
X148184355Y-113556406D01*
X148278544Y-113569889D01*
X148353456Y-113582214D01*
X148412283Y-113594449D01*
X148458215Y-113607661D01*
X148494445Y-113622917D01*
X148524162Y-113641285D01*
X148550558Y-113663831D01*
X148571770Y-113685971D01*
X148596935Y-113716819D01*
X148609319Y-113743345D01*
X148613192Y-113776026D01*
X148613333Y-113787995D01*
X148610424Y-113827712D01*
X148598798Y-113857259D01*
X148578677Y-113883486D01*
X148537784Y-113923576D01*
X148492183Y-113954149D01*
X148438487Y-113976203D01*
X148373308Y-113990735D01*
X148293256Y-113998741D01*
X148194943Y-114001218D01*
X148178711Y-114001177D01*
X148113151Y-113999818D01*
X148048134Y-113996730D01*
X147990748Y-113992356D01*
X147948078Y-113987140D01*
X147944628Y-113986541D01*
X147902204Y-113976491D01*
X147866220Y-113963796D01*
X147845850Y-113952190D01*
X147826893Y-113921572D01*
X147825573Y-113885918D01*
X147841915Y-113854144D01*
X147845571Y-113850551D01*
X147860685Y-113839876D01*
X147879585Y-113835276D01*
X147908838Y-113836059D01*
X147944349Y-113840127D01*
X147984030Y-113843762D01*
X148039655Y-113846828D01*
X148104594Y-113849053D01*
X148172215Y-113850164D01*
X148190000Y-113850237D01*
X148257872Y-113849964D01*
X148307546Y-113848646D01*
X148343390Y-113845827D01*
X148369776Y-113841050D01*
X148391074Y-113833857D01*
X148403874Y-113827867D01*
X148432000Y-113811233D01*
X148449932Y-113796168D01*
X148452553Y-113791897D01*
X148447024Y-113774263D01*
X148420740Y-113757192D01*
X148375522Y-113741458D01*
X148313192Y-113727838D01*
X148294829Y-113724804D01*
X148198910Y-113709738D01*
X148122359Y-113697146D01*
X148062220Y-113686111D01*
X148015540Y-113675720D01*
X147979363Y-113665056D01*
X147950735Y-113653205D01*
X147926702Y-113639251D01*
X147904308Y-113622281D01*
X147880598Y-113601378D01*
X147872620Y-113594049D01*
X147844647Y-113566699D01*
X147829840Y-113545029D01*
X147824048Y-113520232D01*
X147823111Y-113488983D01*
X147833425Y-113427705D01*
X147864248Y-113375640D01*
X147915405Y-113332958D01*
X147986717Y-113299825D01*
X148037600Y-113284964D01*
X148092900Y-113275366D01*
X148159147Y-113269936D01*
X148232294Y-113268367D01*
X148308297Y-113270351D01*
G37*
X152328429Y-108949071D02*
X152488570Y-108970245D01*
X152652510Y-109010385D01*
X152822313Y-109069889D01*
X153000043Y-109149154D01*
X153011310Y-109154699D01*
X153069005Y-109182725D01*
X153120552Y-109206802D01*
X153162191Y-109225249D01*
X153190162Y-109236386D01*
X153199733Y-109238933D01*
X153218950Y-109243941D01*
X153223561Y-109248147D01*
X153218458Y-109258580D01*
X153202418Y-109284868D01*
X153177288Y-109324257D01*
X153144914Y-109373991D01*
X153107143Y-109431315D01*
X153065822Y-109493476D01*
X153022798Y-109557718D01*
X152979917Y-109621285D01*
X152939026Y-109681425D01*
X152901971Y-109735380D01*
X152870600Y-109780397D01*
X152846759Y-109813721D01*
X152832294Y-109832597D01*
X152830309Y-109834787D01*
X152820191Y-109830138D01*
X152797850Y-109812962D01*
X152767280Y-109786440D01*
X152751536Y-109771964D01*
X152655047Y-109696682D01*
X152548336Y-109641241D01*
X152432832Y-109606141D01*
X152309962Y-109591880D01*
X152240561Y-109593051D01*
X152119423Y-109610212D01*
X152010205Y-109646094D01*
X151912582Y-109700959D01*
X151826228Y-109775070D01*
X151750815Y-109868688D01*
X151686018Y-109982076D01*
X151648601Y-110068667D01*
X151604748Y-110204366D01*
X151572428Y-110351850D01*
X151551557Y-110507314D01*
X151542051Y-110666956D01*
X151543827Y-110826973D01*
X151556803Y-110983561D01*
X151580894Y-111132918D01*
X151616018Y-111271240D01*
X151662092Y-111394724D01*
X151678373Y-111428978D01*
X151746620Y-111543064D01*
X151827079Y-111639557D01*
X151918570Y-111717670D01*
X152019911Y-111776617D01*
X152129920Y-111815612D01*
X152247415Y-111833868D01*
X152288883Y-111835211D01*
X152410441Y-111824290D01*
X152530878Y-111791474D01*
X152648666Y-111737439D01*
X152762277Y-111662865D01*
X152853685Y-111584539D01*
X152900215Y-111540008D01*
X153081483Y-111837271D01*
X153126580Y-111911433D01*
X153167819Y-111979646D01*
X153203735Y-112039459D01*
X153232866Y-112088420D01*
X153253750Y-112124079D01*
X153264924Y-112143984D01*
X153266375Y-112147079D01*
X153258146Y-112156718D01*
X153232567Y-112173999D01*
X153192873Y-112197283D01*
X153142297Y-112224934D01*
X153084074Y-112255315D01*
X153021437Y-112286790D01*
X152957621Y-112317722D01*
X152895860Y-112346473D01*
X152839388Y-112371408D01*
X152791438Y-112390889D01*
X152767986Y-112399318D01*
X152634221Y-112437133D01*
X152496327Y-112462136D01*
X152348622Y-112475140D01*
X152221833Y-112477468D01*
X152153878Y-112476373D01*
X152088277Y-112474275D01*
X152030847Y-112471434D01*
X151987403Y-112468106D01*
X151973298Y-112466422D01*
X151834284Y-112437587D01*
X151692757Y-112392468D01*
X151555275Y-112333750D01*
X151428394Y-112264120D01*
X151350889Y-112211441D01*
X151223481Y-112103239D01*
X151105178Y-111976671D01*
X150998172Y-111834866D01*
X150904652Y-111680951D01*
X150826810Y-111518053D01*
X150782956Y-111400756D01*
X150732708Y-111217128D01*
X150699209Y-111022581D01*
X150682449Y-110821325D01*
X150682416Y-110617568D01*
X150699101Y-110415521D01*
X150732493Y-110219392D01*
X150782580Y-110033391D01*
X150786397Y-110021803D01*
X150849281Y-109859750D01*
X150926028Y-109711832D01*
X151019242Y-109573865D01*
X151131527Y-109441661D01*
X151175392Y-109396399D01*
X151311534Y-109272457D01*
X151451491Y-109169915D01*
X151597411Y-109087656D01*
X151751442Y-109024564D01*
X151915732Y-108979523D01*
X152011289Y-108962033D01*
X152170023Y-108946466D01*
X152328429Y-108949071D01*
G36*
X152328429Y-108949071D02*
G01*
X152488570Y-108970245D01*
X152652510Y-109010385D01*
X152822313Y-109069889D01*
X153000043Y-109149154D01*
X153011310Y-109154699D01*
X153069005Y-109182725D01*
X153120552Y-109206802D01*
X153162191Y-109225249D01*
X153190162Y-109236386D01*
X153199733Y-109238933D01*
X153218950Y-109243941D01*
X153223561Y-109248147D01*
X153218458Y-109258580D01*
X153202418Y-109284868D01*
X153177288Y-109324257D01*
X153144914Y-109373991D01*
X153107143Y-109431315D01*
X153065822Y-109493476D01*
X153022798Y-109557718D01*
X152979917Y-109621285D01*
X152939026Y-109681425D01*
X152901971Y-109735380D01*
X152870600Y-109780397D01*
X152846759Y-109813721D01*
X152832294Y-109832597D01*
X152830309Y-109834787D01*
X152820191Y-109830138D01*
X152797850Y-109812962D01*
X152767280Y-109786440D01*
X152751536Y-109771964D01*
X152655047Y-109696682D01*
X152548336Y-109641241D01*
X152432832Y-109606141D01*
X152309962Y-109591880D01*
X152240561Y-109593051D01*
X152119423Y-109610212D01*
X152010205Y-109646094D01*
X151912582Y-109700959D01*
X151826228Y-109775070D01*
X151750815Y-109868688D01*
X151686018Y-109982076D01*
X151648601Y-110068667D01*
X151604748Y-110204366D01*
X151572428Y-110351850D01*
X151551557Y-110507314D01*
X151542051Y-110666956D01*
X151543827Y-110826973D01*
X151556803Y-110983561D01*
X151580894Y-111132918D01*
X151616018Y-111271240D01*
X151662092Y-111394724D01*
X151678373Y-111428978D01*
X151746620Y-111543064D01*
X151827079Y-111639557D01*
X151918570Y-111717670D01*
X152019911Y-111776617D01*
X152129920Y-111815612D01*
X152247415Y-111833868D01*
X152288883Y-111835211D01*
X152410441Y-111824290D01*
X152530878Y-111791474D01*
X152648666Y-111737439D01*
X152762277Y-111662865D01*
X152853685Y-111584539D01*
X152900215Y-111540008D01*
X153081483Y-111837271D01*
X153126580Y-111911433D01*
X153167819Y-111979646D01*
X153203735Y-112039459D01*
X153232866Y-112088420D01*
X153253750Y-112124079D01*
X153264924Y-112143984D01*
X153266375Y-112147079D01*
X153258146Y-112156718D01*
X153232567Y-112173999D01*
X153192873Y-112197283D01*
X153142297Y-112224934D01*
X153084074Y-112255315D01*
X153021437Y-112286790D01*
X152957621Y-112317722D01*
X152895860Y-112346473D01*
X152839388Y-112371408D01*
X152791438Y-112390889D01*
X152767986Y-112399318D01*
X152634221Y-112437133D01*
X152496327Y-112462136D01*
X152348622Y-112475140D01*
X152221833Y-112477468D01*
X152153878Y-112476373D01*
X152088277Y-112474275D01*
X152030847Y-112471434D01*
X151987403Y-112468106D01*
X151973298Y-112466422D01*
X151834284Y-112437587D01*
X151692757Y-112392468D01*
X151555275Y-112333750D01*
X151428394Y-112264120D01*
X151350889Y-112211441D01*
X151223481Y-112103239D01*
X151105178Y-111976671D01*
X150998172Y-111834866D01*
X150904652Y-111680951D01*
X150826810Y-111518053D01*
X150782956Y-111400756D01*
X150732708Y-111217128D01*
X150699209Y-111022581D01*
X150682449Y-110821325D01*
X150682416Y-110617568D01*
X150699101Y-110415521D01*
X150732493Y-110219392D01*
X150782580Y-110033391D01*
X150786397Y-110021803D01*
X150849281Y-109859750D01*
X150926028Y-109711832D01*
X151019242Y-109573865D01*
X151131527Y-109441661D01*
X151175392Y-109396399D01*
X151311534Y-109272457D01*
X151451491Y-109169915D01*
X151597411Y-109087656D01*
X151751442Y-109024564D01*
X151915732Y-108979523D01*
X152011289Y-108962033D01*
X152170023Y-108946466D01*
X152328429Y-108949071D01*
G37*
X158186507Y-110472245D02*
X158186526Y-110706662D01*
X158186552Y-110919603D01*
X158186625Y-111112168D01*
X158186782Y-111285459D01*
X158187064Y-111440576D01*
X158187509Y-111578620D01*
X158188156Y-111700692D01*
X158189045Y-111807894D01*
X158190213Y-111901326D01*
X158191701Y-111982090D01*
X158193546Y-112051286D01*
X158195789Y-112110015D01*
X158198469Y-112159379D01*
X158201623Y-112200478D01*
X158205292Y-112234413D01*
X158209513Y-112262286D01*
X158214327Y-112285198D01*
X158219773Y-112304249D01*
X158225888Y-112320540D01*
X158232712Y-112335173D01*
X158240285Y-112349249D01*
X158248645Y-112363868D01*
X158253839Y-112372974D01*
X158288104Y-112433689D01*
X157429955Y-112433689D01*
X157429955Y-112337733D01*
X157429224Y-112294370D01*
X157427272Y-112261205D01*
X157424463Y-112243424D01*
X157423221Y-112241778D01*
X157411799Y-112248662D01*
X157389084Y-112266505D01*
X157366385Y-112285879D01*
X157311800Y-112326614D01*
X157242321Y-112367617D01*
X157165270Y-112405123D01*
X157087965Y-112435364D01*
X157057113Y-112445012D01*
X156988616Y-112459578D01*
X156905764Y-112469539D01*
X156816371Y-112474583D01*
X156728248Y-112474396D01*
X156649207Y-112468666D01*
X156611511Y-112462858D01*
X156473414Y-112424797D01*
X156346113Y-112367073D01*
X156230292Y-112290211D01*
X156126637Y-112194739D01*
X156035833Y-112081179D01*
X155969031Y-111970381D01*
X155914164Y-111853625D01*
X155872163Y-111734276D01*
X155842167Y-111608283D01*
X155823311Y-111471594D01*
X155814732Y-111320158D01*
X155814006Y-111242711D01*
X155816100Y-111185934D01*
X156645217Y-111185934D01*
X156645424Y-111279002D01*
X156648337Y-111366692D01*
X156654000Y-111443772D01*
X156662455Y-111505009D01*
X156665038Y-111517350D01*
X156696840Y-111624633D01*
X156738498Y-111711658D01*
X156790363Y-111778642D01*
X156852781Y-111825805D01*
X156926100Y-111853365D01*
X157010669Y-111861541D01*
X157106835Y-111850551D01*
X157170311Y-111834829D01*
X157219454Y-111816639D01*
X157273583Y-111790791D01*
X157314244Y-111767089D01*
X157384800Y-111720721D01*
X157384800Y-110570530D01*
X157317392Y-110526962D01*
X157238867Y-110486040D01*
X157154681Y-110459389D01*
X157069557Y-110447465D01*
X156988216Y-110450722D01*
X156915380Y-110469615D01*
X156883426Y-110485184D01*
X156825501Y-110528181D01*
X156776544Y-110584953D01*
X156735390Y-110657575D01*
X156700874Y-110748121D01*
X156671833Y-110858666D01*
X156670552Y-110864533D01*
X156660381Y-110926788D01*
X156652739Y-111004594D01*
X156647670Y-111092720D01*
X156645217Y-111185934D01*
X155816100Y-111185934D01*
X155821857Y-111029895D01*
X155843802Y-110834059D01*
X155879786Y-110655332D01*
X155929759Y-110493845D01*
X155993668Y-110349726D01*
X156071462Y-110223106D01*
X156163089Y-110114115D01*
X156268497Y-110022883D01*
X156313662Y-109991932D01*
X156414611Y-109935785D01*
X156517901Y-109896174D01*
X156627989Y-109872014D01*
X156749330Y-109862219D01*
X156841836Y-109863265D01*
X156971490Y-109874231D01*
X157084084Y-109896046D01*
X157182875Y-109929714D01*
X157271121Y-109976236D01*
X157319986Y-110010448D01*
X157349353Y-110032362D01*
X157371043Y-110047333D01*
X157379253Y-110051733D01*
X157380868Y-110040904D01*
X157382159Y-110010251D01*
X157383138Y-109962526D01*
X157383817Y-109900479D01*
X157384210Y-109826862D01*
X157384330Y-109744427D01*
X157384188Y-109655925D01*
X157383797Y-109564107D01*
X157383171Y-109471724D01*
X157382320Y-109381528D01*
X157381260Y-109296271D01*
X157380001Y-109218703D01*
X157378556Y-109151576D01*
X157376938Y-109097641D01*
X157375161Y-109059650D01*
X157374669Y-109052667D01*
X157367092Y-108982251D01*
X157355531Y-108927102D01*
X157337792Y-108879981D01*
X157311682Y-108833647D01*
X157305415Y-108824067D01*
X157280983Y-108787378D01*
X158186311Y-108787378D01*
X158186507Y-110472245D01*
G36*
X158186507Y-110472245D02*
G01*
X158186526Y-110706662D01*
X158186552Y-110919603D01*
X158186625Y-111112168D01*
X158186782Y-111285459D01*
X158187064Y-111440576D01*
X158187509Y-111578620D01*
X158188156Y-111700692D01*
X158189045Y-111807894D01*
X158190213Y-111901326D01*
X158191701Y-111982090D01*
X158193546Y-112051286D01*
X158195789Y-112110015D01*
X158198469Y-112159379D01*
X158201623Y-112200478D01*
X158205292Y-112234413D01*
X158209513Y-112262286D01*
X158214327Y-112285198D01*
X158219773Y-112304249D01*
X158225888Y-112320540D01*
X158232712Y-112335173D01*
X158240285Y-112349249D01*
X158248645Y-112363868D01*
X158253839Y-112372974D01*
X158288104Y-112433689D01*
X157429955Y-112433689D01*
X157429955Y-112337733D01*
X157429224Y-112294370D01*
X157427272Y-112261205D01*
X157424463Y-112243424D01*
X157423221Y-112241778D01*
X157411799Y-112248662D01*
X157389084Y-112266505D01*
X157366385Y-112285879D01*
X157311800Y-112326614D01*
X157242321Y-112367617D01*
X157165270Y-112405123D01*
X157087965Y-112435364D01*
X157057113Y-112445012D01*
X156988616Y-112459578D01*
X156905764Y-112469539D01*
X156816371Y-112474583D01*
X156728248Y-112474396D01*
X156649207Y-112468666D01*
X156611511Y-112462858D01*
X156473414Y-112424797D01*
X156346113Y-112367073D01*
X156230292Y-112290211D01*
X156126637Y-112194739D01*
X156035833Y-112081179D01*
X155969031Y-111970381D01*
X155914164Y-111853625D01*
X155872163Y-111734276D01*
X155842167Y-111608283D01*
X155823311Y-111471594D01*
X155814732Y-111320158D01*
X155814006Y-111242711D01*
X155816100Y-111185934D01*
X156645217Y-111185934D01*
X156645424Y-111279002D01*
X156648337Y-111366692D01*
X156654000Y-111443772D01*
X156662455Y-111505009D01*
X156665038Y-111517350D01*
X156696840Y-111624633D01*
X156738498Y-111711658D01*
X156790363Y-111778642D01*
X156852781Y-111825805D01*
X156926100Y-111853365D01*
X157010669Y-111861541D01*
X157106835Y-111850551D01*
X157170311Y-111834829D01*
X157219454Y-111816639D01*
X157273583Y-111790791D01*
X157314244Y-111767089D01*
X157384800Y-111720721D01*
X157384800Y-110570530D01*
X157317392Y-110526962D01*
X157238867Y-110486040D01*
X157154681Y-110459389D01*
X157069557Y-110447465D01*
X156988216Y-110450722D01*
X156915380Y-110469615D01*
X156883426Y-110485184D01*
X156825501Y-110528181D01*
X156776544Y-110584953D01*
X156735390Y-110657575D01*
X156700874Y-110748121D01*
X156671833Y-110858666D01*
X156670552Y-110864533D01*
X156660381Y-110926788D01*
X156652739Y-111004594D01*
X156647670Y-111092720D01*
X156645217Y-111185934D01*
X155816100Y-111185934D01*
X155821857Y-111029895D01*
X155843802Y-110834059D01*
X155879786Y-110655332D01*
X155929759Y-110493845D01*
X155993668Y-110349726D01*
X156071462Y-110223106D01*
X156163089Y-110114115D01*
X156268497Y-110022883D01*
X156313662Y-109991932D01*
X156414611Y-109935785D01*
X156517901Y-109896174D01*
X156627989Y-109872014D01*
X156749330Y-109862219D01*
X156841836Y-109863265D01*
X156971490Y-109874231D01*
X157084084Y-109896046D01*
X157182875Y-109929714D01*
X157271121Y-109976236D01*
X157319986Y-110010448D01*
X157349353Y-110032362D01*
X157371043Y-110047333D01*
X157379253Y-110051733D01*
X157380868Y-110040904D01*
X157382159Y-110010251D01*
X157383138Y-109962526D01*
X157383817Y-109900479D01*
X157384210Y-109826862D01*
X157384330Y-109744427D01*
X157384188Y-109655925D01*
X157383797Y-109564107D01*
X157383171Y-109471724D01*
X157382320Y-109381528D01*
X157381260Y-109296271D01*
X157380001Y-109218703D01*
X157378556Y-109151576D01*
X157376938Y-109097641D01*
X157375161Y-109059650D01*
X157374669Y-109052667D01*
X157367092Y-108982251D01*
X157355531Y-108927102D01*
X157337792Y-108879981D01*
X157311682Y-108833647D01*
X157305415Y-108824067D01*
X157280983Y-108787378D01*
X158186311Y-108787378D01*
X158186507Y-110472245D01*
G37*
X154673574Y-109866552D02*
X154825492Y-109886567D01*
X154960756Y-109920202D01*
X155080239Y-109967725D01*
X155184815Y-110029405D01*
X155262424Y-110092965D01*
X155331265Y-110167099D01*
X155385006Y-110246871D01*
X155427910Y-110339091D01*
X155443384Y-110382161D01*
X155456244Y-110421142D01*
X155467446Y-110457289D01*
X155477120Y-110492434D01*
X155485396Y-110528410D01*
X155492403Y-110567050D01*
X155498272Y-110610185D01*
X155503131Y-110659649D01*
X155507110Y-110717273D01*
X155510340Y-110784891D01*
X155512949Y-110864334D01*
X155515067Y-110957436D01*
X155516824Y-111066027D01*
X155518349Y-111191942D01*
X155519772Y-111337012D01*
X155521025Y-111479778D01*
X155522351Y-111635968D01*
X155523556Y-111771239D01*
X155524766Y-111887246D01*
X155526106Y-111985645D01*
X155527700Y-112068093D01*
X155529675Y-112136246D01*
X155532156Y-112191760D01*
X155535269Y-112236292D01*
X155539138Y-112271498D01*
X155543889Y-112299034D01*
X155549648Y-112320556D01*
X155556539Y-112337722D01*
X155564689Y-112352186D01*
X155574223Y-112365606D01*
X155585266Y-112379638D01*
X155589566Y-112385071D01*
X155605386Y-112407910D01*
X155612422Y-112423463D01*
X155612444Y-112423922D01*
X155601567Y-112426121D01*
X155570582Y-112428147D01*
X155521957Y-112429942D01*
X155458163Y-112431451D01*
X155381669Y-112432616D01*
X155294944Y-112433380D01*
X155200457Y-112433686D01*
X155189550Y-112433689D01*
X154766657Y-112433689D01*
X154763395Y-112337622D01*
X154760133Y-112241556D01*
X154698044Y-112292543D01*
X154600714Y-112360057D01*
X154490813Y-112414749D01*
X154404349Y-112444978D01*
X154335278Y-112459666D01*
X154251925Y-112469659D01*
X154162159Y-112474646D01*
X154073845Y-112474313D01*
X153994851Y-112468351D01*
X153958622Y-112462638D01*
X153818603Y-112424776D01*
X153692178Y-112369932D01*
X153580260Y-112298924D01*
X153483762Y-112212568D01*
X153403600Y-112111679D01*
X153340687Y-111997076D01*
X153296312Y-111870984D01*
X153283978Y-111814401D01*
X153276368Y-111752202D01*
X153272739Y-111677363D01*
X153272245Y-111643467D01*
X153272310Y-111640282D01*
X154032248Y-111640282D01*
X154041541Y-111715333D01*
X154069728Y-111779160D01*
X154118197Y-111834798D01*
X154123254Y-111839211D01*
X154171548Y-111874037D01*
X154223257Y-111896620D01*
X154283989Y-111908540D01*
X154359352Y-111911383D01*
X154377459Y-111910978D01*
X154431278Y-111908325D01*
X154471308Y-111902909D01*
X154506324Y-111892745D01*
X154545103Y-111875850D01*
X154555745Y-111870672D01*
X154616396Y-111834844D01*
X154663215Y-111792212D01*
X154675952Y-111776973D01*
X154720622Y-111720462D01*
X154720622Y-111524586D01*
X154720086Y-111445939D01*
X154718396Y-111387988D01*
X154715428Y-111348875D01*
X154711057Y-111326741D01*
X154706972Y-111320274D01*
X154691047Y-111317111D01*
X154657264Y-111314488D01*
X154610340Y-111312655D01*
X154554993Y-111311857D01*
X154546106Y-111311842D01*
X154425330Y-111317096D01*
X154322660Y-111333263D01*
X154236106Y-111360961D01*
X154163681Y-111400808D01*
X154108751Y-111447758D01*
X154064204Y-111505645D01*
X154039480Y-111568693D01*
X154032248Y-111640282D01*
X153272310Y-111640282D01*
X153274178Y-111549712D01*
X153282522Y-111470812D01*
X153298768Y-111399590D01*
X153324405Y-111328864D01*
X153348401Y-111276493D01*
X153407020Y-111181196D01*
X153485117Y-111093170D01*
X153580315Y-111014017D01*
X153690238Y-110945340D01*
X153812510Y-110888741D01*
X153944755Y-110845821D01*
X154009422Y-110830882D01*
X154145604Y-110808777D01*
X154294049Y-110794194D01*
X154445505Y-110787813D01*
X154572064Y-110789445D01*
X154733950Y-110796224D01*
X154726530Y-110737245D01*
X154707238Y-110638092D01*
X154676104Y-110557372D01*
X154632269Y-110494466D01*
X154574871Y-110448756D01*
X154503048Y-110419622D01*
X154415941Y-110406447D01*
X154312686Y-110408611D01*
X154274711Y-110412612D01*
X154133520Y-110437780D01*
X153996707Y-110478814D01*
X153902178Y-110516815D01*
X153857018Y-110536190D01*
X153818585Y-110551760D01*
X153792234Y-110561405D01*
X153784546Y-110563452D01*
X153774802Y-110554374D01*
X153758083Y-110525405D01*
X153734232Y-110476217D01*
X153703093Y-110406484D01*
X153664507Y-110315879D01*
X153657910Y-110300089D01*
X153627853Y-110227772D01*
X153600874Y-110162425D01*
X153578136Y-110106906D01*
X153560806Y-110064072D01*
X153550048Y-110036781D01*
X153546941Y-110027942D01*
X153556940Y-110023187D01*
X153583217Y-110017910D01*
X153611489Y-110014231D01*
X153641646Y-110009474D01*
X153689433Y-110000028D01*
X153750612Y-109986820D01*
X153820946Y-109970776D01*
X153896194Y-109952820D01*
X153924755Y-109945797D01*
X154029816Y-109920209D01*
X154117480Y-109900147D01*
X154192068Y-109884969D01*
X154257903Y-109874035D01*
X154319307Y-109866704D01*
X154380602Y-109862335D01*
X154446110Y-109860287D01*
X154504128Y-109859889D01*
X154673574Y-109866552D01*
G36*
X154673574Y-109866552D02*
G01*
X154825492Y-109886567D01*
X154960756Y-109920202D01*
X155080239Y-109967725D01*
X155184815Y-110029405D01*
X155262424Y-110092965D01*
X155331265Y-110167099D01*
X155385006Y-110246871D01*
X155427910Y-110339091D01*
X155443384Y-110382161D01*
X155456244Y-110421142D01*
X155467446Y-110457289D01*
X155477120Y-110492434D01*
X155485396Y-110528410D01*
X155492403Y-110567050D01*
X155498272Y-110610185D01*
X155503131Y-110659649D01*
X155507110Y-110717273D01*
X155510340Y-110784891D01*
X155512949Y-110864334D01*
X155515067Y-110957436D01*
X155516824Y-111066027D01*
X155518349Y-111191942D01*
X155519772Y-111337012D01*
X155521025Y-111479778D01*
X155522351Y-111635968D01*
X155523556Y-111771239D01*
X155524766Y-111887246D01*
X155526106Y-111985645D01*
X155527700Y-112068093D01*
X155529675Y-112136246D01*
X155532156Y-112191760D01*
X155535269Y-112236292D01*
X155539138Y-112271498D01*
X155543889Y-112299034D01*
X155549648Y-112320556D01*
X155556539Y-112337722D01*
X155564689Y-112352186D01*
X155574223Y-112365606D01*
X155585266Y-112379638D01*
X155589566Y-112385071D01*
X155605386Y-112407910D01*
X155612422Y-112423463D01*
X155612444Y-112423922D01*
X155601567Y-112426121D01*
X155570582Y-112428147D01*
X155521957Y-112429942D01*
X155458163Y-112431451D01*
X155381669Y-112432616D01*
X155294944Y-112433380D01*
X155200457Y-112433686D01*
X155189550Y-112433689D01*
X154766657Y-112433689D01*
X154763395Y-112337622D01*
X154760133Y-112241556D01*
X154698044Y-112292543D01*
X154600714Y-112360057D01*
X154490813Y-112414749D01*
X154404349Y-112444978D01*
X154335278Y-112459666D01*
X154251925Y-112469659D01*
X154162159Y-112474646D01*
X154073845Y-112474313D01*
X153994851Y-112468351D01*
X153958622Y-112462638D01*
X153818603Y-112424776D01*
X153692178Y-112369932D01*
X153580260Y-112298924D01*
X153483762Y-112212568D01*
X153403600Y-112111679D01*
X153340687Y-111997076D01*
X153296312Y-111870984D01*
X153283978Y-111814401D01*
X153276368Y-111752202D01*
X153272739Y-111677363D01*
X153272245Y-111643467D01*
X153272310Y-111640282D01*
X154032248Y-111640282D01*
X154041541Y-111715333D01*
X154069728Y-111779160D01*
X154118197Y-111834798D01*
X154123254Y-111839211D01*
X154171548Y-111874037D01*
X154223257Y-111896620D01*
X154283989Y-111908540D01*
X154359352Y-111911383D01*
X154377459Y-111910978D01*
X154431278Y-111908325D01*
X154471308Y-111902909D01*
X154506324Y-111892745D01*
X154545103Y-111875850D01*
X154555745Y-111870672D01*
X154616396Y-111834844D01*
X154663215Y-111792212D01*
X154675952Y-111776973D01*
X154720622Y-111720462D01*
X154720622Y-111524586D01*
X154720086Y-111445939D01*
X154718396Y-111387988D01*
X154715428Y-111348875D01*
X154711057Y-111326741D01*
X154706972Y-111320274D01*
X154691047Y-111317111D01*
X154657264Y-111314488D01*
X154610340Y-111312655D01*
X154554993Y-111311857D01*
X154546106Y-111311842D01*
X154425330Y-111317096D01*
X154322660Y-111333263D01*
X154236106Y-111360961D01*
X154163681Y-111400808D01*
X154108751Y-111447758D01*
X154064204Y-111505645D01*
X154039480Y-111568693D01*
X154032248Y-111640282D01*
X153272310Y-111640282D01*
X153274178Y-111549712D01*
X153282522Y-111470812D01*
X153298768Y-111399590D01*
X153324405Y-111328864D01*
X153348401Y-111276493D01*
X153407020Y-111181196D01*
X153485117Y-111093170D01*
X153580315Y-111014017D01*
X153690238Y-110945340D01*
X153812510Y-110888741D01*
X153944755Y-110845821D01*
X154009422Y-110830882D01*
X154145604Y-110808777D01*
X154294049Y-110794194D01*
X154445505Y-110787813D01*
X154572064Y-110789445D01*
X154733950Y-110796224D01*
X154726530Y-110737245D01*
X154707238Y-110638092D01*
X154676104Y-110557372D01*
X154632269Y-110494466D01*
X154574871Y-110448756D01*
X154503048Y-110419622D01*
X154415941Y-110406447D01*
X154312686Y-110408611D01*
X154274711Y-110412612D01*
X154133520Y-110437780D01*
X153996707Y-110478814D01*
X153902178Y-110516815D01*
X153857018Y-110536190D01*
X153818585Y-110551760D01*
X153792234Y-110561405D01*
X153784546Y-110563452D01*
X153774802Y-110554374D01*
X153758083Y-110525405D01*
X153734232Y-110476217D01*
X153703093Y-110406484D01*
X153664507Y-110315879D01*
X153657910Y-110300089D01*
X153627853Y-110227772D01*
X153600874Y-110162425D01*
X153578136Y-110106906D01*
X153560806Y-110064072D01*
X153550048Y-110036781D01*
X153546941Y-110027942D01*
X153556940Y-110023187D01*
X153583217Y-110017910D01*
X153611489Y-110014231D01*
X153641646Y-110009474D01*
X153689433Y-110000028D01*
X153750612Y-109986820D01*
X153820946Y-109970776D01*
X153896194Y-109952820D01*
X153924755Y-109945797D01*
X154029816Y-109920209D01*
X154117480Y-109900147D01*
X154192068Y-109884969D01*
X154257903Y-109874035D01*
X154319307Y-109866704D01*
X154380602Y-109862335D01*
X154446110Y-109860287D01*
X154504128Y-109859889D01*
X154673574Y-109866552D01*
G37*
X149053600Y-108489054D02*
X149064465Y-108602993D01*
X149096082Y-108710616D01*
X149146985Y-108809615D01*
X149215707Y-108897684D01*
X149300781Y-108972516D01*
X149397768Y-109030384D01*
X149504036Y-109070005D01*
X149611050Y-109088573D01*
X149716700Y-109087434D01*
X149818875Y-109067930D01*
X149915466Y-109031406D01*
X150004362Y-108979205D01*
X150083454Y-108912673D01*
X150150631Y-108833152D01*
X150203783Y-108741987D01*
X150240801Y-108640523D01*
X150259573Y-108530102D01*
X150261511Y-108480206D01*
X150261511Y-108392267D01*
X150313440Y-108392267D01*
X150349747Y-108395111D01*
X150376645Y-108406911D01*
X150403751Y-108430649D01*
X150442133Y-108469031D01*
X150442133Y-110660602D01*
X150442124Y-110922739D01*
X150442092Y-111163241D01*
X150442028Y-111383048D01*
X150441924Y-111583101D01*
X150441773Y-111764344D01*
X150441566Y-111927716D01*
X150441294Y-112074160D01*
X150440950Y-112204617D01*
X150440526Y-112320029D01*
X150440013Y-112421338D01*
X150439403Y-112509484D01*
X150438688Y-112585410D01*
X150437860Y-112650057D01*
X150436911Y-112704367D01*
X150435833Y-112749280D01*
X150434617Y-112785740D01*
X150433255Y-112814687D01*
X150431739Y-112837063D01*
X150430062Y-112853809D01*
X150428214Y-112865868D01*
X150426187Y-112874180D01*
X150423975Y-112879687D01*
X150422892Y-112881537D01*
X150418729Y-112888549D01*
X150415195Y-112894996D01*
X150411365Y-112900900D01*
X150406318Y-112906286D01*
X150399129Y-112911178D01*
X150388877Y-112915598D01*
X150374636Y-112919572D01*
X150355486Y-112923121D01*
X150330501Y-112926270D01*
X150298760Y-112929042D01*
X150259338Y-112931461D01*
X150211314Y-112933551D01*
X150153763Y-112935335D01*
X150085763Y-112936837D01*
X150006390Y-112938080D01*
X149914721Y-112939089D01*
X149809834Y-112939885D01*
X149690804Y-112940494D01*
X149556710Y-112940939D01*
X149406627Y-112941243D01*
X149239633Y-112941430D01*
X149054804Y-112941524D01*
X148851217Y-112941548D01*
X148627950Y-112941525D01*
X148384078Y-112941480D01*
X148118679Y-112941437D01*
X148080296Y-112941432D01*
X147813318Y-112941389D01*
X147567998Y-112941318D01*
X147343417Y-112941213D01*
X147138655Y-112941066D01*
X146952794Y-112940869D01*
X146784912Y-112940616D01*
X146634092Y-112940300D01*
X146499413Y-112939913D01*
X146379956Y-112939447D01*
X146274801Y-112938897D01*
X146183029Y-112938253D01*
X146103721Y-112937511D01*
X146035957Y-112936661D01*
X145978818Y-112935697D01*
X145931383Y-112934611D01*
X145892734Y-112933397D01*
X145861951Y-112932047D01*
X145838115Y-112930555D01*
X145820306Y-112928911D01*
X145807605Y-112927111D01*
X145799092Y-112925145D01*
X145794734Y-112923477D01*
X145786272Y-112919906D01*
X145778503Y-112917270D01*
X145771398Y-112914634D01*
X145764927Y-112911062D01*
X145759061Y-112905621D01*
X145753771Y-112897375D01*
X145749026Y-112885390D01*
X145744798Y-112868731D01*
X145741057Y-112846463D01*
X145737773Y-112817652D01*
X145734917Y-112781363D01*
X145732460Y-112736661D01*
X145730371Y-112682611D01*
X145728622Y-112618279D01*
X145727183Y-112542730D01*
X145726024Y-112455030D01*
X145725117Y-112354243D01*
X145724431Y-112239434D01*
X145723937Y-112109670D01*
X145723605Y-111964015D01*
X145723407Y-111801535D01*
X145723313Y-111621295D01*
X145723292Y-111422360D01*
X145723315Y-111203796D01*
X145723354Y-110964668D01*
X145723378Y-110704040D01*
X145723378Y-110661889D01*
X145723364Y-110398992D01*
X145723339Y-110157732D01*
X145723329Y-109937165D01*
X145723358Y-109736352D01*
X145723452Y-109554349D01*
X145723638Y-109390216D01*
X145723941Y-109243011D01*
X145724386Y-109111792D01*
X145724966Y-109001867D01*
X146027803Y-109001867D01*
X146067593Y-109059711D01*
X146078764Y-109075479D01*
X146088834Y-109089441D01*
X146097862Y-109102784D01*
X146105903Y-109116693D01*
X146113014Y-109132356D01*
X146119253Y-109150958D01*
X146124675Y-109173686D01*
X146129338Y-109201727D01*
X146133299Y-109236267D01*
X146136615Y-109278492D01*
X146139341Y-109329589D01*
X146141536Y-109390744D01*
X146143255Y-109463144D01*
X146144556Y-109547975D01*
X146145495Y-109646422D01*
X146146130Y-109759674D01*
X146146516Y-109888916D01*
X146146712Y-110035334D01*
X146146773Y-110200116D01*
X146146757Y-110384447D01*
X146146720Y-110589513D01*
X146146711Y-110712133D01*
X146146735Y-110929082D01*
X146146769Y-111124642D01*
X146146757Y-111299999D01*
X146146642Y-111456341D01*
X146146370Y-111594857D01*
X146145882Y-111716734D01*
X146145124Y-111823160D01*
X146144038Y-111915322D01*
X146142569Y-111994409D01*
X146140660Y-112061608D01*
X146138256Y-112118107D01*
X146135299Y-112165093D01*
X146131734Y-112203755D01*
X146127505Y-112235280D01*
X146122554Y-112260855D01*
X146116827Y-112281670D01*
X146110267Y-112298911D01*
X146102817Y-112313765D01*
X146094421Y-112327422D01*
X146085024Y-112341069D01*
X146074568Y-112355893D01*
X146068477Y-112364783D01*
X146029704Y-112422400D01*
X146561268Y-112422400D01*
X146684517Y-112422365D01*
X146787013Y-112422215D01*
X146870580Y-112421878D01*
X146937044Y-112421286D01*
X146988229Y-112420367D01*
X147025959Y-112419051D01*
X147052060Y-112417269D01*
X147068356Y-112414951D01*
X147076672Y-112412026D01*
X147078832Y-112408424D01*
X147076661Y-112404075D01*
X147075465Y-112402645D01*
X147050315Y-112365573D01*
X147024417Y-112312772D01*
X147000808Y-112250770D01*
X146992539Y-112224357D01*
X146987922Y-112206416D01*
X146984021Y-112185355D01*
X146980752Y-112159089D01*
X146978034Y-112125532D01*
X146975785Y-112082599D01*
X146973923Y-112028204D01*
X146972364Y-111960262D01*
X146971028Y-111876688D01*
X146969831Y-111775395D01*
X146968692Y-111654300D01*
X146968315Y-111609600D01*
X146967298Y-111484449D01*
X146966540Y-111380082D01*
X146966097Y-111294707D01*
X146966030Y-111226533D01*
X146966395Y-111173765D01*
X146967252Y-111134614D01*
X146968659Y-111107285D01*
X146970675Y-111089986D01*
X146973357Y-111080926D01*
X146976764Y-111078312D01*
X146980956Y-111080351D01*
X146985429Y-111084667D01*
X146995784Y-111097602D01*
X147017842Y-111126676D01*
X147050043Y-111169759D01*
X147090826Y-111224718D01*
X147138630Y-111289423D01*
X147191895Y-111361742D01*
X147249060Y-111439544D01*
X147308563Y-111520698D01*
X147368845Y-111603072D01*
X147428345Y-111684536D01*
X147485502Y-111762957D01*
X147538755Y-111836204D01*
X147586543Y-111902147D01*
X147627307Y-111958654D01*
X147659484Y-112003593D01*
X147681515Y-112034834D01*
X147686083Y-112041466D01*
X147709004Y-112078369D01*
X147735812Y-112126359D01*
X147761211Y-112175897D01*
X147764432Y-112182577D01*
X147786110Y-112230772D01*
X147798696Y-112268334D01*
X147804426Y-112304160D01*
X147805544Y-112346200D01*
X147804910Y-112422400D01*
X148959349Y-112422400D01*
X148868185Y-112328669D01*
X148821388Y-112278775D01*
X148771101Y-112222295D01*
X148725056Y-112168026D01*
X148704631Y-112142673D01*
X148674193Y-112103128D01*
X148634138Y-112049916D01*
X148585639Y-111984667D01*
X148529865Y-111909011D01*
X148467989Y-111824577D01*
X148401181Y-111732994D01*
X148330613Y-111635892D01*
X148257455Y-111534901D01*
X148182879Y-111431650D01*
X148108056Y-111327768D01*
X148034157Y-111224885D01*
X147962354Y-111124631D01*
X147893816Y-111028636D01*
X147829716Y-110938527D01*
X147771225Y-110855936D01*
X147719514Y-110782492D01*
X147675753Y-110719824D01*
X147641115Y-110669561D01*
X147616770Y-110633334D01*
X147603889Y-110612771D01*
X147602131Y-110608668D01*
X147610090Y-110597342D01*
X147630885Y-110570162D01*
X147663153Y-110528829D01*
X147705530Y-110475044D01*
X147756653Y-110410506D01*
X147815159Y-110336918D01*
X147879686Y-110255978D01*
X147948869Y-110169388D01*
X148021347Y-110078848D01*
X148095754Y-109986060D01*
X148155483Y-109911702D01*
X149166489Y-109911702D01*
X149172398Y-109924659D01*
X149186728Y-109946908D01*
X149187775Y-109948391D01*
X149206562Y-109978544D01*
X149226209Y-110015375D01*
X149230108Y-110023511D01*
X149233644Y-110031940D01*
X149236770Y-110042059D01*
X149239514Y-110055260D01*
X149241908Y-110072938D01*
X149243981Y-110096484D01*
X149245765Y-110127293D01*
X149247288Y-110166757D01*
X149248581Y-110216269D01*
X149249674Y-110277223D01*
X149250597Y-110351011D01*
X149251381Y-110439028D01*
X149252055Y-110542665D01*
X149252650Y-110663316D01*
X149253195Y-110802374D01*
X149253721Y-110961232D01*
X149254255Y-111140089D01*
X149254794Y-111325207D01*
X149255228Y-111489145D01*
X149255491Y-111633303D01*
X149255516Y-111759079D01*
X149255235Y-111867871D01*
X149254581Y-111961077D01*
X149253486Y-112040097D01*
X149251882Y-112106328D01*
X149249703Y-112161170D01*
X149246881Y-112206021D01*
X149243349Y-112242278D01*
X149239039Y-112271341D01*
X149233883Y-112294609D01*
X149227815Y-112313479D01*
X149220767Y-112329351D01*
X149212671Y-112343622D01*
X149203460Y-112357691D01*
X149194960Y-112370158D01*
X149177824Y-112396452D01*
X149167678Y-112414037D01*
X149166489Y-112417257D01*
X149177396Y-112418334D01*
X149208589Y-112419335D01*
X149257777Y-112420235D01*
X149322667Y-112421010D01*
X149400970Y-112421637D01*
X149490393Y-112422091D01*
X149588644Y-112422349D01*
X149657555Y-112422400D01*
X149762548Y-112422180D01*
X149859390Y-112421548D01*
X149945893Y-112420549D01*
X150019868Y-112419227D01*
X150079126Y-112417626D01*
X150121480Y-112415791D01*
X150144740Y-112413765D01*
X150148622Y-112412493D01*
X150140924Y-112397591D01*
X150132926Y-112389560D01*
X150119754Y-112372434D01*
X150102515Y-112342183D01*
X150090593Y-112317622D01*
X150063955Y-112258711D01*
X150060880Y-111081845D01*
X150057805Y-109904978D01*
X149612147Y-109904978D01*
X149514330Y-109905142D01*
X149423936Y-109905611D01*
X149343370Y-109906347D01*
X149275038Y-109907316D01*
X149221344Y-109908480D01*
X149184695Y-109909803D01*
X149167496Y-109911249D01*
X149166489Y-109911702D01*
X148155483Y-109911702D01*
X148170730Y-109892722D01*
X148244910Y-109800537D01*
X148316931Y-109711204D01*
X148385431Y-109626424D01*
X148449045Y-109547898D01*
X148506412Y-109477326D01*
X148556167Y-109416409D01*
X148596948Y-109366847D01*
X148614112Y-109346178D01*
X148700404Y-109245516D01*
X148777003Y-109162259D01*
X148845817Y-109094438D01*
X148908752Y-109040089D01*
X148918133Y-109032722D01*
X148957644Y-109002117D01*
X147825884Y-109001867D01*
X147831173Y-109049844D01*
X147827870Y-109107188D01*
X147806339Y-109175463D01*
X147766365Y-109255212D01*
X147721057Y-109327495D01*
X147704839Y-109350140D01*
X147676786Y-109387696D01*
X147638570Y-109438021D01*
X147591863Y-109498973D01*
X147538339Y-109568411D01*
X147479669Y-109644194D01*
X147417525Y-109724180D01*
X147353579Y-109806228D01*
X147289505Y-109888196D01*
X147226973Y-109967943D01*
X147167657Y-110043327D01*
X147113229Y-110112207D01*
X147065361Y-110172442D01*
X147025725Y-110221889D01*
X146995994Y-110258408D01*
X146977839Y-110279858D01*
X146974780Y-110283156D01*
X146971921Y-110275149D01*
X146969707Y-110244855D01*
X146968143Y-110192556D01*
X146967233Y-110118531D01*
X146966980Y-110023063D01*
X146967387Y-109906434D01*
X146968296Y-109786445D01*
X146969618Y-109654333D01*
X146971143Y-109542594D01*
X146973119Y-109449025D01*
X146975794Y-109371419D01*
X146979418Y-109307574D01*
X146984239Y-109255283D01*
X146990506Y-109212344D01*
X146998468Y-109176551D01*
X147008373Y-109145700D01*
X147020469Y-109117586D01*
X147035007Y-109090005D01*
X147049689Y-109064966D01*
X147087686Y-109001867D01*
X146027803Y-109001867D01*
X145724966Y-109001867D01*
X145724999Y-108995617D01*
X145725805Y-108893544D01*
X145726830Y-108804633D01*
X145728100Y-108727941D01*
X145729640Y-108662527D01*
X145731476Y-108607449D01*
X145733633Y-108561765D01*
X145736137Y-108524534D01*
X145739013Y-108494813D01*
X145742287Y-108471662D01*
X145745985Y-108454139D01*
X145750131Y-108441301D01*
X145754753Y-108432208D01*
X145759874Y-108425918D01*
X145765522Y-108421488D01*
X145771721Y-108417978D01*
X145778496Y-108414445D01*
X145784492Y-108410876D01*
X145789725Y-108408300D01*
X145797901Y-108405972D01*
X145810114Y-108403878D01*
X145827459Y-108402007D01*
X145851031Y-108400347D01*
X145881923Y-108398884D01*
X145921232Y-108397608D01*
X145970050Y-108396504D01*
X146029473Y-108395561D01*
X146100596Y-108394767D01*
X146184512Y-108394109D01*
X146282317Y-108393575D01*
X146395106Y-108393153D01*
X146523971Y-108392829D01*
X146670009Y-108392592D01*
X146834314Y-108392430D01*
X147017980Y-108392330D01*
X147222103Y-108392280D01*
X147433247Y-108392267D01*
X149053600Y-108392267D01*
X149053600Y-108489054D01*
G36*
X149053600Y-108489054D02*
G01*
X149064465Y-108602993D01*
X149096082Y-108710616D01*
X149146985Y-108809615D01*
X149215707Y-108897684D01*
X149300781Y-108972516D01*
X149397768Y-109030384D01*
X149504036Y-109070005D01*
X149611050Y-109088573D01*
X149716700Y-109087434D01*
X149818875Y-109067930D01*
X149915466Y-109031406D01*
X150004362Y-108979205D01*
X150083454Y-108912673D01*
X150150631Y-108833152D01*
X150203783Y-108741987D01*
X150240801Y-108640523D01*
X150259573Y-108530102D01*
X150261511Y-108480206D01*
X150261511Y-108392267D01*
X150313440Y-108392267D01*
X150349747Y-108395111D01*
X150376645Y-108406911D01*
X150403751Y-108430649D01*
X150442133Y-108469031D01*
X150442133Y-110660602D01*
X150442124Y-110922739D01*
X150442092Y-111163241D01*
X150442028Y-111383048D01*
X150441924Y-111583101D01*
X150441773Y-111764344D01*
X150441566Y-111927716D01*
X150441294Y-112074160D01*
X150440950Y-112204617D01*
X150440526Y-112320029D01*
X150440013Y-112421338D01*
X150439403Y-112509484D01*
X150438688Y-112585410D01*
X150437860Y-112650057D01*
X150436911Y-112704367D01*
X150435833Y-112749280D01*
X150434617Y-112785740D01*
X150433255Y-112814687D01*
X150431739Y-112837063D01*
X150430062Y-112853809D01*
X150428214Y-112865868D01*
X150426187Y-112874180D01*
X150423975Y-112879687D01*
X150422892Y-112881537D01*
X150418729Y-112888549D01*
X150415195Y-112894996D01*
X150411365Y-112900900D01*
X150406318Y-112906286D01*
X150399129Y-112911178D01*
X150388877Y-112915598D01*
X150374636Y-112919572D01*
X150355486Y-112923121D01*
X150330501Y-112926270D01*
X150298760Y-112929042D01*
X150259338Y-112931461D01*
X150211314Y-112933551D01*
X150153763Y-112935335D01*
X150085763Y-112936837D01*
X150006390Y-112938080D01*
X149914721Y-112939089D01*
X149809834Y-112939885D01*
X149690804Y-112940494D01*
X149556710Y-112940939D01*
X149406627Y-112941243D01*
X149239633Y-112941430D01*
X149054804Y-112941524D01*
X148851217Y-112941548D01*
X148627950Y-112941525D01*
X148384078Y-112941480D01*
X148118679Y-112941437D01*
X148080296Y-112941432D01*
X147813318Y-112941389D01*
X147567998Y-112941318D01*
X147343417Y-112941213D01*
X147138655Y-112941066D01*
X146952794Y-112940869D01*
X146784912Y-112940616D01*
X146634092Y-112940300D01*
X146499413Y-112939913D01*
X146379956Y-112939447D01*
X146274801Y-112938897D01*
X146183029Y-112938253D01*
X146103721Y-112937511D01*
X146035957Y-112936661D01*
X145978818Y-112935697D01*
X145931383Y-112934611D01*
X145892734Y-112933397D01*
X145861951Y-112932047D01*
X145838115Y-112930555D01*
X145820306Y-112928911D01*
X145807605Y-112927111D01*
X145799092Y-112925145D01*
X145794734Y-112923477D01*
X145786272Y-112919906D01*
X145778503Y-112917270D01*
X145771398Y-112914634D01*
X145764927Y-112911062D01*
X145759061Y-112905621D01*
X145753771Y-112897375D01*
X145749026Y-112885390D01*
X145744798Y-112868731D01*
X145741057Y-112846463D01*
X145737773Y-112817652D01*
X145734917Y-112781363D01*
X145732460Y-112736661D01*
X145730371Y-112682611D01*
X145728622Y-112618279D01*
X145727183Y-112542730D01*
X145726024Y-112455030D01*
X145725117Y-112354243D01*
X145724431Y-112239434D01*
X145723937Y-112109670D01*
X145723605Y-111964015D01*
X145723407Y-111801535D01*
X145723313Y-111621295D01*
X145723292Y-111422360D01*
X145723315Y-111203796D01*
X145723354Y-110964668D01*
X145723378Y-110704040D01*
X145723378Y-110661889D01*
X145723364Y-110398992D01*
X145723339Y-110157732D01*
X145723329Y-109937165D01*
X145723358Y-109736352D01*
X145723452Y-109554349D01*
X145723638Y-109390216D01*
X145723941Y-109243011D01*
X145724386Y-109111792D01*
X145724966Y-109001867D01*
X146027803Y-109001867D01*
X146067593Y-109059711D01*
X146078764Y-109075479D01*
X146088834Y-109089441D01*
X146097862Y-109102784D01*
X146105903Y-109116693D01*
X146113014Y-109132356D01*
X146119253Y-109150958D01*
X146124675Y-109173686D01*
X146129338Y-109201727D01*
X146133299Y-109236267D01*
X146136615Y-109278492D01*
X146139341Y-109329589D01*
X146141536Y-109390744D01*
X146143255Y-109463144D01*
X146144556Y-109547975D01*
X146145495Y-109646422D01*
X146146130Y-109759674D01*
X146146516Y-109888916D01*
X146146712Y-110035334D01*
X146146773Y-110200116D01*
X146146757Y-110384447D01*
X146146720Y-110589513D01*
X146146711Y-110712133D01*
X146146735Y-110929082D01*
X146146769Y-111124642D01*
X146146757Y-111299999D01*
X146146642Y-111456341D01*
X146146370Y-111594857D01*
X146145882Y-111716734D01*
X146145124Y-111823160D01*
X146144038Y-111915322D01*
X146142569Y-111994409D01*
X146140660Y-112061608D01*
X146138256Y-112118107D01*
X146135299Y-112165093D01*
X146131734Y-112203755D01*
X146127505Y-112235280D01*
X146122554Y-112260855D01*
X146116827Y-112281670D01*
X146110267Y-112298911D01*
X146102817Y-112313765D01*
X146094421Y-112327422D01*
X146085024Y-112341069D01*
X146074568Y-112355893D01*
X146068477Y-112364783D01*
X146029704Y-112422400D01*
X146561268Y-112422400D01*
X146684517Y-112422365D01*
X146787013Y-112422215D01*
X146870580Y-112421878D01*
X146937044Y-112421286D01*
X146988229Y-112420367D01*
X147025959Y-112419051D01*
X147052060Y-112417269D01*
X147068356Y-112414951D01*
X147076672Y-112412026D01*
X147078832Y-112408424D01*
X147076661Y-112404075D01*
X147075465Y-112402645D01*
X147050315Y-112365573D01*
X147024417Y-112312772D01*
X147000808Y-112250770D01*
X146992539Y-112224357D01*
X146987922Y-112206416D01*
X146984021Y-112185355D01*
X146980752Y-112159089D01*
X146978034Y-112125532D01*
X146975785Y-112082599D01*
X146973923Y-112028204D01*
X146972364Y-111960262D01*
X146971028Y-111876688D01*
X146969831Y-111775395D01*
X146968692Y-111654300D01*
X146968315Y-111609600D01*
X146967298Y-111484449D01*
X146966540Y-111380082D01*
X146966097Y-111294707D01*
X146966030Y-111226533D01*
X146966395Y-111173765D01*
X146967252Y-111134614D01*
X146968659Y-111107285D01*
X146970675Y-111089986D01*
X146973357Y-111080926D01*
X146976764Y-111078312D01*
X146980956Y-111080351D01*
X146985429Y-111084667D01*
X146995784Y-111097602D01*
X147017842Y-111126676D01*
X147050043Y-111169759D01*
X147090826Y-111224718D01*
X147138630Y-111289423D01*
X147191895Y-111361742D01*
X147249060Y-111439544D01*
X147308563Y-111520698D01*
X147368845Y-111603072D01*
X147428345Y-111684536D01*
X147485502Y-111762957D01*
X147538755Y-111836204D01*
X147586543Y-111902147D01*
X147627307Y-111958654D01*
X147659484Y-112003593D01*
X147681515Y-112034834D01*
X147686083Y-112041466D01*
X147709004Y-112078369D01*
X147735812Y-112126359D01*
X147761211Y-112175897D01*
X147764432Y-112182577D01*
X147786110Y-112230772D01*
X147798696Y-112268334D01*
X147804426Y-112304160D01*
X147805544Y-112346200D01*
X147804910Y-112422400D01*
X148959349Y-112422400D01*
X148868185Y-112328669D01*
X148821388Y-112278775D01*
X148771101Y-112222295D01*
X148725056Y-112168026D01*
X148704631Y-112142673D01*
X148674193Y-112103128D01*
X148634138Y-112049916D01*
X148585639Y-111984667D01*
X148529865Y-111909011D01*
X148467989Y-111824577D01*
X148401181Y-111732994D01*
X148330613Y-111635892D01*
X148257455Y-111534901D01*
X148182879Y-111431650D01*
X148108056Y-111327768D01*
X148034157Y-111224885D01*
X147962354Y-111124631D01*
X147893816Y-111028636D01*
X147829716Y-110938527D01*
X147771225Y-110855936D01*
X147719514Y-110782492D01*
X147675753Y-110719824D01*
X147641115Y-110669561D01*
X147616770Y-110633334D01*
X147603889Y-110612771D01*
X147602131Y-110608668D01*
X147610090Y-110597342D01*
X147630885Y-110570162D01*
X147663153Y-110528829D01*
X147705530Y-110475044D01*
X147756653Y-110410506D01*
X147815159Y-110336918D01*
X147879686Y-110255978D01*
X147948869Y-110169388D01*
X148021347Y-110078848D01*
X148095754Y-109986060D01*
X148155483Y-109911702D01*
X149166489Y-109911702D01*
X149172398Y-109924659D01*
X149186728Y-109946908D01*
X149187775Y-109948391D01*
X149206562Y-109978544D01*
X149226209Y-110015375D01*
X149230108Y-110023511D01*
X149233644Y-110031940D01*
X149236770Y-110042059D01*
X149239514Y-110055260D01*
X149241908Y-110072938D01*
X149243981Y-110096484D01*
X149245765Y-110127293D01*
X149247288Y-110166757D01*
X149248581Y-110216269D01*
X149249674Y-110277223D01*
X149250597Y-110351011D01*
X149251381Y-110439028D01*
X149252055Y-110542665D01*
X149252650Y-110663316D01*
X149253195Y-110802374D01*
X149253721Y-110961232D01*
X149254255Y-111140089D01*
X149254794Y-111325207D01*
X149255228Y-111489145D01*
X149255491Y-111633303D01*
X149255516Y-111759079D01*
X149255235Y-111867871D01*
X149254581Y-111961077D01*
X149253486Y-112040097D01*
X149251882Y-112106328D01*
X149249703Y-112161170D01*
X149246881Y-112206021D01*
X149243349Y-112242278D01*
X149239039Y-112271341D01*
X149233883Y-112294609D01*
X149227815Y-112313479D01*
X149220767Y-112329351D01*
X149212671Y-112343622D01*
X149203460Y-112357691D01*
X149194960Y-112370158D01*
X149177824Y-112396452D01*
X149167678Y-112414037D01*
X149166489Y-112417257D01*
X149177396Y-112418334D01*
X149208589Y-112419335D01*
X149257777Y-112420235D01*
X149322667Y-112421010D01*
X149400970Y-112421637D01*
X149490393Y-112422091D01*
X149588644Y-112422349D01*
X149657555Y-112422400D01*
X149762548Y-112422180D01*
X149859390Y-112421548D01*
X149945893Y-112420549D01*
X150019868Y-112419227D01*
X150079126Y-112417626D01*
X150121480Y-112415791D01*
X150144740Y-112413765D01*
X150148622Y-112412493D01*
X150140924Y-112397591D01*
X150132926Y-112389560D01*
X150119754Y-112372434D01*
X150102515Y-112342183D01*
X150090593Y-112317622D01*
X150063955Y-112258711D01*
X150060880Y-111081845D01*
X150057805Y-109904978D01*
X149612147Y-109904978D01*
X149514330Y-109905142D01*
X149423936Y-109905611D01*
X149343370Y-109906347D01*
X149275038Y-109907316D01*
X149221344Y-109908480D01*
X149184695Y-109909803D01*
X149167496Y-109911249D01*
X149166489Y-109911702D01*
X148155483Y-109911702D01*
X148170730Y-109892722D01*
X148244910Y-109800537D01*
X148316931Y-109711204D01*
X148385431Y-109626424D01*
X148449045Y-109547898D01*
X148506412Y-109477326D01*
X148556167Y-109416409D01*
X148596948Y-109366847D01*
X148614112Y-109346178D01*
X148700404Y-109245516D01*
X148777003Y-109162259D01*
X148845817Y-109094438D01*
X148908752Y-109040089D01*
X148918133Y-109032722D01*
X148957644Y-109002117D01*
X147825884Y-109001867D01*
X147831173Y-109049844D01*
X147827870Y-109107188D01*
X147806339Y-109175463D01*
X147766365Y-109255212D01*
X147721057Y-109327495D01*
X147704839Y-109350140D01*
X147676786Y-109387696D01*
X147638570Y-109438021D01*
X147591863Y-109498973D01*
X147538339Y-109568411D01*
X147479669Y-109644194D01*
X147417525Y-109724180D01*
X147353579Y-109806228D01*
X147289505Y-109888196D01*
X147226973Y-109967943D01*
X147167657Y-110043327D01*
X147113229Y-110112207D01*
X147065361Y-110172442D01*
X147025725Y-110221889D01*
X146995994Y-110258408D01*
X146977839Y-110279858D01*
X146974780Y-110283156D01*
X146971921Y-110275149D01*
X146969707Y-110244855D01*
X146968143Y-110192556D01*
X146967233Y-110118531D01*
X146966980Y-110023063D01*
X146967387Y-109906434D01*
X146968296Y-109786445D01*
X146969618Y-109654333D01*
X146971143Y-109542594D01*
X146973119Y-109449025D01*
X146975794Y-109371419D01*
X146979418Y-109307574D01*
X146984239Y-109255283D01*
X146990506Y-109212344D01*
X146998468Y-109176551D01*
X147008373Y-109145700D01*
X147020469Y-109117586D01*
X147035007Y-109090005D01*
X147049689Y-109064966D01*
X147087686Y-109001867D01*
X146027803Y-109001867D01*
X145724966Y-109001867D01*
X145724999Y-108995617D01*
X145725805Y-108893544D01*
X145726830Y-108804633D01*
X145728100Y-108727941D01*
X145729640Y-108662527D01*
X145731476Y-108607449D01*
X145733633Y-108561765D01*
X145736137Y-108524534D01*
X145739013Y-108494813D01*
X145742287Y-108471662D01*
X145745985Y-108454139D01*
X145750131Y-108441301D01*
X145754753Y-108432208D01*
X145759874Y-108425918D01*
X145765522Y-108421488D01*
X145771721Y-108417978D01*
X145778496Y-108414445D01*
X145784492Y-108410876D01*
X145789725Y-108408300D01*
X145797901Y-108405972D01*
X145810114Y-108403878D01*
X145827459Y-108402007D01*
X145851031Y-108400347D01*
X145881923Y-108398884D01*
X145921232Y-108397608D01*
X145970050Y-108396504D01*
X146029473Y-108395561D01*
X146100596Y-108394767D01*
X146184512Y-108394109D01*
X146282317Y-108393575D01*
X146395106Y-108393153D01*
X146523971Y-108392829D01*
X146670009Y-108392592D01*
X146834314Y-108392430D01*
X147017980Y-108392330D01*
X147222103Y-108392280D01*
X147433247Y-108392267D01*
X149053600Y-108392267D01*
X149053600Y-108489054D01*
G37*
D10*
%TO.C,GPS-NEO6M1*%
X100500000Y-135000000D02*
X131500000Y-135000000D01*
X131500000Y-135000000D02*
X131500000Y-109000000D01*
X131500000Y-109000000D02*
X100500000Y-109000000D01*
X100500000Y-109000000D02*
X100500000Y-135000000D01*
%TO.C,Lipo-1S-to-5V1*%
X134000000Y-94500000D02*
X142000000Y-94500000D01*
X142000000Y-94500000D02*
X142000000Y-107500000D01*
X142000000Y-107500000D02*
X134000000Y-107500000D01*
X134000000Y-107500000D02*
X134000000Y-94500000D01*
%TO.C,QMC5883_Mag1*%
X77920000Y-133580000D02*
X95920000Y-133580000D01*
X95920000Y-133580000D02*
X95920000Y-120580000D01*
X95920000Y-120580000D02*
X77920000Y-120580000D01*
X77920000Y-120580000D02*
X77920000Y-133580000D01*
%TO.C,BMP180_Press1*%
X156296000Y-118500000D02*
X143296000Y-118500000D01*
X143296000Y-118500000D02*
X143296000Y-129500000D01*
X143296000Y-129500000D02*
X156296000Y-129500000D01*
X156296000Y-129500000D02*
X156296000Y-118500000D01*
%TD*%
M02*
