%TF.GenerationSoftware,KiCad,Pcbnew,7.0.11+dfsg-1build4*%
%TF.CreationDate,2024-10-09T23:48:32+02:00*%
%TF.ProjectId,BertheVarioTac-Shema,42657274-6865-4566-9172-696f5461632d,rev?*%
%TF.SameCoordinates,Original*%
%TF.FileFunction,Copper,L2,Bot*%
%TF.FilePolarity,Positive*%
%FSLAX46Y46*%
G04 Gerber Fmt 4.6, Leading zero omitted, Abs format (unit mm)*
G04 Created by KiCad (PCBNEW 7.0.11+dfsg-1build4) date 2024-10-09 23:48:32*
%MOMM*%
%LPD*%
G01*
G04 APERTURE LIST*
%TA.AperFunction,ComponentPad*%
%ADD10C,1.800000*%
%TD*%
%TA.AperFunction,ComponentPad*%
%ADD11C,1.600000*%
%TD*%
%TA.AperFunction,ComponentPad*%
%ADD12O,1.600000X1.600000*%
%TD*%
%TA.AperFunction,ComponentPad*%
%ADD13C,2.000000*%
%TD*%
%TA.AperFunction,ViaPad*%
%ADD14C,0.600000*%
%TD*%
%TA.AperFunction,Conductor*%
%ADD15C,1.500000*%
%TD*%
G04 APERTURE END LIST*
D10*
%TO.P,SW1,2*%
%TO.N,Net-(BT1-+)*%
X168000000Y-130000000D03*
%TO.P,SW1,1*%
%TO.N,Net-(Lipo-1S-to-5V1-IN_3.7v)*%
X168000000Y-132540000D03*
%TD*%
%TO.P,Usb-C-charger1,1,B-*%
%TO.N,GNDREF*%
X168000000Y-103000000D03*
%TO.P,Usb-C-charger1,2,+*%
%TO.N,Net-(BT1-+)*%
X168000000Y-112000000D03*
%TD*%
D11*
%TO.P,R1,1*%
%TO.N,Net-(R1-Pad1)*%
X143880000Y-140000000D03*
D12*
%TO.P,R1,2*%
%TO.N,Net-(P4-Pin_1)*%
X154040000Y-140000000D03*
%TD*%
D10*
%TO.P,CN1,1,Pin_1*%
%TO.N,Net-(BMP180_Press1-VIN)*%
X125500000Y-140000000D03*
%TO.P,CN1,2,Pin_2*%
%TO.N,Net-(BMP180_Press1-SDA)*%
X122960000Y-140000000D03*
%TO.P,CN1,3,Pin_3*%
%TO.N,Net-(BMP180_Press1-SCL)*%
X120420000Y-140000000D03*
%TO.P,CN1,4,Pin_4*%
%TO.N,GNDREF*%
X117880000Y-140000000D03*
%TD*%
D13*
%TO.P,R2,1*%
%TO.N,Net-(BMP180_Press1-VIN)*%
X111580000Y-99000000D03*
%TO.P,R2,2*%
%TO.N,Net-(BMP180_Press1-SDA)*%
X101420000Y-99000000D03*
%TD*%
D10*
%TO.P,S1,1,1*%
%TO.N,Net-(P4-Pin_2)*%
X168500000Y-140000000D03*
%TO.P,S1,2,2*%
%TO.N,Net-(R1-Pad1)*%
X165960000Y-140000000D03*
%TD*%
%TO.P,P4,1,Pin_1*%
%TO.N,Net-(P4-Pin_1)*%
X161500000Y-140000000D03*
%TO.P,P4,2,Pin_2*%
%TO.N,Net-(P4-Pin_2)*%
X158960000Y-140000000D03*
%TD*%
%TO.P,GPS-NEO6M1,1,GND*%
%TO.N,GNDREF*%
X133500000Y-125620000D03*
%TO.P,GPS-NEO6M1,2,TX*%
%TO.N,Net-(GPS-NEO6M1-TX)*%
X133500000Y-123080000D03*
%TO.P,GPS-NEO6M1,3,RX*%
%TO.N,unconnected-(GPS-NEO6M1-RX-Pad3)*%
X133500000Y-120540000D03*
%TO.P,GPS-NEO6M1,4,VCC*%
%TO.N,Net-(BMP180_Press1-VIN)*%
X133500000Y-118000000D03*
%TD*%
D13*
%TO.P,R3,1*%
%TO.N,Net-(BMP180_Press1-VIN)*%
X111580000Y-103500000D03*
%TO.P,R3,2*%
%TO.N,Net-(BMP180_Press1-SCL)*%
X101420000Y-103500000D03*
%TD*%
D10*
%TO.P,Lipo-1S-to-5V1,3,OUT_5V*%
%TO.N,Net-(Lipo-1S-to-5V1-OUT_5V)*%
X135000000Y-104500000D03*
%TO.P,Lipo-1S-to-5V1,2,IN_3.7v*%
%TO.N,Net-(Lipo-1S-to-5V1-IN_3.7v)*%
X132460000Y-104500000D03*
%TO.P,Lipo-1S-to-5V1,1,GND*%
%TO.N,GNDREF*%
X129920000Y-104500000D03*
%TD*%
%TO.P,BT1,2,-*%
%TO.N,GNDREF*%
X173000000Y-132540000D03*
%TO.P,BT1,1,+*%
%TO.N,Net-(BT1-+)*%
X173000000Y-130000000D03*
%TD*%
%TO.P,QMC5883_Mag1,1,VCC*%
%TO.N,Net-(BMP180_Press1-VIN)*%
X94000000Y-133160000D03*
%TO.P,QMC5883_Mag1,2,GND*%
%TO.N,GNDREF*%
X94000000Y-130620000D03*
%TO.P,QMC5883_Mag1,3,SCL*%
%TO.N,Net-(BMP180_Press1-SCL)*%
X94000000Y-128080000D03*
%TO.P,QMC5883_Mag1,4,SDA*%
%TO.N,Net-(BMP180_Press1-SDA)*%
X94000000Y-125540000D03*
%TO.P,QMC5883_Mag1,5*%
%TO.N,N/C*%
X94000000Y-123000000D03*
%TD*%
%TO.P,P1,1,Pin_1*%
%TO.N,Net-(Lipo-1S-to-5V1-OUT_5V)*%
X139040000Y-140000000D03*
%TO.P,P1,2,Pin_2*%
%TO.N,Net-(GPS-NEO6M1-TX)*%
X136500000Y-140000000D03*
%TO.P,P1,3,Pin_3*%
%TO.N,unconnected-(P1-Pin_3-Pad3)*%
X133960000Y-140000000D03*
%TO.P,P1,4,Pin_4*%
%TO.N,GNDREF*%
X131420000Y-140000000D03*
%TD*%
%TO.P,P5,1,1*%
%TO.N,Net-(Lipo-1S-to-5V1-IN_3.7v)*%
X118000000Y-96000000D03*
%TO.P,P5,2,2*%
%TO.N,Net-(P3-Pin_3)*%
X120500000Y-100000000D03*
%TO.P,P5,3,3*%
%TO.N,GNDREF*%
X123000000Y-96000000D03*
%TD*%
%TO.P,BMP180_Press1,1,SDA*%
%TO.N,Net-(BMP180_Press1-SDA)*%
X144000000Y-125460000D03*
%TO.P,BMP180_Press1,2,SCL*%
%TO.N,Net-(BMP180_Press1-SCL)*%
X144000000Y-128000000D03*
%TO.P,BMP180_Press1,3,GND*%
%TO.N,GNDREF*%
X144000000Y-130540000D03*
%TO.P,BMP180_Press1,4,VIN*%
%TO.N,Net-(BMP180_Press1-VIN)*%
X144000000Y-133080000D03*
%TD*%
%TO.P,P3,1,Pin_1*%
%TO.N,unconnected-(P3-Pin_1-Pad1)*%
X112580000Y-140000000D03*
%TO.P,P3,2,Pin_2*%
%TO.N,unconnected-(P3-Pin_2-Pad2)*%
X110040000Y-140000000D03*
%TO.P,P3,3,Pin_3*%
%TO.N,Net-(P3-Pin_3)*%
X107500000Y-140000000D03*
%TO.P,P3,4,Pin_4*%
%TO.N,unconnected-(P3-Pin_4-Pad4)*%
X104960000Y-140000000D03*
%TD*%
D14*
%TO.N,Net-(BMP180_Press1-VIN)*%
X137124600Y-126899900D03*
%TO.N,Net-(Lipo-1S-to-5V1-OUT_5V)*%
X136700500Y-109404000D03*
%TD*%
D15*
%TO.N,Net-(Lipo-1S-to-5V1-IN_3.7v)*%
X132460000Y-104416900D02*
X132460000Y-104500000D01*
X127586800Y-99543700D02*
X132460000Y-104416900D01*
X123708000Y-99543700D02*
X127586800Y-99543700D01*
X120164300Y-96000000D02*
X123708000Y-99543700D01*
X118000000Y-96000000D02*
X120164300Y-96000000D01*
X132460000Y-104615600D02*
X132460000Y-104500000D01*
X134563000Y-106718600D02*
X132460000Y-104615600D01*
X136422000Y-106718600D02*
X134563000Y-106718600D01*
X162243400Y-132540000D02*
X136422000Y-106718600D01*
X168000000Y-132540000D02*
X162243400Y-132540000D01*
%TO.N,Net-(BMP180_Press1-SCL)*%
X94102700Y-128080000D02*
X94000000Y-128080000D01*
X101420000Y-120762700D02*
X94102700Y-128080000D01*
X101420000Y-103500000D02*
X101420000Y-120762700D01*
X120420000Y-139886300D02*
X120420000Y-140000000D01*
X131699500Y-128606800D02*
X120420000Y-139886300D01*
X143393200Y-128606800D02*
X131699500Y-128606800D01*
X144000000Y-128000000D02*
X143393200Y-128606800D01*
%TO.N,Net-(BMP180_Press1-VIN)*%
X137124600Y-121530800D02*
X137124600Y-126899900D01*
X133593800Y-118000000D02*
X137124600Y-121530800D01*
X133500000Y-118000000D02*
X133593800Y-118000000D01*
X105798100Y-109281900D02*
X111580000Y-103500000D01*
X105798100Y-121453200D02*
X105798100Y-109281900D01*
X94091300Y-133160000D02*
X105798100Y-121453200D01*
X94000000Y-133160000D02*
X94091300Y-133160000D01*
X111580000Y-103500000D02*
X111580000Y-99000000D01*
%TO.N,Net-(P4-Pin_2)*%
X168500000Y-139911600D02*
X168500000Y-140000000D01*
X166693400Y-138105000D02*
X168500000Y-139911600D01*
X160737000Y-138105000D02*
X166693400Y-138105000D01*
X158960000Y-139882000D02*
X160737000Y-138105000D01*
X158960000Y-140000000D02*
X158960000Y-139882000D01*
%TO.N,Net-(P3-Pin_3)*%
X107500000Y-113000000D02*
X107500000Y-140000000D01*
X120500000Y-100000000D02*
X107500000Y-113000000D01*
%TO.N,Net-(Lipo-1S-to-5V1-OUT_5V)*%
X139782300Y-140000000D02*
X139040000Y-140000000D01*
X145880300Y-133902000D02*
X139782300Y-140000000D01*
X145880300Y-118583800D02*
X145880300Y-133902000D01*
X136700500Y-109404000D02*
X145880300Y-118583800D01*
%TO.N,Net-(BT1-+)*%
X168000000Y-112000000D02*
X168000000Y-130000000D01*
%TD*%
%TA.AperFunction,Conductor*%
%TO.N,GNDREF*%
G36*
X176298004Y-93577910D02*
G01*
X176365031Y-93597625D01*
X176410762Y-93650450D01*
X176421944Y-93701997D01*
X176389183Y-140264953D01*
X176369451Y-140331979D01*
X176316615Y-140377697D01*
X176264954Y-140388866D01*
X170007947Y-140377311D01*
X169940944Y-140357502D01*
X169895287Y-140304614D01*
X169885471Y-140235437D01*
X169885869Y-140232893D01*
X169886131Y-140231314D01*
X169886134Y-140231305D01*
X169905300Y-140000000D01*
X169905300Y-139999994D01*
X169905300Y-139999993D01*
X169886135Y-139768702D01*
X169886133Y-139768691D01*
X169829157Y-139543699D01*
X169735924Y-139331151D01*
X169608983Y-139136852D01*
X169608980Y-139136849D01*
X169608979Y-139136847D01*
X169451784Y-138966087D01*
X169451779Y-138966083D01*
X169451777Y-138966081D01*
X169268634Y-138823535D01*
X169268628Y-138823531D01*
X169092234Y-138728071D01*
X169063571Y-138706697D01*
X168356874Y-138000000D01*
X171894592Y-138000000D01*
X171914201Y-138286680D01*
X171914201Y-138286684D01*
X171914202Y-138286686D01*
X171935984Y-138391509D01*
X171972666Y-138568034D01*
X171972667Y-138568037D01*
X172068894Y-138838793D01*
X172068893Y-138838793D01*
X172201098Y-139093935D01*
X172366812Y-139328700D01*
X172430505Y-139396898D01*
X172562947Y-139538708D01*
X172785853Y-139720055D01*
X172873423Y-139773308D01*
X173031382Y-139869365D01*
X173218237Y-139950526D01*
X173294942Y-139983844D01*
X173571642Y-140061371D01*
X173821920Y-140095771D01*
X173856321Y-140100500D01*
X173856322Y-140100500D01*
X174143679Y-140100500D01*
X174175079Y-140096184D01*
X174428358Y-140061371D01*
X174705058Y-139983844D01*
X174818015Y-139934779D01*
X174968617Y-139869365D01*
X174968620Y-139869363D01*
X174968625Y-139869361D01*
X175214147Y-139720055D01*
X175437053Y-139538708D01*
X175633189Y-139328698D01*
X175798901Y-139093936D01*
X175931104Y-138838797D01*
X176027334Y-138568032D01*
X176085798Y-138286686D01*
X176105408Y-138000000D01*
X176085798Y-137713314D01*
X176027334Y-137431968D01*
X175931105Y-137161206D01*
X175931106Y-137161206D01*
X175798901Y-136906064D01*
X175633187Y-136671299D01*
X175554554Y-136587105D01*
X175437053Y-136461292D01*
X175214147Y-136279945D01*
X175214146Y-136279944D01*
X174968617Y-136130634D01*
X174705063Y-136016158D01*
X174705061Y-136016157D01*
X174705058Y-136016156D01*
X174575578Y-135979877D01*
X174428364Y-135938630D01*
X174428359Y-135938629D01*
X174428358Y-135938629D01*
X174286018Y-135919064D01*
X174143679Y-135899500D01*
X174143678Y-135899500D01*
X173856322Y-135899500D01*
X173856321Y-135899500D01*
X173571642Y-135938629D01*
X173571635Y-135938630D01*
X173363861Y-135996845D01*
X173294942Y-136016156D01*
X173294939Y-136016156D01*
X173294936Y-136016158D01*
X173294935Y-136016158D01*
X173031382Y-136130634D01*
X172785853Y-136279944D01*
X172562950Y-136461289D01*
X172366812Y-136671299D01*
X172201098Y-136906064D01*
X172068894Y-137161206D01*
X171972667Y-137431962D01*
X171972666Y-137431965D01*
X171914201Y-137713319D01*
X171894592Y-138000000D01*
X168356874Y-138000000D01*
X167632216Y-137275342D01*
X167622949Y-137264973D01*
X167600906Y-137237332D01*
X167551003Y-137193732D01*
X167544907Y-137188033D01*
X167537932Y-137181058D01*
X167537921Y-137181048D01*
X167506655Y-137154945D01*
X167504539Y-137153138D01*
X167431403Y-137089240D01*
X167431397Y-137089236D01*
X167431396Y-137089235D01*
X167427641Y-137086991D01*
X167411773Y-137075732D01*
X167408419Y-137072932D01*
X167408418Y-137072931D01*
X167408413Y-137072927D01*
X167323948Y-137025001D01*
X167321544Y-137023601D01*
X167238163Y-136973784D01*
X167234069Y-136972248D01*
X167216444Y-136964002D01*
X167212645Y-136961846D01*
X167120969Y-136929767D01*
X167118353Y-136928819D01*
X167027429Y-136894694D01*
X167027419Y-136894691D01*
X167023123Y-136893912D01*
X167004318Y-136888949D01*
X167000184Y-136887502D01*
X167000177Y-136887501D01*
X166904248Y-136872307D01*
X166901505Y-136871841D01*
X166805950Y-136854500D01*
X166805947Y-136854500D01*
X166801572Y-136854500D01*
X166782169Y-136852972D01*
X166777860Y-136852289D01*
X166680759Y-136854469D01*
X166677977Y-136854500D01*
X160814186Y-136854500D01*
X160800303Y-136853720D01*
X160790693Y-136852637D01*
X160765176Y-136849762D01*
X160765169Y-136849761D01*
X160702307Y-136854000D01*
X160699062Y-136854219D01*
X160690722Y-136854500D01*
X160680837Y-136854500D01*
X160640284Y-136858149D01*
X160637516Y-136858367D01*
X160540588Y-136864902D01*
X160540581Y-136864903D01*
X160536327Y-136865975D01*
X160517174Y-136869230D01*
X160512811Y-136869623D01*
X160512802Y-136869624D01*
X160419213Y-136895454D01*
X160416524Y-136896164D01*
X160322318Y-136919903D01*
X160318322Y-136921718D01*
X160300059Y-136928339D01*
X160295838Y-136929504D01*
X160295821Y-136929510D01*
X160208289Y-136971662D01*
X160205772Y-136972840D01*
X160117374Y-137012992D01*
X160113772Y-137015488D01*
X160096980Y-137025267D01*
X160093029Y-137027170D01*
X160093020Y-137027175D01*
X160014411Y-137084287D01*
X160012185Y-137085866D01*
X159971314Y-137114182D01*
X159932345Y-137141180D01*
X159929239Y-137144286D01*
X159914465Y-137156903D01*
X159910928Y-137159473D01*
X159910921Y-137159478D01*
X159843804Y-137229677D01*
X159841859Y-137231665D01*
X158331913Y-138741611D01*
X158303251Y-138762984D01*
X158248197Y-138792778D01*
X158191374Y-138823530D01*
X158191372Y-138823530D01*
X158191369Y-138823533D01*
X158191362Y-138823537D01*
X158008222Y-138966081D01*
X158008219Y-138966084D01*
X158008216Y-138966086D01*
X158008216Y-138966087D01*
X157977040Y-138999953D01*
X157851016Y-139136852D01*
X157724075Y-139331151D01*
X157630842Y-139543699D01*
X157573866Y-139768691D01*
X157573864Y-139768702D01*
X157554700Y-139999993D01*
X157554700Y-139999994D01*
X157554700Y-140000000D01*
X157564066Y-140113030D01*
X157572919Y-140219879D01*
X157558837Y-140288315D01*
X157509991Y-140338274D01*
X157449113Y-140354118D01*
X155449902Y-140350426D01*
X155382899Y-140330617D01*
X155337242Y-140277729D01*
X155326603Y-140215621D01*
X155345468Y-140000000D01*
X155345467Y-139999994D01*
X155334039Y-139869365D01*
X155325635Y-139773308D01*
X155266739Y-139553504D01*
X155170568Y-139347266D01*
X155040047Y-139160861D01*
X155040045Y-139160858D01*
X154879141Y-138999954D01*
X154692734Y-138869432D01*
X154692732Y-138869431D01*
X154486497Y-138773261D01*
X154486488Y-138773258D01*
X154266697Y-138714366D01*
X154266693Y-138714365D01*
X154266692Y-138714365D01*
X154266691Y-138714364D01*
X154266686Y-138714364D01*
X154040002Y-138694532D01*
X154039998Y-138694532D01*
X153813313Y-138714364D01*
X153813302Y-138714366D01*
X153593511Y-138773258D01*
X153593502Y-138773261D01*
X153387267Y-138869431D01*
X153387265Y-138869432D01*
X153200858Y-138999954D01*
X153039954Y-139160858D01*
X152909432Y-139347265D01*
X152909431Y-139347267D01*
X152813261Y-139553502D01*
X152813258Y-139553511D01*
X152754366Y-139773302D01*
X152754364Y-139773313D01*
X152734532Y-139999998D01*
X152734532Y-140000002D01*
X152752940Y-140210410D01*
X152739173Y-140278910D01*
X152690558Y-140329093D01*
X152629183Y-140345217D01*
X145291543Y-140331666D01*
X145224540Y-140311857D01*
X145178883Y-140258969D01*
X145168244Y-140196862D01*
X145185468Y-140000000D01*
X145185467Y-139999994D01*
X145174039Y-139869365D01*
X145165635Y-139773308D01*
X145106739Y-139553504D01*
X145010568Y-139347266D01*
X144880047Y-139160861D01*
X144880045Y-139160858D01*
X144719141Y-138999954D01*
X144532734Y-138869432D01*
X144532732Y-138869431D01*
X144326497Y-138773261D01*
X144326488Y-138773258D01*
X144106697Y-138714366D01*
X144106693Y-138714365D01*
X144106692Y-138714365D01*
X144106691Y-138714364D01*
X144106686Y-138714364D01*
X143880002Y-138694532D01*
X143879998Y-138694532D01*
X143653313Y-138714364D01*
X143653302Y-138714366D01*
X143433511Y-138773258D01*
X143433502Y-138773261D01*
X143227267Y-138869431D01*
X143227265Y-138869432D01*
X143040858Y-138999954D01*
X142879954Y-139160858D01*
X142749432Y-139347265D01*
X142749431Y-139347267D01*
X142653261Y-139553502D01*
X142653258Y-139553511D01*
X142594366Y-139773302D01*
X142594364Y-139773313D01*
X142574532Y-139999998D01*
X142574532Y-140000002D01*
X142591298Y-140191644D01*
X142577531Y-140260144D01*
X142528916Y-140310327D01*
X142467541Y-140326451D01*
X141525193Y-140324711D01*
X141458190Y-140304902D01*
X141412533Y-140252014D01*
X141402717Y-140182837D01*
X141431859Y-140119335D01*
X141437713Y-140113059D01*
X146709966Y-134840806D01*
X146720316Y-134831557D01*
X146747966Y-134809508D01*
X146791555Y-134759615D01*
X146797256Y-134753518D01*
X146804227Y-134746547D01*
X146804227Y-134746546D01*
X146804244Y-134746530D01*
X146830374Y-134715231D01*
X146832157Y-134713143D01*
X146896065Y-134639996D01*
X146898306Y-134636243D01*
X146909574Y-134620364D01*
X146912368Y-134617019D01*
X146960329Y-134532491D01*
X146961675Y-134530182D01*
X146991984Y-134479453D01*
X147011515Y-134446764D01*
X147013047Y-134442679D01*
X147021303Y-134425033D01*
X147023453Y-134421245D01*
X147055553Y-134329507D01*
X147056461Y-134327002D01*
X147090607Y-134236024D01*
X147091385Y-134231737D01*
X147096356Y-134212902D01*
X147097798Y-134208783D01*
X147113008Y-134112746D01*
X147113444Y-134110181D01*
X147130800Y-134014547D01*
X147130800Y-134010169D01*
X147132327Y-133990770D01*
X147133010Y-133986460D01*
X147130830Y-133889377D01*
X147130800Y-133886596D01*
X147130800Y-119495236D01*
X147150485Y-119428197D01*
X147203289Y-119382442D01*
X147272447Y-119372498D01*
X147336003Y-119401523D01*
X147342480Y-119407554D01*
X154338078Y-126403153D01*
X161304586Y-133369661D01*
X161313852Y-133380029D01*
X161335892Y-133407666D01*
X161385787Y-133451259D01*
X161391883Y-133456958D01*
X161398870Y-133463945D01*
X161413288Y-133475982D01*
X161430190Y-133490093D01*
X161432304Y-133491899D01*
X161505404Y-133555765D01*
X161509166Y-133558013D01*
X161525022Y-133569264D01*
X161528381Y-133572068D01*
X161612526Y-133619813D01*
X161612850Y-133619997D01*
X161615254Y-133621397D01*
X161698632Y-133671213D01*
X161698633Y-133671213D01*
X161698636Y-133671215D01*
X161702727Y-133672750D01*
X161720355Y-133680996D01*
X161724155Y-133683153D01*
X161815896Y-133715254D01*
X161818398Y-133716161D01*
X161909376Y-133750307D01*
X161911965Y-133750776D01*
X161913674Y-133751087D01*
X161932489Y-133756053D01*
X161936617Y-133757498D01*
X162032637Y-133772705D01*
X162035232Y-133773146D01*
X162106832Y-133786140D01*
X162130852Y-133790500D01*
X162130853Y-133790500D01*
X162135228Y-133790500D01*
X162154631Y-133792028D01*
X162156338Y-133792297D01*
X162158940Y-133792710D01*
X162256021Y-133790531D01*
X162258804Y-133790500D01*
X167336768Y-133790500D01*
X167395786Y-133805446D01*
X167431830Y-133824951D01*
X167435497Y-133826936D01*
X167545258Y-133864617D01*
X167655015Y-133902297D01*
X167655017Y-133902297D01*
X167655019Y-133902298D01*
X167883951Y-133940500D01*
X167883952Y-133940500D01*
X168116048Y-133940500D01*
X168116049Y-133940500D01*
X168344981Y-133902298D01*
X168564503Y-133826936D01*
X168768626Y-133716470D01*
X168768989Y-133716188D01*
X168890776Y-133621397D01*
X168951784Y-133573913D01*
X169108979Y-133403153D01*
X169235924Y-133208849D01*
X169329157Y-132996300D01*
X169386134Y-132771305D01*
X169386135Y-132771297D01*
X169405300Y-132540006D01*
X169405300Y-132539993D01*
X169386135Y-132308702D01*
X169386133Y-132308691D01*
X169329157Y-132083699D01*
X169235924Y-131871151D01*
X169108983Y-131676852D01*
X169108980Y-131676849D01*
X169108979Y-131676847D01*
X168951784Y-131506087D01*
X168774180Y-131367853D01*
X168733368Y-131311143D01*
X168729693Y-131241370D01*
X168764324Y-131180687D01*
X168774181Y-131172146D01*
X168951784Y-131033913D01*
X169108979Y-130863153D01*
X169235924Y-130668849D01*
X169329157Y-130456300D01*
X169386134Y-130231305D01*
X169387704Y-130212359D01*
X169405300Y-130000006D01*
X171594700Y-130000006D01*
X171613864Y-130231297D01*
X171613866Y-130231308D01*
X171670842Y-130456300D01*
X171764075Y-130668848D01*
X171891016Y-130863147D01*
X171891019Y-130863151D01*
X171891021Y-130863153D01*
X172048216Y-131033913D01*
X172164418Y-131124356D01*
X172226225Y-131172462D01*
X172267038Y-131229173D01*
X172270713Y-131298946D01*
X172236082Y-131359629D01*
X172226225Y-131368170D01*
X172201201Y-131387646D01*
X172201200Y-131387647D01*
X172955600Y-132142046D01*
X172874852Y-132154835D01*
X172761955Y-132212359D01*
X172672359Y-132301955D01*
X172614835Y-132414852D01*
X172602046Y-132495600D01*
X171848811Y-131742365D01*
X171764516Y-131871390D01*
X171671317Y-132083864D01*
X171614361Y-132308781D01*
X171595202Y-132539994D01*
X171595202Y-132540005D01*
X171614361Y-132771218D01*
X171671317Y-132996135D01*
X171764515Y-133208606D01*
X171848812Y-133337633D01*
X172602046Y-132584399D01*
X172614835Y-132665148D01*
X172672359Y-132778045D01*
X172761955Y-132867641D01*
X172874852Y-132925165D01*
X172955599Y-132937953D01*
X172201201Y-133692351D01*
X172231649Y-133716050D01*
X172435697Y-133826476D01*
X172435706Y-133826479D01*
X172655139Y-133901811D01*
X172883993Y-133940000D01*
X173116007Y-133940000D01*
X173344860Y-133901811D01*
X173564293Y-133826479D01*
X173564301Y-133826476D01*
X173768355Y-133716047D01*
X173798797Y-133692351D01*
X173798798Y-133692350D01*
X173044401Y-132937953D01*
X173125148Y-132925165D01*
X173238045Y-132867641D01*
X173327641Y-132778045D01*
X173385165Y-132665148D01*
X173397953Y-132584400D01*
X174151186Y-133337633D01*
X174235482Y-133208611D01*
X174328682Y-132996135D01*
X174385638Y-132771218D01*
X174404798Y-132540005D01*
X174404798Y-132539994D01*
X174385638Y-132308781D01*
X174328682Y-132083864D01*
X174235484Y-131871393D01*
X174151186Y-131742365D01*
X173397953Y-132495598D01*
X173385165Y-132414852D01*
X173327641Y-132301955D01*
X173238045Y-132212359D01*
X173125148Y-132154835D01*
X173044400Y-132142046D01*
X173798797Y-131387647D01*
X173798797Y-131387646D01*
X173773773Y-131368169D01*
X173732961Y-131311459D01*
X173729286Y-131241686D01*
X173763918Y-131181003D01*
X173773760Y-131172473D01*
X173951784Y-131033913D01*
X174108979Y-130863153D01*
X174235924Y-130668849D01*
X174329157Y-130456300D01*
X174386134Y-130231305D01*
X174387704Y-130212359D01*
X174405300Y-130000006D01*
X174405300Y-129999993D01*
X174386135Y-129768702D01*
X174386133Y-129768691D01*
X174329157Y-129543699D01*
X174235924Y-129331151D01*
X174108983Y-129136852D01*
X174108980Y-129136849D01*
X174108979Y-129136847D01*
X173951784Y-128966087D01*
X173951779Y-128966083D01*
X173951777Y-128966081D01*
X173768634Y-128823535D01*
X173768628Y-128823531D01*
X173564504Y-128713064D01*
X173564495Y-128713061D01*
X173344984Y-128637702D01*
X173173282Y-128609050D01*
X173116049Y-128599500D01*
X172883951Y-128599500D01*
X172838164Y-128607140D01*
X172655015Y-128637702D01*
X172435504Y-128713061D01*
X172435495Y-128713064D01*
X172231371Y-128823531D01*
X172231365Y-128823535D01*
X172048222Y-128966081D01*
X172048219Y-128966084D01*
X171891016Y-129136852D01*
X171764075Y-129331151D01*
X171670842Y-129543699D01*
X171613866Y-129768691D01*
X171613864Y-129768702D01*
X171594700Y-129999993D01*
X171594700Y-130000006D01*
X169405300Y-130000006D01*
X169405300Y-129999993D01*
X169386135Y-129768702D01*
X169386133Y-129768691D01*
X169329157Y-129543699D01*
X169260944Y-129388189D01*
X169250500Y-129338379D01*
X169250500Y-112661619D01*
X169260943Y-112611810D01*
X169329157Y-112456300D01*
X169386134Y-112231305D01*
X169405300Y-112000000D01*
X169405300Y-111999993D01*
X169386135Y-111768702D01*
X169386133Y-111768691D01*
X169329157Y-111543699D01*
X169235924Y-111331151D01*
X169108983Y-111136852D01*
X169108980Y-111136849D01*
X169108979Y-111136847D01*
X168951784Y-110966087D01*
X168951779Y-110966083D01*
X168951777Y-110966081D01*
X168768634Y-110823535D01*
X168768628Y-110823531D01*
X168564504Y-110713064D01*
X168564495Y-110713061D01*
X168344984Y-110637702D01*
X168173282Y-110609050D01*
X168116049Y-110599500D01*
X167883951Y-110599500D01*
X167838164Y-110607140D01*
X167655015Y-110637702D01*
X167435504Y-110713061D01*
X167435495Y-110713064D01*
X167231371Y-110823531D01*
X167231365Y-110823535D01*
X167048222Y-110966081D01*
X167048219Y-110966084D01*
X166891016Y-111136852D01*
X166764075Y-111331151D01*
X166670842Y-111543699D01*
X166613866Y-111768691D01*
X166613864Y-111768702D01*
X166594700Y-111999993D01*
X166594700Y-112000006D01*
X166613864Y-112231297D01*
X166613866Y-112231308D01*
X166670842Y-112456297D01*
X166670843Y-112456300D01*
X166739056Y-112611810D01*
X166749500Y-112661619D01*
X166749500Y-129338379D01*
X166739056Y-129388189D01*
X166670842Y-129543699D01*
X166613866Y-129768691D01*
X166613864Y-129768702D01*
X166594700Y-129999993D01*
X166594700Y-130000006D01*
X166613864Y-130231297D01*
X166613866Y-130231308D01*
X166670842Y-130456300D01*
X166764075Y-130668848D01*
X166891016Y-130863147D01*
X166891019Y-130863151D01*
X166891021Y-130863153D01*
X167048216Y-131033913D01*
X167091557Y-131067647D01*
X167132370Y-131124356D01*
X167136045Y-131194129D01*
X167101414Y-131254813D01*
X167039472Y-131287140D01*
X167015395Y-131289500D01*
X162812736Y-131289500D01*
X162745697Y-131269815D01*
X162725055Y-131253181D01*
X137360816Y-105888942D01*
X137351549Y-105878573D01*
X137329506Y-105850932D01*
X137279603Y-105807332D01*
X137273507Y-105801633D01*
X137266532Y-105794658D01*
X137266521Y-105794648D01*
X137235255Y-105768545D01*
X137233139Y-105766738D01*
X137160003Y-105702840D01*
X137159997Y-105702836D01*
X137159996Y-105702835D01*
X137156241Y-105700591D01*
X137140373Y-105689332D01*
X137137019Y-105686532D01*
X137137018Y-105686531D01*
X137137013Y-105686527D01*
X137052548Y-105638601D01*
X137050144Y-105637201D01*
X136966763Y-105587384D01*
X136962669Y-105585848D01*
X136945044Y-105577602D01*
X136941245Y-105575446D01*
X136849569Y-105543367D01*
X136846953Y-105542419D01*
X136756029Y-105508294D01*
X136756019Y-105508291D01*
X136751723Y-105507512D01*
X136732918Y-105502549D01*
X136728784Y-105501102D01*
X136728777Y-105501101D01*
X136632848Y-105485907D01*
X136630105Y-105485441D01*
X136534550Y-105468100D01*
X136534547Y-105468100D01*
X136530172Y-105468100D01*
X136510769Y-105466572D01*
X136506460Y-105465889D01*
X136409359Y-105468069D01*
X136406577Y-105468100D01*
X136269546Y-105468100D01*
X136202507Y-105448415D01*
X136156752Y-105395611D01*
X136146808Y-105326453D01*
X136165737Y-105276279D01*
X136202281Y-105220344D01*
X136235924Y-105168849D01*
X136329157Y-104956300D01*
X136386134Y-104731305D01*
X136386135Y-104731297D01*
X136405300Y-104500006D01*
X136405300Y-104499993D01*
X136386135Y-104268702D01*
X136386133Y-104268691D01*
X136329157Y-104043699D01*
X136235924Y-103831151D01*
X136108983Y-103636852D01*
X136108980Y-103636849D01*
X136108979Y-103636847D01*
X135951784Y-103466087D01*
X135951779Y-103466083D01*
X135951777Y-103466081D01*
X135768634Y-103323535D01*
X135768628Y-103323531D01*
X135564504Y-103213064D01*
X135564495Y-103213061D01*
X135344984Y-103137702D01*
X135173282Y-103109050D01*
X135116049Y-103099500D01*
X134883951Y-103099500D01*
X134838164Y-103107140D01*
X134655015Y-103137702D01*
X134435504Y-103213061D01*
X134435495Y-103213064D01*
X134231371Y-103323531D01*
X134231365Y-103323535D01*
X134048222Y-103466081D01*
X134048219Y-103466084D01*
X134048216Y-103466086D01*
X134048216Y-103466087D01*
X133989267Y-103530122D01*
X133891016Y-103636852D01*
X133833809Y-103724416D01*
X133780662Y-103769773D01*
X133711431Y-103779197D01*
X133648095Y-103749695D01*
X133626191Y-103724416D01*
X133568983Y-103636852D01*
X133568980Y-103636849D01*
X133568979Y-103636847D01*
X133411784Y-103466087D01*
X133411779Y-103466083D01*
X133411777Y-103466081D01*
X133228634Y-103323535D01*
X133228628Y-103323531D01*
X133040683Y-103221820D01*
X133012020Y-103200446D01*
X132811579Y-103000005D01*
X166595202Y-103000005D01*
X166614361Y-103231218D01*
X166671317Y-103456135D01*
X166764515Y-103668606D01*
X166848812Y-103797633D01*
X167602046Y-103044399D01*
X167614835Y-103125148D01*
X167672359Y-103238045D01*
X167761955Y-103327641D01*
X167874852Y-103385165D01*
X167955599Y-103397953D01*
X167201201Y-104152351D01*
X167231649Y-104176050D01*
X167435697Y-104286476D01*
X167435706Y-104286479D01*
X167655139Y-104361811D01*
X167883993Y-104400000D01*
X168116007Y-104400000D01*
X168344860Y-104361811D01*
X168564293Y-104286479D01*
X168564301Y-104286476D01*
X168768355Y-104176047D01*
X168798797Y-104152351D01*
X168798798Y-104152350D01*
X168044401Y-103397953D01*
X168125148Y-103385165D01*
X168238045Y-103327641D01*
X168327641Y-103238045D01*
X168385165Y-103125148D01*
X168397953Y-103044400D01*
X169151186Y-103797633D01*
X169235482Y-103668611D01*
X169328682Y-103456135D01*
X169385638Y-103231218D01*
X169404798Y-103000005D01*
X169404798Y-102999994D01*
X169385638Y-102768781D01*
X169328682Y-102543864D01*
X169235484Y-102331393D01*
X169151186Y-102202365D01*
X168397953Y-102955598D01*
X168385165Y-102874852D01*
X168327641Y-102761955D01*
X168238045Y-102672359D01*
X168125148Y-102614835D01*
X168044400Y-102602046D01*
X168798797Y-101847647D01*
X168798797Y-101847645D01*
X168768360Y-101823955D01*
X168768354Y-101823951D01*
X168564302Y-101713523D01*
X168564293Y-101713520D01*
X168344860Y-101638188D01*
X168116007Y-101600000D01*
X167883993Y-101600000D01*
X167655139Y-101638188D01*
X167435706Y-101713520D01*
X167435697Y-101713523D01*
X167231650Y-101823949D01*
X167201200Y-101847647D01*
X167955600Y-102602046D01*
X167874852Y-102614835D01*
X167761955Y-102672359D01*
X167672359Y-102761955D01*
X167614835Y-102874852D01*
X167602046Y-102955600D01*
X166848811Y-102202365D01*
X166764516Y-102331390D01*
X166671317Y-102543864D01*
X166614361Y-102768781D01*
X166595202Y-102999994D01*
X166595202Y-103000005D01*
X132811579Y-103000005D01*
X128525616Y-98714042D01*
X128516349Y-98703673D01*
X128494306Y-98676032D01*
X128444403Y-98632432D01*
X128438307Y-98626733D01*
X128431332Y-98619758D01*
X128431321Y-98619748D01*
X128400055Y-98593645D01*
X128397939Y-98591838D01*
X128324803Y-98527940D01*
X128324797Y-98527936D01*
X128324796Y-98527935D01*
X128321041Y-98525691D01*
X128305173Y-98514432D01*
X128301819Y-98511632D01*
X128301818Y-98511631D01*
X128301813Y-98511627D01*
X128217348Y-98463701D01*
X128214944Y-98462301D01*
X128131563Y-98412484D01*
X128127469Y-98410948D01*
X128109844Y-98402702D01*
X128106045Y-98400546D01*
X128014369Y-98368467D01*
X128011753Y-98367519D01*
X127920829Y-98333394D01*
X127920819Y-98333391D01*
X127916523Y-98332612D01*
X127897718Y-98327649D01*
X127893584Y-98326202D01*
X127893577Y-98326201D01*
X127797648Y-98311007D01*
X127794905Y-98310541D01*
X127699350Y-98293200D01*
X127699347Y-98293200D01*
X127694972Y-98293200D01*
X127675569Y-98291672D01*
X127671260Y-98290989D01*
X127574159Y-98293169D01*
X127571377Y-98293200D01*
X124277336Y-98293200D01*
X124210297Y-98273515D01*
X124189655Y-98256881D01*
X123447896Y-97515122D01*
X123414411Y-97453799D01*
X123419395Y-97384107D01*
X123461267Y-97328174D01*
X123495315Y-97310159D01*
X123564301Y-97286476D01*
X123768355Y-97176047D01*
X123798797Y-97152351D01*
X123798798Y-97152351D01*
X123044400Y-96397953D01*
X123125148Y-96385165D01*
X123238045Y-96327641D01*
X123327641Y-96238045D01*
X123385165Y-96125148D01*
X123397953Y-96044400D01*
X124151186Y-96797633D01*
X124235482Y-96668611D01*
X124328682Y-96456135D01*
X124385638Y-96231218D01*
X124404798Y-96000005D01*
X124404798Y-96000000D01*
X171894592Y-96000000D01*
X171914201Y-96286680D01*
X171914201Y-96286684D01*
X171914202Y-96286686D01*
X171928097Y-96353553D01*
X171972666Y-96568034D01*
X171972667Y-96568037D01*
X172068894Y-96838793D01*
X172068893Y-96838793D01*
X172201098Y-97093935D01*
X172366812Y-97328700D01*
X172451923Y-97419831D01*
X172562947Y-97538708D01*
X172664309Y-97621172D01*
X172785853Y-97720055D01*
X173031382Y-97869365D01*
X173218237Y-97950526D01*
X173294942Y-97983844D01*
X173571642Y-98061371D01*
X173821920Y-98095771D01*
X173856321Y-98100500D01*
X173856322Y-98100500D01*
X174143679Y-98100500D01*
X174174370Y-98096281D01*
X174428358Y-98061371D01*
X174705058Y-97983844D01*
X174818015Y-97934779D01*
X174968617Y-97869365D01*
X174968620Y-97869363D01*
X174968625Y-97869361D01*
X175214147Y-97720055D01*
X175437053Y-97538708D01*
X175633189Y-97328698D01*
X175798901Y-97093936D01*
X175931104Y-96838797D01*
X176027334Y-96568032D01*
X176085798Y-96286686D01*
X176105408Y-96000000D01*
X176085798Y-95713314D01*
X176027334Y-95431968D01*
X175931105Y-95161206D01*
X175931106Y-95161206D01*
X175798901Y-94906064D01*
X175633187Y-94671299D01*
X175554554Y-94587105D01*
X175437053Y-94461292D01*
X175214147Y-94279945D01*
X175214146Y-94279944D01*
X174968617Y-94130634D01*
X174705063Y-94016158D01*
X174705061Y-94016157D01*
X174705058Y-94016156D01*
X174575578Y-93979877D01*
X174428364Y-93938630D01*
X174428359Y-93938629D01*
X174428358Y-93938629D01*
X174286018Y-93919064D01*
X174143679Y-93899500D01*
X174143678Y-93899500D01*
X173856322Y-93899500D01*
X173856321Y-93899500D01*
X173571642Y-93938629D01*
X173571635Y-93938630D01*
X173363861Y-93996845D01*
X173294942Y-94016156D01*
X173294939Y-94016156D01*
X173294936Y-94016158D01*
X173294935Y-94016158D01*
X173031382Y-94130634D01*
X172785853Y-94279944D01*
X172562950Y-94461289D01*
X172366812Y-94671299D01*
X172201098Y-94906064D01*
X172068894Y-95161206D01*
X171972667Y-95431962D01*
X171972666Y-95431965D01*
X171914201Y-95713319D01*
X171894592Y-96000000D01*
X124404798Y-96000000D01*
X124404798Y-95999994D01*
X124385638Y-95768781D01*
X124328682Y-95543864D01*
X124235484Y-95331393D01*
X124151186Y-95202365D01*
X123397953Y-95955598D01*
X123385165Y-95874852D01*
X123327641Y-95761955D01*
X123238045Y-95672359D01*
X123125148Y-95614835D01*
X123044400Y-95602046D01*
X123798797Y-94847647D01*
X123798797Y-94847645D01*
X123768360Y-94823955D01*
X123768354Y-94823951D01*
X123564302Y-94713523D01*
X123564293Y-94713520D01*
X123344860Y-94638188D01*
X123116007Y-94600000D01*
X122883993Y-94600000D01*
X122655139Y-94638188D01*
X122435706Y-94713520D01*
X122435697Y-94713523D01*
X122231650Y-94823949D01*
X122201200Y-94847647D01*
X122955600Y-95602046D01*
X122874852Y-95614835D01*
X122761955Y-95672359D01*
X122672359Y-95761955D01*
X122614835Y-95874852D01*
X122602046Y-95955599D01*
X121848811Y-95202365D01*
X121764516Y-95331390D01*
X121684863Y-95512981D01*
X121639907Y-95566467D01*
X121573171Y-95587157D01*
X121505843Y-95568482D01*
X121483626Y-95550852D01*
X121103116Y-95170342D01*
X121093849Y-95159973D01*
X121071806Y-95132332D01*
X121021903Y-95088732D01*
X121015807Y-95083033D01*
X121008832Y-95076058D01*
X121008821Y-95076048D01*
X120977555Y-95049945D01*
X120975439Y-95048138D01*
X120902303Y-94984240D01*
X120902297Y-94984236D01*
X120902296Y-94984235D01*
X120898541Y-94981991D01*
X120882673Y-94970732D01*
X120879319Y-94967932D01*
X120879318Y-94967931D01*
X120879313Y-94967927D01*
X120794848Y-94920001D01*
X120792444Y-94918601D01*
X120709063Y-94868784D01*
X120704969Y-94867248D01*
X120687344Y-94859002D01*
X120683545Y-94856846D01*
X120591869Y-94824767D01*
X120589253Y-94823819D01*
X120498329Y-94789694D01*
X120498319Y-94789691D01*
X120494023Y-94788912D01*
X120475218Y-94783949D01*
X120471084Y-94782502D01*
X120471077Y-94782501D01*
X120375148Y-94767307D01*
X120372405Y-94766841D01*
X120276850Y-94749500D01*
X120276847Y-94749500D01*
X120272472Y-94749500D01*
X120253069Y-94747972D01*
X120248760Y-94747289D01*
X120151659Y-94749469D01*
X120148877Y-94749500D01*
X118663232Y-94749500D01*
X118604214Y-94734554D01*
X118564513Y-94713069D01*
X118564507Y-94713066D01*
X118564503Y-94713064D01*
X118564500Y-94713063D01*
X118564498Y-94713062D01*
X118344984Y-94637702D01*
X118173282Y-94609050D01*
X118116049Y-94599500D01*
X117883951Y-94599500D01*
X117838164Y-94607140D01*
X117655015Y-94637702D01*
X117435504Y-94713061D01*
X117435495Y-94713064D01*
X117231371Y-94823531D01*
X117231365Y-94823535D01*
X117048222Y-94966081D01*
X117048219Y-94966084D01*
X116891016Y-95136852D01*
X116764075Y-95331151D01*
X116670842Y-95543699D01*
X116613866Y-95768691D01*
X116613864Y-95768702D01*
X116594700Y-95999993D01*
X116594700Y-96000006D01*
X116613864Y-96231297D01*
X116613866Y-96231308D01*
X116670842Y-96456300D01*
X116764075Y-96668848D01*
X116891016Y-96863147D01*
X116891019Y-96863151D01*
X116891021Y-96863153D01*
X117048216Y-97033913D01*
X117048219Y-97033915D01*
X117048222Y-97033918D01*
X117231365Y-97176464D01*
X117231371Y-97176468D01*
X117231374Y-97176470D01*
X117435497Y-97286936D01*
X117549487Y-97326068D01*
X117655015Y-97362297D01*
X117655017Y-97362297D01*
X117655019Y-97362298D01*
X117883951Y-97400500D01*
X117883952Y-97400500D01*
X118116048Y-97400500D01*
X118116049Y-97400500D01*
X118344981Y-97362298D01*
X118564503Y-97286936D01*
X118586696Y-97274925D01*
X118604214Y-97265446D01*
X118663232Y-97250500D01*
X119594964Y-97250500D01*
X119662003Y-97270185D01*
X119682645Y-97286819D01*
X120797593Y-98401767D01*
X120831078Y-98463090D01*
X120826094Y-98532782D01*
X120784222Y-98588715D01*
X120718758Y-98613132D01*
X120689503Y-98611757D01*
X120616049Y-98599500D01*
X120383951Y-98599500D01*
X120338164Y-98607140D01*
X120155015Y-98637702D01*
X119935504Y-98713061D01*
X119935495Y-98713064D01*
X119731371Y-98823531D01*
X119731365Y-98823535D01*
X119548222Y-98966081D01*
X119548219Y-98966084D01*
X119548216Y-98966086D01*
X119548216Y-98966087D01*
X119489267Y-99030122D01*
X119391016Y-99136852D01*
X119264075Y-99331151D01*
X119168783Y-99548396D01*
X119167819Y-99547973D01*
X119141680Y-99589843D01*
X107260281Y-111471243D01*
X107198958Y-111504728D01*
X107129266Y-111499744D01*
X107073333Y-111457872D01*
X107048916Y-111392408D01*
X107048600Y-111383562D01*
X107048600Y-109851235D01*
X107068285Y-109784196D01*
X107084914Y-109763559D01*
X111848654Y-104999818D01*
X111909975Y-104966335D01*
X111915926Y-104965192D01*
X111949614Y-104959571D01*
X112184810Y-104878828D01*
X112403509Y-104760474D01*
X112599744Y-104607738D01*
X112768164Y-104424785D01*
X112904173Y-104216607D01*
X113004063Y-103988881D01*
X113065108Y-103747821D01*
X113065109Y-103747812D01*
X113085643Y-103500005D01*
X113085643Y-103499994D01*
X113065109Y-103252187D01*
X113065107Y-103252175D01*
X113004063Y-103011118D01*
X112904173Y-102783393D01*
X112850691Y-102701531D01*
X112830503Y-102634641D01*
X112830500Y-102633710D01*
X112830500Y-99866289D01*
X112850185Y-99799250D01*
X112850691Y-99798468D01*
X112892919Y-99733832D01*
X112904173Y-99716607D01*
X113004063Y-99488881D01*
X113065108Y-99247821D01*
X113085643Y-99000000D01*
X113082832Y-98966081D01*
X113065109Y-98752187D01*
X113065107Y-98752175D01*
X113004063Y-98511118D01*
X112904173Y-98283393D01*
X112768166Y-98075217D01*
X112684048Y-97983841D01*
X112599744Y-97892262D01*
X112403509Y-97739526D01*
X112403507Y-97739525D01*
X112403506Y-97739524D01*
X112184811Y-97621172D01*
X112184802Y-97621169D01*
X111949616Y-97540429D01*
X111704335Y-97499500D01*
X111455665Y-97499500D01*
X111210383Y-97540429D01*
X110975197Y-97621169D01*
X110975188Y-97621172D01*
X110756493Y-97739524D01*
X110560257Y-97892261D01*
X110391833Y-98075217D01*
X110255826Y-98283393D01*
X110155936Y-98511118D01*
X110094892Y-98752175D01*
X110094890Y-98752187D01*
X110074357Y-98999994D01*
X110074357Y-99000005D01*
X110094890Y-99247812D01*
X110094892Y-99247824D01*
X110155936Y-99488881D01*
X110255826Y-99716606D01*
X110309309Y-99798468D01*
X110329496Y-99865357D01*
X110329500Y-99866289D01*
X110329500Y-102633710D01*
X110309815Y-102700749D01*
X110309309Y-102701531D01*
X110255826Y-102783393D01*
X110155938Y-103011114D01*
X110155936Y-103011120D01*
X110115326Y-103171482D01*
X110082802Y-103228722D01*
X104968444Y-108343080D01*
X104958080Y-108352343D01*
X104930437Y-108374389D01*
X104930434Y-108374392D01*
X104886836Y-108424292D01*
X104881148Y-108430376D01*
X104874164Y-108437360D01*
X104874151Y-108437375D01*
X104848028Y-108468664D01*
X104846225Y-108470775D01*
X104782334Y-108543904D01*
X104782330Y-108543910D01*
X104780081Y-108547674D01*
X104768846Y-108563508D01*
X104766032Y-108566879D01*
X104718078Y-108651390D01*
X104716704Y-108653749D01*
X104686064Y-108705033D01*
X104666881Y-108737142D01*
X104665347Y-108741232D01*
X104657108Y-108758845D01*
X104654950Y-108762647D01*
X104654947Y-108762654D01*
X104622862Y-108854345D01*
X104621915Y-108856957D01*
X104587792Y-108947879D01*
X104587789Y-108947888D01*
X104587009Y-108952188D01*
X104582052Y-108970969D01*
X104580603Y-108975109D01*
X104580602Y-108975115D01*
X104565404Y-109071065D01*
X104564938Y-109073806D01*
X104547600Y-109169347D01*
X104547600Y-109173727D01*
X104546073Y-109193129D01*
X104545389Y-109197440D01*
X104547569Y-109294539D01*
X104547600Y-109297321D01*
X104547600Y-120883862D01*
X104527915Y-120950901D01*
X104511281Y-120971543D01*
X95454051Y-130028772D01*
X95392728Y-130062257D01*
X95323036Y-130057273D01*
X95267103Y-130015401D01*
X95252814Y-129990900D01*
X95235485Y-129951395D01*
X95151186Y-129822365D01*
X94397953Y-130575597D01*
X94385165Y-130494852D01*
X94327641Y-130381955D01*
X94238045Y-130292359D01*
X94125148Y-130234835D01*
X94044398Y-130222045D01*
X94798797Y-129467647D01*
X94798797Y-129467646D01*
X94773773Y-129448169D01*
X94732961Y-129391459D01*
X94729286Y-129321686D01*
X94763918Y-129261003D01*
X94773760Y-129252473D01*
X94951784Y-129113913D01*
X95108979Y-128943153D01*
X95235924Y-128748849D01*
X95252805Y-128710362D01*
X95278676Y-128672496D01*
X102249666Y-121701506D01*
X102260016Y-121692257D01*
X102287666Y-121670208D01*
X102331267Y-121620301D01*
X102336957Y-121614216D01*
X102343945Y-121607229D01*
X102370124Y-121575869D01*
X102371824Y-121573879D01*
X102435765Y-121500696D01*
X102438006Y-121496943D01*
X102449274Y-121481064D01*
X102452068Y-121477719D01*
X102500029Y-121393191D01*
X102501375Y-121390882D01*
X102535129Y-121334387D01*
X102551215Y-121307464D01*
X102552747Y-121303379D01*
X102561003Y-121285733D01*
X102563153Y-121281945D01*
X102595251Y-121190212D01*
X102596141Y-121187755D01*
X102630307Y-121096724D01*
X102631085Y-121092434D01*
X102636055Y-121073604D01*
X102637498Y-121069482D01*
X102637499Y-121069477D01*
X102652696Y-120973525D01*
X102653154Y-120970824D01*
X102668398Y-120886829D01*
X102670500Y-120875249D01*
X102670500Y-120870869D01*
X102672027Y-120851470D01*
X102672710Y-120847160D01*
X102670531Y-120750059D01*
X102670500Y-120747277D01*
X102670500Y-104366289D01*
X102690185Y-104299250D01*
X102690691Y-104298468D01*
X102714546Y-104261955D01*
X102744173Y-104216607D01*
X102844063Y-103988881D01*
X102905108Y-103747821D01*
X102905109Y-103747812D01*
X102925643Y-103500005D01*
X102925643Y-103499994D01*
X102905109Y-103252187D01*
X102905107Y-103252175D01*
X102844063Y-103011118D01*
X102744173Y-102783393D01*
X102608166Y-102575217D01*
X102579303Y-102543864D01*
X102439744Y-102392262D01*
X102243509Y-102239526D01*
X102243507Y-102239525D01*
X102243506Y-102239524D01*
X102024811Y-102121172D01*
X102024802Y-102121169D01*
X101789616Y-102040429D01*
X101544335Y-101999500D01*
X101295665Y-101999500D01*
X101050383Y-102040429D01*
X100815197Y-102121169D01*
X100815188Y-102121172D01*
X100596493Y-102239524D01*
X100400257Y-102392261D01*
X100231833Y-102575217D01*
X100095826Y-102783393D01*
X99995936Y-103011118D01*
X99934892Y-103252175D01*
X99934890Y-103252187D01*
X99914357Y-103499994D01*
X99914357Y-103500005D01*
X99934890Y-103747812D01*
X99934892Y-103747824D01*
X99995936Y-103988881D01*
X100095826Y-104216606D01*
X100149309Y-104298468D01*
X100169496Y-104365357D01*
X100169500Y-104366289D01*
X100169500Y-120193363D01*
X100149815Y-120260402D01*
X100133181Y-120281044D01*
X95457907Y-124956317D01*
X95396584Y-124989802D01*
X95326892Y-124984818D01*
X95270959Y-124942946D01*
X95256670Y-124918447D01*
X95235923Y-124871149D01*
X95108983Y-124676852D01*
X95108980Y-124676849D01*
X95108979Y-124676847D01*
X94951784Y-124506087D01*
X94774180Y-124367853D01*
X94733368Y-124311143D01*
X94729693Y-124241370D01*
X94764324Y-124180687D01*
X94774181Y-124172146D01*
X94809643Y-124144545D01*
X94951784Y-124033913D01*
X95108979Y-123863153D01*
X95235924Y-123668849D01*
X95329157Y-123456300D01*
X95386134Y-123231305D01*
X95398671Y-123080006D01*
X95405300Y-123000006D01*
X95405300Y-122999993D01*
X95386135Y-122768702D01*
X95386133Y-122768691D01*
X95329157Y-122543699D01*
X95235924Y-122331151D01*
X95108983Y-122136852D01*
X95108980Y-122136849D01*
X95108979Y-122136847D01*
X94951784Y-121966087D01*
X94951779Y-121966083D01*
X94951777Y-121966081D01*
X94768634Y-121823535D01*
X94768628Y-121823531D01*
X94564504Y-121713064D01*
X94564495Y-121713061D01*
X94344984Y-121637702D01*
X94162348Y-121607226D01*
X94116049Y-121599500D01*
X93883951Y-121599500D01*
X93883950Y-121599500D01*
X93818098Y-121610488D01*
X93748733Y-121602106D01*
X93694912Y-121557552D01*
X93673721Y-121490973D01*
X93673691Y-121488841D01*
X93565974Y-99000005D01*
X99914357Y-99000005D01*
X99934890Y-99247812D01*
X99934892Y-99247824D01*
X99995936Y-99488881D01*
X100095826Y-99716606D01*
X100231833Y-99924782D01*
X100231836Y-99924785D01*
X100400256Y-100107738D01*
X100596491Y-100260474D01*
X100596493Y-100260475D01*
X100805078Y-100373356D01*
X100815190Y-100378828D01*
X100909970Y-100411366D01*
X101044950Y-100457705D01*
X101050386Y-100459571D01*
X101295665Y-100500500D01*
X101544335Y-100500500D01*
X101789614Y-100459571D01*
X102024810Y-100378828D01*
X102243509Y-100260474D01*
X102439744Y-100107738D01*
X102608164Y-99924785D01*
X102744173Y-99716607D01*
X102844063Y-99488881D01*
X102905108Y-99247821D01*
X102925643Y-99000000D01*
X102922832Y-98966081D01*
X102905109Y-98752187D01*
X102905107Y-98752175D01*
X102844063Y-98511118D01*
X102744173Y-98283393D01*
X102608166Y-98075217D01*
X102524048Y-97983841D01*
X102439744Y-97892262D01*
X102243509Y-97739526D01*
X102243507Y-97739525D01*
X102243506Y-97739524D01*
X102024811Y-97621172D01*
X102024802Y-97621169D01*
X101789616Y-97540429D01*
X101544335Y-97499500D01*
X101295665Y-97499500D01*
X101050383Y-97540429D01*
X100815197Y-97621169D01*
X100815188Y-97621172D01*
X100596493Y-97739524D01*
X100400257Y-97892261D01*
X100231833Y-98075217D01*
X100095826Y-98283393D01*
X99995936Y-98511118D01*
X99934892Y-98752175D01*
X99934890Y-98752187D01*
X99914357Y-98999994D01*
X99914357Y-99000005D01*
X93565974Y-99000005D01*
X93551605Y-96000000D01*
X93894592Y-96000000D01*
X93914201Y-96286680D01*
X93914201Y-96286684D01*
X93914202Y-96286686D01*
X93928097Y-96353553D01*
X93972666Y-96568034D01*
X93972667Y-96568037D01*
X94068894Y-96838793D01*
X94068893Y-96838793D01*
X94201098Y-97093935D01*
X94366812Y-97328700D01*
X94451923Y-97419831D01*
X94562947Y-97538708D01*
X94664309Y-97621172D01*
X94785853Y-97720055D01*
X95031382Y-97869365D01*
X95218237Y-97950526D01*
X95294942Y-97983844D01*
X95571642Y-98061371D01*
X95821920Y-98095771D01*
X95856321Y-98100500D01*
X95856322Y-98100500D01*
X96143679Y-98100500D01*
X96174370Y-98096281D01*
X96428358Y-98061371D01*
X96705058Y-97983844D01*
X96818015Y-97934779D01*
X96968617Y-97869365D01*
X96968620Y-97869363D01*
X96968625Y-97869361D01*
X97214147Y-97720055D01*
X97437053Y-97538708D01*
X97633189Y-97328698D01*
X97798901Y-97093936D01*
X97931104Y-96838797D01*
X98027334Y-96568032D01*
X98085798Y-96286686D01*
X98105408Y-96000000D01*
X98085798Y-95713314D01*
X98027334Y-95431968D01*
X97931105Y-95161206D01*
X97931106Y-95161206D01*
X97798901Y-94906064D01*
X97633187Y-94671299D01*
X97554554Y-94587105D01*
X97437053Y-94461292D01*
X97214147Y-94279945D01*
X97214146Y-94279944D01*
X96968617Y-94130634D01*
X96705063Y-94016158D01*
X96705061Y-94016157D01*
X96705058Y-94016156D01*
X96575578Y-93979877D01*
X96428364Y-93938630D01*
X96428359Y-93938629D01*
X96428358Y-93938629D01*
X96286018Y-93919064D01*
X96143679Y-93899500D01*
X96143678Y-93899500D01*
X95856322Y-93899500D01*
X95856321Y-93899500D01*
X95571642Y-93938629D01*
X95571635Y-93938630D01*
X95363861Y-93996845D01*
X95294942Y-94016156D01*
X95294939Y-94016156D01*
X95294936Y-94016158D01*
X95294935Y-94016158D01*
X95031382Y-94130634D01*
X94785853Y-94279944D01*
X94562950Y-94461289D01*
X94366812Y-94671299D01*
X94201098Y-94906064D01*
X94068894Y-95161206D01*
X93972667Y-95431962D01*
X93972666Y-95431965D01*
X93914201Y-95713319D01*
X93894592Y-96000000D01*
X93551605Y-96000000D01*
X93540418Y-93664471D01*
X93559782Y-93597339D01*
X93612366Y-93551332D01*
X93664472Y-93539878D01*
X176298004Y-93577910D01*
G37*
%TD.AperFunction*%
%TA.AperFunction,Conductor*%
G36*
X142647941Y-129876985D02*
G01*
X142693696Y-129929789D01*
X142703640Y-129998947D01*
X142694458Y-130031110D01*
X142671317Y-130083865D01*
X142614361Y-130308781D01*
X142595202Y-130539994D01*
X142595202Y-130540005D01*
X142614361Y-130771218D01*
X142671317Y-130996135D01*
X142764515Y-131208606D01*
X142848812Y-131337632D01*
X143602045Y-130584398D01*
X143614835Y-130665148D01*
X143672359Y-130778045D01*
X143761955Y-130867641D01*
X143874852Y-130925165D01*
X143955598Y-130937953D01*
X143201201Y-131692351D01*
X143226226Y-131711829D01*
X143267038Y-131768539D01*
X143270713Y-131838312D01*
X143236081Y-131898995D01*
X143226226Y-131907535D01*
X143048218Y-132046085D01*
X142891016Y-132216852D01*
X142764075Y-132411151D01*
X142670842Y-132623699D01*
X142613866Y-132848691D01*
X142613864Y-132848702D01*
X142594700Y-133079993D01*
X142594700Y-133080006D01*
X142613864Y-133311297D01*
X142613866Y-133311308D01*
X142670842Y-133536300D01*
X142764075Y-133748848D01*
X142891016Y-133943147D01*
X142891019Y-133943151D01*
X142891021Y-133943153D01*
X143048216Y-134113913D01*
X143048219Y-134113915D01*
X143048222Y-134113918D01*
X143231365Y-134256464D01*
X143231371Y-134256468D01*
X143231374Y-134256470D01*
X143426408Y-134362017D01*
X143475998Y-134411237D01*
X143491106Y-134479453D01*
X143466936Y-134545009D01*
X143455071Y-134558753D01*
X139422523Y-138591301D01*
X139361200Y-138624786D01*
X139314433Y-138625929D01*
X139156049Y-138599500D01*
X138923951Y-138599500D01*
X138878164Y-138607140D01*
X138695015Y-138637702D01*
X138475504Y-138713061D01*
X138475495Y-138713064D01*
X138271371Y-138823531D01*
X138271365Y-138823535D01*
X138088222Y-138966081D01*
X138088219Y-138966084D01*
X138088216Y-138966086D01*
X138088216Y-138966087D01*
X138057040Y-138999953D01*
X137931016Y-139136852D01*
X137873809Y-139224416D01*
X137820662Y-139269773D01*
X137751431Y-139279197D01*
X137688095Y-139249695D01*
X137666191Y-139224416D01*
X137608983Y-139136852D01*
X137608980Y-139136849D01*
X137608979Y-139136847D01*
X137451784Y-138966087D01*
X137451779Y-138966083D01*
X137451777Y-138966081D01*
X137268634Y-138823535D01*
X137268628Y-138823531D01*
X137064504Y-138713064D01*
X137064495Y-138713061D01*
X136844984Y-138637702D01*
X136673282Y-138609050D01*
X136616049Y-138599500D01*
X136383951Y-138599500D01*
X136338164Y-138607140D01*
X136155015Y-138637702D01*
X135935504Y-138713061D01*
X135935495Y-138713064D01*
X135731371Y-138823531D01*
X135731365Y-138823535D01*
X135548222Y-138966081D01*
X135548219Y-138966084D01*
X135548216Y-138966086D01*
X135548216Y-138966087D01*
X135517040Y-138999953D01*
X135391016Y-139136852D01*
X135333809Y-139224416D01*
X135280662Y-139269773D01*
X135211431Y-139279197D01*
X135148095Y-139249695D01*
X135126191Y-139224416D01*
X135068983Y-139136852D01*
X135068980Y-139136849D01*
X135068979Y-139136847D01*
X134911784Y-138966087D01*
X134911779Y-138966083D01*
X134911777Y-138966081D01*
X134728634Y-138823535D01*
X134728628Y-138823531D01*
X134524504Y-138713064D01*
X134524495Y-138713061D01*
X134304984Y-138637702D01*
X134133282Y-138609050D01*
X134076049Y-138599500D01*
X133843951Y-138599500D01*
X133798164Y-138607140D01*
X133615015Y-138637702D01*
X133395504Y-138713061D01*
X133395495Y-138713064D01*
X133191371Y-138823531D01*
X133191365Y-138823535D01*
X133008222Y-138966081D01*
X133008219Y-138966084D01*
X133008216Y-138966086D01*
X133008216Y-138966087D01*
X132890524Y-139093936D01*
X132851015Y-139136854D01*
X132793509Y-139224874D01*
X132740363Y-139270230D01*
X132671132Y-139279654D01*
X132607796Y-139250152D01*
X132585892Y-139224874D01*
X132571186Y-139202365D01*
X131817953Y-139955598D01*
X131805165Y-139874852D01*
X131747641Y-139761955D01*
X131658045Y-139672359D01*
X131545148Y-139614835D01*
X131464400Y-139602046D01*
X132218797Y-138847647D01*
X132218797Y-138847645D01*
X132188360Y-138823955D01*
X132188354Y-138823951D01*
X131984302Y-138713523D01*
X131984293Y-138713520D01*
X131764860Y-138638188D01*
X131536007Y-138600000D01*
X131303993Y-138600000D01*
X131075139Y-138638188D01*
X130855706Y-138713520D01*
X130855697Y-138713523D01*
X130651650Y-138823949D01*
X130621200Y-138847647D01*
X131375600Y-139602046D01*
X131294852Y-139614835D01*
X131181955Y-139672359D01*
X131092359Y-139761955D01*
X131034835Y-139874852D01*
X131022046Y-139955600D01*
X130268811Y-139202365D01*
X130184516Y-139331390D01*
X130091317Y-139543864D01*
X130034361Y-139768781D01*
X130015202Y-139999994D01*
X130015202Y-140000006D01*
X130029206Y-140169013D01*
X130015125Y-140237449D01*
X129966280Y-140287408D01*
X129905401Y-140303253D01*
X127015085Y-140297915D01*
X126948082Y-140278106D01*
X126902425Y-140225218D01*
X126891738Y-140163675D01*
X126905300Y-140000005D01*
X126905300Y-139999993D01*
X126886135Y-139768702D01*
X126886133Y-139768691D01*
X126829157Y-139543699D01*
X126735924Y-139331151D01*
X126608983Y-139136852D01*
X126608980Y-139136849D01*
X126608979Y-139136847D01*
X126451784Y-138966087D01*
X126451779Y-138966083D01*
X126451777Y-138966081D01*
X126268634Y-138823535D01*
X126268628Y-138823531D01*
X126064504Y-138713064D01*
X126064495Y-138713061D01*
X125844984Y-138637702D01*
X125673282Y-138609050D01*
X125616049Y-138599500D01*
X125383951Y-138599500D01*
X125338164Y-138607140D01*
X125155015Y-138637702D01*
X124935504Y-138713061D01*
X124935495Y-138713064D01*
X124731371Y-138823531D01*
X124731365Y-138823535D01*
X124548222Y-138966081D01*
X124548219Y-138966084D01*
X124548216Y-138966086D01*
X124548216Y-138966087D01*
X124517040Y-138999953D01*
X124391016Y-139136852D01*
X124333809Y-139224416D01*
X124280662Y-139269773D01*
X124211431Y-139279197D01*
X124148095Y-139249695D01*
X124126191Y-139224416D01*
X124068983Y-139136852D01*
X124068980Y-139136849D01*
X124068979Y-139136847D01*
X123911784Y-138966087D01*
X123911779Y-138966083D01*
X123911777Y-138966081D01*
X123728634Y-138823535D01*
X123728628Y-138823531D01*
X123565124Y-138735047D01*
X123515534Y-138685827D01*
X123500426Y-138617611D01*
X123524596Y-138552055D01*
X123536454Y-138538318D01*
X132181155Y-129893619D01*
X132242478Y-129860134D01*
X132268836Y-129857300D01*
X142580902Y-129857300D01*
X142647941Y-129876985D01*
G37*
%TD.AperFunction*%
%TA.AperFunction,Conductor*%
G36*
X122085679Y-99691929D02*
G01*
X122100173Y-99704347D01*
X122769182Y-100373356D01*
X122778448Y-100383724D01*
X122800492Y-100411366D01*
X122850395Y-100454966D01*
X122856491Y-100460665D01*
X122863471Y-100467645D01*
X122894771Y-100493776D01*
X122896859Y-100495560D01*
X122927878Y-100522661D01*
X122970004Y-100559465D01*
X122973753Y-100561705D01*
X122989622Y-100572964D01*
X122992980Y-100575767D01*
X122992979Y-100575767D01*
X122992980Y-100575768D01*
X122992982Y-100575769D01*
X123077445Y-100623694D01*
X123079849Y-100625094D01*
X123133433Y-100657108D01*
X123163236Y-100674915D01*
X123167322Y-100676448D01*
X123184956Y-100684697D01*
X123188756Y-100686854D01*
X123188759Y-100686855D01*
X123188761Y-100686856D01*
X123228899Y-100700900D01*
X123280472Y-100718946D01*
X123283066Y-100719887D01*
X123373969Y-100754005D01*
X123373972Y-100754005D01*
X123373976Y-100754007D01*
X123378266Y-100754785D01*
X123397094Y-100759755D01*
X123401218Y-100761198D01*
X123497279Y-100776412D01*
X123499827Y-100776845D01*
X123578022Y-100791036D01*
X123595452Y-100794200D01*
X123595453Y-100794200D01*
X123599822Y-100794200D01*
X123619220Y-100795726D01*
X123623541Y-100796411D01*
X123720667Y-100794230D01*
X123723449Y-100794200D01*
X127017464Y-100794200D01*
X127084503Y-100813885D01*
X127105145Y-100830519D01*
X129324051Y-103049425D01*
X129357536Y-103110748D01*
X129352552Y-103180440D01*
X129310680Y-103236373D01*
X129295388Y-103246160D01*
X129151656Y-103323944D01*
X129151652Y-103323947D01*
X129121200Y-103347647D01*
X129875599Y-104102046D01*
X129794852Y-104114835D01*
X129681955Y-104172359D01*
X129592359Y-104261955D01*
X129534835Y-104374852D01*
X129522046Y-104455600D01*
X128768811Y-103702365D01*
X128684516Y-103831390D01*
X128591317Y-104043864D01*
X128534361Y-104268781D01*
X128515202Y-104499994D01*
X128515202Y-104500005D01*
X128534361Y-104731218D01*
X128591317Y-104956135D01*
X128684515Y-105168606D01*
X128768812Y-105297633D01*
X129522046Y-104544399D01*
X129534835Y-104625148D01*
X129592359Y-104738045D01*
X129681955Y-104827641D01*
X129794852Y-104885165D01*
X129875599Y-104897953D01*
X129121201Y-105652351D01*
X129151649Y-105676050D01*
X129355697Y-105786476D01*
X129355706Y-105786479D01*
X129575139Y-105861811D01*
X129803993Y-105900000D01*
X130036007Y-105900000D01*
X130264860Y-105861811D01*
X130484293Y-105786479D01*
X130484301Y-105786476D01*
X130688355Y-105676047D01*
X130718797Y-105652351D01*
X130718798Y-105652350D01*
X129964401Y-104897953D01*
X130045148Y-104885165D01*
X130158045Y-104827641D01*
X130247641Y-104738045D01*
X130305165Y-104625148D01*
X130317953Y-104544400D01*
X131071185Y-105297632D01*
X131085891Y-105275125D01*
X131139037Y-105229768D01*
X131208268Y-105220344D01*
X131271604Y-105249846D01*
X131293508Y-105275123D01*
X131351021Y-105363153D01*
X131508216Y-105533913D01*
X131508219Y-105533915D01*
X131508222Y-105533918D01*
X131691365Y-105676464D01*
X131691375Y-105676471D01*
X131758770Y-105712943D01*
X131808481Y-105739845D01*
X131837144Y-105761218D01*
X133624186Y-107548261D01*
X133633452Y-107558629D01*
X133655492Y-107586266D01*
X133705387Y-107629859D01*
X133711483Y-107635558D01*
X133718470Y-107642545D01*
X133732888Y-107654582D01*
X133749790Y-107668693D01*
X133751904Y-107670499D01*
X133825004Y-107734365D01*
X133828766Y-107736613D01*
X133844622Y-107747864D01*
X133847981Y-107750668D01*
X133932126Y-107798413D01*
X133932450Y-107798597D01*
X133934854Y-107799997D01*
X134018232Y-107849813D01*
X134018233Y-107849813D01*
X134018236Y-107849815D01*
X134022327Y-107851350D01*
X134039955Y-107859596D01*
X134043755Y-107861753D01*
X134135496Y-107893854D01*
X134137998Y-107894761D01*
X134228976Y-107928907D01*
X134231565Y-107929376D01*
X134233274Y-107929687D01*
X134252089Y-107934653D01*
X134256217Y-107936098D01*
X134352237Y-107951305D01*
X134354832Y-107951746D01*
X134426432Y-107964740D01*
X134450452Y-107969100D01*
X134450453Y-107969100D01*
X134454828Y-107969100D01*
X134474231Y-107970628D01*
X134475938Y-107970897D01*
X134478540Y-107971310D01*
X134575621Y-107969131D01*
X134578404Y-107969100D01*
X135852664Y-107969100D01*
X135919703Y-107988785D01*
X135940345Y-108005419D01*
X136075646Y-108140720D01*
X136109131Y-108202043D01*
X136104147Y-108271735D01*
X136062275Y-108327668D01*
X136053937Y-108333395D01*
X135939895Y-108405051D01*
X135773754Y-108556911D01*
X135637389Y-108736009D01*
X135535201Y-108936563D01*
X135470463Y-109152150D01*
X135445262Y-109375820D01*
X135445261Y-109375831D01*
X135460403Y-109600407D01*
X135460403Y-109600412D01*
X135515402Y-109818678D01*
X135515403Y-109818681D01*
X135608491Y-110023622D01*
X135608497Y-110023632D01*
X135736680Y-110208654D01*
X144593481Y-119065455D01*
X144626966Y-119126778D01*
X144629800Y-119153136D01*
X144629800Y-124021807D01*
X144610115Y-124088846D01*
X144557311Y-124134601D01*
X144488153Y-124144545D01*
X144465537Y-124139088D01*
X144344984Y-124097702D01*
X144173282Y-124069050D01*
X144116049Y-124059500D01*
X143883951Y-124059500D01*
X143838164Y-124067140D01*
X143655015Y-124097702D01*
X143435504Y-124173061D01*
X143435495Y-124173064D01*
X143231371Y-124283531D01*
X143231365Y-124283535D01*
X143048222Y-124426081D01*
X143048219Y-124426084D01*
X143048216Y-124426086D01*
X143048216Y-124426087D01*
X142998126Y-124480500D01*
X142891016Y-124596852D01*
X142764075Y-124791151D01*
X142670842Y-125003699D01*
X142613866Y-125228691D01*
X142613864Y-125228702D01*
X142594700Y-125459993D01*
X142594700Y-125460006D01*
X142613864Y-125691297D01*
X142613866Y-125691308D01*
X142670842Y-125916300D01*
X142764075Y-126128848D01*
X142891016Y-126323147D01*
X142891019Y-126323151D01*
X142891021Y-126323153D01*
X143048216Y-126493913D01*
X143048219Y-126493915D01*
X143048222Y-126493918D01*
X143225818Y-126632147D01*
X143266631Y-126688857D01*
X143270306Y-126758630D01*
X143235674Y-126819313D01*
X143225818Y-126827853D01*
X143048222Y-126966081D01*
X143048219Y-126966084D01*
X142891016Y-127136852D01*
X142784349Y-127300121D01*
X142731203Y-127345478D01*
X142680540Y-127356300D01*
X138461227Y-127356300D01*
X138394188Y-127336615D01*
X138348433Y-127283811D01*
X138338489Y-127214653D01*
X138339220Y-127210158D01*
X138375100Y-127012449D01*
X138375100Y-121607975D01*
X138375880Y-121594090D01*
X138378153Y-121573915D01*
X138379837Y-121558972D01*
X138379741Y-121557552D01*
X138375381Y-121492875D01*
X138375100Y-121484534D01*
X138375100Y-121474650D01*
X138375100Y-121474645D01*
X138371443Y-121434015D01*
X138371226Y-121431252D01*
X138368667Y-121393287D01*
X138364696Y-121334387D01*
X138363627Y-121330147D01*
X138360368Y-121310958D01*
X138360326Y-121310499D01*
X138359977Y-121306612D01*
X138334132Y-121212968D01*
X138333440Y-121210348D01*
X138309696Y-121116116D01*
X138307890Y-121112140D01*
X138301254Y-121093839D01*
X138300869Y-121092443D01*
X138300093Y-121089630D01*
X138257940Y-121002099D01*
X138256789Y-120999639D01*
X138216607Y-120911174D01*
X138214117Y-120907580D01*
X138204325Y-120890764D01*
X138202430Y-120886829D01*
X138202427Y-120886824D01*
X138145340Y-120808250D01*
X138143762Y-120806028D01*
X138088420Y-120726146D01*
X138085329Y-120723055D01*
X138072693Y-120708261D01*
X138070121Y-120704721D01*
X138070118Y-120704718D01*
X137999899Y-120637581D01*
X137997910Y-120635636D01*
X134785633Y-117423359D01*
X134759758Y-117385487D01*
X134735925Y-117331152D01*
X134608983Y-117136852D01*
X134608980Y-117136849D01*
X134608979Y-117136847D01*
X134451784Y-116966087D01*
X134451779Y-116966083D01*
X134451777Y-116966081D01*
X134268634Y-116823535D01*
X134268628Y-116823531D01*
X134064504Y-116713064D01*
X134064495Y-116713061D01*
X133844984Y-116637702D01*
X133673282Y-116609050D01*
X133616049Y-116599500D01*
X133383951Y-116599500D01*
X133338164Y-116607140D01*
X133155015Y-116637702D01*
X132935504Y-116713061D01*
X132935495Y-116713064D01*
X132731371Y-116823531D01*
X132731365Y-116823535D01*
X132548222Y-116966081D01*
X132548219Y-116966084D01*
X132391016Y-117136852D01*
X132264075Y-117331151D01*
X132170842Y-117543699D01*
X132113866Y-117768691D01*
X132113864Y-117768702D01*
X132094700Y-117999993D01*
X132094700Y-118000006D01*
X132113864Y-118231297D01*
X132113866Y-118231308D01*
X132170842Y-118456300D01*
X132264075Y-118668848D01*
X132391016Y-118863147D01*
X132391019Y-118863151D01*
X132391021Y-118863153D01*
X132548216Y-119033913D01*
X132548219Y-119033915D01*
X132548222Y-119033918D01*
X132725818Y-119172147D01*
X132766631Y-119228857D01*
X132770306Y-119298630D01*
X132735674Y-119359313D01*
X132725818Y-119367853D01*
X132548222Y-119506081D01*
X132548219Y-119506084D01*
X132391016Y-119676852D01*
X132264075Y-119871151D01*
X132170842Y-120083699D01*
X132113866Y-120308691D01*
X132113864Y-120308702D01*
X132094700Y-120539993D01*
X132094700Y-120540006D01*
X132113864Y-120771297D01*
X132113866Y-120771308D01*
X132170842Y-120996300D01*
X132264075Y-121208848D01*
X132391016Y-121403147D01*
X132391019Y-121403151D01*
X132391021Y-121403153D01*
X132548216Y-121573913D01*
X132548219Y-121573915D01*
X132548222Y-121573918D01*
X132725818Y-121712147D01*
X132766631Y-121768857D01*
X132770306Y-121838630D01*
X132735674Y-121899313D01*
X132725818Y-121907853D01*
X132548222Y-122046081D01*
X132548219Y-122046084D01*
X132548216Y-122046086D01*
X132548216Y-122046087D01*
X132522725Y-122073778D01*
X132391016Y-122216852D01*
X132264075Y-122411151D01*
X132170842Y-122623699D01*
X132113866Y-122848691D01*
X132113864Y-122848702D01*
X132094700Y-123079993D01*
X132094700Y-123080006D01*
X132113864Y-123311297D01*
X132113866Y-123311308D01*
X132170842Y-123536300D01*
X132264075Y-123748848D01*
X132391016Y-123943147D01*
X132391019Y-123943151D01*
X132391021Y-123943153D01*
X132548216Y-124113913D01*
X132726225Y-124252462D01*
X132767038Y-124309173D01*
X132770713Y-124378946D01*
X132736082Y-124439629D01*
X132726225Y-124448170D01*
X132701201Y-124467646D01*
X132701200Y-124467647D01*
X133455600Y-125222046D01*
X133374852Y-125234835D01*
X133261955Y-125292359D01*
X133172359Y-125381955D01*
X133114835Y-125494852D01*
X133102046Y-125575600D01*
X132348811Y-124822365D01*
X132264516Y-124951390D01*
X132171317Y-125163864D01*
X132114361Y-125388781D01*
X132095202Y-125619994D01*
X132095202Y-125620005D01*
X132114361Y-125851218D01*
X132171317Y-126076135D01*
X132264515Y-126288606D01*
X132348812Y-126417633D01*
X133102046Y-125664399D01*
X133114835Y-125745148D01*
X133172359Y-125858045D01*
X133261955Y-125947641D01*
X133374852Y-126005165D01*
X133455599Y-126017953D01*
X132701201Y-126772351D01*
X132731649Y-126796050D01*
X132935697Y-126906476D01*
X132935706Y-126906479D01*
X133155139Y-126981811D01*
X133383993Y-127020000D01*
X133616007Y-127020000D01*
X133844860Y-126981811D01*
X134064293Y-126906479D01*
X134064301Y-126906476D01*
X134268355Y-126796047D01*
X134298797Y-126772351D01*
X134298798Y-126772350D01*
X133544401Y-126017953D01*
X133625148Y-126005165D01*
X133738045Y-125947641D01*
X133827641Y-125858045D01*
X133885165Y-125745148D01*
X133897953Y-125664400D01*
X134651186Y-126417633D01*
X134735482Y-126288611D01*
X134828682Y-126076135D01*
X134885638Y-125851218D01*
X134904798Y-125620005D01*
X134904798Y-125619994D01*
X134885638Y-125388781D01*
X134828682Y-125163864D01*
X134735484Y-124951393D01*
X134651186Y-124822365D01*
X133897953Y-125575598D01*
X133885165Y-125494852D01*
X133827641Y-125381955D01*
X133738045Y-125292359D01*
X133625148Y-125234835D01*
X133544400Y-125222046D01*
X134298797Y-124467647D01*
X134298797Y-124467646D01*
X134273773Y-124448169D01*
X134232961Y-124391459D01*
X134229286Y-124321686D01*
X134263918Y-124261003D01*
X134273760Y-124252473D01*
X134451784Y-124113913D01*
X134608979Y-123943153D01*
X134735924Y-123748849D01*
X134829157Y-123536300D01*
X134886134Y-123311305D01*
X134892763Y-123231305D01*
X134905300Y-123080006D01*
X134905300Y-123079993D01*
X134886135Y-122848702D01*
X134886133Y-122848691D01*
X134829157Y-122623699D01*
X134735924Y-122411151D01*
X134608983Y-122216852D01*
X134608980Y-122216849D01*
X134608979Y-122216847D01*
X134451784Y-122046087D01*
X134274180Y-121907853D01*
X134233368Y-121851143D01*
X134229693Y-121781370D01*
X134264324Y-121720687D01*
X134274181Y-121712146D01*
X134287840Y-121701515D01*
X134451784Y-121573913D01*
X134608979Y-121403153D01*
X134735924Y-121208849D01*
X134753956Y-121167737D01*
X134798910Y-121114254D01*
X134865645Y-121093562D01*
X134932974Y-121112235D01*
X134955193Y-121129867D01*
X135837781Y-122012455D01*
X135871266Y-122073778D01*
X135874100Y-122100136D01*
X135874100Y-126956055D01*
X135875003Y-126966084D01*
X135889222Y-127124086D01*
X135889223Y-127124092D01*
X135909983Y-127199311D01*
X135908843Y-127269171D01*
X135870115Y-127327325D01*
X135806094Y-127355309D01*
X135790452Y-127356300D01*
X131776686Y-127356300D01*
X131762802Y-127355520D01*
X131727677Y-127351562D01*
X131727669Y-127351561D01*
X131661567Y-127356019D01*
X131653225Y-127356300D01*
X131643338Y-127356300D01*
X131602751Y-127359952D01*
X131599982Y-127360170D01*
X131503090Y-127366703D01*
X131498849Y-127367772D01*
X131479676Y-127371030D01*
X131475308Y-127371423D01*
X131381685Y-127397262D01*
X131378995Y-127397972D01*
X131284819Y-127421702D01*
X131280822Y-127423518D01*
X131262559Y-127430139D01*
X131258331Y-127431306D01*
X131170816Y-127473449D01*
X131168300Y-127474626D01*
X131079876Y-127514791D01*
X131079871Y-127514794D01*
X131076275Y-127517286D01*
X131059471Y-127527071D01*
X131055531Y-127528968D01*
X131055529Y-127528969D01*
X130976960Y-127586051D01*
X130974695Y-127587658D01*
X130894845Y-127642980D01*
X130891739Y-127646086D01*
X130876965Y-127658703D01*
X130873428Y-127661273D01*
X130873421Y-127661278D01*
X130806304Y-127731477D01*
X130804359Y-127733465D01*
X119801286Y-138736538D01*
X119772624Y-138757911D01*
X119651376Y-138823528D01*
X119651365Y-138823535D01*
X119468222Y-138966081D01*
X119468219Y-138966084D01*
X119468216Y-138966086D01*
X119468216Y-138966087D01*
X119350524Y-139093936D01*
X119311015Y-139136854D01*
X119253509Y-139224874D01*
X119200363Y-139270230D01*
X119131132Y-139279654D01*
X119067796Y-139250152D01*
X119045892Y-139224874D01*
X119031186Y-139202365D01*
X118277953Y-139955598D01*
X118265165Y-139874852D01*
X118207641Y-139761955D01*
X118118045Y-139672359D01*
X118005148Y-139614835D01*
X117924400Y-139602046D01*
X118678797Y-138847647D01*
X118678797Y-138847645D01*
X118648360Y-138823955D01*
X118648354Y-138823951D01*
X118444302Y-138713523D01*
X118444293Y-138713520D01*
X118224860Y-138638188D01*
X117996007Y-138600000D01*
X117763993Y-138600000D01*
X117535139Y-138638188D01*
X117315706Y-138713520D01*
X117315697Y-138713523D01*
X117111650Y-138823949D01*
X117081200Y-138847647D01*
X117835600Y-139602046D01*
X117754852Y-139614835D01*
X117641955Y-139672359D01*
X117552359Y-139761955D01*
X117494835Y-139874852D01*
X117482046Y-139955600D01*
X116728811Y-139202365D01*
X116644516Y-139331390D01*
X116551317Y-139543864D01*
X116494361Y-139768781D01*
X116475202Y-139999994D01*
X116475202Y-140000005D01*
X116487134Y-140144004D01*
X116473053Y-140212440D01*
X116424208Y-140262399D01*
X116363329Y-140278244D01*
X114097062Y-140274059D01*
X114030059Y-140254250D01*
X113984402Y-140201362D01*
X113973715Y-140139819D01*
X113985300Y-140000006D01*
X113985300Y-139999993D01*
X113966135Y-139768702D01*
X113966133Y-139768691D01*
X113909157Y-139543699D01*
X113815924Y-139331151D01*
X113688983Y-139136852D01*
X113688980Y-139136849D01*
X113688979Y-139136847D01*
X113531784Y-138966087D01*
X113531779Y-138966083D01*
X113531777Y-138966081D01*
X113348634Y-138823535D01*
X113348628Y-138823531D01*
X113144504Y-138713064D01*
X113144495Y-138713061D01*
X112924984Y-138637702D01*
X112753282Y-138609050D01*
X112696049Y-138599500D01*
X112463951Y-138599500D01*
X112418164Y-138607140D01*
X112235015Y-138637702D01*
X112015504Y-138713061D01*
X112015495Y-138713064D01*
X111811371Y-138823531D01*
X111811365Y-138823535D01*
X111628222Y-138966081D01*
X111628219Y-138966084D01*
X111628216Y-138966086D01*
X111628216Y-138966087D01*
X111597040Y-138999953D01*
X111471016Y-139136852D01*
X111413809Y-139224416D01*
X111360662Y-139269773D01*
X111291431Y-139279197D01*
X111228095Y-139249695D01*
X111206191Y-139224416D01*
X111148983Y-139136852D01*
X111148980Y-139136849D01*
X111148979Y-139136847D01*
X110991784Y-138966087D01*
X110991779Y-138966083D01*
X110991777Y-138966081D01*
X110808634Y-138823535D01*
X110808628Y-138823531D01*
X110604504Y-138713064D01*
X110604495Y-138713061D01*
X110384984Y-138637702D01*
X110213282Y-138609050D01*
X110156049Y-138599500D01*
X109923951Y-138599500D01*
X109878164Y-138607140D01*
X109695015Y-138637702D01*
X109475504Y-138713061D01*
X109475495Y-138713064D01*
X109271371Y-138823531D01*
X109271365Y-138823535D01*
X109088222Y-138966081D01*
X109088219Y-138966084D01*
X109088216Y-138966086D01*
X109088216Y-138966087D01*
X109004040Y-139057527D01*
X108965730Y-139099143D01*
X108905843Y-139135133D01*
X108836005Y-139133033D01*
X108778389Y-139093509D01*
X108751287Y-139029110D01*
X108750500Y-139015160D01*
X108750500Y-113569335D01*
X108770185Y-113502296D01*
X108786814Y-113481659D01*
X120917882Y-101350590D01*
X120965294Y-101320993D01*
X121064503Y-101286936D01*
X121268626Y-101176470D01*
X121451784Y-101033913D01*
X121608979Y-100863153D01*
X121735924Y-100668849D01*
X121829157Y-100456300D01*
X121886134Y-100231305D01*
X121905300Y-100000000D01*
X121899067Y-99924782D01*
X121888916Y-99802268D01*
X121902997Y-99733832D01*
X121951842Y-99683873D01*
X122019943Y-99668252D01*
X122085679Y-99691929D01*
G37*
%TD.AperFunction*%
%TD*%
M02*
