%TF.GenerationSoftware,KiCad,Pcbnew,7.0.11+dfsg-1build4*%
%TF.CreationDate,2024-10-08T05:26:51+02:00*%
%TF.ProjectId,BertheVarioTac-Shema,42657274-6865-4566-9172-696f5461632d,rev?*%
%TF.SameCoordinates,Original*%
%TF.FileFunction,Copper,L1,Top*%
%TF.FilePolarity,Positive*%
%FSLAX46Y46*%
G04 Gerber Fmt 4.6, Leading zero omitted, Abs format (unit mm)*
G04 Created by KiCad (PCBNEW 7.0.11+dfsg-1build4) date 2024-10-08 05:26:51*
%MOMM*%
%LPD*%
G01*
G04 APERTURE LIST*
%TA.AperFunction,ComponentPad*%
%ADD10C,1.800000*%
%TD*%
%TA.AperFunction,ComponentPad*%
%ADD11C,1.600000*%
%TD*%
%TA.AperFunction,ComponentPad*%
%ADD12O,1.600000X1.600000*%
%TD*%
%TA.AperFunction,ViaPad*%
%ADD13C,0.600000*%
%TD*%
%TA.AperFunction,Conductor*%
%ADD14C,1.500000*%
%TD*%
G04 APERTURE END LIST*
D10*
%TO.P,SW1,1*%
%TO.N,Net-(Lipo-1S-to-5V1-IN_3.7v)*%
X167000000Y-132540000D03*
%TO.P,SW1,2*%
%TO.N,Net-(BT1-+)*%
X167000000Y-130000000D03*
%TD*%
%TO.P,Usb-C-charger1,1,B-*%
%TO.N,GNDREF*%
X168000000Y-104000000D03*
%TO.P,Usb-C-charger1,2,+*%
%TO.N,Net-(BT1-+)*%
X168000000Y-113000000D03*
%TD*%
D11*
%TO.P,R1,1*%
%TO.N,Net-(R1-Pad1)*%
X101840000Y-139000000D03*
D12*
%TO.P,R1,2*%
%TO.N,Net-(P4-Pin_1)*%
X112000000Y-139000000D03*
%TD*%
D10*
%TO.P,CN1,1,Pin_1*%
%TO.N,Net-(BMP180_Press1-VIN)*%
X153000000Y-140000000D03*
%TO.P,CN1,2,Pin_2*%
%TO.N,Net-(BMP180_Press1-SDA)*%
X150460000Y-140000000D03*
%TO.P,CN1,3,Pin_3*%
%TO.N,Net-(BMP180_Press1-SCL)*%
X147920000Y-140000000D03*
%TO.P,CN1,4,Pin_4*%
%TO.N,GNDREF*%
X145380000Y-140000000D03*
%TD*%
%TO.P,S1,1,1*%
%TO.N,Net-(P4-Pin_2)*%
X119000000Y-140000000D03*
%TO.P,S1,2,2*%
%TO.N,Net-(R1-Pad1)*%
X116460000Y-140000000D03*
%TD*%
%TO.P,P4,1,Pin_1*%
%TO.N,Net-(P4-Pin_1)*%
X127000000Y-140000000D03*
%TO.P,P4,2,Pin_2*%
%TO.N,Net-(P4-Pin_2)*%
X124460000Y-140000000D03*
%TD*%
%TO.P,GPS-NEO6M1,1,GND*%
%TO.N,GNDREF*%
X129964000Y-125810000D03*
%TO.P,GPS-NEO6M1,2,TX*%
%TO.N,Net-(GPS-NEO6M1-TX)*%
X129964000Y-123270000D03*
%TO.P,GPS-NEO6M1,3,RX*%
%TO.N,unconnected-(GPS-NEO6M1-RX-Pad3)*%
X129964000Y-120730000D03*
%TO.P,GPS-NEO6M1,4,VCC*%
%TO.N,Net-(BMP180_Press1-VIN)*%
X129964000Y-118190000D03*
%TD*%
%TO.P,Lipo-1S-to-5V1,1,OUT_5V*%
%TO.N,Net-(Lipo-1S-to-5V1-OUT_5V)*%
X135460000Y-106500000D03*
%TO.P,Lipo-1S-to-5V1,2,IN_3.7v*%
%TO.N,Net-(Lipo-1S-to-5V1-IN_3.7v)*%
X138000000Y-106500000D03*
%TO.P,Lipo-1S-to-5V1,3,GND*%
%TO.N,GNDREF*%
X140540000Y-106500000D03*
%TD*%
%TO.P,BT1,1,+*%
%TO.N,Net-(BT1-+)*%
X172000000Y-130000000D03*
%TO.P,BT1,2,-*%
%TO.N,GNDREF*%
X172000000Y-132540000D03*
%TD*%
%TO.P,QMC5883_Mag1,1,VCC*%
%TO.N,Net-(BMP180_Press1-VIN)*%
X94000000Y-132160000D03*
%TO.P,QMC5883_Mag1,2,GND*%
%TO.N,GNDREF*%
X94000000Y-129620000D03*
%TO.P,QMC5883_Mag1,3,SCL*%
%TO.N,Net-(BMP180_Press1-SCL)*%
X94000000Y-127080000D03*
%TO.P,QMC5883_Mag1,4,SDA*%
%TO.N,Net-(BMP180_Press1-SDA)*%
X94000000Y-124540000D03*
%TO.P,QMC5883_Mag1,5*%
%TO.N,N/C*%
X94000000Y-122000000D03*
%TD*%
%TO.P,P1,1,Pin_1*%
%TO.N,Net-(Lipo-1S-to-5V1-OUT_5V)*%
X166540000Y-140000000D03*
%TO.P,P1,2,Pin_2*%
%TO.N,Net-(GPS-NEO6M1-TX)*%
X164000000Y-140000000D03*
%TO.P,P1,3,Pin_3*%
%TO.N,unconnected-(P1-Pin_3-Pad3)*%
X161460000Y-140000000D03*
%TO.P,P1,4,Pin_4*%
%TO.N,GNDREF*%
X158920000Y-140000000D03*
%TD*%
%TO.P,P5,1,1*%
%TO.N,Net-(Lipo-1S-to-5V1-IN_3.7v)*%
X112000000Y-99000000D03*
%TO.P,P5,2,2*%
%TO.N,Net-(P3-Pin_3)*%
X114500000Y-103000000D03*
%TO.P,P5,3,3*%
%TO.N,GNDREF*%
X117000000Y-99000000D03*
%TD*%
%TO.P,BMP180_Press1,1,SDA*%
%TO.N,Net-(BMP180_Press1-SDA)*%
X146000000Y-116000000D03*
%TO.P,BMP180_Press1,2,SCL*%
%TO.N,Net-(BMP180_Press1-SCL)*%
X146000000Y-118540000D03*
%TO.P,BMP180_Press1,3,GND*%
%TO.N,GNDREF*%
X146000000Y-121080000D03*
%TO.P,BMP180_Press1,4,VIN*%
%TO.N,Net-(BMP180_Press1-VIN)*%
X146000000Y-123620000D03*
%TD*%
%TO.P,P3,1,Pin_1*%
%TO.N,unconnected-(P3-Pin_1-Pad1)*%
X140080000Y-140000000D03*
%TO.P,P3,2,Pin_2*%
%TO.N,unconnected-(P3-Pin_2-Pad2)*%
X137540000Y-140000000D03*
%TO.P,P3,3,Pin_3*%
%TO.N,Net-(P3-Pin_3)*%
X135000000Y-140000000D03*
%TO.P,P3,4,Pin_4*%
%TO.N,unconnected-(P3-Pin_4-Pad4)*%
X132460000Y-140000000D03*
%TD*%
D13*
%TO.N,Net-(GPS-NEO6M1-TX)*%
X151800000Y-132305500D03*
%TD*%
D14*
%TO.N,Net-(Lipo-1S-to-5V1-IN_3.7v)*%
X138000000Y-106412700D02*
X138000000Y-106500000D01*
X132511800Y-100924500D02*
X138000000Y-106412700D01*
X113924500Y-100924500D02*
X132511800Y-100924500D01*
X112000000Y-99000000D02*
X113924500Y-100924500D01*
%TO.N,Net-(BMP180_Press1-SCL)*%
X147920000Y-139917000D02*
X147920000Y-140000000D01*
X142698500Y-134695500D02*
X147920000Y-139917000D01*
X133762600Y-134695500D02*
X142698500Y-134695500D01*
X126147100Y-127080000D02*
X133762600Y-134695500D01*
X94000000Y-127080000D02*
X126147100Y-127080000D01*
%TO.N,Net-(BMP180_Press1-SDA)*%
X125624400Y-116000000D02*
X146000000Y-116000000D01*
X117084400Y-124540000D02*
X125624400Y-116000000D01*
X94000000Y-124540000D02*
X117084400Y-124540000D01*
%TO.N,Net-(BMP180_Press1-VIN)*%
X137096500Y-118190000D02*
X129964000Y-118190000D01*
X142526500Y-123620000D02*
X137096500Y-118190000D01*
X146000000Y-123620000D02*
X142526500Y-123620000D01*
X153501900Y-131121900D02*
X146000000Y-123620000D01*
X153501900Y-139498100D02*
X153501900Y-131121900D01*
X153000000Y-140000000D02*
X153501900Y-139498100D01*
%TO.N,Net-(P4-Pin_2)*%
X124460000Y-140000000D02*
X119000000Y-140000000D01*
%TO.N,Net-(GPS-NEO6M1-TX)*%
X134253100Y-123270000D02*
X129964000Y-123270000D01*
X143288600Y-132305500D02*
X134253100Y-123270000D01*
X151800000Y-132305500D02*
X143288600Y-132305500D01*
%TO.N,Net-(BT1-+)*%
X168000000Y-113000000D02*
X168000000Y-128125000D01*
X167000000Y-129125000D02*
X168000000Y-128125000D01*
X167000000Y-130000000D02*
X167000000Y-129125000D01*
X170125000Y-128125000D02*
X172000000Y-130000000D01*
X168000000Y-128125000D02*
X170125000Y-128125000D01*
%TO.N,Net-(P4-Pin_1)*%
X127000000Y-139913100D02*
X127000000Y-140000000D01*
X125233300Y-138146400D02*
X127000000Y-139913100D01*
X115153600Y-138146400D02*
X125233300Y-138146400D01*
X114300000Y-139000000D02*
X115153600Y-138146400D01*
X112000000Y-139000000D02*
X114300000Y-139000000D01*
%TD*%
%TA.AperFunction,Conductor*%
%TO.N,GNDREF*%
G36*
X176260171Y-93615943D02*
G01*
X176327183Y-93635720D01*
X176372865Y-93688587D01*
X176384000Y-93739828D01*
X176427127Y-140302840D01*
X176407504Y-140369898D01*
X176354743Y-140415702D01*
X176302841Y-140426955D01*
X168040445Y-140407890D01*
X167973451Y-140388050D01*
X167927818Y-140335141D01*
X167918034Y-140265960D01*
X167920524Y-140253454D01*
X167926134Y-140231305D01*
X167926141Y-140231220D01*
X167945300Y-140000006D01*
X167945300Y-139999993D01*
X167926135Y-139768702D01*
X167926133Y-139768691D01*
X167869157Y-139543699D01*
X167775924Y-139331151D01*
X167648983Y-139136852D01*
X167648980Y-139136849D01*
X167648979Y-139136847D01*
X167491784Y-138966087D01*
X167491779Y-138966083D01*
X167491777Y-138966081D01*
X167308634Y-138823535D01*
X167308628Y-138823531D01*
X167104504Y-138713064D01*
X167104495Y-138713061D01*
X166884984Y-138637702D01*
X166704428Y-138607573D01*
X166656049Y-138599500D01*
X166423951Y-138599500D01*
X166378164Y-138607140D01*
X166195015Y-138637702D01*
X165975504Y-138713061D01*
X165975495Y-138713064D01*
X165771371Y-138823531D01*
X165771365Y-138823535D01*
X165588222Y-138966081D01*
X165588219Y-138966084D01*
X165588216Y-138966086D01*
X165588216Y-138966087D01*
X165556999Y-138999998D01*
X165431016Y-139136852D01*
X165373809Y-139224416D01*
X165320662Y-139269773D01*
X165251431Y-139279197D01*
X165188095Y-139249695D01*
X165166191Y-139224416D01*
X165108983Y-139136852D01*
X165108980Y-139136849D01*
X165108979Y-139136847D01*
X164951784Y-138966087D01*
X164951779Y-138966083D01*
X164951777Y-138966081D01*
X164768634Y-138823535D01*
X164768628Y-138823531D01*
X164564504Y-138713064D01*
X164564495Y-138713061D01*
X164344984Y-138637702D01*
X164164428Y-138607573D01*
X164116049Y-138599500D01*
X163883951Y-138599500D01*
X163838164Y-138607140D01*
X163655015Y-138637702D01*
X163435504Y-138713061D01*
X163435495Y-138713064D01*
X163231371Y-138823531D01*
X163231365Y-138823535D01*
X163048222Y-138966081D01*
X163048219Y-138966084D01*
X163048216Y-138966086D01*
X163048216Y-138966087D01*
X163016999Y-138999998D01*
X162891016Y-139136852D01*
X162833809Y-139224416D01*
X162780662Y-139269773D01*
X162711431Y-139279197D01*
X162648095Y-139249695D01*
X162626191Y-139224416D01*
X162568983Y-139136852D01*
X162568980Y-139136849D01*
X162568979Y-139136847D01*
X162411784Y-138966087D01*
X162411779Y-138966083D01*
X162411777Y-138966081D01*
X162228634Y-138823535D01*
X162228628Y-138823531D01*
X162024504Y-138713064D01*
X162024495Y-138713061D01*
X161804984Y-138637702D01*
X161624428Y-138607573D01*
X161576049Y-138599500D01*
X161343951Y-138599500D01*
X161298164Y-138607140D01*
X161115015Y-138637702D01*
X160895504Y-138713061D01*
X160895495Y-138713064D01*
X160691371Y-138823531D01*
X160691365Y-138823535D01*
X160508222Y-138966081D01*
X160508219Y-138966084D01*
X160508216Y-138966086D01*
X160508216Y-138966087D01*
X160390524Y-139093936D01*
X160351015Y-139136854D01*
X160293509Y-139224874D01*
X160240363Y-139270230D01*
X160171132Y-139279654D01*
X160107796Y-139250152D01*
X160085892Y-139224874D01*
X160071186Y-139202365D01*
X159317953Y-139955598D01*
X159305165Y-139874852D01*
X159247641Y-139761955D01*
X159158045Y-139672359D01*
X159045148Y-139614835D01*
X158964400Y-139602046D01*
X159718797Y-138847647D01*
X159718797Y-138847645D01*
X159688360Y-138823955D01*
X159688354Y-138823951D01*
X159484302Y-138713523D01*
X159484293Y-138713520D01*
X159264860Y-138638188D01*
X159036007Y-138600000D01*
X158803993Y-138600000D01*
X158575139Y-138638188D01*
X158355706Y-138713520D01*
X158355697Y-138713523D01*
X158151650Y-138823949D01*
X158121200Y-138847647D01*
X158875600Y-139602046D01*
X158794852Y-139614835D01*
X158681955Y-139672359D01*
X158592359Y-139761955D01*
X158534835Y-139874852D01*
X158522046Y-139955600D01*
X157768811Y-139202365D01*
X157684516Y-139331390D01*
X157591317Y-139543864D01*
X157534361Y-139768781D01*
X157515202Y-139999994D01*
X157515202Y-140000005D01*
X157534361Y-140231220D01*
X157535206Y-140236283D01*
X157533500Y-140236567D01*
X157531146Y-140298778D01*
X157491177Y-140356086D01*
X157426569Y-140382687D01*
X157413289Y-140383370D01*
X154653621Y-140377002D01*
X154586627Y-140357162D01*
X154540994Y-140304253D01*
X154531210Y-140235072D01*
X154546058Y-140191810D01*
X154581918Y-140128610D01*
X154583250Y-140126321D01*
X154633115Y-140042864D01*
X154634649Y-140038775D01*
X154642898Y-140021144D01*
X154645054Y-140017345D01*
X154677159Y-139925591D01*
X154678090Y-139923025D01*
X154682109Y-139912319D01*
X154712207Y-139832124D01*
X154712985Y-139827830D01*
X154717954Y-139809006D01*
X154719398Y-139804882D01*
X154734615Y-139708802D01*
X154735044Y-139706282D01*
X154752400Y-139610647D01*
X154752400Y-139606276D01*
X154753927Y-139586878D01*
X154754610Y-139582565D01*
X154754611Y-139582560D01*
X154752430Y-139485432D01*
X154752400Y-139482651D01*
X154752400Y-138000000D01*
X171894592Y-138000000D01*
X171914201Y-138286680D01*
X171914201Y-138286684D01*
X171914202Y-138286686D01*
X171926790Y-138347265D01*
X171972666Y-138568034D01*
X171972667Y-138568037D01*
X172068894Y-138838793D01*
X172068893Y-138838793D01*
X172201098Y-139093935D01*
X172366812Y-139328700D01*
X172430507Y-139396900D01*
X172562947Y-139538708D01*
X172785853Y-139720055D01*
X172981677Y-139839139D01*
X173031382Y-139869365D01*
X173218237Y-139950526D01*
X173294942Y-139983844D01*
X173571642Y-140061371D01*
X173821920Y-140095771D01*
X173856321Y-140100500D01*
X173856322Y-140100500D01*
X174143679Y-140100500D01*
X174174370Y-140096281D01*
X174428358Y-140061371D01*
X174705058Y-139983844D01*
X174869726Y-139912319D01*
X174968617Y-139869365D01*
X174968620Y-139869363D01*
X174968625Y-139869361D01*
X175214147Y-139720055D01*
X175437053Y-139538708D01*
X175633189Y-139328698D01*
X175798901Y-139093936D01*
X175931104Y-138838797D01*
X176027334Y-138568032D01*
X176085798Y-138286686D01*
X176105408Y-138000000D01*
X176085798Y-137713314D01*
X176027334Y-137431968D01*
X175982697Y-137306373D01*
X175952870Y-137222448D01*
X175931105Y-137161206D01*
X175931106Y-137161206D01*
X175798901Y-136906064D01*
X175633187Y-136671299D01*
X175554554Y-136587105D01*
X175437053Y-136461292D01*
X175214147Y-136279945D01*
X175214146Y-136279944D01*
X174968617Y-136130634D01*
X174705063Y-136016158D01*
X174705061Y-136016157D01*
X174705058Y-136016156D01*
X174575578Y-135979877D01*
X174428364Y-135938630D01*
X174428359Y-135938629D01*
X174428358Y-135938629D01*
X174241882Y-135912998D01*
X174143679Y-135899500D01*
X174143678Y-135899500D01*
X173856322Y-135899500D01*
X173856321Y-135899500D01*
X173571642Y-135938629D01*
X173571635Y-135938630D01*
X173363861Y-135996845D01*
X173294942Y-136016156D01*
X173294939Y-136016156D01*
X173294936Y-136016158D01*
X173294935Y-136016158D01*
X173031382Y-136130634D01*
X172785853Y-136279944D01*
X172562950Y-136461289D01*
X172366812Y-136671299D01*
X172201098Y-136906064D01*
X172068894Y-137161206D01*
X171972667Y-137431962D01*
X171972666Y-137431965D01*
X171914201Y-137713319D01*
X171894592Y-138000000D01*
X154752400Y-138000000D01*
X154752400Y-132540006D01*
X165594700Y-132540006D01*
X165613864Y-132771297D01*
X165613866Y-132771308D01*
X165670842Y-132996300D01*
X165764075Y-133208848D01*
X165891016Y-133403147D01*
X165891019Y-133403151D01*
X165891021Y-133403153D01*
X166048216Y-133573913D01*
X166048219Y-133573915D01*
X166048222Y-133573918D01*
X166231365Y-133716464D01*
X166231371Y-133716468D01*
X166231374Y-133716470D01*
X166333081Y-133771511D01*
X166434652Y-133826479D01*
X166435497Y-133826936D01*
X166548826Y-133865842D01*
X166655015Y-133902297D01*
X166655017Y-133902297D01*
X166655019Y-133902298D01*
X166883951Y-133940500D01*
X166883952Y-133940500D01*
X167116048Y-133940500D01*
X167116049Y-133940500D01*
X167344981Y-133902298D01*
X167564503Y-133826936D01*
X167768626Y-133716470D01*
X167769170Y-133716047D01*
X167830129Y-133668600D01*
X167951784Y-133573913D01*
X168108979Y-133403153D01*
X168235924Y-133208849D01*
X168329157Y-132996300D01*
X168386134Y-132771305D01*
X168386135Y-132771297D01*
X168405300Y-132540006D01*
X168405300Y-132539993D01*
X168386135Y-132308702D01*
X168386133Y-132308691D01*
X168329157Y-132083699D01*
X168235924Y-131871151D01*
X168108983Y-131676852D01*
X168108980Y-131676849D01*
X168108979Y-131676847D01*
X167951784Y-131506087D01*
X167774180Y-131367853D01*
X167733368Y-131311143D01*
X167729693Y-131241370D01*
X167764324Y-131180687D01*
X167774181Y-131172146D01*
X167951784Y-131033913D01*
X168108979Y-130863153D01*
X168235924Y-130668849D01*
X168329157Y-130456300D01*
X168386134Y-130231305D01*
X168386135Y-130231297D01*
X168405300Y-130000006D01*
X168405300Y-129999993D01*
X168386135Y-129768702D01*
X168386131Y-129768683D01*
X168350619Y-129628452D01*
X168353243Y-129558632D01*
X168383140Y-129510332D01*
X168481656Y-129411817D01*
X168542979Y-129378334D01*
X168569336Y-129375500D01*
X169555664Y-129375500D01*
X169622703Y-129395185D01*
X169643345Y-129411819D01*
X170641678Y-130410152D01*
X170667822Y-130452025D01*
X170668783Y-130451604D01*
X170764075Y-130668848D01*
X170891016Y-130863147D01*
X170891019Y-130863151D01*
X170891021Y-130863153D01*
X171048216Y-131033913D01*
X171197463Y-131150076D01*
X171226225Y-131172462D01*
X171267038Y-131229173D01*
X171270713Y-131298946D01*
X171236082Y-131359629D01*
X171226225Y-131368170D01*
X171201201Y-131387646D01*
X171201200Y-131387647D01*
X171955600Y-132142046D01*
X171874852Y-132154835D01*
X171761955Y-132212359D01*
X171672359Y-132301955D01*
X171614835Y-132414852D01*
X171602046Y-132495600D01*
X170848811Y-131742365D01*
X170764516Y-131871390D01*
X170671317Y-132083864D01*
X170614361Y-132308781D01*
X170595202Y-132539994D01*
X170595202Y-132540005D01*
X170614361Y-132771218D01*
X170671317Y-132996135D01*
X170764515Y-133208606D01*
X170848812Y-133337633D01*
X171602046Y-132584399D01*
X171614835Y-132665148D01*
X171672359Y-132778045D01*
X171761955Y-132867641D01*
X171874852Y-132925165D01*
X171955599Y-132937953D01*
X171201201Y-133692351D01*
X171231649Y-133716050D01*
X171435697Y-133826476D01*
X171435706Y-133826479D01*
X171655139Y-133901811D01*
X171883993Y-133940000D01*
X172116007Y-133940000D01*
X172344860Y-133901811D01*
X172564293Y-133826479D01*
X172564301Y-133826476D01*
X172768355Y-133716047D01*
X172798797Y-133692351D01*
X172798798Y-133692350D01*
X172044401Y-132937953D01*
X172125148Y-132925165D01*
X172238045Y-132867641D01*
X172327641Y-132778045D01*
X172385165Y-132665148D01*
X172397953Y-132584400D01*
X173151186Y-133337633D01*
X173235482Y-133208611D01*
X173328682Y-132996135D01*
X173385638Y-132771218D01*
X173404798Y-132540005D01*
X173404798Y-132539994D01*
X173385638Y-132308781D01*
X173328682Y-132083864D01*
X173235484Y-131871393D01*
X173151186Y-131742365D01*
X172397953Y-132495598D01*
X172385165Y-132414852D01*
X172327641Y-132301955D01*
X172238045Y-132212359D01*
X172125148Y-132154835D01*
X172044400Y-132142046D01*
X172798797Y-131387647D01*
X172798797Y-131387646D01*
X172773773Y-131368169D01*
X172732961Y-131311459D01*
X172729286Y-131241686D01*
X172763918Y-131181003D01*
X172773760Y-131172473D01*
X172951784Y-131033913D01*
X173108979Y-130863153D01*
X173235924Y-130668849D01*
X173329157Y-130456300D01*
X173386134Y-130231305D01*
X173386135Y-130231297D01*
X173405300Y-130000006D01*
X173405300Y-129999993D01*
X173386135Y-129768702D01*
X173386133Y-129768691D01*
X173329157Y-129543699D01*
X173235924Y-129331151D01*
X173108983Y-129136852D01*
X173108980Y-129136849D01*
X173108979Y-129136847D01*
X172951784Y-128966087D01*
X172951779Y-128966083D01*
X172951777Y-128966081D01*
X172768634Y-128823535D01*
X172768628Y-128823531D01*
X172564504Y-128713064D01*
X172564495Y-128713061D01*
X172465298Y-128679006D01*
X172417880Y-128649406D01*
X171063816Y-127295342D01*
X171054549Y-127284973D01*
X171032506Y-127257332D01*
X170982603Y-127213732D01*
X170976507Y-127208033D01*
X170969532Y-127201058D01*
X170969521Y-127201048D01*
X170938255Y-127174945D01*
X170936139Y-127173138D01*
X170863003Y-127109240D01*
X170862997Y-127109236D01*
X170862996Y-127109235D01*
X170859241Y-127106991D01*
X170843373Y-127095732D01*
X170840019Y-127092932D01*
X170840018Y-127092931D01*
X170840013Y-127092927D01*
X170755548Y-127045001D01*
X170753144Y-127043601D01*
X170669763Y-126993784D01*
X170665669Y-126992248D01*
X170648044Y-126984002D01*
X170644245Y-126981846D01*
X170552569Y-126949767D01*
X170549953Y-126948819D01*
X170459029Y-126914694D01*
X170459019Y-126914691D01*
X170454723Y-126913912D01*
X170435918Y-126908949D01*
X170431784Y-126907502D01*
X170431777Y-126907501D01*
X170335848Y-126892307D01*
X170333105Y-126891841D01*
X170237550Y-126874500D01*
X170237547Y-126874500D01*
X170233172Y-126874500D01*
X170213769Y-126872972D01*
X170209460Y-126872289D01*
X170112359Y-126874469D01*
X170109577Y-126874500D01*
X169374500Y-126874500D01*
X169307461Y-126854815D01*
X169261706Y-126802011D01*
X169250500Y-126750500D01*
X169250500Y-113661619D01*
X169260943Y-113611810D01*
X169329157Y-113456300D01*
X169386134Y-113231305D01*
X169405300Y-113000000D01*
X169405300Y-112999993D01*
X169386135Y-112768702D01*
X169386133Y-112768691D01*
X169329157Y-112543699D01*
X169235924Y-112331151D01*
X169108983Y-112136852D01*
X169108980Y-112136849D01*
X169108979Y-112136847D01*
X168951784Y-111966087D01*
X168951779Y-111966083D01*
X168951777Y-111966081D01*
X168768634Y-111823535D01*
X168768628Y-111823531D01*
X168564504Y-111713064D01*
X168564495Y-111713061D01*
X168344984Y-111637702D01*
X168173282Y-111609050D01*
X168116049Y-111599500D01*
X167883951Y-111599500D01*
X167838164Y-111607140D01*
X167655015Y-111637702D01*
X167435504Y-111713061D01*
X167435495Y-111713064D01*
X167231371Y-111823531D01*
X167231365Y-111823535D01*
X167048222Y-111966081D01*
X167048219Y-111966084D01*
X166891016Y-112136852D01*
X166764075Y-112331151D01*
X166670842Y-112543699D01*
X166613866Y-112768691D01*
X166613864Y-112768702D01*
X166594700Y-112999993D01*
X166594700Y-113000006D01*
X166613864Y-113231297D01*
X166613866Y-113231308D01*
X166670842Y-113456297D01*
X166670843Y-113456300D01*
X166739056Y-113611810D01*
X166749500Y-113661619D01*
X166749500Y-127555663D01*
X166729815Y-127622702D01*
X166713181Y-127643344D01*
X166170344Y-128186180D01*
X166159980Y-128195443D01*
X166132337Y-128217489D01*
X166132334Y-128217492D01*
X166088736Y-128267392D01*
X166083048Y-128273476D01*
X166076064Y-128280460D01*
X166076051Y-128280475D01*
X166049928Y-128311764D01*
X166048125Y-128313875D01*
X165984234Y-128387004D01*
X165984230Y-128387010D01*
X165981981Y-128390774D01*
X165970746Y-128406608D01*
X165967932Y-128409979D01*
X165919978Y-128494490D01*
X165918604Y-128496849D01*
X165887964Y-128548133D01*
X165868781Y-128580242D01*
X165867247Y-128584332D01*
X165859008Y-128601945D01*
X165856850Y-128605747D01*
X165856847Y-128605754D01*
X165824762Y-128697445D01*
X165823815Y-128700057D01*
X165789692Y-128790979D01*
X165789689Y-128790988D01*
X165788909Y-128795288D01*
X165783952Y-128814069D01*
X165782503Y-128818209D01*
X165782502Y-128818215D01*
X165767304Y-128914165D01*
X165766838Y-128916906D01*
X165749500Y-129012447D01*
X165749500Y-129016827D01*
X165747973Y-129036229D01*
X165747289Y-129040540D01*
X165749469Y-129137639D01*
X165749500Y-129140421D01*
X165749500Y-129338379D01*
X165739056Y-129388189D01*
X165670842Y-129543699D01*
X165613866Y-129768691D01*
X165613864Y-129768702D01*
X165594700Y-129999993D01*
X165594700Y-130000006D01*
X165613864Y-130231297D01*
X165613866Y-130231308D01*
X165670842Y-130456300D01*
X165764075Y-130668848D01*
X165891016Y-130863147D01*
X165891019Y-130863151D01*
X165891021Y-130863153D01*
X166048216Y-131033913D01*
X166048219Y-131033915D01*
X166048222Y-131033918D01*
X166225818Y-131172147D01*
X166266631Y-131228857D01*
X166270306Y-131298630D01*
X166235674Y-131359313D01*
X166225818Y-131367853D01*
X166048222Y-131506081D01*
X166048219Y-131506084D01*
X165891016Y-131676852D01*
X165764075Y-131871151D01*
X165670842Y-132083699D01*
X165613866Y-132308691D01*
X165613864Y-132308702D01*
X165594700Y-132539993D01*
X165594700Y-132540006D01*
X154752400Y-132540006D01*
X154752400Y-131199085D01*
X154753180Y-131185200D01*
X154753653Y-131181003D01*
X154757138Y-131150073D01*
X154752680Y-131083966D01*
X154752400Y-131075625D01*
X154752400Y-131065752D01*
X154752400Y-131065745D01*
X154748738Y-131025072D01*
X154748530Y-131022416D01*
X154742356Y-130930826D01*
X154741997Y-130925493D01*
X154740928Y-130921251D01*
X154737668Y-130902069D01*
X154737277Y-130897712D01*
X154711427Y-130804050D01*
X154710731Y-130801414D01*
X154709796Y-130797702D01*
X154686996Y-130707217D01*
X154685189Y-130703239D01*
X154678553Y-130684934D01*
X154677393Y-130680731D01*
X154671671Y-130668849D01*
X154635198Y-130593111D01*
X154634100Y-130590764D01*
X154593907Y-130502275D01*
X154591418Y-130498682D01*
X154581628Y-130481870D01*
X154579729Y-130477927D01*
X154579727Y-130477924D01*
X154579725Y-130477920D01*
X154579724Y-130477919D01*
X154522640Y-130399351D01*
X154521028Y-130397080D01*
X154465720Y-130317246D01*
X154462629Y-130314155D01*
X154449993Y-130299361D01*
X154447421Y-130295821D01*
X154447418Y-130295818D01*
X154377199Y-130228681D01*
X154375210Y-130226736D01*
X147358321Y-123209847D01*
X147332182Y-123167972D01*
X147331217Y-123168396D01*
X147235924Y-122951151D01*
X147108983Y-122756852D01*
X147108980Y-122756849D01*
X147108979Y-122756847D01*
X146951784Y-122586087D01*
X146773773Y-122447536D01*
X146732961Y-122390826D01*
X146729286Y-122321053D01*
X146763917Y-122260370D01*
X146773772Y-122251831D01*
X146798797Y-122232352D01*
X146798798Y-122232350D01*
X146044401Y-121477953D01*
X146125148Y-121465165D01*
X146238045Y-121407641D01*
X146327641Y-121318045D01*
X146385165Y-121205148D01*
X146397953Y-121124400D01*
X147151186Y-121877633D01*
X147235482Y-121748611D01*
X147328682Y-121536135D01*
X147385638Y-121311218D01*
X147404798Y-121080005D01*
X147404798Y-121079994D01*
X147385638Y-120848781D01*
X147328682Y-120623864D01*
X147235484Y-120411393D01*
X147151186Y-120282365D01*
X146397953Y-121035598D01*
X146385165Y-120954852D01*
X146327641Y-120841955D01*
X146238045Y-120752359D01*
X146125148Y-120694835D01*
X146044400Y-120682046D01*
X146798797Y-119927647D01*
X146798797Y-119927646D01*
X146773773Y-119908169D01*
X146732961Y-119851459D01*
X146729286Y-119781686D01*
X146763918Y-119721003D01*
X146773760Y-119712473D01*
X146951784Y-119573913D01*
X147108979Y-119403153D01*
X147235924Y-119208849D01*
X147329157Y-118996300D01*
X147386134Y-118771305D01*
X147405300Y-118540000D01*
X147405300Y-118539993D01*
X147386135Y-118308702D01*
X147386133Y-118308691D01*
X147329157Y-118083699D01*
X147235924Y-117871151D01*
X147108983Y-117676852D01*
X147108980Y-117676849D01*
X147108979Y-117676847D01*
X146951784Y-117506087D01*
X146774180Y-117367853D01*
X146733368Y-117311143D01*
X146729693Y-117241370D01*
X146764324Y-117180687D01*
X146774181Y-117172146D01*
X146951784Y-117033913D01*
X147108979Y-116863153D01*
X147235924Y-116668849D01*
X147329157Y-116456300D01*
X147386134Y-116231305D01*
X147405300Y-116000000D01*
X147405300Y-115999993D01*
X147386135Y-115768702D01*
X147386133Y-115768691D01*
X147329157Y-115543699D01*
X147235924Y-115331151D01*
X147108983Y-115136852D01*
X147108980Y-115136849D01*
X147108979Y-115136847D01*
X146951784Y-114966087D01*
X146951779Y-114966083D01*
X146951777Y-114966081D01*
X146768634Y-114823535D01*
X146768628Y-114823531D01*
X146564504Y-114713064D01*
X146564495Y-114713061D01*
X146344984Y-114637702D01*
X146173282Y-114609050D01*
X146116049Y-114599500D01*
X145883951Y-114599500D01*
X145838164Y-114607140D01*
X145655015Y-114637702D01*
X145435501Y-114713062D01*
X145435486Y-114713069D01*
X145395786Y-114734554D01*
X145336768Y-114749500D01*
X125701586Y-114749500D01*
X125687702Y-114748720D01*
X125652577Y-114744762D01*
X125652569Y-114744761D01*
X125586467Y-114749219D01*
X125578125Y-114749500D01*
X125568238Y-114749500D01*
X125527651Y-114753152D01*
X125524882Y-114753370D01*
X125427990Y-114759903D01*
X125423749Y-114760972D01*
X125404576Y-114764230D01*
X125400208Y-114764623D01*
X125306585Y-114790462D01*
X125303895Y-114791172D01*
X125209719Y-114814902D01*
X125205722Y-114816718D01*
X125187459Y-114823339D01*
X125183231Y-114824506D01*
X125095716Y-114866649D01*
X125093200Y-114867826D01*
X125004776Y-114907991D01*
X125004771Y-114907994D01*
X125001175Y-114910486D01*
X124984371Y-114920271D01*
X124980431Y-114922168D01*
X124980429Y-114922169D01*
X124901860Y-114979251D01*
X124899595Y-114980858D01*
X124819745Y-115036180D01*
X124816639Y-115039286D01*
X124801865Y-115051903D01*
X124798328Y-115054473D01*
X124798321Y-115054478D01*
X124731204Y-115124677D01*
X124729259Y-115126665D01*
X116602745Y-123253181D01*
X116541422Y-123286666D01*
X116515064Y-123289500D01*
X94984605Y-123289500D01*
X94917566Y-123269815D01*
X94871811Y-123217011D01*
X94861867Y-123147853D01*
X94890892Y-123084297D01*
X94908439Y-123067648D01*
X94951784Y-123033913D01*
X95108979Y-122863153D01*
X95235924Y-122668849D01*
X95329157Y-122456300D01*
X95386134Y-122231305D01*
X95386135Y-122231297D01*
X95405300Y-122000006D01*
X95405300Y-121999993D01*
X95386135Y-121768702D01*
X95386133Y-121768691D01*
X95329157Y-121543699D01*
X95235924Y-121331151D01*
X95108983Y-121136852D01*
X95108980Y-121136849D01*
X95108979Y-121136847D01*
X94951784Y-120966087D01*
X94951779Y-120966083D01*
X94951777Y-120966081D01*
X94768634Y-120823535D01*
X94768628Y-120823531D01*
X94564504Y-120713064D01*
X94564495Y-120713061D01*
X94344984Y-120637702D01*
X94152478Y-120605579D01*
X94116049Y-120599500D01*
X93883951Y-120599500D01*
X93797286Y-120613961D01*
X93727921Y-120605579D01*
X93674099Y-120561025D01*
X93652908Y-120494446D01*
X93652880Y-120492475D01*
X93532476Y-99000006D01*
X110594700Y-99000006D01*
X110613864Y-99231297D01*
X110613866Y-99231308D01*
X110670842Y-99456300D01*
X110764075Y-99668848D01*
X110891016Y-99863147D01*
X110891019Y-99863151D01*
X110891021Y-99863153D01*
X111048216Y-100033913D01*
X111048219Y-100033915D01*
X111048222Y-100033918D01*
X111231365Y-100176464D01*
X111231371Y-100176468D01*
X111231374Y-100176470D01*
X111435497Y-100286936D01*
X111519978Y-100315938D01*
X111534699Y-100320992D01*
X111582118Y-100350592D01*
X112985682Y-101754156D01*
X112994948Y-101764524D01*
X113016992Y-101792166D01*
X113066895Y-101835766D01*
X113072991Y-101841465D01*
X113079971Y-101848445D01*
X113111298Y-101874598D01*
X113113364Y-101876364D01*
X113186501Y-101940263D01*
X113190250Y-101942503D01*
X113206124Y-101953765D01*
X113209481Y-101956568D01*
X113294015Y-102004534D01*
X113296333Y-102005884D01*
X113307067Y-102012298D01*
X113315168Y-102017138D01*
X113362620Y-102068421D01*
X113374814Y-102137219D01*
X113355375Y-102191405D01*
X113264075Y-102331151D01*
X113170842Y-102543699D01*
X113113866Y-102768691D01*
X113113864Y-102768702D01*
X113094700Y-102999993D01*
X113094700Y-103000006D01*
X113113864Y-103231297D01*
X113113866Y-103231308D01*
X113170842Y-103456300D01*
X113264075Y-103668848D01*
X113391016Y-103863147D01*
X113391019Y-103863151D01*
X113391021Y-103863153D01*
X113548216Y-104033913D01*
X113548219Y-104033915D01*
X113548222Y-104033918D01*
X113731365Y-104176464D01*
X113731371Y-104176468D01*
X113731374Y-104176470D01*
X113935497Y-104286936D01*
X114049487Y-104326068D01*
X114155015Y-104362297D01*
X114155017Y-104362297D01*
X114155019Y-104362298D01*
X114383951Y-104400500D01*
X114383952Y-104400500D01*
X114616048Y-104400500D01*
X114616049Y-104400500D01*
X114844981Y-104362298D01*
X115064503Y-104286936D01*
X115268626Y-104176470D01*
X115451784Y-104033913D01*
X115608979Y-103863153D01*
X115735924Y-103668849D01*
X115829157Y-103456300D01*
X115886134Y-103231305D01*
X115905300Y-103000000D01*
X115905300Y-102999993D01*
X115886135Y-102768702D01*
X115886133Y-102768691D01*
X115829157Y-102543699D01*
X115743670Y-102348810D01*
X115734767Y-102279510D01*
X115764744Y-102216398D01*
X115824083Y-102179511D01*
X115857226Y-102175000D01*
X131942464Y-102175000D01*
X132009503Y-102194685D01*
X132030145Y-102211319D01*
X134866408Y-105047582D01*
X134899893Y-105108905D01*
X134894909Y-105178597D01*
X134853037Y-105234530D01*
X134837745Y-105244318D01*
X134691371Y-105323531D01*
X134691365Y-105323535D01*
X134508222Y-105466081D01*
X134508219Y-105466084D01*
X134351016Y-105636852D01*
X134224075Y-105831151D01*
X134130842Y-106043699D01*
X134073866Y-106268691D01*
X134073864Y-106268702D01*
X134054700Y-106499993D01*
X134054700Y-106500006D01*
X134073864Y-106731297D01*
X134073866Y-106731308D01*
X134130842Y-106956300D01*
X134224075Y-107168848D01*
X134351016Y-107363147D01*
X134351019Y-107363151D01*
X134351021Y-107363153D01*
X134508216Y-107533913D01*
X134508219Y-107533915D01*
X134508222Y-107533918D01*
X134691365Y-107676464D01*
X134691371Y-107676468D01*
X134691374Y-107676470D01*
X134858860Y-107767109D01*
X134894652Y-107786479D01*
X134895497Y-107786936D01*
X135009487Y-107826068D01*
X135115015Y-107862297D01*
X135115017Y-107862297D01*
X135115019Y-107862298D01*
X135343951Y-107900500D01*
X135343952Y-107900500D01*
X135576048Y-107900500D01*
X135576049Y-107900500D01*
X135804981Y-107862298D01*
X136024503Y-107786936D01*
X136228626Y-107676470D01*
X136229170Y-107676047D01*
X136290129Y-107628600D01*
X136411784Y-107533913D01*
X136568979Y-107363153D01*
X136626191Y-107275582D01*
X136679337Y-107230226D01*
X136748568Y-107220802D01*
X136811904Y-107250304D01*
X136833809Y-107275583D01*
X136891016Y-107363147D01*
X136891019Y-107363151D01*
X136891021Y-107363153D01*
X137048216Y-107533913D01*
X137048219Y-107533915D01*
X137048222Y-107533918D01*
X137231365Y-107676464D01*
X137231371Y-107676468D01*
X137231374Y-107676470D01*
X137398860Y-107767109D01*
X137434652Y-107786479D01*
X137435497Y-107786936D01*
X137549487Y-107826068D01*
X137655015Y-107862297D01*
X137655017Y-107862297D01*
X137655019Y-107862298D01*
X137883951Y-107900500D01*
X137883952Y-107900500D01*
X138116048Y-107900500D01*
X138116049Y-107900500D01*
X138344981Y-107862298D01*
X138564503Y-107786936D01*
X138768626Y-107676470D01*
X138769170Y-107676047D01*
X138830129Y-107628600D01*
X138951784Y-107533913D01*
X139108979Y-107363153D01*
X139166490Y-107275124D01*
X139219635Y-107229769D01*
X139288866Y-107220345D01*
X139352202Y-107249846D01*
X139374107Y-107275125D01*
X139388812Y-107297633D01*
X140142046Y-106544399D01*
X140154835Y-106625148D01*
X140212359Y-106738045D01*
X140301955Y-106827641D01*
X140414852Y-106885165D01*
X140495599Y-106897953D01*
X139741201Y-107652351D01*
X139771649Y-107676050D01*
X139975697Y-107786476D01*
X139975706Y-107786479D01*
X140195139Y-107861811D01*
X140423993Y-107900000D01*
X140656007Y-107900000D01*
X140884860Y-107861811D01*
X141104293Y-107786479D01*
X141104301Y-107786476D01*
X141308355Y-107676047D01*
X141338797Y-107652351D01*
X141338798Y-107652350D01*
X140584401Y-106897953D01*
X140665148Y-106885165D01*
X140778045Y-106827641D01*
X140867641Y-106738045D01*
X140925165Y-106625148D01*
X140937953Y-106544400D01*
X141691186Y-107297633D01*
X141775482Y-107168611D01*
X141868682Y-106956135D01*
X141925638Y-106731218D01*
X141944798Y-106500005D01*
X141944798Y-106499994D01*
X141925638Y-106268781D01*
X141868682Y-106043864D01*
X141775484Y-105831393D01*
X141691186Y-105702365D01*
X140937953Y-106455598D01*
X140925165Y-106374852D01*
X140867641Y-106261955D01*
X140778045Y-106172359D01*
X140665148Y-106114835D01*
X140584400Y-106102046D01*
X141338797Y-105347647D01*
X141338797Y-105347645D01*
X141308360Y-105323955D01*
X141308354Y-105323951D01*
X141104302Y-105213523D01*
X141104293Y-105213520D01*
X140884860Y-105138188D01*
X140656007Y-105100000D01*
X140423993Y-105100000D01*
X140195139Y-105138188D01*
X139975706Y-105213520D01*
X139975697Y-105213523D01*
X139771650Y-105323949D01*
X139741200Y-105347647D01*
X140495600Y-106102046D01*
X140414852Y-106114835D01*
X140301955Y-106172359D01*
X140212359Y-106261955D01*
X140154835Y-106374852D01*
X140142046Y-106455600D01*
X139388811Y-105702365D01*
X139374106Y-105724873D01*
X139320959Y-105770230D01*
X139251728Y-105779653D01*
X139188392Y-105750150D01*
X139166489Y-105724873D01*
X139108981Y-105636850D01*
X139108980Y-105636849D01*
X139108979Y-105636847D01*
X138951784Y-105466087D01*
X138951779Y-105466083D01*
X138951777Y-105466081D01*
X138768634Y-105323535D01*
X138768628Y-105323531D01*
X138589837Y-105226774D01*
X138561174Y-105205400D01*
X137355779Y-104000005D01*
X166595202Y-104000005D01*
X166614361Y-104231218D01*
X166671317Y-104456135D01*
X166764515Y-104668606D01*
X166848812Y-104797633D01*
X167602046Y-104044399D01*
X167614835Y-104125148D01*
X167672359Y-104238045D01*
X167761955Y-104327641D01*
X167874852Y-104385165D01*
X167955599Y-104397953D01*
X167201201Y-105152351D01*
X167231649Y-105176050D01*
X167435697Y-105286476D01*
X167435706Y-105286479D01*
X167655139Y-105361811D01*
X167883993Y-105400000D01*
X168116007Y-105400000D01*
X168344860Y-105361811D01*
X168564293Y-105286479D01*
X168564301Y-105286476D01*
X168768355Y-105176047D01*
X168798797Y-105152351D01*
X168798798Y-105152350D01*
X168044401Y-104397953D01*
X168125148Y-104385165D01*
X168238045Y-104327641D01*
X168327641Y-104238045D01*
X168385165Y-104125148D01*
X168397953Y-104044400D01*
X169151186Y-104797633D01*
X169235482Y-104668611D01*
X169328682Y-104456135D01*
X169385638Y-104231218D01*
X169404798Y-104000005D01*
X169404798Y-103999994D01*
X169385638Y-103768781D01*
X169328682Y-103543864D01*
X169235484Y-103331393D01*
X169151186Y-103202365D01*
X168397953Y-103955598D01*
X168385165Y-103874852D01*
X168327641Y-103761955D01*
X168238045Y-103672359D01*
X168125148Y-103614835D01*
X168044400Y-103602046D01*
X168798797Y-102847647D01*
X168798797Y-102847645D01*
X168768360Y-102823955D01*
X168768354Y-102823951D01*
X168564302Y-102713523D01*
X168564293Y-102713520D01*
X168344860Y-102638188D01*
X168116007Y-102600000D01*
X167883993Y-102600000D01*
X167655139Y-102638188D01*
X167435706Y-102713520D01*
X167435697Y-102713523D01*
X167231650Y-102823949D01*
X167201200Y-102847647D01*
X167955600Y-103602046D01*
X167874852Y-103614835D01*
X167761955Y-103672359D01*
X167672359Y-103761955D01*
X167614835Y-103874852D01*
X167602046Y-103955600D01*
X166848811Y-103202365D01*
X166764516Y-103331390D01*
X166671317Y-103543864D01*
X166614361Y-103768781D01*
X166595202Y-103999994D01*
X166595202Y-104000005D01*
X137355779Y-104000005D01*
X133450616Y-100094842D01*
X133441349Y-100084473D01*
X133419306Y-100056832D01*
X133369403Y-100013232D01*
X133363307Y-100007533D01*
X133356332Y-100000558D01*
X133356321Y-100000548D01*
X133325055Y-99974445D01*
X133322939Y-99972638D01*
X133249803Y-99908740D01*
X133249797Y-99908736D01*
X133249796Y-99908735D01*
X133246041Y-99906491D01*
X133230173Y-99895232D01*
X133226819Y-99892432D01*
X133226818Y-99892431D01*
X133226813Y-99892427D01*
X133142348Y-99844501D01*
X133139944Y-99843101D01*
X133056563Y-99793284D01*
X133052469Y-99791748D01*
X133034844Y-99783502D01*
X133031045Y-99781346D01*
X132939369Y-99749267D01*
X132936753Y-99748319D01*
X132845829Y-99714194D01*
X132845819Y-99714191D01*
X132841523Y-99713412D01*
X132822718Y-99708449D01*
X132818584Y-99707002D01*
X132818577Y-99707001D01*
X132722648Y-99691807D01*
X132719905Y-99691341D01*
X132624350Y-99674000D01*
X132624347Y-99674000D01*
X132619972Y-99674000D01*
X132600569Y-99672472D01*
X132596260Y-99671789D01*
X132499159Y-99673969D01*
X132496377Y-99674000D01*
X118422914Y-99674000D01*
X118355875Y-99654315D01*
X118310120Y-99601511D01*
X118300176Y-99532353D01*
X118309358Y-99500189D01*
X118328683Y-99456132D01*
X118385638Y-99231218D01*
X118404798Y-99000005D01*
X118404798Y-98999994D01*
X118385638Y-98768781D01*
X118328682Y-98543864D01*
X118235484Y-98331393D01*
X118151186Y-98202365D01*
X117397953Y-98955598D01*
X117385165Y-98874852D01*
X117327641Y-98761955D01*
X117238045Y-98672359D01*
X117125148Y-98614835D01*
X117044400Y-98602046D01*
X117798797Y-97847647D01*
X117798797Y-97847645D01*
X117768360Y-97823955D01*
X117768354Y-97823951D01*
X117564302Y-97713523D01*
X117564293Y-97713520D01*
X117344860Y-97638188D01*
X117116007Y-97600000D01*
X116883993Y-97600000D01*
X116655139Y-97638188D01*
X116435706Y-97713520D01*
X116435697Y-97713523D01*
X116231650Y-97823949D01*
X116201200Y-97847647D01*
X116955600Y-98602046D01*
X116874852Y-98614835D01*
X116761955Y-98672359D01*
X116672359Y-98761955D01*
X116614835Y-98874852D01*
X116602046Y-98955600D01*
X115848811Y-98202365D01*
X115764516Y-98331390D01*
X115671317Y-98543864D01*
X115614361Y-98768781D01*
X115595202Y-98999994D01*
X115595202Y-99000005D01*
X115614361Y-99231218D01*
X115671316Y-99456132D01*
X115690642Y-99500189D01*
X115699545Y-99569489D01*
X115669568Y-99632602D01*
X115610229Y-99669489D01*
X115577086Y-99674000D01*
X114493836Y-99674000D01*
X114426797Y-99654315D01*
X114406155Y-99637681D01*
X113358321Y-98589847D01*
X113332182Y-98547972D01*
X113331217Y-98548396D01*
X113235924Y-98331151D01*
X113108983Y-98136852D01*
X113108980Y-98136849D01*
X113108979Y-98136847D01*
X112951784Y-97966087D01*
X112951779Y-97966083D01*
X112951777Y-97966081D01*
X112768634Y-97823535D01*
X112768628Y-97823531D01*
X112564504Y-97713064D01*
X112564495Y-97713061D01*
X112344984Y-97637702D01*
X112173282Y-97609050D01*
X112116049Y-97599500D01*
X111883951Y-97599500D01*
X111838164Y-97607140D01*
X111655015Y-97637702D01*
X111435504Y-97713061D01*
X111435495Y-97713064D01*
X111231371Y-97823531D01*
X111231365Y-97823535D01*
X111048222Y-97966081D01*
X111048219Y-97966084D01*
X111048216Y-97966086D01*
X111048216Y-97966087D01*
X111031870Y-97983844D01*
X110891016Y-98136852D01*
X110764075Y-98331151D01*
X110670842Y-98543699D01*
X110613866Y-98768691D01*
X110613864Y-98768702D01*
X110594700Y-98999993D01*
X110594700Y-99000006D01*
X93532476Y-99000006D01*
X93515670Y-96000000D01*
X93894592Y-96000000D01*
X93914201Y-96286680D01*
X93972666Y-96568034D01*
X93972667Y-96568037D01*
X94068894Y-96838793D01*
X94068893Y-96838793D01*
X94201098Y-97093935D01*
X94366812Y-97328700D01*
X94451923Y-97419831D01*
X94562947Y-97538708D01*
X94785853Y-97720055D01*
X94956708Y-97823955D01*
X95031382Y-97869365D01*
X95218237Y-97950526D01*
X95294942Y-97983844D01*
X95571642Y-98061371D01*
X95821920Y-98095771D01*
X95856321Y-98100500D01*
X95856322Y-98100500D01*
X96143679Y-98100500D01*
X96174370Y-98096281D01*
X96428358Y-98061371D01*
X96705058Y-97983844D01*
X96818015Y-97934779D01*
X96968617Y-97869365D01*
X96968620Y-97869363D01*
X96968625Y-97869361D01*
X97214147Y-97720055D01*
X97437053Y-97538708D01*
X97633189Y-97328698D01*
X97798901Y-97093936D01*
X97931104Y-96838797D01*
X98027334Y-96568032D01*
X98085798Y-96286686D01*
X98105408Y-96000000D01*
X171894592Y-96000000D01*
X171914201Y-96286680D01*
X171972666Y-96568034D01*
X171972667Y-96568037D01*
X172068894Y-96838793D01*
X172068893Y-96838793D01*
X172201098Y-97093935D01*
X172366812Y-97328700D01*
X172451923Y-97419831D01*
X172562947Y-97538708D01*
X172785853Y-97720055D01*
X172956708Y-97823955D01*
X173031382Y-97869365D01*
X173218237Y-97950526D01*
X173294942Y-97983844D01*
X173571642Y-98061371D01*
X173821920Y-98095771D01*
X173856321Y-98100500D01*
X173856322Y-98100500D01*
X174143679Y-98100500D01*
X174174370Y-98096281D01*
X174428358Y-98061371D01*
X174705058Y-97983844D01*
X174818015Y-97934779D01*
X174968617Y-97869365D01*
X174968620Y-97869363D01*
X174968625Y-97869361D01*
X175214147Y-97720055D01*
X175437053Y-97538708D01*
X175633189Y-97328698D01*
X175798901Y-97093936D01*
X175931104Y-96838797D01*
X176027334Y-96568032D01*
X176085798Y-96286686D01*
X176105408Y-96000000D01*
X176085798Y-95713314D01*
X176027334Y-95431968D01*
X175931105Y-95161206D01*
X175931106Y-95161206D01*
X175798901Y-94906064D01*
X175633187Y-94671299D01*
X175554554Y-94587105D01*
X175437053Y-94461292D01*
X175214147Y-94279945D01*
X175214146Y-94279944D01*
X174968617Y-94130634D01*
X174705063Y-94016158D01*
X174705061Y-94016157D01*
X174705058Y-94016156D01*
X174575578Y-93979877D01*
X174428364Y-93938630D01*
X174428359Y-93938629D01*
X174428358Y-93938629D01*
X174286018Y-93919064D01*
X174143679Y-93899500D01*
X174143678Y-93899500D01*
X173856322Y-93899500D01*
X173856321Y-93899500D01*
X173571642Y-93938629D01*
X173571635Y-93938630D01*
X173363861Y-93996845D01*
X173294942Y-94016156D01*
X173294939Y-94016156D01*
X173294936Y-94016158D01*
X173294935Y-94016158D01*
X173031382Y-94130634D01*
X172785853Y-94279944D01*
X172562950Y-94461289D01*
X172366812Y-94671299D01*
X172201098Y-94906064D01*
X172068894Y-95161206D01*
X171972667Y-95431962D01*
X171972666Y-95431965D01*
X171914201Y-95713319D01*
X171894592Y-96000000D01*
X98105408Y-96000000D01*
X98085798Y-95713314D01*
X98027334Y-95431968D01*
X97931105Y-95161206D01*
X97931106Y-95161206D01*
X97798901Y-94906064D01*
X97633187Y-94671299D01*
X97554554Y-94587105D01*
X97437053Y-94461292D01*
X97214147Y-94279945D01*
X97214146Y-94279944D01*
X96968617Y-94130634D01*
X96705063Y-94016158D01*
X96705061Y-94016157D01*
X96705058Y-94016156D01*
X96575578Y-93979877D01*
X96428364Y-93938630D01*
X96428359Y-93938629D01*
X96428358Y-93938629D01*
X96286018Y-93919064D01*
X96143679Y-93899500D01*
X96143678Y-93899500D01*
X95856322Y-93899500D01*
X95856321Y-93899500D01*
X95571642Y-93938629D01*
X95571635Y-93938630D01*
X95363861Y-93996845D01*
X95294942Y-94016156D01*
X95294939Y-94016156D01*
X95294936Y-94016158D01*
X95294935Y-94016158D01*
X95031382Y-94130634D01*
X94785853Y-94279944D01*
X94562950Y-94461289D01*
X94366812Y-94671299D01*
X94201098Y-94906064D01*
X94068894Y-95161206D01*
X93972667Y-95431962D01*
X93972666Y-95431965D01*
X93914201Y-95713319D01*
X93894592Y-96000000D01*
X93515670Y-96000000D01*
X93502373Y-93626535D01*
X93521681Y-93559392D01*
X93574227Y-93513342D01*
X93626539Y-93501846D01*
X176260171Y-93615943D01*
G37*
%TD.AperFunction*%
%TA.AperFunction,Conductor*%
G36*
X125644803Y-128350185D02*
G01*
X125665445Y-128366819D01*
X132823782Y-135525156D01*
X132833048Y-135535524D01*
X132855092Y-135563166D01*
X132904995Y-135606766D01*
X132911091Y-135612465D01*
X132918066Y-135619440D01*
X132918077Y-135619450D01*
X132949339Y-135645550D01*
X132951454Y-135647356D01*
X133024604Y-135711265D01*
X133028350Y-135713503D01*
X133044224Y-135724765D01*
X133047581Y-135727568D01*
X133132116Y-135775534D01*
X133134378Y-135776852D01*
X133217836Y-135826715D01*
X133221927Y-135828250D01*
X133239555Y-135836496D01*
X133243355Y-135838653D01*
X133335096Y-135870754D01*
X133337598Y-135871661D01*
X133428576Y-135905807D01*
X133431165Y-135906276D01*
X133432874Y-135906587D01*
X133451689Y-135911553D01*
X133455817Y-135912998D01*
X133551837Y-135928205D01*
X133554432Y-135928646D01*
X133626032Y-135941640D01*
X133650052Y-135946000D01*
X133650053Y-135946000D01*
X133654428Y-135946000D01*
X133673831Y-135947528D01*
X133675538Y-135947797D01*
X133678140Y-135948210D01*
X133775221Y-135946031D01*
X133778004Y-135946000D01*
X142129164Y-135946000D01*
X142196203Y-135965685D01*
X142216845Y-135982319D01*
X144783986Y-138549461D01*
X144817471Y-138610784D01*
X144812487Y-138680476D01*
X144770615Y-138736409D01*
X144755323Y-138746197D01*
X144611650Y-138823949D01*
X144581200Y-138847647D01*
X145335599Y-139602046D01*
X145254852Y-139614835D01*
X145141955Y-139672359D01*
X145052359Y-139761955D01*
X144994835Y-139874852D01*
X144982046Y-139955600D01*
X144228811Y-139202365D01*
X144144516Y-139331390D01*
X144051317Y-139543864D01*
X143994361Y-139768781D01*
X143975202Y-139999994D01*
X143993256Y-140217880D01*
X143979174Y-140286316D01*
X143930329Y-140336275D01*
X143869393Y-140352120D01*
X141590972Y-140346863D01*
X141523978Y-140327023D01*
X141478345Y-140274114D01*
X141467682Y-140212623D01*
X141485300Y-140000005D01*
X141485300Y-139999993D01*
X141466135Y-139768702D01*
X141466133Y-139768691D01*
X141409157Y-139543699D01*
X141315924Y-139331151D01*
X141188983Y-139136852D01*
X141188980Y-139136849D01*
X141188979Y-139136847D01*
X141031784Y-138966087D01*
X141031779Y-138966083D01*
X141031777Y-138966081D01*
X140848634Y-138823535D01*
X140848628Y-138823531D01*
X140644504Y-138713064D01*
X140644495Y-138713061D01*
X140424984Y-138637702D01*
X140244428Y-138607573D01*
X140196049Y-138599500D01*
X139963951Y-138599500D01*
X139918164Y-138607140D01*
X139735015Y-138637702D01*
X139515504Y-138713061D01*
X139515495Y-138713064D01*
X139311371Y-138823531D01*
X139311365Y-138823535D01*
X139128222Y-138966081D01*
X139128219Y-138966084D01*
X139128216Y-138966086D01*
X139128216Y-138966087D01*
X139096999Y-138999998D01*
X138971016Y-139136852D01*
X138913809Y-139224416D01*
X138860662Y-139269773D01*
X138791431Y-139279197D01*
X138728095Y-139249695D01*
X138706191Y-139224416D01*
X138648983Y-139136852D01*
X138648980Y-139136849D01*
X138648979Y-139136847D01*
X138491784Y-138966087D01*
X138491779Y-138966083D01*
X138491777Y-138966081D01*
X138308634Y-138823535D01*
X138308628Y-138823531D01*
X138104504Y-138713064D01*
X138104495Y-138713061D01*
X137884984Y-138637702D01*
X137704428Y-138607573D01*
X137656049Y-138599500D01*
X137423951Y-138599500D01*
X137378164Y-138607140D01*
X137195015Y-138637702D01*
X136975504Y-138713061D01*
X136975495Y-138713064D01*
X136771371Y-138823531D01*
X136771365Y-138823535D01*
X136588222Y-138966081D01*
X136588219Y-138966084D01*
X136588216Y-138966086D01*
X136588216Y-138966087D01*
X136556999Y-138999998D01*
X136431016Y-139136852D01*
X136373809Y-139224416D01*
X136320662Y-139269773D01*
X136251431Y-139279197D01*
X136188095Y-139249695D01*
X136166191Y-139224416D01*
X136108983Y-139136852D01*
X136108980Y-139136849D01*
X136108979Y-139136847D01*
X135951784Y-138966087D01*
X135951779Y-138966083D01*
X135951777Y-138966081D01*
X135768634Y-138823535D01*
X135768628Y-138823531D01*
X135564504Y-138713064D01*
X135564495Y-138713061D01*
X135344984Y-138637702D01*
X135164428Y-138607573D01*
X135116049Y-138599500D01*
X134883951Y-138599500D01*
X134838164Y-138607140D01*
X134655015Y-138637702D01*
X134435504Y-138713061D01*
X134435495Y-138713064D01*
X134231371Y-138823531D01*
X134231365Y-138823535D01*
X134048222Y-138966081D01*
X134048219Y-138966084D01*
X134048216Y-138966086D01*
X134048216Y-138966087D01*
X134016999Y-138999998D01*
X133891016Y-139136852D01*
X133833809Y-139224416D01*
X133780662Y-139269773D01*
X133711431Y-139279197D01*
X133648095Y-139249695D01*
X133626191Y-139224416D01*
X133568983Y-139136852D01*
X133568980Y-139136849D01*
X133568979Y-139136847D01*
X133411784Y-138966087D01*
X133411779Y-138966083D01*
X133411777Y-138966081D01*
X133228634Y-138823535D01*
X133228628Y-138823531D01*
X133024504Y-138713064D01*
X133024495Y-138713061D01*
X132804984Y-138637702D01*
X132624428Y-138607573D01*
X132576049Y-138599500D01*
X132343951Y-138599500D01*
X132298164Y-138607140D01*
X132115015Y-138637702D01*
X131895504Y-138713061D01*
X131895495Y-138713064D01*
X131691371Y-138823531D01*
X131691365Y-138823535D01*
X131508222Y-138966081D01*
X131508219Y-138966084D01*
X131508216Y-138966086D01*
X131508216Y-138966087D01*
X131476999Y-138999998D01*
X131351016Y-139136852D01*
X131224075Y-139331151D01*
X131130842Y-139543699D01*
X131073866Y-139768691D01*
X131073864Y-139768702D01*
X131054700Y-139999993D01*
X131054700Y-139999994D01*
X131054700Y-140000000D01*
X131068293Y-140164044D01*
X131070283Y-140188063D01*
X131056201Y-140256499D01*
X131007356Y-140306458D01*
X130946420Y-140322302D01*
X128513472Y-140316689D01*
X128446478Y-140296849D01*
X128400845Y-140243940D01*
X128390182Y-140182449D01*
X128390759Y-140175493D01*
X128400215Y-140061369D01*
X128405300Y-140000005D01*
X128405300Y-139999993D01*
X128386135Y-139768702D01*
X128386133Y-139768691D01*
X128329157Y-139543699D01*
X128235924Y-139331151D01*
X128108983Y-139136852D01*
X128108980Y-139136849D01*
X128108979Y-139136847D01*
X127951784Y-138966087D01*
X127951779Y-138966083D01*
X127951777Y-138966081D01*
X127768634Y-138823535D01*
X127768628Y-138823531D01*
X127588965Y-138726302D01*
X127560302Y-138704928D01*
X126172116Y-137316742D01*
X126162849Y-137306373D01*
X126140806Y-137278732D01*
X126090903Y-137235132D01*
X126084807Y-137229433D01*
X126077832Y-137222458D01*
X126077821Y-137222448D01*
X126046555Y-137196345D01*
X126044439Y-137194538D01*
X125971303Y-137130640D01*
X125971297Y-137130636D01*
X125971296Y-137130635D01*
X125967541Y-137128391D01*
X125951673Y-137117132D01*
X125948319Y-137114332D01*
X125948318Y-137114331D01*
X125948313Y-137114327D01*
X125863848Y-137066401D01*
X125861444Y-137065001D01*
X125778063Y-137015184D01*
X125773969Y-137013648D01*
X125756344Y-137005402D01*
X125752545Y-137003246D01*
X125660869Y-136971167D01*
X125658253Y-136970219D01*
X125567329Y-136936094D01*
X125567319Y-136936091D01*
X125563023Y-136935312D01*
X125544218Y-136930349D01*
X125540084Y-136928902D01*
X125540077Y-136928901D01*
X125444148Y-136913707D01*
X125441405Y-136913241D01*
X125345850Y-136895900D01*
X125345847Y-136895900D01*
X125341472Y-136895900D01*
X125322069Y-136894372D01*
X125317760Y-136893689D01*
X125220659Y-136895869D01*
X125217877Y-136895900D01*
X115230786Y-136895900D01*
X115216903Y-136895120D01*
X115207293Y-136894037D01*
X115181776Y-136891162D01*
X115181769Y-136891161D01*
X115118907Y-136895400D01*
X115115662Y-136895619D01*
X115107322Y-136895900D01*
X115097437Y-136895900D01*
X115056884Y-136899549D01*
X115054116Y-136899767D01*
X114957188Y-136906302D01*
X114957181Y-136906303D01*
X114952927Y-136907375D01*
X114933774Y-136910630D01*
X114929411Y-136911023D01*
X114929402Y-136911024D01*
X114835813Y-136936854D01*
X114833124Y-136937564D01*
X114738918Y-136961303D01*
X114734922Y-136963118D01*
X114716659Y-136969739D01*
X114712438Y-136970904D01*
X114712421Y-136970910D01*
X114624889Y-137013062D01*
X114622372Y-137014240D01*
X114533974Y-137054392D01*
X114530372Y-137056888D01*
X114513580Y-137066667D01*
X114509629Y-137068570D01*
X114509620Y-137068575D01*
X114431011Y-137125687D01*
X114428785Y-137127266D01*
X114387914Y-137155582D01*
X114348945Y-137182580D01*
X114345839Y-137185686D01*
X114331065Y-137198303D01*
X114327528Y-137200873D01*
X114327521Y-137200878D01*
X114260404Y-137271077D01*
X114258459Y-137273065D01*
X113818345Y-137713181D01*
X113757022Y-137746666D01*
X113730664Y-137749500D01*
X112374143Y-137749500D01*
X112342050Y-137745275D01*
X112226697Y-137714366D01*
X112226693Y-137714365D01*
X112226692Y-137714365D01*
X112226691Y-137714364D01*
X112226686Y-137714364D01*
X112000002Y-137694532D01*
X111999998Y-137694532D01*
X111773313Y-137714364D01*
X111773302Y-137714366D01*
X111553511Y-137773258D01*
X111553502Y-137773261D01*
X111347267Y-137869431D01*
X111347265Y-137869432D01*
X111160858Y-137999954D01*
X110999954Y-138160858D01*
X110869432Y-138347265D01*
X110869431Y-138347267D01*
X110773261Y-138553502D01*
X110773258Y-138553511D01*
X110714366Y-138773302D01*
X110714364Y-138773313D01*
X110694532Y-138999998D01*
X110694532Y-139000001D01*
X110714364Y-139226686D01*
X110714366Y-139226697D01*
X110773258Y-139446488D01*
X110773261Y-139446497D01*
X110869431Y-139652732D01*
X110869432Y-139652734D01*
X110999954Y-139839141D01*
X111160859Y-140000046D01*
X111233742Y-140051079D01*
X111277367Y-140105656D01*
X111284561Y-140175154D01*
X111253038Y-140237509D01*
X111192808Y-140272923D01*
X111162333Y-140276654D01*
X102704962Y-140257140D01*
X102637968Y-140237300D01*
X102592335Y-140184391D01*
X102582551Y-140115210D01*
X102611723Y-140051721D01*
X102634124Y-140031566D01*
X102679139Y-140000047D01*
X102840047Y-139839139D01*
X102970568Y-139652734D01*
X103066739Y-139446496D01*
X103125635Y-139226692D01*
X103145468Y-139000000D01*
X103144088Y-138984232D01*
X103139801Y-138935230D01*
X103125635Y-138773308D01*
X103066739Y-138553504D01*
X102970568Y-138347266D01*
X102840047Y-138160861D01*
X102840045Y-138160858D01*
X102679141Y-137999954D01*
X102492734Y-137869432D01*
X102492732Y-137869431D01*
X102286497Y-137773261D01*
X102286488Y-137773258D01*
X102066697Y-137714366D01*
X102066693Y-137714365D01*
X102066692Y-137714365D01*
X102066691Y-137714364D01*
X102066686Y-137714364D01*
X101840002Y-137694532D01*
X101839998Y-137694532D01*
X101613313Y-137714364D01*
X101613302Y-137714366D01*
X101393511Y-137773258D01*
X101393502Y-137773261D01*
X101187267Y-137869431D01*
X101187265Y-137869432D01*
X101000858Y-137999954D01*
X100839954Y-138160858D01*
X100709432Y-138347265D01*
X100709431Y-138347267D01*
X100613261Y-138553502D01*
X100613258Y-138553511D01*
X100554366Y-138773302D01*
X100554364Y-138773313D01*
X100534532Y-138999998D01*
X100534532Y-139000001D01*
X100554364Y-139226686D01*
X100554366Y-139226697D01*
X100613258Y-139446488D01*
X100613261Y-139446497D01*
X100709431Y-139652732D01*
X100709432Y-139652734D01*
X100839954Y-139839141D01*
X101000858Y-140000045D01*
X101040152Y-140027559D01*
X101083777Y-140082136D01*
X101090971Y-140151634D01*
X101059448Y-140213989D01*
X100999219Y-140249403D01*
X100968743Y-140253134D01*
X96681136Y-140243241D01*
X96614142Y-140223401D01*
X96568509Y-140170492D01*
X96558725Y-140101311D01*
X96587897Y-140037822D01*
X96646762Y-140000184D01*
X96647890Y-139999861D01*
X96705058Y-139983844D01*
X96869726Y-139912319D01*
X96968617Y-139869365D01*
X96968620Y-139869363D01*
X96968625Y-139869361D01*
X97214147Y-139720055D01*
X97437053Y-139538708D01*
X97633189Y-139328698D01*
X97798901Y-139093936D01*
X97931104Y-138838797D01*
X98027334Y-138568032D01*
X98085798Y-138286686D01*
X98105408Y-138000000D01*
X98085798Y-137713314D01*
X98027334Y-137431968D01*
X97982697Y-137306373D01*
X97952870Y-137222448D01*
X97931105Y-137161206D01*
X97931106Y-137161206D01*
X97798901Y-136906064D01*
X97633187Y-136671299D01*
X97554554Y-136587105D01*
X97437053Y-136461292D01*
X97214147Y-136279945D01*
X97214146Y-136279944D01*
X96968617Y-136130634D01*
X96705063Y-136016158D01*
X96705061Y-136016157D01*
X96705058Y-136016156D01*
X96575578Y-135979877D01*
X96428364Y-135938630D01*
X96428359Y-135938629D01*
X96428358Y-135938629D01*
X96241882Y-135912998D01*
X96143679Y-135899500D01*
X96143678Y-135899500D01*
X95856322Y-135899500D01*
X95856321Y-135899500D01*
X95571642Y-135938629D01*
X95571635Y-135938630D01*
X95363861Y-135996845D01*
X95294942Y-136016156D01*
X95294939Y-136016156D01*
X95294936Y-136016158D01*
X95294935Y-136016158D01*
X95031382Y-136130634D01*
X94785853Y-136279944D01*
X94562950Y-136461289D01*
X94366812Y-136671299D01*
X94201098Y-136906064D01*
X94068893Y-137161206D01*
X93988143Y-137388417D01*
X93947145Y-137444994D01*
X93882068Y-137470424D01*
X93813572Y-137456633D01*
X93763406Y-137408001D01*
X93747305Y-137347590D01*
X93726767Y-133681363D01*
X93746074Y-133614222D01*
X93798620Y-133568172D01*
X93867722Y-133557841D01*
X93871159Y-133558365D01*
X93876874Y-133559319D01*
X93883950Y-133560500D01*
X93883951Y-133560500D01*
X94116048Y-133560500D01*
X94116049Y-133560500D01*
X94344981Y-133522298D01*
X94564503Y-133446936D01*
X94768626Y-133336470D01*
X94778851Y-133328512D01*
X94902997Y-133231885D01*
X94951784Y-133193913D01*
X95108979Y-133023153D01*
X95235924Y-132828849D01*
X95329157Y-132616300D01*
X95386134Y-132391305D01*
X95392979Y-132308695D01*
X95405300Y-132160006D01*
X95405300Y-132159993D01*
X95386135Y-131928702D01*
X95386133Y-131928691D01*
X95329157Y-131703699D01*
X95235924Y-131491151D01*
X95108983Y-131296852D01*
X95108980Y-131296849D01*
X95108979Y-131296847D01*
X94951784Y-131126087D01*
X94773773Y-130987536D01*
X94732961Y-130930826D01*
X94729286Y-130861053D01*
X94763917Y-130800370D01*
X94773772Y-130791831D01*
X94798797Y-130772352D01*
X94798798Y-130772351D01*
X94044400Y-130017953D01*
X94125148Y-130005165D01*
X94238045Y-129947641D01*
X94327641Y-129858045D01*
X94385165Y-129745148D01*
X94397953Y-129664400D01*
X95151186Y-130417633D01*
X95235482Y-130288611D01*
X95328682Y-130076135D01*
X95385638Y-129851218D01*
X95404798Y-129620005D01*
X95404798Y-129619994D01*
X95385638Y-129388781D01*
X95328682Y-129163864D01*
X95235484Y-128951393D01*
X95151186Y-128822365D01*
X94397953Y-129575598D01*
X94385165Y-129494852D01*
X94327641Y-129381955D01*
X94238045Y-129292359D01*
X94125148Y-129234835D01*
X94044400Y-129222046D01*
X94798797Y-128467647D01*
X94798458Y-128462184D01*
X94813951Y-128394054D01*
X94863818Y-128345115D01*
X94922220Y-128330500D01*
X125577764Y-128330500D01*
X125644803Y-128350185D01*
G37*
%TD.AperFunction*%
%TA.AperFunction,Conductor*%
G36*
X128742808Y-117270185D02*
G01*
X128788563Y-117322989D01*
X128798507Y-117392147D01*
X128779578Y-117442320D01*
X128737918Y-117506087D01*
X128728074Y-117521154D01*
X128634842Y-117733699D01*
X128577866Y-117958691D01*
X128577864Y-117958702D01*
X128558700Y-118189993D01*
X128558700Y-118190006D01*
X128577864Y-118421297D01*
X128577866Y-118421308D01*
X128634842Y-118646300D01*
X128728075Y-118858848D01*
X128855016Y-119053147D01*
X128855019Y-119053151D01*
X128855021Y-119053153D01*
X129012216Y-119223913D01*
X129012219Y-119223915D01*
X129012222Y-119223918D01*
X129189818Y-119362147D01*
X129230631Y-119418857D01*
X129234306Y-119488630D01*
X129199674Y-119549313D01*
X129189818Y-119557853D01*
X129012222Y-119696081D01*
X129012219Y-119696084D01*
X128855016Y-119866852D01*
X128728075Y-120061151D01*
X128634842Y-120273699D01*
X128577866Y-120498691D01*
X128577864Y-120498702D01*
X128558700Y-120729993D01*
X128558700Y-120730006D01*
X128577864Y-120961297D01*
X128577866Y-120961308D01*
X128634842Y-121186300D01*
X128728075Y-121398848D01*
X128855016Y-121593147D01*
X128855019Y-121593151D01*
X128855021Y-121593153D01*
X129012216Y-121763913D01*
X129012219Y-121763915D01*
X129012222Y-121763918D01*
X129189818Y-121902147D01*
X129230631Y-121958857D01*
X129234306Y-122028630D01*
X129199674Y-122089313D01*
X129189818Y-122097853D01*
X129012222Y-122236081D01*
X129012219Y-122236084D01*
X129012216Y-122236086D01*
X129012216Y-122236087D01*
X129010522Y-122237927D01*
X128855016Y-122406852D01*
X128728075Y-122601151D01*
X128634842Y-122813699D01*
X128577866Y-123038691D01*
X128577864Y-123038702D01*
X128558700Y-123269993D01*
X128558700Y-123270006D01*
X128577864Y-123501297D01*
X128577866Y-123501308D01*
X128634842Y-123726300D01*
X128728075Y-123938848D01*
X128855016Y-124133147D01*
X128855019Y-124133151D01*
X128855021Y-124133153D01*
X129012216Y-124303913D01*
X129190225Y-124442462D01*
X129231038Y-124499173D01*
X129234713Y-124568946D01*
X129200082Y-124629629D01*
X129190225Y-124638170D01*
X129165201Y-124657646D01*
X129165200Y-124657647D01*
X129919600Y-125412046D01*
X129838852Y-125424835D01*
X129725955Y-125482359D01*
X129636359Y-125571955D01*
X129578835Y-125684852D01*
X129566046Y-125765600D01*
X128812811Y-125012365D01*
X128728516Y-125141390D01*
X128635317Y-125353864D01*
X128578361Y-125578781D01*
X128559202Y-125809994D01*
X128559202Y-125810005D01*
X128578361Y-126041218D01*
X128635317Y-126266135D01*
X128728515Y-126478606D01*
X128812812Y-126607633D01*
X129566046Y-125854399D01*
X129578835Y-125935148D01*
X129636359Y-126048045D01*
X129725955Y-126137641D01*
X129838852Y-126195165D01*
X129919599Y-126207953D01*
X129165201Y-126962351D01*
X129195649Y-126986050D01*
X129399697Y-127096476D01*
X129399706Y-127096479D01*
X129619139Y-127171811D01*
X129847993Y-127210000D01*
X130080007Y-127210000D01*
X130308860Y-127171811D01*
X130528293Y-127096479D01*
X130528301Y-127096476D01*
X130732355Y-126986047D01*
X130762797Y-126962351D01*
X130762798Y-126962350D01*
X130008401Y-126207953D01*
X130089148Y-126195165D01*
X130202045Y-126137641D01*
X130291641Y-126048045D01*
X130349165Y-125935148D01*
X130361953Y-125854400D01*
X131115186Y-126607633D01*
X131199482Y-126478611D01*
X131292682Y-126266135D01*
X131349638Y-126041218D01*
X131368798Y-125810005D01*
X131368798Y-125809994D01*
X131349638Y-125578781D01*
X131292682Y-125353864D01*
X131199484Y-125141393D01*
X131115186Y-125012365D01*
X130361953Y-125765598D01*
X130349165Y-125684852D01*
X130291641Y-125571955D01*
X130202045Y-125482359D01*
X130089148Y-125424835D01*
X130008400Y-125412046D01*
X130762797Y-124657647D01*
X130762458Y-124652184D01*
X130777951Y-124584054D01*
X130827818Y-124535115D01*
X130886220Y-124520500D01*
X133683764Y-124520500D01*
X133750803Y-124540185D01*
X133771445Y-124556819D01*
X142349782Y-133135156D01*
X142359048Y-133145524D01*
X142381092Y-133173166D01*
X142430995Y-133216766D01*
X142437091Y-133222465D01*
X142444071Y-133229445D01*
X142444081Y-133229453D01*
X142444108Y-133229478D01*
X142444114Y-133229488D01*
X142446039Y-133231413D01*
X142445566Y-133231885D01*
X142480307Y-133289239D01*
X142478450Y-133359084D01*
X142439127Y-133416838D01*
X142374822Y-133444163D01*
X142360443Y-133445000D01*
X134331937Y-133445000D01*
X134264898Y-133425315D01*
X134244256Y-133408681D01*
X127085916Y-126250342D01*
X127076649Y-126239973D01*
X127054606Y-126212332D01*
X127004703Y-126168732D01*
X126998607Y-126163033D01*
X126991632Y-126156058D01*
X126991621Y-126156048D01*
X126960355Y-126129945D01*
X126958239Y-126128138D01*
X126885103Y-126064240D01*
X126885097Y-126064236D01*
X126885096Y-126064235D01*
X126881341Y-126061991D01*
X126865473Y-126050732D01*
X126862119Y-126047932D01*
X126862118Y-126047931D01*
X126862113Y-126047927D01*
X126777648Y-126000001D01*
X126775244Y-125998601D01*
X126691863Y-125948784D01*
X126687769Y-125947248D01*
X126670144Y-125939002D01*
X126666345Y-125936846D01*
X126574669Y-125904767D01*
X126572053Y-125903819D01*
X126481129Y-125869694D01*
X126481119Y-125869691D01*
X126476823Y-125868912D01*
X126458018Y-125863949D01*
X126453884Y-125862502D01*
X126453877Y-125862501D01*
X126357948Y-125847307D01*
X126355205Y-125846841D01*
X126259650Y-125829500D01*
X126259647Y-125829500D01*
X126255272Y-125829500D01*
X126235869Y-125827972D01*
X126231560Y-125827289D01*
X126134459Y-125829469D01*
X126131677Y-125829500D01*
X117818665Y-125829500D01*
X117751626Y-125809815D01*
X117705871Y-125757011D01*
X117695927Y-125687853D01*
X117724952Y-125624297D01*
X117745775Y-125605185D01*
X117807033Y-125560678D01*
X117809122Y-125559195D01*
X117889054Y-125503820D01*
X117892143Y-125500730D01*
X117906945Y-125488088D01*
X117910478Y-125485522D01*
X117977639Y-125415275D01*
X117979496Y-125413376D01*
X126106055Y-117286819D01*
X126167378Y-117253334D01*
X126193736Y-117250500D01*
X128675769Y-117250500D01*
X128742808Y-117270185D01*
G37*
%TD.AperFunction*%
%TA.AperFunction,Conductor*%
G36*
X145082434Y-117270185D02*
G01*
X145128189Y-117322989D01*
X145138133Y-117392147D01*
X145109108Y-117455703D01*
X145091560Y-117472351D01*
X145061278Y-117495920D01*
X145048217Y-117506086D01*
X144891016Y-117676852D01*
X144764075Y-117871151D01*
X144670842Y-118083699D01*
X144613866Y-118308691D01*
X144613864Y-118308702D01*
X144594700Y-118539993D01*
X144594700Y-118540006D01*
X144613864Y-118771297D01*
X144613866Y-118771308D01*
X144670842Y-118996300D01*
X144764075Y-119208848D01*
X144891016Y-119403147D01*
X144891019Y-119403151D01*
X144891021Y-119403153D01*
X145048216Y-119573913D01*
X145205185Y-119696086D01*
X145226225Y-119712462D01*
X145267038Y-119769173D01*
X145270713Y-119838946D01*
X145236082Y-119899629D01*
X145226225Y-119908170D01*
X145201201Y-119927646D01*
X145201200Y-119927647D01*
X145955600Y-120682046D01*
X145874852Y-120694835D01*
X145761955Y-120752359D01*
X145672359Y-120841955D01*
X145614835Y-120954852D01*
X145602046Y-121035600D01*
X144848811Y-120282365D01*
X144764516Y-120411390D01*
X144671317Y-120623864D01*
X144614361Y-120848781D01*
X144595202Y-121079994D01*
X144595202Y-121080005D01*
X144614361Y-121311218D01*
X144671317Y-121536135D01*
X144764515Y-121748606D01*
X144848812Y-121877633D01*
X145602046Y-121124399D01*
X145614835Y-121205148D01*
X145672359Y-121318045D01*
X145761955Y-121407641D01*
X145874852Y-121465165D01*
X145955599Y-121477953D01*
X145201201Y-122232351D01*
X145201541Y-122237816D01*
X145186048Y-122305946D01*
X145136181Y-122354885D01*
X145077779Y-122369500D01*
X143095836Y-122369500D01*
X143028797Y-122349815D01*
X143008155Y-122333181D01*
X138137155Y-117462181D01*
X138103670Y-117400858D01*
X138108654Y-117331166D01*
X138150526Y-117275233D01*
X138215990Y-117250816D01*
X138224836Y-117250500D01*
X145015395Y-117250500D01*
X145082434Y-117270185D01*
G37*
%TD.AperFunction*%
%TD*%
M02*
