%TF.GenerationSoftware,KiCad,Pcbnew,7.0.11+dfsg-1build4*%
%TF.CreationDate,2024-10-08T11:47:21+02:00*%
%TF.ProjectId,BertheVarioTac-Shema,42657274-6865-4566-9172-696f5461632d,rev?*%
%TF.SameCoordinates,Original*%
%TF.FileFunction,Copper,L1,Top*%
%TF.FilePolarity,Positive*%
%FSLAX46Y46*%
G04 Gerber Fmt 4.6, Leading zero omitted, Abs format (unit mm)*
G04 Created by KiCad (PCBNEW 7.0.11+dfsg-1build4) date 2024-10-08 11:47:21*
%MOMM*%
%LPD*%
G01*
G04 APERTURE LIST*
%TA.AperFunction,ComponentPad*%
%ADD10C,1.800000*%
%TD*%
%TA.AperFunction,ComponentPad*%
%ADD11C,1.600000*%
%TD*%
%TA.AperFunction,ComponentPad*%
%ADD12O,1.600000X1.600000*%
%TD*%
%TA.AperFunction,Conductor*%
%ADD13C,1.500000*%
%TD*%
G04 APERTURE END LIST*
D10*
%TO.P,Usb-C-charger1,1,B-*%
%TO.N,GNDREF*%
X168000000Y-103000000D03*
%TO.P,Usb-C-charger1,2,+*%
%TO.N,Net-(BT1-+)*%
X168000000Y-112000000D03*
%TD*%
%TO.P,QMC5883_Mag1,1,VCC*%
%TO.N,Net-(BMP180_Press1-VIN)*%
X94000000Y-133160000D03*
%TO.P,QMC5883_Mag1,2,GND*%
%TO.N,GNDREF*%
X94000000Y-130620000D03*
%TO.P,QMC5883_Mag1,3,SCL*%
%TO.N,Net-(BMP180_Press1-SCL)*%
X94000000Y-128080000D03*
%TO.P,QMC5883_Mag1,4,SDA*%
%TO.N,Net-(BMP180_Press1-SDA)*%
X94000000Y-125540000D03*
%TO.P,QMC5883_Mag1,5*%
%TO.N,N/C*%
X94000000Y-123000000D03*
%TD*%
%TO.P,GPS-NEO6M1,1,GND*%
%TO.N,GNDREF*%
X134000000Y-126620000D03*
%TO.P,GPS-NEO6M1,2,TX*%
%TO.N,Net-(GPS-NEO6M1-TX)*%
X134000000Y-124080000D03*
%TO.P,GPS-NEO6M1,3,RX*%
%TO.N,unconnected-(GPS-NEO6M1-RX-Pad3)*%
X134000000Y-121540000D03*
%TO.P,GPS-NEO6M1,4,VCC*%
%TO.N,Net-(BMP180_Press1-VIN)*%
X134000000Y-119000000D03*
%TD*%
%TO.P,Lipo-1S-to-5V1,1,GND*%
%TO.N,GNDREF*%
X135460000Y-106500000D03*
%TO.P,Lipo-1S-to-5V1,2,IN_3.7v*%
%TO.N,Net-(Lipo-1S-to-5V1-IN_3.7v)*%
X138000000Y-106500000D03*
%TO.P,Lipo-1S-to-5V1,3,OUT_5V*%
%TO.N,Net-(Lipo-1S-to-5V1-OUT_5V)*%
X140540000Y-106500000D03*
%TD*%
%TO.P,BMP180_Press1,1,SDA*%
%TO.N,Net-(BMP180_Press1-SDA)*%
X145702000Y-125200000D03*
%TO.P,BMP180_Press1,2,SCL*%
%TO.N,Net-(BMP180_Press1-SCL)*%
X145702000Y-127740000D03*
%TO.P,BMP180_Press1,3,GND*%
%TO.N,GNDREF*%
X145702000Y-130280000D03*
%TO.P,BMP180_Press1,4,VIN*%
%TO.N,Net-(BMP180_Press1-VIN)*%
X145702000Y-132820000D03*
%TD*%
%TO.P,SW1,1*%
%TO.N,Net-(Lipo-1S-to-5V1-IN_3.7v)*%
X167000000Y-132540000D03*
%TO.P,SW1,2*%
%TO.N,Net-(BT1-+)*%
X167000000Y-130000000D03*
%TD*%
D11*
%TO.P,R1,1*%
%TO.N,Net-(R1-Pad1)*%
X101840000Y-139000000D03*
D12*
%TO.P,R1,2*%
%TO.N,Net-(P4-Pin_1)*%
X112000000Y-139000000D03*
%TD*%
D10*
%TO.P,CN1,1,Pin_1*%
%TO.N,Net-(BMP180_Press1-VIN)*%
X153000000Y-140000000D03*
%TO.P,CN1,2,Pin_2*%
%TO.N,Net-(BMP180_Press1-SDA)*%
X150460000Y-140000000D03*
%TO.P,CN1,3,Pin_3*%
%TO.N,Net-(BMP180_Press1-SCL)*%
X147920000Y-140000000D03*
%TO.P,CN1,4,Pin_4*%
%TO.N,GNDREF*%
X145380000Y-140000000D03*
%TD*%
%TO.P,S1,1,1*%
%TO.N,Net-(P4-Pin_2)*%
X119000000Y-140000000D03*
%TO.P,S1,2,2*%
%TO.N,Net-(R1-Pad1)*%
X116460000Y-140000000D03*
%TD*%
%TO.P,P4,1,Pin_1*%
%TO.N,Net-(P4-Pin_1)*%
X127000000Y-140000000D03*
%TO.P,P4,2,Pin_2*%
%TO.N,Net-(P4-Pin_2)*%
X124460000Y-140000000D03*
%TD*%
%TO.P,BT1,1,+*%
%TO.N,Net-(BT1-+)*%
X172000000Y-130000000D03*
%TO.P,BT1,2,-*%
%TO.N,GNDREF*%
X172000000Y-132540000D03*
%TD*%
%TO.P,P1,1,Pin_1*%
%TO.N,Net-(Lipo-1S-to-5V1-OUT_5V)*%
X166540000Y-140000000D03*
%TO.P,P1,2,Pin_2*%
%TO.N,Net-(GPS-NEO6M1-TX)*%
X164000000Y-140000000D03*
%TO.P,P1,3,Pin_3*%
%TO.N,unconnected-(P1-Pin_3-Pad3)*%
X161460000Y-140000000D03*
%TO.P,P1,4,Pin_4*%
%TO.N,GNDREF*%
X158920000Y-140000000D03*
%TD*%
%TO.P,P5,1,1*%
%TO.N,Net-(Lipo-1S-to-5V1-IN_3.7v)*%
X112000000Y-99000000D03*
%TO.P,P5,2,2*%
%TO.N,Net-(P3-Pin_3)*%
X114500000Y-103000000D03*
%TO.P,P5,3,3*%
%TO.N,GNDREF*%
X117000000Y-99000000D03*
%TD*%
%TO.P,P3,1,Pin_1*%
%TO.N,unconnected-(P3-Pin_1-Pad1)*%
X140080000Y-140000000D03*
%TO.P,P3,2,Pin_2*%
%TO.N,unconnected-(P3-Pin_2-Pad2)*%
X137540000Y-140000000D03*
%TO.P,P3,3,Pin_3*%
%TO.N,Net-(P3-Pin_3)*%
X135000000Y-140000000D03*
%TO.P,P3,4,Pin_4*%
%TO.N,unconnected-(P3-Pin_4-Pad4)*%
X132460000Y-140000000D03*
%TD*%
D13*
%TO.N,Net-(Lipo-1S-to-5V1-IN_3.7v)*%
X163902400Y-132540000D02*
X167000000Y-132540000D01*
X138000000Y-106637600D02*
X163902400Y-132540000D01*
X138000000Y-106500000D02*
X138000000Y-106637600D01*
%TO.N,Net-(BMP180_Press1-SCL)*%
X94431000Y-128511000D02*
X94000000Y-128080000D01*
X141697400Y-128511000D02*
X94431000Y-128511000D01*
X142468400Y-127740000D02*
X141697400Y-128511000D01*
X145702000Y-127740000D02*
X142468400Y-127740000D01*
X145792200Y-127740000D02*
X145702000Y-127740000D01*
X147920000Y-129867800D02*
X145792200Y-127740000D01*
X147920000Y-140000000D02*
X147920000Y-129867800D01*
%TO.N,Net-(BMP180_Press1-SDA)*%
X101952000Y-125540000D02*
X94000000Y-125540000D01*
X110345600Y-117146400D02*
X101952000Y-125540000D01*
X137648400Y-117146400D02*
X110345600Y-117146400D01*
X145702000Y-125200000D02*
X137648400Y-117146400D01*
X145839600Y-125200000D02*
X145702000Y-125200000D01*
X150460000Y-129820400D02*
X145839600Y-125200000D01*
X150460000Y-140000000D02*
X150460000Y-129820400D01*
%TO.N,Net-(BMP180_Press1-VIN)*%
X94340000Y-132820000D02*
X94000000Y-133160000D01*
X145702000Y-132820000D02*
X94340000Y-132820000D01*
%TO.N,Net-(P4-Pin_2)*%
X124460000Y-140000000D02*
X119000000Y-140000000D01*
%TO.N,Net-(BT1-+)*%
X168000000Y-130000000D02*
X168000000Y-112000000D01*
X172000000Y-130000000D02*
X168000000Y-130000000D01*
X168000000Y-130000000D02*
X167000000Y-130000000D01*
%TO.N,Net-(R1-Pad1)*%
X113691200Y-137231200D02*
X116460000Y-140000000D01*
X103608800Y-137231200D02*
X113691200Y-137231200D01*
X101840000Y-139000000D02*
X103608800Y-137231200D01*
%TD*%
%TA.AperFunction,Conductor*%
%TO.N,GNDREF*%
G36*
X176260171Y-93615943D02*
G01*
X176327183Y-93635720D01*
X176372865Y-93688587D01*
X176384000Y-93739828D01*
X176427127Y-140302840D01*
X176407504Y-140369898D01*
X176354743Y-140415702D01*
X176302841Y-140426955D01*
X168040445Y-140407890D01*
X167973451Y-140388050D01*
X167927818Y-140335141D01*
X167918034Y-140265960D01*
X167920524Y-140253454D01*
X167926134Y-140231305D01*
X167926141Y-140231220D01*
X167945300Y-140000006D01*
X167945300Y-139999993D01*
X167926135Y-139768702D01*
X167926133Y-139768691D01*
X167869157Y-139543699D01*
X167775924Y-139331151D01*
X167648983Y-139136852D01*
X167648980Y-139136849D01*
X167648979Y-139136847D01*
X167491784Y-138966087D01*
X167491779Y-138966083D01*
X167491777Y-138966081D01*
X167308634Y-138823535D01*
X167308628Y-138823531D01*
X167104504Y-138713064D01*
X167104495Y-138713061D01*
X166884984Y-138637702D01*
X166704428Y-138607573D01*
X166656049Y-138599500D01*
X166423951Y-138599500D01*
X166378164Y-138607140D01*
X166195015Y-138637702D01*
X165975504Y-138713061D01*
X165975495Y-138713064D01*
X165771371Y-138823531D01*
X165771365Y-138823535D01*
X165588222Y-138966081D01*
X165588219Y-138966084D01*
X165588216Y-138966086D01*
X165588216Y-138966087D01*
X165556999Y-138999998D01*
X165431016Y-139136852D01*
X165373809Y-139224416D01*
X165320662Y-139269773D01*
X165251431Y-139279197D01*
X165188095Y-139249695D01*
X165166191Y-139224416D01*
X165108983Y-139136852D01*
X165108980Y-139136849D01*
X165108979Y-139136847D01*
X164951784Y-138966087D01*
X164951779Y-138966083D01*
X164951777Y-138966081D01*
X164768634Y-138823535D01*
X164768628Y-138823531D01*
X164564504Y-138713064D01*
X164564495Y-138713061D01*
X164344984Y-138637702D01*
X164164428Y-138607573D01*
X164116049Y-138599500D01*
X163883951Y-138599500D01*
X163838164Y-138607140D01*
X163655015Y-138637702D01*
X163435504Y-138713061D01*
X163435495Y-138713064D01*
X163231371Y-138823531D01*
X163231365Y-138823535D01*
X163048222Y-138966081D01*
X163048219Y-138966084D01*
X163048216Y-138966086D01*
X163048216Y-138966087D01*
X163016999Y-138999998D01*
X162891016Y-139136852D01*
X162833809Y-139224416D01*
X162780662Y-139269773D01*
X162711431Y-139279197D01*
X162648095Y-139249695D01*
X162626191Y-139224416D01*
X162568983Y-139136852D01*
X162568980Y-139136849D01*
X162568979Y-139136847D01*
X162411784Y-138966087D01*
X162411779Y-138966083D01*
X162411777Y-138966081D01*
X162228634Y-138823535D01*
X162228628Y-138823531D01*
X162024504Y-138713064D01*
X162024495Y-138713061D01*
X161804984Y-138637702D01*
X161624428Y-138607573D01*
X161576049Y-138599500D01*
X161343951Y-138599500D01*
X161298164Y-138607140D01*
X161115015Y-138637702D01*
X160895504Y-138713061D01*
X160895495Y-138713064D01*
X160691371Y-138823531D01*
X160691365Y-138823535D01*
X160508222Y-138966081D01*
X160508219Y-138966084D01*
X160508216Y-138966086D01*
X160508216Y-138966087D01*
X160390524Y-139093936D01*
X160351015Y-139136854D01*
X160293509Y-139224874D01*
X160240363Y-139270230D01*
X160171132Y-139279654D01*
X160107796Y-139250152D01*
X160085892Y-139224874D01*
X160071186Y-139202365D01*
X159317953Y-139955598D01*
X159305165Y-139874852D01*
X159247641Y-139761955D01*
X159158045Y-139672359D01*
X159045148Y-139614835D01*
X158964400Y-139602046D01*
X159718797Y-138847647D01*
X159718797Y-138847645D01*
X159688360Y-138823955D01*
X159688354Y-138823951D01*
X159484302Y-138713523D01*
X159484293Y-138713520D01*
X159264860Y-138638188D01*
X159036007Y-138600000D01*
X158803993Y-138600000D01*
X158575139Y-138638188D01*
X158355706Y-138713520D01*
X158355697Y-138713523D01*
X158151650Y-138823949D01*
X158121200Y-138847647D01*
X158875600Y-139602046D01*
X158794852Y-139614835D01*
X158681955Y-139672359D01*
X158592359Y-139761955D01*
X158534835Y-139874852D01*
X158522046Y-139955600D01*
X157768811Y-139202365D01*
X157684516Y-139331390D01*
X157591317Y-139543864D01*
X157534361Y-139768781D01*
X157515202Y-139999994D01*
X157515202Y-140000005D01*
X157534361Y-140231220D01*
X157535206Y-140236283D01*
X157533500Y-140236567D01*
X157531146Y-140298778D01*
X157491177Y-140356086D01*
X157426569Y-140382687D01*
X157413289Y-140383370D01*
X154507998Y-140376666D01*
X154441004Y-140356826D01*
X154395371Y-140303917D01*
X154385825Y-140236425D01*
X154385711Y-140236416D01*
X154385752Y-140235909D01*
X154385587Y-140234736D01*
X154385976Y-140232254D01*
X154386134Y-140231303D01*
X154386135Y-140231297D01*
X154395896Y-140113491D01*
X154405300Y-140000006D01*
X154405300Y-139999993D01*
X154386135Y-139768702D01*
X154386133Y-139768691D01*
X154329157Y-139543699D01*
X154235924Y-139331151D01*
X154108983Y-139136852D01*
X154108980Y-139136849D01*
X154108979Y-139136847D01*
X153951784Y-138966087D01*
X153951779Y-138966083D01*
X153951777Y-138966081D01*
X153768634Y-138823535D01*
X153768628Y-138823531D01*
X153564504Y-138713064D01*
X153564495Y-138713061D01*
X153344984Y-138637702D01*
X153164428Y-138607573D01*
X153116049Y-138599500D01*
X152883951Y-138599500D01*
X152838164Y-138607140D01*
X152655015Y-138637702D01*
X152435504Y-138713061D01*
X152435495Y-138713064D01*
X152231371Y-138823531D01*
X152231365Y-138823535D01*
X152048222Y-138966081D01*
X152048219Y-138966084D01*
X152048216Y-138966086D01*
X152048216Y-138966087D01*
X151930916Y-139093509D01*
X151925730Y-139099143D01*
X151865843Y-139135133D01*
X151796005Y-139133033D01*
X151738389Y-139093509D01*
X151711287Y-139029110D01*
X151710500Y-139015160D01*
X151710500Y-138000000D01*
X171894592Y-138000000D01*
X171914201Y-138286680D01*
X171914201Y-138286684D01*
X171914202Y-138286686D01*
X171926790Y-138347265D01*
X171972666Y-138568034D01*
X171972667Y-138568037D01*
X172068894Y-138838793D01*
X172068893Y-138838793D01*
X172201098Y-139093935D01*
X172366812Y-139328700D01*
X172441655Y-139408836D01*
X172562947Y-139538708D01*
X172785853Y-139720055D01*
X172981677Y-139839139D01*
X173031382Y-139869365D01*
X173218237Y-139950526D01*
X173294942Y-139983844D01*
X173571642Y-140061371D01*
X173821920Y-140095771D01*
X173856321Y-140100500D01*
X173856322Y-140100500D01*
X174143679Y-140100500D01*
X174174370Y-140096281D01*
X174428358Y-140061371D01*
X174705058Y-139983844D01*
X174818015Y-139934779D01*
X174968617Y-139869365D01*
X174968620Y-139869363D01*
X174968625Y-139869361D01*
X175214147Y-139720055D01*
X175437053Y-139538708D01*
X175633189Y-139328698D01*
X175798901Y-139093936D01*
X175931104Y-138838797D01*
X176027334Y-138568032D01*
X176085798Y-138286686D01*
X176105408Y-138000000D01*
X176085798Y-137713314D01*
X176027334Y-137431968D01*
X175997347Y-137347594D01*
X175931105Y-137161206D01*
X175931106Y-137161206D01*
X175798901Y-136906064D01*
X175633187Y-136671299D01*
X175554554Y-136587105D01*
X175437053Y-136461292D01*
X175214147Y-136279945D01*
X175214146Y-136279944D01*
X174968617Y-136130634D01*
X174705063Y-136016158D01*
X174705061Y-136016157D01*
X174705058Y-136016156D01*
X174570625Y-135978490D01*
X174428364Y-135938630D01*
X174428359Y-135938629D01*
X174428358Y-135938629D01*
X174286018Y-135919064D01*
X174143679Y-135899500D01*
X174143678Y-135899500D01*
X173856322Y-135899500D01*
X173856321Y-135899500D01*
X173571642Y-135938629D01*
X173571635Y-135938630D01*
X173380543Y-135992172D01*
X173294942Y-136016156D01*
X173294939Y-136016156D01*
X173294936Y-136016158D01*
X173294935Y-136016158D01*
X173031382Y-136130634D01*
X172785853Y-136279944D01*
X172562950Y-136461289D01*
X172366812Y-136671299D01*
X172201098Y-136906064D01*
X172068894Y-137161206D01*
X171972667Y-137431962D01*
X171972666Y-137431965D01*
X171914201Y-137713319D01*
X171894592Y-138000000D01*
X151710500Y-138000000D01*
X151710500Y-129897575D01*
X151711280Y-129883690D01*
X151711696Y-129880000D01*
X151715237Y-129848572D01*
X151710781Y-129782475D01*
X151710500Y-129774134D01*
X151710500Y-129764250D01*
X151710500Y-129764245D01*
X151706843Y-129723615D01*
X151706626Y-129720852D01*
X151704957Y-129696092D01*
X151700096Y-129623987D01*
X151699027Y-129619747D01*
X151695768Y-129600558D01*
X151695726Y-129600099D01*
X151695377Y-129596212D01*
X151669532Y-129502568D01*
X151668840Y-129499948D01*
X151645096Y-129405716D01*
X151643290Y-129401740D01*
X151636654Y-129383439D01*
X151635493Y-129379230D01*
X151593340Y-129291699D01*
X151592189Y-129289239D01*
X151552007Y-129200774D01*
X151549517Y-129197180D01*
X151539725Y-129180364D01*
X151537829Y-129176427D01*
X151480739Y-129097850D01*
X151479128Y-129095579D01*
X151456550Y-129062989D01*
X151423820Y-129015745D01*
X151420725Y-129012650D01*
X151408087Y-128997853D01*
X151405521Y-128994321D01*
X151405518Y-128994318D01*
X151335322Y-128927203D01*
X151333333Y-128925258D01*
X146944568Y-124536493D01*
X146928441Y-124516634D01*
X146810980Y-124336849D01*
X146810979Y-124336847D01*
X146653784Y-124166087D01*
X146653779Y-124166083D01*
X146653777Y-124166081D01*
X146470634Y-124023535D01*
X146470628Y-124023531D01*
X146266504Y-123913064D01*
X146266495Y-123913061D01*
X146167300Y-123879007D01*
X146119882Y-123849407D01*
X138587216Y-116316742D01*
X138577949Y-116306373D01*
X138555906Y-116278732D01*
X138506003Y-116235132D01*
X138499907Y-116229433D01*
X138492932Y-116222458D01*
X138492921Y-116222448D01*
X138461655Y-116196345D01*
X138459539Y-116194538D01*
X138386403Y-116130640D01*
X138386397Y-116130636D01*
X138386396Y-116130635D01*
X138382641Y-116128391D01*
X138366773Y-116117132D01*
X138363419Y-116114332D01*
X138363418Y-116114331D01*
X138363413Y-116114327D01*
X138278948Y-116066401D01*
X138276544Y-116065001D01*
X138193163Y-116015184D01*
X138189069Y-116013648D01*
X138171444Y-116005402D01*
X138167645Y-116003246D01*
X138075969Y-115971167D01*
X138073353Y-115970219D01*
X137982429Y-115936094D01*
X137982419Y-115936091D01*
X137978123Y-115935312D01*
X137959318Y-115930349D01*
X137955184Y-115928902D01*
X137955177Y-115928901D01*
X137859248Y-115913707D01*
X137856505Y-115913241D01*
X137760950Y-115895900D01*
X137760947Y-115895900D01*
X137756572Y-115895900D01*
X137737169Y-115894372D01*
X137732860Y-115893689D01*
X137635759Y-115895869D01*
X137632977Y-115895900D01*
X110422786Y-115895900D01*
X110408902Y-115895120D01*
X110373777Y-115891162D01*
X110373769Y-115891161D01*
X110307667Y-115895619D01*
X110299325Y-115895900D01*
X110289438Y-115895900D01*
X110248851Y-115899552D01*
X110246082Y-115899770D01*
X110149190Y-115906303D01*
X110144949Y-115907372D01*
X110125776Y-115910630D01*
X110121408Y-115911023D01*
X110027785Y-115936862D01*
X110025095Y-115937572D01*
X109930919Y-115961302D01*
X109926922Y-115963118D01*
X109908659Y-115969739D01*
X109904431Y-115970906D01*
X109816916Y-116013049D01*
X109814400Y-116014226D01*
X109725976Y-116054391D01*
X109725971Y-116054394D01*
X109722375Y-116056886D01*
X109705571Y-116066671D01*
X109701631Y-116068568D01*
X109701629Y-116068569D01*
X109623060Y-116125651D01*
X109620795Y-116127258D01*
X109540945Y-116182580D01*
X109537839Y-116185686D01*
X109523065Y-116198303D01*
X109519528Y-116200873D01*
X109519521Y-116200878D01*
X109452404Y-116271077D01*
X109450459Y-116273065D01*
X101470345Y-124253181D01*
X101409022Y-124286666D01*
X101382664Y-124289500D01*
X94984605Y-124289500D01*
X94917566Y-124269815D01*
X94871811Y-124217011D01*
X94861867Y-124147853D01*
X94890892Y-124084297D01*
X94908439Y-124067648D01*
X94951784Y-124033913D01*
X95108979Y-123863153D01*
X95118428Y-123848691D01*
X95122832Y-123841948D01*
X95235924Y-123668849D01*
X95329157Y-123456300D01*
X95386134Y-123231305D01*
X95387332Y-123216847D01*
X95405300Y-123000006D01*
X95405300Y-122999993D01*
X95386135Y-122768702D01*
X95386133Y-122768691D01*
X95329157Y-122543699D01*
X95235924Y-122331151D01*
X95108983Y-122136852D01*
X95108980Y-122136849D01*
X95108979Y-122136847D01*
X94951784Y-121966087D01*
X94951779Y-121966083D01*
X94951777Y-121966081D01*
X94768634Y-121823535D01*
X94768628Y-121823531D01*
X94564504Y-121713064D01*
X94564495Y-121713061D01*
X94344984Y-121637702D01*
X94146875Y-121604644D01*
X94116049Y-121599500D01*
X93883951Y-121599500D01*
X93883950Y-121599500D01*
X93802881Y-121613027D01*
X93733516Y-121604644D01*
X93679695Y-121560091D01*
X93658504Y-121493512D01*
X93658478Y-121491653D01*
X93574493Y-106500005D01*
X134055202Y-106500005D01*
X134074361Y-106731218D01*
X134131317Y-106956135D01*
X134224515Y-107168606D01*
X134308812Y-107297633D01*
X135062046Y-106544399D01*
X135074835Y-106625148D01*
X135132359Y-106738045D01*
X135221955Y-106827641D01*
X135334852Y-106885165D01*
X135415599Y-106897953D01*
X134661201Y-107652351D01*
X134691649Y-107676050D01*
X134895697Y-107786476D01*
X134895706Y-107786479D01*
X135115139Y-107861811D01*
X135343993Y-107900000D01*
X135576007Y-107900000D01*
X135804860Y-107861811D01*
X136024293Y-107786479D01*
X136024301Y-107786476D01*
X136228355Y-107676047D01*
X136258797Y-107652351D01*
X136258798Y-107652350D01*
X135504401Y-106897953D01*
X135585148Y-106885165D01*
X135698045Y-106827641D01*
X135787641Y-106738045D01*
X135845165Y-106625148D01*
X135857953Y-106544400D01*
X136611185Y-107297632D01*
X136625891Y-107275125D01*
X136679037Y-107229768D01*
X136748268Y-107220344D01*
X136811604Y-107249846D01*
X136833508Y-107275123D01*
X136891021Y-107363153D01*
X137048216Y-107533913D01*
X137048219Y-107533915D01*
X137048222Y-107533918D01*
X137231365Y-107676464D01*
X137231375Y-107676471D01*
X137271683Y-107698284D01*
X137300533Y-107713897D01*
X137329196Y-107735270D01*
X162963582Y-133369656D01*
X162972848Y-133380024D01*
X162994892Y-133407666D01*
X163044795Y-133451266D01*
X163050891Y-133456965D01*
X163057866Y-133463940D01*
X163057877Y-133463950D01*
X163089139Y-133490050D01*
X163091254Y-133491856D01*
X163164404Y-133555765D01*
X163168150Y-133558003D01*
X163184024Y-133569265D01*
X163187381Y-133572068D01*
X163271916Y-133620034D01*
X163274178Y-133621352D01*
X163357636Y-133671215D01*
X163361727Y-133672750D01*
X163379355Y-133680996D01*
X163383155Y-133683153D01*
X163474896Y-133715254D01*
X163477398Y-133716161D01*
X163568376Y-133750307D01*
X163570965Y-133750776D01*
X163572674Y-133751087D01*
X163591489Y-133756053D01*
X163595617Y-133757498D01*
X163691637Y-133772705D01*
X163694232Y-133773146D01*
X163765832Y-133786140D01*
X163789852Y-133790500D01*
X163789853Y-133790500D01*
X163794228Y-133790500D01*
X163813631Y-133792028D01*
X163815338Y-133792297D01*
X163817940Y-133792710D01*
X163915021Y-133790531D01*
X163917804Y-133790500D01*
X166336768Y-133790500D01*
X166395786Y-133805446D01*
X166431830Y-133824951D01*
X166435497Y-133826936D01*
X166545258Y-133864617D01*
X166655015Y-133902297D01*
X166655017Y-133902297D01*
X166655019Y-133902298D01*
X166883951Y-133940500D01*
X166883952Y-133940500D01*
X167116048Y-133940500D01*
X167116049Y-133940500D01*
X167344981Y-133902298D01*
X167564503Y-133826936D01*
X167768626Y-133716470D01*
X167768989Y-133716188D01*
X167890776Y-133621397D01*
X167951784Y-133573913D01*
X168108979Y-133403153D01*
X168235924Y-133208849D01*
X168329157Y-132996300D01*
X168386134Y-132771305D01*
X168386135Y-132771297D01*
X168405300Y-132540006D01*
X168405300Y-132539993D01*
X168386135Y-132308702D01*
X168386133Y-132308691D01*
X168329157Y-132083699D01*
X168235924Y-131871151D01*
X168108983Y-131676852D01*
X168108980Y-131676849D01*
X168108979Y-131676847D01*
X167951784Y-131506087D01*
X167951779Y-131506083D01*
X167951777Y-131506081D01*
X167909389Y-131473089D01*
X167868576Y-131416379D01*
X167864901Y-131346606D01*
X167899533Y-131285923D01*
X167961474Y-131253596D01*
X167991113Y-131251361D01*
X168056330Y-131254290D01*
X168073993Y-131251897D01*
X168076027Y-131251622D01*
X168092670Y-131250500D01*
X171077778Y-131250500D01*
X171144817Y-131270185D01*
X171190572Y-131322989D01*
X171201540Y-131382184D01*
X171201200Y-131387647D01*
X171955600Y-132142046D01*
X171874852Y-132154835D01*
X171761955Y-132212359D01*
X171672359Y-132301955D01*
X171614835Y-132414852D01*
X171602046Y-132495600D01*
X170848811Y-131742365D01*
X170764516Y-131871390D01*
X170671317Y-132083864D01*
X170614361Y-132308781D01*
X170595202Y-132539994D01*
X170595202Y-132540005D01*
X170614361Y-132771218D01*
X170671317Y-132996135D01*
X170764515Y-133208606D01*
X170848812Y-133337633D01*
X171602046Y-132584399D01*
X171614835Y-132665148D01*
X171672359Y-132778045D01*
X171761955Y-132867641D01*
X171874852Y-132925165D01*
X171955599Y-132937953D01*
X171201201Y-133692351D01*
X171231649Y-133716050D01*
X171435697Y-133826476D01*
X171435706Y-133826479D01*
X171655139Y-133901811D01*
X171883993Y-133940000D01*
X172116007Y-133940000D01*
X172344860Y-133901811D01*
X172564293Y-133826479D01*
X172564301Y-133826476D01*
X172768355Y-133716047D01*
X172798797Y-133692351D01*
X172798798Y-133692350D01*
X172044401Y-132937953D01*
X172125148Y-132925165D01*
X172238045Y-132867641D01*
X172327641Y-132778045D01*
X172385165Y-132665148D01*
X172397953Y-132584400D01*
X173151186Y-133337633D01*
X173235482Y-133208611D01*
X173328682Y-132996135D01*
X173385638Y-132771218D01*
X173404798Y-132540005D01*
X173404798Y-132539994D01*
X173385638Y-132308781D01*
X173328682Y-132083864D01*
X173235484Y-131871393D01*
X173151186Y-131742365D01*
X172397953Y-132495598D01*
X172385165Y-132414852D01*
X172327641Y-132301955D01*
X172238045Y-132212359D01*
X172125148Y-132154835D01*
X172044400Y-132142046D01*
X172798797Y-131387647D01*
X172798797Y-131387646D01*
X172773773Y-131368169D01*
X172732961Y-131311459D01*
X172729286Y-131241686D01*
X172763918Y-131181003D01*
X172773760Y-131172473D01*
X172951784Y-131033913D01*
X173108979Y-130863153D01*
X173235924Y-130668849D01*
X173329157Y-130456300D01*
X173386134Y-130231305D01*
X173387071Y-130220000D01*
X173405300Y-130000006D01*
X173405300Y-129999993D01*
X173386135Y-129768702D01*
X173386133Y-129768691D01*
X173329157Y-129543699D01*
X173235924Y-129331151D01*
X173108983Y-129136852D01*
X173108980Y-129136849D01*
X173108979Y-129136847D01*
X172951784Y-128966087D01*
X172951779Y-128966083D01*
X172951777Y-128966081D01*
X172768634Y-128823535D01*
X172768628Y-128823531D01*
X172564504Y-128713064D01*
X172564495Y-128713061D01*
X172344984Y-128637702D01*
X172173282Y-128609050D01*
X172116049Y-128599500D01*
X171883951Y-128599500D01*
X171838164Y-128607140D01*
X171655015Y-128637702D01*
X171435501Y-128713062D01*
X171435486Y-128713069D01*
X171395786Y-128734554D01*
X171336768Y-128749500D01*
X169374500Y-128749500D01*
X169307461Y-128729815D01*
X169261706Y-128677011D01*
X169250500Y-128625500D01*
X169250500Y-112661619D01*
X169260943Y-112611810D01*
X169329157Y-112456300D01*
X169386134Y-112231305D01*
X169405300Y-112000000D01*
X169405300Y-111999993D01*
X169386135Y-111768702D01*
X169386133Y-111768691D01*
X169329157Y-111543699D01*
X169235924Y-111331151D01*
X169108983Y-111136852D01*
X169108980Y-111136849D01*
X169108979Y-111136847D01*
X168951784Y-110966087D01*
X168951779Y-110966083D01*
X168951777Y-110966081D01*
X168768634Y-110823535D01*
X168768628Y-110823531D01*
X168564504Y-110713064D01*
X168564495Y-110713061D01*
X168344984Y-110637702D01*
X168173282Y-110609050D01*
X168116049Y-110599500D01*
X167883951Y-110599500D01*
X167838164Y-110607140D01*
X167655015Y-110637702D01*
X167435504Y-110713061D01*
X167435495Y-110713064D01*
X167231371Y-110823531D01*
X167231365Y-110823535D01*
X167048222Y-110966081D01*
X167048219Y-110966084D01*
X166891016Y-111136852D01*
X166764075Y-111331151D01*
X166670842Y-111543699D01*
X166613866Y-111768691D01*
X166613864Y-111768702D01*
X166594700Y-111999993D01*
X166594700Y-112000006D01*
X166613864Y-112231297D01*
X166613866Y-112231308D01*
X166670842Y-112456297D01*
X166670843Y-112456300D01*
X166739056Y-112611810D01*
X166749500Y-112661619D01*
X166749500Y-128517263D01*
X166729815Y-128584302D01*
X166677011Y-128630057D01*
X166655934Y-128637470D01*
X166655015Y-128637702D01*
X166435504Y-128713061D01*
X166435495Y-128713064D01*
X166231371Y-128823531D01*
X166231365Y-128823535D01*
X166048222Y-128966081D01*
X166048219Y-128966084D01*
X166048216Y-128966086D01*
X166048216Y-128966087D01*
X165992201Y-129026936D01*
X165891016Y-129136852D01*
X165764075Y-129331151D01*
X165670842Y-129543699D01*
X165613866Y-129768691D01*
X165613864Y-129768702D01*
X165594700Y-129999993D01*
X165594700Y-130000006D01*
X165613864Y-130231297D01*
X165613866Y-130231308D01*
X165670842Y-130456300D01*
X165764075Y-130668848D01*
X165891016Y-130863147D01*
X165891019Y-130863151D01*
X165891021Y-130863153D01*
X166048216Y-131033913D01*
X166091557Y-131067647D01*
X166132370Y-131124356D01*
X166136045Y-131194129D01*
X166101414Y-131254813D01*
X166039472Y-131287140D01*
X166015395Y-131289500D01*
X164471737Y-131289500D01*
X164404698Y-131269815D01*
X164384056Y-131253181D01*
X141100954Y-107970080D01*
X141067469Y-107908757D01*
X141072453Y-107839065D01*
X141114325Y-107783132D01*
X141129613Y-107773346D01*
X141308626Y-107676470D01*
X141309170Y-107676047D01*
X141370129Y-107628600D01*
X141491784Y-107533913D01*
X141648979Y-107363153D01*
X141775924Y-107168849D01*
X141869157Y-106956300D01*
X141926134Y-106731305D01*
X141926135Y-106731297D01*
X141945300Y-106500006D01*
X141945300Y-106499993D01*
X141926135Y-106268702D01*
X141926133Y-106268691D01*
X141869157Y-106043699D01*
X141775924Y-105831151D01*
X141648983Y-105636852D01*
X141648980Y-105636849D01*
X141648979Y-105636847D01*
X141491784Y-105466087D01*
X141491779Y-105466083D01*
X141491777Y-105466081D01*
X141308634Y-105323535D01*
X141308628Y-105323531D01*
X141104504Y-105213064D01*
X141104495Y-105213061D01*
X140884984Y-105137702D01*
X140713282Y-105109050D01*
X140656049Y-105099500D01*
X140423951Y-105099500D01*
X140378164Y-105107140D01*
X140195015Y-105137702D01*
X139975504Y-105213061D01*
X139975495Y-105213064D01*
X139771371Y-105323531D01*
X139771365Y-105323535D01*
X139588222Y-105466081D01*
X139588219Y-105466084D01*
X139431016Y-105636852D01*
X139373809Y-105724416D01*
X139320662Y-105769773D01*
X139251431Y-105779197D01*
X139188095Y-105749695D01*
X139166191Y-105724416D01*
X139108983Y-105636852D01*
X139108980Y-105636849D01*
X139108979Y-105636847D01*
X138951784Y-105466087D01*
X138951779Y-105466083D01*
X138951777Y-105466081D01*
X138768634Y-105323535D01*
X138768628Y-105323531D01*
X138564504Y-105213064D01*
X138564495Y-105213061D01*
X138344984Y-105137702D01*
X138173282Y-105109050D01*
X138116049Y-105099500D01*
X137883951Y-105099500D01*
X137838164Y-105107140D01*
X137655015Y-105137702D01*
X137435504Y-105213061D01*
X137435495Y-105213064D01*
X137231371Y-105323531D01*
X137231365Y-105323535D01*
X137048222Y-105466081D01*
X137048219Y-105466084D01*
X136891015Y-105636854D01*
X136833509Y-105724874D01*
X136780363Y-105770230D01*
X136711132Y-105779654D01*
X136647796Y-105750152D01*
X136625892Y-105724874D01*
X136611186Y-105702365D01*
X135857953Y-106455598D01*
X135845165Y-106374852D01*
X135787641Y-106261955D01*
X135698045Y-106172359D01*
X135585148Y-106114835D01*
X135504400Y-106102046D01*
X136258797Y-105347647D01*
X136258797Y-105347645D01*
X136228360Y-105323955D01*
X136228354Y-105323951D01*
X136024302Y-105213523D01*
X136024293Y-105213520D01*
X135804860Y-105138188D01*
X135576007Y-105100000D01*
X135343993Y-105100000D01*
X135115139Y-105138188D01*
X134895706Y-105213520D01*
X134895697Y-105213523D01*
X134691650Y-105323949D01*
X134661200Y-105347647D01*
X135415600Y-106102046D01*
X135334852Y-106114835D01*
X135221955Y-106172359D01*
X135132359Y-106261955D01*
X135074835Y-106374852D01*
X135062046Y-106455600D01*
X134308811Y-105702365D01*
X134224516Y-105831390D01*
X134131317Y-106043864D01*
X134074361Y-106268781D01*
X134055202Y-106499994D01*
X134055202Y-106500005D01*
X93574493Y-106500005D01*
X93554885Y-103000006D01*
X113094700Y-103000006D01*
X113113864Y-103231297D01*
X113113866Y-103231308D01*
X113170842Y-103456300D01*
X113264075Y-103668848D01*
X113391016Y-103863147D01*
X113391019Y-103863151D01*
X113391021Y-103863153D01*
X113548216Y-104033913D01*
X113548219Y-104033915D01*
X113548222Y-104033918D01*
X113731365Y-104176464D01*
X113731371Y-104176468D01*
X113731374Y-104176470D01*
X113898860Y-104267109D01*
X113934652Y-104286479D01*
X113935497Y-104286936D01*
X114049487Y-104326068D01*
X114155015Y-104362297D01*
X114155017Y-104362297D01*
X114155019Y-104362298D01*
X114383951Y-104400500D01*
X114383952Y-104400500D01*
X114616048Y-104400500D01*
X114616049Y-104400500D01*
X114844981Y-104362298D01*
X115064503Y-104286936D01*
X115268626Y-104176470D01*
X115269170Y-104176047D01*
X115330129Y-104128600D01*
X115451784Y-104033913D01*
X115608979Y-103863153D01*
X115735924Y-103668849D01*
X115829157Y-103456300D01*
X115886134Y-103231305D01*
X115886135Y-103231297D01*
X115905300Y-103000006D01*
X115905300Y-103000005D01*
X166595202Y-103000005D01*
X166614361Y-103231218D01*
X166671317Y-103456135D01*
X166764515Y-103668606D01*
X166848812Y-103797633D01*
X167602046Y-103044399D01*
X167614835Y-103125148D01*
X167672359Y-103238045D01*
X167761955Y-103327641D01*
X167874852Y-103385165D01*
X167955599Y-103397953D01*
X167201201Y-104152351D01*
X167231649Y-104176050D01*
X167435697Y-104286476D01*
X167435706Y-104286479D01*
X167655139Y-104361811D01*
X167883993Y-104400000D01*
X168116007Y-104400000D01*
X168344860Y-104361811D01*
X168564293Y-104286479D01*
X168564301Y-104286476D01*
X168768355Y-104176047D01*
X168798797Y-104152351D01*
X168798798Y-104152350D01*
X168044401Y-103397953D01*
X168125148Y-103385165D01*
X168238045Y-103327641D01*
X168327641Y-103238045D01*
X168385165Y-103125148D01*
X168397953Y-103044400D01*
X169151186Y-103797633D01*
X169235482Y-103668611D01*
X169328682Y-103456135D01*
X169385638Y-103231218D01*
X169404798Y-103000005D01*
X169404798Y-102999994D01*
X169385638Y-102768781D01*
X169328682Y-102543864D01*
X169235484Y-102331393D01*
X169151186Y-102202365D01*
X168397953Y-102955598D01*
X168385165Y-102874852D01*
X168327641Y-102761955D01*
X168238045Y-102672359D01*
X168125148Y-102614835D01*
X168044400Y-102602046D01*
X168798797Y-101847647D01*
X168798797Y-101847645D01*
X168768360Y-101823955D01*
X168768354Y-101823951D01*
X168564302Y-101713523D01*
X168564293Y-101713520D01*
X168344860Y-101638188D01*
X168116007Y-101600000D01*
X167883993Y-101600000D01*
X167655139Y-101638188D01*
X167435706Y-101713520D01*
X167435697Y-101713523D01*
X167231650Y-101823949D01*
X167201200Y-101847647D01*
X167955600Y-102602046D01*
X167874852Y-102614835D01*
X167761955Y-102672359D01*
X167672359Y-102761955D01*
X167614835Y-102874852D01*
X167602046Y-102955600D01*
X166848811Y-102202365D01*
X166764516Y-102331390D01*
X166671317Y-102543864D01*
X166614361Y-102768781D01*
X166595202Y-102999994D01*
X166595202Y-103000005D01*
X115905300Y-103000005D01*
X115905300Y-102999993D01*
X115886135Y-102768702D01*
X115886133Y-102768691D01*
X115829157Y-102543699D01*
X115735924Y-102331151D01*
X115608983Y-102136852D01*
X115608980Y-102136849D01*
X115608979Y-102136847D01*
X115451784Y-101966087D01*
X115451779Y-101966083D01*
X115451777Y-101966081D01*
X115268634Y-101823535D01*
X115268628Y-101823531D01*
X115064504Y-101713064D01*
X115064495Y-101713061D01*
X114844984Y-101637702D01*
X114673282Y-101609050D01*
X114616049Y-101599500D01*
X114383951Y-101599500D01*
X114338164Y-101607140D01*
X114155015Y-101637702D01*
X113935504Y-101713061D01*
X113935495Y-101713064D01*
X113731371Y-101823531D01*
X113731365Y-101823535D01*
X113548222Y-101966081D01*
X113548219Y-101966084D01*
X113391016Y-102136852D01*
X113264075Y-102331151D01*
X113170842Y-102543699D01*
X113113866Y-102768691D01*
X113113864Y-102768702D01*
X113094700Y-102999993D01*
X113094700Y-103000006D01*
X93554885Y-103000006D01*
X93532476Y-99000006D01*
X110594700Y-99000006D01*
X110613864Y-99231297D01*
X110613866Y-99231308D01*
X110670842Y-99456300D01*
X110764075Y-99668848D01*
X110891016Y-99863147D01*
X110891019Y-99863151D01*
X110891021Y-99863153D01*
X111048216Y-100033913D01*
X111048219Y-100033915D01*
X111048222Y-100033918D01*
X111231365Y-100176464D01*
X111231371Y-100176468D01*
X111231374Y-100176470D01*
X111398860Y-100267109D01*
X111434652Y-100286479D01*
X111435497Y-100286936D01*
X111549487Y-100326068D01*
X111655015Y-100362297D01*
X111655017Y-100362297D01*
X111655019Y-100362298D01*
X111883951Y-100400500D01*
X111883952Y-100400500D01*
X112116048Y-100400500D01*
X112116049Y-100400500D01*
X112344981Y-100362298D01*
X112564503Y-100286936D01*
X112768626Y-100176470D01*
X112769170Y-100176047D01*
X112830129Y-100128600D01*
X112951784Y-100033913D01*
X113108979Y-99863153D01*
X113235924Y-99668849D01*
X113329157Y-99456300D01*
X113386134Y-99231305D01*
X113386135Y-99231297D01*
X113405300Y-99000006D01*
X113405300Y-99000005D01*
X115595202Y-99000005D01*
X115614361Y-99231218D01*
X115671317Y-99456135D01*
X115764515Y-99668606D01*
X115848812Y-99797633D01*
X116602046Y-99044399D01*
X116614835Y-99125148D01*
X116672359Y-99238045D01*
X116761955Y-99327641D01*
X116874852Y-99385165D01*
X116955599Y-99397953D01*
X116201201Y-100152351D01*
X116231649Y-100176050D01*
X116435697Y-100286476D01*
X116435706Y-100286479D01*
X116655139Y-100361811D01*
X116883993Y-100400000D01*
X117116007Y-100400000D01*
X117344860Y-100361811D01*
X117564293Y-100286479D01*
X117564301Y-100286476D01*
X117768355Y-100176047D01*
X117798797Y-100152351D01*
X117798798Y-100152350D01*
X117044401Y-99397953D01*
X117125148Y-99385165D01*
X117238045Y-99327641D01*
X117327641Y-99238045D01*
X117385165Y-99125148D01*
X117397953Y-99044400D01*
X118151186Y-99797633D01*
X118235482Y-99668611D01*
X118328682Y-99456135D01*
X118385638Y-99231218D01*
X118404798Y-99000005D01*
X118404798Y-98999994D01*
X118385638Y-98768781D01*
X118328682Y-98543864D01*
X118235484Y-98331393D01*
X118151186Y-98202365D01*
X117397953Y-98955598D01*
X117385165Y-98874852D01*
X117327641Y-98761955D01*
X117238045Y-98672359D01*
X117125148Y-98614835D01*
X117044400Y-98602046D01*
X117798797Y-97847647D01*
X117798797Y-97847645D01*
X117768360Y-97823955D01*
X117768354Y-97823951D01*
X117564302Y-97713523D01*
X117564293Y-97713520D01*
X117344860Y-97638188D01*
X117116007Y-97600000D01*
X116883993Y-97600000D01*
X116655139Y-97638188D01*
X116435706Y-97713520D01*
X116435697Y-97713523D01*
X116231650Y-97823949D01*
X116201200Y-97847647D01*
X116955600Y-98602046D01*
X116874852Y-98614835D01*
X116761955Y-98672359D01*
X116672359Y-98761955D01*
X116614835Y-98874852D01*
X116602046Y-98955600D01*
X115848811Y-98202365D01*
X115764516Y-98331390D01*
X115671317Y-98543864D01*
X115614361Y-98768781D01*
X115595202Y-98999994D01*
X115595202Y-99000005D01*
X113405300Y-99000005D01*
X113405300Y-98999993D01*
X113386135Y-98768702D01*
X113386133Y-98768691D01*
X113329157Y-98543699D01*
X113235924Y-98331151D01*
X113108983Y-98136852D01*
X113108980Y-98136849D01*
X113108979Y-98136847D01*
X112951784Y-97966087D01*
X112951779Y-97966083D01*
X112951777Y-97966081D01*
X112768634Y-97823535D01*
X112768628Y-97823531D01*
X112564504Y-97713064D01*
X112564495Y-97713061D01*
X112344984Y-97637702D01*
X112173282Y-97609050D01*
X112116049Y-97599500D01*
X111883951Y-97599500D01*
X111838164Y-97607140D01*
X111655015Y-97637702D01*
X111435504Y-97713061D01*
X111435495Y-97713064D01*
X111231371Y-97823531D01*
X111231365Y-97823535D01*
X111048222Y-97966081D01*
X111048219Y-97966084D01*
X111048216Y-97966086D01*
X111048216Y-97966087D01*
X111031870Y-97983844D01*
X110891016Y-98136852D01*
X110764075Y-98331151D01*
X110670842Y-98543699D01*
X110613866Y-98768691D01*
X110613864Y-98768702D01*
X110594700Y-98999993D01*
X110594700Y-99000006D01*
X93532476Y-99000006D01*
X93515670Y-96000000D01*
X93894592Y-96000000D01*
X93914201Y-96286680D01*
X93972666Y-96568034D01*
X93972667Y-96568037D01*
X94068894Y-96838793D01*
X94068893Y-96838793D01*
X94201098Y-97093935D01*
X94366812Y-97328700D01*
X94451923Y-97419831D01*
X94562947Y-97538708D01*
X94785853Y-97720055D01*
X94956708Y-97823955D01*
X95031382Y-97869365D01*
X95218237Y-97950526D01*
X95294942Y-97983844D01*
X95571642Y-98061371D01*
X95821920Y-98095771D01*
X95856321Y-98100500D01*
X95856322Y-98100500D01*
X96143679Y-98100500D01*
X96174370Y-98096281D01*
X96428358Y-98061371D01*
X96705058Y-97983844D01*
X96818015Y-97934779D01*
X96968617Y-97869365D01*
X96968620Y-97869363D01*
X96968625Y-97869361D01*
X97214147Y-97720055D01*
X97437053Y-97538708D01*
X97633189Y-97328698D01*
X97798901Y-97093936D01*
X97931104Y-96838797D01*
X98027334Y-96568032D01*
X98085798Y-96286686D01*
X98105408Y-96000000D01*
X171894592Y-96000000D01*
X171914201Y-96286680D01*
X171972666Y-96568034D01*
X171972667Y-96568037D01*
X172068894Y-96838793D01*
X172068893Y-96838793D01*
X172201098Y-97093935D01*
X172366812Y-97328700D01*
X172451923Y-97419831D01*
X172562947Y-97538708D01*
X172785853Y-97720055D01*
X172956708Y-97823955D01*
X173031382Y-97869365D01*
X173218237Y-97950526D01*
X173294942Y-97983844D01*
X173571642Y-98061371D01*
X173821920Y-98095771D01*
X173856321Y-98100500D01*
X173856322Y-98100500D01*
X174143679Y-98100500D01*
X174174370Y-98096281D01*
X174428358Y-98061371D01*
X174705058Y-97983844D01*
X174818015Y-97934779D01*
X174968617Y-97869365D01*
X174968620Y-97869363D01*
X174968625Y-97869361D01*
X175214147Y-97720055D01*
X175437053Y-97538708D01*
X175633189Y-97328698D01*
X175798901Y-97093936D01*
X175931104Y-96838797D01*
X176027334Y-96568032D01*
X176085798Y-96286686D01*
X176105408Y-96000000D01*
X176085798Y-95713314D01*
X176027334Y-95431968D01*
X175931105Y-95161206D01*
X175931106Y-95161206D01*
X175798901Y-94906064D01*
X175633187Y-94671299D01*
X175554554Y-94587105D01*
X175437053Y-94461292D01*
X175214147Y-94279945D01*
X175214146Y-94279944D01*
X174968617Y-94130634D01*
X174705063Y-94016158D01*
X174705061Y-94016157D01*
X174705058Y-94016156D01*
X174575578Y-93979877D01*
X174428364Y-93938630D01*
X174428359Y-93938629D01*
X174428358Y-93938629D01*
X174286018Y-93919064D01*
X174143679Y-93899500D01*
X174143678Y-93899500D01*
X173856322Y-93899500D01*
X173856321Y-93899500D01*
X173571642Y-93938629D01*
X173571635Y-93938630D01*
X173363861Y-93996845D01*
X173294942Y-94016156D01*
X173294939Y-94016156D01*
X173294936Y-94016158D01*
X173294935Y-94016158D01*
X173031382Y-94130634D01*
X172785853Y-94279944D01*
X172562950Y-94461289D01*
X172366812Y-94671299D01*
X172201098Y-94906064D01*
X172068894Y-95161206D01*
X171972667Y-95431962D01*
X171972666Y-95431965D01*
X171914201Y-95713319D01*
X171894592Y-96000000D01*
X98105408Y-96000000D01*
X98085798Y-95713314D01*
X98027334Y-95431968D01*
X97931105Y-95161206D01*
X97931106Y-95161206D01*
X97798901Y-94906064D01*
X97633187Y-94671299D01*
X97554554Y-94587105D01*
X97437053Y-94461292D01*
X97214147Y-94279945D01*
X97214146Y-94279944D01*
X96968617Y-94130634D01*
X96705063Y-94016158D01*
X96705061Y-94016157D01*
X96705058Y-94016156D01*
X96575578Y-93979877D01*
X96428364Y-93938630D01*
X96428359Y-93938629D01*
X96428358Y-93938629D01*
X96286018Y-93919064D01*
X96143679Y-93899500D01*
X96143678Y-93899500D01*
X95856322Y-93899500D01*
X95856321Y-93899500D01*
X95571642Y-93938629D01*
X95571635Y-93938630D01*
X95363861Y-93996845D01*
X95294942Y-94016156D01*
X95294939Y-94016156D01*
X95294936Y-94016158D01*
X95294935Y-94016158D01*
X95031382Y-94130634D01*
X94785853Y-94279944D01*
X94562950Y-94461289D01*
X94366812Y-94671299D01*
X94201098Y-94906064D01*
X94068894Y-95161206D01*
X93972667Y-95431962D01*
X93972666Y-95431965D01*
X93914201Y-95713319D01*
X93894592Y-96000000D01*
X93515670Y-96000000D01*
X93502373Y-93626535D01*
X93521681Y-93559392D01*
X93574227Y-93513342D01*
X93626539Y-93501846D01*
X176260171Y-93615943D01*
G37*
%TD.AperFunction*%
%TA.AperFunction,Conductor*%
G36*
X146602857Y-133985389D02*
G01*
X146653188Y-134033851D01*
X146669500Y-134095326D01*
X146669500Y-139079185D01*
X146649815Y-139146224D01*
X146597011Y-139191979D01*
X146532709Y-139202524D01*
X146531185Y-139202366D01*
X145777953Y-139955598D01*
X145765165Y-139874852D01*
X145707641Y-139761955D01*
X145618045Y-139672359D01*
X145505148Y-139614835D01*
X145424400Y-139602046D01*
X146178797Y-138847647D01*
X146178797Y-138847645D01*
X146148360Y-138823955D01*
X146148354Y-138823951D01*
X145944302Y-138713523D01*
X145944293Y-138713520D01*
X145724860Y-138638188D01*
X145496007Y-138600000D01*
X145263993Y-138600000D01*
X145035139Y-138638188D01*
X144815706Y-138713520D01*
X144815697Y-138713523D01*
X144611650Y-138823949D01*
X144581200Y-138847647D01*
X145335600Y-139602046D01*
X145254852Y-139614835D01*
X145141955Y-139672359D01*
X145052359Y-139761955D01*
X144994835Y-139874852D01*
X144982046Y-139955600D01*
X144228811Y-139202365D01*
X144144516Y-139331390D01*
X144051317Y-139543864D01*
X143994361Y-139768781D01*
X143975202Y-139999994D01*
X143993256Y-140217880D01*
X143979174Y-140286316D01*
X143930329Y-140336275D01*
X143869393Y-140352120D01*
X141590972Y-140346863D01*
X141523978Y-140327023D01*
X141478345Y-140274114D01*
X141467682Y-140212623D01*
X141485300Y-140000005D01*
X141485300Y-139999993D01*
X141466135Y-139768702D01*
X141466133Y-139768691D01*
X141409157Y-139543699D01*
X141315924Y-139331151D01*
X141188983Y-139136852D01*
X141188980Y-139136849D01*
X141188979Y-139136847D01*
X141031784Y-138966087D01*
X141031779Y-138966083D01*
X141031777Y-138966081D01*
X140848634Y-138823535D01*
X140848628Y-138823531D01*
X140644504Y-138713064D01*
X140644495Y-138713061D01*
X140424984Y-138637702D01*
X140244428Y-138607573D01*
X140196049Y-138599500D01*
X139963951Y-138599500D01*
X139918164Y-138607140D01*
X139735015Y-138637702D01*
X139515504Y-138713061D01*
X139515495Y-138713064D01*
X139311371Y-138823531D01*
X139311365Y-138823535D01*
X139128222Y-138966081D01*
X139128219Y-138966084D01*
X139128216Y-138966086D01*
X139128216Y-138966087D01*
X139096999Y-138999998D01*
X138971016Y-139136852D01*
X138913809Y-139224416D01*
X138860662Y-139269773D01*
X138791431Y-139279197D01*
X138728095Y-139249695D01*
X138706191Y-139224416D01*
X138648983Y-139136852D01*
X138648980Y-139136849D01*
X138648979Y-139136847D01*
X138491784Y-138966087D01*
X138491779Y-138966083D01*
X138491777Y-138966081D01*
X138308634Y-138823535D01*
X138308628Y-138823531D01*
X138104504Y-138713064D01*
X138104495Y-138713061D01*
X137884984Y-138637702D01*
X137704428Y-138607573D01*
X137656049Y-138599500D01*
X137423951Y-138599500D01*
X137378164Y-138607140D01*
X137195015Y-138637702D01*
X136975504Y-138713061D01*
X136975495Y-138713064D01*
X136771371Y-138823531D01*
X136771365Y-138823535D01*
X136588222Y-138966081D01*
X136588219Y-138966084D01*
X136588216Y-138966086D01*
X136588216Y-138966087D01*
X136556999Y-138999998D01*
X136431016Y-139136852D01*
X136373809Y-139224416D01*
X136320662Y-139269773D01*
X136251431Y-139279197D01*
X136188095Y-139249695D01*
X136166191Y-139224416D01*
X136108983Y-139136852D01*
X136108980Y-139136849D01*
X136108979Y-139136847D01*
X135951784Y-138966087D01*
X135951779Y-138966083D01*
X135951777Y-138966081D01*
X135768634Y-138823535D01*
X135768628Y-138823531D01*
X135564504Y-138713064D01*
X135564495Y-138713061D01*
X135344984Y-138637702D01*
X135164428Y-138607573D01*
X135116049Y-138599500D01*
X134883951Y-138599500D01*
X134838164Y-138607140D01*
X134655015Y-138637702D01*
X134435504Y-138713061D01*
X134435495Y-138713064D01*
X134231371Y-138823531D01*
X134231365Y-138823535D01*
X134048222Y-138966081D01*
X134048219Y-138966084D01*
X134048216Y-138966086D01*
X134048216Y-138966087D01*
X134016999Y-138999998D01*
X133891016Y-139136852D01*
X133833809Y-139224416D01*
X133780662Y-139269773D01*
X133711431Y-139279197D01*
X133648095Y-139249695D01*
X133626191Y-139224416D01*
X133568983Y-139136852D01*
X133568980Y-139136849D01*
X133568979Y-139136847D01*
X133411784Y-138966087D01*
X133411779Y-138966083D01*
X133411777Y-138966081D01*
X133228634Y-138823535D01*
X133228628Y-138823531D01*
X133024504Y-138713064D01*
X133024495Y-138713061D01*
X132804984Y-138637702D01*
X132624428Y-138607573D01*
X132576049Y-138599500D01*
X132343951Y-138599500D01*
X132298164Y-138607140D01*
X132115015Y-138637702D01*
X131895504Y-138713061D01*
X131895495Y-138713064D01*
X131691371Y-138823531D01*
X131691365Y-138823535D01*
X131508222Y-138966081D01*
X131508219Y-138966084D01*
X131508216Y-138966086D01*
X131508216Y-138966087D01*
X131476999Y-138999998D01*
X131351016Y-139136852D01*
X131224075Y-139331151D01*
X131130842Y-139543699D01*
X131073866Y-139768691D01*
X131073864Y-139768702D01*
X131054700Y-139999993D01*
X131054700Y-139999994D01*
X131054700Y-140000000D01*
X131068293Y-140164044D01*
X131070283Y-140188063D01*
X131056201Y-140256499D01*
X131007356Y-140306458D01*
X130946420Y-140322302D01*
X128513472Y-140316689D01*
X128446478Y-140296849D01*
X128400845Y-140243940D01*
X128390182Y-140182449D01*
X128390787Y-140175154D01*
X128398665Y-140080080D01*
X128405300Y-140000005D01*
X128405300Y-139999993D01*
X128386135Y-139768702D01*
X128386133Y-139768691D01*
X128329157Y-139543699D01*
X128235924Y-139331151D01*
X128108983Y-139136852D01*
X128108980Y-139136849D01*
X128108979Y-139136847D01*
X127951784Y-138966087D01*
X127951779Y-138966083D01*
X127951777Y-138966081D01*
X127768634Y-138823535D01*
X127768628Y-138823531D01*
X127564504Y-138713064D01*
X127564495Y-138713061D01*
X127344984Y-138637702D01*
X127164428Y-138607573D01*
X127116049Y-138599500D01*
X126883951Y-138599500D01*
X126838164Y-138607140D01*
X126655015Y-138637702D01*
X126435504Y-138713061D01*
X126435495Y-138713064D01*
X126231371Y-138823531D01*
X126231365Y-138823535D01*
X126048222Y-138966081D01*
X126048219Y-138966084D01*
X126048216Y-138966086D01*
X126048216Y-138966087D01*
X126016999Y-138999998D01*
X125891016Y-139136852D01*
X125833809Y-139224416D01*
X125780662Y-139269773D01*
X125711431Y-139279197D01*
X125648095Y-139249695D01*
X125626191Y-139224416D01*
X125568983Y-139136852D01*
X125568980Y-139136849D01*
X125568979Y-139136847D01*
X125411784Y-138966087D01*
X125411779Y-138966083D01*
X125411777Y-138966081D01*
X125228634Y-138823535D01*
X125228628Y-138823531D01*
X125024504Y-138713064D01*
X125024495Y-138713061D01*
X124804984Y-138637702D01*
X124624428Y-138607573D01*
X124576049Y-138599500D01*
X124343951Y-138599500D01*
X124298164Y-138607140D01*
X124115015Y-138637702D01*
X123895501Y-138713062D01*
X123895486Y-138713069D01*
X123855786Y-138734554D01*
X123796768Y-138749500D01*
X119663232Y-138749500D01*
X119604214Y-138734554D01*
X119564513Y-138713069D01*
X119564507Y-138713066D01*
X119564503Y-138713064D01*
X119564500Y-138713063D01*
X119564498Y-138713062D01*
X119344984Y-138637702D01*
X119164428Y-138607573D01*
X119116049Y-138599500D01*
X118883951Y-138599500D01*
X118838164Y-138607140D01*
X118655015Y-138637702D01*
X118435504Y-138713061D01*
X118435495Y-138713064D01*
X118231371Y-138823531D01*
X118231365Y-138823535D01*
X118048222Y-138966081D01*
X118048219Y-138966084D01*
X118048216Y-138966086D01*
X118048216Y-138966087D01*
X118016999Y-138999998D01*
X117891016Y-139136852D01*
X117833809Y-139224416D01*
X117780662Y-139269773D01*
X117711431Y-139279197D01*
X117648095Y-139249695D01*
X117626191Y-139224416D01*
X117568983Y-139136852D01*
X117568980Y-139136849D01*
X117568979Y-139136847D01*
X117411784Y-138966087D01*
X117411779Y-138966083D01*
X117411777Y-138966081D01*
X117228634Y-138823535D01*
X117228628Y-138823531D01*
X117024504Y-138713064D01*
X117024495Y-138713061D01*
X116925298Y-138679006D01*
X116877880Y-138649406D01*
X114630016Y-136401542D01*
X114620749Y-136391173D01*
X114598706Y-136363532D01*
X114548803Y-136319932D01*
X114542707Y-136314233D01*
X114535732Y-136307258D01*
X114535721Y-136307248D01*
X114504455Y-136281145D01*
X114502339Y-136279338D01*
X114429203Y-136215440D01*
X114429197Y-136215436D01*
X114429196Y-136215435D01*
X114425441Y-136213191D01*
X114409573Y-136201932D01*
X114406219Y-136199132D01*
X114406218Y-136199131D01*
X114406213Y-136199127D01*
X114321748Y-136151201D01*
X114319344Y-136149801D01*
X114235963Y-136099984D01*
X114231869Y-136098448D01*
X114214244Y-136090202D01*
X114210445Y-136088046D01*
X114118769Y-136055967D01*
X114116153Y-136055019D01*
X114025229Y-136020894D01*
X114025219Y-136020891D01*
X114020923Y-136020112D01*
X114002118Y-136015149D01*
X113997984Y-136013702D01*
X113997977Y-136013701D01*
X113902048Y-135998507D01*
X113899305Y-135998041D01*
X113803750Y-135980700D01*
X113803747Y-135980700D01*
X113799372Y-135980700D01*
X113779969Y-135979172D01*
X113775660Y-135978489D01*
X113678559Y-135980669D01*
X113675777Y-135980700D01*
X103685986Y-135980700D01*
X103672102Y-135979920D01*
X103636977Y-135975962D01*
X103636969Y-135975961D01*
X103570867Y-135980419D01*
X103562525Y-135980700D01*
X103552638Y-135980700D01*
X103512051Y-135984352D01*
X103509282Y-135984570D01*
X103412390Y-135991103D01*
X103408149Y-135992172D01*
X103388976Y-135995430D01*
X103384608Y-135995823D01*
X103290985Y-136021662D01*
X103288295Y-136022372D01*
X103194119Y-136046102D01*
X103190122Y-136047918D01*
X103171859Y-136054539D01*
X103167631Y-136055706D01*
X103080116Y-136097849D01*
X103077600Y-136099026D01*
X102989176Y-136139191D01*
X102989171Y-136139194D01*
X102985575Y-136141686D01*
X102968771Y-136151471D01*
X102964831Y-136153368D01*
X102964829Y-136153369D01*
X102886260Y-136210451D01*
X102883995Y-136212058D01*
X102804145Y-136267380D01*
X102801039Y-136270486D01*
X102786265Y-136283103D01*
X102782728Y-136285673D01*
X102782721Y-136285678D01*
X102715604Y-136355877D01*
X102713659Y-136357865D01*
X101230509Y-137841015D01*
X101195242Y-137865712D01*
X101187264Y-137869432D01*
X101000858Y-137999954D01*
X100839954Y-138160858D01*
X100709432Y-138347265D01*
X100709431Y-138347267D01*
X100613261Y-138553502D01*
X100613258Y-138553511D01*
X100554366Y-138773302D01*
X100554364Y-138773313D01*
X100534532Y-138999998D01*
X100534532Y-139000001D01*
X100554364Y-139226686D01*
X100554366Y-139226697D01*
X100613258Y-139446488D01*
X100613261Y-139446497D01*
X100709431Y-139652732D01*
X100709432Y-139652734D01*
X100839954Y-139839141D01*
X101000858Y-140000045D01*
X101040152Y-140027559D01*
X101083777Y-140082136D01*
X101090971Y-140151634D01*
X101059448Y-140213989D01*
X100999219Y-140249403D01*
X100968743Y-140253134D01*
X96681136Y-140243241D01*
X96614142Y-140223401D01*
X96568509Y-140170492D01*
X96558725Y-140101311D01*
X96587897Y-140037822D01*
X96646762Y-140000184D01*
X96647890Y-139999861D01*
X96705058Y-139983844D01*
X96818015Y-139934779D01*
X96968617Y-139869365D01*
X96968620Y-139869363D01*
X96968625Y-139869361D01*
X97214147Y-139720055D01*
X97437053Y-139538708D01*
X97633189Y-139328698D01*
X97798901Y-139093936D01*
X97931104Y-138838797D01*
X98027334Y-138568032D01*
X98085798Y-138286686D01*
X98105408Y-138000000D01*
X98085798Y-137713314D01*
X98027334Y-137431968D01*
X97997347Y-137347594D01*
X97931105Y-137161206D01*
X97931106Y-137161206D01*
X97798901Y-136906064D01*
X97633187Y-136671299D01*
X97554554Y-136587105D01*
X97437053Y-136461292D01*
X97214147Y-136279945D01*
X97214146Y-136279944D01*
X96968617Y-136130634D01*
X96705063Y-136016158D01*
X96705061Y-136016157D01*
X96705058Y-136016156D01*
X96570625Y-135978490D01*
X96428364Y-135938630D01*
X96428359Y-135938629D01*
X96428358Y-135938629D01*
X96286018Y-135919064D01*
X96143679Y-135899500D01*
X96143678Y-135899500D01*
X95856322Y-135899500D01*
X95856321Y-135899500D01*
X95571642Y-135938629D01*
X95571635Y-135938630D01*
X95380543Y-135992172D01*
X95294942Y-136016156D01*
X95294939Y-136016156D01*
X95294936Y-136016158D01*
X95294935Y-136016158D01*
X95031382Y-136130634D01*
X94785853Y-136279944D01*
X94562950Y-136461289D01*
X94366812Y-136671299D01*
X94201098Y-136906064D01*
X94068895Y-137161204D01*
X93988142Y-137388419D01*
X93947144Y-137444995D01*
X93882066Y-137470425D01*
X93813571Y-137456634D01*
X93763405Y-137408001D01*
X93747305Y-137347594D01*
X93732374Y-134682298D01*
X93751681Y-134615158D01*
X93804227Y-134569108D01*
X93873329Y-134558777D01*
X93876743Y-134559297D01*
X93883951Y-134560500D01*
X93883954Y-134560500D01*
X94116048Y-134560500D01*
X94116049Y-134560500D01*
X94344981Y-134522298D01*
X94564503Y-134446936D01*
X94768626Y-134336470D01*
X94951784Y-134193913D01*
X95028555Y-134110517D01*
X95088442Y-134074526D01*
X95119785Y-134070500D01*
X145038768Y-134070500D01*
X145097786Y-134085446D01*
X145133830Y-134104951D01*
X145137497Y-134106936D01*
X145247258Y-134144617D01*
X145357015Y-134182297D01*
X145357017Y-134182297D01*
X145357019Y-134182298D01*
X145585951Y-134220500D01*
X145585952Y-134220500D01*
X145818048Y-134220500D01*
X145818049Y-134220500D01*
X146046981Y-134182298D01*
X146266503Y-134106936D01*
X146470626Y-133996470D01*
X146470631Y-133996465D01*
X146474921Y-133993664D01*
X146475757Y-133994944D01*
X146534315Y-133971831D01*
X146602857Y-133985389D01*
G37*
%TD.AperFunction*%
%TA.AperFunction,Conductor*%
G36*
X144846817Y-129010185D02*
G01*
X144892572Y-129062989D01*
X144903540Y-129122184D01*
X144903200Y-129127647D01*
X145657599Y-129882046D01*
X145576852Y-129894835D01*
X145463955Y-129952359D01*
X145374359Y-130041955D01*
X145316835Y-130154852D01*
X145304046Y-130235600D01*
X144550811Y-129482365D01*
X144466516Y-129611390D01*
X144373317Y-129823864D01*
X144316361Y-130048781D01*
X144297202Y-130279994D01*
X144297202Y-130280005D01*
X144316361Y-130511218D01*
X144373317Y-130736135D01*
X144466515Y-130948606D01*
X144550812Y-131077633D01*
X145304046Y-130324399D01*
X145316835Y-130405148D01*
X145374359Y-130518045D01*
X145463955Y-130607641D01*
X145576852Y-130665165D01*
X145657598Y-130677953D01*
X144903201Y-131432351D01*
X144903541Y-131437816D01*
X144888048Y-131505946D01*
X144838181Y-131554885D01*
X144779779Y-131569500D01*
X95281100Y-131569500D01*
X95214061Y-131549815D01*
X95168306Y-131497011D01*
X95158362Y-131427853D01*
X95177292Y-131377678D01*
X95235482Y-131288611D01*
X95328682Y-131076135D01*
X95385638Y-130851218D01*
X95404798Y-130620005D01*
X95404798Y-130619994D01*
X95385638Y-130388781D01*
X95328682Y-130163864D01*
X95235481Y-129951385D01*
X95233043Y-129946880D01*
X95234553Y-129946062D01*
X95216557Y-129886426D01*
X95235741Y-129819241D01*
X95288202Y-129773093D01*
X95340554Y-129761500D01*
X141620214Y-129761500D01*
X141634097Y-129762279D01*
X141669227Y-129766238D01*
X141669228Y-129766237D01*
X141669230Y-129766238D01*
X141735333Y-129761781D01*
X141743675Y-129761500D01*
X141753549Y-129761500D01*
X141753555Y-129761500D01*
X141794193Y-129757841D01*
X141796904Y-129757628D01*
X141893812Y-129751096D01*
X141898046Y-129750028D01*
X141917241Y-129746767D01*
X141921588Y-129746377D01*
X142015256Y-129720525D01*
X142017844Y-129719841D01*
X142112083Y-129696096D01*
X142116055Y-129694291D01*
X142134362Y-129687654D01*
X142138570Y-129686493D01*
X142226140Y-129644321D01*
X142228531Y-129643202D01*
X142317026Y-129603007D01*
X142320620Y-129600516D01*
X142337435Y-129590724D01*
X142341373Y-129588829D01*
X142419992Y-129531708D01*
X142422124Y-129530194D01*
X142502054Y-129474820D01*
X142505143Y-129471730D01*
X142519945Y-129459088D01*
X142523478Y-129456522D01*
X142590639Y-129386275D01*
X142592496Y-129384376D01*
X142950055Y-129026819D01*
X143011378Y-128993334D01*
X143037736Y-128990500D01*
X144779778Y-128990500D01*
X144846817Y-129010185D01*
G37*
%TD.AperFunction*%
%TA.AperFunction,Conductor*%
G36*
X132615741Y-118416585D02*
G01*
X132661496Y-118469389D01*
X132671440Y-118538547D01*
X132668908Y-118551340D01*
X132613866Y-118768691D01*
X132613864Y-118768702D01*
X132594700Y-118999993D01*
X132594700Y-119000006D01*
X132613864Y-119231297D01*
X132613866Y-119231308D01*
X132670842Y-119456300D01*
X132764075Y-119668848D01*
X132891016Y-119863147D01*
X132891019Y-119863151D01*
X132891021Y-119863153D01*
X133048216Y-120033913D01*
X133048219Y-120033915D01*
X133048222Y-120033918D01*
X133225818Y-120172147D01*
X133266631Y-120228857D01*
X133270306Y-120298630D01*
X133235674Y-120359313D01*
X133225818Y-120367853D01*
X133048222Y-120506081D01*
X133048219Y-120506084D01*
X132891016Y-120676852D01*
X132764075Y-120871151D01*
X132670842Y-121083699D01*
X132613866Y-121308691D01*
X132613864Y-121308702D01*
X132594700Y-121539993D01*
X132594700Y-121540006D01*
X132613864Y-121771297D01*
X132613866Y-121771308D01*
X132670842Y-121996300D01*
X132764075Y-122208848D01*
X132891016Y-122403147D01*
X132891019Y-122403151D01*
X132891021Y-122403153D01*
X133048216Y-122573913D01*
X133048219Y-122573915D01*
X133048222Y-122573918D01*
X133225818Y-122712147D01*
X133266631Y-122768857D01*
X133270306Y-122838630D01*
X133235674Y-122899313D01*
X133225818Y-122907853D01*
X133048222Y-123046081D01*
X133048219Y-123046084D01*
X132891016Y-123216852D01*
X132764075Y-123411151D01*
X132670842Y-123623699D01*
X132613866Y-123848691D01*
X132613864Y-123848702D01*
X132594700Y-124079993D01*
X132594700Y-124080006D01*
X132613864Y-124311297D01*
X132613866Y-124311308D01*
X132670842Y-124536300D01*
X132764075Y-124748848D01*
X132891016Y-124943147D01*
X132891019Y-124943151D01*
X132891021Y-124943153D01*
X133048216Y-125113913D01*
X133226225Y-125252462D01*
X133267038Y-125309173D01*
X133270713Y-125378946D01*
X133236082Y-125439629D01*
X133226225Y-125448170D01*
X133201201Y-125467646D01*
X133201200Y-125467647D01*
X133955600Y-126222046D01*
X133874852Y-126234835D01*
X133761955Y-126292359D01*
X133672359Y-126381955D01*
X133614835Y-126494852D01*
X133602046Y-126575600D01*
X132848811Y-125822365D01*
X132764516Y-125951390D01*
X132671317Y-126163864D01*
X132614361Y-126388781D01*
X132595202Y-126619994D01*
X132595202Y-126620005D01*
X132614361Y-126851218D01*
X132671316Y-127076132D01*
X132675948Y-127086691D01*
X132684849Y-127155992D01*
X132654872Y-127219104D01*
X132595532Y-127255989D01*
X132562391Y-127260500D01*
X95203556Y-127260500D01*
X95136517Y-127240815D01*
X95112326Y-127220483D01*
X95108979Y-127216847D01*
X94951784Y-127046087D01*
X94908442Y-127012352D01*
X94867630Y-126955644D01*
X94863955Y-126885871D01*
X94898586Y-126825187D01*
X94960528Y-126792860D01*
X94984605Y-126790500D01*
X101874814Y-126790500D01*
X101888697Y-126791279D01*
X101923827Y-126795238D01*
X101923828Y-126795237D01*
X101923830Y-126795238D01*
X101989933Y-126790781D01*
X101998275Y-126790500D01*
X102008149Y-126790500D01*
X102008155Y-126790500D01*
X102048793Y-126786841D01*
X102051504Y-126786628D01*
X102148412Y-126780096D01*
X102152646Y-126779028D01*
X102171841Y-126775767D01*
X102176188Y-126775377D01*
X102269856Y-126749525D01*
X102272444Y-126748841D01*
X102366683Y-126725096D01*
X102370655Y-126723291D01*
X102388962Y-126716654D01*
X102393170Y-126715493D01*
X102480740Y-126673321D01*
X102483131Y-126672202D01*
X102571626Y-126632007D01*
X102575220Y-126629516D01*
X102592035Y-126619724D01*
X102595973Y-126617829D01*
X102674592Y-126560708D01*
X102676724Y-126559194D01*
X102756654Y-126503820D01*
X102759743Y-126500730D01*
X102774545Y-126488088D01*
X102778078Y-126485522D01*
X102845239Y-126415275D01*
X102847096Y-126413376D01*
X110827255Y-118433219D01*
X110888578Y-118399734D01*
X110914936Y-118396900D01*
X132548702Y-118396900D01*
X132615741Y-118416585D01*
G37*
%TD.AperFunction*%
%TA.AperFunction,Conductor*%
G36*
X137146103Y-118416585D02*
G01*
X137166745Y-118433219D01*
X144343678Y-125610152D01*
X144369822Y-125652025D01*
X144370783Y-125651604D01*
X144466075Y-125868848D01*
X144593016Y-126063147D01*
X144593019Y-126063151D01*
X144593021Y-126063153D01*
X144750216Y-126233913D01*
X144793557Y-126267647D01*
X144834370Y-126324356D01*
X144838045Y-126394129D01*
X144803414Y-126454813D01*
X144741472Y-126487140D01*
X144717395Y-126489500D01*
X142545586Y-126489500D01*
X142531703Y-126488720D01*
X142517679Y-126487140D01*
X142496576Y-126484762D01*
X142496569Y-126484761D01*
X142433707Y-126489000D01*
X142430462Y-126489219D01*
X142422122Y-126489500D01*
X142412237Y-126489500D01*
X142371684Y-126493149D01*
X142368916Y-126493367D01*
X142271988Y-126499902D01*
X142271981Y-126499903D01*
X142267727Y-126500975D01*
X142248574Y-126504230D01*
X142244211Y-126504623D01*
X142244202Y-126504624D01*
X142150613Y-126530454D01*
X142147924Y-126531164D01*
X142053718Y-126554903D01*
X142049722Y-126556718D01*
X142031459Y-126563339D01*
X142027238Y-126564504D01*
X142027221Y-126564510D01*
X141939689Y-126606662D01*
X141937172Y-126607840D01*
X141848774Y-126647992D01*
X141845172Y-126650488D01*
X141828380Y-126660267D01*
X141824429Y-126662170D01*
X141824420Y-126662175D01*
X141745811Y-126719287D01*
X141743585Y-126720866D01*
X141708538Y-126745148D01*
X141663745Y-126776180D01*
X141660639Y-126779286D01*
X141645865Y-126791903D01*
X141642328Y-126794473D01*
X141642321Y-126794478D01*
X141575204Y-126864677D01*
X141573259Y-126866665D01*
X141215745Y-127224181D01*
X141154422Y-127257666D01*
X141128064Y-127260500D01*
X135437609Y-127260500D01*
X135370570Y-127240815D01*
X135324815Y-127188011D01*
X135314871Y-127118853D01*
X135324052Y-127086691D01*
X135328683Y-127076132D01*
X135385638Y-126851218D01*
X135404798Y-126620005D01*
X135404798Y-126619994D01*
X135385638Y-126388781D01*
X135328682Y-126163864D01*
X135235484Y-125951393D01*
X135151186Y-125822365D01*
X134397953Y-126575598D01*
X134385165Y-126494852D01*
X134327641Y-126381955D01*
X134238045Y-126292359D01*
X134125148Y-126234835D01*
X134044400Y-126222046D01*
X134798797Y-125467647D01*
X134798797Y-125467646D01*
X134773773Y-125448169D01*
X134732961Y-125391459D01*
X134729286Y-125321686D01*
X134763918Y-125261003D01*
X134773760Y-125252473D01*
X134951784Y-125113913D01*
X135108979Y-124943153D01*
X135235924Y-124748849D01*
X135329157Y-124536300D01*
X135386134Y-124311305D01*
X135389572Y-124269815D01*
X135405300Y-124080006D01*
X135405300Y-124079993D01*
X135386135Y-123848702D01*
X135386133Y-123848691D01*
X135329157Y-123623699D01*
X135235924Y-123411151D01*
X135108983Y-123216852D01*
X135108980Y-123216849D01*
X135108979Y-123216847D01*
X134951784Y-123046087D01*
X134774180Y-122907853D01*
X134733368Y-122851143D01*
X134729693Y-122781370D01*
X134764324Y-122720687D01*
X134774181Y-122712146D01*
X134951784Y-122573913D01*
X135108979Y-122403153D01*
X135235924Y-122208849D01*
X135329157Y-121996300D01*
X135386134Y-121771305D01*
X135390960Y-121713061D01*
X135405300Y-121540006D01*
X135405300Y-121539993D01*
X135386135Y-121308702D01*
X135386133Y-121308691D01*
X135329157Y-121083699D01*
X135235924Y-120871151D01*
X135108983Y-120676852D01*
X135108980Y-120676849D01*
X135108979Y-120676847D01*
X134951784Y-120506087D01*
X134774180Y-120367853D01*
X134733368Y-120311143D01*
X134729693Y-120241370D01*
X134764324Y-120180687D01*
X134774181Y-120172146D01*
X134951784Y-120033913D01*
X135108979Y-119863153D01*
X135235924Y-119668849D01*
X135329157Y-119456300D01*
X135386134Y-119231305D01*
X135405300Y-119000000D01*
X135405300Y-118999993D01*
X135386135Y-118768702D01*
X135386133Y-118768691D01*
X135331092Y-118551340D01*
X135333717Y-118481520D01*
X135373673Y-118424203D01*
X135438274Y-118397586D01*
X135451298Y-118396900D01*
X137079064Y-118396900D01*
X137146103Y-118416585D01*
G37*
%TD.AperFunction*%
%TD*%
M02*
