%TF.GenerationSoftware,KiCad,Pcbnew,7.0.11+dfsg-1build4*%
%TF.CreationDate,2024-10-08T00:01:05+02:00*%
%TF.ProjectId,BertheVarioTac-Shema,42657274-6865-4566-9172-696f5461632d,rev?*%
%TF.SameCoordinates,Original*%
%TF.FileFunction,Copper,L1,Top*%
%TF.FilePolarity,Positive*%
%FSLAX46Y46*%
G04 Gerber Fmt 4.6, Leading zero omitted, Abs format (unit mm)*
G04 Created by KiCad (PCBNEW 7.0.11+dfsg-1build4) date 2024-10-08 00:01:05*
%MOMM*%
%LPD*%
G01*
G04 APERTURE LIST*
%TA.AperFunction,ComponentPad*%
%ADD10C,1.800000*%
%TD*%
%TA.AperFunction,ComponentPad*%
%ADD11C,1.600000*%
%TD*%
%TA.AperFunction,ComponentPad*%
%ADD12O,1.600000X1.600000*%
%TD*%
%TA.AperFunction,ViaPad*%
%ADD13C,0.600000*%
%TD*%
%TA.AperFunction,Conductor*%
%ADD14C,1.500000*%
%TD*%
G04 APERTURE END LIST*
D10*
%TO.P,SW1,1*%
%TO.N,Net-(Lipo-1S-to-5V1-IN_3.7v)*%
X167000000Y-132540000D03*
%TO.P,SW1,2*%
%TO.N,Net-(BT1-+)*%
X167000000Y-130000000D03*
%TD*%
%TO.P,Usb-C-charger1,1,B-*%
%TO.N,GNDREF*%
X168000000Y-104000000D03*
%TO.P,Usb-C-charger1,2,+*%
%TO.N,Net-(BT1-+)*%
X168000000Y-113000000D03*
%TD*%
D11*
%TO.P,R1,1*%
%TO.N,Net-(R1-Pad1)*%
X101840000Y-139000000D03*
D12*
%TO.P,R1,2*%
%TO.N,Net-(P4-Pin_1)*%
X112000000Y-139000000D03*
%TD*%
D10*
%TO.P,CN1,1,Pin_1*%
%TO.N,Net-(BMP180_Press1-VIN)*%
X153000000Y-140000000D03*
%TO.P,CN1,2,Pin_2*%
%TO.N,Net-(BMP180_Press1-SDA)*%
X150460000Y-140000000D03*
%TO.P,CN1,3,Pin_3*%
%TO.N,Net-(BMP180_Press1-SCL)*%
X147920000Y-140000000D03*
%TO.P,CN1,4,Pin_4*%
%TO.N,GNDREF*%
X145380000Y-140000000D03*
%TD*%
%TO.P,S1,1,1*%
%TO.N,Net-(P4-Pin_2)*%
X119000000Y-140000000D03*
%TO.P,S1,2,2*%
%TO.N,Net-(R1-Pad1)*%
X116460000Y-140000000D03*
%TD*%
%TO.P,P4,1,Pin_1*%
%TO.N,Net-(P4-Pin_1)*%
X127000000Y-140000000D03*
%TO.P,P4,2,Pin_2*%
%TO.N,Net-(P4-Pin_2)*%
X124460000Y-140000000D03*
%TD*%
%TO.P,GPS-NEO6M1,1,GND*%
%TO.N,GNDREF*%
X129964000Y-125810000D03*
%TO.P,GPS-NEO6M1,2,TX*%
%TO.N,Net-(GPS-NEO6M1-TX)*%
X129964000Y-123270000D03*
%TO.P,GPS-NEO6M1,3,RX*%
%TO.N,unconnected-(GPS-NEO6M1-RX-Pad3)*%
X129964000Y-120730000D03*
%TO.P,GPS-NEO6M1,4,VCC*%
%TO.N,Net-(BMP180_Press1-VIN)*%
X129964000Y-118190000D03*
%TD*%
%TO.P,Lipo-1S-to-5V1,1,OUT_5V*%
%TO.N,Net-(Lipo-1S-to-5V1-OUT_5V)*%
X135460000Y-106500000D03*
%TO.P,Lipo-1S-to-5V1,2,IN_3.7v*%
%TO.N,Net-(Lipo-1S-to-5V1-IN_3.7v)*%
X138000000Y-106500000D03*
%TO.P,Lipo-1S-to-5V1,3,GND*%
%TO.N,GNDREF*%
X140540000Y-106500000D03*
%TD*%
%TO.P,BT1,1,+*%
%TO.N,Net-(BT1-+)*%
X172000000Y-130000000D03*
%TO.P,BT1,2,-*%
%TO.N,GNDREF*%
X172000000Y-132540000D03*
%TD*%
%TO.P,QMC5883_Mag1,1,VCC*%
%TO.N,Net-(BMP180_Press1-VIN)*%
X94000000Y-132160000D03*
%TO.P,QMC5883_Mag1,2,GND*%
%TO.N,GNDREF*%
X94000000Y-129620000D03*
%TO.P,QMC5883_Mag1,3,SCL*%
%TO.N,Net-(BMP180_Press1-SCL)*%
X94000000Y-127080000D03*
%TO.P,QMC5883_Mag1,4,SDA*%
%TO.N,Net-(BMP180_Press1-SDA)*%
X94000000Y-124540000D03*
%TO.P,QMC5883_Mag1,5*%
%TO.N,N/C*%
X94000000Y-122000000D03*
%TD*%
%TO.P,P1,1,Pin_1*%
%TO.N,Net-(Lipo-1S-to-5V1-OUT_5V)*%
X166540000Y-140000000D03*
%TO.P,P1,2,Pin_2*%
%TO.N,Net-(GPS-NEO6M1-TX)*%
X164000000Y-140000000D03*
%TO.P,P1,3,Pin_3*%
%TO.N,unconnected-(P1-Pin_3-Pad3)*%
X161460000Y-140000000D03*
%TO.P,P1,4,Pin_4*%
%TO.N,GNDREF*%
X158920000Y-140000000D03*
%TD*%
%TO.P,P5,1,1*%
%TO.N,Net-(Lipo-1S-to-5V1-IN_3.7v)*%
X112000000Y-99000000D03*
%TO.P,P5,2,2*%
%TO.N,Net-(P3-Pin_3)*%
X114500000Y-103000000D03*
%TO.P,P5,3,3*%
%TO.N,GNDREF*%
X117000000Y-99000000D03*
%TD*%
%TO.P,BMP180_Press1,1,SDA*%
%TO.N,Net-(BMP180_Press1-SDA)*%
X146000000Y-116000000D03*
%TO.P,BMP180_Press1,2,SCL*%
%TO.N,Net-(BMP180_Press1-SCL)*%
X146000000Y-118540000D03*
%TO.P,BMP180_Press1,3,GND*%
%TO.N,GNDREF*%
X146000000Y-121080000D03*
%TO.P,BMP180_Press1,4,VIN*%
%TO.N,Net-(BMP180_Press1-VIN)*%
X146000000Y-123620000D03*
%TD*%
%TO.P,P3,1,Pin_1*%
%TO.N,unconnected-(P3-Pin_1-Pad1)*%
X140080000Y-140000000D03*
%TO.P,P3,2,Pin_2*%
%TO.N,unconnected-(P3-Pin_2-Pad2)*%
X137540000Y-140000000D03*
%TO.P,P3,3,Pin_3*%
%TO.N,Net-(P3-Pin_3)*%
X135000000Y-140000000D03*
%TO.P,P3,4,Pin_4*%
%TO.N,unconnected-(P3-Pin_4-Pad4)*%
X132460000Y-140000000D03*
%TD*%
D13*
%TO.N,Net-(BMP180_Press1-VIN)*%
X152725200Y-131182500D03*
%TD*%
D14*
%TO.N,Net-(P4-Pin_1)*%
X115153600Y-138146400D02*
X125233300Y-138146400D01*
X127000000Y-139913100D02*
X127000000Y-140000000D01*
X112000000Y-139000000D02*
X114300000Y-139000000D01*
X114300000Y-139000000D02*
X115153600Y-138146400D01*
X125233300Y-138146400D02*
X127000000Y-139913100D01*
%TO.N,Net-(BT1-+)*%
X168000000Y-113000000D02*
X168000000Y-128125000D01*
X170125000Y-128125000D02*
X172000000Y-130000000D01*
X168000000Y-128125000D02*
X170125000Y-128125000D01*
X167000000Y-129125000D02*
X168000000Y-128125000D01*
X167000000Y-130000000D02*
X167000000Y-129125000D01*
%TO.N,GNDREF*%
X140540000Y-106392900D02*
X133147100Y-99000000D01*
X145713800Y-121080000D02*
X146000000Y-121080000D01*
X129172700Y-116324800D02*
X140958600Y-116324800D01*
X128085000Y-124009900D02*
X128085000Y-117412500D01*
X140958600Y-116324800D02*
X145713800Y-121080000D01*
X129964000Y-125810000D02*
X129885100Y-125810000D01*
X129885100Y-125810000D02*
X128085000Y-124009900D01*
X133147100Y-99000000D02*
X117000000Y-99000000D01*
X140540000Y-106500000D02*
X140540000Y-106392900D01*
X128085000Y-117412500D02*
X129172700Y-116324800D01*
%TO.N,Net-(Lipo-1S-to-5V1-OUT_5V)*%
X166540000Y-137054200D02*
X166540000Y-140000000D01*
X141754100Y-112892100D02*
X145561900Y-112892100D01*
X145561900Y-112892100D02*
X152260000Y-119590200D01*
X152260000Y-122774200D02*
X166540000Y-137054200D01*
X135460000Y-106598000D02*
X141754100Y-112892100D01*
X135460000Y-106500000D02*
X135460000Y-106598000D01*
X152260000Y-119590200D02*
X152260000Y-122774200D01*
%TO.N,Net-(GPS-NEO6M1-TX)*%
X138886900Y-123270000D02*
X150546900Y-134930000D01*
X129964000Y-123270000D02*
X138886900Y-123270000D01*
X150546900Y-134930000D02*
X159009400Y-134930000D01*
X164000000Y-139920600D02*
X164000000Y-140000000D01*
X159009400Y-134930000D02*
X164000000Y-139920600D01*
%TO.N,Net-(P4-Pin_2)*%
X124460000Y-140000000D02*
X119000000Y-140000000D01*
%TO.N,Net-(BMP180_Press1-VIN)*%
X146000000Y-123620000D02*
X143442200Y-123620000D01*
X146000000Y-124457300D02*
X152725200Y-131182500D01*
X146000000Y-123620000D02*
X146000000Y-124457300D01*
X143442200Y-123620000D02*
X138012200Y-118190000D01*
X138012200Y-118190000D02*
X129964000Y-118190000D01*
%TO.N,Net-(BMP180_Press1-SDA)*%
X102355000Y-124540000D02*
X94000000Y-124540000D01*
X146000000Y-116000000D02*
X144622900Y-114622900D01*
X144622900Y-114622900D02*
X112272100Y-114622900D01*
X112272100Y-114622900D02*
X102355000Y-124540000D01*
%TO.N,Net-(BMP180_Press1-SCL)*%
X145055200Y-137049600D02*
X147920000Y-139914400D01*
X126147100Y-127080000D02*
X136116700Y-137049600D01*
X147920000Y-139914400D02*
X147920000Y-140000000D01*
X136116700Y-137049600D02*
X145055200Y-137049600D01*
X94000000Y-127080000D02*
X126147100Y-127080000D01*
%TO.N,Net-(Lipo-1S-to-5V1-IN_3.7v)*%
X138000000Y-106420700D02*
X138000000Y-106500000D01*
X112000000Y-99000000D02*
X114164300Y-99000000D01*
X133653000Y-102073700D02*
X138000000Y-106420700D01*
X167000000Y-132540000D02*
X166888100Y-132540000D01*
X146187800Y-111111100D02*
X142502000Y-111111100D01*
X166888100Y-132540000D02*
X154563100Y-120215000D01*
X117238000Y-102073700D02*
X133653000Y-102073700D01*
X154563100Y-119486400D02*
X146187800Y-111111100D01*
X154563100Y-120215000D02*
X154563100Y-119486400D01*
X138000000Y-106609100D02*
X138000000Y-106500000D01*
X114164300Y-99000000D02*
X117238000Y-102073700D01*
X142502000Y-111111100D02*
X138000000Y-106609100D01*
%TD*%
M02*
